<svg width="24.000000" height="24.000000" viewBox="0 0 24 24" fill="none" xmlns="http://www.w3.org/2000/svg" xmlns:xlink="http://www.w3.org/1999/xlink">
	<desc>
			Created with Pixso.
	</desc>
	<defs>
		<clipPath id="clip430_6920">
			<rect id="Iconly/Broken/Info Square" width="24.000000" height="24.000000" fill="white" fill-opacity="0"/>
		</clipPath>
	</defs>
	<rect id="Iconly/Broken/Info Square" width="24.000000" height="24.000000" fill="#FFFFFF" fill-opacity="0"/>
	<g clip-path="url(#clip430_6920)">
		<path id="Info Square" d="M8.25415 1.99976L15.7473 1.99976C19.6082 1.99976 22.0002 4.39282 22.0002 8.25586L22.0002 15.7559C22.0002 19.6077 19.6082 21.9998 15.7473 21.9998L8.24414 21.9998C4.39233 21.9998 2.00024 19.6077 2.00122 15.7527C2.00122 15.3308 2.34326 14.9878 2.76636 14.9878C3.18823 14.9878 3.53125 15.3308 3.53125 15.7527C3.53125 18.7869 5.20215 20.4668 8.25415 20.4668L15.7473 20.4668C18.7903 20.4668 20.4702 18.7957 20.4702 15.7527L20.4702 8.25269C20.4702 5.20972 18.8003 3.52979 15.7473 3.52979L8.25317 3.52979C5.21021 3.52979 3.53027 5.20972 3.53027 8.25269L3.53027 10.5837C3.53027 11.0017 3.19116 11.3398 2.77417 11.3398L2.76318 11.3398C2.34131 11.3398 1.99927 10.9968 2.00024 10.5747L2.00024 8.25269C2.00024 4.39282 4.41016 1.99976 8.25415 1.99976ZM11.9951 8.95386L12.0051 8.95386C12.4189 8.95386 12.7551 8.61792 12.7551 8.20386C12.7551 7.78979 12.4189 7.45386 12.0051 7.45386C11.5911 7.45386 11.25 7.78979 11.25 8.20386C11.25 8.61792 11.5811 8.95386 11.9951 8.95386ZM11.9946 16.5457C11.5808 16.5457 11.2446 16.2097 11.2446 15.7957L11.2446 11.3757C11.2446 10.9617 11.5808 10.6257 11.9946 10.6257C12.4087 10.6257 12.7446 10.9617 12.7446 11.3757L12.7446 15.7957C12.7446 16.2097 12.4087 16.5457 11.9946 16.5457Z" clip-rule="evenodd" fill="#212121" fill-opacity="1.000000" fill-rule="evenodd"/>
	</g>
</svg>
