<svg width="24.000000" height="24.000000" viewBox="0 0 24 24" fill="none" xmlns="http://www.w3.org/2000/svg" xmlns:xlink="http://www.w3.org/1999/xlink">
	<desc>
			Created with Pixso.
	</desc>
	<defs>
		<clipPath id="clip430_7084">
			<rect id="Iconly/Broken/Login" width="24.000000" height="24.000000" fill="white" fill-opacity="0"/>
		</clipPath>
	</defs>
	<rect id="Iconly/Broken/Login" width="24.000000" height="24.000000" fill="#FFFFFF" fill-opacity="0"/>
	<g clip-path="url(#clip430_7084)">
		<path id="Login" d="M11.8208 2L16.8875 2C19.4302 2 21.5 3.98999 21.5 6.43701L21.5 14.0508C21.5 14.4758 21.1404 14.8198 20.6995 14.8198C20.2566 14.8198 19.8979 14.4758 19.8979 14.0508L19.8979 6.43701C19.8979 4.84009 18.5476 3.54004 16.8875 3.54004L11.8208 3.54004C10.1543 3.54004 8.79883 4.84399 8.79883 6.44702L8.79883 7.37793C8.79883 7.80298 8.44116 8.14697 7.99829 8.14697C7.55664 8.14697 7.198 7.80298 7.198 7.37793L7.198 6.44702C7.198 3.99487 9.27173 2 11.8208 2ZM13.5911 10.3599C13.4419 10.5127 13.2449 10.5889 13.0469 10.5889C12.8528 10.5889 12.6577 10.5149 12.5073 10.3657L11.7751 9.63892C11.4746 9.33984 11.4714 8.85278 11.769 8.5498C12.0657 8.24683 12.5503 8.24487 12.8528 8.54395L13.5862 9.27173C13.8867 9.56982 13.8896 10.0579 13.5911 10.3599ZM11.7732 14.3633C11.4736 14.6631 11.4727 15.1501 11.7712 15.4521C11.9204 15.6033 12.1177 15.6782 12.3135 15.6782C12.5095 15.6782 12.7056 15.6033 12.855 15.4541L15.7625 12.5461C15.9814 12.3262 16.0481 11.9941 15.9297 11.7063C15.8113 11.4172 15.5317 11.2292 15.2212 11.2292L3.26611 11.2292C2.84326 11.2292 2.5 11.5752 2.5 12.0002C2.5 12.4253 2.84326 12.7703 3.26611 12.7703L13.3655 12.7703L11.7732 14.3633ZM20.699 16.783C20.2573 16.783 19.8987 17.1279 19.8987 17.553C19.8987 19.156 18.543 20.46 16.8767 20.46L11.8098 20.46C10.1506 20.46 8.79932 19.1599 8.79932 17.563L8.79932 16.6221C8.79932 16.197 8.44067 15.8521 7.99878 15.8521C7.55713 15.8521 7.19849 16.197 7.19849 16.6221L7.19849 17.563C7.19849 20.01 9.26709 22 11.8098 22L16.8767 22C19.4255 22 21.4995 20.0051 21.4995 17.553C21.4995 17.1279 21.1409 16.783 20.699 16.783Z" clip-rule="evenodd" fill="#212121" fill-opacity="1.000000" fill-rule="evenodd"/>
	</g>
</svg>
