<svg width="24.000000" height="24.000000" viewBox="0 0 24 24" fill="none" xmlns="http://www.w3.org/2000/svg" xmlns:xlink="http://www.w3.org/1999/xlink">
	<desc>
			Created with Pixso.
	</desc>
	<defs>
		<clipPath id="clip430_7132">
			<rect id="Iconly/Broken/Filter" width="24.000000" height="24.000000" fill="white" fill-opacity="0"/>
		</clipPath>
	</defs>
	<rect id="Iconly/Broken/Filter" width="24.000000" height="24.000000" fill="#FFFFFF" fill-opacity="0"/>
	<g clip-path="url(#clip430_7132)">
		<path id="Filter" d="M3.00024 6.52808C3.00024 8.4729 4.60303 10.0559 6.57446 10.0559C8.5459 10.0559 10.1487 8.4729 10.1487 6.52808C10.1487 4.58203 8.5459 3 6.57446 3C6.30298 3 6.03369 3.02979 5.77197 3.09058C5.32056 3.19312 5.04004 3.63867 5.14502 4.08325C5.25 4.52783 5.69946 4.80811 6.1521 4.70117C6.28833 4.67017 6.4314 4.65479 6.57446 4.65479C7.62183 4.65479 8.47217 5.49438 8.47217 6.52808C8.47217 7.56055 7.62183 8.40112 6.57446 8.40112C5.52734 8.40112 4.67676 7.56055 4.67676 6.52808C4.67676 6.42212 4.68579 6.31714 4.70239 6.2168C4.77954 5.76562 4.46997 5.33984 4.01392 5.26367C3.55249 5.19214 3.12549 5.49316 3.04956 5.94434C3.01709 6.13403 3.00024 6.32935 3.00024 6.52808ZM14.2893 7.35498L21.1616 7.35498C21.6243 7.35498 21.9998 6.98438 21.9998 6.52759C21.9998 6.0708 21.6243 5.7002 21.1616 5.7002L14.2893 5.7002C13.8267 5.7002 13.4509 6.0708 13.4509 6.52759C13.4509 6.98438 13.8267 7.35498 14.2893 7.35498ZM14.8516 17.522C14.8516 19.467 16.4543 21.05 18.4258 21.05C20.3962 21.05 22 19.467 22 17.522C22 17.3235 21.9832 17.1282 21.9509 16.9385C21.8748 16.4873 21.4412 16.1829 20.9863 16.2578C20.5303 16.334 20.2207 16.7598 20.2979 17.2109C20.3147 17.3113 20.3235 17.416 20.3235 17.522C20.3235 18.5547 19.4719 19.3953 18.4258 19.3953C17.3787 19.3953 16.5281 18.5547 16.5281 17.522C16.5281 16.3472 17.6904 15.4326 18.8528 15.6951C19.3032 15.7979 19.7524 15.5164 19.8564 15.0718C19.9592 14.6272 19.6753 14.1826 19.2239 14.0823C18.9624 14.0239 18.6941 13.9941 18.4258 13.9941C16.4543 13.9941 14.8516 15.5759 14.8516 17.522ZM10.7117 18.3491L3.83813 18.3491C3.37549 18.3491 3 17.9785 3 17.5217C3 17.0652 3.37549 16.6943 3.83813 16.6943L10.7117 16.6943C11.1743 16.6943 11.5498 17.0652 11.5498 17.5217C11.5498 17.9785 11.1743 18.3491 10.7117 18.3491Z" clip-rule="evenodd" fill="#212121" fill-opacity="1.000000" fill-rule="evenodd"/>
	</g>
</svg>
