<svg width="24.000000" height="24.000000" viewBox="0 0 24 24" fill="none" xmlns="http://www.w3.org/2000/svg" xmlns:xlink="http://www.w3.org/1999/xlink">
	<desc>
			Created with Pixso.
	</desc>
	<defs>
		<clipPath id="clip430_7150">
			<rect id="Iconly/Broken/Call" width="24.000000" height="24.000000" fill="white" fill-opacity="0"/>
		</clipPath>
	</defs>
	<rect id="Iconly/Broken/Call" width="24.000000" height="24.000000" fill="#FFFFFF" fill-opacity="0"/>
	<g clip-path="url(#clip430_7150)">
		<path id="Call" d="M3.94434 8.27661C3.39136 7.06226 3.35547 6.15552 3.87036 5.448C4.20239 4.89722 5.6665 3.48193 6.38232 3.49902C6.50952 3.50903 6.68042 3.61401 6.86255 3.79272C7.45239 4.36743 8.91455 6.29761 9.05444 6.65845C9.10742 6.9082 8.98242 7.14209 8.75659 7.53394C8.45557 8.05664 8.04346 8.77222 8.39038 9.72681C9.17944 11.6567 10.3875 13.2129 11.9817 14.3535C12.1135 14.4473 12.2656 14.4934 12.4175 14.4934C12.6516 14.4934 12.8816 14.3833 13.0276 14.1794C13.2686 13.8428 13.1917 13.375 12.8545 13.1331C11.4937 12.1616 10.4595 10.8242 9.79053 9.18799C9.69946 8.93921 9.7915 8.74219 10.0566 8.28149L10.0571 8.28027C10.3262 7.81274 10.6943 7.17236 10.5234 6.35254C10.3645 5.58984 8.38257 3.1792 7.9104 2.71851C7.46753 2.28662 6.99536 2.04663 6.47949 2.00366C4.83838 1.89673 2.92725 4.10864 2.62329 4.61743C1.80737 5.72974 1.79224 7.17114 2.57935 8.89722C2.75146 9.2749 3.19434 9.43994 3.57227 9.26904C3.94946 9.09717 4.11548 8.65332 3.94434 8.27661ZM17.6477 13.4734C18.4136 13.6323 20.8228 15.6133 21.2837 16.084C21.7178 16.5278 21.9578 17.0005 21.9988 17.4873C22.0637 19.3293 19.5967 21.2544 19.3137 21.4163C18.7756 21.8042 18.1445 22 17.4346 22C16.7285 22 15.9446 21.8062 15.0955 21.4104C11.8306 20.0549 6.89233 15.6602 4.11426 11.6272C3.87939 11.2864 3.96533 10.8198 4.3064 10.585C4.64819 10.353 5.11523 10.437 5.34937 10.7778C7.94434 14.5449 12.6846 18.7856 15.7007 20.0391C16.9207 20.6057 17.8286 20.6406 18.5046 20.156C19.0317 19.8372 20.5288 18.3499 20.5017 17.5762C20.4927 17.4854 20.3887 17.3145 20.2117 17.1335C19.6357 16.5437 17.7026 15.0815 17.2986 14.9297C16.9795 14.8616 16.6477 15.0557 16.1416 15.3745L15.8855 15.5332C15.5305 15.7461 15.0696 15.6333 14.8555 15.2773C14.6426 14.9236 14.7566 14.4629 15.1116 14.249L15.3425 14.106C15.9026 13.7532 16.6755 13.2715 17.6477 13.4734Z" clip-rule="evenodd" fill="#212121" fill-opacity="1.000000" fill-rule="evenodd"/>
	</g>
</svg>
