<svg width="24.000000" height="24.000000" viewBox="0 0 24 24" fill="none" xmlns="http://www.w3.org/2000/svg" xmlns:xlink="http://www.w3.org/1999/xlink">
	<desc>
			Created with Pixso.
	</desc>
	<defs>
		<clipPath id="clip430_7076">
			<rect id="Iconly/Broken/Volume Off" width="24.000000" height="24.000000" fill="white" fill-opacity="0"/>
		</clipPath>
	</defs>
	<rect id="Iconly/Broken/Volume Off" width="24.000000" height="24.000000" fill="#FFFFFF" fill-opacity="0"/>
	<g clip-path="url(#clip430_7076)">
		<path id="Volume Off" d="M15.2549 7.62451L20.1289 2.73535C20.4426 2.42163 20.9507 2.42163 21.2646 2.73535C21.5784 3.05005 21.5784 3.55957 21.2646 3.87427L3.92383 21.2642C3.76758 21.4209 3.56201 21.5 3.35669 21.5C3.15112 21.5 2.94556 21.4209 2.78809 21.2642C2.47534 20.9495 2.47534 20.4399 2.78809 20.1252L13.6924 9.19165C13.6809 7.88208 13.6536 7.67944 13.6079 7.36108L13.52 6.62061C13.4744 6.19116 13.4275 5.74829 13.335 5.38867C13.197 4.93091 12.8545 4.60913 12.4868 4.60913L12.4663 4.60913C12.3169 4.61499 11.947 4.76147 11.7188 4.95386L7.95312 8.04468C7.80933 8.1626 7.63013 8.22656 7.44531 8.22656L5.30835 8.22656C4.63501 8.22656 4.31543 8.80005 4.23999 9.33813C4.06079 10.7898 4.05981 13.3025 4.23999 14.5972C4.30176 15.0378 3.99585 15.4453 3.5564 15.5061C3.5188 15.5117 3.48096 15.5142 3.44458 15.5142C3.04956 15.5142 2.70605 15.2222 2.65015 14.8203C2.42969 13.2395 2.47192 10.5505 2.64771 9.12744C2.85425 7.64282 3.94678 6.61597 5.30835 6.61597L7.15869 6.61597L10.6914 3.71631C11.1184 3.35449 11.866 3.02246 12.4629 2.99854C13.5312 3.01465 14.5222 3.75171 14.8806 4.95483C15.0117 5.4585 15.0654 5.9624 15.1167 6.44995L15.199 7.1333C15.2219 7.29468 15.24 7.43433 15.2549 7.62451ZM14.5034 13.551C14.0286 13.5544 13.6953 13.9014 13.6895 14.3445C13.6714 15.5591 13.6313 16.4221 13.5708 16.9143C13.5515 17.0791 13.5344 17.2441 13.5183 17.4077C13.4773 17.8245 13.4373 18.2205 13.3425 18.5835C13.1965 19.0676 12.8552 19.3916 12.4453 19.3916C12.4426 19.3916 12.4402 19.3918 12.4375 19.3921C12.4316 19.3923 12.426 19.3928 12.4202 19.3904C12.3245 19.3904 12.0229 19.2886 11.7856 19.0881L10.3738 17.9331C10.0291 17.6538 9.52441 17.7053 9.24365 18.0488C8.96289 18.3933 9.01538 18.9004 9.35889 19.1809L10.7607 20.3269C11.1304 20.6406 11.7834 21.0012 12.3813 21.0012C12.4167 21.0022 12.4521 21.0022 12.4875 21.0022C13.572 21.0022 14.5286 20.2227 14.887 19.0208C15.0239 18.509 15.0708 18.0293 15.1165 17.5669L15.1655 17.1101C15.2339 16.5562 15.2761 15.6597 15.2944 14.3684C15.3013 13.9231 14.9475 13.5579 14.5034 13.551Z" clip-rule="evenodd" fill="#212121" fill-opacity="1.000000" fill-rule="evenodd"/>
	</g>
</svg>
