<svg width="24.000000" height="24.000000" viewBox="0 0 24 24" fill="none" xmlns="http://www.w3.org/2000/svg" xmlns:xlink="http://www.w3.org/1999/xlink">
	<desc>
			Created with Pixso.
	</desc>
	<defs>
		<clipPath id="clip430_6999">
			<rect id="Iconly/Broken/Time Square" width="24.000000" height="24.000000" fill="white" fill-opacity="0"/>
		</clipPath>
	</defs>
	<rect id="Iconly/Broken/Time Square" width="24.000000" height="24.000000" fill="#FFFFFF" fill-opacity="0"/>
	<g clip-path="url(#clip430_6999)">
		<path id="Time Square" d="M2.77393 11.3398C3.19189 11.3398 3.53003 11.0017 3.53003 10.5837L3.53003 8.25269C3.53003 5.20972 5.20996 3.52979 8.25293 3.52979L15.7471 3.52979C18.8 3.52979 20.47 5.20972 20.47 8.25269L20.47 15.7527C20.47 18.7957 18.79 20.4668 15.7471 20.4668L8.25391 20.4668C5.2019 20.4668 3.53101 18.7869 3.53101 15.7527C3.53101 15.3308 3.18896 14.9878 2.76611 14.9878C2.34302 14.9878 2.00098 15.3308 2.00098 15.7527C2 19.6077 4.39209 21.9998 8.2439 21.9998L15.7471 21.9998C19.6079 21.9998 22 19.6077 22 15.7559L22 8.25586C22 4.39282 19.6079 1.99976 15.7471 1.99976L8.25391 1.99976C4.40991 1.99976 2 4.39282 2 8.25269L2 10.5747C1.99902 10.9968 2.34106 11.3398 2.76294 11.3398L2.77393 11.3398ZM12.0002 6.88354C11.5862 6.88354 11.2502 7.21948 11.2502 7.63354L11.2502 11.9937C11.2502 12.2576 11.3892 12.5024 11.6162 12.6387L15.0073 14.6616C15.1282 14.7336 15.2603 14.7676 15.3911 14.7676C15.6462 14.7676 15.8962 14.6365 16.0361 14.4016C16.2483 14.0457 16.1311 13.5854 15.7761 13.3726L12.7502 11.5686L12.7502 7.63354C12.7502 7.21948 12.4143 6.88354 12.0002 6.88354Z" clip-rule="evenodd" fill="#212121" fill-opacity="1.000000" fill-rule="evenodd"/>
	</g>
</svg>
