<svg width="24.000000" height="24.000000" viewBox="0 0 24 24" fill="none" xmlns="http://www.w3.org/2000/svg" xmlns:xlink="http://www.w3.org/1999/xlink">
	<desc>
			Created with Pixso.
	</desc>
	<defs>
		<clipPath id="clip430_6898">
			<rect id="Iconly/Broken/Bag 3" width="24.000000" height="24.000000" fill="white" fill-opacity="0"/>
		</clipPath>
	</defs>
	<rect id="Iconly/Broken/Bag 3" width="24.000000" height="24.000000" fill="#FFFFFF" fill-opacity="0"/>
	<g clip-path="url(#clip430_6898)">
		<path id="Bag 2" d="M16.62 6.47L16.41 6.47C16.38 4 14.42 2 12.01 2C10.79 2.01 9.72 2.45 8.88 3.31C8.06 4.14 7.6 5.26 7.58 6.47L7.37 6.47C4.68 6.47 2.5 8.71 2.5 11.47L2.5 16.99C2.5 19.75 4.68 22 7.37 22C7.78 22 8.11 21.66 8.11 21.25C8.11 20.83 7.78 20.5 7.37 20.5C5.49 20.5 3.96 18.92 3.96 16.99L3.96 11.47C3.96 9.54 5.49 7.97 7.37 7.97L7.58 7.97L7.58 9.55C7.58 9.96 7.9 10.3 8.31 10.3C8.71 10.3 9.04 9.96 9.04 9.55L9.04 6.5C9.04 5.7 9.35 4.94 9.91 4.37C10.47 3.8 11.22 3.54 12 3.5C13.61 3.5 14.92 4.83 14.95 6.47L11.75 6.47C11.34 6.47 11.02 6.81 11.02 7.22C11.02 7.63 11.34 7.97 11.75 7.97L14.95 7.97L14.95 9.55C14.95 9.96 15.28 10.3 15.68 10.3C16.09 10.3 16.41 9.96 16.41 9.55L16.41 7.97L16.62 7.97C18.5 7.97 20.03 9.54 20.03 11.47L20.03 16.99C20.03 18.92 18.5 20.5 16.62 20.5L11.36 20.5C10.95 20.5 10.63 20.83 10.63 21.25C10.63 21.66 10.95 22 11.36 22L16.62 22C19.31 22 21.5 19.75 21.5 16.99L21.5 11.47C21.5 8.71 19.31 6.47 16.62 6.47Z" fill="#212121" fill-opacity="1.000000" fill-rule="nonzero"/>
	</g>
</svg>
