<svg width="24.000000" height="24.000000" viewBox="0 0 24 24" fill="none" xmlns="http://www.w3.org/2000/svg" xmlns:xlink="http://www.w3.org/1999/xlink">
	<desc>
			Created with Pixso.
	</desc>
	<defs>
		<clipPath id="clip430_6786">
			<rect id="Iconly/Broken/Paper Fail" width="24.000000" height="24.000000" fill="white" fill-opacity="0"/>
		</clipPath>
	</defs>
	<rect id="Iconly/Broken/Paper Fail" width="24.000000" height="24.000000" fill="#FFFFFF" fill-opacity="0"/>
	<g clip-path="url(#clip430_6786)">
		<path id="Paper Fail" d="M20.2917 7.55615L15.241 2.24463C15.0996 2.0957 14.905 2.01196 14.7017 2.01196L14.4973 2.01196C14.4775 2.01001 14.4604 2 14.4395 2C14.4197 2 14.4026 2.01001 14.3828 2.01196L7.96436 2.01196C5.50293 2.01196 3.5 4.03467 3.5 6.52124L3.5 10.8162C3.5 11.2329 3.83496 11.571 4.2478 11.571C4.6604 11.571 4.99536 11.2329 4.99536 10.8162L4.99536 6.52124C4.99536 4.86719 6.32739 3.52222 7.96436 3.52222L13.6919 3.52222L13.6919 5.68579C13.6919 7.5271 15.1763 9.02808 16.9998 9.03223L17.0007 9.03223C17.4133 9.03223 17.7473 8.69482 17.7485 8.27905C17.7495 7.86133 17.4155 7.52295 17.0027 7.52197C16.0017 7.52002 15.1873 6.69653 15.1873 5.68579L15.1873 4.3689L19.0046 8.38281L19.0046 17.4434C19.0046 19.1228 17.6726 20.49 16.0337 20.49L8.1748 20.49C6.3623 20.49 4.99536 19.1802 4.99536 17.4434L4.99536 14.9207C4.99536 14.5037 4.6604 14.1655 4.2478 14.1655C3.83496 14.1655 3.5 14.5037 3.5 14.9207L3.5 17.4434C3.5 19.9985 5.55371 22 8.1748 22L16.0337 22C18.4971 22 20.5 19.9553 20.5 17.4434L20.5 8.07983C20.5 7.88452 20.4253 7.69727 20.2917 7.55615ZM10.0903 15.4885C9.89893 15.4885 9.70752 15.4141 9.56177 15.2671C9.26978 14.9719 9.26978 14.4939 9.56177 14.1987L10.7612 12.9888L9.56177 11.7776C9.26978 11.4827 9.26978 11.0054 9.56177 10.7104C9.854 10.4155 10.3276 10.4155 10.6196 10.7104L11.8179 11.9216L13.0173 10.7104C13.3093 10.4155 13.782 10.4155 14.074 10.7104C14.3662 11.0054 14.3662 11.4827 14.074 11.7776L12.8757 12.9888L14.074 14.1987C14.3662 14.4939 14.3662 14.9719 14.074 15.2671C13.9285 15.4141 13.7371 15.4885 13.5457 15.4885C13.3542 15.4885 13.1628 15.4141 13.0173 15.2671L11.8179 14.0569L10.6196 15.2671C10.4731 15.4141 10.2817 15.4885 10.0903 15.4885Z" clip-rule="evenodd" fill="#212121" fill-opacity="1.000000" fill-rule="evenodd"/>
	</g>
</svg>
