<svg width="24.000000" height="24.000000" viewBox="0 0 24 24" fill="none" xmlns="http://www.w3.org/2000/svg" xmlns:xlink="http://www.w3.org/1999/xlink">
	<desc>
			Created with Pixso.
	</desc>
	<defs>
		<clipPath id="clip430_6823">
			<rect id="Iconly/Broken/Lock" width="24.000000" height="24.000000" fill="white" fill-opacity="0"/>
		</clipPath>
	</defs>
	<rect id="Iconly/Broken/Lock" width="24.000000" height="24.000000" fill="#FFFFFF" fill-opacity="0"/>
	<g clip-path="url(#clip430_6823)">
		<path id="Lock" d="M17.397 7.30103L17.397 8.89795C19.197 9.51904 20.5 11.188 20.5 13.1689L20.5 17.458C20.5 19.9629 18.4287 22 15.8826 22L12.4421 22C12.0212 22 11.6799 21.6641 11.6799 21.25C11.6799 20.8359 12.0212 20.5 12.4421 20.5L15.853 20.5C17.5586 20.5 18.9448 19.136 18.9448 17.458C18.9448 17.406 18.9644 17.3611 18.9753 17.313L18.9753 13.1689C18.9753 11.491 17.5881 10.127 15.8826 10.127L8.11743 10.127C6.41187 10.127 5.02466 11.491 5.02466 13.1689L5.02466 17.313C5.03467 17.3611 5.05396 17.406 5.05396 17.458C5.05396 19.136 6.44141 20.5 8.14697 20.5C8.56763 20.5 8.90918 20.8359 8.90918 21.25C8.90918 21.6641 8.56763 22 8.14697 22C8.13989 22 8.13379 21.998 8.12646 21.998C8.12354 21.998 8.12036 22 8.11743 22C5.57129 22 3.5 19.9629 3.5 17.458L3.5 13.1689C3.5 11.188 4.802 9.51904 6.60205 8.89795L6.60205 7.30103C6.61523 4.36304 9.03003 2 11.9897 2L12.0132 2C14.98 2 17.397 4.37793 17.397 7.30103ZM12.0103 3.5L11.9929 3.5C9.86768 3.5 8.13672 5.19409 8.12646 7.28394L8.12646 8.62695L15.8723 8.62695L15.8723 7.30103C15.8723 5.20508 14.1394 3.5 12.0103 3.5ZM12.762 14.2029L12.762 16.4238C12.762 16.8379 12.4207 17.1738 11.9998 17.1738C11.5791 17.1738 11.2375 16.8379 11.2375 16.4238L11.2375 14.2029C11.2375 13.7888 11.5791 13.4529 11.9998 13.4529C12.4207 13.4529 12.762 13.7888 12.762 14.2029Z" clip-rule="evenodd" fill="#212121" fill-opacity="1.000000" fill-rule="evenodd"/>
	</g>
</svg>
