<svg width="24.000000" height="24.000000" viewBox="0 0 24 24" fill="none" xmlns="http://www.w3.org/2000/svg" xmlns:xlink="http://www.w3.org/1999/xlink">
	<desc>
			Created with Pixso.
	</desc>
	<defs>
		<clipPath id="clip430_6986">
			<rect id="Iconly/Broken/Voice 3" width="24.000000" height="24.000000" fill="white" fill-opacity="0"/>
		</clipPath>
	</defs>
	<rect id="Iconly/Broken/Voice 3" width="24.000000" height="24.000000" fill="#FFFFFF" fill-opacity="0"/>
	<g clip-path="url(#clip430_6986)">
		<path id="Voice 2" d="M12.124 15.3914L11.8755 15.3914C9.49854 15.3914 7.56494 13.4155 7.56494 10.9875L7.56494 6.40381C7.56494 3.97583 9.49854 2 11.8755 2L12.124 2C14.501 2 16.4346 3.97583 16.4346 6.40381L16.4346 6.91187C16.4346 7.30884 16.1194 7.63086 15.731 7.63086L13.855 7.63086C13.4666 7.63086 13.1514 7.30884 13.1514 6.91187C13.1514 6.51489 13.4666 6.19287 13.855 6.19287L15.0195 6.19287C14.9128 4.65601 13.6555 3.43896 12.124 3.43896L11.8755 3.43896C10.2744 3.43896 8.9729 4.7688 8.9729 6.40381L8.9729 10.9875C8.9729 12.6226 10.2744 13.9526 11.8755 13.9526L12.124 13.9526C13.7249 13.9526 15.0264 12.6226 15.0264 10.9875L15.0264 10.8237L12.9165 10.8237C12.5281 10.8237 12.2131 10.5007 12.2131 10.1047C12.2131 9.70679 12.5281 9.38477 12.9165 9.38477L15.731 9.38477C16.1194 9.38477 16.4346 9.70679 16.4346 10.1047L16.4346 10.9875C16.4346 13.4155 14.501 15.3914 12.124 15.3914ZM9.07983 17.0359C6.81445 15.8899 5.4082 13.575 5.4082 10.9941C5.4082 10.5972 5.09204 10.2742 4.70361 10.2742C4.31519 10.2742 4 10.5972 4 10.9941C4 14.126 5.70752 16.9348 8.45532 18.3237C8.55518 18.3757 8.66187 18.3989 8.7666 18.3989C9.02588 18.3989 9.27539 18.2529 9.39868 17.9998C9.57104 17.6418 9.42725 17.2119 9.07983 17.0359ZM18.5928 10.9944C18.5928 10.5964 18.908 10.2744 19.2964 10.2744C19.6848 10.2744 20 10.5964 20 10.9944C20 15.2583 16.7864 18.7661 12.7039 19.1321L12.7039 21.28C12.7039 21.677 12.3887 22 12.0002 22C11.6108 22 11.2966 21.677 11.2966 21.28L11.2966 18.4502C11.2966 18.0522 11.6108 17.7302 12.0002 17.7302C15.6345 17.7302 18.5928 14.7083 18.5928 10.9944Z" clip-rule="evenodd" fill="#212121" fill-opacity="1.000000" fill-rule="evenodd"/>
	</g>
</svg>
