<svg width="24.000000" height="24.000000" viewBox="0 0 24 24" fill="none" xmlns="http://www.w3.org/2000/svg" xmlns:xlink="http://www.w3.org/1999/xlink">
	<desc>
			Created with Pixso.
	</desc>
	<defs>
		<clipPath id="clip430_6727">
			<rect id="Iconly/Broken/Wallet" width="24.000000" height="24.000000" fill="white" fill-opacity="0"/>
		</clipPath>
	</defs>
	<rect id="Iconly/Broken/Wallet" width="24.000000" height="24.000000" fill="#FFFFFF" fill-opacity="0"/>
	<g clip-path="url(#clip430_6727)">
		<path id="Wallet" d="M7.78491 2.5L16.2141 2.5C19.4045 2.5 22 5.15479 22 8.41895L22 15.5811C22 18.8452 19.4045 21.5 16.2141 21.5C15.8462 21.5 15.5476 21.1943 15.5476 20.8179C15.5476 20.4414 15.8462 20.1357 16.2141 20.1357C18.6694 20.1357 20.6667 18.093 20.6667 15.5811L20.6667 9.86499L17.3831 9.86499C16.3049 9.86597 15.4258 10.7644 15.4248 11.8687C15.4258 12.9727 16.3049 13.8713 17.3831 13.8721L18.7476 13.8721C19.1155 13.8721 19.4143 14.1777 19.4143 14.5542C19.4143 14.9309 19.1155 15.2363 18.7476 15.2363L17.3831 15.2363C15.5688 15.2356 14.0925 13.7249 14.0916 11.8687C14.0925 10.0122 15.5688 8.50171 17.3831 8.50073L20.6667 8.50073L20.6667 8.41895C20.6667 5.90698 18.6694 3.86426 16.2141 3.86426L7.78491 3.86426C5.80615 3.86426 4.14575 5.19946 3.56714 7.02832L12.3547 7.02832C12.7227 7.02832 13.0212 7.33398 13.0212 7.71045C13.0212 8.08789 12.7227 8.39258 12.3547 8.39258L3.33594 8.39258C3.33594 8.40161 3.33325 8.40991 3.33325 8.41895L3.33325 15.5811C3.33325 18.093 5.32983 20.1357 7.78491 20.1357L12.0259 20.1357C12.3938 20.1357 12.6924 20.4414 12.6924 20.8179C12.6924 21.1943 12.3938 21.5 12.0259 21.5L7.78491 21.5C4.59473 21.5 2 18.8452 2 15.5811L2 8.41895C2 5.15479 4.59473 2.5 7.78491 2.5ZM16.8611 11.8071C16.8611 11.4307 17.1597 11.125 17.5276 11.125L17.8308 11.125C18.1987 11.125 18.4973 11.4307 18.4973 11.8071C18.4973 12.1836 18.1987 12.4893 17.8308 12.4893L17.5276 12.4893C17.1597 12.4893 16.8611 12.1836 16.8611 11.8071Z" clip-rule="evenodd" fill="#212121" fill-opacity="1.000000" fill-rule="evenodd"/>
	</g>
</svg>
