<svg width="24.000000" height="24.000000" viewBox="0 0 24 24" fill="none" xmlns="http://www.w3.org/2000/svg" xmlns:xlink="http://www.w3.org/1999/xlink">
	<desc>
			Created with Pixso.
	</desc>
	<defs>
		<clipPath id="clip430_6877">
			<rect id="Iconly/Broken/Chart" width="24.000000" height="24.000000" fill="white" fill-opacity="0"/>
		</clipPath>
	</defs>
	<rect id="Iconly/Broken/Chart" width="24.000000" height="24.000000" fill="#FFFFFF" fill-opacity="0"/>
	<g clip-path="url(#clip430_6877)">
		<path id="Chart" d="M21.2349 11.3403C21.6575 11.3403 22 10.9978 22 10.5752L22 8.25342C22 4.39233 19.5901 2 15.7466 2L8.25342 2C4.39233 2 2 4.39233 2 8.25342L2 15.7556C2 19.6077 4.39233 22 8.25342 22L15.7556 22C19.6077 22 22 19.6077 22 15.7556C22 15.333 21.6575 14.9902 21.2349 14.9902C20.8123 14.9902 20.4697 15.333 20.4697 15.7556C20.4697 18.7898 18.7986 20.4697 15.7466 20.4697L8.25342 20.4697C5.21021 20.4697 3.53027 18.7986 3.53027 15.7556L3.53027 8.25342C3.53027 5.21021 5.20142 3.53027 8.25342 3.53027L15.7466 3.53027C18.7898 3.53027 20.4697 5.21021 20.4697 8.25342L20.4697 10.5664C20.4648 10.77 20.5425 10.967 20.6848 11.1125C20.8271 11.2583 21.0225 11.3403 21.2261 11.3403L21.2349 11.3403ZM11.27 7.32104L11.27 16.6965C11.27 17.1191 11.6125 17.4617 12.0352 17.4617C12.4578 17.4617 12.8003 17.1191 12.8003 16.6965L12.8003 7.32104C12.8003 6.89844 12.4578 6.55591 12.0352 6.55591C11.6125 6.55591 11.27 6.89844 11.27 7.32104ZM6.96045 16.6877L6.96045 10.2849C6.96729 10.0828 7.05493 9.8916 7.20361 9.75439C7.35229 9.61719 7.5498 9.54541 7.75195 9.55493C7.95508 9.56177 8.14697 9.64917 8.2854 9.79761C8.42407 9.94604 8.4978 10.1436 8.49072 10.3464L8.49072 16.7405C8.47607 17.1631 8.12183 17.4939 7.69922 17.4792C7.27661 17.4648 6.9458 17.1104 6.96045 16.6877ZM15.5093 16.6877L15.5093 13.6975C15.5093 13.2749 15.8518 12.9324 16.2744 12.9324C16.697 12.9324 17.0396 13.2749 17.0396 13.6975L17.0396 16.6877C17.0396 17.1104 16.697 17.4529 16.2744 17.4529C15.8518 17.4529 15.5093 17.1104 15.5093 16.6877Z" clip-rule="evenodd" fill="#212121" fill-opacity="1.000000" fill-rule="evenodd"/>
	</g>
</svg>
