<svg width="24.000000" height="24.000000" viewBox="0 0 24 24" fill="none" xmlns="http://www.w3.org/2000/svg" xmlns:xlink="http://www.w3.org/1999/xlink">
	<desc>
			Created with Pixso.
	</desc>
	<defs>
		<clipPath id="clip430_6781">
			<rect id="Iconly/Broken/Paper Plus" width="24.000000" height="24.000000" fill="white" fill-opacity="0"/>
		</clipPath>
	</defs>
	<rect id="Iconly/Broken/Paper Plus" width="24.000000" height="24.000000" fill="#FFFFFF" fill-opacity="0"/>
	<g clip-path="url(#clip430_6781)">
		<path id="Paper Plus" d="M20.2917 7.55615L15.241 2.24463C15.0996 2.0957 14.905 2.01196 14.7017 2.01196L14.4973 2.01196C14.4775 2.01001 14.4604 2 14.4395 2C14.4197 2 14.4026 2.01001 14.3818 2.01196L8.07007 2.01196C5.59253 2.01196 3.5 4.0769 3.5 6.52124L3.5 10.8162C3.5 11.2329 3.83496 11.571 4.2478 11.571C4.6604 11.571 4.99536 11.2329 4.99536 10.8162L4.99536 6.52124C4.99536 4.89551 6.40308 3.52222 8.07007 3.52222L13.6919 3.52222L13.6919 5.68579C13.6919 7.5271 15.1763 9.02808 16.9998 9.03223L17.0007 9.03223C17.4133 9.03223 17.7473 8.69482 17.7485 8.27905C17.7495 7.86133 17.4155 7.52295 17.0027 7.52197C16.0017 7.52002 15.1873 6.69653 15.1873 5.68579L15.1873 4.3689L19.0046 8.38281L19.0046 17.4434C19.0046 19.1228 17.6726 20.49 16.0337 20.49L8.07007 20.49C6.28857 20.49 4.99536 19.2083 4.99536 17.4434L4.99536 14.9207C4.99536 14.5037 4.6604 14.1655 4.2478 14.1655C3.83496 14.1655 3.5 14.5037 3.5 14.9207L3.5 17.4434C3.5 20.0408 5.46411 22 8.07007 22L16.0337 22C18.4971 22 20.5 19.9553 20.5 17.4434L20.5 8.07983C20.5 7.88452 20.4253 7.69727 20.2917 7.55615ZM11.0698 10.5215C11.0698 10.1045 11.4048 9.76636 11.8176 9.76636C12.2302 9.76636 12.5652 10.1045 12.5652 10.5215L12.5652 12.2339L14.261 12.2339C14.6738 12.2339 15.0088 12.572 15.0088 12.989C15.0088 13.4058 14.6738 13.7439 14.261 13.7439L12.5652 13.7439L12.5652 15.4556C12.5652 15.8723 12.2302 16.2104 11.8176 16.2104C11.4048 16.2104 11.0698 15.8723 11.0698 15.4556L11.0698 13.7439L9.375 13.7439C8.9624 13.7439 8.6272 13.4058 8.6272 12.989C8.6272 12.572 8.9624 12.2339 9.375 12.2339L11.0698 12.2339L11.0698 10.5215Z" clip-rule="evenodd" fill="#212121" fill-opacity="1.000000" fill-rule="evenodd"/>
	</g>
</svg>
