<svg width="24.000000" height="24.000000" viewBox="0 0 24 24" fill="none" xmlns="http://www.w3.org/2000/svg" xmlns:xlink="http://www.w3.org/1999/xlink">
	<desc>
			Created with Pixso.
	</desc>
	<defs>
		<clipPath id="clip430_6973">
			<rect id="Iconly/Broken/Voice" width="24.000000" height="24.000000" fill="white" fill-opacity="0"/>
		</clipPath>
	</defs>
	<rect id="Iconly/Broken/Voice" width="24.000000" height="24.000000" fill="#FFFFFF" fill-opacity="0"/>
	<g clip-path="url(#clip430_6973)">
		<path id="Voice" d="M11.8752 15.3921L12.1238 15.3921C14.5007 15.3921 16.4341 13.416 16.4341 10.9871L16.4341 6.40308C16.4341 3.9751 14.5007 2 12.1238 2L11.8752 2C9.49927 2 7.56592 3.9751 7.56592 6.40308L7.56592 10.9871C7.56592 13.416 9.49927 15.3921 11.8752 15.3921ZM8.9729 6.40308C8.9729 4.76807 10.2754 3.43799 11.8752 3.43799L12.1238 3.43799C13.7246 3.43799 15.0271 4.76807 15.0271 6.40308L15.0271 10.9871C15.0271 12.623 13.7246 13.9531 12.1238 13.9531L11.8752 13.9531C10.2754 13.9531 8.9729 12.623 8.9729 10.9871L8.9729 6.40308ZM9.07959 17.0359C6.81519 15.8899 5.4082 13.575 5.4082 10.9939C5.4082 10.5969 5.09302 10.2739 4.70361 10.2739C4.31519 10.2739 4 10.5969 4 10.9939C4 14.126 5.70752 16.9351 8.45532 18.324C8.55591 18.376 8.6626 18.3989 8.76733 18.3989C9.02661 18.3989 9.27612 18.2529 9.39844 18C9.5708 17.6421 9.42798 17.2119 9.07959 17.0359ZM19.2964 10.2739C19.6848 10.2739 20 10.5969 20 10.9939C20 15.259 16.7856 18.7661 12.7041 19.1331L12.7041 21.28C12.7041 21.678 12.3889 22 12.0005 22C11.6111 22 11.2959 21.678 11.2959 21.28L11.2959 18.45C11.2959 18.053 11.6111 17.73 12.0005 17.73C15.6348 17.73 18.5928 14.708 18.5928 10.9939C18.5928 10.5969 18.908 10.2739 19.2964 10.2739Z" clip-rule="evenodd" fill="#212121" fill-opacity="1.000000" fill-rule="evenodd"/>
	</g>
</svg>
