<svg width="24.000000" height="24.000000" viewBox="0 0 24 24" fill="none" xmlns="http://www.w3.org/2000/svg" xmlns:xlink="http://www.w3.org/1999/xlink">
	<desc>
			Created with Pixso.
	</desc>
	<defs>
		<clipPath id="clip430_7044">
			<rect id="Iconly/Broken/Volume Up" width="24.000000" height="24.000000" fill="white" fill-opacity="0"/>
		</clipPath>
	</defs>
	<rect id="Iconly/Broken/Volume Up" width="24.000000" height="24.000000" fill="#FFFFFF" fill-opacity="0"/>
	<g clip-path="url(#clip430_7044)">
		<path id="Volume Up" d="M19.3755 2.64282C19.7266 2.39087 20.2083 2.48047 20.4514 2.84668C22.0947 5.31763 23 8.57007 23 11.9998C23 12.4463 22.6536 12.8076 22.2278 12.8076C21.801 12.8076 21.4556 12.4463 21.4556 11.9998C21.4556 8.89575 20.6482 5.97363 19.1831 3.76855C18.9399 3.40137 19.0269 2.89844 19.3755 2.64282ZM13.1345 6.43188C13.085 5.94287 13.0344 5.43652 12.9067 4.93115C12.5625 3.72388 11.6133 2.98608 10.5791 2.96777C10.0315 2.97241 9.28662 3.32568 8.87744 3.68945L5.48071 6.59888L3.70093 6.59888C2.39307 6.59888 1.34155 7.62891 1.14233 9.11694C0.9729 10.5452 0.932373 13.2419 1.14453 14.8289C1.20288 15.271 1.59668 15.5725 2.01685 15.5183C2.43823 15.4561 2.73291 15.0476 2.67358 14.6067C2.50098 13.3074 2.50098 10.7869 2.67358 9.32886C2.74609 8.79028 3.05298 8.2146 3.70093 8.2146L5.75586 8.2146C5.93506 8.2146 6.10669 8.15015 6.24512 8.03174L9.86646 4.92993C10.0864 4.7356 10.4429 4.58936 10.5857 4.58472C10.9214 4.54224 11.2854 4.89771 11.4197 5.36743C11.5098 5.72876 11.5549 6.17188 11.5989 6.60107L11.6484 7.07178C11.8079 8.40796 11.8079 15.592 11.6472 16.9304C11.6287 17.0962 11.6133 17.2595 11.5977 17.4253C11.5571 17.8442 11.5198 18.2415 11.4272 18.6038C11.2854 19.1011 10.9268 19.4429 10.5461 19.4153C10.4648 19.4407 10.1624 19.3152 9.9314 19.1125L6.24292 15.9673C5.91309 15.6853 5.42676 15.738 5.15723 16.0835C4.88794 16.4299 4.93726 16.9373 5.26855 17.2192L8.94458 20.3555C9.2998 20.6697 9.92798 21.0322 10.5066 21.0322C10.5386 21.0312 10.5696 21.0322 10.6023 21.0332L10.6055 21.0334C11.6494 21.0334 12.5701 20.2498 12.9124 19.0447C13.0442 18.5312 13.0903 18.0515 13.1345 17.5854L13.1807 17.1284C13.3589 15.6426 13.3589 8.35742 13.1807 6.87402L13.1345 6.43188ZM15.6494 7.06738C15.4062 6.7002 15.4922 6.19727 15.843 5.94287C16.1929 5.68872 16.6736 5.77832 16.9177 6.14331C17.9714 7.72925 18.5522 9.80762 18.5522 12.0002C18.5522 14.1914 17.9714 16.2712 16.9177 17.856C16.7671 18.0815 16.5273 18.2012 16.283 18.2012C16.1313 18.2012 15.9773 18.1541 15.843 18.0562C15.4922 17.803 15.4062 17.2988 15.6494 16.9316C16.5251 15.615 17.0081 13.8645 17.0081 12.0002C17.0081 10.1357 16.5251 8.38281 15.6494 7.06738ZM22.0256 14.8501C21.6086 14.7637 21.1985 15.0342 21.1072 15.468C20.7397 17.2439 20.0742 18.8909 19.1833 20.2305C18.9402 20.5977 19.0259 21.1006 19.3757 21.355C19.51 21.4529 19.6641 21.5 19.8169 21.5C20.0601 21.5 20.3008 21.3792 20.4517 21.1548C21.457 19.6414 22.2061 17.7942 22.6162 15.811C22.7075 15.375 22.4426 14.9446 22.0256 14.8501Z" clip-rule="evenodd" fill="#212121" fill-opacity="1.000000" fill-rule="evenodd"/>
	</g>
</svg>
