<svg width="24.000000" height="24.000000" viewBox="0 0 24 24" fill="none" xmlns="http://www.w3.org/2000/svg" xmlns:xlink="http://www.w3.org/1999/xlink">
	<desc>
			Created with Pixso.
	</desc>
	<defs>
		<clipPath id="clip430_6863">
			<rect id="Iconly/Broken/Profile" width="24.000000" height="24.000000" fill="white" fill-opacity="0"/>
		</clipPath>
	</defs>
	<rect id="Iconly/Broken/Profile" width="24.000000" height="24.000000" fill="#FFFFFF" fill-opacity="0"/>
	<g clip-path="url(#clip430_6863)">
		<path id="Profile" d="M12 12.7068C9.02954 12.7068 6.6123 10.3047 6.6123 7.35376C6.6123 4.40186 9.02954 2 12 2C14.9707 2 17.3867 4.40186 17.3867 7.35376C17.3867 10.3047 14.9707 12.7068 12 12.7068ZM12 3.43701C9.82642 3.43701 8.05835 5.19385 8.05835 7.35376C8.05835 9.5127 9.82642 11.2698 12 11.2698C14.1736 11.2698 15.9417 9.5127 15.9417 7.35376C15.9417 5.19385 14.1736 3.43701 12 3.43701ZM12 22C11.6538 22 11.3127 21.9951 10.9775 21.9851C10.5791 21.9751 10.2651 21.644 10.2773 21.2471C10.2883 20.8511 10.6326 20.5532 11.0188 20.55C11.3408 20.5591 11.668 20.5632 12 20.5632C16.3491 20.5632 18.5549 19.8123 18.5549 18.3301C18.5549 16.8342 16.3491 16.0752 12 16.0752C7.65088 16.0752 5.44507 16.8271 5.44507 18.3103C5.44507 18.7952 5.61816 19.498 7.12061 20.0042C7.49878 20.1311 7.70117 20.5381 7.57324 20.9131C7.44458 21.2881 7.03589 21.4932 6.65649 21.363C4.46094 20.624 4 19.2952 4 18.3103C4 15.0203 8.56543 14.6392 12 14.6392C13.9783 14.6392 20 14.6392 20 18.3301C20 21.6191 15.4346 22 12 22Z" clip-rule="evenodd" fill="#212121" fill-opacity="1.000000" fill-rule="evenodd"/>
	</g>
</svg>
