<svg width="24.000000" height="24.000000" viewBox="0 0 24 24" fill="none" xmlns="http://www.w3.org/2000/svg" xmlns:xlink="http://www.w3.org/1999/xlink">
	<desc>
			Created with Pixso.
	</desc>
	<defs>
		<clipPath id="clip430_7004">
			<rect id="Iconly/Broken/Volume Down" width="24.000000" height="24.000000" fill="white" fill-opacity="0"/>
		</clipPath>
	</defs>
	<rect id="Iconly/Broken/Volume Down" width="24.000000" height="24.000000" fill="#FFFFFF" fill-opacity="0"/>
	<g clip-path="url(#clip430_7004)">
		<path id="Volume Down" d="M15.4443 6.45239C15.3936 5.96362 15.3418 5.46021 15.2109 4.95679C14.8577 3.75342 13.885 3.01831 12.8232 3C12.2615 3.00464 11.4976 3.35791 11.0791 3.72021L7.59473 6.61865L5.77026 6.61865C4.42773 6.61865 3.3501 7.64502 3.14697 9.12695C2.97217 10.5503 2.93042 13.2375 3.14819 14.8191C3.20801 15.2595 3.61182 15.5588 4.04175 15.5061C4.4751 15.4431 4.77734 15.0359 4.71655 14.5967C4.53833 13.303 4.53931 10.791 4.71655 9.33789C4.78979 8.80127 5.10571 8.22778 5.77026 8.22778L7.87695 8.22778C8.06079 8.22778 8.23682 8.16357 8.37891 8.04541L12.0933 4.95557C12.3179 4.76172 12.6833 4.61597 12.8313 4.61133C13.1753 4.56909 13.5476 4.92334 13.6865 5.39014C13.7778 5.75146 13.8242 6.19189 13.8694 6.61963L13.9202 7.09009C14.0837 8.42041 14.0837 15.5784 13.9202 16.9124C13.8997 17.0786 13.884 17.2415 13.8682 17.4067C13.8276 17.823 13.7891 18.2188 13.6934 18.5801C13.5476 19.0754 13.1809 19.416 12.7905 19.3875C12.707 19.4138 12.3958 19.2888 12.1587 19.0869L8.37793 15.9524C8.03833 15.6714 7.54077 15.7241 7.26318 16.0681C6.98657 16.4133 7.03735 16.9192 7.37695 17.2002L11.1477 20.3245C11.5122 20.6375 12.1565 20.9988 12.75 20.9988C12.7832 20.9978 12.8154 20.9988 12.8489 21L12.8503 21C13.9211 21 14.8655 20.22 15.2166 19.0193C15.3518 18.5078 15.3992 18.0283 15.4443 17.5649L15.4917 17.1096C15.6746 15.6289 15.6746 8.36987 15.4917 6.89258L15.4443 6.45239ZM18.0247 7.08569C17.7754 6.71851 17.8633 6.21851 18.2222 5.96387C18.582 5.71167 19.074 5.7998 19.3245 6.16455C20.4053 7.74512 21 9.81543 21 12.0002C21 14.1829 20.4053 16.2554 19.3245 17.8347C19.1699 18.0596 18.9238 18.1787 18.6733 18.1787C18.5178 18.1787 18.3599 18.1318 18.2222 18.0342C17.8633 17.782 17.7754 17.2795 18.0247 16.9148C18.9216 15.6028 19.417 13.8572 19.417 12.0002C19.417 10.1421 18.9216 8.39648 18.0247 7.08569Z" clip-rule="evenodd" fill="#212121" fill-opacity="1.000000" fill-rule="evenodd"/>
	</g>
</svg>
