<svg width="24.000000" height="24.000000" viewBox="0 0 24 24" fill="none" xmlns="http://www.w3.org/2000/svg" xmlns:xlink="http://www.w3.org/1999/xlink">
	<desc>
			Created with Pixso.
	</desc>
	<defs>
		<clipPath id="clip430_7209">
			<rect id="Iconly/Broken/Unlock" width="24.000000" height="24.000000" fill="white" fill-opacity="0"/>
		</clipPath>
	</defs>
	<rect id="Iconly/Broken/Unlock" width="24.000000" height="24.000000" fill="#FFFFFF" fill-opacity="0"/>
	<g clip-path="url(#clip430_7209)">
		<path id="Unlock" d="M15.8833 8.62695L8.12695 8.62695L8.12695 7.28394C8.13599 5.19409 9.86792 3.5 11.9934 3.5L12.0098 3.5C13.6562 3.5 15.124 4.52808 15.6616 6.05811C15.8 6.44995 16.2351 6.65796 16.6313 6.52197C17.0298 6.38599 17.2402 5.95898 17.103 5.56689C16.3518 3.43408 14.3059 2 12.0137 2L11.9893 2C9.03052 2 6.61548 4.36304 6.60229 7.30103L6.60229 8.89795C4.802 9.51904 3.5 11.189 3.5 13.1689L3.5 17.458C3.5 19.9629 5.57056 22 8.1167 22C8.12085 22 8.12378 21.998 8.12695 21.998C8.13306 21.998 8.14014 22 8.14722 22C8.56787 22 8.90942 21.6641 8.90942 21.25C8.90942 20.8359 8.56787 20.5 8.14722 20.5C6.44165 20.5 5.0542 19.136 5.0542 17.458C5.0542 17.406 5.03491 17.3611 5.02466 17.314L5.02466 13.1689C5.02466 11.491 6.41211 10.127 8.1167 10.127L15.8833 10.127C17.5889 10.127 18.9753 11.491 18.9753 13.1689L18.9753 17.314C18.9651 17.3611 18.9458 17.406 18.9458 17.458C18.9458 19.136 17.5583 20.5 15.8538 20.5L12.4426 20.5C12.022 20.5 11.6804 20.8359 11.6804 21.25C11.6804 21.6641 12.022 22 12.4426 22L15.8833 22C18.4294 22 20.5 19.9629 20.5 17.458L20.5 13.1689C20.5 10.6641 18.4294 8.62695 15.8833 8.62695ZM12.7625 14.2029L12.7625 16.4238C12.7625 16.8379 12.4209 17.1738 12 17.1738C11.5793 17.1738 11.2378 16.8379 11.2378 16.4238L11.2378 14.2029C11.2378 13.7888 11.5793 13.4529 12 13.4529C12.4209 13.4529 12.7625 13.7888 12.7625 14.2029Z" clip-rule="evenodd" fill="#212121" fill-opacity="1.000000" fill-rule="evenodd"/>
	</g>
</svg>
