<svg width="24.000000" height="24.000000" viewBox="0 0 24 24" fill="none" xmlns="http://www.w3.org/2000/svg" xmlns:xlink="http://www.w3.org/1999/xlink">
	<desc>
			Created with Pixso.
	</desc>
	<defs>
		<clipPath id="clip430_7202">
			<rect id="Iconly/Broken/Image 3" width="24.000000" height="24.000000" fill="white" fill-opacity="0"/>
		</clipPath>
	</defs>
	<rect id="Iconly/Broken/Image 3" width="24.000000" height="24.000000" fill="#FFFFFF" fill-opacity="0"/>
	<g clip-path="url(#clip430_7202)">
		<path id="Image 2" d="M7.64136 22L16.3582 22C19.7322 22 22.0002 19.6321 22.0002 16.1069L21.9993 14.6919C21.9993 14.48 21.9033 14.28 21.7373 14.147C21.5151 13.97 21.2874 13.772 21.0532 13.5691L21.0464 13.563C19.8115 12.4961 18.2766 11.1699 16.3481 11.6189C14.9482 11.9441 14.2312 13.0049 13.5981 13.939C13.1782 14.5601 12.7822 15.146 12.2292 15.4871C11.6863 15.825 11.0403 15.584 10.1162 15.1799L9.95923 15.1101C8.27319 14.376 6.89014 14.5869 5.72925 15.7571C5.45825 16.03 5.46021 16.4729 5.73315 16.7439C6.00635 17.0171 6.44824 17.0129 6.71924 16.74C7.46631 15.9871 8.24414 15.885 9.40234 16.3911L9.55615 16.458L9.55786 16.4587C10.4875 16.8645 11.7588 17.4197 12.9631 16.6741C13.7703 16.1741 14.2703 15.436 14.7532 14.7219C15.3132 13.895 15.7974 13.1799 16.6643 12.979C17.9045 12.6921 19.0391 13.6729 20.1384 14.6235L20.1401 14.625C20.2974 14.761 20.4521 14.896 20.6042 15.022L20.6042 16.1069C20.6042 18.8401 18.9373 20.604 16.3582 20.604L7.64136 20.604C5.06226 20.604 3.39526 18.8401 3.39526 16.1069L3.39526 7.89307C3.39526 5.15991 5.06226 3.396 7.64136 3.396L16.3591 3.396C18.9382 3.396 20.6042 5.15991 20.6042 7.89307L20.6042 10.2629C20.6042 10.6479 20.9172 10.9609 21.3022 10.9609C21.6873 10.9609 22.0002 10.6479 22.0002 10.2629L22.0002 7.89307C22.0002 4.36792 19.7332 2 16.3591 2L7.64136 2C4.26733 2 2.00024 4.36792 2.00024 7.89307L2.00024 16.1069C2.00024 19.6321 4.26733 22 7.64136 22ZM6.2959 8.78027C6.2959 10.1912 7.44312 11.3394 8.854 11.3394C10.2649 11.3394 11.4121 10.1912 11.4121 8.78027C11.4121 7.37036 10.2649 6.22217 8.854 6.22217C7.44312 6.22217 6.2959 7.37036 6.2959 8.78027ZM7.69092 8.78027C7.69092 8.13916 8.21289 7.61816 8.854 7.61816C9.49609 7.61816 10.0171 8.13916 10.0171 8.78027C10.0171 9.42236 9.49609 9.94336 8.854 9.94336C8.21289 9.94336 7.69092 9.42236 7.69092 8.78027Z" clip-rule="evenodd" fill="#212121" fill-opacity="1.000000" fill-rule="evenodd"/>
	</g>
</svg>
