<svg width="24.000000" height="24.000000" viewBox="0 0 24 24" fill="none" xmlns="http://www.w3.org/2000/svg" xmlns:xlink="http://www.w3.org/1999/xlink">
	<desc>
			Created with Pixso.
	</desc>
	<defs>
		<clipPath id="clip430_7172">
			<rect id="Iconly/Broken/Shield Fail" width="24.000000" height="24.000000" fill="white" fill-opacity="0"/>
		</clipPath>
	</defs>
	<rect id="Iconly/Broken/Shield Fail" width="24.000000" height="24.000000" fill="#FFFFFF" fill-opacity="0"/>
	<g clip-path="url(#clip430_7172)">
		<path id="Shield Fail" d="M12.6143 2.10059L19.2578 4.36743C20.001 4.62134 20.5 5.30542 20.5 6.07129L20.5 12.7122C20.5 14.7251 19.752 16.6741 18.3945 18.1951C17.772 18.8921 16.9756 19.491 15.9568 20.0271L12.3665 21.9121C12.2542 21.97 12.1296 22 12.0061 22C11.8826 22 11.7593 21.97 11.647 21.9121L8.04956 20.0261C7.02856 19.489 6.22998 18.8901 5.60962 18.196C4.25024 16.6731 3.5 14.7231 3.5 12.7083C3.5 12.3022 3.8396 11.9722 4.25732 11.9722C4.67529 11.9722 5.01465 12.3022 5.01465 12.7083C5.01465 14.3701 5.63232 15.9761 6.75293 17.2322C7.25195 17.791 7.91162 18.281 8.7688 18.7312L12.0061 20.428L15.2363 18.7322C16.0916 18.2832 16.75 17.7932 17.2512 17.2322C18.3699 15.9771 18.9863 14.3733 18.9863 12.7122L18.9863 6.07129C18.9863 5.92944 18.8936 5.80347 18.7568 5.75635L12.1143 3.4895C12.0413 3.46436 11.96 3.46436 11.8857 3.4895L5.24414 5.75635C5.10645 5.80347 5.01465 5.92944 5.01465 6.07129L5.01465 7.97144C5.01465 8.37842 4.67529 8.70825 4.25732 8.70825C3.8396 8.70825 3.5 8.37842 3.5 7.97144L3.5 6.07129C3.5 5.30542 4 4.62134 4.74316 4.36743L11.3845 2.10059C11.7817 1.96655 12.2192 1.96655 12.6143 2.10059ZM9.55469 14.1631C9.70288 14.3071 9.89648 14.3792 10.0898 14.3792C10.2834 14.3792 10.4768 14.3071 10.625 14.1631L11.9863 12.8411L13.3479 14.1631C13.4951 14.3071 13.6885 14.3792 13.8831 14.3792C14.0764 14.3792 14.2698 14.3071 14.418 14.1631C14.7134 13.8762 14.7134 13.4102 14.418 13.123L13.0566 11.8013L14.418 10.4773C14.7134 10.1902 14.7134 9.72632 14.418 9.43726C14.1218 9.15015 13.6433 9.15015 13.3479 9.43726L11.9863 10.7612L10.625 9.43726C10.3296 9.15015 9.85107 9.15015 9.55469 9.43726C9.25952 9.72632 9.25952 10.1902 9.55469 10.4773L10.9163 11.8013L9.55469 13.123C9.25952 13.4102 9.25952 13.8762 9.55469 14.1631Z" clip-rule="evenodd" fill="#212121" fill-opacity="1.000000" fill-rule="evenodd"/>
	</g>
</svg>
