<svg width="24.000000" height="24.000000" viewBox="0 0 24 24" fill="none" xmlns="http://www.w3.org/2000/svg" xmlns:xlink="http://www.w3.org/1999/xlink">
	<desc>
			Created with Pixso.
	</desc>
	<defs>
		<clipPath id="clip430_6901">
			<rect id="Iconly/Broken/Ticket Star" width="24.000000" height="24.000000" fill="white" fill-opacity="0"/>
		</clipPath>
	</defs>
	<rect id="Iconly/Broken/Ticket Star" width="24.000000" height="24.000000" fill="#FFFFFF" fill-opacity="0"/>
	<g clip-path="url(#clip430_6901)">
		<path id="Ticket Star" d="M17.8579 21L12.395 21C11.981 21 11.645 20.667 11.645 20.2568C11.645 19.8467 11.981 19.5137 12.395 19.5137L17.8579 19.5137C19.3149 19.5137 20.5 18.3386 20.5 16.8948L20.5 14.8687C19.2141 14.5386 18.261 13.3782 18.261 12.001C18.261 10.6238 19.2129 9.46338 20.5 9.13354L20.499 7.10522C20.499 5.66138 19.313 4.48633 17.856 4.48633L6.14404 4.48633C4.68701 4.48633 3.50195 5.66138 3.50195 7.10522L3.50098 9.21265C4.802 9.52588 5.73901 10.6387 5.73901 12.001C5.73901 13.3782 4.78711 14.5386 3.5 14.8687L3.5 16.8948C3.5 18.3386 4.68604 19.5137 6.14307 19.5137L7.93311 19.5137C8.34692 19.5137 8.68311 19.8467 8.68311 20.2568C8.68311 20.667 8.34692 21 7.93311 21L6.14307 21C3.85791 21 2 19.1589 2 16.8948L2 14.2195C2 13.8093 2.33594 13.4763 2.75 13.4763C3.57104 13.4763 4.23901 12.8145 4.23901 12.001C4.23901 11.2083 3.59912 10.6118 2.75 10.6118C2.55103 10.6118 2.36011 10.5334 2.21997 10.3938C2.0791 10.2542 2 10.0649 2 9.86865L2.00195 7.10522C2.00195 4.84106 3.86011 3 6.14404 3L17.856 3C20.1399 3 21.999 4.84106 21.999 7.10522L22 9.78247C22 9.97876 21.9209 10.168 21.78 10.3076C21.6399 10.4473 21.449 10.5256 21.25 10.5256C20.429 10.5256 19.761 11.1875 19.761 12.001C19.761 12.8145 20.429 13.4763 21.25 13.4763C21.6641 13.4763 22 13.8093 22 14.2195L22 16.8948C22 19.1589 20.1421 21 17.8579 21ZM15.7893 10.9275C15.9282 11.0732 16.002 11.2659 16 11.4695C15.9971 11.6731 15.9182 11.8638 15.7756 12.0056L14.6084 13.178L14.884 14.8315C14.947 15.2085 14.7993 15.5835 14.4983 15.8074C14.1963 16.0325 13.8064 16.0598 13.4768 15.8826L12.0342 15.1042L10.5916 15.8835C10.4529 15.9604 10.2964 16 10.1399 16C9.9353 16 9.73853 15.9331 9.57104 15.8074C9.271 15.5835 9.12231 15.2085 9.1853 14.8315L9.46191 13.178L8.2937 12.0056C8.0271 11.739 7.93359 11.3469 8.04785 10.9822C8.16382 10.6184 8.46411 10.3579 8.83203 10.3042L10.4441 10.062L11.1663 8.5564C11.3296 8.21387 11.6624 8.00098 12.0332 8C12.4062 8 12.7388 8.21167 12.9041 8.5542L13.6914 10.1006C13.8813 10.4756 13.7415 10.9375 13.3784 11.1321C13.2043 11.2273 13.0034 11.2446 12.8157 11.1858C12.6257 11.125 12.4712 10.9922 12.3787 10.812L12.0481 10.1633L11.6003 11.0977C11.4919 11.3225 11.2844 11.4797 11.0422 11.5151L10.074 11.6602L10.7747 12.3652C10.9497 12.5396 11.0295 12.792 10.9883 13.04L10.8228 14.0342L11.6907 13.5649C11.9072 13.4485 12.165 13.4485 12.3796 13.5649L13.2476 14.0342L13.0823 13.04C13.041 12.792 13.1206 12.5396 13.2947 12.3643L14.7415 10.9133C14.8821 10.7734 15.072 10.6821 15.2649 10.6963C15.4636 10.6985 15.6497 10.7795 15.7893 10.9275Z" clip-rule="evenodd" fill="#212121" fill-opacity="1.000000" fill-rule="evenodd"/>
	</g>
</svg>
