<svg width="24.000000" height="24.000000" viewBox="0 0 24 24" fill="none" xmlns="http://www.w3.org/2000/svg" xmlns:xlink="http://www.w3.org/1999/xlink">
	<desc>
			Created with Pixso.
	</desc>
	<defs>
		<clipPath id="clip430_6870">
			<rect id="Iconly/Broken/Plus" width="24.000000" height="24.000000" fill="white" fill-opacity="0"/>
		</clipPath>
	</defs>
	<rect id="Iconly/Broken/Plus" width="24.000000" height="24.000000" fill="#FFFFFF" fill-opacity="0"/>
	<g clip-path="url(#clip430_6870)">
		<path id="Plus" d="M21.7754 11.3594C21.6316 11.5015 21.437 11.5801 21.2349 11.5779L21.2349 11.5603C20.8123 11.5603 20.4697 11.2178 20.4697 10.7952L20.4697 8.25342C20.4697 5.20142 18.7986 3.53027 15.7556 3.53027L8.25342 3.53027C5.21021 3.53027 3.53027 5.21021 3.53027 8.25342L3.53027 15.7556C3.53027 18.7898 5.21021 20.4697 8.25342 20.4697L15.7556 20.4697C18.7986 20.4697 20.4697 18.7898 20.4697 15.7556C20.4697 15.333 20.8123 14.9902 21.2349 14.9902C21.6575 14.9902 22 15.333 22 15.7556C22 19.6077 19.6077 22 15.7556 22L8.25342 22C4.39233 22 2 19.6077 2 15.7556L2 8.25342C2 4.39233 4.39233 2 8.25342 2L15.7556 2C19.5901 2 22 4.39233 22 8.25342L22 10.8215C22 11.0237 21.9192 11.2173 21.7754 11.3594ZM12.0352 7.84863C12.1174 7.84863 12.1985 7.86206 12.2751 7.8877C12.5938 7.97998 12.8267 8.27417 12.8267 8.6228L12.8267 11.0149L15.4302 11.0149C15.5203 11.0139 15.6091 11.0291 15.6926 11.0586C15.8088 11.0952 15.9158 11.1599 16.0032 11.2483C16.1453 11.3921 16.2239 11.5869 16.2217 11.7888C16.2217 12.2048 15.8896 12.5444 15.4741 12.5542L8.65796 12.5542C8.59277 12.5525 8.52979 12.5432 8.46973 12.5266C8.12646 12.4495 7.87036 12.1448 7.86621 11.78C7.86401 11.5779 7.94263 11.3833 8.08472 11.2395C8.22681 11.0959 8.42065 11.0149 8.6228 11.0149L11.2612 11.0149L11.2612 8.61401C11.2708 8.19189 11.613 7.85327 12.0352 7.84863ZM11.2788 15.3508L11.2788 14.3835C11.2856 14.1804 11.373 13.9885 11.5215 13.8501C11.6699 13.7114 11.8674 13.6375 12.0703 13.6448C12.2742 13.6492 12.4675 13.7358 12.6064 13.8848C12.7456 14.0337 12.8186 14.2327 12.8091 14.4363L12.8091 15.4038C12.8022 15.6067 12.7151 15.7986 12.5664 15.9373C12.418 16.0757 12.2205 16.1497 12.0176 16.1426C11.5969 16.1235 11.2688 15.7717 11.2788 15.3508Z" clip-rule="evenodd" fill="#212121" fill-opacity="1.000000" fill-rule="evenodd"/>
	</g>
</svg>
