<svg width="24.000000" height="24.000000" viewBox="0 0 24 24" fill="none" xmlns="http://www.w3.org/2000/svg" xmlns:xlink="http://www.w3.org/1999/xlink">
	<desc>
			Created with Pixso.
	</desc>
	<defs>
		<clipPath id="clip430_6926">
			<rect id="Iconly/Broken/Close Square" width="24.000000" height="24.000000" fill="white" fill-opacity="0"/>
		</clipPath>
	</defs>
	<rect id="Iconly/Broken/Close Square" width="24.000000" height="24.000000" fill="#FFFFFF" fill-opacity="0"/>
	<g clip-path="url(#clip430_6926)">
		<path id="Close Square" d="M22.0002 10.822C22.0002 11.239 21.6611 11.5779 21.2441 11.5779L21.2354 11.5779L21.2354 11.5601C20.8132 11.5601 20.4712 11.219 20.4702 10.7971L20.4702 8.25293C20.4702 5.19995 18.8003 3.53003 15.7563 3.53003L8.25635 3.53003C5.21021 3.53003 3.53027 5.20996 3.53027 8.25293L3.53027 15.7529C3.53027 18.7871 5.21021 20.467 8.25317 20.467L15.7532 20.467C18.7961 20.467 20.4673 18.7871 20.4673 15.7529C20.4673 15.3311 20.8093 14.988 21.2322 14.988C21.6543 14.988 21.9973 15.3311 21.9973 15.7529C22.0002 19.6079 19.6082 22 15.7563 22L8.25317 22C4.39233 22 2.00024 19.6079 2.00024 15.7561L2.00024 8.2561C2.00024 4.39209 4.39233 2 8.25317 2L15.7532 2C19.5903 2 22.0002 4.39209 22.0002 8.25293L22.0002 10.822ZM15.1428 14.8032C14.8489 15.0962 14.3738 15.1023 14.0728 14.8152L14.0349 14.7783L9.25488 9.99927C8.96289 9.68921 8.95679 9.20728 9.24194 8.89136C9.53394 8.59229 10.012 8.58618 10.3108 8.87842C10.314 8.88037 10.3159 8.88232 10.3188 8.88525L12.1838 10.7512L13.8809 9.05322C14.1858 8.76221 14.6667 8.76538 14.9688 9.0603C15.0229 9.11426 15.0688 9.17529 15.1038 9.24341C15.2769 9.54419 15.2268 9.92236 14.9819 10.1682L13.2917 11.8574L15.1299 13.6963C15.4399 13.9893 15.4519 14.4783 15.158 14.7874C15.1538 14.7932 15.1479 14.7974 15.1428 14.8032ZM9.81494 13.1455L9.1311 13.8293C8.82593 14.1194 8.80908 14.6003 9.09302 14.9114L9.11499 14.9275C9.40698 15.2195 9.87695 15.2273 10.178 14.9453L10.8591 14.2644C11.168 13.9763 11.1851 13.4924 10.897 13.1824C10.6082 12.8745 10.124 12.8564 9.81494 13.1455Z" clip-rule="evenodd" fill="#212121" fill-opacity="1.000000" fill-rule="evenodd"/>
	</g>
</svg>
