<svg width="24.000000" height="24.000000" viewBox="0 0 24 24" fill="none" xmlns="http://www.w3.org/2000/svg" xmlns:xlink="http://www.w3.org/1999/xlink">
	<desc>
			Created with Pixso.
	</desc>
	<defs>
		<clipPath id="clip430_6718">
			<rect id="Iconly/Broken/Arrow - Down 3" width="24.000000" height="24.000000" fill="white" fill-opacity="0"/>
		</clipPath>
	</defs>
	<rect id="Iconly/Broken/Arrow - Down 3" width="24.000000" height="24.000000" fill="#FFFFFF" fill-opacity="0"/>
	<g clip-path="url(#clip430_6718)">
		<rect id="Iconly/Broken/Arrow - Down 3" rx="-0.500000" width="23.000000" height="23.000000" transform="translate(0.500000 0.500000)" fill="#FFFFFF" fill-opacity="0"/>
		<path id="Arrow - Down 3" d="M16.78 11.76L12.71 11.76L12.71 3.73C12.71 3.32 12.39 3 12 3C11.6 3 11.28 3.32 11.28 3.73L11.28 11.76L7.21 11.76C6.95 11.76 6.71 11.9 6.58 12.14C6.46 12.37 6.47 12.66 6.61 12.88L11.39 20.65C11.52 20.87 11.75 21 12 21C12.24 21 12.47 20.87 12.6 20.65L15.58 15.82C15.79 15.47 15.69 15.02 15.35 14.8C15.02 14.59 14.58 14.69 14.36 15.04L12 18.88L8.51 13.23L16.78 13.23C17.17 13.23 17.5 12.9 17.5 12.49C17.5 12.09 17.17 11.76 16.78 11.76Z" fill="#212121" fill-opacity="1.000000" fill-rule="nonzero"/>
	</g>
</svg>
