<svg width="24.000000" height="24.000000" viewBox="0 0 24 24" fill="none" xmlns="http://www.w3.org/2000/svg" xmlns:xlink="http://www.w3.org/1999/xlink">
	<desc>
			Created with Pixso.
	</desc>
	<defs>
		<clipPath id="clip430_7145">
			<rect id="Iconly/Broken/Show" width="24.000000" height="24.000000" fill="white" fill-opacity="0"/>
		</clipPath>
	</defs>
	<rect id="Iconly/Broken/Show" width="24.000000" height="24.000000" fill="#FFFFFF" fill-opacity="0"/>
	<g clip-path="url(#clip430_7145)">
		<path id="Show" d="M12.0022 4C16.1382 4.00195 19.853 6.88623 21.9399 11.7139C22.02 11.8967 22.02 12.1033 21.9399 12.2874C21.6919 12.8608 21.416 13.4182 21.1179 13.9412C20.9189 14.293 20.4751 14.4153 20.1211 14.2185C19.769 14.0195 19.645 13.5774 19.843 13.2275C20.0649 12.8369 20.2749 12.4243 20.468 12C18.6011 7.89624 15.4531 5.45605 12.0002 5.45508C8.54614 5.45605 5.39819 7.89624 3.53125 12C5.39819 16.1038 8.54614 18.5449 12.0002 18.5449C14.0081 18.5449 15.9451 17.7141 17.6021 16.1406C17.895 15.8652 18.3569 15.8752 18.636 16.1655C18.916 16.4548 18.9041 16.9148 18.6121 17.1921C16.679 19.0278 14.394 19.999 12.0022 20L11.9971 20C7.86206 19.998 4.14722 17.1147 2.05933 12.2874C1.98022 12.1042 1.98022 11.8967 2.05933 11.7139C4.14722 6.88623 7.86206 4.00195 11.9971 4L12.0022 4ZM11.9995 14.4219C11.5576 14.4219 11.1248 14.3035 10.7485 14.0789C10.4036 13.8691 9.95361 13.9834 9.74561 14.3264C9.53662 14.6711 9.64868 15.1184 9.99561 15.3242C10.5986 15.6851 11.2917 15.876 11.9995 15.876C14.1497 15.876 15.8987 14.1375 15.8987 11.9995C15.8987 9.86279 14.1497 8.12427 11.9995 8.12427C9.84961 8.12427 8.10059 9.86279 8.10059 11.9995C8.10059 12.4021 8.42773 12.7271 8.83154 12.7271C9.2356 12.7271 9.56372 12.4021 9.56372 11.9995C9.56372 10.6658 10.6567 9.57935 11.9995 9.57935C13.3425 9.57935 14.4355 10.6658 14.4355 11.9995C14.4355 13.3354 13.3425 14.4219 11.9995 14.4219Z" clip-rule="evenodd" fill="#212121" fill-opacity="1.000000" fill-rule="evenodd"/>
	</g>
</svg>
