<svg width="24.000000" height="24.000000" viewBox="0 0 24 24" fill="none" xmlns="http://www.w3.org/2000/svg" xmlns:xlink="http://www.w3.org/1999/xlink">
	<desc>
			Created with Pixso.
	</desc>
	<defs>
		<clipPath id="clip430_6954">
			<rect id="Iconly/Broken/Danger" width="24.000000" height="24.000000" fill="white" fill-opacity="0"/>
		</clipPath>
	</defs>
	<rect id="Iconly/Broken/Danger" width="24.000000" height="24.000000" fill="#FFFFFF" fill-opacity="0"/>
	<g clip-path="url(#clip430_6954)">
		<path id="Danger" d="M21.7495 17.1858C21.7666 17.2146 21.7805 17.2456 21.7935 17.2766C21.9126 17.5696 21.9805 17.8787 21.9976 18.1946C22.0366 18.9497 21.7795 19.6736 21.2725 20.2356C20.7666 20.7976 20.0715 21.1287 19.3167 21.1667L8.55957 21.1677C8.14551 21.1677 7.80957 20.8318 7.80957 20.4177C7.80957 20.0037 8.14551 19.6677 8.55957 19.6677L19.2786 19.6677C19.5945 19.6497 19.9207 19.4956 20.1597 19.2307C20.3975 18.9668 20.5176 18.6277 20.4995 18.2727C20.4927 18.1387 20.4656 18.0066 20.4185 17.8806L13.1694 5.19458C12.8105 4.54565 11.9995 4.31177 11.3577 4.66675C11.1387 4.7876 10.9595 4.9668 10.8386 5.18579L3.5835 17.8816C3.46655 18.1997 3.47461 18.5447 3.60645 18.8577C3.74463 19.1846 4.00146 19.4387 4.33057 19.5718C4.46948 19.6287 4.61353 19.6606 4.76245 19.6687C5.17554 19.6887 5.49463 20.0417 5.47363 20.4556C5.45361 20.8557 5.12158 21.1677 4.72461 21.1677C4.71167 21.1677 4.69946 21.1677 4.68652 21.1667C4.36865 21.1506 4.05859 21.0818 3.76465 20.9617C3.06665 20.6777 2.51953 20.1377 2.22559 19.4417C1.93066 18.7456 1.92554 17.9756 2.21045 17.2756C2.22266 17.2446 2.23657 17.2146 2.25366 17.1858L9.53052 4.45068C9.78247 3.99463 10.1655 3.61279 10.6306 3.35376C11.9976 2.59766 13.7227 3.09375 14.4775 4.45972L21.7495 17.1858ZM12.0015 13.5979C12.4155 13.5979 12.7515 13.262 12.7515 12.8479L12.7515 10.021C12.7515 9.60693 12.4155 9.271 12.0015 9.271C11.5876 9.271 11.2515 9.60693 11.2515 10.021L11.2515 12.8479C11.2515 13.262 11.5876 13.5979 12.0015 13.5979ZM12.0015 17.0188C12.4155 17.0188 12.7515 16.6829 12.7515 16.2688L12.7515 16.2588C12.7515 15.845 12.4155 15.5139 12.0015 15.5139C11.5876 15.5139 11.2515 15.855 11.2515 16.2688C11.2515 16.6829 11.5876 17.0188 12.0015 17.0188Z" clip-rule="evenodd" fill="#212121" fill-opacity="1.000000" fill-rule="evenodd"/>
	</g>
</svg>
