<svg width="24.000000" height="24.000000" viewBox="0 0 24 24" fill="none" xmlns="http://www.w3.org/2000/svg" xmlns:xlink="http://www.w3.org/1999/xlink">
	<desc>
			Created with Pixso.
	</desc>
	<defs>
		<clipPath id="clip430_7163">
			<rect id="Iconly/Broken/Work" width="24.000000" height="24.000000" fill="white" fill-opacity="0"/>
		</clipPath>
	</defs>
	<rect id="Iconly/Broken/Work" width="24.000000" height="24.000000" fill="#FFFFFF" fill-opacity="0"/>
	<g clip-path="url(#clip430_7163)">
		<path id="Work" d="M18.1831 4.58105L16.22 4.58105C16.0339 3.12695 14.7891 2 13.2859 2L10.7041 2C9.20093 2 7.95605 3.12598 7.77002 4.58008L5.81689 4.58105C3.71191 4.58105 2 6.28906 2 8.38794L2 11.855C2 12.1069 2.12598 12.342 2.33691 12.481C4.396 13.8401 6.83301 14.7451 9.38403 15.1001C9.76294 15.156 10.1111 14.9189 10.2109 14.5549C10.4341 13.7439 11.1489 13.199 11.99 13.199C12.822 13.199 13.5439 13.7561 13.7461 14.551C13.8311 14.887 14.134 15.1169 14.4719 15.1169C14.5071 15.1169 14.541 15.115 14.5759 15.1101C17.144 14.7549 19.592 13.845 21.6541 12.481C21.864 12.3411 21.99 12.1069 21.99 11.855L21.99 8.38794C21.99 6.28906 20.282 4.58105 18.1831 4.58105ZM14.959 13.532C16.9529 13.1809 18.8469 12.4661 20.49 11.4451L20.49 8.38794C20.49 7.11597 19.4551 6.08105 18.1831 6.08105L11.9951 6.08105C11.5811 6.08105 11.2451 5.74512 11.2451 5.33105C11.2451 4.91699 11.5811 4.58105 11.9951 4.58105L14.6951 4.58105C14.5281 3.95898 13.959 3.5 13.2859 3.5L10.7041 3.5C9.8999 3.5 9.24512 4.15405 9.24512 4.95801L9.24609 5.32788C9.24609 5.5271 9.16699 5.71704 9.0271 5.85889C8.88599 6 8.69604 6.0791 8.49609 6.0791L5.81812 6.08105C4.53906 6.08105 3.5 7.11597 3.5 8.38794L3.5 11.4451C5.14111 12.4629 7.02905 13.1741 9.01099 13.5229C9.57397 12.4231 10.719 11.699 11.99 11.699C13.271 11.699 14.4109 12.425 14.959 13.532ZM12.7446 15.3833L12.7446 16.6772C12.7446 17.0913 12.4087 17.4272 11.9946 17.4272C11.5806 17.4272 11.2446 17.0913 11.2446 16.6772L11.2446 15.3833C11.2446 14.9692 11.5806 14.6333 11.9946 14.6333C12.4087 14.6333 12.7446 14.9692 12.7446 15.3833ZM6.26196 20.2319C6.45801 20.2329 6.86401 20.2329 7.39697 20.2329C7.81104 20.2329 8.15015 20.5691 8.15015 20.9829C8.15015 21.397 7.81006 21.7329 7.39502 21.7329C6.85498 21.7329 6.46118 21.7329 6.26001 21.7319C4.92505 21.729 3.94409 21.2949 3.17407 20.366C2.62207 19.7009 2.25708 18.7439 2.20117 17.8059C2.16797 17.262 2.0271 15.4951 2.0271 15.4729C2.0271 15.0601 2.36206 14.7251 2.77515 14.7251C3.16797 14.7251 3.47998 15.031 3.51099 15.416C3.51099 15.416 3.66504 17.165 3.698 17.7161C3.73511 18.3269 3.98218 18.9919 4.3291 19.408C4.81909 20 5.36108 20.23 6.26196 20.2319ZM21.2148 14.7251C20.8218 14.7251 20.5088 15.0312 20.479 15.4153C20.479 15.4153 20.325 17.1643 20.293 17.7163C20.2559 18.3271 20.0078 18.9922 19.6609 19.4092C19.1719 19.9993 18.6299 20.2302 17.7278 20.2322C17.136 20.2332 13.9429 20.2341 11.5308 20.2341C11.116 20.2341 10.7798 20.5703 10.7798 20.9841C10.7798 21.3982 11.116 21.7341 11.5298 21.7341C13.8579 21.7341 17.1719 21.7332 17.731 21.7322C19.0649 21.7292 20.0459 21.2952 20.8159 20.3672C21.3689 19.7012 21.7329 18.7441 21.7898 17.8062C21.8218 17.2622 21.9629 15.4951 21.9629 15.4731C21.9629 15.0603 21.6279 14.7251 21.2148 14.7251Z" clip-rule="evenodd" fill="#212121" fill-opacity="1.000000" fill-rule="evenodd"/>
	</g>
</svg>
