<svg width="24.000000" height="24.000000" viewBox="0 0 24 24" fill="none" xmlns="http://www.w3.org/2000/svg" xmlns:xlink="http://www.w3.org/1999/xlink">
	<desc>
			Created with Pixso.
	</desc>
	<defs>
		<clipPath id="clip430_7051">
			<rect id="Iconly/Broken/Ticket" width="24.000000" height="24.000000" fill="white" fill-opacity="0"/>
		</clipPath>
	</defs>
	<rect id="Iconly/Broken/Ticket" width="24.000000" height="24.000000" fill="#FFFFFF" fill-opacity="0"/>
	<g clip-path="url(#clip430_7051)">
		<path id="Ticket" d="M22 10.0383C22 10.4272 21.675 10.7429 21.2744 10.7429C20.5615 10.7429 19.9812 11.3074 19.9812 11.9995C19.9812 12.6917 20.5615 13.2554 21.2744 13.2554C21.467 13.2554 21.6519 13.3296 21.7871 13.4619C21.9236 13.5935 22 13.7737 22 13.9597L21.999 16.3257C21.999 18.3525 20.3015 20 18.2139 20L5.78613 20C3.69946 20 2.00195 18.3525 2.00195 16.3257L2 13.8835C2 13.6978 2.07642 13.5173 2.21289 13.385C2.34912 13.2534 2.53296 13.1792 2.72559 13.1792C3.46265 13.1792 4.0188 12.6721 4.0188 11.9995C4.0188 11.3074 3.43945 10.7429 2.72559 10.7429C2.32495 10.7429 2 10.4272 2 10.0383L2 7.67432C2 5.64844 3.69751 4 5.78418 4L7.00977 4C7.41016 4 7.73511 4.31567 7.73511 4.70435C7.73511 5.09326 7.41016 5.40894 7.00977 5.40894L5.78418 5.40894C4.49756 5.40894 3.45093 6.42505 3.45093 7.67432L3.45093 9.42871C4.61377 9.73877 5.46973 10.7729 5.46973 11.9995C5.46973 13.2131 4.6272 14.2068 3.4519 14.4998L3.45288 16.3257C3.45288 17.575 4.49951 18.5911 5.78613 18.5911L13.0273 18.5911L13.0273 17.3936C13.0273 17.0046 13.3523 16.6892 13.7527 16.6892C14.1533 16.6892 14.4783 17.0046 14.4783 17.3936L14.4783 18.5911L18.2139 18.5911C19.5015 18.5911 20.5481 17.575 20.5481 16.3257L20.5491 14.5693C19.3862 14.2593 18.5303 13.2253 18.5303 11.9995C18.5303 10.7729 19.3862 9.73877 20.5491 9.42871L20.5491 7.67432C20.5491 6.42505 19.5024 5.40894 18.2158 5.40894L14.4783 5.40894L14.4783 6.97827C14.4783 7.36719 14.1533 7.68286 13.7527 7.68286C13.3523 7.68286 13.0273 7.36719 13.0273 6.97827L13.0273 5.40894L11.0637 5.40894C10.6631 5.40894 10.3381 5.09326 10.3381 4.70435C10.3381 4.31567 10.6631 4 11.0637 4L18.2158 4C20.3025 4 22 5.64844 22 7.67432L22 10.0383ZM14.4783 14.1677C14.4783 14.5566 14.1533 14.8723 13.7529 14.8723C13.3523 14.8723 13.0273 14.5566 13.0273 14.1677L13.0273 10.4109C13.0273 10.022 13.3523 9.7063 13.7529 9.7063C14.1533 9.7063 14.4783 10.022 14.4783 10.4109L14.4783 14.1677Z" clip-rule="evenodd" fill="#212121" fill-opacity="1.000000" fill-rule="evenodd"/>
	</g>
</svg>
