<svg width="24.000000" height="24.000000" viewBox="0 0 24 24" fill="none" xmlns="http://www.w3.org/2000/svg" xmlns:xlink="http://www.w3.org/1999/xlink">
	<desc>
			Created with Pixso.
	</desc>
	<defs>
		<clipPath id="clip430_6796">
			<rect id="Iconly/Broken/Swap" width="24.000000" height="24.000000" fill="white" fill-opacity="0"/>
		</clipPath>
	</defs>
	<rect id="Iconly/Broken/Swap" width="24.000000" height="24.000000" fill="#FFFFFF" fill-opacity="0"/>
	<g clip-path="url(#clip430_6796)">
		<path id="Swap" d="M6.53271 17.4521C6.53271 17.9124 6.90186 18.2856 7.35669 18.2856C7.81152 18.2856 8.18066 17.9124 8.18066 17.4521L8.18066 5.85229L10.8052 8.51733C11.1262 8.84399 11.647 8.84399 11.97 8.51953C12.293 8.19507 12.2939 7.66699 11.9722 7.34033L7.93994 3.24512C7.70483 3.00513 7.34888 2.93506 7.04248 3.06299C6.73364 3.19189 6.53271 3.49512 6.53271 3.83301L6.53271 17.4521ZM3.32422 8.76245C3.11426 8.76245 2.90332 8.68115 2.74292 8.51904C2.41992 8.19458 2.41895 7.66772 2.74072 7.34106L4.34473 5.71069C4.66675 5.38403 5.1875 5.38403 5.5105 5.7085C5.83228 6.03296 5.8335 6.56079 5.5127 6.8877L3.90747 8.51685C3.74707 8.68115 3.53516 8.76245 3.32422 8.76245ZM16.8589 20.9368C16.96 20.979 17.0667 21 17.1731 21C17.3884 21 17.5994 20.9155 17.7566 20.7544L21.2075 17.2483C21.5283 16.9214 21.5271 16.3936 21.2053 16.0691C20.8823 15.7446 20.3604 15.7456 20.0396 16.0713L17.9971 18.1484L17.9971 6.54614C17.9971 6.08618 17.6292 5.71265 17.1731 5.71265C16.7183 5.71265 16.3491 6.08618 16.3491 6.54614L16.3491 20.1665C16.3491 20.5044 16.5503 20.8079 16.8589 20.9368ZM14.7451 18.5332C14.5342 18.5332 14.3223 18.4519 14.1606 18.2876L12.5566 16.6582C12.2358 16.3315 12.2371 15.8037 12.5601 15.4792C12.8818 15.1548 13.4026 15.1548 13.7256 15.4814L15.3296 17.1118C15.6504 17.4385 15.6494 17.9653 15.3264 18.2898C15.166 18.4519 14.9551 18.5332 14.7451 18.5332Z" clip-rule="evenodd" fill="#212121" fill-opacity="1.000000" fill-rule="evenodd"/>
	</g>
</svg>
