<svg width="24.000000" height="24.000000" viewBox="0 0 24 24" fill="none" xmlns="http://www.w3.org/2000/svg" xmlns:xlink="http://www.w3.org/1999/xlink">
	<desc>
			Created with Pixso.
	</desc>
	<defs>
		<clipPath id="clip430_7081">
			<rect id="Iconly/Broken/Video" width="24.000000" height="24.000000" fill="white" fill-opacity="0"/>
		</clipPath>
	</defs>
	<rect id="Iconly/Broken/Video" width="24.000000" height="24.000000" fill="#FFFFFF" fill-opacity="0"/>
	<g clip-path="url(#clip430_7081)">
		<path id="Video" d="M21.02 7.06C20.41 6.78 19.72 6.86 19.2 7.29L17.63 8.58C17.32 8.84 17.27 9.31 17.53 9.62C17.78 9.93 18.24 9.98 18.56 9.72L20.13 8.43C20.23 8.34 20.34 8.37 20.39 8.39C20.44 8.42 20.53 8.48 20.53 8.62L20.53 15.37C20.53 15.51 20.44 15.57 20.39 15.6C20.34 15.62 20.23 15.65 20.13 15.56L16.4 12.49L16.4 8.58C16.4 6.18 14.68 4.5 12.23 4.5L6.17 4.5C3.71 4.5 2 6.18 2 8.58L2 15.42C2 17.82 3.71 19.5 6.16 19.5C6.56 19.5 6.89 19.16 6.89 18.76C6.89 18.35 6.56 18.02 6.16 18.02C4.49 18.02 3.46 17.02 3.46 15.42L3.46 8.58C3.46 6.97 4.5 5.97 6.17 5.97L12.23 5.97C13.9 5.97 14.94 6.97 14.94 8.58L14.94 15.42C14.94 17.02 13.9 18.02 12.23 18.02L10.54 18.02C10.13 18.02 9.81 18.35 9.81 18.76C9.81 19.16 10.13 19.5 10.54 19.5L12.23 19.5C14.68 19.5 16.4 17.82 16.4 15.42L16.4 14.39L19.2 16.7C19.52 16.96 19.89 17.09 20.28 17.09C20.53 17.09 20.78 17.04 21.02 16.93C21.62 16.64 22 16.04 22 15.37L22 8.62C22 7.95 21.62 7.35 21.02 7.06Z" fill="#212121" fill-opacity="1.000000" fill-rule="nonzero"/>
	</g>
</svg>
