<svg width="24.000000" height="24.000000" viewBox="0 0 24 24" fill="none" xmlns="http://www.w3.org/2000/svg" xmlns:xlink="http://www.w3.org/1999/xlink">
	<desc>
			Created with Pixso.
	</desc>
	<defs>
		<clipPath id="clip430_7107">
			<rect id="Iconly/Broken/Edit" width="24.000000" height="24.000000" fill="white" fill-opacity="0"/>
		</clipPath>
	</defs>
	<rect id="Iconly/Broken/Edit" width="24.000000" height="24.000000" fill="#FFFFFF" fill-opacity="0"/>
	<g clip-path="url(#clip430_7107)">
		<path id="Edit" d="M17.6223 4.88794C18.2529 5.3877 18.6838 6.04492 18.8345 6.73999C19.0029 7.51611 18.8169 8.30347 18.312 8.95459L9.70117 20.0591C9.26587 20.6208 8.61157 20.9485 7.90405 20.958L4.58179 21L4.57251 21C4.20996 21 3.89526 20.7478 3.81323 20.3909L3.06104 17.1213C2.90112 16.425 3.05884 15.7039 3.49536 15.1421L4.62549 13.6836C4.89038 13.3413 5.38062 13.2805 5.71948 13.5503C6.05811 13.8181 6.11719 14.3135 5.85132 14.656L4.72119 16.1143C4.57764 16.2991 4.52588 16.5354 4.57886 16.7642L5.18848 19.4165L7.88428 19.3828C8.11597 19.3799 8.33105 19.2727 8.47437 19.0879L17.0852 7.98315C17.3054 7.69971 17.3813 7.39526 17.3127 7.07617C17.239 6.73901 17.0083 6.40186 16.6614 6.12793L15.2173 4.98242C14.6584 4.5415 13.8701 4.3147 13.3318 5.01074L12.1943 6.47656L13.9998 7.94019C14.3354 8.21118 14.3894 8.70776 14.1204 9.0459C13.9666 9.24121 13.7402 9.34204 13.5117 9.34204C13.3413 9.34204 13.1687 9.28516 13.0254 9.1687L11.2334 7.71655L8.28735 11.5164C8.02148 11.8586 7.53223 11.9207 7.19238 11.6499C6.85474 11.3821 6.79565 10.8865 7.06055 10.5442L12.105 4.03833C13.0837 2.77417 14.7976 2.65039 16.1782 3.74341L17.6223 4.88794ZM13.5962 19.425L20.2209 19.425C20.6509 19.425 21 19.7778 21 20.2124C21 20.6472 20.6509 21 20.2209 21L13.5962 21C13.1653 21 12.8171 20.6472 12.8171 20.2124C12.8171 19.7778 13.1653 19.425 13.5962 19.425Z" clip-rule="evenodd" fill="#212121" fill-opacity="1.000000" fill-rule="evenodd"/>
	</g>
</svg>
