<svg width="24.000000" height="24.000000" viewBox="0 0 24 24" fill="none" xmlns="http://www.w3.org/2000/svg" xmlns:xlink="http://www.w3.org/1999/xlink">
	<desc>
			Created with Pixso.
	</desc>
	<defs>
		<clipPath id="clip430_6884">
			<rect id="Iconly/Broken/Game" width="24.000000" height="24.000000" fill="white" fill-opacity="0"/>
		</clipPath>
	</defs>
	<rect id="Iconly/Broken/Game" width="24.000000" height="24.000000" fill="#FFFFFF" fill-opacity="0"/>
	<g clip-path="url(#clip430_6884)">
		<path id="Game" d="M16.1104 6.10205C19.2534 6.08008 21.8613 8.43701 21.9954 11.5161C22.0002 11.6399 22.0015 11.7639 21.9983 11.887L21.9983 16.1941C22.0325 17.6909 21.4744 19.126 20.4285 20.219C19.3823 21.313 17.9734 21.9319 16.4614 21.9651C16.3384 21.968 16.2144 21.9661 16.0894 21.9609C14.7114 21.9861 13.3264 21.9971 11.9473 21.9971C10.5764 21.9971 9.21143 21.9861 7.87036 21.9619C4.7854 22.115 2.14233 19.6699 2.00537 16.55C2.00024 16.426 1.99927 16.303 2.00146 16.1799L2.00146 11.8701C1.93335 8.76196 4.41943 6.16602 7.54126 6.0979C7.66333 6.09595 7.78735 6.0979 7.91235 6.10303L11.8713 6.10205L11.8713 5.87207C11.8633 5.19702 11.3003 4.64307 10.6165 4.64307L9.61938 4.64307C9.10229 4.62109 8.61035 4.44995 8.23633 4.08203C7.86328 3.71704 7.65527 3.22705 7.64941 2.70508C7.64526 2.32007 7.95435 2.00391 8.33936 2L8.34741 2C8.72827 2 9.04028 2.30811 9.04443 2.69092C9.04541 2.84106 9.10547 2.98193 9.21338 3.08594C9.31934 3.18994 9.45825 3.24707 9.60547 3.24707L10.6213 3.24707C12.0603 3.24707 13.2473 4.41602 13.2673 5.86401L13.2673 6.79907C13.2673 7.18506 12.9543 7.49707 12.5693 7.49707L7.88232 7.49707C7.86938 7.49658 7.85669 7.49634 7.84448 7.49609C7.74048 7.49341 7.65649 7.49121 7.57446 7.4939C5.21826 7.54395 3.34546 9.5 3.39648 11.854L3.39648 16.1941C3.39429 16.303 3.39526 16.397 3.39941 16.491C3.50244 18.8411 5.47827 20.6699 7.85132 20.5681C10.5693 20.614 13.3323 20.614 16.1074 20.5669C16.2415 20.571 16.3354 20.573 16.4285 20.571C17.5703 20.5459 18.6323 20.0791 19.4204 19.2539C20.2083 18.4309 20.6294 17.3501 20.6033 16.209L20.6033 11.8701C20.6064 11.76 20.6055 11.667 20.6003 11.575C20.4973 9.21802 18.5754 7.448 16.1284 7.49707C15.7415 7.50903 15.4272 7.19312 15.4224 6.80908C15.4175 6.4231 15.7253 6.10791 16.1104 6.10205ZM9.84595 15.7322C9.84106 16.1477 9.50293 16.4834 9.08423 16.4883L9.07544 16.4883C8.6582 16.4834 8.32275 16.1462 8.32275 15.7322L8.32275 14.73L7.31323 14.73C7.02319 14.761 6.74072 14.625 6.58569 14.3796C6.43091 14.134 6.43091 13.8225 6.58569 13.5769C6.74072 13.3315 7.02319 13.1956 7.31323 13.2266L8.32275 13.2266L8.32275 12.2332C8.32275 11.8157 8.66382 11.4771 9.08423 11.4771C9.50488 11.4771 9.84595 11.8157 9.84595 12.2332L9.84595 13.2266L10.8555 13.2266C11.1455 13.1956 11.428 13.3315 11.5828 13.5769C11.7378 13.8225 11.7378 14.134 11.5828 14.3796C11.428 14.625 11.1455 14.761 10.8555 14.73L9.84595 14.73L9.84595 15.7322ZM14.7163 11.6707C14.6255 11.7085 14.5439 11.7654 14.4773 11.8376C14.3293 11.9756 14.2454 12.168 14.2454 12.3694C14.2454 12.571 14.3293 12.7634 14.4773 12.9014C14.7749 13.1826 15.2424 13.1826 15.5398 12.9014C15.6155 12.8342 15.6731 12.7498 15.7083 12.6553C15.7444 12.5627 15.7625 12.4644 15.7612 12.365C15.7598 12.1672 15.6804 11.978 15.5398 11.8376C15.4648 11.7676 15.3779 11.7109 15.2832 11.6707C15.1016 11.5964 14.8979 11.5964 14.7163 11.6707ZM16.1733 16.2415C15.8796 15.9512 15.8774 15.48 16.1687 15.187C16.3845 14.9724 16.7087 14.9067 16.9922 15.02C17.0833 15.0623 17.167 15.1187 17.2402 15.187C17.5312 15.48 17.5291 15.9512 17.2354 16.2415C16.9419 16.5317 16.467 16.5317 16.1733 16.2415Z" clip-rule="evenodd" fill="#212121" fill-opacity="1.000000" fill-rule="evenodd"/>
	</g>
</svg>
