<svg width="24.000000" height="24.000000" viewBox="0 0 24 24" fill="none" xmlns="http://www.w3.org/2000/svg" xmlns:xlink="http://www.w3.org/1999/xlink">
	<desc>
			Created with Pixso.
	</desc>
	<defs>
		<clipPath id="clip430_7120">
			<rect id="Iconly/Broken/Play" width="24.000000" height="24.000000" fill="white" fill-opacity="0"/>
		</clipPath>
	</defs>
	<rect id="Iconly/Broken/Play" width="24.000000" height="24.000000" fill="#FFFFFF" fill-opacity="0"/>
	<g clip-path="url(#clip430_7120)">
		<path id="Play" d="M12 1.99976C6.48608 1.99976 2 6.48486 2 11.9998C2 14.1597 2.677 16.2158 3.95801 17.9448C4.19604 18.2688 4.64893 18.3347 4.97095 18.0957C5.29199 17.8577 5.35889 17.4048 5.12207 17.0837C4.02588 15.6038 3.448 13.8467 3.448 11.9998C3.448 7.28369 7.28394 3.44775 12 3.44775C16.7151 3.44775 20.552 7.28369 20.552 11.9998C20.552 16.7148 16.7151 20.5527 12 20.5527C10.8059 20.5527 9.6521 20.3118 8.56909 19.8367C8.20093 19.6758 7.7749 19.8408 7.61499 20.2087C7.45508 20.5747 7.62109 21.0017 7.98706 21.1619C9.25488 21.7188 10.605 21.9998 12 21.9998C17.5139 21.9998 22 17.5137 22 11.9998C22 6.48486 17.5139 1.99976 12 1.99976ZM10.8562 15.969L10.8203 15.969C10.3782 15.969 9.96021 15.7161 9.75415 15.3181C9.63623 15.0891 9.52319 14.4421 9.52222 14.436C9.42725 13.8582 9.37329 12.969 9.37524 11.999C9.37329 10.9731 9.43311 10.052 9.53833 9.47314C9.53931 9.46509 9.63916 8.94214 9.71411 8.76611C9.81616 8.51904 10.0083 8.30713 10.2512 8.17505C10.4473 8.07202 10.6521 8.0271 10.8643 8.03003C11.0872 8.03613 11.4951 8.18799 11.6602 8.25317C12.7432 8.6731 14.8052 10.064 15.5972 10.9092L15.6763 10.9941C15.7703 11.093 15.8862 11.219 15.9133 11.2532C16.0803 11.4661 16.1711 11.7312 16.1711 12C16.1711 12.2551 16.0913 12.501 15.9412 12.708C15.9062 12.7551 15.7573 12.9202 15.6572 13.0261L15.6082 13.0781C14.7942 13.9541 12.7793 15.2781 11.7612 15.707C11.7551 15.71 11.1492 15.9622 10.8562 15.969ZM10.9622 9.73315C10.9702 9.68701 10.9841 9.61914 10.9993 9.55005C11.0532 9.57007 11.1013 9.58813 11.1323 9.6001C11.9993 9.93701 13.9102 11.2251 14.5371 11.896L14.6213 11.9851C14.6262 11.99 14.6301 11.9951 14.6353 12C14.6243 12.01 14.6143 12.021 14.6052 12.031C14.6042 12.0332 14.5522 12.092 14.5471 12.0911C13.9402 12.7471 12.1262 13.9822 11.2002 14.3721C11.1511 14.3921 11.0732 14.4211 11.0012 14.4502C10.9802 14.3582 10.9612 14.2632 10.9512 14.2012C10.8691 13.7061 10.8213 12.8821 10.8223 11.999C10.8213 11.083 10.8752 10.2141 10.9622 9.73315Z" clip-rule="evenodd" fill="#212121" fill-opacity="1.000000" fill-rule="evenodd"/>
	</g>
</svg>
