<svg width="24.000000" height="24.000000" viewBox="0 0 24 24" fill="none" xmlns="http://www.w3.org/2000/svg" xmlns:xlink="http://www.w3.org/1999/xlink">
	<desc>
			Created with Pixso.
	</desc>
	<defs>
		<clipPath id="clip430_7071">
			<rect id="Iconly/Broken/Time Circle" width="24.000000" height="24.000000" fill="white" fill-opacity="0"/>
		</clipPath>
	</defs>
	<rect id="Iconly/Broken/Time Circle" width="24.000000" height="24.000000" fill="#FFFFFF" fill-opacity="0"/>
	<g clip-path="url(#clip430_7071)">
		<path id="Time Circle" d="M11.9998 1.99976C6.48584 1.99976 1.99976 6.48486 1.99976 11.9998C1.99976 12.5098 2.03882 13.0208 2.11475 13.5188C2.1748 13.9158 2.5437 14.1929 2.94287 14.1267C3.33984 14.0657 3.61182 13.6948 3.55176 13.2988C3.48682 12.8728 3.45483 12.4377 3.45483 11.9998C3.45483 7.28784 7.28784 3.45386 11.9998 3.45386C16.7117 3.45386 20.5457 7.28784 20.5457 11.9998C20.5457 16.7126 16.7117 20.5457 11.9998 20.5457C9.32666 20.5457 6.85767 19.3298 5.22485 17.2097C4.97876 16.8928 4.52368 16.8318 4.20581 17.0776C3.8877 17.3218 3.82764 17.7788 4.07275 18.0977C5.98267 20.5767 8.8728 21.9998 11.9998 21.9998C17.5137 21.9998 21.9998 17.5137 21.9998 11.9998C21.9998 6.48486 17.5137 1.99976 11.9998 1.99976ZM10.9338 7.83716C10.9338 7.43506 11.2598 7.10913 11.6609 7.10913C12.0618 7.10913 12.3879 7.43506 12.3879 7.83716L12.3879 12.2832L15.8118 14.3252C16.1567 14.5312 16.2698 14.9771 16.064 15.3223C15.929 15.5491 15.6868 15.6763 15.4399 15.6763C15.3127 15.6763 15.1838 15.6431 15.0679 15.5742L11.2878 13.3201C11.0688 13.1882 10.9338 12.9512 10.9338 12.6951L10.9338 7.83716Z" clip-rule="evenodd" fill="#212121" fill-opacity="1.000000" fill-rule="evenodd"/>
	</g>
</svg>
