<svg width="24.000000" height="24.000000" viewBox="0 0 24 24" fill="none" xmlns="http://www.w3.org/2000/svg" xmlns:xlink="http://www.w3.org/1999/xlink">
	<desc>
			Created with Pixso.
	</desc>
	<defs>
		<clipPath id="clip430_7035">
			<rect id="Iconly/Broken/Setting" width="24.000000" height="24.000000" fill="white" fill-opacity="0"/>
		</clipPath>
	</defs>
	<rect id="Iconly/Broken/Setting" width="24.000000" height="24.000000" fill="#FFFFFF" fill-opacity="0"/>
	<g clip-path="url(#clip430_7035)">
		<path id="Setting" d="M8.94189 6.87451C8.11865 7.33081 7.10864 7.32422 6.29175 6.85718L6.25586 6.82202C5.88818 6.59888 5.77539 6.1272 6.00391 5.76807C6.23242 5.40918 6.71558 5.29907 7.08325 5.52222C7.24731 5.61572 7.43311 5.66699 7.62305 5.67139C7.91406 5.68335 8.198 5.58179 8.41235 5.38892C8.62671 5.19629 8.75366 4.92822 8.76538 4.6438C8.75977 3.21533 9.92065 2.04272 11.3828 2L12.615 2C14.1052 2 15.3135 3.17969 15.3135 4.63501C15.311 4.82031 15.3608 5.00269 15.4573 5.16211C15.6006 5.40894 15.8391 5.5896 16.1194 5.66382C16.3999 5.73804 16.6992 5.69971 16.9504 5.55737C18.2166 4.88428 19.801 5.302 20.5483 6.50586C20.7549 6.87329 20.6279 7.33447 20.2605 7.55127C19.8872 7.75928 19.4121 7.63843 19.1902 7.27881C18.8853 6.77197 18.219 6.59937 17.697 6.89233C16.8711 7.33398 15.8689 7.32324 15.0532 6.86401C14.2373 6.40454 13.7258 5.56323 13.7034 4.6438C13.7131 4.35596 13.6028 4.07642 13.3977 3.86938C13.1924 3.6626 12.9099 3.54565 12.615 3.5459L11.3828 3.5459C11.0869 3.5459 10.8037 3.66235 10.5972 3.8689C10.3906 4.07568 10.2781 4.35498 10.2854 4.6438C10.2771 5.56812 9.76514 6.41821 8.94189 6.87451ZM11.3828 20.4541C10.7803 20.4541 10.2903 19.9797 10.2854 19.3914C10.2854 17.936 9.07739 16.7563 7.58691 16.7563C7.1228 16.7532 6.66626 16.8713 6.26489 17.0989C6.01587 17.2468 5.71558 17.2893 5.43384 17.2163C5.1521 17.1436 4.91284 16.9614 4.77173 16.7124L4.15112 15.667C3.85327 15.1577 4.03442 14.509 4.55591 14.2178C5.78882 13.488 6.21655 11.9409 5.5271 10.7043C5.30591 10.3113 4.9834 9.98145 4.5918 9.74707C4.07056 9.45581 3.8894 8.80713 4.18701 8.29785C4.40234 7.95386 4.30347 7.50562 3.96216 7.27881C3.78931 7.16528 3.57739 7.12378 3.37305 7.16333C3.16895 7.20288 2.98901 7.32031 2.87378 7.48975C2.18457 8.72607 2.6123 10.2734 3.84521 11.0032C4.11499 11.1511 4.30737 11.4045 4.37427 11.6995C4.44116 11.9946 4.37646 12.3035 4.19604 12.5491C4.09985 12.7085 3.96362 12.8416 3.80029 12.9355C2.56738 13.665 2.1394 15.2124 2.82886 16.4487L3.44043 17.4941C4.18774 18.698 5.77197 19.1157 7.03833 18.4426C7.56274 18.1511 8.22974 18.3276 8.53149 18.8379C8.62793 18.9973 8.67773 19.1797 8.67529 19.365C8.67529 20.8203 9.88354 22 11.3738 22C11.6533 22 11.9116 21.8542 12.0515 21.6179C12.1912 21.3816 12.1912 21.0901 12.0515 20.8538C11.9116 20.6174 11.6533 20.4717 11.3738 20.4717L11.3828 20.4541ZM8.8689 10.7424C9.39185 9.50732 10.6257 8.70166 11.9944 8.70166C12.8906 8.69946 13.7507 9.04541 14.3853 9.66333C15.0198 10.2812 15.3765 11.1204 15.3765 11.9956C15.3801 13.332 14.5583 14.5391 13.2949 15.053C12.0315 15.5669 10.5752 15.2866 9.6062 14.3428C8.63696 13.3989 8.34619 11.9778 8.8689 10.7424ZM20.1885 12.9268C19.9373 12.7854 19.7542 12.5518 19.6799 12.2781C19.6055 12.0044 19.6462 11.7129 19.7927 11.4685C19.8889 11.3091 20.0251 11.176 20.1885 11.082C20.5576 10.8655 20.6782 10.3984 20.4583 10.0369C20.2397 9.67993 19.7734 9.55249 19.397 9.74707C18.1641 10.4768 17.7363 12.0239 18.4255 13.2605C18.6445 13.6924 18.9844 14.0549 19.406 14.3057C19.6567 14.4453 19.8396 14.6772 19.9141 14.9495C19.9883 15.2219 19.948 15.512 19.8018 15.7549L19.1902 16.8003C19.0427 17.0447 18.8042 17.2241 18.5244 17.3008C18.2441 17.3738 17.9456 17.3325 17.697 17.1868C16.8696 16.7444 15.8657 16.7561 15.0493 17.2175C14.2332 17.679 13.7227 18.5232 13.7034 19.4441C13.7463 19.8369 14.0859 20.1348 14.4905 20.1348C14.895 20.1348 15.2344 19.8369 15.2773 19.4441C15.27 19.0603 15.4768 18.7029 15.8171 18.511C16.1577 18.3193 16.5779 18.3232 16.9146 18.5217C18.1807 19.1948 19.7651 18.7771 20.5122 17.5732L21.124 16.5278C21.8792 15.2805 21.4614 13.6716 20.1885 12.9268ZM11.9944 13.761C11.001 13.761 10.1956 12.9746 10.1956 12.0044C10.1956 11.0342 11.001 10.2476 11.9944 10.2476C12.988 10.2476 13.7935 11.0342 13.7935 12.0044C13.7935 12.9746 12.988 13.761 11.9944 13.761Z" clip-rule="evenodd" fill="#212121" fill-opacity="1.000000" fill-rule="evenodd"/>
	</g>
</svg>
