<svg width="24.000000" height="24.000000" viewBox="0 0 24 24" fill="none" xmlns="http://www.w3.org/2000/svg" xmlns:xlink="http://www.w3.org/1999/xlink">
	<desc>
			Created with Pixso.
	</desc>
	<defs>
		<clipPath id="clip430_7112">
			<rect id="Iconly/Broken/Edit Square" width="24.000000" height="24.000000" fill="white" fill-opacity="0"/>
		</clipPath>
	</defs>
	<rect id="Iconly/Broken/Edit Square" width="24.000000" height="24.000000" fill="#FFFFFF" fill-opacity="0"/>
	<g clip-path="url(#clip430_7112)">
		<path id="Edit Square" d="M7.26001 15.9043L7.35303 12.1941C7.37207 11.4551 7.67065 10.7603 8.19336 10.238L15.5435 2.8999C16.7444 1.69995 18.6987 1.69995 19.9006 2.8999L21.0977 4.09497C21.6804 4.67603 22 5.44995 22 6.27002C22 7.09204 21.6804 7.86499 21.0977 8.44604L13.7134 15.8181C13.1707 16.3601 12.4495 16.6582 11.6831 16.6582L7.99707 16.6582C7.79883 16.6582 7.6084 16.5781 7.46924 16.4353C7.33105 16.2932 7.25586 16.1023 7.26001 15.9043ZM2.73853 12.4431C3.14502 12.4431 3.47559 12.113 3.47559 11.707L3.47559 7.93799C3.47559 5.24805 5.11719 3.51001 7.65845 3.51001L11.3354 3.51001C11.7432 3.51001 12.0737 3.18091 12.0737 2.77393C12.0737 2.36792 11.7432 2.03784 11.3354 2.03784L7.65845 2.03784C4.27393 2.03784 2.00024 4.40894 2.00024 7.93799L2.00024 11.707C2.00024 12.113 2.33081 12.4431 2.73853 12.4431ZM8.82739 12.2312C8.8374 11.8721 8.98169 11.5332 9.23706 11.2791L14.9385 5.58594L16.8115 7.45801C16.9558 7.60107 17.144 7.6731 17.3335 7.6731C17.5217 7.6731 17.7109 7.60107 17.8552 7.45801C18.1428 7.16919 18.1428 6.7041 17.8552 6.41602L15.9812 4.54492L16.5862 3.94092C17.2122 3.31592 18.231 3.31592 18.8579 3.94092L20.0549 5.13696C20.6809 5.76196 20.6809 6.77905 20.0549 7.40503L12.6707 14.7771C12.4062 15.0413 12.0557 15.1853 11.6831 15.1853L8.75439 15.1853L8.82739 12.2312ZM20.5212 12.1458C20.5212 11.7388 20.8508 11.4099 21.2585 11.4099C21.665 11.4099 21.9956 11.7388 21.9956 12.1458L21.9956 16.0999C21.9956 19.6289 19.7219 22 16.3364 22L7.6582 22C4.27368 22 2 19.6289 2 16.0999C2 15.6938 2.33154 15.364 2.73828 15.364C3.14575 15.364 3.47632 15.6938 3.47632 16.0999C3.47632 18.79 5.11719 20.5271 7.6582 20.5271L16.3364 20.5271C18.8787 20.5271 20.5212 18.79 20.5212 16.0999L20.5212 12.1458Z" clip-rule="evenodd" fill="#212121" fill-opacity="1.000000" fill-rule="evenodd"/>
	</g>
</svg>
