<svg width="24.000000" height="24.000000" viewBox="0 0 24 24" fill="none" xmlns="http://www.w3.org/2000/svg" xmlns:xlink="http://www.w3.org/1999/xlink">
	<desc>
			Created with Pixso.
	</desc>
	<defs>
		<clipPath id="clip430_7127">
			<rect id="Iconly/Broken/Shield Done" width="24.000000" height="24.000000" fill="white" fill-opacity="0"/>
		</clipPath>
	</defs>
	<rect id="Iconly/Broken/Shield Done" width="24.000000" height="24.000000" fill="#FFFFFF" fill-opacity="0"/>
	<g clip-path="url(#clip430_7127)">
		<path id="Shield Done" d="M19.2578 4.36743L12.6155 2.10059C12.2192 1.96655 11.7817 1.96655 11.3845 2.10059L4.74316 4.36743C4 4.62134 3.5 5.30542 3.5 6.07129L3.5 7.97144C3.5 8.37842 3.8396 8.70825 4.25732 8.70825C4.67529 8.70825 5.01465 8.37842 5.01465 7.97144L5.01465 6.07129C5.01465 5.92944 5.10742 5.80347 5.24414 5.75635L11.8857 3.4895C11.96 3.46436 12.0413 3.46436 12.1143 3.4895L18.7568 5.75635C18.8936 5.80347 18.9863 5.92944 18.9863 6.07129L18.9863 12.7122C18.9863 14.3733 18.3699 15.9771 17.2512 17.2322C16.7512 17.7932 16.0916 18.2832 15.2363 18.7322L12.0061 20.428L8.7688 18.7312C7.91162 18.281 7.25195 17.791 6.75293 17.2322C5.63232 15.9761 5.01465 14.3701 5.01465 12.7083C5.01465 12.3022 4.67529 11.9722 4.25732 11.9722C3.8396 11.9722 3.5 12.3022 3.5 12.7083C3.5 14.7231 4.25024 16.6731 5.60962 18.196C6.22998 18.8901 7.02856 19.489 8.04956 20.0261L11.647 21.9121C11.7593 21.97 11.8826 22 12.0061 22C12.1306 22 12.2542 21.97 12.3665 21.9121L15.9568 20.0271C16.9756 19.491 17.7729 18.8921 18.3945 18.1951C19.752 16.6741 20.5 14.7251 20.5 12.7122L20.5 6.07129C20.5 5.30542 20.001 4.62134 19.2578 4.36743ZM11.2861 14.3174C11.0845 14.3174 10.8931 14.2395 10.7512 14.1016L8.84131 12.2456C8.5459 11.9575 8.5459 11.4937 8.84131 11.2056C9.1377 10.9175 9.61621 10.9175 9.91138 11.2056L11.2861 12.5405L14.6841 9.2395C14.9795 8.95264 15.459 8.95264 15.7544 9.2395C16.0498 9.52661 16.0498 9.99268 15.7544 10.2795L11.8213 14.1016C11.6794 14.2395 11.4868 14.3174 11.2861 14.3174Z" clip-rule="evenodd" fill="#212121" fill-opacity="1.000000" fill-rule="evenodd"/>
	</g>
</svg>
