<svg width="24.000000" height="24.000000" viewBox="0 0 24 24" fill="none" xmlns="http://www.w3.org/2000/svg" xmlns:xlink="http://www.w3.org/1999/xlink">
	<desc>
			Created with Pixso.
	</desc>
	<defs>
		<clipPath id="clip430_7056">
			<rect id="Iconly/Broken/Add User" width="24.000000" height="24.000000" fill="white" fill-opacity="0"/>
		</clipPath>
	</defs>
	<rect id="Iconly/Broken/Add User" width="24.000000" height="24.000000" fill="#FFFFFF" fill-opacity="0"/>
	<g clip-path="url(#clip430_7056)">
		<path id="Add User" d="M9.92139 12.708C12.8628 12.708 15.2551 10.3059 15.2551 7.354C15.2551 4.4021 12.8628 2 9.92139 2C6.97998 2 4.58765 4.4021 4.58765 7.354C4.58765 10.3059 6.97998 12.708 9.92139 12.708ZM9.92139 3.43701C12.0737 3.43701 13.8242 5.19409 13.8242 7.354C13.8242 9.51392 12.0737 11.271 9.92139 11.271C7.76904 11.271 6.01855 9.51392 6.01855 7.354C6.01855 5.19409 7.76904 3.43701 9.92139 3.43701ZM19.9614 10.0383L21.2527 10.0383C21.6653 10.0383 22 10.3745 22 10.7883C22 11.2024 21.6653 11.5383 21.2527 11.5383L19.9614 11.5383L19.9614 12.7935C19.9614 13.2075 19.6265 13.5435 19.2141 13.5435C18.8015 13.5435 18.4668 13.2075 18.4668 12.7935L18.4668 11.5383L17.1775 11.5383C16.7649 11.5383 16.4302 11.2024 16.4302 10.7883C16.4302 10.3745 16.7649 10.0383 17.1775 10.0383L18.4668 10.0383L18.4668 8.78442C18.4668 8.37036 18.8015 8.03442 19.2141 8.03442C19.6265 8.03442 19.9614 8.37036 19.9614 8.78442L19.9614 10.0383ZM9.92139 14.6399C6.52075 14.6399 2 15.02 2 18.3101C2 19.2949 2.4563 20.625 4.63062 21.364C5.0061 21.4939 5.41064 21.2881 5.53833 20.9141C5.66479 20.5391 5.4646 20.1309 5.08984 20.0039C3.60229 19.498 3.43091 18.7949 3.43091 18.3101C3.43091 16.8279 5.61499 16.0759 9.92139 16.0759C14.228 16.0759 16.4121 16.834 16.4121 18.3301C16.4121 19.813 14.228 20.564 9.92139 20.564C9.59253 20.564 9.2688 20.5601 8.95093 20.55C8.56836 20.553 8.22656 20.8511 8.21558 21.2471C8.20361 21.644 8.5144 21.9749 8.90918 21.9871C9.24097 21.9949 9.57861 22 9.92139 22C13.3223 22 17.8428 21.6189 17.8428 18.3301C17.8428 14.6399 11.8804 14.6399 9.92139 14.6399Z" clip-rule="evenodd" fill="#212121" fill-opacity="1.000000" fill-rule="evenodd"/>
	</g>
</svg>
