<svg width="24.000000" height="24.000000" viewBox="0 0 24 24" fill="none" xmlns="http://www.w3.org/2000/svg" xmlns:xlink="http://www.w3.org/1999/xlink">
	<desc>
			Created with Pixso.
	</desc>
	<defs>
		<clipPath id="clip430_6847">
			<rect id="Iconly/Broken/Calendar" width="24.000000" height="24.000000" fill="white" fill-opacity="0"/>
		</clipPath>
	</defs>
	<rect id="Iconly/Broken/Calendar" width="24.000000" height="24.000000" fill="#FFFFFF" fill-opacity="0"/>
	<g clip-path="url(#clip430_6847)">
		<path id="Calendar" d="M16.4521 3.77002L16.4521 2.73511C16.4524 2.72852 16.4524 2.72217 16.4524 2.71582C16.4524 2.33838 16.1636 2.02417 15.7913 2.00098C15.6077 1.99121 15.4277 2.05713 15.2922 2.18335C15.1565 2.30981 15.0764 2.48608 15.0696 2.6731L15.0696 5.78662C15.0935 6.14795 15.3818 6.43237 15.7373 6.44604C16.093 6.45972 16.4014 6.198 16.4521 5.83984L16.4521 5.16748C18.6521 5.42407 19.6174 6.49438 19.6174 8.70557L19.6174 16.9758C19.6174 19.5144 18.3479 20.5935 15.374 20.5935L8.62598 20.5935C5.60864 20.5759 4.37402 19.5234 4.37402 16.9849L4.37402 10.3774L17.0608 10.3774C17.4402 10.3774 17.7478 10.0645 17.7478 9.67847C17.7478 9.29272 17.4402 8.97974 17.0608 8.97974L4.37402 8.97974L4.37402 8.71436C4.37402 7.21069 4.80859 6.25537 5.73047 5.70703C5.97339 5.60156 6.13647 5.36523 6.15161 5.09692C6.15234 5.08325 6.15283 5.06982 6.15283 5.05615C6.15283 4.80322 6.01978 4.56812 5.802 4.44165C5.57251 4.30859 5.28882 4.31909 5.06958 4.46875C3.67822 5.30029 3 6.72437 3 8.71436L3 16.9849C3 20.3105 4.89575 22 8.62598 22L15.374 22C19.1042 22 21 20.3105 21 16.9849L21 8.71436C21 5.72485 19.4609 4.06177 16.4521 3.77002ZM8.21729 6.49438C8.40112 6.49658 8.57812 6.42407 8.70874 6.29272C8.83936 6.16162 8.91309 5.98242 8.91309 5.79565L8.91309 5.09668L12.8608 5.09668C13.2402 5.09668 13.5479 4.78394 13.5479 4.39795C13.5479 4.01196 13.2402 3.69922 12.8608 3.69922L8.93042 3.69922L8.93042 2.73511C8.89087 2.3772 8.59326 2.10645 8.23901 2.10645C7.88501 2.10645 7.5874 2.3772 7.54785 2.73511L7.54785 5.78662L7.54785 5.7959C7.54785 6.17432 7.84448 6.48462 8.21729 6.49438ZM7.85229 12.6152C7.37183 12.6152 6.98267 13.0112 6.98267 13.4998C6.98267 13.9883 7.37183 14.3843 7.85229 14.3843C8.33252 14.3843 8.72168 13.9883 8.72168 13.4998L8.72168 13.4998C8.72168 13.2637 8.62891 13.0374 8.46387 12.8711C8.29907 12.7051 8.07568 12.6128 7.84351 12.6152L7.85229 12.6152ZM16.1914 12.6152C15.7109 12.6152 15.3218 13.0112 15.3218 13.4998C15.3218 13.9883 15.7109 14.3843 16.1914 14.3843C16.6716 14.3843 17.0608 13.9883 17.0608 13.4998L17.0608 13.4998C17.0608 13.2637 16.968 13.0374 16.8032 12.8711C16.6382 12.7051 16.4148 12.6128 16.1826 12.6152L16.1914 12.6152ZM12.0173 12.6152C11.5371 12.6152 11.1477 13.0112 11.1477 13.4998C11.1477 13.9883 11.5371 14.3843 12.0173 14.3843C12.4976 14.3843 12.887 13.9883 12.887 13.4998C12.887 13.0112 12.4976 12.6152 12.0173 12.6152ZM7.85229 16.1975C7.37183 16.1975 6.98267 16.5935 6.98267 17.082C6.98267 17.5706 7.37183 17.9666 7.85229 17.9666C8.33252 17.9666 8.72168 17.5706 8.72168 17.082L8.72168 17.082C8.72168 16.8459 8.62891 16.6196 8.46387 16.4534C8.29907 16.2874 8.07568 16.1951 7.84351 16.1975L7.85229 16.1975ZM16.1914 16.1975C15.7109 16.1975 15.3218 16.5935 15.3218 17.082C15.3218 17.5706 15.7109 17.9666 16.1914 17.9666C16.6716 17.9666 17.0608 17.5706 17.0608 17.082L17.0608 17.082C17.0608 16.8459 16.968 16.6196 16.8032 16.4534C16.6382 16.2874 16.4148 16.1951 16.1826 16.1975L16.1914 16.1975ZM12.0173 16.1975C11.5371 16.1975 11.1477 16.5935 11.1477 17.082C11.1477 17.5706 11.5371 17.9666 12.0173 17.9666C12.4976 17.9666 12.887 17.5706 12.887 17.082C12.887 16.5935 12.4976 16.1975 12.0173 16.1975Z" clip-rule="evenodd" fill="#212121" fill-opacity="1.000000" fill-rule="evenodd"/>
	</g>
</svg>
