<svg width="24.000000" height="24.000000" viewBox="0 0 24 24" fill="none" xmlns="http://www.w3.org/2000/svg" xmlns:xlink="http://www.w3.org/1999/xlink">
	<desc>
			Created with Pixso.
	</desc>
	<defs>
		<clipPath id="clip430_7015">
			<rect id="Iconly/Broken/2 User" width="24.000000" height="24.000000" fill="white" fill-opacity="0"/>
		</clipPath>
	</defs>
	<rect id="Iconly/Broken/2 User" width="24.000000" height="24.000000" fill="#FFFFFF" fill-opacity="0"/>
	<g clip-path="url(#clip430_7015)">
		<path id="2 User" d="M5.95703 7.61841C5.95703 8.03125 5.62085 8.36597 5.20703 8.36597C4.79297 8.36597 4.45703 8.03125 4.45703 7.61841C4.45703 4.79663 6.75977 2.5 9.5918 2.5C12.4226 2.5 14.7253 4.79663 14.7253 7.61841C14.7253 10.4404 12.4226 12.7371 9.5918 12.7371C8.43188 12.7371 7.33887 12.3652 6.43286 11.6614C6.10596 11.4072 6.04688 10.9377 6.302 10.6118C6.55688 10.2869 7.02686 10.228 7.35376 10.4812C7.99487 10.9788 8.7688 11.2417 9.5918 11.2417C11.5955 11.2417 13.2253 9.61597 13.2253 7.61841C13.2253 5.62085 11.5955 3.99512 9.5918 3.99512C7.58691 3.99512 5.95703 5.62085 5.95703 7.61841ZM16.0193 10.1396C15.6052 10.1396 15.2693 10.4746 15.2693 10.8872C15.2693 11.2998 15.6052 11.6348 16.0193 11.6348C18.2512 11.6348 20.0659 9.82568 20.0659 7.60083C20.0659 5.37695 18.2512 3.56689 16.0193 3.56689C15.6052 3.56689 15.2693 3.90186 15.2693 4.31445C15.2693 4.72705 15.6052 5.06201 16.0193 5.06201C17.4241 5.06201 18.5662 6.20142 18.5662 7.60083C18.5662 9.00024 17.4241 10.1396 16.0193 10.1396ZM19.3145 13.9619C20.5793 14.21 21.4124 14.7205 21.7742 15.478C22.0752 16.1089 22.0752 16.8306 21.7742 17.4614C21.4172 18.2122 20.5854 18.7253 19.3025 18.9875C19.2515 18.9976 19.2014 19.0024 19.1504 19.0024C18.8025 19.0024 18.4895 18.7593 18.4175 18.4055C18.3345 18.0007 18.5955 17.606 19.0015 17.5234C19.7644 17.3679 20.2812 17.1116 20.4194 16.8206C20.5254 16.5974 20.5254 16.342 20.4204 16.1208C20.2793 15.8279 19.7644 15.5737 19.0063 15.425C18.4944 15.3115 17.9885 15.2388 17.4836 15.2048C17.0706 15.176 16.7585 14.8201 16.7876 14.4084C16.8157 13.9946 17.1807 13.6917 17.5864 13.7126C18.1655 13.7524 18.7466 13.8362 19.3145 13.9619ZM9.59155 14.418C7.71362 14.418 2 14.418 2 17.9695C2 18.7668 2.31689 19.8743 3.82397 20.6118C4.28882 20.8381 4.85278 21.0225 5.49976 21.1602C5.90479 21.2488 6.30273 20.9888 6.38867 20.585C6.47559 20.1802 6.2168 19.7834 5.81177 19.6978C5.28467 19.5862 4.83789 19.4417 4.48389 19.2683C3.61182 18.8416 3.5 18.3501 3.5 17.9695C3.5 16.2688 6.81274 15.9131 9.59155 15.9131C13.6333 15.9131 15.6821 16.5989 15.6821 17.9495C15.6821 19.6489 12.3704 20.0049 9.59155 20.0049C9.17749 20.0049 8.84155 20.3398 8.84155 20.7524C8.84155 21.166 9.17749 21.5 9.59155 21.5C11.4683 21.5 17.1819 21.5 17.1819 17.9495C17.1819 14.7837 12.8503 14.418 9.59155 14.418Z" clip-rule="evenodd" fill="#212121" fill-opacity="1.000000" fill-rule="evenodd"/>
	</g>
</svg>
