<svg width="24.000000" height="24.000000" viewBox="0 0 24 24" fill="none" xmlns="http://www.w3.org/2000/svg" xmlns:xlink="http://www.w3.org/1999/xlink">
	<desc>
			Created with Pixso.
	</desc>
	<defs>
		<clipPath id="clip430_6698">
			<rect id="Iconly/Broken/Arrow - Up 3" width="24.000000" height="24.000000" fill="white" fill-opacity="0"/>
		</clipPath>
	</defs>
	<rect id="Iconly/Broken/Arrow - Up 3" width="24.000000" height="24.000000" fill="#FFFFFF" fill-opacity="0"/>
	<g clip-path="url(#clip430_6698)">
		<rect id="Iconly/Broken/Arrow - Up 3" width="24.000000" height="24.000000" fill="#FFFFFF" fill-opacity="0"/>
		<path id="Arrow - Up 3" d="M7.21 12.23L11.28 12.23L11.28 20.26C11.28 20.67 11.6 21 12 21C12.39 21 12.71 20.67 12.71 20.26L12.71 12.23L16.78 12.23C17.04 12.23 17.28 12.09 17.41 11.85C17.53 11.62 17.52 11.33 17.38 11.11L12.6 3.34C12.47 3.12 12.24 3 12 3C11.75 3 11.52 3.12 11.39 3.34L8.41 8.17C8.2 8.52 8.3 8.97 8.64 9.19C8.97 9.4 9.41 9.3 9.63 8.95L12 5.11L15.48 10.77L7.21 10.77C6.82 10.77 6.5 11.09 6.5 11.5C6.5 11.9 6.82 12.23 7.21 12.23Z" fill="#212121" fill-opacity="1.000000" fill-rule="nonzero"/>
	</g>
</svg>
