<svg width="24.000000" height="24.000000" viewBox="0 0 24 24" fill="none" xmlns="http://www.w3.org/2000/svg" xmlns:xlink="http://www.w3.org/1999/xlink">
	<desc>
			Created with Pixso.
	</desc>
	<defs>
		<clipPath id="clip430_6992">
			<rect id="Iconly/Broken/Document" width="24.000000" height="24.000000" fill="white" fill-opacity="0"/>
		</clipPath>
	</defs>
	<rect id="Iconly/Broken/Document" width="24.000000" height="24.000000" fill="#FFFFFF" fill-opacity="0"/>
	<g clip-path="url(#clip430_6992)">
		<path id="Document" d="M8.13794 2L15.8535 2C19.0667 2 20.9912 3.95142 21 7.20972L21 16.7903C21 20.0486 19.0842 22 15.8621 22L13.0059 22C12.6394 21.959 12.3623 21.6453 12.3623 21.2715C12.3623 20.8979 12.6394 20.584 13.0059 20.543L15.8535 20.543C18.3091 20.543 19.5457 19.2803 19.5457 16.7903L19.5457 7.20972C19.5457 4.71973 18.3091 3.45703 15.8535 3.45703L8.13794 3.45703C5.68213 3.45703 4.43677 4.71973 4.43677 7.20972L4.43677 16.7903C4.43677 19.2803 5.68213 20.543 8.13794 20.543C8.50415 20.584 8.78149 20.8979 8.78149 21.2715C8.78149 21.6453 8.50415 21.959 8.13794 22C4.92456 22 3 20.0486 3 16.7903L3 7.20972C3 3.94263 4.92456 2 8.13794 2ZM8.39038 8.49878L11.1335 8.49878C11.4998 8.45801 11.7771 8.14404 11.7771 7.77051C11.7771 7.39673 11.4998 7.08301 11.1335 7.04199L8.39038 7.04199C8.02417 7.08301 7.74683 7.39673 7.74683 7.77051C7.74683 8.14404 8.02417 8.45801 8.39038 8.49878ZM15.5923 12.7285L8.38159 12.7285C8.01538 12.6875 7.73804 12.3738 7.73804 12C7.73804 11.6262 8.01538 11.3125 8.38159 11.2715L15.5923 11.2715C15.8677 11.2407 16.1365 11.3723 16.2837 11.6106C16.4309 11.8486 16.4309 12.1514 16.2837 12.3894C16.1365 12.6277 15.8677 12.7593 15.5923 12.7285ZM15.5923 16.958L8.38159 16.958C7.9873 16.958 7.66772 16.6338 7.66772 16.2339C7.66772 15.8342 7.9873 15.51 8.38159 15.51L15.5923 15.51C15.9866 15.51 16.3062 15.8342 16.3062 16.2339C16.3062 16.6338 15.9866 16.958 15.5923 16.958Z" clip-rule="evenodd" fill="#212121" fill-opacity="1.000000" fill-rule="evenodd"/>
	</g>
</svg>
