<svg width="24.000000" height="24.000000" viewBox="0 0 24 24" fill="none" xmlns="http://www.w3.org/2000/svg" xmlns:xlink="http://www.w3.org/1999/xlink">
	<desc>
			Created with Pixso.
	</desc>
	<defs>
		<clipPath id="clip430_6965">
			<rect id="Iconly/Broken/Star" width="24.000000" height="24.000000" fill="white" fill-opacity="0"/>
		</clipPath>
	</defs>
	<rect id="Iconly/Broken/Star" width="24.000000" height="24.000000" fill="#FFFFFF" fill-opacity="0"/>
	<g clip-path="url(#clip430_6965)">
		<path id="Star" d="M17.49 21.91C17.37 21.92 17.25 21.89 17.14 21.82L12 19.12L7.48 21.55C6.74 21.95 5.82 21.68 5.42 20.94C5.41 20.93 5.41 20.92 5.4 20.91C5.24 20.6 5.19 20.26 5.24 19.91L6.12 14.72L2.45 11C1.84 10.38 1.84 9.39 2.45 8.77C2.68 8.52 2.99 8.36 3.33 8.32L8.37 7.55L10.61 2.88C10.96 2.12 11.86 1.78 12.62 2.13C12.95 2.28 13.21 2.55 13.37 2.88L15.62 7.57L20.68 8.34C21.09 8.4 21.45 8.63 21.69 8.97C22.14 9.61 22.07 10.48 21.53 11.05L17.87 14.73L18.38 17.53C18.45 17.95 18.18 18.35 17.76 18.43C17.34 18.5 16.95 18.23 16.88 17.81L16.36 15.01C16.27 14.5 16.43 13.98 16.8 13.61L20.47 9.9L15.41 9.12C14.89 9.03 14.46 8.69 14.25 8.22L12 3.55L9.72 8.29C9.52 8.77 9.08 9.11 8.57 9.19L3.53 9.96L7.17 13.66C7.53 14.02 7.7 14.54 7.61 15.04L6.73 20.24L11.25 17.81C11.7 17.56 12.25 17.56 12.7 17.81L17.83 20.52C18.14 20.69 18.3 21.05 18.21 21.4C18.14 21.74 17.83 21.99 17.47 22L17.49 21.91Z" fill="#212121" fill-opacity="1.000000" fill-rule="nonzero"/>
	</g>
</svg>
