<svg width="24.000000" height="24.000000" viewBox="0 0 24 24" fill="none" xmlns="http://www.w3.org/2000/svg" xmlns:xlink="http://www.w3.org/1999/xlink">
	<desc>
			Created with Pixso.
	</desc>
	<defs>
		<clipPath id="clip430_6838">
			<rect id="Iconly/Broken/Activity" width="24.000000" height="24.000000" fill="white" fill-opacity="0"/>
		</clipPath>
	</defs>
	<rect id="Iconly/Broken/Activity" width="24.000000" height="24.000000" fill="#FFFFFF" fill-opacity="0"/>
	<g clip-path="url(#clip430_6838)">
		<path id="Activity" d="M21.803 5.58276C21.4014 6.55273 20.4534 7.1853 19.4016 7.1853C17.97 7.1853 16.8081 6.02979 16.8032 4.60156C16.7998 3.552 17.4304 2.604 18.4011 2.19995C19.3718 1.7959 20.4907 2.01562 21.2358 2.75635C21.9807 3.49707 22.2046 4.61279 21.803 5.58276ZM3.47583 15.9949C3.47583 18.9226 5.09326 20.5273 8.01855 20.5273C8.42651 20.5322 8.7561 20.8611 8.76099 21.2681C8.7561 21.6738 8.42505 22 8.01855 22C4.30664 22 2 19.6985 2 15.9949L2 8.79028C2 5.07764 4.30664 2.77612 8.01855 2.77612L14.5232 2.77612C14.9297 2.78101 15.2568 3.11133 15.2566 3.51685C15.2566 3.71265 15.1782 3.90015 15.0388 4.0376C14.8992 4.17505 14.7104 4.25122 14.5144 4.24878L8.01855 4.24878C5.09326 4.24878 3.47583 5.86255 3.47583 8.79028L3.47583 15.9949ZM19.4016 3.48145C20.0215 3.48145 20.5239 3.98291 20.5239 4.60156C20.5239 5.21997 20.0215 5.72144 19.4016 5.72144C18.7817 5.72144 18.2793 5.21997 18.2793 4.60156C18.2793 3.98291 18.7817 3.48145 19.4016 3.48145ZM20.5593 8.79028C20.1543 8.79028 19.8259 9.11792 19.8259 9.52222L19.8259 15.9949C19.7993 18.9226 18.1821 20.5273 15.2566 20.5273L12.3049 20.5273C11.897 20.5322 11.5674 20.8611 11.5625 21.2681C11.5674 21.6738 11.8982 22 12.3049 22L15.2566 22C18.9685 22 21.2842 19.6985 21.2842 15.9949L21.2842 9.52222C21.2842 9.12134 20.9609 8.79517 20.5593 8.79028ZM13.3743 14.3547C13.5688 14.3257 13.7454 14.2249 13.8691 14.0725L16.6973 10.4304C16.8708 10.114 16.7876 9.71875 16.501 9.49902C16.2146 9.27905 15.8103 9.30005 15.5483 9.54858L13.1621 12.5911L10.449 10.4658C10.2932 10.345 10.0957 10.2913 9.8999 10.3159C9.70435 10.3408 9.52661 10.4424 9.40601 10.5979L6.51611 14.3547C6.27026 14.6768 6.3291 15.1365 6.64868 15.3865C6.80518 15.5046 7.00269 15.5554 7.19702 15.5273C7.3916 15.499 7.56641 15.3943 7.68262 15.2363L10.1218 12.0706L12.8352 14.1958C12.9871 14.3171 13.1807 14.3743 13.3743 14.3547Z" clip-rule="evenodd" fill="#212121" fill-opacity="1.000000" fill-rule="evenodd"/>
	</g>
</svg>
