<svg width="24.000000" height="24.000000" viewBox="0 0 24 24" fill="none" xmlns="http://www.w3.org/2000/svg" xmlns:xlink="http://www.w3.org/1999/xlink">
	<desc>
			Created with Pixso.
	</desc>
	<defs>
		<clipPath id="clip430_7182">
			<rect id="Iconly/Broken/Call Silent" width="24.000000" height="24.000000" fill="white" fill-opacity="0"/>
		</clipPath>
	</defs>
	<rect id="Iconly/Broken/Call Silent" width="24.000000" height="24.000000" fill="#FFFFFF" fill-opacity="0"/>
	<g clip-path="url(#clip430_7182)">
		<path id="Call Silent" d="M5.71094 13.7004C5.85913 13.8772 6.07202 13.9692 6.28711 13.9692C6.45703 13.9692 6.62817 13.9111 6.76807 13.7942C7.08618 13.5286 7.12817 13.0557 6.86206 12.7378C5.47998 11.0859 4.47705 9.55176 3.9519 8.27637C3.396 7.06226 3.35693 6.15576 3.87109 5.4502C4.20703 4.89746 5.74097 3.44824 6.38696 3.49927C6.46118 3.5061 6.62012 3.55225 6.86914 3.79102C7.13306 4.04688 7.68506 4.71143 8.18018 5.37109C8.927 6.36646 9.05322 6.65649 9.05615 6.65649L9.05615 6.65552C9.10913 6.90625 8.98315 7.14209 8.75806 7.53394L8.75732 7.53516C8.45654 8.05884 8.04541 8.77393 8.39502 9.71875C8.49316 9.9624 8.6001 10.1995 8.71216 10.4302C8.89404 10.802 9.34302 10.9548 9.71509 10.7739C10.0881 10.5933 10.2422 10.1433 10.0601 9.77173C9.96313 9.57275 9.87109 9.3689 9.79419 9.17896C9.7041 8.93506 9.79517 8.73926 10.0591 8.28052L10.0608 8.27783C10.3296 7.80933 10.6978 7.16748 10.5291 6.37256C10.498 6.19165 10.4451 5.89087 9.38013 4.47168C8.91919 3.85596 8.28613 3.07446 7.91016 2.71265C7.46509 2.28394 6.99512 2.04614 6.48804 2.00415C4.68506 1.88721 2.80005 4.32568 2.625 4.61768C1.80884 5.73096 1.7959 7.1731 2.5769 8.87402C3.14795 10.2625 4.23193 11.9304 5.71094 13.7004ZM15.718 13.9377C16.1892 13.6677 16.832 13.3 17.655 13.4729C18.4192 13.6208 20.8303 15.6086 21.2893 16.0823C21.7202 16.5322 21.9583 17.002 21.9983 17.4827C22.0723 19.3406 19.5923 21.2554 19.3081 21.4143C18.7751 21.8032 18.1462 22 17.4382 22C16.7341 22 15.9521 21.8062 15.104 21.4114C13.2629 20.6509 10.801 18.8728 8.4458 16.6101L3.27979 21.7722C2.98779 22.0649 2.5127 22.0649 2.21973 21.7722C1.92676 21.4792 1.92676 21.0046 2.21973 20.7117L7.90991 15.0249C8.19092 14.7432 8.68896 14.7432 8.96997 15.0249C11.3521 17.4045 13.8701 19.2795 15.707 20.0391C16.925 20.6067 17.8301 20.6367 18.5012 20.155C19.0352 19.8333 20.5312 18.353 20.5012 17.5735C20.4973 17.5325 20.4512 17.3748 20.2092 17.1228C19.6602 16.5562 17.707 15.0779 17.3081 14.929C17.0942 14.8821 16.8601 15.011 16.4661 15.2378L16.4656 15.2383C15.9426 15.5381 15.2268 15.9482 14.301 15.6096C12.887 15.0291 11.6909 14.2476 10.72 13.2771C10.427 12.9841 10.427 12.5095 10.72 12.2166L20.7202 2.22241C21.0132 1.92944 21.4883 1.92944 21.7803 2.22241C22.0732 2.51514 22.0732 2.98999 21.7803 3.28271L12.335 12.7224C13.0549 13.324 13.897 13.8228 14.845 14.2124C15.063 14.2915 15.26 14.2014 15.718 13.9377Z" clip-rule="evenodd" fill="#212121" fill-opacity="1.000000" fill-rule="evenodd"/>
	</g>
</svg>
