<svg width="24.000000" height="24.000000" viewBox="0 0 24 24" fill="none" xmlns="http://www.w3.org/2000/svg" xmlns:xlink="http://www.w3.org/1999/xlink">
	<desc>
			Created with Pixso.
	</desc>
	<defs>
		<clipPath id="clip430_6763">
			<rect id="Iconly/Broken/Chat" width="24.000000" height="24.000000" fill="white" fill-opacity="0"/>
		</clipPath>
	</defs>
	<rect id="Iconly/Broken/Chat" width="24.000000" height="24.000000" fill="#FFFFFF" fill-opacity="0"/>
	<g clip-path="url(#clip430_6763)">
		<path id="Chat" d="M16.668 3.15405C15.2361 2.39917 13.6245 2 12.0068 2L11.9954 2C6.48413 2 2 6.48486 2 11.9978C1.99829 13.6028 2.39014 15.2036 3.12891 16.6184L3.32178 16.9927C3.37915 17.1011 3.39136 17.2305 3.37109 17.302C3.09106 18.0339 2.85962 18.7898 2.68164 19.5474C2.67017 19.5959 2.66406 19.6462 2.66235 19.6946C2.64893 20.1191 2.76172 20.4565 2.99854 20.697C3.15283 20.854 3.43286 21.0398 3.89258 21.0398C3.94971 21.0415 4.01221 21.0337 4.07031 21.0212C4.75562 20.8679 5.77002 20.4988 6.51147 20.2302L6.7124 20.157C7.10059 20.0171 7.30225 19.5872 7.16138 19.1987C7.02051 18.8093 6.58813 18.6057 6.20337 18.7493L6 18.8225C5.50415 19.0029 4.81812 19.2524 4.2561 19.4214C4.40063 18.884 4.57593 18.344 4.78638 17.7891C4.93872 17.2939 4.88672 16.7471 4.65161 16.3064L4.45972 15.9312C3.82812 14.7234 3.49536 13.3643 3.49707 11.9988C3.49707 7.31128 7.3103 3.49756 11.9961 3.49756L12.0059 3.49756C13.3823 3.49756 14.7527 3.83667 15.9697 4.479C20.1147 6.66553 21.7087 11.8181 19.5229 15.9639C17.7415 19.343 13.8965 21.1306 10.1724 20.3025C9.76636 20.2153 9.36743 20.468 9.27856 20.8716C9.18945 21.2749 9.44409 21.675 9.84741 21.7649C10.5635 21.9233 11.283 22 11.9954 22C15.6421 22 19.0942 19.988 20.8474 16.6624C23.4182 11.7854 21.5432 5.72632 16.668 3.15405ZM13.1846 11.9988C13.1846 11.3433 12.6516 10.8096 11.9956 10.8096C11.3396 10.8096 10.8069 11.3433 10.8069 11.9988C10.8069 12.6543 11.3396 13.188 11.9956 13.188C12.6516 13.188 13.1846 12.6543 13.1846 11.9988ZM16.3989 10.8096C17.0549 10.8096 17.5876 11.3433 17.5876 11.9988C17.5876 12.6543 17.0549 13.188 16.3989 13.188C15.7427 13.188 15.21 12.6543 15.21 11.9988C15.21 11.3433 15.7427 10.8096 16.3989 10.8096ZM6.40356 11.999C6.40356 11.3428 6.93628 10.8098 7.59229 10.8098C8.24854 10.8098 8.78125 11.3428 8.78125 11.999C8.78125 12.6545 8.24854 13.1875 7.59229 13.1875C6.93628 13.1875 6.40356 12.6545 6.40356 11.999Z" clip-rule="evenodd" fill="#212121" fill-opacity="1.000000" fill-rule="evenodd"/>
	</g>
</svg>
