<svg width="24.000000" height="24.000000" viewBox="0 0 24 24" fill="none" xmlns="http://www.w3.org/2000/svg" xmlns:xlink="http://www.w3.org/1999/xlink">
	<desc>
			Created with Pixso.
	</desc>
	<defs>
		<clipPath id="clip430_7155">
			<rect id="Iconly/Broken/Image" width="24.000000" height="24.000000" fill="white" fill-opacity="0"/>
		</clipPath>
	</defs>
	<rect id="Iconly/Broken/Image" width="24.000000" height="24.000000" fill="#FFFFFF" fill-opacity="0"/>
	<g clip-path="url(#clip430_7155)">
		<path id="Image" d="M12.98 21.949L16.3 21.949C19.686 21.949 21.96 19.5779 21.96 16.05L21.96 7.89893C21.96 4.37109 19.686 2 16.3 2L7.6499 2C4.271 2 2 4.37109 2 7.89893L2 16.05C2 19.5779 4.271 21.949 7.6499 21.949L8.37109 21.949C8.78491 21.949 9.12109 21.613 9.12109 21.199C9.12109 20.7849 8.78491 20.449 8.37109 20.449L7.6499 20.449C5.12891 20.449 3.5 18.7219 3.5 16.05L3.5 7.89893C3.5 5.22607 5.12891 3.5 7.6499 3.5L16.3 3.5C18.8269 3.5 20.46 5.22607 20.46 7.89893L20.46 16.05C20.46 18.7219 18.8269 20.449 16.3 20.449L12.98 20.449C12.5659 20.449 12.23 20.7849 12.23 21.199C12.23 21.613 12.5659 21.949 12.98 21.949ZM8.56006 11.6375C7.17896 11.6375 6.05615 10.5146 6.05615 9.13354C6.05615 7.75244 7.17896 6.62964 8.56006 6.62964C9.94019 6.62964 11.063 7.75244 11.063 9.13354C11.063 10.5146 9.94019 11.6375 8.56006 11.6375ZM8.56006 8.12964C8.0061 8.12964 7.55615 8.57959 7.55615 9.13354C7.55615 9.6875 8.0061 10.1375 8.56006 10.1375C9.11304 10.1375 9.56299 9.6875 9.56299 9.13354C9.56299 8.57959 9.11304 8.12964 8.56006 8.12964ZM5.28149 17.1824C5.09644 17.1824 4.9104 17.1145 4.76538 16.9773C4.46558 16.6924 4.45239 16.2173 4.73755 15.9165L6.2666 14.3025C6.67456 13.8704 7.22656 13.6313 7.82153 13.6294C8.39551 13.6675 8.97046 13.8623 9.38257 14.2903L10.2634 15.1885C10.4004 15.3284 10.5806 15.4065 10.7815 15.3923C10.9775 15.3833 11.1545 15.2954 11.2795 15.1433L13.5085 12.4314C13.9485 11.8965 14.5984 11.5725 15.2915 11.5435C15.9824 11.5225 16.6584 11.7854 17.1404 12.2825L19.2175 14.4233C19.5056 14.7214 19.4985 15.1963 19.2004 15.4844C18.9036 15.7734 18.4285 15.7644 18.1404 15.4685L16.0635 13.3274C15.8755 13.1333 15.6294 13.0244 15.3525 13.0425C15.0825 13.0535 14.8396 13.1753 14.6675 13.3843L12.4385 16.0964C12.0454 16.5745 11.4656 16.8645 10.8474 16.8914C10.2285 16.9043 9.62646 16.6804 9.19238 16.2395L8.3064 15.3354C8.17651 15.2014 8.01147 15.0835 7.82739 15.1294C7.64648 15.1304 7.47949 15.2034 7.35547 15.3335L5.82544 16.9485C5.67847 17.1045 5.48047 17.1824 5.28149 17.1824Z" clip-rule="evenodd" fill="#212121" fill-opacity="1.000000" fill-rule="evenodd"/>
	</g>
</svg>
