<svg width="24.000000" height="24.000000" viewBox="0 0 24 24" fill="none" xmlns="http://www.w3.org/2000/svg" xmlns:xlink="http://www.w3.org/1999/xlink">
	<desc>
			Created with Pixso.
	</desc>
	<defs>
		<clipPath id="clip430_7195">
			<rect id="Iconly/Broken/Calling" width="24.000000" height="24.000000" fill="white" fill-opacity="0"/>
		</clipPath>
	</defs>
	<rect id="Iconly/Broken/Calling" width="24.000000" height="24.000000" fill="#FFFFFF" fill-opacity="0"/>
	<g clip-path="url(#clip430_7195)">
		<path id="Calling" d="M13.6165 2.66064C13.6626 2.25317 14.0269 1.95361 14.4304 2.00586C18.4353 2.45288 21.5464 5.58228 21.9951 9.61426C22.0413 10.0217 21.7498 10.3896 21.3459 10.4341C21.3176 10.4373 21.29 10.4392 21.2627 10.4392C20.8933 10.4392 20.5742 10.1592 20.532 9.78052C20.1587 6.44165 17.5837 3.85034 14.2676 3.47949C13.8628 3.43408 13.5723 3.06812 13.6165 2.66064ZM3.90894 8.42188C3.36597 7.22021 3.33057 6.32227 3.83643 5.62207C4.16235 5.07812 5.64136 3.66284 6.30322 3.6936C6.42798 3.70337 6.59595 3.80713 6.77466 3.98413C7.35303 4.552 8.78979 6.46362 8.92725 6.8208C8.97925 7.06787 8.85669 7.29932 8.63477 7.68701C8.33911 8.20435 7.93457 8.91235 8.27515 9.85693C9.05103 11.7686 10.2373 13.3076 11.8018 14.4341C11.9314 14.5278 12.0815 14.5725 12.23 14.5725C12.4597 14.5725 12.6855 14.4636 12.8289 14.262C13.0657 13.9277 12.989 13.4658 12.6582 13.2263C11.3235 12.2661 10.3081 10.9438 9.65015 9.32373C9.56079 9.07764 9.65112 8.88281 9.91138 8.42676L9.91211 8.42554C10.176 7.96289 10.5376 7.32935 10.3699 6.51807C10.2139 5.7605 8.26636 3.37598 7.80396 2.92212C7.36792 2.4939 6.9043 2.25537 6.39844 2.21387C4.64941 2.09814 2.78076 4.51343 2.61182 4.80005C1.8103 5.90186 1.79663 7.32812 2.5686 9.03613C2.73657 9.40894 3.17456 9.57397 3.5437 9.40405C3.91406 9.23389 4.0769 8.79468 3.90894 8.42188ZM17.0615 9.84839C17.1304 10.2024 17.4387 10.4478 17.7834 10.4478C17.8306 10.4478 17.8787 10.4438 17.9258 10.4348C18.3254 10.3567 18.5857 9.96606 18.5081 9.56445C18.1094 7.50757 16.5322 5.91919 14.4895 5.51855C14.0957 5.45044 13.7039 5.70361 13.6255 6.10498C13.5479 6.50659 13.8091 6.89722 14.2078 6.97534C15.6582 7.25928 16.7788 8.38672 17.0615 9.84839ZM15.1055 14.187C15.6555 13.8389 16.4097 13.365 17.3672 13.564C18.1184 13.7202 20.4851 15.6814 20.9368 16.1482C21.3621 16.5852 21.5986 17.052 21.6389 17.5366C21.7029 19.3574 19.2791 21.2622 19.0022 21.4224C18.4729 21.8062 17.8533 22 17.157 22C16.4636 22 15.6936 21.8081 14.8599 21.4185C11.6526 20.0754 6.80225 15.7268 4.07617 11.7361C3.84521 11.3999 3.92969 10.938 4.26465 10.7046C4.59961 10.4753 5.05908 10.5574 5.28882 10.8965C7.83545 14.6221 12.4902 18.8193 15.4531 20.0605C16.6521 20.6204 17.5449 20.655 18.2078 20.1763C18.7244 19.8599 20.1953 18.3892 20.1689 17.6238C20.1602 17.5337 20.0579 17.3645 19.884 17.1846C19.3184 16.6011 17.4211 15.1553 17.0244 15.0049C16.7083 14.9404 16.386 15.1284 15.8901 15.4419L15.6348 15.6023C15.2861 15.8127 14.8325 15.698 14.6243 15.3491C14.4141 14.9968 14.5271 14.541 14.8757 14.3303L15.1055 14.187Z" clip-rule="evenodd" fill="#212121" fill-opacity="1.000000" fill-rule="evenodd"/>
	</g>
</svg>
