<svg width="24.000000" height="24.000000" viewBox="0 0 24 24" fill="none" xmlns="http://www.w3.org/2000/svg" xmlns:xlink="http://www.w3.org/1999/xlink">
	<desc>
			Created with Pixso.
	</desc>
	<defs>
		<clipPath id="clip430_6939">
			<rect id="Iconly/Broken/Info Circle" width="24.000000" height="24.000000" fill="white" fill-opacity="0"/>
		</clipPath>
	</defs>
	<rect id="Iconly/Broken/Info Circle" width="24.000000" height="24.000000" fill="#FFFFFF" fill-opacity="0"/>
	<g clip-path="url(#clip430_6939)">
		<path id="Info Circle" d="M2 11.9998C2 6.48486 6.48608 1.99976 12 1.99976C17.5139 1.99976 22 6.48486 22 11.9998C22 17.5137 17.5139 21.9998 12 21.9998C8.87305 21.9998 5.98291 20.5767 4.073 18.0977C3.82788 17.7788 3.88696 17.3218 4.20605 17.0776C4.52295 16.8318 4.979 16.8928 5.2251 17.2097C6.85791 19.3298 9.3269 20.5457 12 20.5457C16.7119 20.5457 20.5459 16.7126 20.5459 11.9998C20.5459 7.28784 16.7119 3.45386 12 3.45386C7.28809 3.45386 3.4541 7.28784 3.4541 11.9998C3.4541 12.4377 3.48706 12.8728 3.552 13.2988C3.61206 13.6948 3.34009 14.0657 2.94312 14.1267C2.54395 14.1929 2.17505 13.9158 2.11499 13.5188C2.03906 13.0208 2 12.5098 2 11.9998ZM12 7.45386C11.5859 7.45386 11.25 7.78979 11.25 8.20386L11.25 12.6238C11.25 13.0378 11.5859 13.3738 12 13.3738C12.4141 13.3738 12.75 13.0378 12.75 12.6238L12.75 8.20386C12.75 7.78979 12.4141 7.45386 12 7.45386ZM12.0103 15.0457L12.0002 15.0457C11.5862 15.0457 11.2551 15.3816 11.2551 15.7957C11.2551 16.2097 11.5962 16.5457 12.0103 16.5457C12.4243 16.5457 12.7603 16.2097 12.7603 15.7957C12.7603 15.3816 12.4243 15.0457 12.0103 15.0457Z" clip-rule="evenodd" fill="#212121" fill-opacity="1.000000" fill-rule="evenodd"/>
	</g>
</svg>
