<svg width="24.000000" height="24.000000" viewBox="0 0 24 24" fill="none" xmlns="http://www.w3.org/2000/svg" xmlns:xlink="http://www.w3.org/1999/xlink">
	<desc>
			Created with Pixso.
	</desc>
	<defs>
		<clipPath id="clip430_6775">
			<rect id="Iconly/Broken/Paper" width="24.000000" height="24.000000" fill="white" fill-opacity="0"/>
		</clipPath>
	</defs>
	<rect id="Iconly/Broken/Paper" width="24.000000" height="24.000000" fill="#FFFFFF" fill-opacity="0"/>
	<g clip-path="url(#clip430_6775)">
		<path id="Paper" d="M15.2422 2.24463L20.2917 7.5564C20.4253 7.69751 20.5 7.88477 20.5 8.08008L20.5 17.3083C20.5 19.8516 18.4553 22 16.0347 22L8.07007 22C5.50781 22 3.5 19.9392 3.5 17.3083L3.5 14.7854C3.5 14.3684 3.83496 14.0303 4.2478 14.0303C4.6604 14.0303 4.99536 14.3684 4.99536 14.7854L4.99536 17.3083C4.99536 19.0923 6.34619 20.4897 8.07007 20.4897L16.0347 20.4897C17.6167 20.4897 19.0046 19.0027 19.0046 17.3083L19.0046 8.38306L15.1882 4.3689L15.1882 5.68481C15.1882 6.6958 16.0017 7.52026 17.0027 7.52222C17.4155 7.52319 17.7495 7.86157 17.7485 8.2793C17.7473 8.69531 17.4133 9.03247 17.0007 9.03247L16.9998 9.03247C15.1763 9.02832 13.6929 7.52734 13.6929 5.68481L13.6929 3.52222L8.07007 3.52222C6.40308 3.52222 4.99536 4.89551 4.99536 6.52148L4.99536 10.6807C4.99536 11.0974 4.6604 11.4358 4.2478 11.4358C3.83496 11.4358 3.5 11.0974 3.5 10.6807L3.5 6.52148C3.5 4.0769 5.59253 2.01196 8.07007 2.01196L14.3828 2.01196C14.4026 2.01001 14.4197 2 14.4404 2C14.4604 2 14.4775 2.01001 14.4973 2.01196L14.7026 2.01196C14.906 2.01196 15.1006 2.0957 15.2422 2.24463ZM12.2158 11.4194L8.87012 11.4194C8.45728 11.4194 8.12231 11.0813 8.12231 10.6643C8.12231 10.2476 8.45728 9.90918 8.87012 9.90918L12.2158 9.90918C12.6287 9.90918 12.9636 10.2476 12.9636 10.6643C12.9636 11.0813 12.6287 11.4194 12.2158 11.4194ZM8.87012 16.4053L14.2517 16.4053C14.6643 16.4053 14.9993 16.0671 14.9993 15.6501C14.9993 15.2334 14.6643 14.8953 14.2517 14.8953L8.87012 14.8953C8.45728 14.8953 8.12231 15.2334 8.12231 15.6501C8.12231 16.0671 8.45728 16.4053 8.87012 16.4053Z" clip-rule="evenodd" fill="#212121" fill-opacity="1.000000" fill-rule="evenodd"/>
	</g>
</svg>
