<svg width="24.000000" height="24.000000" viewBox="0 0 24 24" fill="none" xmlns="http://www.w3.org/2000/svg" xmlns:xlink="http://www.w3.org/1999/xlink">
	<desc>
			Created with Pixso.
	</desc>
	<defs>
		<clipPath id="clip430_6906">
			<rect id="Iconly/Broken/Buy" width="24.000000" height="24.000000" fill="white" fill-opacity="0"/>
		</clipPath>
	</defs>
	<rect id="Iconly/Broken/Buy" width="24.000000" height="24.000000" fill="#FFFFFF" fill-opacity="0"/>
	<g clip-path="url(#clip430_6906)">
		<path id="Buy" d="M21.4895 6.66455C21.0925 6.19604 20.5154 5.92676 19.9084 5.92676L9.16382 5.92676C8.74976 5.92676 8.41382 6.26953 8.41382 6.69214C8.41382 7.1145 8.74976 7.45728 9.16382 7.45728L19.9084 7.45728C20.1436 7.45728 20.2896 7.58789 20.3555 7.66553C20.4214 7.74414 20.5276 7.9104 20.4934 8.14722L19.5444 14.8403C19.4695 15.365 19.0215 15.761 18.5015 15.761L7.59082 15.761C7.03784 15.761 6.58691 15.3374 6.54077 14.7761L5.57788 3.06934C5.5498 2.72241 5.29492 2.43774 4.95898 2.37842L2.87793 2.01025C2.46484 1.94287 2.08105 2.21729 2.01099 2.63477C1.94092 3.05103 2.21387 3.44702 2.62183 3.51953L4.13184 3.78564L5.0459 14.9038C5.15796 16.2649 6.25195 17.2915 7.59082 17.2915L18.5015 17.2915C19.7625 17.2915 20.8484 16.3323 21.0286 15.0598L21.9785 8.3667C22.0654 7.7522 21.8865 7.13281 21.4895 6.66455ZM17.6487 10.4644C17.6487 10.8867 17.3127 11.2297 16.8987 11.2297L14.1257 11.2297C13.7109 11.2297 13.376 10.8867 13.376 10.4644C13.376 10.0417 13.7109 9.69897 14.1257 9.69897L16.8987 9.69897C17.3127 9.69897 17.6487 10.0417 17.6487 10.4644ZM5.90796 20.4551C5.90796 19.603 6.58789 18.9089 7.42285 18.9089C8.25781 18.9089 8.93677 19.603 8.93677 20.4551C8.93677 21.3071 8.25781 22 7.42285 22C6.58789 22 5.90796 21.3071 5.90796 20.4551ZM17.1606 20.4551C17.1606 19.603 17.8396 18.9089 18.6746 18.9089C19.5095 18.9089 20.1897 19.603 20.1897 20.4551C20.1897 21.3071 19.5095 22 18.6746 22C17.8396 22 17.1606 21.3071 17.1606 20.4551Z" clip-rule="evenodd" fill="#212121" fill-opacity="1.000000" fill-rule="evenodd"/>
	</g>
</svg>
