<svg width="24.000000" height="24.000000" viewBox="0 0 24 24" fill="none" xmlns="http://www.w3.org/2000/svg" xmlns:xlink="http://www.w3.org/1999/xlink">
	<desc>
			Created with Pixso.
	</desc>
	<defs>
		<clipPath id="clip430_6945">
			<rect id="Iconly/Broken/Discount" width="24.000000" height="24.000000" fill="white" fill-opacity="0"/>
		</clipPath>
	</defs>
	<rect id="Iconly/Broken/Discount" width="24.000000" height="24.000000" fill="#FFFFFF" fill-opacity="0"/>
	<g clip-path="url(#clip430_6945)">
		<path id="Discount" d="M3.94629 13.0747C3.3562 12.4844 3.3562 11.5242 3.94629 10.9248L4.66626 10.2036C5.23633 9.63452 5.54614 8.88428 5.54614 8.08301L5.54614 7.05273C5.54614 6.22241 6.22632 5.54224 7.05615 5.54224L8.08618 5.54224C8.88623 5.54224 9.63623 5.23193 10.2063 4.66187L10.9263 3.94165C11.5063 3.36133 12.4563 3.35132 13.0562 3.92261C13.0662 3.93164 13.0662 3.93164 13.0762 3.94165C13.2063 4.06177 13.3862 4.1416 13.5862 4.1416C13.9963 4.1416 14.3362 3.81152 14.3362 3.39136C14.3362 3.19141 14.2563 3.01123 14.1262 2.87134C14.0862 2.8313 14.0461 2.80127 14.0063 2.77124C12.8262 1.70093 10.9963 1.75098 9.86621 2.88232L9.14624 3.60156C8.86621 3.88257 8.48633 4.04175 8.08618 4.04175L7.05615 4.04175C5.39624 4.04175 4.04614 5.39209 4.04614 7.05273L4.04614 8.08301C4.04614 8.48315 3.88623 8.86328 3.6062 9.14331L2.87622 9.87354C1.7063 11.054 1.7063 12.9656 2.88623 14.136C3.03613 14.2849 3.22632 14.355 3.41626 14.355C3.6062 14.355 3.80615 14.2749 3.94629 14.136C4.23633 13.8347 4.23633 13.3647 3.94629 13.0747ZM20.3948 9.14624L21.1128 9.8645C21.6816 10.4297 21.9968 11.1851 21.9998 11.9902C22.0017 12.7954 21.6907 13.5527 21.1238 14.123L20.3938 14.8533C20.1157 15.1333 19.9558 15.5205 19.9548 15.9175L19.9548 16.9448C19.9548 18.6055 18.6038 19.9568 16.9438 19.9568C16.5298 19.9568 16.1938 19.6206 16.1938 19.2065C16.1938 18.7925 16.5298 18.4563 16.9438 18.4563C17.7778 18.4563 18.4548 17.7781 18.4548 16.9448L18.4548 15.9165C18.4558 15.1143 18.7668 14.3601 19.3318 13.7939L20.0518 13.0725C20.3447 12.7786 20.5007 12.3984 20.4998 11.9941C20.4988 11.5911 20.3398 11.2119 20.0537 10.927L19.3328 10.2056C18.7668 9.6355 18.4558 8.88232 18.4548 8.08203L18.4548 7.05273C18.4548 6.21826 17.7778 5.54102 16.9438 5.54102C16.5298 5.54102 16.1938 5.20508 16.1938 4.79077C16.1938 4.37671 16.5298 4.04053 16.9438 4.04053C18.6038 4.04053 19.9548 5.39111 19.9548 7.05273L19.9548 8.08105C19.9558 8.48218 20.1118 8.86133 20.3948 9.14624ZM9.42065 8.5752C9.89966 8.5752 10.2886 8.96436 10.2886 9.4436C10.2886 9.92261 9.89966 10.3108 9.42065 10.3108C8.94165 10.3108 8.55249 9.92261 8.55249 9.4436C8.55249 8.96436 8.94165 8.5752 9.42065 8.5752ZM8.89941 14.0388C8.60645 14.3318 8.60645 14.8069 8.89941 15.1001C9.04541 15.2461 9.23755 15.3191 9.42944 15.3191C9.62134 15.3191 9.81348 15.2461 9.96045 15.1001L15.0994 9.9585C15.3923 9.66528 15.3923 9.19019 15.0994 8.89697C14.8064 8.604 14.3325 8.604 14.0396 8.89697L8.89941 14.0388ZM14.5696 13.7039C15.0486 13.7039 15.4375 14.093 15.4375 14.572C15.4375 15.0513 15.0486 15.4404 14.5696 15.4404C14.0896 15.4404 13.7017 15.0513 13.7017 14.572C13.7017 14.093 14.0896 13.7039 14.5696 13.7039ZM13.0713 20.0554C12.7852 20.3445 12.4092 20.5176 11.9993 20.5015C11.5972 20.5015 11.2183 20.3455 10.9263 20.0544L10.2053 19.332C9.63818 18.769 8.88428 18.4568 8.08325 18.4558L7.05518 18.4558C6.22119 18.4558 5.54419 17.7786 5.54419 16.9453C5.54419 16.5312 5.20825 16.1951 4.79419 16.1951C4.38037 16.1951 4.04419 16.5312 4.04419 16.9453C4.04419 18.606 5.39526 19.9563 7.05518 19.9563L8.0813 19.9563C8.48438 19.9573 8.86328 20.1145 9.14624 20.3955L9.87622 21.1257C10.4622 21.709 11.2312 22 11.9993 22C12.7732 22 13.5474 21.7048 14.1343 21.1147C14.4263 20.8206 14.4253 20.3455 14.1323 20.0522C13.8381 19.7603 13.3633 19.7632 13.0713 20.0554Z" clip-rule="evenodd" fill="#212121" fill-opacity="1.000000" fill-rule="evenodd"/>
	</g>
</svg>
