<svg width="24.000000" height="24.000000" viewBox="0 0 24 24" fill="none" xmlns="http://www.w3.org/2000/svg" xmlns:xlink="http://www.w3.org/1999/xlink">
	<desc>
			Created with Pixso.
	</desc>
	<defs>
		<clipPath id="clip430_6791">
			<rect id="Iconly/Broken/Paper Upload" width="24.000000" height="24.000000" fill="white" fill-opacity="0"/>
		</clipPath>
	</defs>
	<rect id="Iconly/Broken/Paper Upload" width="24.000000" height="24.000000" fill="#FFFFFF" fill-opacity="0"/>
	<g clip-path="url(#clip430_6791)">
		<path id="Paper Upload" d="M20.2917 7.5564L15.241 2.24463C15.0996 2.0957 14.905 2.01196 14.7017 2.01196L14.4973 2.01196C14.4775 2.01001 14.4604 2 14.4395 2C14.4197 2 14.4026 2.01001 14.3818 2.01196L8.07007 2.01196C5.59253 2.01196 3.5 4.0769 3.5 6.52148L3.5 10.7039C3.5 11.1206 3.83496 11.4587 4.2478 11.4587C4.6604 11.4587 4.99536 11.1206 4.99536 10.7039L4.99536 6.52148C4.99536 4.89551 6.40308 3.52222 8.07007 3.52222L13.6919 3.52222L13.6919 5.68481C13.6919 7.52734 15.1763 9.02832 16.9998 9.03247L17.0007 9.03247C17.4133 9.03247 17.7473 8.69531 17.7485 8.2793C17.7495 7.86157 17.4155 7.52319 17.0027 7.52222C16.0017 7.52026 15.1873 6.6958 15.1873 5.68481L15.1873 4.36792L19.0046 8.38306L19.0046 17.3315C19.0046 19.043 17.6448 20.4897 16.0337 20.4897L8.07007 20.4897C6.31641 20.4897 4.99536 19.1316 4.99536 17.3315L4.99536 14.8083C4.99536 14.3916 4.6604 14.0535 4.2478 14.0535C3.83496 14.0535 3.5 14.3916 3.5 14.8083L3.5 17.3315C3.5 19.9492 5.50684 22 8.07007 22L16.0337 22C18.4553 22 20.5 19.8625 20.5 17.3315L20.5 8.08008C20.5 7.88477 20.4253 7.69751 20.2917 7.5564ZM12.3633 16.1094C12.3633 16.5261 12.0283 16.8645 11.6155 16.8645C11.2026 16.8645 10.8677 16.5261 10.8677 16.1094L10.8677 11.3191L9.31543 12.8945C9.02441 13.1907 8.55078 13.1907 8.25781 12.8967C7.96558 12.6028 7.9646 12.1245 8.25586 11.8284L11.0862 8.95801L11.0862 8.95703C11.2217 8.82104 11.4092 8.73657 11.6155 8.73657C11.8228 8.73657 12.0093 8.82104 12.1448 8.95703L12.1448 8.95801L14.9751 11.8284C15.2664 12.1245 15.2654 12.6028 14.9731 12.8967C14.8267 13.0427 14.6362 13.1162 14.4448 13.1162C14.2534 13.1162 14.062 13.0427 13.9155 12.8945L12.3633 11.3191L12.3633 16.1094Z" clip-rule="evenodd" fill="#212121" fill-opacity="1.000000" fill-rule="evenodd"/>
	</g>
</svg>
