<svg width="24.000000" height="24.000000" viewBox="0 0 24 24" fill="none" xmlns="http://www.w3.org/2000/svg" xmlns:xlink="http://www.w3.org/1999/xlink">
	<desc>
			Created with Pixso.
	</desc>
	<defs>
		<clipPath id="clip430_6818">
			<rect id="Iconly/Broken/Send" width="24.000000" height="24.000000" fill="white" fill-opacity="0"/>
		</clipPath>
	</defs>
	<rect id="Iconly/Broken/Send" width="24.000000" height="24.000000" fill="#FFFFFF" fill-opacity="0"/>
	<g clip-path="url(#clip430_6818)">
		<path id="Send" d="M21.4341 2.58252C20.9309 2.07031 20.189 1.87793 19.5039 2.07739L3.41333 6.75513C2.65845 6.97461 2.12329 7.59766 2.01831 8.38257C1.91333 9.16675 2.26538 9.90942 2.93628 10.322L6.32251 12.4065C6.44458 12.4819 6.57959 12.5171 6.7124 12.5171C6.96558 12.5171 7.21143 12.3882 7.35254 12.1567C7.56958 11.8005 7.45752 11.3354 7.10449 11.1182L3.71826 9.03491C3.49048 8.89404 3.49438 8.67261 3.50537 8.58398C3.51733 8.49536 3.57324 8.28101 3.82935 8.20654L19.9209 3.52759C20.1519 3.46021 20.312 3.58691 20.3689 3.64526C20.426 3.70264 20.551 3.86182 20.481 4.09717L19.2319 8.30005C19.1128 8.69873 19.3389 9.11938 19.7358 9.23901C20.134 9.35791 20.55 9.13135 20.6689 8.73193L21.918 4.53003C22.123 3.8396 21.937 3.09375 21.4341 2.58252ZM18.0281 12.3491C18.1482 11.9487 18.5652 11.7212 18.9622 11.842C19.3591 11.9617 19.5852 12.3826 19.4663 12.782L17.144 20.5959C16.9192 21.3518 16.2971 21.8833 15.52 21.9829C15.4331 21.9949 15.3472 22 15.261 22C14.583 22 13.9631 21.6519 13.6021 21.054L9.50195 14.2644C9.32275 13.9666 9.36792 13.5842 9.61279 13.3386L15.4341 7.47998C15.7271 7.1853 16.2012 7.1853 16.4941 7.47998C16.7871 7.7749 16.7871 8.25293 16.4941 8.54785L11.0898 13.9878L14.884 20.27C15.022 20.4983 15.239 20.4963 15.3291 20.4863C15.417 20.4741 15.6301 20.4199 15.7061 20.1643L18.0281 12.3491Z" clip-rule="evenodd" fill="#212121" fill-opacity="1.000000" fill-rule="evenodd"/>
	</g>
</svg>
