<svg width="24.000000" height="24.000000" viewBox="0 0 24 24" fill="none" xmlns="http://www.w3.org/2000/svg" xmlns:xlink="http://www.w3.org/1999/xlink">
	<desc>
			Created with Pixso.
	</desc>
	<defs>
		<clipPath id="clip430_6753">
			<rect id="Iconly/Broken/Home" width="24.000000" height="24.000000" fill="white" fill-opacity="0"/>
		</clipPath>
	</defs>
	<rect id="Iconly/Broken/Home" width="24.000000" height="24.000000" fill="#FFFFFF" fill-opacity="0"/>
	<g clip-path="url(#clip430_6753)">
		<path id="Home" d="M20.1521 7.59131C20.8643 8.16382 21.2822 9.02539 21.2913 9.93896L21.2827 17.9131C21.2827 20.0789 19.5269 21.8347 17.3608 21.8347L15.6218 21.8347C14.5735 21.8347 13.7222 20.9873 13.7173 19.939L13.7173 16.3391C13.7173 16.0605 13.4917 15.8347 13.2131 15.8347L10.6042 15.8347C10.469 15.8347 10.3394 15.8889 10.2446 15.9856C10.1497 16.082 10.0977 16.2124 10.1001 16.3477L10.1001 17.7217C10.1001 18.1538 9.74951 18.5044 9.31738 18.5044C8.88525 18.5044 8.53467 18.1538 8.53467 17.7217L8.53467 16.3477C8.53467 15.7966 8.75366 15.2681 9.14355 14.8782C9.5332 14.4885 10.0618 14.2695 10.613 14.2695L13.2217 14.2695C14.3662 14.2742 15.2913 15.2034 15.2913 16.3477L15.2913 19.939C15.2913 20.1216 15.4392 20.2695 15.6218 20.2695L17.4043 20.2695C18.7009 20.2695 19.7522 19.2183 19.7522 17.9216L19.7522 9.95654C19.7458 9.51514 19.5415 9.1001 19.1956 8.82593L13.187 4.03467C12.4292 3.41089 11.3359 3.41089 10.5784 4.03467L8.64771 5.47827C8.29004 5.73511 7.79175 5.65332 7.53467 5.29565C7.27783 4.93774 7.35962 4.43945 7.71729 4.18262L9.62183 2.7998C10.9421 1.73853 12.823 1.73853 14.1436 2.7998L20.1521 7.59131ZM10.4216 20.2607L6.42163 20.2607C5.12573 20.2561 4.07471 19.209 4.06519 17.9131L4.06519 9.95654C4.06787 9.52246 4.26196 9.11206 4.5957 8.83472L5.30005 8.31299C5.55713 8.03906 5.58325 7.62085 5.3623 7.31714C5.14136 7.01318 4.7356 6.90918 4.39575 7.06958L3.67383 7.60864C2.9458 8.17188 2.51392 9.03613 2.5 9.95654L2.5 17.9216C2.50488 20.0857 4.25781 21.8386 6.42163 21.8435L10.4216 21.8435C10.854 21.8435 11.2043 21.4929 11.2043 21.0608C11.2043 20.6287 10.854 20.2781 10.4216 20.2781L10.4216 20.2607Z" clip-rule="evenodd" fill="#212121" fill-opacity="1.000000" fill-rule="evenodd"/>
	</g>
</svg>
