<svg width="24.000000" height="24.000000" viewBox="0 0 24 24" fill="none" xmlns="http://www.w3.org/2000/svg" xmlns:xlink="http://www.w3.org/1999/xlink">
	<desc>
			Created with Pixso.
	</desc>
	<defs>
		<clipPath id="clip430_6981">
			<rect id="Iconly/Broken/Location" width="24.000000" height="24.000000" fill="white" fill-opacity="0"/>
		</clipPath>
	</defs>
	<rect id="Iconly/Broken/Location" width="24.000000" height="24.000000" fill="#FFFFFF" fill-opacity="0"/>
	<g clip-path="url(#clip430_6981)">
		<path id="Location" d="M12.0332 2L12 2C7.32837 2 3.51855 5.78589 3.5 10.5127C3.57739 12.7234 4.32446 14.8237 5.66016 16.584C7.09937 18.5 9.28223 20.5293 11.3562 21.8789C11.4827 21.9614 11.6233 22 11.7629 22C12.0071 22 12.2466 21.8806 12.3889 21.6614C12.6145 21.3159 12.5171 20.8547 12.1711 20.6301C10.2341 19.3691 8.19604 17.4749 6.85254 15.6858C5.70142 14.1697 5.05859 12.3623 4.99268 10.4609C5.00757 6.61206 8.14868 3.48999 12 3.48999L12.0271 3.48999C15.8916 3.50586 19.022 6.65845 19.0071 10.5881C18.9526 13.4487 17.1648 15.8945 15.6738 17.4417C15.2305 17.9038 14.7588 18.3474 14.2742 18.7605C13.9607 19.0281 13.9229 19.498 14.1907 19.812C14.4585 20.125 14.9292 20.1619 15.2427 19.8945C15.7661 19.449 16.2737 18.9719 16.7505 18.4746C18.4258 16.7356 20.4365 13.96 20.4998 10.6152L20.4998 10.5222C20.5183 5.84204 16.7197 2.01831 12.0332 2ZM10.2551 10.6143C10.2551 11.5728 11.0366 12.354 11.9973 12.354C12.958 12.354 13.7395 11.5728 13.7395 10.6143C13.7395 9.65479 12.958 8.87329 11.9973 8.87329C11.5854 8.87329 11.251 8.54004 11.251 8.12891C11.251 7.71655 11.5854 7.3833 11.9973 7.3833C13.7808 7.3833 15.2322 8.83203 15.2322 10.6143C15.2322 12.3953 13.7808 13.844 11.9973 13.844C10.2139 13.844 8.76245 12.3953 8.76245 10.6143C8.76245 10.2019 9.09692 9.86865 9.50879 9.86865C9.92065 9.86865 10.2551 10.2019 10.2551 10.6143Z" clip-rule="evenodd" fill="#212121" fill-opacity="1.000000" fill-rule="evenodd"/>
	</g>
</svg>
