<svg width="24.000000" height="24.000000" viewBox="0 0 24 24" fill="none" xmlns="http://www.w3.org/2000/svg" xmlns:xlink="http://www.w3.org/1999/xlink">
	<desc>
			Created with Pixso.
	</desc>
	<defs>
		<clipPath id="clip430_6932">
			<rect id="Iconly/Broken/More Circle" width="24.000000" height="24.000000" fill="white" fill-opacity="0"/>
		</clipPath>
	</defs>
	<rect id="Iconly/Broken/More Circle" width="24.000000" height="24.000000" fill="#FFFFFF" fill-opacity="0"/>
	<g clip-path="url(#clip430_6932)">
		<path id="More Circle" d="M2.00024 11.9998C2.00024 6.48486 6.48633 1.99976 12.0002 1.99976C17.5142 1.99976 22.0002 6.48486 22.0002 11.9998C22.0002 17.5137 17.5142 21.9998 12.0002 21.9998C8.87231 21.9998 5.98315 20.5767 4.07324 18.0977C3.82812 17.7788 3.88721 17.3218 4.20532 17.0776C4.52319 16.8318 4.97925 16.8928 5.22534 17.2097C6.85718 19.3298 9.32715 20.5457 12.0002 20.5457C16.7122 20.5457 20.5452 16.7126 20.5452 11.9998C20.5452 7.28784 16.7122 3.45386 12.0002 3.45386C7.28833 3.45386 3.45435 7.28784 3.45435 11.9998C3.45435 12.4377 3.4873 12.8728 3.55225 13.2988C3.6123 13.6948 3.33936 14.0657 2.94336 14.1267C2.54419 14.1929 2.17529 13.9158 2.11426 13.5188C2.03833 13.0208 2.00024 12.5098 2.00024 11.9998ZM7.52051 10.8037C8.1814 10.8037 8.71851 11.3408 8.71851 11.9998C8.71851 12.6597 8.1814 13.1968 7.52051 13.1968C6.86035 13.1968 6.32251 12.6597 6.32251 11.9998C6.32251 11.3408 6.86035 10.8037 7.52051 10.8037ZM12 10.8037C12.6599 10.8037 13.198 11.3408 13.198 11.9998C13.198 12.6597 12.6599 13.1968 12 13.1968C11.3389 13.1968 10.802 12.6597 10.802 11.9998C10.802 11.3408 11.3389 10.8037 12 10.8037ZM17.677 11.9998C17.677 11.3408 17.1399 10.8037 16.479 10.8037C15.8188 10.8037 15.281 11.3408 15.281 11.9998C15.281 12.6597 15.8188 13.1968 16.479 13.1968C17.1399 13.1968 17.677 12.6597 17.677 11.9998Z" clip-rule="evenodd" fill="#212121" fill-opacity="1.000000" fill-rule="evenodd"/>
	</g>
</svg>
