<svg width="24.000000" height="24.000000" viewBox="0 0 24 24" fill="none" xmlns="http://www.w3.org/2000/svg" xmlns:xlink="http://www.w3.org/1999/xlink">
	<desc>
			Created with Pixso.
	</desc>
	<defs>
		<clipPath id="clip430_6913">
			<rect id="Iconly/Broken/More Square" width="24.000000" height="24.000000" fill="white" fill-opacity="0"/>
		</clipPath>
	</defs>
	<rect id="Iconly/Broken/More Square" width="24.000000" height="24.000000" fill="#FFFFFF" fill-opacity="0"/>
	<g clip-path="url(#clip430_6913)">
		<path id="More Square" d="M8.25366 1.99976L15.7468 1.99976C19.6077 1.99976 21.9998 4.39282 21.9998 8.25586L21.9998 15.7559C21.9998 19.6077 19.6077 21.9998 15.7468 21.9998L8.24365 21.9998C4.39185 21.9998 1.99976 19.6077 2.00073 15.7527C2.00073 15.3308 2.34375 14.9878 2.76587 14.9878C3.18872 14.9878 3.53076 15.3308 3.53076 15.7527C3.53076 18.7869 5.20166 20.4668 8.25366 20.4668L15.7468 20.4668C18.7898 20.4668 20.4697 18.7957 20.4697 15.7527L20.4697 8.25269C20.4697 5.20972 18.7998 3.52979 15.7468 3.52979L8.25269 3.52979C5.20972 3.52979 3.52979 5.20972 3.52979 8.25269L3.52979 10.5837C3.52979 11.0017 3.19165 11.3398 2.77368 11.3398L2.7627 11.3398C2.34082 11.3398 1.99878 10.9968 1.99976 10.5747L1.99976 8.25269C1.99976 4.39282 4.40967 1.99976 8.25366 1.99976ZM7.52051 10.8037C8.1814 10.8037 8.71851 11.3408 8.71851 11.9998C8.71851 12.6597 8.1814 13.1968 7.52051 13.1968C6.86035 13.1968 6.32251 12.6597 6.32251 11.9998C6.32251 11.3408 6.86035 10.8037 7.52051 10.8037ZM12 10.8037C12.6609 10.8037 13.198 11.3408 13.198 11.9998C13.198 12.6597 12.6609 13.1968 12 13.1968C11.3398 13.1968 10.802 12.6597 10.802 11.9998C10.802 11.3408 11.3398 10.8037 12 10.8037ZM17.677 11.9998C17.677 11.3408 17.1399 10.8037 16.479 10.8037C15.8188 10.8037 15.281 11.3408 15.281 11.9998C15.281 12.6597 15.8188 13.1968 16.479 13.1968C17.1399 13.1968 17.677 12.6597 17.677 11.9998Z" clip-rule="evenodd" fill="#212121" fill-opacity="1.000000" fill-rule="evenodd"/>
	</g>
</svg>
