<svg width="24.000000" height="24.000000" viewBox="0 0 24 24" fill="none" xmlns="http://www.w3.org/2000/svg" xmlns:xlink="http://www.w3.org/1999/xlink">
	<desc>
			Created with Pixso.
	</desc>
	<defs>
		<clipPath id="clip430_6858">
			<rect id="Iconly/Broken/Message" width="24.000000" height="24.000000" fill="white" fill-opacity="0"/>
		</clipPath>
	</defs>
	<rect id="Iconly/Broken/Message" width="24.000000" height="24.000000" fill="#FFFFFF" fill-opacity="0"/>
	<g clip-path="url(#clip430_6858)">
		<path id="Message" d="M22 10.3069C22 10.7007 21.6831 11.0198 21.2922 11.0198L21.2834 11.002C21.0957 11.002 20.9158 10.9268 20.7832 10.7932C20.6504 10.6594 20.5759 10.4783 20.5759 10.2891L20.5759 8.84546C20.552 6.41943 18.6055 4.45874 16.1973 4.43457L7.80273 4.43457C5.39453 4.45874 3.448 6.41943 3.42407 8.84546L3.42407 15.1545C3.448 17.5806 5.39453 19.5413 7.80273 19.5654L16.1973 19.5654C18.6055 19.5413 20.552 17.5806 20.5759 15.1545C20.6165 14.7891 20.9231 14.5127 21.2878 14.5127C21.6528 14.5127 21.9595 14.7891 22 15.1545C21.9902 18.3789 19.3979 20.9902 16.1973 21L7.80273 21C4.6001 20.9951 2.00488 18.3809 2 15.1545L2 8.84546C2 5.61719 4.5979 3 7.80273 3L16.1973 3C19.3979 3.00977 21.9902 5.62109 22 8.84546L22 10.3069ZM16.8518 8.54248L12.7385 11.8574C12.2192 12.2678 11.4888 12.2678 10.9695 11.8574L6.81201 8.54248C6.66724 8.42285 6.48071 8.36694 6.29443 8.38696C6.10815 8.40698 5.93774 8.50171 5.82129 8.64941C5.57788 8.95801 5.625 9.40625 5.92749 9.65649L10.0496 12.9802C11.0955 13.8281 12.5862 13.8281 13.6321 12.9802L17.7454 9.65649C17.894 9.53882 17.9897 9.36621 18.0112 9.17725C18.033 8.98804 17.9785 8.7981 17.8604 8.64941C17.6118 8.34497 17.167 8.29736 16.8606 8.54248L16.8518 8.54248Z" clip-rule="evenodd" fill="#212121" fill-opacity="1.000000" fill-rule="evenodd"/>
	</g>
</svg>
