<svg width="24.000000" height="24.000000" viewBox="0 0 24 24" fill="none" xmlns="http://www.w3.org/2000/svg" xmlns:xlink="http://www.w3.org/1999/xlink">
	<desc>
			Created with Pixso.
	</desc>
	<defs>
		<clipPath id="clip430_6732">
			<rect id="Iconly/Broken/Graph" width="24.000000" height="24.000000" fill="white" fill-opacity="0"/>
		</clipPath>
	</defs>
	<rect id="Iconly/Broken/Graph" width="24.000000" height="24.000000" fill="#FFFFFF" fill-opacity="0"/>
	<g clip-path="url(#clip430_6732)">
		<path id="Graph" d="M21.9888 9.9375C21.3015 5.74414 17.7166 2.62476 13.4419 2.50049C13.0142 2.49048 12.6013 2.65771 12.3025 2.96191C12.0137 3.25952 11.864 3.66406 11.8904 4.07666L12.3286 10.6167C12.397 11.4421 13.0903 12.0781 13.9241 12.0798L14.0293 12.0798L20.6038 11.6443C20.9985 11.6221 21.3679 11.4438 21.6296 11.1494C21.8914 10.855 22.0239 10.4688 21.9976 10.0769L21.9976 9.9375L21.9888 9.9375ZM13.4858 4.08545L13.9241 10.5122L20.4109 10.0854C19.8049 6.71924 16.925 4.22412 13.4858 4.08545ZM16.7993 14.9885C16.9226 14.5713 17.3582 14.3279 17.781 14.4399C17.9885 14.489 18.167 14.6196 18.2761 14.8018C18.385 14.9839 18.4153 15.2019 18.3596 15.4065C17.7644 17.5652 16.3123 19.3911 14.3362 20.4661C11.9114 21.8013 8.97559 21.8459 6.51099 20.585C4.04639 19.324 2.37793 16.9238 2.06396 14.1873C2.01294 13.8677 1.99243 13.5442 2.00244 13.2207C1.99829 9.29932 4.76562 5.91382 8.62964 5.11304C9.06519 5.02637 9.48901 5.30713 9.57617 5.73999C9.66333 6.17285 9.38086 6.59399 8.94507 6.68066C5.82642 7.3396 3.59912 10.0793 3.60669 13.2468C3.59937 13.4944 3.61401 13.7419 3.65039 13.9871C4.03516 17.1497 6.61426 19.6023 9.81152 19.8457C13.0085 20.0891 15.9338 18.0559 16.7993 14.9885Z" clip-rule="evenodd" fill="#212121" fill-opacity="1.000000" fill-rule="evenodd"/>
	</g>
</svg>
