<svg width="24.000000" height="24.000000" viewBox="0 0 24 24" fill="none" xmlns="http://www.w3.org/2000/svg" xmlns:xlink="http://www.w3.org/1999/xlink">
	<desc>
			Created with Pixso.
	</desc>
	<defs>
		<clipPath id="clip430_6739">
			<rect id="Iconly/Broken/Bookmark" width="24.000000" height="24.000000" fill="white" fill-opacity="0"/>
		</clipPath>
	</defs>
	<rect id="Iconly/Broken/Bookmark" width="24.000000" height="24.000000" fill="#FFFFFF" fill-opacity="0"/>
	<g clip-path="url(#clip430_6739)">
		<path id="Bookmark" d="M15.52 2L8.62 2C5.78 2 4 3.98 4 7.17L4 20.32C4 21.24 4.73 22 5.63 22C5.91 21.99 6.18 21.93 6.42 21.79L12.03 18.68L18.56 21.81C18.74 21.89 18.94 21.89 19.12 21.81C19.3 21.74 19.44 21.59 19.51 21.41C19.62 21.08 19.49 20.71 19.19 20.53L12.7 17.42C12.28 17.18 11.76 17.18 11.34 17.42L5.72 20.53C5.65 20.57 5.58 20.57 5.51 20.53C5.45 20.49 5.41 20.42 5.42 20.34L5.42 7.17C5.43 4.81 6.58 3.47 8.65 3.47L15.55 3.47C18.2 3.47 18.59 5.68 18.59 7L18.59 7.6L11.12 7.6C10.93 7.61 10.76 7.69 10.63 7.83C10.5 7.98 10.43 8.16 10.43 8.36C10.44 8.74 10.75 9.06 11.12 9.06L18.56 9.06L18.56 16.79C18.56 17.19 18.88 17.52 19.28 17.52C19.67 17.52 19.99 17.2 20 16.8L20 7C20 3.91 18.29 2 15.52 2Z" fill="#212121" fill-opacity="1.000000" fill-rule="nonzero"/>
	</g>
</svg>
