<svg width="24.000000" height="24.000000" viewBox="0 0 24 24" fill="none" xmlns="http://www.w3.org/2000/svg" xmlns:xlink="http://www.w3.org/1999/xlink">
	<desc>
			Created with Pixso.
	</desc>
	<defs>
		<clipPath id="clip430_7029">
			<rect id="Iconly/Broken/Delete" width="24.000000" height="24.000000" fill="white" fill-opacity="0"/>
		</clipPath>
	</defs>
	<rect id="Iconly/Broken/Delete" width="24.000000" height="24.000000" fill="#FFFFFF" fill-opacity="0"/>
	<g clip-path="url(#clip430_7029)">
		<path id="Delete" d="M9.04614 5.49683L20.2861 5.49683C20.6802 5.49683 21 5.82397 21 6.22803C21 6.63281 20.6802 6.95996 20.2861 6.95996L3.71289 6.95996C3.31885 6.95996 3 6.63281 3 6.22803C3 5.82397 3.31885 5.49683 3.71289 5.49683L6.90723 5.49683C7.33252 5.49683 7.70215 5.18604 7.78516 4.76001L8.02295 3.54004C8.26392 2.61401 9.04419 2 9.93188 2L14.0681 2C14.9558 2 15.7361 2.61401 15.9663 3.4939C16.0686 3.88501 15.8423 4.28589 15.4619 4.39087C15.0825 4.49585 14.6904 4.26392 14.5881 3.87305C14.5247 3.63208 14.311 3.46387 14.0681 3.46387L9.93188 3.46387C9.68896 3.46387 9.47534 3.63208 9.41187 3.87305L9.18457 5.0459C9.15356 5.20386 9.10474 5.35205 9.04614 5.49683ZM6.61279 18.9797C6.71899 19.9668 7.23779 20.4768 8.15479 20.4968C8.54883 20.5046 8.86182 20.8396 8.854 21.2437C8.84521 21.6428 8.52734 21.9597 8.14014 21.9597L8.12549 21.9597C6.50049 21.9248 5.37793 20.8457 5.1936 19.1428C4.88525 16.2969 4.35962 9.58887 4.35474 9.521C4.32251 9.1189 4.61523 8.76587 5.0083 8.73291C5.40137 8.71484 5.74561 9.00195 5.77686 9.40479C5.78174 9.47192 6.3064 16.1567 6.61279 18.9797ZM18.9915 8.73315C18.6033 8.71216 18.2542 9.00122 18.2229 9.4043C18.218 9.47119 17.6895 16.1741 17.3862 18.9751C17.2778 19.9829 16.7522 20.4819 15.7778 20.501C15.6414 20.5034 15.5125 20.5059 15.3904 20.5081C14.1533 20.5303 13.5774 20.5405 12.1953 20.5361L12.1934 20.5361C11.7993 20.5361 11.4805 20.8611 11.4795 21.2639C11.4775 21.6689 11.7964 21.9971 12.1904 21.999C12.4343 22 12.6772 22 12.9209 22C14.2075 22 14.5186 21.9871 15.8042 21.9629C17.4954 21.9319 18.6179 20.875 18.8052 19.135C19.1106 16.314 19.6401 9.58911 19.645 9.52222C19.6772 9.11914 19.3845 8.76611 18.9915 8.73315Z" clip-rule="evenodd" fill="#212121" fill-opacity="1.000000" fill-rule="evenodd"/>
	</g>
</svg>
