<svg width="24.000000" height="24.000000" viewBox="0 0 24 24" fill="none" xmlns="http://www.w3.org/2000/svg" xmlns:xlink="http://www.w3.org/1999/xlink">
	<desc>
			Created with Pixso.
	</desc>
	<defs>
		<clipPath id="clip430_6770">
			<rect id="Iconly/Broken/Heart" width="24.000000" height="24.000000" fill="white" fill-opacity="0"/>
		</clipPath>
	</defs>
	<rect id="Iconly/Broken/Heart" width="24.000000" height="24.000000" fill="#FFFFFF" fill-opacity="0"/>
	<g clip-path="url(#clip430_6770)">
		<path id="Heart" d="M21.2354 5.9939C20.4771 4.45776 19.1348 3.30469 17.5205 2.80273C15.6648 2.21875 13.6511 2.48779 12.0059 3.53979C10.3606 2.48779 8.34717 2.21875 6.49121 2.80273C4.87695 3.30469 3.53467 4.45776 2.77637 5.9939C1.89014 7.84448 1.75708 9.97656 2.40576 11.9265C3.02197 13.7275 4.04004 15.3584 5.37939 16.6909C7.20068 18.4722 9.20996 20.043 11.3706 21.374C11.4902 21.457 11.6318 21.5007 11.7764 21.5C12.0974 21.4927 12.3772 21.2756 12.4697 20.9624C12.5623 20.6492 12.446 20.311 12.1824 20.1248C10.1084 18.8464 8.17896 17.3391 6.42944 15.6301C5.24536 14.4646 4.3396 13.0376 3.78223 11.4592C3.25366 9.88965 3.35522 8.17065 4.0647 6.677C4.65674 5.49878 5.69604 4.61865 6.94116 4.24097C8.5188 3.73682 10.2383 4.04175 11.5559 5.05908C11.8179 5.25684 12.1763 5.25684 12.4382 5.05908C13.7566 4.04297 15.4753 3.73828 17.053 4.24097C18.2898 4.6272 19.3188 5.51001 19.9031 6.68604C20.6289 8.18091 20.7368 9.90967 20.2029 11.4861C19.6479 13.0684 18.7422 14.4988 17.5559 15.666C16.7322 16.5088 15.8474 17.2871 14.9089 17.9941C14.7473 18.1067 14.6372 18.281 14.604 18.4775C14.5708 18.6741 14.6172 18.8757 14.7324 19.0369C14.959 19.3706 15.406 19.4585 15.7383 19.2346L15.7913 19.1897C16.7915 18.4419 17.7327 17.6155 18.606 16.7178C19.938 15.3809 20.9521 13.7512 21.5706 11.9536C22.2427 10.0007 22.1221 7.85547 21.2354 5.9939ZM16.7971 9.68823C16.7603 8.85767 16.2173 8.13916 15.4382 7.89062C15.1487 7.7063 15.02 7.34448 15.1267 7.01392C15.2334 6.68359 15.5479 6.47021 15.8882 6.49731C17.2039 6.92041 18.1404 8.1084 18.2617 9.50854C18.2866 9.70435 18.2334 9.9021 18.114 10.0576C17.9946 10.2129 17.8191 10.313 17.6265 10.3354C17.2224 10.3887 16.8521 10.0996 16.7971 9.68823Z" clip-rule="evenodd" fill="#212121" fill-opacity="1.000000" fill-rule="evenodd"/>
	</g>
</svg>
