<svg width="24.000000" height="24.000000" viewBox="0 0 24 24" fill="none" xmlns="http://www.w3.org/2000/svg" xmlns:xlink="http://www.w3.org/1999/xlink">
	<desc>
			Created with Pixso.
	</desc>
	<defs>
		<clipPath id="clip430_7177">
			<rect id="Iconly/Broken/Filter 3" width="24.000000" height="24.000000" fill="white" fill-opacity="0"/>
		</clipPath>
	</defs>
	<rect id="Iconly/Broken/Filter 3" width="24.000000" height="24.000000" fill="#FFFFFF" fill-opacity="0"/>
	<g clip-path="url(#clip430_7177)">
		<path id="Filter 2" d="M9.75171 17.9631C9.36816 17.9631 9.05688 17.6389 9.05688 17.2407L9.05688 13.9412L3.51758 7.78369C3.18359 7.41162 3 6.92822 3 6.41943L3 4.99512C3 3.89502 3.85938 3 4.91602 3L7.69604 3C8.07959 3 8.39087 3.3252 8.39087 3.72437C8.39087 4.12354 8.07959 4.44775 7.69604 4.44775L4.91602 4.44775C4.62622 4.44775 4.38965 4.69434 4.38965 4.99512L4.38965 6.41943C4.38965 6.55811 4.44092 6.69214 4.53174 6.79321L10.2583 13.1606C10.3799 13.2957 10.4465 13.4717 10.4465 13.6555L10.4465 17.2407C10.4465 17.6389 10.135 17.9631 9.75171 17.9631ZM9.20044 20.5864C9.31812 20.8469 9.56934 21 9.8313 21C9.9292 21 10.0293 20.9788 10.1238 20.9333L14.0125 19.0698C14.2563 18.9531 14.4138 18.7009 14.4138 18.4219L14.4138 13.8413L20.4248 7.76074C20.7903 7.39258 21 6.87891 21 6.35254L21 4.97388C21 3.8855 20.1396 3.00024 19.083 3.00024L11.0742 3.00024C10.6907 3.00024 10.3794 3.32178 10.3794 3.71582C10.3794 4.11182 10.6907 4.43237 11.0742 4.43237L19.083 4.43237C19.3738 4.43237 19.6096 4.67627 19.6096 4.97388L19.6096 6.35254C19.6096 6.49609 19.5527 6.63696 19.4521 6.73804L13.2322 13.031C13.0991 13.1653 13.0234 13.3499 13.0234 13.5417L13.0234 17.9648L9.53784 19.6345C9.18945 19.8013 9.03931 20.2268 9.20044 20.5864Z" clip-rule="evenodd" fill="#212121" fill-opacity="1.000000" fill-rule="evenodd"/>
	</g>
</svg>
