<svg width="24.000000" height="24.000000" viewBox="0 0 24 24" fill="none" xmlns="http://www.w3.org/2000/svg" xmlns:xlink="http://www.w3.org/1999/xlink">
	<desc>
			Created with Pixso.
	</desc>
	<defs>
		<clipPath id="clip430_6758">
			<rect id="Iconly/Broken/Notification" width="24.000000" height="24.000000" fill="white" fill-opacity="0"/>
		</clipPath>
	</defs>
	<rect id="Iconly/Broken/Notification" width="24.000000" height="24.000000" fill="#FFFFFF" fill-opacity="0"/>
	<g clip-path="url(#clip430_6758)">
		<path id="Notification" d="M20.5 13.3594C20.4646 12.6284 20.2317 11.9204 19.8257 11.3093C19.8049 11.2749 19.7812 11.2427 19.7546 11.2124C19.3071 10.7141 19.0007 10.1069 18.8674 9.45264L18.8674 7.64014C18.4773 4.16455 15.0349 2 11.9651 2C10.7397 2.00806 9.53662 2.32617 8.46948 2.92383C8.22266 3.05127 8.06543 3.30176 8.05884 3.57739C8.05249 3.85327 8.19775 4.11084 8.43823 4.24951C8.67896 4.38818 8.97632 4.38599 9.21484 4.24365C10.0759 3.7627 11.0479 3.51123 12.0361 3.51343C14.3606 3.51343 17.031 5.15894 17.2883 7.81616L17.2883 9.63745C17.2849 9.66968 17.2849 9.70215 17.2883 9.73438C17.4934 10.6492 17.9407 11.4934 18.5837 12.1804C18.8157 12.5613 18.947 12.9941 18.9651 13.4387L18.9651 13.6411C18.9819 14.2434 18.7839 14.8323 18.4062 15.304C17.8506 15.8933 17.0959 16.2598 16.2859 16.3335C13.4314 16.6414 10.552 16.6414 7.69775 16.3335C6.90918 16.262 6.17236 15.9124 5.62158 15.3479C5.22437 14.8647 5.01636 14.2554 5.03613 13.6323L5.03613 13.4387C5.0542 12.9956 5.18872 12.5647 5.42651 12.1892C6.0437 11.4944 6.46606 10.6509 6.65088 9.74316C6.6543 9.71094 6.6543 9.67847 6.65088 9.64624L6.65088 7.83374C6.59717 7.49634 6.32227 7.23657 5.97998 7.19946C5.6377 7.1626 5.31274 7.35742 5.18701 7.67529L5.18701 9.48779C5.05005 10.1409 4.74438 10.7473 4.2998 11.2478L4.22876 11.3357C3.80127 11.9597 3.55005 12.6858 3.50122 13.4387L3.50122 13.5618C3.47681 14.5603 3.82056 15.5334 4.46826 16.2983C5.26562 17.1687 6.35864 17.717 7.53809 17.8381C10.4863 18.1616 13.4617 18.1616 16.4099 17.8381C17.6069 17.7246 18.7192 17.1763 19.533 16.2983C20.1702 15.5222 20.5039 14.5444 20.4734 13.5442L20.5 13.3594ZM12.2515 20.4307C12.7729 20.353 13.2415 20.0723 13.5532 19.6506L13.562 19.6506C13.8315 19.3276 14.3142 19.2822 14.6401 19.5496C14.9658 19.8167 15.0115 20.2954 14.7419 20.6187C14.0776 21.4802 13.0498 21.9897 11.9563 22C10.8657 21.9871 9.8418 21.4778 9.1792 20.6187C8.90991 20.2954 8.95557 19.8167 9.28125 19.5496C9.60718 19.2822 10.0898 19.3276 10.3594 19.6506C10.4775 19.8076 10.6182 19.9468 10.7764 20.0642C11.1992 20.3765 11.7302 20.5083 12.2515 20.4307Z" clip-rule="evenodd" fill="#212121" fill-opacity="1.000000" fill-rule="evenodd"/>
	</g>
</svg>
