<svg width="24.000000" height="24.000000" viewBox="0 0 24 24" fill="none" xmlns="http://www.w3.org/2000/svg" xmlns:xlink="http://www.w3.org/1999/xlink">
	<desc>
			Created with Pixso.
	</desc>
	<defs>
		<clipPath id="clip430_6708">
			<rect id="Iconly/Broken/Arrow - Left 3" width="24.000000" height="24.000000" fill="white" fill-opacity="0"/>
		</clipPath>
	</defs>
	<rect id="Iconly/Broken/Arrow - Left 3" width="24.000000" height="24.000000" fill="#FFFFFF" fill-opacity="0"/>
	<g clip-path="url(#clip430_6708)">
		<rect id="Iconly/Broken/Arrow - Left 3" width="24.000000" height="24.000000" fill="#FFFFFF" fill-opacity="0"/>
		<path id="Arrow - Left 3" d="M12.23 16.78L12.23 12.71L20.26 12.71C20.67 12.71 21 12.39 21 12C21 11.6 20.67 11.28 20.26 11.28L12.23 11.28L12.23 7.21C12.23 6.95 12.09 6.71 11.85 6.58C11.62 6.46 11.33 6.47 11.11 6.61L3.34 11.39C3.12 11.52 3 11.75 3 12C3 12.24 3.12 12.47 3.34 12.6L8.17 15.58C8.52 15.79 8.97 15.69 9.19 15.35C9.4 15.02 9.3 14.58 8.95 14.36L5.11 12L10.77 8.51L10.77 16.78C10.77 17.17 11.09 17.5 11.5 17.5C11.9 17.5 12.23 17.17 12.23 16.78Z" fill="#212121" fill-opacity="1.000000" fill-rule="nonzero"/>
	</g>
</svg>
