<svg width="24.000000" height="24.000000" viewBox="0 0 24 24" fill="none" xmlns="http://www.w3.org/2000/svg" xmlns:xlink="http://www.w3.org/1999/xlink">
	<desc>
			Created with Pixso.
	</desc>
	<defs>
		<clipPath id="clip430_7022">
			<rect id="Iconly/Broken/Download" width="24.000000" height="24.000000" fill="white" fill-opacity="0"/>
		</clipPath>
	</defs>
	<rect id="Iconly/Broken/Download" width="24.000000" height="24.000000" fill="#FFFFFF" fill-opacity="0"/>
	<g clip-path="url(#clip430_7022)">
		<path id="Download" d="M9.63672 11.7732C9.33691 11.4736 8.84985 11.4727 8.54785 11.7712C8.39673 11.9204 8.32178 12.1177 8.32178 12.3135C8.32178 12.5095 8.39673 12.7056 8.5459 12.855L11.4539 15.7625C11.6738 15.9814 12.0059 16.0481 12.2937 15.9297C12.5828 15.8113 12.7708 15.5317 12.7708 15.2212L12.7708 3.26611C12.7708 2.84326 12.4248 2.5 11.9998 2.5C11.5747 2.5 11.2297 2.84326 11.2297 3.26611L11.2297 13.3655L9.63672 11.7732ZM22 11.8208L22 16.8875C22 19.4302 20.01 21.5 17.563 21.5L9.94922 21.5C9.52417 21.5 9.18018 21.1404 9.18018 20.6995C9.18018 20.2566 9.52417 19.8979 9.94922 19.8979L17.563 19.8979C19.1599 19.8979 20.46 18.5476 20.46 16.8875L20.46 11.8208C20.46 10.1543 19.156 8.79883 17.553 8.79883L16.6221 8.79883C16.197 8.79883 15.853 8.44116 15.853 7.99829C15.853 7.55664 16.197 7.198 16.6221 7.198L17.553 7.198C20.0051 7.198 22 9.27173 22 11.8208ZM7.21704 20.699C7.21704 20.2573 6.87207 19.8987 6.44702 19.8987C4.84399 19.8987 3.54004 18.543 3.54004 16.8767L3.54004 11.8098C3.54004 10.1506 4.84009 8.79932 6.43701 8.79932L7.37793 8.79932C7.80298 8.79932 8.14795 8.44067 8.14795 7.99878C8.14795 7.55713 7.80298 7.19849 7.37793 7.19849L6.43701 7.19849C3.98999 7.19849 2 9.26709 2 11.8098L2 16.8767C2 19.4255 3.99487 21.4995 6.44702 21.4995C6.87207 21.4995 7.21704 21.1409 7.21704 20.699ZM13.6401 13.5911C13.4873 13.4419 13.4111 13.2449 13.4111 13.0469C13.4111 12.8528 13.4851 12.6577 13.6343 12.5073L14.3611 11.7751C14.6602 11.4746 15.1472 11.4714 15.4502 11.769C15.7532 12.0657 15.7551 12.5503 15.4561 12.8528L14.7283 13.5862C14.4302 13.8867 13.9421 13.8896 13.6401 13.5911Z" clip-rule="evenodd" fill="#212121" fill-opacity="1.000000" fill-rule="evenodd"/>
	</g>
</svg>
