<svg width="24.000000" height="24.000000" viewBox="0 0 24 24" fill="none" xmlns="http://www.w3.org/2000/svg" xmlns:xlink="http://www.w3.org/1999/xlink">
	<desc>
			Created with Pixso.
	</desc>
	<defs>
		<clipPath id="clip430_7091">
			<rect id="Iconly/Broken/3 User" width="24.000000" height="24.000000" fill="white" fill-opacity="0"/>
		</clipPath>
	</defs>
	<rect id="Iconly/Broken/3 User" width="24.000000" height="24.000000" fill="#FFFFFF" fill-opacity="0"/>
	<g clip-path="url(#clip430_7091)">
		<path id="3 User" d="M8.81665 8.09277C8.81665 8.47705 8.50635 8.78882 8.12427 8.78882C7.74194 8.78882 7.43188 8.47705 7.43188 8.09277C7.43188 5.55957 9.4812 3.5 12.0005 3.5C14.5188 3.5 16.5681 5.55957 16.5681 8.09277C16.5681 10.6257 14.5188 12.6855 12.0005 12.6855C10.9692 12.6855 9.99731 12.3523 9.19043 11.7212C8.88867 11.4854 8.83423 11.0481 9.0686 10.7446C9.30225 10.4402 9.73877 10.3862 10.0408 10.623C10.6021 11.061 11.2795 11.2932 12.0005 11.2932C13.7563 11.2932 15.1836 9.85718 15.1836 8.09277C15.1836 6.32812 13.7563 4.89233 12.0005 4.89233C10.2446 4.89233 8.81665 6.32812 8.81665 8.09277ZM6.32837 11.6814C6.71045 11.6814 7.02075 11.3694 7.02075 10.9851C7.02075 10.6008 6.71045 10.2891 6.32837 10.2891C5.09863 10.2891 4.09814 9.28369 4.09814 8.04736C4.09814 6.81104 5.09863 5.80493 6.32837 5.80493C6.71045 5.80493 7.02075 5.49292 7.02075 5.10864C7.02075 4.72437 6.71045 4.4126 6.32837 4.4126C4.33521 4.4126 2.71338 6.04346 2.71338 8.04736C2.71338 10.0515 4.33521 11.6814 6.32837 11.6814ZM17.6833 10.3118C17.301 10.3118 16.991 10.6235 16.991 11.0078C16.991 11.3921 17.301 11.7041 17.6833 11.7041C19.6716 11.7041 21.29 10.0769 21.29 8.07764C21.29 6.07715 19.6716 4.45093 17.6833 4.45093C17.301 4.45093 16.991 4.76196 16.991 5.14722C16.991 5.53149 17.301 5.84326 17.6833 5.84326C18.9082 5.84326 19.9053 6.8457 19.9053 8.07764C19.9053 9.30933 18.9082 10.3118 17.6833 10.3118ZM5.03125 14.8721C4.58618 14.9019 4.1394 14.9675 3.70264 15.0659C3.03247 15.1987 2.57178 15.4253 2.45288 15.6758C2.36328 15.8662 2.36328 16.0862 2.45288 16.2764C2.51001 16.3962 2.74268 16.6941 3.69067 16.8899C4.06543 16.967 4.3064 17.3345 4.22974 17.7114C4.16333 18.041 3.87451 18.2673 3.55225 18.2673C3.5061 18.2673 3.45996 18.2627 3.41284 18.2534C2.26733 18.0178 1.52417 17.5537 1.20288 16.8743C0.932373 16.3032 0.932373 15.6489 1.20288 15.0781C1.52783 14.3921 2.27271 13.929 3.41748 13.7024C3.90576 13.593 4.42383 13.5178 4.93799 13.4834C5.30713 13.4546 5.64966 13.7471 5.67554 14.1304C5.70142 14.5146 5.41333 14.8469 5.03125 14.8721ZM20.6028 13.7195C21.73 13.9441 22.4731 14.4055 22.7971 15.0876C23.0676 15.6587 23.0676 16.312 22.7971 16.8828C22.4768 17.5596 21.7356 18.0227 20.5918 18.2595C20.5457 18.2695 20.4985 18.2742 20.4514 18.2742C20.1301 18.2742 19.842 18.0469 19.7747 17.7183C19.6982 17.3413 19.939 16.9729 20.314 16.896C21.2583 16.7 21.491 16.4031 21.5471 16.2842C21.6367 16.095 21.6367 15.8767 21.5471 15.6873C21.429 15.4377 20.9702 15.2122 20.3186 15.0823C19.8652 14.9819 19.4185 14.916 18.9771 14.8862C18.595 14.8613 18.3069 14.5281 18.3328 14.1448C18.3577 13.7615 18.6909 13.4773 19.0696 13.4978C19.5818 13.532 20.0969 13.6072 20.6028 13.7195ZM12.0002 14.126C10.333 14.126 5.26025 14.126 5.26025 17.3218C5.26025 18.043 5.54272 19.0417 6.88867 19.7056C7.30225 19.9077 7.80273 20.073 8.37695 20.1965C8.74902 20.28 9.11816 20.0369 9.19751 19.6609C9.27783 19.2849 9.03882 18.9146 8.66479 18.8347C8.20142 18.7356 7.80835 18.6074 7.49805 18.4543C6.74194 18.082 6.64502 17.6541 6.64502 17.3218C6.64502 15.8311 9.55762 15.5183 12.0002 15.5183C15.5544 15.5183 17.3555 16.1189 17.3555 17.3052C17.3555 18.7949 14.4429 19.1077 12.0002 19.1077C11.6182 19.1077 11.3079 19.4197 11.3079 19.804C11.3079 20.1882 11.6182 20.5 12.0002 20.5C13.6675 20.5 18.74 20.5 18.74 17.3052C18.74 14.126 13.8438 14.126 12.0002 14.126Z" clip-rule="evenodd" fill="#212121" fill-opacity="1.000000" fill-rule="evenodd"/>
	</g>
</svg>
