<svg width="24.000000" height="24.000000" viewBox="0 0 24 24" fill="none" xmlns="http://www.w3.org/2000/svg" xmlns:xlink="http://www.w3.org/1999/xlink">
	<desc>
			Created with Pixso.
	</desc>
	<defs>
		<clipPath id="clip430_7100">
			<rect id="Iconly/Broken/Upload" width="24.000000" height="24.000000" fill="white" fill-opacity="0"/>
		</clipPath>
	</defs>
	<rect id="Iconly/Broken/Upload" width="24.000000" height="24.000000" fill="#FFFFFF" fill-opacity="0"/>
	<g clip-path="url(#clip430_7100)">
		<path id="Upload" d="M11.7209 2.05664C11.4463 2.17261 11.2678 2.44629 11.2678 2.75024L11.2678 14.4509C11.2678 14.8647 11.5964 15.2019 12.0002 15.2019C12.4041 15.2019 12.7317 14.8647 12.7317 14.4509L12.7317 4.56543L14.2461 6.12476C14.531 6.41895 14.9937 6.41895 15.2808 6.12671C15.4241 5.98071 15.4963 5.78784 15.4963 5.59595C15.4963 5.40405 15.4241 5.21313 15.2825 5.06616L12.5188 2.22021C12.3098 2.0061 11.9944 1.94092 11.7209 2.05664ZM10.6606 4.87817C10.6606 5.06909 10.5896 5.26001 10.449 5.40601L9.75635 6.12378C9.47217 6.41797 9.00854 6.41992 8.72266 6.12866C8.43384 5.83643 8.43188 5.36328 8.71704 5.06812L9.40869 4.35132C9.6936 4.05615 10.1562 4.0542 10.4431 4.34546C10.5876 4.49243 10.6606 4.6853 10.6606 4.87817ZM13.949 20.5C14.3528 20.5 14.6804 20.8359 14.6804 21.25C14.6804 21.6638 14.3528 21.9998 13.949 21.9998L6.71436 21.9998C4.39062 21.9998 2.5 20.0618 2.5 17.6785L2.5 12.9326C2.5 10.5444 4.39526 8.60156 6.72485 8.60156L7.60938 8.60156C8.01221 8.60156 8.33984 8.9375 8.33984 9.35132C8.33984 9.76538 8.01221 10.1013 7.60938 10.1013L6.72485 10.1013C5.20093 10.1013 3.96313 11.3713 3.96313 12.9326L3.96313 17.6785C3.96313 19.2349 5.198 20.5 6.71436 20.5L13.949 20.5ZM15.6602 9.35156C15.6602 9.76562 15.9878 10.1016 16.3916 10.1016L17.2856 10.1016C18.8027 10.1016 20.0369 11.3667 20.0369 12.9231L20.0369 17.6699C20.0369 19.2302 18.7991 20.5002 17.2751 20.5002C16.8713 20.5002 16.5447 20.8362 16.5447 21.25C16.5447 21.6641 16.8713 22 17.2751 22C19.6047 22 21.5 20.0571 21.5 17.6699L21.5 12.9231C21.5 10.5398 19.6094 8.60181 17.2856 8.60181L16.3916 8.60181C15.9878 8.60181 15.6602 8.93774 15.6602 9.35156Z" clip-rule="evenodd" fill="#212121" fill-opacity="1.000000" fill-rule="evenodd"/>
	</g>
</svg>
