<svg width="24.000000" height="24.000000" viewBox="0 0 24 24" fill="none" xmlns="http://www.w3.org/2000/svg" xmlns:xlink="http://www.w3.org/1999/xlink">
	<desc>
			Created with Pixso.
	</desc>
	<defs>
		<clipPath id="clip430_6968">
			<rect id="Iconly/Broken/Discovery" width="24.000000" height="24.000000" fill="white" fill-opacity="0"/>
		</clipPath>
	</defs>
	<rect id="Iconly/Broken/Discovery" width="24.000000" height="24.000000" fill="#FFFFFF" fill-opacity="0"/>
	<g clip-path="url(#clip430_6968)">
		<path id="Discovery" d="M2.2417 9.81738C3.2627 5.24585 7.31714 1.99658 11.9961 2C12.7278 1.99902 13.4575 2.08154 14.1707 2.24585C16.769 2.81787 19.0312 4.40576 20.4541 6.65625C21.877 8.90698 22.3425 11.6335 21.7471 14.2295C21.6951 14.5176 21.4868 14.7524 21.2075 14.8381C20.928 14.9236 20.6243 14.8459 20.4202 14.6365C20.2161 14.4268 20.146 14.1208 20.2388 13.8433C21.1746 9.65894 18.8162 5.4397 14.7646 4.04932C10.7131 2.65918 6.26562 4.54321 4.44116 8.42261C2.61646 12.302 3.99902 16.9346 7.65015 19.1758C11.3015 21.4172 16.0522 20.5496 18.678 17.1619C18.96 16.9004 19.3901 16.8835 19.6919 17.1221C19.9934 17.3606 20.0767 17.7834 19.8879 18.1189C17.0247 21.824 11.9761 23.0422 7.74121 21.05C3.50635 19.0579 1.2207 14.3892 2.2417 9.81738ZM12.4346 13.4131C12.0908 13.6204 11.9602 14.0547 12.1323 14.4177C12.3044 14.7805 12.7234 14.9536 13.1008 14.8179L13.9778 14.3789C14.1675 14.2844 14.3103 14.1162 14.3723 13.9136L15.9331 9.02344C15.9961 8.82788 15.9775 8.61523 15.8818 8.43359C15.7861 8.25171 15.6213 8.11646 15.4246 8.05762C15.2773 8.00488 15.116 8.00488 14.9688 8.05762L10.0933 9.58545C9.85303 9.6604 9.66357 9.84668 9.58472 10.0857L8.05884 14.967C7.99585 15.1638 8.01416 15.3777 8.10962 15.5608C8.20532 15.7439 8.37012 15.8811 8.56738 15.9417C8.97412 16.0674 9.40576 15.8394 9.53198 15.4324L10.9351 10.946L14.0042 9.98047L13.022 13.1233L12.4346 13.4131Z" clip-rule="evenodd" fill="#212121" fill-opacity="1.000000" fill-rule="evenodd"/>
	</g>
</svg>
