<svg width="24.000000" height="24.000000" viewBox="0 0 24 24" fill="none" xmlns="http://www.w3.org/2000/svg" xmlns:xlink="http://www.w3.org/1999/xlink">
	<desc>
			Created with Pixso.
	</desc>
	<defs>
		<clipPath id="clip430_7139">
			<rect id="Iconly/Broken/Call Missed" width="24.000000" height="24.000000" fill="white" fill-opacity="0"/>
		</clipPath>
	</defs>
	<rect id="Iconly/Broken/Call Missed" width="24.000000" height="24.000000" fill="#FFFFFF" fill-opacity="0"/>
	<g clip-path="url(#clip430_7139)">
		<path id="Call Missed" d="M3.87012 5.44849C3.35522 6.15601 3.39136 7.06274 3.94409 8.2771C4.11523 8.65381 3.94922 9.09766 3.57227 9.26953C3.19629 9.44263 2.75024 9.27466 2.57935 8.89771C1.79224 7.17065 1.80737 5.73022 2.62329 4.61768C2.92725 4.10889 4.83813 1.89404 6.479 2.00391C6.99512 2.04688 7.46704 2.28687 7.90991 2.71851C8.38086 3.17749 10.3638 5.5874 10.5227 6.35303C10.6936 7.17285 10.3254 7.81323 10.0564 8.28076L10.0559 8.28198C9.79077 8.74292 9.69873 8.9397 9.78979 9.18872C10.4587 10.8259 11.4927 12.1624 12.8525 13.1328C13.1897 13.3748 13.2676 13.8416 13.0266 14.1794C12.8806 14.3833 12.6506 14.4932 12.4167 14.4932C12.2656 14.4932 12.1128 14.4482 11.9807 14.3533C10.3867 13.2139 9.17896 11.6584 8.38989 9.72754C8.04297 8.77295 8.45483 8.05713 8.75586 7.53442C8.98193 7.14258 9.10693 6.90869 9.05396 6.65894C8.91382 6.2981 7.45093 4.36597 6.86206 3.79224C6.67993 3.61426 6.50903 3.50928 6.38208 3.49927C5.66602 3.45239 4.20215 4.89771 3.87012 5.44849ZM20.7463 4.31348L19.3103 5.74902L21.7803 8.21777C22.0732 8.51074 22.0732 8.98438 21.7803 9.27734C21.6333 9.42432 21.4414 9.49731 21.2493 9.49731C21.0583 9.49731 20.8662 9.42432 20.7192 9.27734L18.2495 6.80957L15.7808 9.27734C15.6335 9.42432 15.4417 9.49731 15.2498 9.49731C15.0586 9.49731 14.8667 9.42432 14.7197 9.27734C14.4268 8.98438 14.4268 8.51074 14.7197 8.21777L17.1895 5.74902L14.7197 3.28003C14.4268 2.9873 14.4268 2.51343 14.7197 2.22046C15.0127 1.92773 15.4875 1.92773 15.7808 2.22046L18.2495 4.68848L20.2034 2.73633L20.2043 2.73535L20.7192 2.22046C21.0122 1.92773 21.4873 1.92773 21.7803 2.22046C22.0732 2.51343 22.0732 2.9873 21.7803 3.28003L20.7473 4.3125C20.7473 4.31348 20.7463 4.31348 20.7463 4.31348ZM17.6465 13.4739C16.6726 13.2739 15.9036 13.7527 15.3435 14.1045L15.1106 14.2485C14.7556 14.4614 14.6406 14.9221 14.8545 15.2781C15.0676 15.6318 15.5276 15.7458 15.8835 15.5339L16.1416 15.373C16.6475 15.0562 16.9814 14.8643 17.2974 14.9302C17.7004 15.0823 19.6333 16.5435 20.2092 17.1333C20.3872 17.3152 20.4912 17.4861 20.5002 17.5769C20.5273 18.3506 19.0293 19.8369 18.5034 20.1567C17.8274 20.6406 16.9194 20.6057 15.6985 20.0398C12.6829 18.7854 7.94312 14.5444 5.34912 10.7791C5.11426 10.4363 4.64722 10.3533 4.3064 10.5852C3.96533 10.821 3.87939 11.2869 4.11426 11.6277C6.89111 15.6609 11.8289 20.0549 15.0945 21.4124C15.9436 21.8062 16.7275 22 17.4333 22C18.1423 22 18.7734 21.8042 19.3123 21.4153C19.5942 21.2544 22.0623 19.3291 21.9971 17.489C21.9561 16.9993 21.7151 16.5276 21.2822 16.0847C20.8213 15.615 18.4124 13.6328 17.6465 13.4739Z" clip-rule="evenodd" fill="#212121" fill-opacity="1.000000" fill-rule="evenodd"/>
	</g>
</svg>
