<svg width="24.000000" height="24.000000" viewBox="0 0 24 24" fill="none" xmlns="http://www.w3.org/2000/svg" xmlns:xlink="http://www.w3.org/1999/xlink">
	<desc>
			Created with Pixso.
	</desc>
	<defs>
		<clipPath id="clip430_7009">
			<rect id="Iconly/Broken/Camera" width="24.000000" height="24.000000" fill="white" fill-opacity="0"/>
		</clipPath>
	</defs>
	<rect id="Iconly/Broken/Camera" width="24.000000" height="24.000000" fill="#FFFFFF" fill-opacity="0"/>
	<g clip-path="url(#clip430_7009)">
		<path id="Camera" d="M17.4099 6.15869C17.481 6.30762 17.5559 6.35547 17.6379 6.35547C20.043 6.35547 22 8.3103 22 10.7129L22 16.6426C22 19.0452 20.043 21 17.6379 21L10.5801 21C10.166 21 9.83008 20.6643 9.83008 20.2507C9.83008 19.8372 10.166 19.5015 10.5801 19.5015L17.6379 19.5015C19.2161 19.5015 20.5 18.219 20.5 16.6426L20.5 10.7129C20.5 9.13647 19.2161 7.85376 17.6379 7.85376C16.979 7.85376 16.3711 7.46924 16.0901 6.875C15.7759 6.20972 15.4351 5.48926 15.231 5.08569C15.0259 4.68311 14.752 4.50146 14.342 4.49854L9.65308 4.49854C9.24902 4.50146 8.97412 4.68311 8.76904 5.08691C8.57104 5.47729 8.24292 6.17065 7.96997 6.75L7.91089 6.875C7.62988 7.46924 7.02197 7.85376 6.36304 7.85376C4.78394 7.85376 3.5 9.13647 3.5 10.7129L3.5 16.6426C3.5 18.219 4.78394 19.5015 6.36304 19.5015L7.10791 19.5015C7.52197 19.5015 7.85791 19.8372 7.85791 20.2507C7.85791 20.6643 7.52197 21 7.10791 21L6.36304 21C3.95703 21 2 19.0452 2 16.6426L2 10.7129C2 8.3103 3.95703 6.35547 6.36304 6.35547C6.44604 6.35547 6.52002 6.30859 6.55493 6.23462L6.61401 6.1106C6.89307 5.51831 7.22803 4.80908 7.43091 4.40942C7.88892 3.50757 8.67603 3.00708 9.646 3L14.3479 3C15.325 3.00708 16.1111 3.50757 16.5691 4.40845C16.7781 4.82007 17.126 5.5564 17.4099 6.15869ZM12.0007 17.2542C13.0518 17.2542 14.0417 16.8406 14.7888 16.0894C15.5317 15.342 15.9377 14.3591 15.9287 13.3271C15.9297 12.2803 15.5198 11.2922 14.7749 10.5481C14.0308 9.80493 13.0459 9.39624 12.0007 9.39624L11.9988 9.39624C11.7107 9.39624 11.4229 9.42725 11.1438 9.49121C10.7397 9.58008 10.4849 9.98169 10.5757 10.3853C10.6658 10.7878 11.0659 11.0457 11.4707 10.9517C11.6438 10.9138 11.8208 10.8948 11.9998 10.8948L12.0007 10.8948C12.6458 10.8948 13.2539 11.1484 13.7139 11.6079C14.1758 12.0696 14.4297 12.679 14.4287 13.3323C14.4338 13.9675 14.1838 14.5708 13.7249 15.0334C13.2617 15.499 12.6487 15.7556 12.0007 15.7556L11.9988 15.7556C11.3508 15.7546 10.7417 15.501 10.2827 15.0403C9.82275 14.5798 9.5708 13.9695 9.57178 13.3203C9.57178 13.0715 9.61084 12.8247 9.68677 12.5879C9.81177 12.1943 9.59375 11.7729 9.19873 11.647C8.80176 11.5232 8.38184 11.7388 8.25684 12.1335C8.13477 12.5181 8.07178 12.9155 8.07178 13.3191C8.06982 14.3662 8.47778 15.354 9.21973 16.0984C9.96191 16.8425 10.9478 17.2532 11.9968 17.2542L12.0007 17.2542ZM17.98 10.7522C17.9102 10.822 17.8301 10.8821 17.74 10.9219C17.6501 10.9619 17.55 10.9729 17.4502 10.9729C17.26 10.9729 17.0701 10.9019 16.9202 10.7522C16.78 10.6123 16.7002 10.4224 16.7002 10.2236C16.7002 10.1328 16.7202 10.033 16.76 9.94409C16.8 9.854 16.8601 9.76416 16.9202 9.69434C16.99 9.6333 17.0801 9.57324 17.1702 9.53345C17.3501 9.46338 17.5601 9.46338 17.74 9.53345C17.8301 9.57324 17.9202 9.6333 17.98 9.69434C18.05 9.76416 18.1101 9.854 18.1501 9.94409C18.1902 10.033 18.2102 10.1328 18.2102 10.2236C18.2102 10.4224 18.1301 10.6123 17.98 10.7522Z" clip-rule="evenodd" fill="#212121" fill-opacity="1.000000" fill-rule="evenodd"/>
	</g>
</svg>
