<svg width="24.000000" height="24.000000" viewBox="0 0 24 24" fill="none" xmlns="http://www.w3.org/2000/svg" xmlns:xlink="http://www.w3.org/1999/xlink">
	<desc>
			Created with Pixso.
	</desc>
	<defs>
		<clipPath id="clip430_6688">
			<rect id="Iconly/Broken/Arrow - Right 3" width="24.000000" height="24.000000" fill="white" fill-opacity="0"/>
		</clipPath>
	</defs>
	<rect id="Iconly/Broken/Arrow - Right 3" width="24.000000" height="24.000000" fill="#FFFFFF" fill-opacity="0"/>
	<g clip-path="url(#clip430_6688)">
		<rect id="Iconly/Broken/Arrow - Right 3" width="24.000000" height="24.000000" fill="#FFFFFF" fill-opacity="0"/>
		<path id="Arrow - Right 3" d="M11.76 7.21L11.76 11.28L3.73 11.28C3.32 11.28 3 11.6 3 12C3 12.39 3.32 12.71 3.73 12.71L11.76 12.71L11.76 16.78C11.76 17.04 11.9 17.28 12.14 17.41C12.37 17.53 12.66 17.52 12.88 17.38L20.65 12.6C20.87 12.47 21 12.24 21 12C21 11.75 20.87 11.52 20.65 11.39L15.82 8.41C15.47 8.2 15.02 8.3 14.8 8.64C14.59 8.97 14.69 9.41 15.04 9.63L18.88 12L13.23 15.48L13.23 7.21C13.23 6.82 12.9 6.5 12.49 6.5C12.09 6.5 11.76 6.82 11.76 7.21Z" fill="#212121" fill-opacity="1.000000" fill-rule="nonzero"/>
	</g>
</svg>
