<svg width="24.000000" height="24.000000" viewBox="0 0 24 24" fill="none" xmlns="http://www.w3.org/2000/svg" xmlns:xlink="http://www.w3.org/1999/xlink">
	<desc>
			Created with Pixso.
	</desc>
	<defs>
		<clipPath id="clip430_6892">
			<rect id="Iconly/Broken/Bag" width="24.000000" height="24.000000" fill="white" fill-opacity="0"/>
		</clipPath>
	</defs>
	<rect id="Iconly/Broken/Bag" width="24.000000" height="24.000000" fill="#FFFFFF" fill-opacity="0"/>
	<g clip-path="url(#clip430_6892)">
		<path id="Basket" d="M20.6482 9.875L21.4038 15.7468C21.6936 17.7864 21.3159 19.3596 20.4375 20.4058C19.5588 21.4519 18.1182 21.9617 16.0449 21.9617L8.04175 21.9617C6.40405 22.1672 4.77222 21.5386 3.69482 20.2874C2.61743 19.0361 2.23755 17.3284 2.68286 15.738C2.74341 15.3181 3.13281 15.0271 3.55249 15.0876C3.97217 15.1484 4.26318 15.5381 4.20264 15.958C3.92822 17.1086 4.1687 18.322 4.86157 19.2805C5.71289 20.0879 6.86279 20.5022 8.03296 20.4233L16.0449 20.4233C17.635 20.4233 18.7332 20.0894 19.3042 19.3948C19.8752 18.7004 20.1035 17.54 19.8752 15.958L19.1284 10.1475C18.865 8.74121 18.0479 7.86206 16.9409 7.86206L7.13696 7.86206C6.08276 7.86206 5.26562 8.74121 4.94067 10.209L4.72974 11.5012C4.63281 11.896 4.24707 12.1484 3.84692 12.0791C3.44653 12.0095 3.16821 11.6418 3.20996 11.2375L3.42969 9.91895C4.00928 7.23804 5.72241 6.35889 7.13696 6.35889L15.3772 6.35889C15.2566 5.58008 14.8721 4.86621 14.2878 4.33716C12.8999 3.09521 10.7688 3.21313 9.52637 4.60083L9.52637 4.68872C9.33813 4.89136 9.05615 4.97803 8.78662 4.91626C8.51709 4.85425 8.30103 4.65308 8.21997 4.38867C8.13892 4.12427 8.20483 3.83667 8.39307 3.63403C9.68604 2.19312 11.7031 1.64453 13.5471 2.23242C15.3911 2.82031 16.7195 4.4353 16.9409 6.35889C18.417 6.35889 20.165 7.23804 20.6482 9.875ZM14.5076 12.0286C14.6172 12.0706 14.7329 12.0942 14.8501 12.0989C15.0818 12.0957 15.303 12.001 15.4651 11.8352C15.5593 11.7585 15.6318 11.6584 15.676 11.5452C15.7251 11.4409 15.7493 11.3264 15.7463 11.2112C15.7554 11.1528 15.7554 11.0935 15.7463 11.0354C15.738 10.9771 15.7202 10.9207 15.6936 10.8684C15.6797 10.8127 15.6526 10.7615 15.6145 10.719C15.5469 10.6265 15.467 10.5437 15.3772 10.4729C15.2766 10.4119 15.1667 10.3674 15.0522 10.3411C14.9395 10.3147 14.8223 10.3147 14.7095 10.3411C14.6516 10.3506 14.5955 10.3682 14.5427 10.3938C14.4866 10.4128 14.4336 10.4395 14.3845 10.4729L14.2527 10.5872C14.2083 10.6228 14.1724 10.6677 14.1475 10.719L14.0596 10.8684L14.0596 11.0354C14.0505 11.0938 14.0505 11.1528 14.0596 11.2112C14.0535 11.3259 14.0745 11.4402 14.1211 11.5452C14.187 11.748 14.3245 11.9197 14.5076 12.0286ZM10.1414 11.22C10.1414 11.7053 9.74805 12.0989 9.26294 12.0989C9.03735 12.0911 8.82324 11.9968 8.66553 11.8352C8.58228 11.7524 8.5166 11.6538 8.47217 11.5452C8.43018 11.439 8.40918 11.3254 8.41064 11.2112C8.40161 11.1528 8.40161 11.0935 8.41064 11.0354C8.41895 10.9771 8.43677 10.9207 8.46338 10.8684C8.48096 10.8145 8.50781 10.7639 8.54248 10.719C8.56738 10.6677 8.60352 10.6228 8.64795 10.5872C8.68628 10.5457 8.73071 10.51 8.77979 10.4817C8.82446 10.4468 8.875 10.4199 8.92896 10.4026C8.98145 10.3757 9.03784 10.3579 9.09595 10.3499C9.20874 10.3235 9.32593 10.3235 9.43848 10.3499C9.49683 10.3579 9.55322 10.3757 9.60547 10.4026C9.65942 10.4199 9.70996 10.4468 9.75488 10.4817C9.80737 10.512 9.85498 10.5505 9.89526 10.5959C9.9397 10.6316 9.97583 10.6765 10.0007 10.7278C10.0349 10.7744 10.0645 10.8245 10.0886 10.8772L10.1414 11.0442C10.1462 11.1028 10.1462 11.1614 10.1414 11.22Z" clip-rule="evenodd" fill="#212121" fill-opacity="1.000000" fill-rule="evenodd"/>
	</g>
</svg>
