<svg width="24.000000" height="24.000000" viewBox="0 0 24 24" fill="none" xmlns="http://www.w3.org/2000/svg" xmlns:xlink="http://www.w3.org/1999/xlink">
	<desc>
			Created with Pixso.
	</desc>
	<defs>
		<clipPath id="clip430_6960">
			<rect id="Iconly/Broken/Tick Square" width="24.000000" height="24.000000" fill="white" fill-opacity="0"/>
		</clipPath>
	</defs>
	<rect id="Iconly/Broken/Tick Square" width="24.000000" height="24.000000" fill="#FFFFFF" fill-opacity="0"/>
	<g clip-path="url(#clip430_6960)">
		<path id="Tick Square" d="M22 10.822C22 11.239 21.6609 11.5779 21.2439 11.5779L21.2351 11.5779L21.2351 11.5601C20.813 11.5601 20.4709 11.219 20.47 10.7971L20.47 8.25293C20.47 5.19995 18.8 3.53003 15.7561 3.53003L8.2561 3.53003C5.20996 3.53003 3.53003 5.20996 3.53003 8.25293L3.53003 15.7529C3.53003 18.7871 5.20996 20.467 8.25293 20.467L15.7529 20.467C18.7959 20.467 20.467 18.7871 20.467 15.7529C20.467 15.3311 20.8091 14.988 21.2319 14.988C21.655 14.988 21.9971 15.3311 21.9971 15.7529C22 19.6079 19.6079 22 15.7561 22L8.25293 22C4.39209 22 2 19.6079 2 15.7561L2 8.2561C2 4.39209 4.39209 2 8.25293 2L15.7529 2C19.5901 2 22 4.39209 22 8.25293L22 10.822ZM15.0295 9.09644L10.8137 13.3135L8.9707 11.4695C8.67749 11.1765 8.20264 11.1765 7.90967 11.4695C7.6167 11.7625 7.6167 12.2375 7.90967 12.5305L10.2827 14.9045C10.4236 15.0444 10.6135 15.1235 10.8137 15.1235C11.0117 15.1235 11.2026 15.0444 11.3435 14.9045L16.0906 10.1575C16.3835 9.8645 16.3835 9.3894 16.0906 9.09644C15.7976 8.80347 15.3225 8.80347 15.0295 9.09644Z" clip-rule="evenodd" fill="#212121" fill-opacity="1.000000" fill-rule="evenodd"/>
	</g>
</svg>
