<svg width="24.000000" height="24.000000" viewBox="0 0 24 24" fill="none" xmlns="http://www.w3.org/2000/svg" xmlns:xlink="http://www.w3.org/1999/xlink">
	<desc>
			Created with Pixso.
	</desc>
	<defs>
		<clipPath id="clip430_6830">
			<rect id="Iconly/Broken/Scan" width="24.000000" height="24.000000" fill="white" fill-opacity="0"/>
		</clipPath>
	</defs>
	<rect id="Iconly/Broken/Scan" width="24.000000" height="24.000000" fill="#FFFFFF" fill-opacity="0"/>
	<g clip-path="url(#clip430_6830)">
		<path id="Scan" d="M4.34668 8.76196C4.34668 9.17383 4.00464 9.50928 3.58472 9.50928C3.16479 9.50928 2.82373 9.17383 2.82373 8.76196L2.82373 6.90283C2.82373 4.75342 4.60669 3.00293 6.79761 3.00098L8.42676 3L8.42773 3C8.84766 3 9.18872 3.33447 9.18872 3.74731C9.18872 4.15918 8.84863 4.49341 8.42773 4.49341L6.7998 4.49438C5.44678 4.49634 4.34668 5.57617 4.34668 6.90283L4.34668 8.76196ZM15.6008 4.49316L17.1938 4.49316C18.5508 4.49316 19.6548 5.57568 19.6548 6.90649L19.6548 8.7627C19.6548 9.17358 19.9958 9.50903 20.4158 9.50903C20.8357 9.50903 21.1768 9.17358 21.1768 8.7627L21.1768 6.90649C21.1768 4.75195 19.3909 3.00073 17.1938 3.00073L15.6008 3.00073C15.1809 3.00073 14.8398 3.33398 14.8398 3.74683C14.8398 4.15869 15.1809 4.49316 15.6008 4.49316ZM10.1418 9.50928L13.8589 9.50928C14.2798 9.50928 14.6208 9.17383 14.6208 8.76196C14.6208 8.3501 14.2798 8.01587 13.8589 8.01587L10.1418 8.01587C9.72168 8.01587 9.38086 8.3501 9.38086 8.76196C9.38086 9.17383 9.72168 9.50928 10.1418 9.50928ZM1.76099 12.0413L22.239 12.0413C22.6589 12.0413 23 12.3755 23 12.7883C23 13.2002 22.6589 13.5347 22.239 13.5347L21.177 13.5347L21.177 17.0933C21.177 19.2485 19.3899 21 17.1941 21L15.6011 21C15.1809 21 14.8401 20.6655 14.8401 20.2527C14.8401 19.8408 15.1809 19.5066 15.6011 19.5066L17.1941 19.5066C18.551 19.5066 19.655 18.425 19.655 17.0933L19.655 13.5347L4.34595 13.5347L4.34595 17.0962C4.34595 18.4238 5.44702 19.5037 6.80005 19.5056L8.42798 19.5066C8.8479 19.5066 9.18896 19.8408 9.18896 20.2527C9.18799 20.6655 8.8479 21 8.427 21L6.79907 20.999C4.60693 20.9971 2.823 19.2466 2.823 17.0962L2.823 13.5347L1.76099 13.5347C1.34204 13.5347 1 13.2002 1 12.7883C1 12.3755 1.34204 12.0413 1.76099 12.0413ZM10.1421 15.7739L13.8591 15.7739C14.2791 15.7739 14.6201 16.1084 14.6201 16.5203C14.6201 16.9331 14.2791 17.2664 13.8591 17.2664L10.1421 17.2664C9.72119 17.2664 9.38013 16.9331 9.38013 16.5203C9.38013 16.1084 9.72119 15.7739 10.1421 15.7739Z" clip-rule="evenodd" fill="#212121" fill-opacity="1.000000" fill-rule="evenodd"/>
	</g>
</svg>
