<svg width="24.000000" height="24.000000" viewBox="0 0 24 24" fill="none" xmlns="http://www.w3.org/2000/svg" xmlns:xlink="http://www.w3.org/1999/xlink">
	<desc>
			Created with Pixso.
	</desc>
	<defs>
		<clipPath id="clip430_6742">
			<rect id="Iconly/Broken/Category" width="24.000000" height="24.000000" fill="white" fill-opacity="0"/>
		</clipPath>
	</defs>
	<rect id="Iconly/Broken/Category" width="24.000000" height="24.000000" fill="#FFFFFF" fill-opacity="0"/>
	<g clip-path="url(#clip430_6742)">
		<path id="Category" d="M21.4912 8.30542L21.4912 5.44312C21.4587 3.83521 20.1921 2.53809 18.6169 2.5L15.8044 2.5C15.0405 2.5 14.3081 2.8103 13.7688 3.36255C13.2297 3.91479 12.9277 4.66333 12.9302 5.44312L12.9302 9.70044C12.9231 9.90967 12.9983 10.113 13.1392 10.2651C13.28 10.4175 13.4746 10.5056 13.6797 10.5105C14.1062 10.5156 14.4587 10.1716 14.4731 9.73633L14.4731 5.44312C14.4731 4.69263 15.0691 4.08398 15.8044 4.08398L18.6169 4.08398C19.3481 4.09375 19.9387 4.69653 19.9482 5.44312L19.9482 8.31421C19.9529 8.67871 19.8152 9.03003 19.5652 9.29004C19.3152 9.55029 18.9739 9.698 18.6169 9.70044L17.4885 9.70044C17.0942 9.74341 16.7952 10.083 16.7952 10.488C16.7952 10.8928 17.0942 11.2324 17.4885 11.2754L18.6523 11.2754C19.4146 11.2659 20.1418 10.9478 20.6743 10.3906C21.2068 9.83374 21.5007 9.0835 21.4912 8.30542ZM5.38306 2.5L8.19556 2.5C9.78589 2.50488 11.0737 3.81982 11.0786 5.44312L11.0786 8.31445C11.0786 9.09399 10.7747 9.8418 10.2336 10.3923C9.69287 10.9429 8.95947 11.251 8.19556 11.2485L5.38306 11.2485C3.79614 11.2437 2.50977 9.93433 2.5 8.31445L2.5 5.44312C2.50952 3.82178 3.79468 2.50977 5.38306 2.5ZM9.52686 8.31445C9.53174 8.67871 9.3938 9.03003 9.1438 9.29028C8.8938 9.55029 8.55249 9.698 8.19556 9.70044L5.38306 9.70044C5.02075 9.70776 4.67114 9.56421 4.41504 9.30273C4.15869 9.04102 4.01807 8.68408 4.02539 8.31445L4.02539 5.44312C4.02515 5.07812 4.16919 4.72827 4.42456 4.47241C4.67993 4.2168 5.02539 4.0769 5.38306 4.08423L8.19556 4.08423C8.92896 4.08911 9.52222 4.69458 9.52686 5.44312L9.52686 8.31445ZM2.5 18.5479L2.5 15.6858C2.5 14.906 2.80396 14.1582 3.34497 13.6077C3.88599 13.0571 4.61914 12.7493 5.38306 12.7515L6.53809 12.7515C6.8335 12.7192 7.12085 12.8618 7.27832 13.1189C7.43604 13.376 7.43604 13.7021 7.27832 13.9592C7.12085 14.2163 6.8335 14.3589 6.53809 14.3267L5.38306 14.3267C4.64648 14.3267 4.04785 14.9336 4.04297 15.6858L4.04297 18.5208C4.06177 19.2668 4.6521 19.8657 5.38306 19.8799L8.21313 19.8799C8.56787 19.8823 8.90869 19.7402 9.1604 19.4851C9.41187 19.23 9.55347 18.8828 9.55347 18.5208L9.55347 14.2637C9.49585 13.9458 9.63354 13.624 9.90088 13.4509C10.1685 13.2778 10.512 13.2881 10.7693 13.4766C11.0264 13.6653 11.1453 13.9946 11.0698 14.3086L11.0698 18.5479C11.0698 20.1733 9.77905 21.491 8.18677 21.491L5.38306 21.491C3.80469 21.4575 2.53271 20.1592 2.5 18.5479ZM18.6169 12.7515L15.8044 12.7515C14.217 12.7515 12.9302 14.0652 12.9302 15.6855L12.9302 18.5569C12.9351 20.1768 14.2175 21.49 15.8044 21.5L18.6169 21.5C20.2053 21.4902 21.4905 20.1782 21.5 18.5569L21.5 15.6855C21.4905 14.0657 20.2039 12.7563 18.6169 12.7515ZM19.561 19.5205C19.811 19.2651 19.9507 18.918 19.9482 18.5569L19.9482 15.6855C19.9482 15.3252 19.8081 14.9795 19.5583 14.7246C19.3086 14.4697 18.97 14.3267 18.6169 14.3267L15.8044 14.3267C15.0691 14.3267 14.4731 14.9351 14.4731 15.6855L14.4731 18.5569C14.4707 18.918 14.6104 19.2651 14.8604 19.5205C15.1106 19.7759 15.4507 19.9182 15.8044 19.9158L18.6169 19.9158C18.9707 19.9182 19.3108 19.7759 19.561 19.5205Z" clip-rule="evenodd" fill="#212121" fill-opacity="1.000000" fill-rule="evenodd"/>
	</g>
</svg>
