<svg width="24.000000" height="24.000000" viewBox="0 0 24 24" fill="none" xmlns="http://www.w3.org/2000/svg" xmlns:xlink="http://www.w3.org/1999/xlink">
	<desc>
			Created with Pixso.
	</desc>
	<defs>
		<clipPath id="clip430_7064">
			<rect id="Iconly/Broken/Logout" width="24.000000" height="24.000000" fill="white" fill-opacity="0"/>
		</clipPath>
	</defs>
	<rect id="Iconly/Broken/Logout" width="24.000000" height="24.000000" fill="#FFFFFF" fill-opacity="0"/>
	<g clip-path="url(#clip430_7064)">
		<path id="Logout" d="M3.5 13.949C3.5 14.3528 3.16406 14.6804 2.75 14.6804C2.33618 14.6804 2.00024 14.3528 2.00024 13.949L2.00024 6.71436C2.00024 4.39062 3.93823 2.5 6.32153 2.5L11.0674 2.5C13.4556 2.5 15.3984 4.39526 15.3984 6.72485L15.3984 7.60938C15.3984 8.01221 15.0625 8.33984 14.6487 8.33984C14.2346 8.33984 13.8987 8.01221 13.8987 7.60938L13.8987 6.72485C13.8987 5.20093 12.6287 3.96313 11.0674 3.96313L6.32153 3.96313C4.76514 3.96313 3.5 5.198 3.5 6.71436L3.5 13.949ZM19.1218 10.6606C18.9309 10.6606 18.74 10.5896 18.594 10.449L17.8762 9.75635C17.582 9.47217 17.5801 9.00854 17.8713 8.72266C18.1636 8.43384 18.6367 8.43188 18.9319 8.71704L19.6487 9.40869C19.9438 9.6936 19.9458 10.1562 19.6545 10.4431C19.5076 10.5876 19.3147 10.6606 19.1218 10.6606ZM21.9434 11.7209C21.8274 11.4463 21.5537 11.2678 21.2498 11.2678L9.54907 11.2678C9.13525 11.2678 8.7981 11.5964 8.7981 12.0002C8.7981 12.4041 9.13525 12.7317 9.54907 12.7317L19.4346 12.7317L17.8752 14.2461C17.5811 14.531 17.5811 14.9937 17.8733 15.2808C18.0193 15.4241 18.2122 15.4963 18.4041 15.4963C18.5959 15.4963 18.7869 15.4241 18.9338 15.2825L21.7798 12.5188C21.9939 12.3098 22.0591 11.9944 21.9434 11.7209ZM14.6484 15.6602C14.2344 15.6602 13.8984 15.9878 13.8984 16.3916L13.8984 17.2856C13.8984 18.8027 12.6333 20.0369 11.0769 20.0369L6.33008 20.0369C4.76978 20.0369 3.49976 18.7991 3.49976 17.2751C3.49976 16.8713 3.16382 16.5447 2.75 16.5447C2.33594 16.5447 2 16.8713 2 17.2751C2 19.6047 3.94287 21.5 6.33008 21.5L11.0769 21.5C13.4602 21.5 15.3982 19.6094 15.3982 17.2856L15.3982 16.3916C15.3982 15.9878 15.0623 15.6602 14.6484 15.6602Z" clip-rule="evenodd" fill="#212121" fill-opacity="1.000000" fill-rule="evenodd"/>
	</g>
</svg>
