<svg width="24.000000" height="24.000000" viewBox="0 0 24 24" fill="none" xmlns="http://www.w3.org/2000/svg" xmlns:xlink="http://www.w3.org/1999/xlink">
	<desc>
			Created with Pixso.
	</desc>
	<defs>
		<clipPath id="clip430_6813">
			<rect id="Iconly/Broken/Password" width="24.000000" height="24.000000" fill="white" fill-opacity="0"/>
		</clipPath>
	</defs>
	<rect id="Iconly/Broken/Password" width="24.000000" height="24.000000" fill="#FFFFFF" fill-opacity="0"/>
	<g clip-path="url(#clip430_6813)">
		<path id="Password" d="M16.3345 1.99976L7.66553 1.99976C4.27637 1.99976 2.00049 4.37769 2.00049 7.91577L2.00049 16.0837C2.00049 19.6218 4.27637 21.9998 7.66553 21.9998C8.07959 21.9998 8.41553 21.6638 8.41553 21.2498C8.41553 20.8357 8.07959 20.4998 7.66553 20.4998C5.1355 20.4998 3.50049 18.7668 3.50049 16.0837L3.50049 7.91577C3.50049 5.23267 5.1355 3.49976 7.66553 3.49976L16.3345 3.49976C18.8645 3.49976 20.5005 5.23267 20.5005 7.91577L20.5005 16.0837C20.5005 18.7668 18.8645 20.4998 16.3335 20.4998L10.9534 20.4998C10.5396 20.4998 10.2034 20.8357 10.2034 21.2498C10.2034 21.6638 10.5396 21.9998 10.9534 21.9998L16.3335 21.9998C19.7224 21.9998 22.0005 19.6218 22.0005 16.0837L22.0005 7.91577C22.0005 4.37769 19.7234 1.99976 16.3345 1.99976ZM6.46753 10.9324C6.63745 10.5544 7.07959 10.3853 7.45947 10.5564C7.8374 10.7253 8.00537 11.1694 7.83545 11.5474C7.77148 11.6904 7.7395 11.8423 7.7395 11.9993C7.7395 12.6074 8.2334 13.1013 8.84058 13.1013C9.44849 13.1013 9.94238 12.6074 9.94238 11.9993C9.94238 11.3923 9.44849 10.8984 8.84058 10.8984C8.42651 10.8984 8.09058 10.5623 8.09058 10.1484C8.09058 9.73438 8.42651 9.39844 8.84058 9.39844C10.0134 9.39844 10.9944 10.1824 11.3186 11.2493L17.0105 11.2493C17.4246 11.2493 17.7605 11.5854 17.7605 11.9993L17.7605 13.8513C17.7605 14.2654 17.4246 14.6013 17.0105 14.6013C16.5964 14.6013 16.2605 14.2654 16.2605 13.8513L16.2605 12.7493L14.9314 12.7493L14.9314 13.8513C14.9314 14.2654 14.5955 14.6013 14.1814 14.6013C13.7676 14.6013 13.4314 14.2654 13.4314 13.8513L13.4314 12.7493L11.3186 12.7493C10.9944 13.8174 10.0134 14.6013 8.84058 14.6013C7.40649 14.6013 6.2395 13.4343 6.2395 11.9993C6.2395 11.6284 6.31543 11.2703 6.46753 10.9324Z" clip-rule="evenodd" fill="#212121" fill-opacity="1.000000" fill-rule="evenodd"/>
	</g>
</svg>
