<svg width="24.000000" height="24.000000" viewBox="0 0 24 24" fill="none" xmlns="http://www.w3.org/2000/svg" xmlns:xlink="http://www.w3.org/1999/xlink">
	<desc>
			Created with Pixso.
	</desc>
	<defs>
		<clipPath id="clip430_6724">
			<rect id="Iconly/Broken/Folder" width="24.000000" height="24.000000" fill="white" fill-opacity="0"/>
		</clipPath>
	</defs>
	<rect id="Iconly/Broken/Folder" width="24.000000" height="24.000000" fill="#FFFFFF" fill-opacity="0"/>
	<g clip-path="url(#clip430_6724)">
		<path id="Folder" d="M21.23 12.67C21.65 12.67 22 12.33 22 11.91L22 10.89C22 6.84 20.19 4.87 16.5 4.87L13.78 4.87C13.33 4.87 12.91 4.67 12.64 4.32L11.76 3.15C11.19 2.42 10.32 1.99 9.4 2L7.48 2C3.84 2 2 4.1 2 8.25L2 15.75C2 19.6 4.39 22 8.25 22L15.74 22C19.59 22 21.99 19.6 21.99 15.75C21.94 15.36 21.61 15.06 21.22 15.06C20.82 15.06 20.49 15.36 20.45 15.75C20.45 18.78 18.78 20.46 15.74 20.46L8.24 20.46C5.19 20.46 3.52 18.79 3.52 15.75L3.52 15.02L15.83 15.02C16.25 15.02 16.6 14.68 16.6 14.26C16.6 13.83 16.25 13.49 15.83 13.49L3.52 13.49L3.52 8.21C3.52 4.91 4.7 3.49 7.47 3.49L9.41 3.49C9.85 3.5 10.27 3.7 10.54 4.05L11.42 5.21C11.98 5.95 12.85 6.39 13.78 6.39L16.49 6.39C19.35 6.39 20.46 7.67 20.46 10.89L20.46 11.91C20.46 12.11 20.54 12.31 20.68 12.45C20.83 12.6 21.03 12.67 21.23 12.67Z" fill="#212121" fill-opacity="1.000000" fill-rule="nonzero"/>
	</g>
</svg>
