<svg width="24.000000" height="24.000000" viewBox="0 0 24 24" fill="none" xmlns="http://www.w3.org/2000/svg" xmlns:xlink="http://www.w3.org/1999/xlink">
	<desc>
			Created with Pixso.
	</desc>
	<defs>
		<clipPath id="clip430_7187">
			<rect id="Iconly/Broken/Hide" width="24.000000" height="24.000000" fill="white" fill-opacity="0"/>
		</clipPath>
	</defs>
	<rect id="Iconly/Broken/Hide" width="24.000000" height="24.000000" fill="#FFFFFF" fill-opacity="0"/>
	<g clip-path="url(#clip430_7187)">
		<path id="Hide" d="M20.4202 3.71118C20.134 3.42969 19.6711 3.42969 19.385 3.71118L17.2771 5.78735C13.8511 3.44727 9.51904 3.57422 6.22119 6.14258C4.51904 7.46069 3.08105 9.38818 2.06006 11.7153C1.98022 11.8965 1.98022 12.103 2.05908 12.2842C2.53418 13.374 3.10107 14.377 3.74316 15.2659C3.88623 15.4648 4.11108 15.5691 4.34009 15.5691C4.48706 15.5691 4.63501 15.5259 4.76416 15.4353C5.09302 15.2048 5.17017 14.7551 4.93604 14.4312C4.41016 13.7026 3.93823 12.8867 3.53223 12.0017C4.44507 10.0212 5.68408 8.39087 7.1272 7.27368C9.85913 5.14453 13.3562 4.98682 16.2241 6.82373L14.1902 8.8252C13.5532 8.39795 12.7871 8.15967 12 8.15967C9.84814 8.15967 8.09814 9.88232 8.09814 12.0007C8.09814 12.7812 8.33716 13.5247 8.77612 14.1545L3.58008 19.2705C3.29419 19.551 3.29419 20.0068 3.58008 20.2883C3.72314 20.4292 3.91016 20.5 4.09814 20.5C4.28516 20.5 4.47217 20.4292 4.61523 20.2883L20.4202 4.72998C20.7061 4.44849 20.7061 3.99268 20.4202 3.71118ZM21.9399 11.7141C21.407 10.5044 20.771 9.40967 20.0469 8.46362C19.803 8.14575 19.345 8.08179 19.0229 8.32104C18.699 8.56128 18.635 9.01196 18.8779 9.33008C19.4749 10.1106 20.009 11.0073 20.468 12.0007C18.592 16.0662 15.4448 18.4829 12 18.4829C11.22 18.4829 10.4438 18.3579 9.69385 18.1118C9.30884 17.9888 8.896 18.1895 8.76904 18.5676C8.64087 18.9446 8.8479 19.3521 9.23096 19.479C10.1299 19.7744 11.062 19.9241 12 19.9241C16.127 19.9241 19.843 17.0684 21.9399 12.2852C22.02 12.104 22.02 11.8962 21.9399 11.7141ZM9.56104 12.0007C9.56104 10.6758 10.655 9.59985 12 9.59985C12.395 9.59985 12.7771 9.7041 13.1191 9.88037L9.84717 13.1013C9.66724 12.7637 9.56104 12.3916 9.56104 12.0007ZM12.4387 14.3521C13.4287 14.1758 14.2126 13.4021 14.3906 12.4275C14.4617 12.0378 14.8447 11.7749 15.2397 11.8457C15.6377 11.9158 15.9026 12.2898 15.8306 12.6826C15.5466 14.2458 14.2876 15.4861 12.6997 15.7705C12.6555 15.7773 12.6116 15.7815 12.5676 15.7815C12.2217 15.7815 11.9126 15.5383 11.8486 15.1907C11.7766 14.7991 12.0405 14.4238 12.4387 14.3521Z" clip-rule="evenodd" fill="#212121" fill-opacity="1.000000" fill-rule="evenodd"/>
	</g>
</svg>
