<svg width="24.000000" height="24.000000" viewBox="0 0 24 24" fill="none" xmlns="http://www.w3.org/2000/svg" xmlns:xlink="http://www.w3.org/1999/xlink">
	<desc>
			Created with Pixso.
	</desc>
	<defs>
		<clipPath id="clip430_7414">
			<rect id="Iconly/Two-tone/Discount" width="24.000000" height="24.000000" fill="white" fill-opacity="0"/>
		</clipPath>
	</defs>
	<rect id="Iconly/Two-tone/Discount" width="24.000000" height="24.000000" fill="#FFFFFF" fill-opacity="0"/>
	<g clip-path="url(#clip430_7414)">
		<path id="Stroke 1" d="M7.05 4.79L8.08 4.79C8.68 4.79 9.25 4.55 9.67 4.13L10.39 3.41C11.27 2.53 12.7 2.52 13.59 3.4L13.6 3.41L14.32 4.13C14.74 4.55 15.31 4.79 15.91 4.79L16.94 4.79C18.19 4.79 19.2 5.8 19.2 7.05L19.2 8.08C19.2 8.68 19.44 9.25 19.86 9.67L20.58 10.39C21.46 11.27 21.47 12.7 20.59 13.59L20.58 13.6L19.86 14.32C19.44 14.74 19.2 15.31 19.2 15.91L19.2 16.94C19.2 18.19 18.19 19.2 16.94 19.2L15.91 19.2C15.31 19.2 14.74 19.44 14.32 19.86L13.6 20.58C12.72 21.46 11.29 21.47 10.4 20.59C10.4 20.58 10.39 20.58 10.39 20.58L9.67 19.86C9.25 19.44 8.68 19.2 8.08 19.2L7.05 19.2C5.8 19.2 4.79 18.19 4.79 16.94L4.79 15.91C4.79 15.31 4.55 14.74 4.13 14.32L3.41 13.6C2.53 12.72 2.52 11.29 3.4 10.4L3.41 10.39L4.13 9.67C4.55 9.25 4.79 8.68 4.79 8.08L4.79 7.05C4.79 5.8 5.8 4.79 7.05 4.79Z" stroke="#212121" stroke-opacity="1.000000" stroke-width="1.500000" stroke-linejoin="round"/>
		<g opacity="0.400000" style="mix-blend-mode:normal">
			<path id="Stroke 3" d="M9.42 14.56L14.56 9.42" stroke="#212121" stroke-opacity="1.000000" stroke-width="1.500000" stroke-linejoin="round" stroke-linecap="round"/>
		</g>
		<g opacity="0.400000" style="mix-blend-mode:normal">
			<path id="Fill 5" d="M14.56 15.32C14.36 15.32 14.17 15.24 14.03 15.1C13.96 15.03 13.91 14.94 13.87 14.85C13.83 14.76 13.81 14.67 13.81 14.57C13.81 14.47 13.83 14.37 13.87 14.28C13.91 14.19 13.96 14.11 14.03 14.04C14.31 13.76 14.81 13.76 15.09 14.04C15.16 14.11 15.22 14.19 15.26 14.28C15.29 14.37 15.31 14.47 15.31 14.57C15.31 14.67 15.29 14.76 15.26 14.85C15.22 14.94 15.16 15.03 15.09 15.1C14.95 15.24 14.76 15.32 14.56 15.32Z" fill="#212121" fill-opacity="1.000000" fill-rule="nonzero"/>
		</g>
		<g opacity="0.400000" style="mix-blend-mode:normal">
			<path id="Fill 7" d="M9.42 10.18C9.32 10.18 9.23 10.16 9.14 10.12C9.05 10.08 8.96 10.03 8.89 9.96C8.82 9.88 8.77 9.8 8.73 9.71C8.69 9.62 8.67 9.53 8.67 9.43C8.67 9.33 8.69 9.23 8.73 9.14C8.77 9.05 8.82 8.96 8.89 8.9C9.18 8.62 9.67 8.62 9.95 8.9C10.09 9.04 10.17 9.23 10.17 9.43C10.17 9.53 10.16 9.62 10.12 9.71C10.08 9.8 10.02 9.88 9.95 9.96C9.88 10.03 9.8 10.08 9.71 10.12C9.62 10.16 9.52 10.18 9.42 10.18Z" fill="#212121" fill-opacity="1.000000" fill-rule="nonzero"/>
		</g>
	</g>
</svg>
