<svg width="24.000000" height="24.000000" viewBox="0 0 24 24" fill="none" xmlns="http://www.w3.org/2000/svg" xmlns:xlink="http://www.w3.org/1999/xlink">
	<desc>
			Created with Pixso.
	</desc>
	<defs>
		<clipPath id="clip430_7604">
			<rect id="Iconly/Two-tone/Image" width="24.000000" height="24.000000" fill="white" fill-opacity="0"/>
		</clipPath>
	</defs>
	<rect id="Iconly/Two-tone/Image" width="24.000000" height="24.000000" fill="#FFFFFF" fill-opacity="0"/>
	<g clip-path="url(#clip430_7604)">
		<path id="Stroke 1" d="M21.21 16.04C21.21 19.06 19.32 21.2 16.29 21.2L7.64 21.2C4.62 21.2 2.75 19.06 2.75 16.04L2.75 7.89C2.75 4.87 4.63 2.75 7.64 2.75L16.29 2.75C19.32 2.75 21.21 4.87 21.21 7.89L21.21 16.04Z" stroke="#212121" stroke-opacity="1.000000" stroke-width="1.500000" stroke-linejoin="round"/>
		<g opacity="0.400000" style="mix-blend-mode:normal">
			<path id="Stroke 3" d="M5.28 16.43L6.8 14.81C7.34 14.25 8.22 14.22 8.78 14.75C8.8 14.77 9.72 15.71 9.72 15.71C10.28 16.27 11.18 16.28 11.75 15.73C11.79 15.69 14.08 12.9 14.08 12.9C14.67 12.18 15.74 12.08 16.46 12.67C16.51 12.71 18.68 14.94 18.68 14.94" stroke="#212121" stroke-opacity="1.000000" stroke-width="1.500000" stroke-linejoin="round" stroke-linecap="round"/>
		</g>
		<g opacity="0.400000" style="mix-blend-mode:normal">
			<path id="Stroke 5" d="M8.55 10.88C7.58 10.88 6.8 10.1 6.8 9.13C6.8 8.16 7.58 7.37 8.55 7.37C9.52 7.37 10.31 8.16 10.31 9.13C10.31 10.1 9.52 10.88 8.55 10.88Z" stroke="#212121" stroke-opacity="1.000000" stroke-width="1.500000" stroke-linejoin="round"/>
		</g>
	</g>
</svg>
