<svg width="24.000000" height="24.000000" viewBox="0 0 24 24" fill="none" xmlns="http://www.w3.org/2000/svg" xmlns:xlink="http://www.w3.org/1999/xlink">
	<desc>
			Created with Pixso.
	</desc>
	<defs>
		<clipPath id="clip430_7592">
			<rect id="Iconly/Two-tone/3 User" width="24.000000" height="24.000000" fill="white" fill-opacity="0"/>
		</clipPath>
	</defs>
	<rect id="Iconly/Two-tone/3 User" width="24.000000" height="24.000000" fill="#FFFFFF" fill-opacity="0"/>
	<g clip-path="url(#clip430_7592)">
		<g opacity="0.400000" style="mix-blend-mode:normal">
			<path id="Stroke 1" d="M17.88 10.89C19.28 10.7 20.35 9.5 20.35 8.05C20.35 6.62 19.31 5.44 17.95 5.21" stroke="#212121" stroke-opacity="1.000000" stroke-width="1.500000" stroke-linejoin="round" stroke-linecap="round"/>
		</g>
		<path id="Stroke 3" d="M19.72 14.25C21.07 14.45 22.02 14.92 22.02 15.9C22.02 16.57 21.57 17 20.86 17.28" stroke="#212121" stroke-opacity="1.000000" stroke-width="1.500000" stroke-linejoin="round" stroke-linecap="round"/>
		<path id="Stroke 5" d="M5.92 17.09C5.92 19.03 8.65 19.54 11.88 19.54C15.1 19.54 17.84 19.05 17.84 17.11C17.84 15.16 15.11 14.66 11.88 14.66C8.67 14.66 5.92 15.15 5.92 17.09Z" stroke="#212121" stroke-opacity="1.000000" stroke-width="1.500000" stroke-linejoin="round"/>
		<g opacity="0.400000" style="mix-blend-mode:normal">
			<path id="Stroke 7" d="M15.7 8.06C15.7 5.95 13.99 4.25 11.88 4.25C9.77 4.25 8.06 5.95 8.06 8.06C8.05 10.17 9.75 11.88 11.85 11.88L11.88 11.88C13.99 11.88 15.7 10.17 15.7 8.06Z" stroke="#212121" stroke-opacity="1.000000" stroke-width="1.500000" stroke-linejoin="round"/>
		</g>
		<g opacity="0.400000" style="mix-blend-mode:normal">
			<path id="Stroke 9" d="M5.88 10.89C4.48 10.7 3.41 9.5 3.41 8.05C3.41 6.62 4.45 5.44 5.81 5.21" stroke="#212121" stroke-opacity="1.000000" stroke-width="1.500000" stroke-linejoin="round" stroke-linecap="round"/>
		</g>
		<path id="Stroke 11" d="M4.04 14.25C2.69 14.45 1.75 14.92 1.75 15.9C1.75 16.57 2.19 17 2.91 17.28" stroke="#212121" stroke-opacity="1.000000" stroke-width="1.500000" stroke-linejoin="round" stroke-linecap="round"/>
	</g>
</svg>
