<svg width="24.000000" height="24.000000" viewBox="0 0 24 24" fill="none" xmlns="http://www.w3.org/2000/svg" xmlns:xlink="http://www.w3.org/1999/xlink">
	<desc>
			Created with Pixso.
	</desc>
	<defs>
		<clipPath id="clip430_7343">
			<rect id="Iconly/Two-tone/Voice" width="24.000000" height="24.000000" fill="white" fill-opacity="0"/>
		</clipPath>
	</defs>
	<rect id="Iconly/Two-tone/Voice" width="24.000000" height="24.000000" fill="#FFFFFF" fill-opacity="0"/>
	<g clip-path="url(#clip430_7343)">
		<g opacity="0.400000" style="mix-blend-mode:normal">
			<path id="Union" d="M4.71436 10.1821C5.13428 10.1821 5.46436 10.5122 5.46436 10.9321Q5.46436 11.6914 5.62866 12.4136Q5.75732 12.9795 5.98682 13.522Q6.22217 14.0786 6.5481 14.5762Q6.92114 15.1455 7.41309 15.6372Q7.90479 16.1289 8.47412 16.502Q8.97144 16.8281 9.52808 17.0635Q10.071 17.293 10.6367 17.4219Q11.3586 17.5859 12.1182 17.5859Q12.8777 17.5859 13.5996 17.4219L13.5996 17.4219Q14.1655 17.293 14.7083 17.0635Q15.2649 16.8281 15.7622 16.502Q16.3315 16.1289 16.8232 15.6372Q17.3149 15.1455 17.6882 14.5762Q18.0142 14.0786 18.2495 13.522Q18.479 12.9795 18.6077 12.4136L18.6077 12.4136Q18.772 11.6914 18.772 10.9321C18.772 10.5122 19.1021 10.1821 19.522 10.1821C19.9419 10.1821 20.272 10.5122 20.272 10.9321Q20.272 11.8438 20.0784 12.7119Q19.9197 13.4238 19.6311 14.1064Q19.3386 14.7979 18.9326 15.4141L18.9326 15.4141Q18.4792 16.1025 17.884 16.6978Q17.2888 17.293 16.6003 17.7466L16.6003 17.7466Q15.9839 18.1523 15.2925 18.4448Q14.6096 18.7339 13.8979 18.8926L13.8979 18.8926Q13.3906 19.0054 12.8687 19.0522L12.8687 21.147C12.8687 21.5669 12.5386 21.897 12.1187 21.897C11.6985 21.897 11.3687 21.5669 11.3687 21.147L11.3687 19.0527Q10.8462 19.0054 10.3384 18.8926L10.3384 18.8926Q9.62671 18.7339 8.94385 18.4448Q8.25244 18.1523 7.63599 17.7466L7.63599 17.7466Q6.94751 17.293 6.35229 16.6978Q5.75708 16.1025 5.30371 15.4141Q4.89771 14.7979 4.60522 14.1064Q4.31665 13.4238 4.15796 12.7119Q3.96436 11.8438 3.96436 10.9321C3.96436 10.5122 4.29443 10.1821 4.71436 10.1821Z" clip-rule="evenodd" fill="#212121" fill-opacity="1.000000" fill-rule="evenodd"/>
		</g>
		<path id="Stroke 5" d="M11.99 14.58C9.97 14.58 8.33 12.94 8.33 10.92L8.33 6.37C8.33 4.35 9.97 2.71 11.99 2.71L12.24 2.71C14.26 2.71 15.9 4.35 15.9 6.37L15.9 10.92C15.9 12.94 14.26 14.58 12.24 14.58L11.99 14.58Z" stroke="#212121" stroke-opacity="1.000000" stroke-width="1.500000" stroke-linejoin="round"/>
	</g>
</svg>
