<svg width="24.000000" height="24.000000" viewBox="0 0 24 24" fill="none" xmlns="http://www.w3.org/2000/svg" xmlns:xlink="http://www.w3.org/1999/xlink">
	<desc>
			Created with Pixso.
	</desc>
	<defs>
		<clipPath id="clip430_7368">
			<rect id="Iconly/Two-tone/Play" width="24.000000" height="24.000000" fill="white" fill-opacity="0"/>
		</clipPath>
	</defs>
	<rect id="Iconly/Two-tone/Play" width="24.000000" height="24.000000" fill="#FFFFFF" fill-opacity="0"/>
	<g clip-path="url(#clip430_7368)">
		<path id="Stroke 1" d="M22 12C22 17.52 17.52 22 12 22C6.47 22 2 17.52 2 12C2 6.47 6.47 2 12 2C17.52 2 22 6.47 22 12Z" stroke="#212121" stroke-opacity="1.000000" stroke-width="1.500000" stroke-linejoin="round"/>
		<g opacity="0.400000" style="mix-blend-mode:normal">
			<path id="Stroke 3" d="M11.32 15C11.16 15.07 10.74 15.22 10.65 15.22C10.46 15.23 10.28 15.12 10.19 14.95C10.16 14.88 10.06 14.45 10.03 14.26C9.93 13.68 9.88 12.77 9.89 11.86C9.88 10.9 9.94 9.95 10.04 9.37C10.07 9.22 10.15 8.86 10.18 8.8C10.22 8.69 10.3 8.61 10.4 8.55C10.48 8.51 10.57 8.49 10.65 8.49C10.74 8.5 11.1 8.62 11.23 8.67C12.21 9.05 14.28 10.43 15.04 11.24C15.1 11.31 15.29 11.51 15.32 11.55C15.39 11.64 15.43 11.75 15.43 11.86C15.43 11.96 15.4 12.06 15.33 12.15C15.3 12.19 15.11 12.39 15.05 12.46C14.32 13.25 12.33 14.58 11.32 15Z" stroke="#212121" stroke-opacity="1.000000" stroke-width="1.500000" stroke-linejoin="round"/>
		</g>
	</g>
</svg>
