<svg width="24.000000" height="24.000000" viewBox="0 0 24 24" fill="none" xmlns="http://www.w3.org/2000/svg" xmlns:xlink="http://www.w3.org/1999/xlink">
	<desc>
			Created with Pixso.
	</desc>
	<defs>
		<clipPath id="clip430_7376">
			<rect id="Iconly/Two-tone/Show" width="24.000000" height="24.000000" fill="white" fill-opacity="0"/>
		</clipPath>
	</defs>
	<rect id="Iconly/Two-tone/Show" width="24.000000" height="24.000000" fill="#FFFFFF" fill-opacity="0"/>
	<g clip-path="url(#clip430_7376)">
		<g opacity="0.400000" style="mix-blend-mode:normal">
			<path id="Stroke 1" d="M11.99 15.21C10.25 15.21 8.83 13.79 8.83 12.05C8.83 10.3 10.25 8.89 11.99 8.89C13.74 8.89 15.16 10.3 15.16 12.05C15.16 13.79 13.74 15.21 11.99 15.21Z" stroke="#212121" stroke-opacity="1.000000" stroke-width="1.500000" stroke-linejoin="round"/>
		</g>
		<path id="Stroke 3" d="M21.25 12.05C19.28 7.48 15.8 4.75 11.99 4.75L12 4.75C8.19 4.75 4.71 7.48 2.75 12.05C4.71 16.61 8.19 19.35 12 19.35L11.99 19.35C15.8 19.35 19.28 16.61 21.25 12.05Z" stroke="#212121" stroke-opacity="1.000000" stroke-width="1.500000" stroke-linejoin="round"/>
	</g>
</svg>
