<svg width="24.000000" height="24.000000" viewBox="0 0 24 24" fill="none" xmlns="http://www.w3.org/2000/svg" xmlns:xlink="http://www.w3.org/1999/xlink">
	<desc>
			Created with Pixso.
	</desc>
	<defs>
		<clipPath id="clip430_7393">
			<rect id="Iconly/Two-tone/Paper Download" width="24.000000" height="24.000000" fill="white" fill-opacity="0"/>
		</clipPath>
	</defs>
	<rect id="Iconly/Two-tone/Paper Download" width="24.000000" height="24.000000" fill="#FFFFFF" fill-opacity="0"/>
	<g clip-path="url(#clip430_7393)">
		<path id="Stroke 1" d="M8.08 2.76C6.02 2.76 4.25 4.43 4.25 6.49L4.25 17.22C4.25 19.4 5.9 21.11 8.08 21.11L16.07 21.11C18.13 21.11 19.8 19.28 19.8 17.22L19.8 8.03L14.73 2.76L8.08 2.76Z" stroke="#212121" stroke-opacity="1.000000" stroke-width="1.500000" stroke-linejoin="round"/>
		<path id="Stroke 3" d="M14.47 2.75L14.47 5.65C14.47 7.07 15.62 8.23 17.04 8.23C18.35 8.23 19.7 8.23 19.79 8.23" stroke="#212121" stroke-opacity="1.000000" stroke-width="1.500000" stroke-linejoin="round" stroke-linecap="round"/>
		<g opacity="0.400000" style="mix-blend-mode:normal">
			<path id="Union" d="M11.6406 8.69043C11.2205 8.69043 10.8906 9.02051 10.8906 9.44043L10.8906 14.1978L9.33374 12.6338C9.03735 12.3359 8.5708 12.335 8.27295 12.6313C7.97534 12.9277 7.97437 13.3945 8.27051 13.6919L11.0662 16.5005C11.1228 16.5674 11.1912 16.624 11.2683 16.6675Q11.3083 16.6904 11.3506 16.7085Q11.4832 16.7637 11.6384 16.7637Q11.7937 16.7642 11.9265 16.7095Q11.9565 16.6973 11.9854 16.6821C12.0759 16.6362 12.1555 16.5723 12.2195 16.4951L15.0105 13.6919C15.3069 13.3945 15.3059 12.9277 15.0083 12.6313C14.7107 12.335 14.2441 12.3359 13.9478 12.6338L12.3906 14.1973L12.3906 9.44043C12.3906 9.02051 12.0605 8.69043 11.6406 8.69043Z" clip-rule="evenodd" fill="#212121" fill-opacity="1.000000" fill-rule="evenodd"/>
		</g>
	</g>
</svg>
