<svg width="24.000000" height="24.000000" viewBox="0 0 24 24" fill="none" xmlns="http://www.w3.org/2000/svg" xmlns:xlink="http://www.w3.org/1999/xlink">
	<desc>
			Created with Pixso.
	</desc>
	<defs>
		<clipPath id="clip430_7372">
			<rect id="Iconly/Two-tone/Shield Done" width="24.000000" height="24.000000" fill="white" fill-opacity="0"/>
		</clipPath>
	</defs>
	<rect id="Iconly/Two-tone/Shield Done" width="24.000000" height="24.000000" fill="#FFFFFF" fill-opacity="0"/>
	<g clip-path="url(#clip430_7372)">
		<path id="Stroke 1" d="M19.59 6.15L19.59 12.92C19.59 14.81 18.9 16.62 17.69 18.02C17.08 18.73 16.3 19.27 15.48 19.72L11.92 21.64L8.36 19.72C7.54 19.27 6.76 18.73 6.15 18.02C4.93 16.62 4.25 14.81 4.25 12.92L4.25 6.15C4.25 5.68 4.54 5.27 4.97 5.12L11.56 2.81C11.79 2.72 12.05 2.72 12.28 2.81L18.86 5.12C19.3 5.27 19.59 5.68 19.59 6.15Z" stroke="#212121" stroke-opacity="1.000000" stroke-width="1.500000" stroke-linejoin="round"/>
		<g opacity="0.400000" style="mix-blend-mode:normal">
			<path id="Stroke 3" d="M9.32 11.91L11.21 13.81L15.11 9.91" stroke="#212121" stroke-opacity="1.000000" stroke-width="1.500000" stroke-linejoin="round" stroke-linecap="round"/>
		</g>
	</g>
</svg>
