<svg width="24.000000" height="24.000000" viewBox="0 0 24 24" fill="none" xmlns="http://www.w3.org/2000/svg" xmlns:xlink="http://www.w3.org/1999/xlink">
	<desc>
			Created with Pixso.
	</desc>
	<defs>
		<clipPath id="clip430_7632">
			<rect id="Iconly/Two-tone/Volume Off" width="24.000000" height="24.000000" fill="white" fill-opacity="0"/>
		</clipPath>
	</defs>
	<rect id="Iconly/Two-tone/Volume Off" width="24.000000" height="24.000000" fill="#FFFFFF" fill-opacity="0"/>
	<g clip-path="url(#clip430_7632)">
		<path id="Stroke 1" d="M6.09 16.64C5.85 16.57 5.64 16.46 5.45 16.3C4.69 15.65 4.75 13.91 4.75 12.63C4.75 11.35 4.69 9.6 5.45 8.95C6.16 8.35 6.67 8.5 7.96 8.4C9.26 8.3 12 4.34 14.12 5.59C14.61 5.99 14.89 6.58 15.06 7.48" stroke="#212121" stroke-opacity="1.000000" stroke-width="1.500000" stroke-linejoin="round" stroke-linecap="round"/>
		<path id="Stroke 3" d="M15.28 14.66C15.24 17.54 15.02 18.93 14.12 19.66C13.14 20.24 12.03 19.71 10.99 18.95" stroke="#212121" stroke-opacity="1.000000" stroke-width="1.500000" stroke-linejoin="round" stroke-linecap="round"/>
		<g opacity="0.400000" style="mix-blend-mode:normal">
			<path id="Stroke 5" d="M4.75 20.74L8.46 17.03L15.28 10.21L20.75 4.74" stroke="#212121" stroke-opacity="1.000000" stroke-width="1.500000" stroke-linejoin="round" stroke-linecap="round"/>
		</g>
	</g>
</svg>
