<svg width="24.000000" height="24.000000" viewBox="0 0 24 24" fill="none" xmlns="http://www.w3.org/2000/svg" xmlns:xlink="http://www.w3.org/1999/xlink">
	<desc>
			Created with Pixso.
	</desc>
	<defs>
		<clipPath id="clip430_7217">
			<rect id="Iconly/Two-tone/Paper" width="24.000000" height="24.000000" fill="white" fill-opacity="0"/>
		</clipPath>
	</defs>
	<rect id="Iconly/Two-tone/Paper" width="24.000000" height="24.000000" fill="#FFFFFF" fill-opacity="0"/>
	<g clip-path="url(#clip430_7217)">
		<path id="Stroke 1" d="M8.08 2.76C6.02 2.76 4.24 4.43 4.24 6.49L4.24 17.2C4.24 19.37 5.9 21.11 8.08 21.11L16.07 21.11C18.13 21.11 19.8 19.26 19.8 17.2L19.8 8.03L14.73 2.76L8.08 2.76Z" stroke="#212121" stroke-opacity="1.000000" stroke-width="1.500000" stroke-linejoin="round"/>
		<path id="Stroke 3" d="M14.47 2.75L14.47 5.65C14.47 7.07 15.62 8.23 17.04 8.23C18.35 8.23 19.7 8.23 19.79 8.23" stroke="#212121" stroke-opacity="1.000000" stroke-width="1.500000" stroke-linejoin="round" stroke-linecap="round"/>
		<g opacity="0.400000" style="mix-blend-mode:normal">
			<path id="Stroke 5" d="M14.28 15.55L8.88 15.55" stroke="#212121" stroke-opacity="1.000000" stroke-width="1.500000" stroke-linejoin="round" stroke-linecap="round"/>
		</g>
		<g opacity="0.400000" style="mix-blend-mode:normal">
			<path id="Stroke 7" d="M12.24 10.6L8.88 10.6" stroke="#212121" stroke-opacity="1.000000" stroke-width="1.500000" stroke-linejoin="round" stroke-linecap="round"/>
		</g>
	</g>
</svg>
