<svg width="24.000000" height="24.000000" viewBox="0 0 24 24" fill="none" xmlns="http://www.w3.org/2000/svg" xmlns:xlink="http://www.w3.org/1999/xlink">
	<desc>
			Created with Pixso.
	</desc>
	<defs>
		<clipPath id="clip430_7270">
			<rect id="Iconly/Two-tone/Calendar" width="24.000000" height="24.000000" fill="white" fill-opacity="0"/>
		</clipPath>
	</defs>
	<rect id="Iconly/Two-tone/Calendar" width="24.000000" height="24.000000" fill="#FFFFFF" fill-opacity="0"/>
	<g clip-path="url(#clip430_7270)">
		<g opacity="0.400000" style="mix-blend-mode:normal">
			<path id="Line_200" d="M3.09 9.4L20.91 9.4" stroke="#212121" stroke-opacity="1.000000" stroke-width="1.500000" stroke-linejoin="round" stroke-linecap="round"/>
		</g>
		<g opacity="0.400000">
			<path id="Union" d="M8.31714 13.3096C8.31714 12.8896 7.98706 12.5596 7.56714 12.5596L7.55786 12.5596C7.13794 12.5596 6.80786 12.8896 6.80786 13.3096C6.80786 13.7295 7.13794 14.0596 7.55786 14.0596L7.56714 14.0596C7.98706 14.0596 8.31714 13.7295 8.31714 13.3096ZM12.0046 12.5596L12.0139 12.5596C12.4338 12.5596 12.7639 12.8896 12.7639 13.3096C12.7639 13.7295 12.4338 14.0596 12.0139 14.0596L12.0046 14.0596C11.5845 14.0596 11.2546 13.7295 11.2546 13.3096C11.2546 12.8896 11.5845 12.5596 12.0046 12.5596ZM15.6921 13.3096C15.6921 12.8896 16.022 12.5596 16.4421 12.5596L16.4514 12.5596C16.8713 12.5596 17.2014 12.8896 17.2014 13.3096C17.2014 13.7295 16.8713 14.0596 16.4514 14.0596L16.4421 14.0596C16.022 14.0596 15.6921 13.7295 15.6921 13.3096ZM7.56714 16.4458C7.98706 16.4458 8.31714 16.7759 8.31714 17.1958C8.31714 17.6162 7.98706 17.9458 7.56714 17.9458L7.55786 17.9458C7.13794 17.9458 6.80786 17.6162 6.80786 17.1958C6.80786 16.7759 7.13794 16.4458 7.55786 16.4458L7.56714 16.4458ZM12.0139 16.4458L12.0046 16.4458C11.5845 16.4458 11.2546 16.7759 11.2546 17.1958C11.2546 17.6162 11.5845 17.9458 12.0046 17.9458L12.0139 17.9458C12.4338 17.9458 12.7639 17.6162 12.7639 17.1958C12.7639 16.7759 12.4338 16.4458 12.0139 16.4458ZM16.4421 16.4458L16.4514 16.4458C16.8713 16.4458 17.2014 16.7759 17.2014 17.1958C17.2014 17.6162 16.8713 17.9458 16.4514 17.9458L16.4421 17.9458C16.022 17.9458 15.6921 17.6162 15.6921 17.1958C15.6921 16.7759 16.022 16.4458 16.4421 16.4458Z" clip-rule="evenodd" fill="#212121" fill-opacity="1.000000" fill-rule="evenodd"/>
		</g>
		<path id="Line_207" d="M16.04 2L16.04 5.29" stroke="#212121" stroke-opacity="1.000000" stroke-width="1.500000" stroke-linejoin="round" stroke-linecap="round"/>
		<path id="Line_208" d="M7.96 2L7.96 5.29" stroke="#212121" stroke-opacity="1.000000" stroke-width="1.500000" stroke-linejoin="round" stroke-linecap="round"/>
		<path id="Path" d="M7.77 3.57C4.83 3.57 3 5.21 3 8.22L3 17.27C3 20.32 4.83 22 7.77 22L16.22 22C19.17 22 21 20.35 21 17.34L21 8.22C21 5.21 19.18 3.57 16.23 3.57L7.77 3.57Z" stroke="#212121" stroke-opacity="1.000000" stroke-width="1.500000" stroke-linejoin="round"/>
	</g>
</svg>
