<svg width="24.000000" height="24.000000" viewBox="0 0 24 24" fill="none" xmlns="http://www.w3.org/2000/svg" xmlns:xlink="http://www.w3.org/1999/xlink">
	<desc>
			Created with Pixso.
	</desc>
	<defs>
		<clipPath id="clip430_7586">
			<rect id="Iconly/Two-tone/Add User" width="24.000000" height="24.000000" fill="white" fill-opacity="0"/>
		</clipPath>
	</defs>
	<rect id="Iconly/Two-tone/Add User" width="24.000000" height="24.000000" fill="#FFFFFF" fill-opacity="0"/>
	<g clip-path="url(#clip430_7586)">
		<path id="Stroke 1" d="M2.74 18.11C2.74 20.44 6.01 21.04 9.87 21.04C13.72 21.04 17 20.46 17 18.13C17 15.8 13.74 15.2 9.87 15.2C6.03 15.2 2.74 15.78 2.74 18.11Z" stroke="#212121" stroke-opacity="1.000000" stroke-width="1.500000" stroke-linejoin="round"/>
		<g opacity="0.400000" style="mix-blend-mode:normal">
			<path id="Stroke 3" d="M14.44 7.31C14.44 4.79 12.39 2.75 9.87 2.75C7.35 2.75 5.3 4.79 5.3 7.31C5.3 9.83 7.33 11.87 9.84 11.88L9.87 11.88C12.39 11.88 14.44 9.84 14.44 7.31Z" stroke="#212121" stroke-opacity="1.000000" stroke-width="1.500000" stroke-linejoin="round"/>
		</g>
		<path id="Stroke 5" d="M19.2 8.66L19.2 12.67" stroke="#212121" stroke-opacity="1.000000" stroke-width="1.500000" stroke-linejoin="round" stroke-linecap="round"/>
		<path id="Stroke 7" d="M21.24 10.67L17.15 10.67" stroke="#212121" stroke-opacity="1.000000" stroke-width="1.500000" stroke-linejoin="round" stroke-linecap="round"/>
	</g>
</svg>
