<svg width="24.000000" height="24.000000" viewBox="0 0 24 24" fill="none" xmlns="http://www.w3.org/2000/svg" xmlns:xlink="http://www.w3.org/1999/xlink">
	<desc>
			Created with Pixso.
	</desc>
	<defs>
		<clipPath id="clip430_7245">
			<rect id="Iconly/Two-tone/Paper Plus" width="24.000000" height="24.000000" fill="white" fill-opacity="0"/>
		</clipPath>
	</defs>
	<rect id="Iconly/Two-tone/Paper Plus" width="24.000000" height="24.000000" fill="#FFFFFF" fill-opacity="0"/>
	<g clip-path="url(#clip430_7245)">
		<path id="Stroke 1" d="M8.08 2.76C6.02 2.76 4.25 4.43 4.25 6.49L4.25 17.33C4.25 19.51 5.9 21.11 8.08 21.11L16.07 21.11C18.13 21.11 19.8 19.39 19.8 17.33L19.8 8.03L14.73 2.76L8.08 2.76Z" stroke="#212121" stroke-opacity="1.000000" stroke-width="1.500000" stroke-linejoin="round"/>
		<path id="Stroke 3" d="M14.47 2.75L14.47 5.65C14.47 7.07 15.62 8.23 17.04 8.23C18.35 8.23 19.7 8.23 19.79 8.23" stroke="#212121" stroke-opacity="1.000000" stroke-width="1.500000" stroke-linejoin="round" stroke-linecap="round"/>
		<g opacity="0.400000">
			<path id="Union" d="M11.8438 9.71484C11.4238 9.71484 11.0938 10.0449 11.0938 10.4648L11.0938 12.1646L9.39355 12.1646C8.97363 12.1646 8.64355 12.4946 8.64355 12.9146C8.64355 13.3345 8.97363 13.6646 9.39355 13.6646L11.0938 13.6646L11.0938 15.3657C11.0938 15.7856 11.4238 16.1157 11.8438 16.1157C12.2639 16.1157 12.5938 15.7856 12.5938 15.3657L12.5938 13.6646L14.2944 13.6646C14.7146 13.6646 15.0444 13.3345 15.0444 12.9146C15.0444 12.4946 14.7146 12.1646 14.2944 12.1646L12.5938 12.1646L12.5938 10.4648C12.5938 10.0449 12.2639 9.71484 11.8438 9.71484Z" clip-rule="evenodd" fill="#212121" fill-opacity="1.000000" fill-rule="evenodd"/>
		</g>
	</g>
</svg>
