<svg width="24.000000" height="24.000000" viewBox="0 0 24 24" fill="none" xmlns="http://www.w3.org/2000/svg" xmlns:xlink="http://www.w3.org/1999/xlink">
	<desc>
			Created with Pixso.
	</desc>
	<defs>
		<clipPath id="clip430_7313">
			<rect id="Iconly/Two-tone/Bag 2" width="24.000000" height="24.000000" fill="white" fill-opacity="0"/>
		</clipPath>
	</defs>
	<rect id="Iconly/Two-tone/Bag 2" width="24.000000" height="24.000000" fill="#FFFFFF" fill-opacity="0"/>
	<g clip-path="url(#clip430_7313)">
		<g opacity="0.400000" style="mix-blend-mode:normal">
			<path id="Stroke 1" d="M15.77 9.3L15.77 6.27C15.77 4.18 14.08 2.5 12 2.5C9.91 2.49 8.21 4.17 8.21 6.25L8.21 6.27L8.21 9.3" stroke="#212121" stroke-opacity="1.000000" stroke-width="1.500000" stroke-linejoin="round" stroke-linecap="round"/>
		</g>
		<path id="Stroke 3" d="M7.25 21C4.9 21 3 19.09 3 16.74L3 11.22C3 8.87 4.9 6.97 7.25 6.97L16.74 6.97C19.09 6.97 21 8.87 21 11.22L21 16.74C21 19.09 19.09 21 16.74 21L7.25 21Z" stroke="#212121" stroke-opacity="1.000000" stroke-width="1.500000" stroke-linejoin="round"/>
	</g>
</svg>
