<svg width="24.000000" height="24.000000" viewBox="0 0 24 24" fill="none" xmlns="http://www.w3.org/2000/svg" xmlns:xlink="http://www.w3.org/1999/xlink">
	<desc>
			Created with Pixso.
	</desc>
	<defs>
		<clipPath id="clip430_7663">
			<rect id="Iconly/Two-tone/Category" width="24.000000" height="24.000000" fill="white" fill-opacity="0"/>
		</clipPath>
	</defs>
	<rect id="Iconly/Two-tone/Category" width="24.000000" height="24.000000" fill="#FFFFFF" fill-opacity="0"/>
	<g clip-path="url(#clip430_7663)">
		<path id="Stroke 1" d="M6.5 3C9.97 3 10 3.87 10 6.5C10 9.12 10.01 10 6.5 10C2.98 10 3 9.12 3 6.5C3 3.87 3.02 3 6.5 3Z" stroke="#212121" stroke-opacity="1.000000" stroke-width="1.500000" stroke-linejoin="round"/>
		<g opacity="0.400000" style="mix-blend-mode:normal">
			<path id="Stroke 3" d="M17.5 3C20.97 3 21 3.87 21 6.5C21 9.12 21.01 10 17.5 10C13.98 10 14 9.12 14 6.5C14 3.87 14.02 3 17.5 3Z" stroke="#212121" stroke-opacity="1.000000" stroke-width="1.500000" stroke-linejoin="round"/>
		</g>
		<path id="Stroke 5" d="M6.5 14C9.97 14 10 14.87 10 17.5C10 20.12 10.01 21 6.5 21C2.98 21 3 20.12 3 17.5C3 14.87 3.02 14 6.5 14Z" stroke="#212121" stroke-opacity="1.000000" stroke-width="1.500000" stroke-linejoin="round"/>
		<path id="Stroke 7" d="M17.5 14C20.97 14 21 14.87 21 17.5C21 20.12 21.01 21 17.5 21C13.98 21 14 20.12 14 17.5C14 14.87 14.02 14 17.5 14Z" stroke="#212121" stroke-opacity="1.000000" stroke-width="1.500000" stroke-linejoin="round"/>
	</g>
</svg>
