<svg width="24.000000" height="24.000000" viewBox="0 0 24 24" fill="none" xmlns="http://www.w3.org/2000/svg" xmlns:xlink="http://www.w3.org/1999/xlink">
	<desc>
			Created with Pixso.
	</desc>
	<defs>
		<clipPath id="clip430_7669">
			<rect id="Iconly/Two-tone/Home" width="24.000000" height="24.000000" fill="white" fill-opacity="0"/>
		</clipPath>
	</defs>
	<rect id="Iconly/Two-tone/Home" width="24.000000" height="24.000000" fill="#FFFFFF" fill-opacity="0"/>
	<g clip-path="url(#clip430_7669)">
		<path id="Home" d="M9.15 20.77L9.15 17.7C9.15 16.92 9.79 16.29 10.58 16.28L13.46 16.28C14.25 16.28 14.9 16.92 14.9 17.7L14.9 20.78C14.9 21.44 15.43 21.98 16.1 22L18.02 22C19.94 22 21.5 20.46 21.5 18.56L21.5 9.83C21.48 9.09 21.13 8.38 20.53 7.93L13.95 2.68C12.8 1.77 11.16 1.77 10.01 2.68L3.46 7.94C2.86 8.39 2.5 9.09 2.5 9.84L2.5 18.56C2.5 20.46 4.05 22 5.97 22L7.89 22C8.58 22 9.13 21.44 9.13 20.77" stroke="#212121" stroke-opacity="1.000000" stroke-width="1.500000" stroke-linejoin="round" stroke-linecap="round"/>
	</g>
</svg>
