<svg width="24.000000" height="24.000000" viewBox="0 0 24 24" fill="none" xmlns="http://www.w3.org/2000/svg" xmlns:xlink="http://www.w3.org/1999/xlink">
	<desc>
			Created with Pixso.
	</desc>
	<defs>
		<clipPath id="clip430_7223">
			<rect id="Iconly/Two-tone/Ticket Star" width="24.000000" height="24.000000" fill="white" fill-opacity="0"/>
		</clipPath>
	</defs>
	<rect id="Iconly/Two-tone/Ticket Star" width="24.000000" height="24.000000" fill="#FFFFFF" fill-opacity="0"/>
	<g clip-path="url(#clip430_7223)">
		<path id="Stroke 1" d="M21.25 17.02L21.25 14.32C20.01 14.32 19.01 13.32 19.01 12.08C19.01 10.84 20.01 9.84 21.25 9.84L21.24 7.14C21.24 5.26 19.73 3.75 17.85 3.75L6.14 3.75C4.27 3.75 2.75 5.26 2.75 7.14L2.75 9.93C3.98 9.93 4.98 10.84 4.98 12.08C4.98 13.32 3.98 14.32 2.75 14.32L2.75 17.02C2.75 18.89 4.26 20.41 6.14 20.41L17.85 20.41C19.73 20.41 21.25 18.89 21.25 17.02Z" stroke="#212121" stroke-opacity="1.000000" stroke-width="1.500000" stroke-linejoin="round"/>
		<g opacity="0.400000" style="mix-blend-mode:normal">
			<path id="Stroke 3" d="M13.73 14.76C13.9 14.85 14.09 14.71 14.06 14.53L13.72 12.59L15.13 11.22C15.27 11.09 15.19 10.87 15.01 10.84L13.06 10.56L12.19 8.79C12.11 8.63 11.88 8.63 11.8 8.79L10.92 10.56L8.98 10.84C8.8 10.87 8.72 11.09 8.86 11.22L10.26 12.59L9.93 14.53C9.9 14.71 10.09 14.85 10.25 14.76L11.99 13.85L13.73 14.76Z" stroke="#212121" stroke-opacity="1.000000" stroke-width="1.500000" stroke-linejoin="round"/>
		</g>
	</g>
</svg>
