<svg width="24.000000" height="24.000000" viewBox="0 0 24 24" fill="none" xmlns="http://www.w3.org/2000/svg" xmlns:xlink="http://www.w3.org/1999/xlink">
	<desc>
			Created with Pixso.
	</desc>
	<defs>
		<clipPath id="clip430_7628">
			<rect id="Iconly/Two-tone/Volume Down" width="24.000000" height="24.000000" fill="white" fill-opacity="0"/>
		</clipPath>
	</defs>
	<rect id="Iconly/Two-tone/Volume Down" width="24.000000" height="24.000000" fill="#FFFFFF" fill-opacity="0"/>
	<g clip-path="url(#clip430_7628)">
		<path id="Stroke 1" d="M4.7 15.53C5.41 16.11 5.91 15.96 7.2 16.06C8.5 16.15 11.24 19.97 13.35 18.76C14.43 17.9 14.52 16.11 14.52 12C14.52 7.88 14.43 6.09 13.35 5.23C11.24 4.02 8.5 7.84 7.2 7.93C5.91 8.03 5.41 7.88 4.7 8.46C3.94 9.09 3.99 10.77 4 12C3.99 13.23 3.94 14.9 4.7 15.53Z" stroke="#212121" stroke-opacity="1.000000" stroke-width="1.500000" stroke-linejoin="round"/>
		<g opacity="0.400000" style="mix-blend-mode:normal">
			<path id="Stroke 5" d="M18.58 8.31C19.89 10.6 19.89 13.4 18.58 15.68" stroke="#212121" stroke-opacity="1.000000" stroke-width="1.500000" stroke-linejoin="round" stroke-linecap="round"/>
		</g>
	</g>
</svg>
