<svg width="24.000000" height="24.000000" viewBox="0 0 24 24" fill="none" xmlns="http://www.w3.org/2000/svg" xmlns:xlink="http://www.w3.org/1999/xlink">
	<desc>
			Created with Pixso.
	</desc>
	<defs>
		<clipPath id="clip430_7452">
			<rect id="Iconly/Two-tone/Close Square" width="24.000000" height="24.000000" fill="white" fill-opacity="0"/>
		</clipPath>
	</defs>
	<rect id="Iconly/Two-tone/Close Square" width="24.000000" height="24.000000" fill="#FFFFFF" fill-opacity="0"/>
	<g clip-path="url(#clip430_7452)">
		<g opacity="0.400000" style="mix-blend-mode:normal">
			<path id="Union" d="M9.07104 9.0625C8.77393 9.35938 8.77393 9.82617 9.0708 10.123L10.9387 11.9912L9.07349 13.8564C8.77637 14.1538 8.77637 14.6201 9.07349 14.9175C9.37036 15.2144 9.83716 15.2144 10.134 14.9175L11.9993 13.0522L13.8669 14.9204C14.1638 15.2173 14.6304 15.2173 14.9275 14.9204C15.2246 14.6235 15.2246 14.1567 14.9275 13.8599L13.0598 11.9917L14.926 10.1255C15.2231 9.82812 15.2231 9.36182 14.926 9.06445C14.6292 8.76758 14.1624 8.76758 13.8655 9.06445L11.9993 10.9307L10.1316 9.0625C9.83472 8.76562 9.36792 8.76562 9.07104 9.0625Z" clip-rule="evenodd" fill="#212121" fill-opacity="1.000000" fill-rule="evenodd"/>
		</g>
		<path id="Stroke 3" d="M7.66 2.75C4.64 2.75 2.75 4.88 2.75 7.91L2.75 16.08C2.75 19.11 4.63 21.25 7.66 21.25L16.33 21.25C19.36 21.25 21.25 19.11 21.25 16.08L21.25 7.91C21.25 4.88 19.36 2.75 16.33 2.75L7.66 2.75Z" stroke="#212121" stroke-opacity="1.000000" stroke-width="1.500000" stroke-linejoin="round"/>
	</g>
</svg>
