<svg width="24.000000" height="24.000000" viewBox="0 0 24 24" fill="none" xmlns="http://www.w3.org/2000/svg" xmlns:xlink="http://www.w3.org/1999/xlink">
	<desc>
			Created with Pixso.
	</desc>
	<defs>
		<clipPath id="clip430_7600">
			<rect id="Iconly/Two-tone/Profile" width="24.000000" height="24.000000" fill="white" fill-opacity="0"/>
		</clipPath>
	</defs>
	<rect id="Iconly/Two-tone/Profile" width="24.000000" height="24.000000" fill="#FFFFFF" fill-opacity="0"/>
	<g clip-path="url(#clip430_7600)">
		<path id="Stroke 1" d="M4.81 18.27C4.81 20.61 8.09 21.22 11.98 21.22C15.85 21.22 19.15 20.63 19.15 18.29C19.15 15.95 15.87 15.34 11.98 15.34C8.11 15.34 4.81 15.93 4.81 18.27Z" stroke="#212121" stroke-opacity="1.000000" stroke-width="1.500000" stroke-linejoin="round"/>
		<g opacity="0.400000" style="mix-blend-mode:normal">
			<path id="Stroke 3" d="M16.58 7.4C16.58 4.87 14.52 2.81 11.98 2.81C9.44 2.81 7.38 4.87 7.38 7.4C7.38 9.93 9.42 11.99 11.95 12L11.98 12C14.52 12 16.58 9.94 16.58 7.4Z" stroke="#212121" stroke-opacity="1.000000" stroke-width="1.500000" stroke-linejoin="round"/>
		</g>
	</g>
</svg>
