<svg width="24.000000" height="24.000000" viewBox="0 0 24 24" fill="none" xmlns="http://www.w3.org/2000/svg" xmlns:xlink="http://www.w3.org/1999/xlink">
	<desc>
			Created with Pixso.
	</desc>
	<defs>
		<clipPath id="clip430_7420">
			<rect id="Iconly/Two-tone/Paper Upload" width="24.000000" height="24.000000" fill="white" fill-opacity="0"/>
		</clipPath>
	</defs>
	<rect id="Iconly/Two-tone/Paper Upload" width="24.000000" height="24.000000" fill="#FFFFFF" fill-opacity="0"/>
	<g clip-path="url(#clip430_7420)">
		<path id="Stroke 1" d="M8.08 2.76C6.02 2.76 4.25 4.43 4.25 6.49L4.25 17.22C4.25 19.4 5.9 21.11 8.08 21.11L16.07 21.11C18.13 21.11 19.8 19.28 19.8 17.22L19.8 8.03L14.73 2.76L8.08 2.76Z" stroke="#212121" stroke-opacity="1.000000" stroke-width="1.500000" stroke-linejoin="round"/>
		<path id="Stroke 3" d="M14.47 2.75L14.47 5.65C14.47 7.07 15.62 8.23 17.04 8.23C18.35 8.23 19.7 8.23 19.79 8.23" stroke="#212121" stroke-opacity="1.000000" stroke-width="1.500000" stroke-linejoin="round" stroke-linecap="round"/>
		<g opacity="0.400000" style="mix-blend-mode:normal">
			<path id="Union" d="M11.2646 8.78857C11.189 8.83154 11.1221 8.88721 11.0667 8.95312L8.27051 11.7617C7.97437 12.0596 7.97534 12.5264 8.27295 12.8223C8.5708 13.1187 9.03735 13.1177 9.33374 12.8198L10.8906 11.2559L10.8906 16.0137C10.8906 16.4336 11.2205 16.7637 11.6406 16.7637C12.0605 16.7637 12.3906 16.4336 12.3906 16.0137L12.3906 11.2563L13.9478 12.8203C14.2441 13.1177 14.7107 13.1187 15.0083 12.8223C15.3059 12.5259 15.3069 12.0596 15.0105 11.7617L12.2192 8.9585C12.1562 8.88232 12.0781 8.81934 11.9893 8.77393Q11.9585 8.75732 11.9265 8.74414Q11.7937 8.68945 11.6384 8.68994Q11.4832 8.69043 11.3506 8.74561Q11.3064 8.76416 11.2646 8.78857Z" clip-rule="evenodd" fill="#212121" fill-opacity="1.000000" fill-rule="evenodd"/>
		</g>
	</g>
</svg>
