<svg width="24.000000" height="24.000000" viewBox="0 0 24 24" fill="none" xmlns="http://www.w3.org/2000/svg" xmlns:xlink="http://www.w3.org/1999/xlink">
	<desc>
			Created with Pixso.
	</desc>
	<defs>
		<clipPath id="clip430_7283">
			<rect id="Iconly/Two-tone/Message" width="24.000000" height="24.000000" fill="white" fill-opacity="0"/>
		</clipPath>
	</defs>
	<rect id="Iconly/Two-tone/Message" width="24.000000" height="24.000000" fill="#FFFFFF" fill-opacity="0"/>
	<g clip-path="url(#clip430_7283)">
		<g opacity="0.400000" style="mix-blend-mode:normal">
			<path id="Path_445" d="M17.26 8.56L13 11.99C12.19 12.62 11.06 12.62 10.25 11.99L5.95 8.56" stroke="#212121" stroke-opacity="1.000000" stroke-width="1.500000" stroke-linejoin="round" stroke-linecap="round"/>
		</g>
		<path id="Rectangle_511" d="M16.31 3C17.67 3.01 18.96 3.58 19.89 4.59C20.82 5.59 21.3 6.92 21.22 8.29L21.22 14.82C21.3 16.18 20.82 17.52 19.89 18.52C18.96 19.52 17.67 20.1 16.31 20.11L6.88 20.11C3.96 20.11 2 17.74 2 14.82L2 8.29C2 5.37 3.96 3 6.88 3L16.31 3Z" stroke="#212121" stroke-opacity="1.000000" stroke-width="1.500000" stroke-linejoin="round"/>
	</g>
</svg>
