<svg width="24.000000" height="24.000000" viewBox="0 0 24 24" fill="none" xmlns="http://www.w3.org/2000/svg" xmlns:xlink="http://www.w3.org/1999/xlink">
	<desc>
			Created with Pixso.
	</desc>
	<defs>
		<clipPath id="clip430_7380">
			<rect id="Iconly/Two-tone/Shield Fail" width="24.000000" height="24.000000" fill="white" fill-opacity="0"/>
		</clipPath>
	</defs>
	<rect id="Iconly/Two-tone/Shield Fail" width="24.000000" height="24.000000" fill="#FFFFFF" fill-opacity="0"/>
	<g clip-path="url(#clip430_7380)">
		<path id="Stroke 1" d="M19.59 6.15L19.59 12.92C19.59 14.81 18.9 16.62 17.69 18.02C17.07 18.73 16.3 19.27 15.48 19.72L11.92 21.64L8.36 19.72C7.54 19.27 6.76 18.73 6.15 18.02C4.93 16.62 4.25 14.81 4.25 12.92L4.25 6.15C4.25 5.68 4.54 5.27 4.97 5.12L11.56 2.81C11.79 2.72 12.05 2.72 12.28 2.81L18.86 5.12C19.3 5.27 19.59 5.68 19.59 6.15Z" stroke="#212121" stroke-opacity="1.000000" stroke-width="1.500000" stroke-linejoin="round"/>
		<g opacity="0.400000">
			<path id="Union" d="M14.3315 10.6182L12.9829 11.9673L14.3315 13.3159C14.6284 13.6128 14.6284 14.0796 14.3315 14.3765C14.0344 14.6733 13.5679 14.6733 13.2708 14.3765L11.9221 13.0278L10.5737 14.3765C10.2766 14.6733 9.81006 14.6733 9.51294 14.3765C9.21606 14.0796 9.21606 13.6128 9.51294 13.3159L10.8616 11.9673L9.5127 10.6182C9.21582 10.3213 9.21582 9.85449 9.5127 9.55762C9.80981 9.26074 10.2764 9.26074 10.5735 9.55762L11.9221 10.9062L13.271 9.55762C13.5679 9.26074 14.0347 9.26074 14.3315 9.55762C14.6287 9.85449 14.6287 10.3213 14.3315 10.6182Z" clip-rule="evenodd" fill="#212121" fill-opacity="1.000000" fill-rule="evenodd"/>
		</g>
	</g>
</svg>
