<svg width="24.000000" height="24.000000" viewBox="0 0 24 24" fill="none" xmlns="http://www.w3.org/2000/svg" xmlns:xlink="http://www.w3.org/1999/xlink">
	<desc>
			Created with Pixso.
	</desc>
	<defs>
		<clipPath id="clip430_7359">
			<rect id="Iconly/Two-tone/Voice 2" width="24.000000" height="24.000000" fill="white" fill-opacity="0"/>
		</clipPath>
	</defs>
	<rect id="Iconly/Two-tone/Voice 2" width="24.000000" height="24.000000" fill="#FFFFFF" fill-opacity="0"/>
	<g clip-path="url(#clip430_7359)">
		<g opacity="0.400000" style="mix-blend-mode:normal">
			<path id="Union" d="M4.71436 10.1821C5.13428 10.1821 5.46436 10.5122 5.46436 10.9321Q5.46436 11.6914 5.62866 12.4136Q5.75732 12.9795 5.98682 13.522Q6.22217 14.0786 6.5481 14.5762Q6.92114 15.1455 7.41309 15.6372Q7.90479 16.1289 8.47412 16.502Q8.97144 16.8281 9.52808 17.0635Q10.071 17.293 10.6367 17.4219Q11.3586 17.5859 12.1182 17.5859Q12.877 17.5859 13.5984 17.4219L13.5984 17.4219Q14.1648 17.2935 14.7083 17.0635Q15.2651 16.8281 15.7627 16.502Q16.332 16.1289 16.8237 15.6372Q17.3164 15.145 17.6897 14.5747L17.6899 14.5747Q18.0151 14.0776 18.2502 13.522Q18.4802 12.9785 18.6089 12.4121L18.6089 12.4121Q18.7729 11.6909 18.7729 10.9321C18.7729 10.5122 19.103 10.1821 19.5229 10.1821C19.9429 10.1821 20.2729 10.5122 20.2729 10.9321Q20.2729 11.8428 20.0796 12.7104Q19.9209 13.4229 19.6318 14.1064Q19.3396 14.7969 18.9341 15.4126L18.9341 15.4126L18.9341 15.4131Q18.4802 16.1021 17.8845 16.6978Q17.2893 17.293 16.6008 17.7466Q15.9841 18.1523 15.2925 18.4448Q14.6091 18.7339 13.8965 18.8926L13.8965 18.8926Q13.3899 19.0054 12.8687 19.0522L12.8687 21.147C12.8687 21.5669 12.5386 21.897 12.1187 21.897C11.6985 21.897 11.3687 21.5669 11.3687 21.147L11.3687 19.0527Q10.8462 19.0054 10.3384 18.8926L10.3384 18.8926Q9.62671 18.7339 8.94385 18.4448Q8.25244 18.1523 7.63599 17.7466L7.63599 17.7466Q6.94751 17.293 6.35229 16.6978Q5.75708 16.1025 5.30371 15.4141Q4.89771 14.7979 4.60522 14.1064Q4.31665 13.4238 4.15796 12.7119Q3.96436 11.8438 3.96436 10.9321C3.96436 10.5122 4.29443 10.1821 4.71436 10.1821Z" clip-rule="evenodd" fill="#212121" fill-opacity="1.000000" fill-rule="evenodd"/>
		</g>
		<g style="mix-blend-mode:normal">
			<path id="Union" d="M11.0391 15.2314Q11.5044 15.3345 11.9922 15.3345L12.2446 15.3345Q12.7346 15.3345 13.2014 15.231L13.2024 15.2305Q13.5898 15.1445 13.9617 14.9878Q14.3379 14.8286 14.6729 14.6074Q15.043 14.3628 15.3633 14.043Q15.6831 13.7231 15.9272 13.353L15.9275 13.3525L15.9277 13.3525Q16.1489 13.0176 16.3079 12.6411Q16.4653 12.269 16.5513 11.8813L16.5513 11.8813L16.5513 11.8813Q16.6545 11.4141 16.6545 10.9243L16.6545 6.37402Q16.6545 5.88574 16.552 5.42041L16.552 5.42041Q16.4658 5.03076 16.3079 4.65723Q16.1489 4.28174 15.9282 3.94678L15.9282 3.94678L15.9282 3.94678L15.928 3.94629Q15.6836 3.57617 15.3633 3.25586Q15.0425 2.93506 14.6719 2.69043L14.6719 2.69043Q14.3372 2.46973 13.9617 2.31104Q13.5886 2.15283 13.1997 2.06689L13.1997 2.06689L13.1995 2.06689Q12.7334 1.96387 12.2446 1.96387L11.9922 1.96387Q11.5051 1.96387 11.0408 2.06641L11.0408 2.06641Q10.6501 2.15234 10.2756 2.31104Q9.90063 2.46924 9.56641 2.68994L9.56641 2.68994L9.56641 2.68994L9.56641 2.68994Q9.19507 2.93457 8.87402 3.25586Q8.55298 3.57666 8.30835 3.94775L8.30835 3.94775Q8.08789 4.28223 7.9292 4.65723Q7.77075 5.03174 7.68457 5.42236L7.68457 5.42236L7.68457 5.42236Q7.58228 5.88672 7.58228 6.37402L7.58228 10.9243Q7.58228 11.4131 7.6853 11.8794L7.6853 11.8794L7.6853 11.8794Q7.77148 12.2686 7.9292 12.6416Q8.08813 13.0171 8.30884 13.3516L8.30884 13.3516Q8.55347 13.7222 8.87402 14.043Q9.19458 14.3633 9.56519 14.6079Q9.90015 14.8286 10.2756 14.9878Q10.6494 15.1455 11.0391 15.2314L11.0391 15.2314ZM12.2446 13.8345L11.9922 13.8345Q11.6562 13.8345 11.3372 13.7607Q11.0938 13.7051 10.8599 13.606Q10.6189 13.5039 10.4033 13.3633L10.4033 13.3633Q10.1519 13.1992 9.93481 12.9824Q9.71753 12.7651 9.55322 12.5132L9.55322 12.5132L9.55322 12.5132Q9.4126 12.2979 9.31079 12.0571Q9.21216 11.8242 9.15601 11.5811L9.15601 11.5811Q9.08228 11.2612 9.08228 10.9243L9.08228 6.37402Q9.08228 6.03906 9.15527 5.7207L9.15527 5.7207Q9.21143 5.47607 9.31079 5.2417Q9.41235 5.00146 9.55273 4.78613Q9.71704 4.53418 9.93481 4.31641Q10.1523 4.09863 10.4045 3.93408L10.4045 3.93408L10.4045 3.93408Q10.6196 3.79395 10.8601 3.69238Q11.0945 3.59326 11.3391 3.53711Q11.6572 3.46387 11.9922 3.46387L12.2446 3.46387Q12.5815 3.46387 12.9014 3.5376L12.9014 3.5376L12.9014 3.5376Q13.1443 3.59375 13.3774 3.69238Q13.6182 3.79395 13.8335 3.93457L13.8335 3.93457L13.8335 3.93457Q14.0852 4.09912 14.3025 4.31641Q14.5195 4.5332 14.6836 4.78467L14.6836 4.78467Q14.8245 5.00049 14.9263 5.2417Q15.0251 5.4751 15.0813 5.71875L15.0813 5.71875Q15.1274 5.91943 15.1445 6.12695L14.0017 6.12695C13.5815 6.12695 13.2517 6.45703 13.2517 6.87695C13.2517 7.29688 13.5815 7.62695 14.0017 7.62695L15.1545 7.62695L15.1545 9.29834L13.0493 9.29834C12.6292 9.29834 12.2993 9.62842 12.2993 10.0483C12.2993 10.4683 12.6292 10.7983 13.0493 10.7983L15.1545 10.7983L15.1545 10.9243Q15.1545 11.2622 15.0806 11.583Q15.0244 11.8247 14.9263 12.0571Q14.8242 12.2988 14.6831 12.5146Q14.519 12.7656 14.3025 12.9824Q14.0859 13.1987 13.835 13.3628L13.8347 13.3628Q13.6189 13.5039 13.3774 13.606Q13.1453 13.7041 12.9033 13.7603L12.9028 13.7603Q12.5823 13.8345 12.2446 13.8345Z" clip-rule="evenodd" fill="#212121" fill-opacity="1.000000" fill-rule="evenodd"/>
		</g>
	</g>
</svg>
