<svg width="24.000000" height="24.000000" viewBox="0 0 24 24" fill="none" xmlns="http://www.w3.org/2000/svg" xmlns:xlink="http://www.w3.org/1999/xlink">
	<desc>
			Created with Pixso.
	</desc>
	<defs>
		<clipPath id="clip430_7407">
			<rect id="Iconly/Two-tone/Paper Fail" width="24.000000" height="24.000000" fill="white" fill-opacity="0"/>
		</clipPath>
	</defs>
	<rect id="Iconly/Two-tone/Paper Fail" width="24.000000" height="24.000000" fill="#FFFFFF" fill-opacity="0"/>
	<g clip-path="url(#clip430_7407)">
		<path id="Stroke 1" d="M7.97 2.76C5.91 2.76 4.24 4.43 4.24 6.49L4.24 17.33C4.24 19.51 6.01 21.11 8.18 21.11L16.07 21.11C18.13 21.11 19.8 19.39 19.8 17.33L19.8 8.03L14.73 2.76L7.97 2.76Z" stroke="#212121" stroke-opacity="1.000000" stroke-width="1.500000" stroke-linejoin="round"/>
		<path id="Stroke 3" d="M14.47 2.75L14.47 5.65C14.47 7.07 15.62 8.23 17.04 8.23C18.35 8.23 19.7 8.23 19.79 8.23" stroke="#212121" stroke-opacity="1.000000" stroke-width="1.500000" stroke-linejoin="round" stroke-linecap="round"/>
		<g opacity="0.400000">
			<path id="Union" d="M14.1072 11.7119L12.9043 12.915L14.1069 14.1177C14.4038 14.4146 14.4038 14.8813 14.1069 15.1782C13.8098 15.4751 13.3433 15.4751 13.0461 15.1782L11.8435 13.9756L10.6411 15.1782C10.344 15.4751 9.87744 15.4751 9.58032 15.1782C9.28345 14.8813 9.28345 14.4146 9.58032 14.1177L10.783 12.915L9.58008 11.7119C9.2832 11.415 9.2832 10.9482 9.58008 10.6514C9.8772 10.3545 10.3438 10.3545 10.6409 10.6514L11.8435 11.854L13.0464 10.6514C13.3435 10.3545 13.8101 10.3545 14.1072 10.6514C14.4041 10.9482 14.4041 11.415 14.1072 11.7119Z" clip-rule="evenodd" fill="#212121" fill-opacity="1.000000" fill-rule="evenodd"/>
		</g>
	</g>
</svg>
