<svg width="24.000000" height="24.000000" viewBox="0 0 24 24" fill="none" xmlns="http://www.w3.org/2000/svg" xmlns:xlink="http://www.w3.org/1999/xlink">
	<desc>
			Created with Pixso.
	</desc>
	<defs>
		<clipPath id="clip430_7349">
			<rect id="Iconly/Two-tone/Delete" width="24.000000" height="24.000000" fill="white" fill-opacity="0"/>
		</clipPath>
	</defs>
	<rect id="Iconly/Two-tone/Delete" width="24.000000" height="24.000000" fill="#FFFFFF" fill-opacity="0"/>
	<g clip-path="url(#clip430_7349)">
		<g opacity="0.400000" style="mix-blend-mode:normal">
			<path id="Stroke 1" d="M19.32 9.46C19.32 9.46 18.78 16.2 18.46 19.04C18.31 20.39 17.47 21.18 16.1 21.21C13.49 21.26 10.88 21.26 8.27 21.2C6.96 21.18 6.13 20.37 5.99 19.04C5.67 16.18 5.13 9.46 5.13 9.46" stroke="#212121" stroke-opacity="1.000000" stroke-width="1.500000" stroke-linejoin="round" stroke-linecap="round"/>
		</g>
		<path id="Stroke 3" d="M20.7 6.23L3.75 6.23" stroke="#212121" stroke-opacity="1.000000" stroke-width="1.500000" stroke-linejoin="round" stroke-linecap="round"/>
		<path id="Stroke 5" d="M17.44 6.23C16.65 6.23 15.97 5.68 15.82 4.91L15.58 3.69C15.43 3.13 14.92 2.75 14.34 2.75L10.11 2.75C9.53 2.75 9.02 3.13 8.87 3.69L8.63 4.91C8.47 5.68 7.8 6.23 7.01 6.23" stroke="#212121" stroke-opacity="1.000000" stroke-width="1.500000" stroke-linejoin="round" stroke-linecap="round"/>
	</g>
</svg>
