<svg width="24.000000" height="24.000000" viewBox="0 0 24 24" fill="none" xmlns="http://www.w3.org/2000/svg" xmlns:xlink="http://www.w3.org/1999/xlink">
	<desc>
			Created with Pixso.
	</desc>
	<defs>
		<clipPath id="clip430_7463">
			<rect id="Iconly/Two-tone/Work" width="24.000000" height="24.000000" fill="white" fill-opacity="0"/>
		</clipPath>
	</defs>
	<rect id="Iconly/Two-tone/Work" width="24.000000" height="24.000000" fill="#FFFFFF" fill-opacity="0"/>
	<g clip-path="url(#clip430_7463)">
		<g opacity="0.400000" style="mix-blend-mode:normal">
			<path id="Stroke 1" d="M2.8 15.47C2.8 15.47 2.94 17.21 2.97 17.76C3.02 18.49 3.3 19.31 3.78 19.88C4.45 20.69 5.23 20.98 6.29 20.98C7.52 20.98 16.52 20.98 17.75 20.98C18.81 20.98 19.59 20.69 20.26 19.88C20.74 19.31 21.02 18.49 21.07 17.76C21.1 17.21 21.24 15.47 21.24 15.47" stroke="#212121" stroke-opacity="1.000000" stroke-width="1.500000" stroke-linejoin="round" stroke-linecap="round"/>
		</g>
		<path id="Stroke 3" d="M8.49 5.32L8.49 4.95C8.49 3.73 9.48 2.75 10.7 2.75L13.28 2.75C14.5 2.75 15.49 3.73 15.49 4.95L15.49 5.32" stroke="#212121" stroke-opacity="1.000000" stroke-width="1.500000" stroke-linejoin="round" stroke-linecap="round"/>
		<path id="Stroke 5" d="M11.99 16.67L11.99 15.38" stroke="#212121" stroke-opacity="1.000000" stroke-width="1.500000" stroke-linejoin="round" stroke-linecap="round"/>
		<path id="Stroke 7" d="M2.75 11.85C4.66 13.12 6.96 14 9.48 14.35C9.79 13.25 10.78 12.45 11.99 12.45C13.17 12.45 14.19 13.25 14.47 14.36C17 14.01 19.31 13.13 21.24 11.85L21.24 8.38C21.24 6.69 19.87 5.33 18.18 5.33L5.81 5.33C4.12 5.33 2.75 6.69 2.75 8.38L2.75 11.85Z" stroke="#212121" stroke-opacity="1.000000" stroke-width="1.500000" stroke-linejoin="round"/>
	</g>
</svg>
