<svg width="24.000000" height="24.000000" viewBox="0 0 24 24" fill="none" xmlns="http://www.w3.org/2000/svg" xmlns:xlink="http://www.w3.org/1999/xlink">
	<desc>
			Created with Pixso.
	</desc>
	<defs>
		<clipPath id="clip430_7339">
			<rect id="Iconly/Two-tone/Setting" width="24.000000" height="24.000000" fill="white" fill-opacity="0"/>
		</clipPath>
	</defs>
	<rect id="Iconly/Two-tone/Setting" width="24.000000" height="24.000000" fill="#FFFFFF" fill-opacity="0"/>
	<g clip-path="url(#clip430_7339)">
		<path id="Path_33946" d="M20.18 6.54C19.65 5.62 18.49 5.31 17.57 5.83C17.13 6.09 16.62 6.16 16.13 6.04C15.64 5.91 15.22 5.59 14.96 5.16C14.8 4.88 14.71 4.56 14.71 4.24C14.72 3.72 14.53 3.22 14.16 2.85C13.8 2.48 13.31 2.27 12.79 2.27L11.54 2.27C11.03 2.27 10.55 2.47 10.19 2.83C9.83 3.19 9.63 3.68 9.63 4.19C9.62 5.23 8.77 6.07 7.72 6.07C7.4 6.07 7.08 5.98 6.81 5.82C5.89 5.29 4.72 5.61 4.2 6.52L3.53 7.62C3 8.53 3.31 9.7 4.22 10.23C4.82 10.57 5.18 11.2 5.18 11.88C5.18 12.57 4.82 13.2 4.22 13.54C3.32 14.07 3 15.23 3.53 16.14L4.16 17.23C4.41 17.67 4.82 18 5.31 18.14C5.8 18.28 6.33 18.22 6.77 17.97C7.21 17.72 7.73 17.65 8.21 17.78C8.7 17.91 9.12 18.23 9.37 18.67C9.53 18.94 9.62 19.26 9.63 19.58C9.63 20.64 10.48 21.5 11.54 21.5L12.79 21.5C13.85 21.5 14.7 20.64 14.71 19.59C14.7 19.08 14.9 18.59 15.26 18.24C15.62 17.88 16.11 17.68 16.62 17.68C16.94 17.69 17.25 17.77 17.53 17.93C18.45 18.46 19.61 18.15 20.14 17.24L20.8 16.14C21.06 15.7 21.13 15.18 21 14.69C20.87 14.2 20.55 13.78 20.11 13.53C19.67 13.28 19.35 12.86 19.22 12.37C19.09 11.88 19.16 11.36 19.41 10.92C19.58 10.63 19.82 10.39 20.11 10.23C21.01 9.7 21.32 8.54 20.8 7.63L20.8 7.62L20.18 6.54Z" stroke="#212121" stroke-opacity="1.000000" stroke-width="1.500000" stroke-linejoin="round"/>
		<g opacity="0.400000" style="mix-blend-mode:normal">
			<circle id="Ellipse_737" cx="12.175049" cy="11.889160" r="2.636156" stroke="#212121" stroke-opacity="1.000000" stroke-width="1.500000" stroke-linejoin="round"/>
		</g>
	</g>
</svg>
