<svg width="24.000000" height="24.000000" viewBox="0 0 24 24" fill="none" xmlns="http://www.w3.org/2000/svg" xmlns:xlink="http://www.w3.org/1999/xlink">
	<desc>
			Created with Pixso.
	</desc>
	<defs>
		<clipPath id="clip430_7676">
			<rect id="Iconly/Two-tone/Chat" width="24.000000" height="24.000000" fill="white" fill-opacity="0"/>
		</clipPath>
	</defs>
	<rect id="Iconly/Two-tone/Chat" width="24.000000" height="24.000000" fill="#FFFFFF" fill-opacity="0"/>
	<g clip-path="url(#clip430_7676)">
		<path id="Stroke 4" d="M7.78 21.07C7.23 20.85 6.79 20.67 6.36 20.67C5.17 20.68 3.7 21.83 2.93 21.06C2.16 20.29 3.31 18.82 3.31 17.62C3.31 17.2 3.14 16.76 2.92 16.21C1.21 12.5 1.87 7.98 4.93 4.92C8.83 1.02 15.16 1.02 19.07 4.92C22.97 8.83 22.97 15.16 19.07 19.06C16.01 22.12 11.48 22.78 7.78 21.07Z" stroke="#212121" stroke-opacity="1.000000" stroke-width="1.500000" stroke-linejoin="round"/>
		<g opacity="0.400000" style="mix-blend-mode:normal">
			<path id="Stroke 11" d="M15.93 12.41L15.94 12.41" stroke="#212121" stroke-opacity="1.000000" stroke-width="2.000000" stroke-linejoin="round" stroke-linecap="round"/>
		</g>
		<g opacity="0.400000" style="mix-blend-mode:normal">
			<path id="Stroke 13" d="M11.93 12.41L11.93 12.41" stroke="#212121" stroke-opacity="1.000000" stroke-width="2.000000" stroke-linejoin="round" stroke-linecap="round"/>
		</g>
		<g opacity="0.400000" style="mix-blend-mode:normal">
			<path id="Stroke 15" d="M7.92 12.41L7.93 12.41" stroke="#212121" stroke-opacity="1.000000" stroke-width="2.000000" stroke-linejoin="round" stroke-linecap="round"/>
		</g>
	</g>
</svg>
