<svg width="24.000000" height="24.000000" viewBox="0 0 24 24" fill="none" xmlns="http://www.w3.org/2000/svg" xmlns:xlink="http://www.w3.org/1999/xlink">
	<desc>
			Created with Pixso.
	</desc>
	<defs>
		<clipPath id="clip430_7645">
			<rect id="Iconly/Two-tone/Folder" width="24.000000" height="24.000000" fill="white" fill-opacity="0"/>
		</clipPath>
	</defs>
	<rect id="Iconly/Two-tone/Folder" width="24.000000" height="24.000000" fill="#FFFFFF" fill-opacity="0"/>
	<g clip-path="url(#clip430_7645)">
		<path id="Path_33957" d="M16.25 21.44L8.47 21.44C4.88 21.44 2.77 19.33 2.77 15.75L2.77 7.96C2.77 4.38 4.09 2.27 7.66 2.27L9.66 2.27C10.38 2.27 11.06 2.61 11.49 3.18L12.4 4.4C12.83 4.97 13.51 5.31 14.23 5.31L17.06 5.31C20.64 5.31 21.97 7.14 21.97 10.79L21.94 15.75C21.94 19.33 19.83 21.44 16.25 21.44Z" stroke="#212121" stroke-opacity="1.000000" stroke-width="1.500000" stroke-linejoin="round"/>
		<g opacity="0.400000" style="mix-blend-mode:normal">
			<path id="Line_194" d="M7.55 14.48L17.15 14.48" stroke="#212121" stroke-opacity="1.000000" stroke-width="1.500000" stroke-linejoin="round" stroke-linecap="round"/>
		</g>
	</g>
</svg>
