<svg width="24.000000" height="24.000000" viewBox="0 0 24 24" fill="none" xmlns="http://www.w3.org/2000/svg" xmlns:xlink="http://www.w3.org/1999/xlink">
	<desc>
			Created with Pixso.
	</desc>
	<defs>
		<clipPath id="clip430_7252">
			<rect id="Iconly/Two-tone/More Circle" width="24.000000" height="24.000000" fill="white" fill-opacity="0"/>
		</clipPath>
	</defs>
	<rect id="Iconly/Two-tone/More Circle" width="24.000000" height="24.000000" fill="#FFFFFF" fill-opacity="0"/>
	<g clip-path="url(#clip430_7252)">
		<path id="Stroke 1" d="M21.25 12C21.25 17.1 17.1 21.25 12 21.25C6.89 21.25 2.75 17.1 2.75 12C2.75 6.89 6.89 2.75 12 2.75C17.1 2.75 21.25 6.89 21.25 12Z" stroke="#212121" stroke-opacity="1.000000" stroke-width="1.500000" stroke-linejoin="round"/>
		<g opacity="0.400000" style="mix-blend-mode:normal">
			<path id="Fill 3" d="M7.52 13.19C6.85 13.19 6.32 12.66 6.32 12C6.32 11.34 6.85 10.8 7.52 10.8C8.18 10.8 8.71 11.34 8.71 12C8.71 12.66 8.18 13.19 7.52 13.19Z" fill="#212121" fill-opacity="1.000000" fill-rule="nonzero"/>
		</g>
		<g opacity="0.400000" style="mix-blend-mode:normal">
			<path id="Fill 5" d="M12 13.19C11.33 13.19 10.8 12.66 10.8 12C10.8 11.34 11.33 10.8 12 10.8C12.66 10.8 13.19 11.34 13.19 12C13.19 12.66 12.66 13.19 12 13.19Z" fill="#212121" fill-opacity="1.000000" fill-rule="nonzero"/>
		</g>
		<g opacity="0.400000" style="mix-blend-mode:normal">
			<path id="Fill 7" d="M16.47 13.19C15.81 13.19 15.28 12.66 15.28 12C15.28 11.34 15.81 10.8 16.47 10.8C17.14 10.8 17.67 11.34 17.67 12C17.67 12.66 17.14 13.19 16.47 13.19Z" fill="#212121" fill-opacity="1.000000" fill-rule="nonzero"/>
		</g>
	</g>
</svg>
