<svg width="24.000000" height="24.000000" viewBox="0 0 24 24" fill="none" xmlns="http://www.w3.org/2000/svg" xmlns:xlink="http://www.w3.org/1999/xlink">
	<desc>
			Created with Pixso.
	</desc>
	<defs>
		<clipPath id="clip430_7475">
			<rect id="Iconly/Two-tone/Danger" width="24.000000" height="24.000000" fill="white" fill-opacity="0"/>
		</clipPath>
	</defs>
	<rect id="Iconly/Two-tone/Danger" width="24.000000" height="24.000000" fill="#FFFFFF" fill-opacity="0"/>
	<g clip-path="url(#clip430_7475)">
		<g opacity="0.400000" style="mix-blend-mode:normal">
			<path id="Fill 1" d="M11.25 16.26C11.25 15.85 11.58 15.51 12 15.51C12.41 15.51 12.75 15.84 12.75 16.25L12.75 16.26C12.75 16.68 12.41 17.01 12 17.01C11.58 17.01 11.25 16.68 11.25 16.26Z" fill="#212121" fill-opacity="1.000000" fill-rule="nonzero"/>
		</g>
		<path id="Stroke 3" d="M4.79 20.41L19.27 20.41C20.42 20.35 21.3 19.38 21.24 18.23C21.23 18 21.18 17.77 21.09 17.55L13.81 4.82C13.26 3.81 11.99 3.45 10.99 4.01C10.65 4.19 10.36 4.48 10.18 4.82L2.9 17.55C2.47 18.62 2.98 19.83 4.04 20.26C4.26 20.35 4.49 20.4 4.72 20.41" stroke="#212121" stroke-opacity="1.000000" stroke-width="1.500000" stroke-linejoin="round" stroke-linecap="round"/>
		<g opacity="0.400000" style="mix-blend-mode:normal">
			<path id="Stroke 1" d="M11.98 13.39L11.98 10.29" stroke="#212121" stroke-opacity="1.000000" stroke-width="1.500000" stroke-linejoin="round" stroke-linecap="round"/>
		</g>
	</g>
</svg>
