<svg xmlns="http://www.w3.org/2000/svg" width="24.000000" height="24.000000"
     viewBox="0 0 24 24" fill="none">
    <desc>
        Created with Pixso.
    </desc>
    <defs>
        <clipPath id="clip6_6080">
            <rect id="Frame" width="24.000000" height="24.000000" fill="white" fill-opacity="0"/>
        </clipPath>
    </defs>
    <rect id="Frame" width="24.000000" height="24.000000" fill="#FFFFFF" fill-opacity="0"/>
    <g clip-path="url(#clip6_6080)">
        <path id="Vector"
              d="M16.77 0.01C16.72 -0.05 14.88 0.03 13.28 1.77C11.68 3.5 11.93 5.49 11.96 5.54C12 5.59 14.24 5.67 15.68 3.65C17.11 1.63 16.82 0.07 16.77 0.01ZM21.74 17.61C21.67 17.46 18.25 15.76 18.57 12.47C18.89 9.19 21.08 8.29 21.12 8.19C21.15 8.1 20.22 7.01 19.24 6.46C18.51 6.07 17.71 5.85 16.89 5.81C16.73 5.8 16.17 5.66 15.01 5.98C14.25 6.19 12.53 6.86 12.06 6.89C11.58 6.92 10.17 6.11 8.66 5.89C7.69 5.71 6.66 6.09 5.92 6.39C5.19 6.68 3.79 7.52 2.81 9.74C1.83 11.96 2.34 15.49 2.71 16.58C3.08 17.67 3.65 19.47 4.62 20.77C5.48 22.25 6.63 23.27 7.11 23.62C7.59 23.97 8.94 24.2 9.87 23.72C10.63 23.26 11.98 23 12.52 23.02C13.06 23.04 14.11 23.25 15.19 23.82C16.05 24.12 16.86 24 17.67 23.67C18.48 23.33 19.66 22.08 21.03 19.53C21.55 18.34 21.79 17.7 21.74 17.61Z"
              fill="#000000" fill-opacity="1.000000" fill-rule="nonzero"/>
        <path id="Vector"
              d="M16.77 0.01C16.72 -0.05 14.88 0.03 13.28 1.77C11.68 3.5 11.93 5.49 11.96 5.54C12 5.59 14.24 5.67 15.68 3.65C17.11 1.63 16.82 0.07 16.77 0.01ZM21.74 17.61C21.67 17.46 18.25 15.76 18.57 12.47C18.89 9.19 21.08 8.29 21.12 8.19C21.15 8.1 20.22 7.01 19.24 6.46C18.51 6.07 17.71 5.85 16.89 5.81C16.73 5.8 16.17 5.66 15.01 5.98C14.25 6.19 12.53 6.86 12.06 6.89C11.58 6.92 10.17 6.11 8.66 5.89C7.69 5.71 6.66 6.09 5.92 6.39C5.19 6.68 3.79 7.52 2.81 9.74C1.83 11.96 2.34 15.49 2.71 16.58C3.08 17.67 3.65 19.47 4.62 20.77C5.48 22.25 6.63 23.27 7.11 23.62C7.59 23.97 8.94 24.2 9.87 23.72C10.63 23.26 11.98 23 12.52 23.02C13.06 23.04 14.11 23.25 15.19 23.82C16.05 24.12 16.86 24 17.67 23.67C18.48 23.33 19.66 22.08 21.03 19.53C21.55 18.34 21.79 17.7 21.74 17.61Z"
              fill="#000000" fill-opacity="1.000000" fill-rule="nonzero"/>
    </g>
</svg>