<svg xmlns="http://www.w3.org/2000/svg" width="86.666992" height="86.671875"
     viewBox="0 0 86.667 86.6719" fill="none">
    <desc>
        Created with Pixso.
    </desc>
    <defs>
        <linearGradient x1="86.666679" y1="86.671799" x2="0.000008" y2="0.000000" id="paint_linear_6_4143_0"
                        gradientUnits="userSpaceOnUse">
            <stop stop-color="#06C149"/>
            <stop offset="1.000000" stop-color="#33EB75"/>
        </linearGradient>
    </defs>
    <path id="Vector"
          d="M23.63 7.87L23.63 40.19C23.63 40.8 22.98 41.18 22.43 40.92C18.96 39.28 14.85 38.78 10.52 40.29C5.24 42.18 1.18 46.87 0.23 52.39C-0.2 54.87 -0.04 57.42 0.71 59.82C1.46 62.23 2.78 64.42 4.55 66.21C6.32 68.01 8.49 69.35 10.89 70.13C13.28 70.91 15.83 71.11 18.32 70.71C26.04 69.48 31.51 62.39 31.51 54.55L31.51 37C31.51 36.5 31.97 36.13 32.46 36.23L62.4 42.6C62.77 42.67 63.03 43 63.03 43.37L63.03 55.95C63.03 56.56 62.37 56.94 61.82 56.68C58.35 55.04 54.24 54.54 49.91 56.05C44.63 57.94 40.57 62.63 39.63 68.14C39.19 70.63 39.35 73.18 40.1 75.58C40.85 77.99 42.17 80.18 43.94 81.97C45.71 83.76 47.88 85.11 50.28 85.89C52.67 86.67 55.22 86.87 57.71 86.46C65.43 85.24 70.9 78.15 70.9 70.31L70.9 32.3C70.9 31.86 71.26 31.51 71.69 31.51L78.78 31.51C83.12 31.51 86.66 27.96 86.66 23.63C86.66 19.3 83.12 15.75 78.78 15.75L70.9 15.75C66.57 15.75 63.03 19.3 63.03 23.63L63.03 33.7C63.03 34.2 62.56 34.58 62.07 34.47L32.14 28.11C31.77 28.03 31.51 27.71 31.51 27.34L31.51 16.54C31.51 16.1 31.87 15.75 32.3 15.75L39.39 15.75C43.72 15.75 47.27 12.21 47.27 7.87C47.27 3.54 43.72 0 39.39 0L31.51 0C27.18 0 23.63 3.54 23.63 7.87Z"
          fill="url(#paint_linear_6_4143_0)" fill-opacity="1.000000" fill-rule="nonzero"/>
</svg>