<svg xmlns="http://www.w3.org/2000/svg" width="250.000000" height="60.000000"
     viewBox="0 0 250 60" fill="none">
    <desc>
        Created with Pixso.
    </desc>
    <defs>
        <linearGradient x1="59.999996" y1="59.999992" x2="0.000008" y2="0.000004" id="paint_linear_13_11471_0"
                        gradientUnits="userSpaceOnUse">
            <stop stop-color="#06C149"/>
            <stop offset="1.000000" stop-color="#33EB75"/>
        </linearGradient>
    </defs>
    <rect id="Rectangle" rx="30.000000" width="60.000000" height="60.000000" fill="url(#paint_linear_13_11471_0)"
          fill-opacity="1.000000"/>
    <path id="Vector"
          d="M22.72 17.9L22.72 29.84C22.72 30.06 22.48 30.2 22.28 30.11C21 29.5 19.48 29.32 17.88 29.87C15.93 30.57 14.43 32.3 14.08 34.34C13.92 35.26 13.98 36.2 14.26 37.09C14.54 37.97 15.02 38.78 15.67 39.45C16.33 40.11 17.13 40.6 18.02 40.89C18.9 41.18 19.84 41.25 20.76 41.1C23.61 40.65 25.63 38.03 25.63 35.14L25.63 28.66C25.63 28.48 25.8 28.34 25.98 28.38L37.04 30.73C37.17 30.75 37.27 30.87 37.27 31.01L37.27 35.66C37.27 35.88 37.02 36.02 36.82 35.93C35.54 35.32 34.02 35.13 32.42 35.69C30.48 36.39 28.98 38.12 28.63 40.16C28.47 41.07 28.53 42.02 28.8 42.9C29.08 43.79 29.57 44.6 30.22 45.26C30.87 45.93 31.68 46.42 32.56 46.71C33.45 47 34.39 47.07 35.3 46.92C38.16 46.47 40.18 43.85 40.18 40.96L40.18 26.92C40.18 26.76 40.31 26.63 40.47 26.63L43.09 26.63C44.69 26.63 46 25.32 46 23.72C46 22.12 44.69 20.81 43.09 20.81L40.18 20.81C38.58 20.81 37.27 22.12 37.27 23.72L37.27 27.44C37.27 27.63 37.1 27.76 36.92 27.73L25.86 25.38C25.73 25.35 25.63 25.23 25.63 25.09L25.63 21.1C25.63 20.94 25.76 20.81 25.92 20.81L28.54 20.81C30.14 20.81 31.45 19.5 31.45 17.9C31.45 16.3 30.14 15 28.54 15L25.63 15C24.03 15 22.72 16.3 22.72 17.9Z"
          fill="#FFFFFF" fill-opacity="1.000000" fill-rule="nonzero"/>
    <path id="Hearme"
          d="M104.51 13.2L98.65 13.2L98.65 25.87L84.73 25.87L84.73 13.2L78.87 13.2L78.87 46.8L84.73 46.8L84.73 31.72L98.65 31.72L98.65 46.8L104.51 46.8L104.51 13.2ZM113.86 45.72C115.68 46.85 117.7 47.42 119.9 47.42C122.3 47.42 124.47 46.75 126.41 45.4C128.34 44.04 129.8 42.3 130.78 40.17L124.8 38.78C124.24 39.64 123.54 40.33 122.69 40.84C121.86 41.34 120.93 41.58 119.9 41.56C118.91 41.55 118.02 41.33 117.24 40.91C116.46 40.48 115.81 39.91 115.3 39.21C114.78 38.49 114.42 37.68 114.19 36.79L131.74 36.79C132.01 34.87 131.9 33.03 131.4 31.27C130.9 29.51 130.11 27.94 129.02 26.56C127.94 25.19 126.61 24.11 125.04 23.32C123.49 22.52 121.78 22.12 119.9 22.12Q118.23 22.12 116.69 22.57Q115.95 22.79 115.25 23.11Q114.25 23.56 113.36 24.17Q112.31 24.89 111.41 25.84C110.32 27 109.46 28.34 108.84 29.88C108.22 31.4 107.9 33.03 107.9 34.77C107.9 37.09 108.44 39.21 109.51 41.13C110.6 43.05 112.05 44.58 113.86 45.72ZM159.97 22.8L154.12 22.8L154.38 25.87C153.5 24.78 152.43 23.88 151.17 23.18C149.92 22.48 148.49 22.12 146.89 22.12C145.18 22.12 143.58 22.44 142.09 23.08C140.61 23.72 139.29 24.61 138.16 25.75C137.02 26.88 136.14 28.2 135.52 29.71C134.89 31.21 134.58 32.82 134.58 34.53C134.58 36.31 134.91 37.97 135.57 39.52C136.22 41.08 137.14 42.44 138.33 43.63C139.51 44.81 140.88 45.74 142.43 46.41C143.98 47.08 145.65 47.42 147.42 47.42C148.88 47.42 150.14 47.09 151.21 46.44C152.3 45.76 153.18 44.89 153.85 43.82L154.09 46.8L159.97 46.8L159.97 22.8ZM230.11 45.72C231.93 46.85 233.95 47.42 236.15 47.42C238.55 47.42 240.72 46.75 242.66 45.4C244.59 44.04 246.05 42.3 247.03 40.17L241.05 38.78C240.49 39.64 239.79 40.33 238.94 40.84C238.11 41.34 237.18 41.58 236.15 41.56C235.16 41.55 234.27 41.33 233.49 40.91C232.71 40.48 232.06 39.91 231.55 39.21C231.03 38.49 230.67 37.68 230.44 36.79L247.99 36.79Q248.33 34.37 247.86 32.13Q247.77 31.69 247.65 31.27C247.15 29.51 246.36 27.94 245.27 26.56C244.19 25.19 242.86 24.11 241.29 23.32C239.74 22.52 238.03 22.12 236.15 22.12C234.51 22.12 232.95 22.45 231.5 23.11Q230.5 23.56 229.61 24.17Q228.56 24.89 227.66 25.84C226.57 27 225.71 28.34 225.09 29.88C224.47 31.4 224.15 33.03 224.15 34.77C224.15 37.09 224.69 39.21 225.76 41.13Q226.8 42.97 228.28 44.32Q229.12 45.1 230.11 45.72ZM178.91 28.05C179.42 28.23 179.89 28.46 180.33 28.75L181.26 22.48C180.8 22.34 180.31 22.25 179.8 22.22C179.3 22.19 178.78 22.17 178.24 22.17Q176.43 22.17 174.93 22.86Q174.68 22.97 174.45 23.11C173.34 23.73 172.39 24.57 171.59 25.63L171.59 22.8L165.73 22.8L165.73 46.8L171.64 46.8L171.64 34.51C171.64 33.28 171.86 32.16 172.31 31.15C172.76 30.12 173.4 29.31 174.23 28.7C175.08 28.09 176.09 27.79 177.25 27.79C177.86 27.79 178.41 27.88 178.91 28.05ZM184.02 22.8L184.02 46.8L189.88 46.8L189.88 34.03C189.88 33.02 190.09 32.09 190.52 31.24C190.96 30.4 191.55 29.72 192.3 29.2C193.05 28.69 193.89 28.44 194.82 28.44C195.78 28.44 196.64 28.68 197.39 29.18C198.16 29.68 198.76 30.34 199.19 31.17C199.64 31.99 199.86 32.91 199.86 33.93L199.86 46.8L205.72 46.8L205.72 33.93Q205.72 32.51 206.27 31.35Q206.32 31.26 206.36 31.17C206.8 30.34 207.39 29.68 208.14 29.18C208.91 28.68 209.78 28.44 210.76 28.44C211.73 28.44 212.59 28.68 213.32 29.18C214.08 29.68 214.66 30.34 215.08 31.17C215.49 31.99 215.7 32.91 215.7 33.93L215.7 46.8L221.56 46.8L221.56 33.93Q221.56 31.6 220.77 29.59Q220.5 28.9 220.14 28.24C219.2 26.52 217.91 25.14 216.28 24.12C214.66 23.09 212.82 22.58 210.76 22.58C209.14 22.58 207.65 22.92 206.29 23.61C204.93 24.28 203.76 25.24 202.79 26.49C201.81 25.24 200.64 24.28 199.28 23.61C197.94 22.92 196.45 22.58 194.82 22.58Q193.72 22.58 192.79 22.97Q192.44 23.12 192.11 23.32C191.32 23.8 190.58 24.44 189.88 25.22L189.88 22.8L184.02 22.8ZM125.81 32.4L114 32.4C114.21 31.42 114.59 30.55 115.15 29.78C115.73 29 116.42 28.38 117.24 27.93Q117.75 27.64 118.29 27.47Q119.06 27.24 119.9 27.24C120.86 27.24 121.76 27.47 122.59 27.93C123.42 28.4 124.12 29.02 124.68 29.8C125.26 30.57 125.63 31.44 125.81 32.4ZM242.06 32.4L230.25 32.4C230.46 31.42 230.84 30.55 231.4 29.78C231.98 29 232.67 28.38 233.49 27.93Q234 27.64 234.54 27.47Q235.31 27.24 236.15 27.24C237.11 27.24 238.01 27.47 238.84 27.93C239.67 28.4 240.37 29.02 240.93 29.8C241.51 30.57 241.88 31.44 242.06 32.4ZM150.93 40.8C149.98 41.45 148.87 41.78 147.59 41.78Q146.82 41.78 146.08 41.61Q145.13 41.38 144.25 40.87C143.23 40.26 142.38 39.45 141.71 38.44C141.04 37.42 140.64 36.29 140.51 35.06C140.4 33.72 140.61 32.5 141.16 31.41C141.7 30.31 142.47 29.43 143.46 28.77C144.47 28.12 145.61 27.79 146.87 27.79Q148.12 27.79 149.19 28.21Q149.69 28.41 150.16 28.7C151.13 29.31 151.93 30.12 152.56 31.15C153.18 32.16 153.55 33.28 153.66 34.53C153.76 35.86 153.56 37.08 153.06 38.18C152.58 39.27 151.87 40.14 150.93 40.8Z"
          fill="#FFFFFF" fill-opacity="1.000000" fill-rule="evenodd"/>
</svg>