<svg xmlns="http://www.w3.org/2000/svg" width="237.000000"
     height="200.000000" viewBox="0 0 237 200" fill="none">
    <desc>
        Created with Pixso.
    </desc>
    <defs>
        <clipPath id="clip929_19842">
            <rect id="Frame" width="237.000000" height="200.000000" fill="white" fill-opacity="0"/>
        </clipPath>
    </defs>
    <rect id="Frame" width="237.000000" height="200.000000" fill="#FFFFFF" fill-opacity="0"/>
    <g clip-path="url(#clip929_19842)">
        <path id="Vector"
              d="M193.01 96.52C193.01 99.33 192.89 102.12 192.66 104.87C192.47 107.02 192.22 109.15 191.9 111.26C191.56 113.49 191.14 115.7 190.64 117.88L190.64 117.88C190.32 119.32 189.96 120.74 189.57 122.16C188.45 126.26 187.05 130.28 185.38 134.2C185.02 135.05 184.65 135.9 184.26 136.74C182.8 139.92 181.17 143.02 179.37 146.03C174.32 154.46 168.02 162.07 160.68 168.61C159.89 169.32 159.09 170.01 158.27 170.7C140.94 185.17 119.08 193.08 96.5 193.05C43.2 193.05 0 149.83 0 96.52C0 43.21 43.2 0 96.5 0C118.3 -0.04 139.46 7.34 156.51 20.92C157.31 21.56 158.1 22.2 158.88 22.87C162.68 26.09 166.23 29.6 169.49 33.37L169.5 33.37C184.7 50.9 193.05 73.32 193.01 96.52Z"
              fill="#F2F2F2" fill-opacity="1.000000" fill-rule="nonzero"/>
        <path id="Vector"
              d="M28.48 113.2C19.29 107.72 12.35 97.5 13.25 86.83C21.66 94.88 32.64 99.69 44.25 100.42C48.73 100.69 53.74 100.51 57.04 103.56C59.09 105.45 60.04 108.3 60.2 111.09C60.35 113.88 59.8 116.65 59.24 119.39L59.43 120.06C48.73 120.1 37.68 118.67 28.48 113.2Z"
              fill="#E6E6E6" fill-opacity="1.000000" fill-rule="nonzero"/>
        <path id="Vector"
              d="M13.48 86.82C17.16 94.88 23.29 101.56 30.99 105.94C32.64 106.87 34.4 107.66 36.27 108.03C38.1 108.38 39.99 108.23 41.73 107.6C43.38 107.04 44.99 106.29 46.74 106.14C48.58 105.99 50.29 106.7 51.63 107.95C53.27 109.47 54.26 111.49 55.17 113.5C56.17 115.74 57.18 118.07 59.1 119.68C59.34 119.87 59.02 120.22 58.79 120.03C55.44 117.23 54.89 112.56 52.22 109.26C50.97 107.73 49.25 106.56 47.21 106.59C45.42 106.62 43.75 107.4 42.1 107.97C40.36 108.58 38.61 108.86 36.77 108.59C34.89 108.32 33.1 107.59 31.43 106.71C27.65 104.69 24.22 102.08 21.25 98.99C17.84 95.48 15.06 91.41 13.03 86.96C12.9 86.69 13.35 86.55 13.48 86.82L13.48 86.82Z"
              fill="#FFFFFF" fill-opacity="1.000000" fill-rule="nonzero"/>
        <path id="Vector"
              d="M28.43 104.68C27.52 105.87 26.21 106.7 24.75 107.02C23.28 107.34 21.75 107.13 20.43 106.43C20.16 106.28 20.37 105.86 20.64 106C21.87 106.66 23.3 106.86 24.66 106.56C26.02 106.26 27.24 105.48 28.08 104.36C28.26 104.12 28.61 104.44 28.43 104.68L28.43 104.68Z"
              fill="#FFFFFF" fill-opacity="1.000000" fill-rule="nonzero"/>
        <path id="Vector"
              d="M40.94 107.99C40.56 104.95 39.04 102.16 36.7 100.19C36.46 99.99 36.78 99.64 37.01 99.84C39.45 101.89 41.02 104.8 41.41 107.96C41.45 108.27 40.98 108.29 40.94 107.99L40.94 107.99Z"
              fill="#FFFFFF" fill-opacity="1.000000" fill-rule="nonzero"/>
        <path id="Vector"
              d="M18.43 95.26C18.88 94.87 19.22 94.38 19.43 93.82C19.64 93.27 19.71 92.67 19.63 92.08C19.59 91.78 20.06 91.76 20.1 92.06C20.19 92.71 20.11 93.37 19.88 93.98C19.65 94.59 19.27 95.14 18.78 95.57C18.74 95.62 18.68 95.64 18.62 95.65C18.55 95.65 18.49 95.63 18.45 95.59C18.4 95.55 18.37 95.49 18.37 95.43C18.37 95.37 18.39 95.31 18.43 95.26L18.43 95.26Z"
              fill="#FFFFFF" fill-opacity="1.000000" fill-rule="nonzero"/>
        <path id="Vector"
              d="M43.01 66.18C43.04 66.36 43.07 66.55 43.11 66.74C43.54 69.26 44.17 71.73 45 74.15C45.06 74.33 45.12 74.52 45.19 74.71C47.25 80.5 50.37 85.87 54.38 90.52C55.98 92.37 57.72 94.1 59.58 95.69C62.16 97.88 65.12 100.05 66.77 102.89C66.94 103.18 67.1 103.48 67.24 103.8L60.24 119.77C60.2 119.8 60.17 119.83 60.14 119.86L59.89 120.51C59.78 120.44 59.68 120.36 59.58 120.28C59.52 120.24 59.46 120.19 59.4 120.15C59.36 120.12 59.33 120.09 59.29 120.06C59.28 120.05 59.26 120.04 59.25 120.03C59.22 120.01 59.18 119.98 59.15 119.96C58.57 119.51 57.99 119.06 57.41 118.6C57.41 118.6 57.41 118.6 57.41 118.6C53.01 115.11 48.87 111.23 45.45 106.84C45.35 106.7 45.24 106.57 45.14 106.43C43.61 104.44 42.24 102.34 41.06 100.13C40.41 98.91 39.82 97.67 39.3 96.4C37.97 93.11 37.15 89.63 36.89 86.09C36.38 79.04 38.13 71.89 42.66 66.58C42.78 66.44 42.89 66.31 43.01 66.18Z"
              fill="#E6E6E6" fill-opacity="1.000000" fill-rule="nonzero"/>
        <path id="Vector"
              d="M43.2 66.3C41.29 74.95 42.16 83.98 45.67 92.11C46.44 93.85 47.36 95.54 48.63 96.96C49.88 98.34 51.48 99.35 53.25 99.9C54.9 100.45 56.64 100.82 58.13 101.76C59.69 102.75 60.62 104.34 60.95 106.14C61.34 108.35 60.91 110.56 60.43 112.71C59.88 115.1 59.28 117.57 59.85 120.01C59.92 120.31 59.46 120.4 59.39 120.1C58.4 115.85 60.78 111.79 60.62 107.55C60.55 105.57 59.88 103.6 58.23 102.4C56.79 101.34 54.99 100.96 53.32 100.42C51.56 99.86 50 99.03 48.69 97.71C47.36 96.36 46.36 94.7 45.56 92.99C43.76 89.1 42.59 84.95 42.08 80.7C41.47 75.84 41.7 70.92 42.75 66.14C42.82 65.85 43.26 66.01 43.2 66.3Z"
              fill="#FFFFFF" fill-opacity="1.000000" fill-rule="nonzero"/>
        <path id="Vector"
              d="M44.39 89.56C42.94 89.96 41.4 89.84 40.04 89.22C38.68 88.59 37.58 87.5 36.95 86.14C36.82 85.86 37.25 85.65 37.37 85.93C37.96 87.2 38.98 88.21 40.25 88.79C41.52 89.37 42.96 89.48 44.3 89.1C44.59 89.01 44.68 89.48 44.39 89.56L44.39 89.56Z"
              fill="#FFFFFF" fill-opacity="1.000000" fill-rule="nonzero"/>
        <path id="Vector"
              d="M52.38 99.74C53.91 97.08 54.38 93.94 53.69 90.95C53.62 90.66 54.09 90.57 54.16 90.86C54.86 93.98 54.37 97.24 52.78 100C52.62 100.27 52.23 100 52.38 99.74Z"
              fill="#FFFFFF" fill-opacity="1.000000" fill-rule="nonzero"/>
        <path id="Vector"
              d="M42.07 76.02C42.66 75.98 43.24 75.79 43.74 75.48C44.24 75.16 44.65 74.72 44.95 74.21C45.09 73.94 45.49 74.21 45.34 74.47C45.01 75.04 44.55 75.52 44 75.87C43.45 76.22 42.82 76.43 42.16 76.48C42.1 76.49 42.04 76.48 41.99 76.44C41.94 76.41 41.9 76.35 41.89 76.29C41.87 76.23 41.89 76.17 41.92 76.12C41.96 76.07 42.01 76.03 42.07 76.02L42.07 76.02Z"
              fill="#FFFFFF" fill-opacity="1.000000" fill-rule="nonzero"/>
        <path id="Vector" d="M66.85 22.37L78.66 160.67L55.04 162.45L55.04 24.13C57.85 22.26 61.89 21.97 66.85 22.37Z"
              fill="#CCCCCC" fill-opacity="1.000000" fill-rule="nonzero"/>
        <path id="Vector"
              d="M125.16 22.37L113.34 160.67L136.97 162.45L136.97 24.13C134.15 22.26 130.11 21.97 125.16 22.37Z"
              fill="#CCCCCC" fill-opacity="1.000000" fill-rule="nonzero"/>
        <path id="Vector"
              d="M133.43 168.16L58.32 168.16C57.12 168.16 55.96 167.68 55.11 166.83C54.26 165.98 53.78 164.83 53.78 163.62L53.78 26.16C53.78 24.95 54.26 23.8 55.11 22.95C55.96 22.09 57.12 21.61 58.32 21.61L133.43 21.61C134.63 21.61 135.79 22.09 136.64 22.95C137.49 23.8 137.97 24.95 137.97 26.16L137.97 163.62C137.97 164.83 137.49 165.98 136.64 166.83C135.79 167.68 134.63 168.16 133.43 168.16ZM58.32 23.12C57.52 23.12 56.75 23.44 56.18 24.01C55.61 24.58 55.29 25.35 55.29 26.16L55.29 163.62C55.29 164.43 55.61 165.2 56.18 165.77C56.75 166.33 57.52 166.66 58.32 166.66L133.43 166.66C134.23 166.66 135.01 166.33 135.57 165.77C136.14 165.2 136.46 164.43 136.46 163.62L136.46 26.16C136.46 25.35 136.14 24.58 135.57 24.01C135.01 23.44 134.23 23.12 133.43 23.12L58.32 23.12Z"
              fill="#CCCCCC" fill-opacity="1.000000" fill-rule="nonzero"/>
        <path id="Vector" d="M54.53 44.49L137.22 44.49L137.22 46L54.53 46L54.53 44.49Z" fill="#CCCCCC"
              fill-opacity="1.000000" fill-rule="evenodd"/>
        <path id="Vector" d="M54.53 69.63L137.22 69.63L137.22 71.13L54.53 71.13L54.53 69.63Z" fill="#CCCCCC"
              fill-opacity="1.000000" fill-rule="evenodd"/>
        <path id="Vector" d="M79.86 22.37L81.37 22.37L81.37 90.99L79.86 90.99L79.86 22.37Z" fill="#CCCCCC"
              fill-opacity="1.000000" fill-rule="evenodd"/>
        <path id="Vector" d="M110.39 22.37L111.89 22.37L111.89 90.99L110.39 90.99L110.39 22.37Z" fill="#CCCCCC"
              fill-opacity="1.000000" fill-rule="evenodd"/>
        <path id="Vector"
              d="M146.64 172.31L47.62 172.31C45.82 172.31 44.1 171.6 42.82 170.32C41.55 169.05 40.84 167.32 40.84 165.52C40.84 163.72 41.55 162 42.82 160.73C44.1 159.45 45.82 158.74 47.62 158.74L146.64 158.74C148.44 158.74 150.17 159.45 151.44 160.73C152.72 162 153.43 163.72 153.43 165.52C153.43 167.32 152.72 169.05 151.44 170.32C150.17 171.6 148.44 172.31 146.64 172.31Z"
              fill="#CCCCCC" fill-opacity="1.000000" fill-rule="nonzero"/>
        <path id="Vector" d="M55.04 87.47L137.22 87.47L137.22 92.5L55.04 92.5L55.04 87.47Z" fill="#CCCCCC"
              fill-opacity="1.000000" fill-rule="evenodd"/>
        <path id="Vector"
              d="M81.6 103.47L81.49 103.42C75.89 100.72 68.56 100.72 57.71 103.43L57.59 103.46L57.55 103.35C56.41 99.58 55.11 95.32 57.55 93.22C57.58 87.07 62.98 82.07 69.61 82.07C76.24 82.07 81.64 87.06 81.67 93.22C85.31 96 83.58 100.1 81.66 103.37L81.6 103.47Z"
              fill="#2F2E41" fill-opacity="1.000000" fill-rule="nonzero"/>
        <path id="Vector"
              d="M116.03 90.29C115.93 90.79 115.72 91.26 115.42 91.67C115.12 92.08 114.73 92.42 114.29 92.66C113.84 92.91 113.35 93.05 112.84 93.08C112.33 93.11 111.82 93.03 111.35 92.84L91.55 112.74L89.78 106.57L109.45 88.09C109.81 87.31 110.45 86.7 111.24 86.36C112.03 86.03 112.91 85.99 113.72 86.26C114.53 86.54 115.22 87.1 115.64 87.84C116.07 88.58 116.21 89.46 116.03 90.29L116.03 90.29Z"
              fill="#FFB6B6" fill-opacity="1.000000" fill-rule="nonzero"/>
        <path id="Vector"
              d="M67.1 109.45C67.1 109.45 65.3 113.52 69.74 116.03C74.17 118.54 89.66 115.08 92.17 114.59C94.69 114.11 104.08 100.06 104.08 100.06L102.75 93.16L90.3 103.97L67.1 109.45Z"
              fill="#06C149" fill-opacity="1.000000" fill-rule="nonzero"/>
        <path id="Vector"
              d="M63.83 131.97L64.08 136.74C64.08 136.74 63.34 140.97 63.95 141.89C64.56 142.79 81.08 142.91 81.08 142.91C81.08 142.91 82.17 137.02 83.11 131.87L63.83 131.97Z"
              fill="#FFB6B6" fill-opacity="1.000000" fill-rule="nonzero"/>
        <path id="Vector" d="M111.34 195.12L114.79 194.42L113.8 180.46L108.7 181.49L111.34 195.12Z" fill="#FFB6B6"
              fill-opacity="1.000000" fill-rule="nonzero"/>
        <path id="Vector" d="M116.28 176.96L119.5 175.51L115.33 162.16L110.59 164.29L116.28 176.96Z" fill="#FFB6B6"
              fill-opacity="1.000000" fill-rule="nonzero"/>
        <path id="Vector"
              d="M119.08 169.43L113.03 172.86L98.12 148.89C87.65 155.95 77.42 159.32 67.1 161.13C63.61 161.75 60.05 161.43 59.38 157.88C59.35 157.71 59.33 157.55 59.31 157.38C58.9 153.5 63.72 148.53 64.33 143.78L77.54 142.99L79.17 145.08L94.44 135.69C97.51 133.8 101.55 134.82 103.46 137.97C103.56 138.13 103.65 138.3 103.74 138.48L119.08 169.43Z"
              fill="#2F2E41" fill-opacity="1.000000" fill-rule="nonzero"/>
        <path id="Vector"
              d="M115.38 185.56L108.46 186.2L95.92 160.54C83.48 162.68 71.74 163.36 61.59 160.78C58.15 159.91 56.05 156.36 56.9 152.85C56.94 152.68 56.98 152.52 57.04 152.36C58.25 148.65 61.43 146.03 63.94 141.95L82.24 142.23L80.19 149.28L97.97 146.98C101.55 146.52 104.81 149.11 105.26 152.77C105.29 152.96 105.3 153.15 105.31 153.35L115.38 185.56Z"
              fill="#2F2E41" fill-opacity="1.000000" fill-rule="nonzero"/>
        <path id="Vector"
              d="M78.41 92.39C78.41 96.5 75.08 99.83 70.98 99.83C66.87 99.83 63.55 96.5 63.55 92.39C63.55 88.29 66.87 84.96 70.98 84.96C75.08 84.96 78.41 88.29 78.41 92.39Z"
              fill="#FFB6B6" fill-opacity="1.000000" fill-rule="evenodd"/>
        <path id="Vector"
              d="M66.62 102.51L73.43 103.31C73.72 103.34 73.99 103.47 74.21 103.66C74.42 103.85 74.57 104.11 74.63 104.39L75.71 109.35L82.47 117.31C82.47 117.31 84.89 121.86 83.98 127.01C83.08 132.17 82.68 136 82.68 136C82.68 136 64.56 142.79 63.95 141.89C63.34 140.98 63.15 136.84 63.15 136.84L60.72 109.85C60.72 109.85 63.45 105.3 64.97 105.3C65.94 105.27 65.82 103.07 66.62 102.51Z"
              fill="#06C149" fill-opacity="1.000000" fill-rule="nonzero"/>
        <path id="Vector"
              d="M84.59 135.58C84.59 136.73 83.82 137.66 82.86 137.66C81.9 137.66 81.13 136.73 81.13 135.58C81.13 134.44 81.9 133.51 82.86 133.51C83.82 133.51 84.59 134.44 84.59 135.58Z"
              fill="#06C149" fill-opacity="1.000000" fill-rule="evenodd"/>
        <path id="Vector"
              d="M109.62 191.52L114.89 188.88L115.88 191.2L122.54 192.55C122.87 192.61 123.17 192.78 123.39 193.03C123.62 193.28 123.76 193.59 123.79 193.93C123.83 194.26 123.76 194.6 123.59 194.89C123.42 195.18 123.16 195.4 122.85 195.54L116.41 198.29L114.32 196.48L114.87 198.96L112.45 200L109.62 191.52Z"
              fill="#2F2E41" fill-opacity="1.000000" fill-rule="nonzero"/>
        <path id="Vector"
              d="M114.78 175.85L120 173.11L121.03 175.41L127.71 176.64C128.04 176.7 128.34 176.87 128.57 177.11C128.8 177.36 128.95 177.67 128.99 178C129.03 178.33 128.96 178.67 128.8 178.96C128.63 179.26 128.38 179.49 128.07 179.62L121.69 182.5L119.56 180.72L120.16 183.18L117.75 184.27L114.78 175.85Z"
              fill="#2F2E41" fill-opacity="1.000000" fill-rule="nonzero"/>
        <path id="Vector"
              d="M66.73 90.06C64.77 90.06 62.85 89.46 61.25 88.33L61.19 88.29L61.19 88.23C61.19 86.33 61.95 84.51 63.29 83.16C64.64 81.82 66.46 81.06 68.36 81.06L71.37 81.06C73.27 81.06 75.09 81.82 76.43 83.16C77.78 84.51 78.53 86.33 78.53 88.23C78.53 88.66 78.36 89.08 78.06 89.39C77.75 89.7 77.34 89.88 76.9 89.89L66.9 90.06C66.84 90.06 66.79 90.06 66.73 90.06Z"
              fill="#2F2E41" fill-opacity="1.000000" fill-rule="nonzero"/>
        <path id="Vector"
              d="M79.4 83.45C80.16 84.77 80 86.3 79.04 86.85C78.08 87.41 76.68 86.78 75.91 85.46C75.15 84.14 75.31 82.62 76.27 82.06C77.23 81.51 78.63 82.13 79.4 83.45Z"
              fill="#2F2E41" fill-opacity="1.000000" fill-rule="evenodd"/>
        <path id="Vector"
              d="M64.53 82C65.32 82.78 65.08 84.3 64 85.38C62.92 86.46 61.41 86.69 60.62 85.91C59.83 85.12 60.07 83.61 61.15 82.53C62.23 81.45 63.75 81.21 64.53 82Z"
              fill="#2F2E41" fill-opacity="1.000000" fill-rule="evenodd"/>
        <path id="Vector"
              d="M129.77 153.33L122.35 153.33C122.18 153.33 122.01 153.37 121.86 153.44C121.71 153.51 121.58 153.61 121.47 153.74C121.19 153.69 120.91 153.7 120.65 153.78C120.38 153.86 120.14 154.01 119.93 154.2C119.73 154.39 119.58 154.63 119.49 154.89C119.4 155.15 119.37 155.43 119.41 155.71C119.44 155.98 119.55 156.25 119.71 156.48C119.87 156.7 120.08 156.89 120.32 157.02C120.57 157.15 120.84 157.22 121.12 157.23C121.4 157.23 121.67 157.17 121.92 157.05L122.54 159.05C122.61 159.29 122.76 159.5 122.96 159.64C123.16 159.79 123.4 159.87 123.64 159.87L128.47 159.87C128.72 159.87 128.96 159.79 129.16 159.64C129.35 159.5 129.5 159.29 129.57 159.05L130.87 154.83C130.92 154.66 130.94 154.48 130.91 154.3C130.88 154.12 130.8 153.95 130.7 153.8C130.59 153.66 130.45 153.54 130.29 153.46C130.12 153.38 129.95 153.33 129.77 153.33ZM121.15 156.73C120.82 156.73 120.5 156.59 120.27 156.36C120.03 156.12 119.9 155.8 119.9 155.47C119.9 155.14 120.03 154.82 120.27 154.58C120.5 154.35 120.82 154.21 121.15 154.21C121.18 154.21 121.2 154.22 121.22 154.22C121.17 154.42 121.18 154.63 121.24 154.83L121.77 156.56C121.58 156.67 121.37 156.73 121.15 156.73Z"
              fill="#3F3D56" fill-opacity="1.000000" fill-rule="nonzero"/>
        <path id="Vector"
              d="M96.64 147.88C96.14 147.92 95.63 147.86 95.15 147.69C94.67 147.52 94.23 147.24 93.87 146.88C93.51 146.52 93.23 146.09 93.06 145.61C92.88 145.14 92.81 144.63 92.86 144.12L68.12 130.86L73.53 127.39L96.87 140.93C97.71 141.06 98.48 141.49 99.03 142.15C99.58 142.81 99.87 143.65 99.84 144.5C99.81 145.36 99.47 146.18 98.88 146.8C98.29 147.42 97.5 147.8 96.64 147.88Z"
              fill="#FFB6B6" fill-opacity="1.000000" fill-rule="nonzero"/>
        <path id="Vector"
              d="M64.25 106.49C64.25 106.49 59.84 105.94 58.71 110.9C57.57 115.87 65.34 129.72 66.53 131.99C67.71 134.26 83.86 139.22 83.86 139.22L90.08 135.97L76.16 127.14L64.25 106.49Z"
              fill="#06C149" fill-opacity="1.000000" fill-rule="nonzero"/>
        <path id="Vector"
              d="M95.37 85.96L96.88 85.96C97.61 85.96 98.32 86.26 98.84 86.77C99.35 87.29 99.65 88 99.65 88.73L92.61 88.73C92.61 88 92.9 87.29 93.42 86.77C93.94 86.26 94.64 85.96 95.37 85.96Z"
              fill="#CCCCCC" fill-opacity="1.000000" fill-rule="nonzero"/>
        <path id="Vector"
              d="M62.5 19.43C62.5 27.68 55.81 34.37 47.56 34.37C39.31 34.37 32.62 27.68 32.62 19.43C32.62 11.18 39.31 4.49 47.56 4.49C55.81 4.49 62.5 11.18 62.5 19.43Z"
              fill="#FF6584" fill-opacity="1.000000" fill-rule="evenodd"/>
        <path id="Vector"
              d="M93.3 18.65C89.34 14.51 84.75 10.72 79.32 8.72C77.8 8.16 76.23 7.77 74.63 7.54C74.62 7.54 74.61 7.54 74.6 7.54C74.57 7.54 74.54 7.53 74.52 7.53C72.28 7.24 70.01 7.38 67.83 7.93C66.76 8.2 65.71 8.56 64.71 9.02C63.7 9.51 62.73 10.06 61.79 10.67C59.8 11.87 57.61 12.68 55.33 13.08C54.18 13.29 53.02 13.41 51.86 13.43C50.85 13.45 49.9 13.48 48.94 13.85C47.92 14.23 47 14.85 46.26 15.65C45.52 16.45 44.97 17.42 44.67 18.47C44.65 18.56 44.66 18.66 44.69 18.75C44.73 18.84 44.79 18.91 44.87 18.96C45.13 19.15 45.39 19.36 45.66 19.52C45.9 19.63 46.16 19.7 46.42 19.73C46.85 19.82 47.29 19.91 47.72 20C49.32 20.31 50.92 20.59 52.53 20.84C55.79 21.33 59.06 21.68 62.36 21.88C68.95 22.28 75.57 22.08 82.13 21.29C85.82 20.84 89.48 20.21 93.1 19.39C93.18 19.37 93.24 19.33 93.3 19.27C93.35 19.22 93.39 19.15 93.41 19.08C93.43 19 93.43 18.92 93.41 18.85C93.39 18.78 93.35 18.71 93.3 18.65Z"
              fill="#E6E6E6" fill-opacity="1.000000" fill-rule="nonzero"/>
        <path id="Vector"
              d="M48.27 28.64C46.75 28.08 45.18 27.69 43.58 27.47C43.57 27.47 43.56 27.47 43.54 27.47C43.52 27.46 43.49 27.45 43.47 27.45C41.23 27.17 38.96 27.3 36.77 27.85C35.71 28.12 34.66 28.49 33.66 28.94C32.65 29.43 31.68 29.99 30.74 30.6C28.75 31.79 26.56 32.6 24.28 33.01C23.13 33.21 21.97 33.33 20.81 33.35C19.8 33.37 18.84 33.4 17.89 33.77C16.87 34.15 15.95 34.77 15.21 35.57C14.47 36.38 13.92 37.34 13.62 38.39C13.6 38.48 13.61 38.58 13.64 38.67C13.68 38.76 13.74 38.83 13.82 38.89C14.08 39.07 14.33 39.28 14.61 39.45C14.85 39.56 15.11 39.63 15.37 39.66C15.8 39.75 16.24 39.83 16.67 39.92C18.27 40.24 19.87 40.52 21.48 40.76C24.74 41.25 28.01 41.6 31.31 41.8C37.9 42.2 44.52 42 51.08 41.21C54.77 40.76 58.43 40.13 62.05 39.31C62.13 39.29 62.19 39.25 62.25 39.19C62.3 39.14 62.34 39.07 62.36 39C62.38 38.92 62.38 38.85 62.36 38.77C62.34 38.7 62.3 38.63 62.25 38.58C58.29 34.43 53.7 30.64 48.27 28.64Z"
              fill="#E6E6E6" fill-opacity="1.000000" fill-rule="nonzero"/>
        <path id="Vector" d="M156 140.03L144.51 124.94L135.45 130.07L154.65 152.88L156 140.03Z" fill="#3F3D56"
              fill-opacity="1.000000" fill-rule="nonzero"/>
        <path id="Vector"
              d="M182.46 115.5C182.72 121.82 183.7 128.1 185.38 134.2C185.02 135.05 184.65 135.9 184.26 136.74C182.8 139.92 181.17 143.02 179.37 146.03C174.32 154.46 168.02 162.07 160.68 168.61C159.89 169.32 159.09 170.01 158.27 170.7C153.62 164.28 151.11 157.2 150.11 149.92C149.99 148.99 149.89 148.06 149.81 147.13L149.81 147.12C149.62 144.86 149.56 142.59 149.62 140.32C149.63 140.14 149.63 139.96 149.64 139.78C149.73 137.35 149.95 134.92 150.27 132.52L150.27 132.52C150.31 132.24 150.35 131.96 150.39 131.69C150.51 130.86 150.65 130.03 150.8 129.2C151.66 124.45 152.87 119.76 154.4 115.18L154.4 115.18C154.44 115.04 154.49 114.91 154.53 114.78C154.7 114.29 154.87 113.79 155.04 113.3C155.05 113.26 155.07 113.22 155.08 113.19C155.31 112.54 155.53 111.9 155.77 111.27C155.83 111.1 155.9 110.92 155.97 110.74C156.23 110.04 156.5 109.34 156.77 108.64C156.86 108.42 156.95 108.2 157.03 107.98C157.1 107.81 157.17 107.65 157.24 107.48L157.24 107.48C157.64 106.49 158.04 105.52 158.45 104.57C159.6 101.9 160.78 99.39 161.93 97.08L161.93 97.07C166.71 87.49 171.06 81.26 171.06 81.26L187.36 86.54C185.42 89.99 183.91 95.08 183.09 101.09C182.45 105.86 182.24 110.68 182.46 115.49L182.46 115.5Z"
              fill="#3F3D56" fill-opacity="1.000000" fill-rule="nonzero"/>
        <path id="Vector"
              d="M155.36 113.96C155.26 113.74 155.15 113.52 155.04 113.3C154.47 112.19 153.73 111.17 152.85 110.28C152.72 110.15 152.59 110.02 152.45 109.89C150.93 108.5 149.09 107.51 147.09 107.01C145.1 106.52 143.01 106.53 141.02 107.06L141.01 107.07L140.93 107.09L140.95 107.17C141.02 107.57 141.13 107.96 141.28 108.34C141.31 108.44 141.36 108.54 141.4 108.64C141.42 108.68 141.44 108.72 141.46 108.77C141.46 108.77 141.46 108.77 141.46 108.77C141.46 108.77 141.46 108.78 141.46 108.78C141.51 108.87 141.56 108.97 141.61 109.06C141.5 108.96 141.41 108.86 141.31 108.76C141.22 108.66 141.13 108.56 141.05 108.46C140.75 108.12 140.49 107.75 140.25 107.37L140.21 107.3L140.14 107.33C139.2 107.66 138.29 108.1 137.45 108.65L137.36 108.71C136.72 109.13 135.99 109.41 135.24 109.54C134.48 109.66 133.7 109.62 132.96 109.43C131.79 109.13 130.57 109.07 129.37 109.27C128.18 109.46 127.04 109.9 126.02 110.56C125.35 111 124.75 111.53 124.22 112.14C124.18 112.19 124.13 112.24 124.08 112.3C123.99 112.41 123.9 112.53 123.81 112.65C122.87 113.91 122.29 115.41 122.13 116.98L122.13 117.04L122.18 117.07C123.03 117.66 123.99 118.06 125 118.25C124.37 118.34 123.72 118.35 123.08 118.3L123.08 118.3C122.79 118.27 122.5 118.23 122.22 118.18L122.16 118.17L122.16 118.17L122.09 118.15L122.1 118.27C122.18 119.81 122.66 121.3 123.5 122.59L123.53 122.62C123.54 122.63 123.55 122.65 123.55 122.66C123.91 123.21 124.21 123.79 124.44 124.4C125.03 125.91 125.16 127.56 124.81 129.15C124.42 130.85 124.55 132.62 125.18 134.25C125.82 135.87 126.92 137.26 128.36 138.25C129.62 139.11 131.09 139.63 132.62 139.74C132.83 139.76 133.04 139.77 133.25 139.77C134.46 139.77 135.65 139.52 136.76 139.04L136.8 139.02L136.81 138.98C137.02 138.29 137.32 137.63 137.7 137.02C137.58 137.5 137.52 138 137.52 138.5L137.52 138.66L137.66 138.58C137.78 138.51 137.91 138.43 138.02 138.36C138.7 137.91 139.31 137.38 139.85 136.77C140.06 136.53 140.27 136.29 140.49 136.06L140.49 136.06C140.92 135.6 141.38 135.15 141.85 134.72C142.85 133.82 143.93 133 145.06 132.27C146.2 131.54 147.39 130.89 148.62 130.34L148.62 130.34C148.76 130.27 148.9 130.21 149.04 130.15C149.65 129.88 150.24 129.57 150.8 129.2C150.82 129.19 150.84 129.18 150.85 129.17C153.28 127.58 155.07 125.18 155.89 122.39C156.72 119.61 156.53 116.62 155.36 113.96L155.36 113.96Z"
              fill="#06C149" fill-opacity="1.000000" fill-rule="nonzero"/>
        <g opacity="0.150000">
            <path id="Vector"
                  d="M125.22 132.72C125.16 133.03 125.1 133.33 125.07 133.64C124.6 132.17 124.53 130.59 124.87 129.08C124.93 128.85 124.96 128.61 125 128.38C125.46 129.78 125.54 131.28 125.22 132.72Z"
                  fill="#000000" fill-opacity="1.000000" fill-rule="nonzero"/>
        </g>
        <g opacity="0.150000">
            <path id="Vector"
                  d="M125.42 121.82C124.67 121.92 123.92 121.92 123.17 121.83C122.98 121.46 122.81 121.08 122.67 120.68C123.5 121.24 124.43 121.63 125.42 121.82Z"
                  fill="#000000" fill-opacity="1.000000" fill-rule="nonzero"/>
        </g>
        <g opacity="0.150000">
            <path id="Vector"
                  d="M123.11 118.22C122.84 118.92 122.65 119.65 122.57 120.4C122.34 119.69 122.2 118.95 122.16 118.2L122.16 118.08L122.28 118.1C122.55 118.15 122.83 118.19 123.11 118.22Z"
                  fill="#000000" fill-opacity="1.000000" fill-rule="nonzero"/>
        </g>
        <g opacity="0.150000">
            <path id="Vector"
                  d="M126.09 110.49C127.1 109.83 128.24 109.39 129.43 109.19C130.63 108.99 131.85 109.05 133.02 109.35C133.76 109.55 134.54 109.59 135.3 109.46C136.06 109.34 136.78 109.06 137.42 108.63L137.51 108.57C138.35 108.03 139.26 107.58 140.21 107.25L140.28 107.23L140.32 107.29C140.69 107.91 141.15 108.48 141.67 108.98C141.35 108.39 141.13 107.75 141.01 107.1L140.99 107.01L141.08 106.99C142.95 106.49 144.9 106.45 146.79 106.85C148.68 107.26 150.44 108.1 151.94 109.32C153.44 110.54 154.62 112.1 155.41 113.86C156.19 115.63 156.54 117.55 156.44 119.48C156.04 117.91 155.34 116.43 154.37 115.13C153.4 113.83 152.18 112.74 150.78 111.92C149.39 111.1 147.84 110.56 146.24 110.34C144.63 110.11 143 110.21 141.43 110.63L141.35 110.65L141.36 110.74C141.48 111.4 141.7 112.04 142.02 112.63C141.5 112.12 141.05 111.56 140.67 110.94L140.63 110.87L140.56 110.89C139.61 111.22 138.71 111.67 137.87 112.22L137.77 112.28C137.13 112.7 136.41 112.98 135.65 113.11C134.89 113.23 134.12 113.19 133.37 113C131.43 112.49 129.37 112.68 127.54 113.52C125.72 114.37 124.24 115.82 123.37 117.63C122.98 117.44 122.6 117.23 122.24 117L122.19 116.97L122.2 116.91C122.32 115.61 122.74 114.36 123.41 113.25C124.08 112.14 125 111.2 126.09 110.49Z"
                  fill="#000000" fill-opacity="1.000000" fill-rule="nonzero"/>
        </g>
        <path id="Vector"
              d="M219.52 46.26L219.28 46.1L219.11 46.33C217.77 48.02 216.7 49.91 215.95 51.93C216.05 49.6 216.46 47.29 217.16 45.07L217.23 44.84L217.02 44.71C214.21 43.12 211.21 41.88 208.1 41.01L207.76 40.92C205.37 40.27 203.15 39.12 201.24 37.54C199.32 35.97 197.77 34.02 196.66 31.8C194.09 26.72 190.04 22.54 185.03 19.82C180.03 17.11 174.31 15.98 168.65 16.6L168.65 16.6C168.59 16.6 168.53 16.61 168.47 16.62C168.37 16.63 168.27 16.64 168.16 16.65C167.96 16.68 167.76 16.71 167.56 16.74C167.39 16.76 167.21 16.79 167.04 16.82C166.95 16.83 166.86 16.85 166.77 16.86C166.69 16.88 166.6 16.89 166.51 16.91L166.51 16.91C164.82 17.23 163.16 17.71 161.56 18.33L161.56 18.33L161.56 18.34L161.16 18.49C160.74 18.66 160.33 18.85 159.92 19.04C159.82 19.08 159.73 19.12 159.64 19.17C159.61 19.18 159.59 19.19 159.56 19.21C159.3 19.33 159.04 19.46 158.78 19.6C158.74 19.62 158.7 19.64 158.66 19.66L158.42 19.79C157.89 20.08 157.37 20.38 156.86 20.7C156.82 20.73 156.78 20.75 156.73 20.78C156.69 20.81 156.64 20.84 156.6 20.87C156.57 20.88 156.54 20.9 156.51 20.92C156.44 20.97 156.36 21.02 156.28 21.07C156.13 21.17 155.98 21.27 155.83 21.37C155.68 21.48 155.53 21.59 155.38 21.69L155.23 21.8L155.26 21.99C155.28 22.14 155.3 22.29 155.33 22.45C155.36 22.6 155.38 22.74 155.41 22.89C155.45 23.14 155.5 23.39 155.55 23.63C155.58 23.79 155.61 23.94 155.64 24.09C155.68 24.25 155.71 24.41 155.75 24.57C155.82 24.9 155.9 25.21 155.99 25.52C156.03 25.68 156.07 25.84 156.11 25.99C156.14 26.08 156.16 26.18 156.19 26.27C156.21 26.33 156.23 26.39 156.25 26.46C156.26 26.48 156.26 26.5 156.27 26.52C156.27 26.54 156.28 26.56 156.29 26.58C156.32 26.68 156.35 26.77 156.37 26.85C156.39 26.9 156.4 26.95 156.42 27C156.46 27.1 156.49 27.21 156.53 27.32C156.57 27.44 156.61 27.56 156.66 27.68C156.67 27.71 156.68 27.74 156.69 27.77C156.69 27.79 156.7 27.81 156.71 27.83C156.72 27.86 156.73 27.89 156.74 27.91C156.78 28.03 156.83 28.14 156.87 28.25C156.89 28.29 156.9 28.34 156.92 28.38C157.33 29.4 157.83 30.39 158.42 31.32C157.77 30.76 157.14 30.17 156.53 29.54C155.61 28.58 154.75 27.54 153.97 26.45C153.91 26.36 153.85 26.28 153.79 26.19C153.67 26.02 153.56 25.85 153.44 25.68C153.32 25.5 153.21 25.32 153.09 25.14C153.02 25.02 152.94 24.9 152.87 24.78C152.8 24.66 152.73 24.55 152.66 24.43L152.47 24.09L152.46 24.09L152.46 24.1L152.19 24.37C152.08 24.48 151.97 24.58 151.86 24.69C148.48 28.09 146.03 32.3 144.75 36.92L144.72 37.06L144.68 37.2C144.61 37.46 144.53 37.71 144.45 37.96L144.45 37.97C144.38 38.22 144.3 38.47 144.21 38.71C144.14 38.95 144.06 39.18 143.97 39.41C143.94 39.49 143.91 39.57 143.88 39.64C143.83 39.8 143.77 39.94 143.71 40.09C143.68 40.16 143.66 40.23 143.63 40.3C143.56 40.47 143.49 40.63 143.42 40.8C143.41 40.82 143.4 40.85 143.39 40.87C143.37 40.92 143.35 40.97 143.33 41.02C143.27 41.14 143.22 41.27 143.17 41.39C143.13 41.46 143.09 41.54 143.06 41.62C143.04 41.66 143.02 41.69 143.01 41.73C142.92 41.93 142.82 42.13 142.72 42.32C142.61 42.56 142.49 42.79 142.37 43.01C142.26 43.22 142.15 43.43 142.03 43.64C141.83 44 141.61 44.36 141.39 44.71C141.31 44.85 141.22 44.99 141.13 45.12C141.11 45.15 141.09 45.19 141.07 45.22C141 45.34 140.92 45.45 140.85 45.56C140.79 45.64 140.74 45.72 140.69 45.8C140.6 45.93 140.51 46.06 140.41 46.19C140.39 46.23 140.36 46.27 140.33 46.31C140.19 46.5 140.05 46.69 139.91 46.88C139.9 46.89 139.9 46.89 139.9 46.89C139.89 46.89 139.89 46.89 139.89 46.9C139.83 46.98 139.77 47.06 139.7 47.14C139.61 47.26 139.52 47.38 139.43 47.49C139.28 47.68 139.12 47.87 138.96 48.06C138.95 48.07 138.95 48.07 138.95 48.08C138.11 49.05 137.21 49.97 136.25 50.82C136.23 50.84 136.22 50.85 136.2 50.86C136.06 50.98 135.93 51.1 135.79 51.22C135.73 51.26 135.67 51.31 135.61 51.36C135.52 51.44 135.42 51.52 135.32 51.59C135.31 51.6 135.3 51.61 135.29 51.62C135.2 51.69 135.12 51.76 135.03 51.82C134.93 51.91 134.83 51.98 134.72 52.06C134.22 52.44 133.71 52.8 133.19 53.13C133.11 53.18 133.03 53.24 132.95 53.29C132.9 53.32 132.85 53.35 132.81 53.37C132.61 53.49 132.42 53.61 132.23 53.72C132.04 53.83 131.85 53.94 131.65 54.04C131.24 54.27 130.83 54.51 130.43 54.75C130.23 54.88 130.03 55 129.83 55.13C129.04 55.64 128.28 56.19 127.55 56.78C126.82 57.36 126.12 57.98 125.45 58.64C125.37 58.72 125.28 58.8 125.2 58.89C125.03 59.05 124.87 59.22 124.72 59.38C124.47 59.64 124.24 59.9 124 60.16C122.77 61.56 121.68 63.08 120.75 64.69C120.28 65.5 119.85 66.33 119.47 67.18C119.18 67.82 118.92 68.47 118.68 69.13C118.52 69.57 118.37 70.01 118.23 70.46C118.17 70.68 118.1 70.91 118.04 71.13C117.82 71.9 117.65 72.67 117.5 73.45C117.38 74.08 117.29 74.7 117.21 75.32C117.18 75.64 117.15 75.95 117.12 76.26C117.05 77.03 117.02 77.8 117.02 78.56C117.01 80.87 117.29 83.16 117.85 85.4C117.97 85.89 118.11 86.38 118.26 86.87C118.34 87.11 118.42 87.35 118.5 87.59C118.7 88.2 118.93 88.79 119.17 89.39C119.32 89.74 119.48 90.09 119.64 90.44C120.68 92.66 122 94.74 123.58 96.62C123.84 96.92 124.11 97.23 124.38 97.53C124.39 97.53 124.38 97.53 124.38 97.53C125.07 98.28 125.79 98.98 126.55 99.65L126.56 99.65C126.86 99.92 127.17 100.18 127.48 100.43C127.49 100.43 127.49 100.43 127.49 100.43C127.8 100.69 128.12 100.94 128.45 101.18C128.61 101.29 128.78 101.41 128.95 101.53C129.27 101.76 129.61 101.99 129.95 102.21L129.96 102.21C130.3 102.43 130.64 102.64 131 102.84C131.7 103.24 132.43 103.62 133.17 103.97L133.3 104.03L133.42 103.97C134.62 103.43 135.85 102.98 137.1 102.62C137.38 102.54 137.66 102.47 137.93 102.39C138.63 102.22 139.34 102.08 140.05 101.96C139.36 102.3 138.69 102.7 138.05 103.13C137.56 103.47 137.07 103.83 136.58 104.23C136.41 104.37 136.25 104.5 136.09 104.64L135.68 105L136.19 105.17C136.38 105.23 136.56 105.29 136.75 105.34C137 105.42 137.25 105.49 137.5 105.56C138.04 105.71 138.58 105.85 139.12 105.96C139.26 105.99 139.39 106.02 139.52 106.04C139.78 106.1 140.04 106.15 140.3 106.19C140.31 106.19 140.32 106.2 140.34 106.2C140.61 106.24 140.88 106.28 141.15 106.32C141.66 106.39 142.16 106.45 142.67 106.5C142.72 106.5 142.78 106.51 142.84 106.51C142.96 106.52 143.08 106.53 143.2 106.54C143.47 106.55 143.75 106.57 144.02 106.58C144.04 106.58 144.06 106.58 144.08 106.58C144.22 106.58 144.36 106.59 144.5 106.59C144.5 106.59 144.5 106.59 144.5 106.59C144.64 106.59 144.77 106.6 144.91 106.6L145.68 106.6C145.82 106.6 145.96 106.6 146.11 106.6C146.31 106.6 146.51 106.6 146.71 106.6C146.77 106.6 146.82 106.61 146.88 106.61C147.2 106.61 147.52 106.62 147.84 106.63C147.86 106.63 147.88 106.63 147.9 106.63C148.22 106.64 148.55 106.65 148.87 106.66C148.94 106.67 149.01 106.67 149.08 106.67C149.39 106.69 149.7 106.7 150.01 106.72C150.1 106.72 150.19 106.73 150.28 106.74C150.51 106.75 150.75 106.76 150.98 106.78C151.12 106.79 151.25 106.8 151.39 106.81C151.95 106.85 152.51 106.9 153.06 106.96C153.25 106.97 153.44 106.99 153.62 107.01C154.12 107.07 154.62 107.12 155.12 107.19C155.35 107.21 155.57 107.24 155.79 107.27C155.82 107.27 155.84 107.28 155.87 107.28C156.14 107.32 156.42 107.36 156.69 107.4C156.88 107.42 157.06 107.45 157.24 107.48C157.42 107.51 157.61 107.53 157.8 107.57C157.89 107.58 158 107.6 158.1 107.62C158.34 107.65 158.58 107.69 158.83 107.74C158.85 107.74 158.87 107.75 158.89 107.75C159.41 107.84 159.93 107.94 160.45 108.04C160.75 108.1 161.06 108.16 161.36 108.22C161.59 108.27 161.83 108.32 162.06 108.37C162.11 108.38 162.14 108.39 162.19 108.4C162.19 108.4 162.2 108.4 162.21 108.4C162.57 108.48 162.93 108.56 163.29 108.64C164.53 108.93 165.76 109.25 167 109.6C167.28 109.68 167.57 109.76 167.85 109.84C167.97 109.88 168.09 109.91 168.21 109.95C168.45 110.02 168.7 110.09 168.94 110.17C169.16 110.24 169.38 110.31 169.6 110.38C169.73 110.42 169.87 110.46 170 110.51C170.21 110.57 170.42 110.64 170.63 110.71C170.81 110.77 170.99 110.83 171.16 110.89C171.41 110.97 171.67 111.06 171.92 111.15C171.99 111.17 172.07 111.2 172.14 111.23C172.45 111.33 172.75 111.44 173.06 111.55C173.36 111.66 173.66 111.77 173.96 111.88C174.16 111.96 174.37 112.04 174.57 112.12C174.8 112.2 175.03 112.29 175.25 112.38C175.58 112.51 175.91 112.64 176.24 112.77C176.54 112.89 176.84 113.02 177.14 113.15C177.19 113.17 177.25 113.19 177.31 113.22C177.57 113.32 177.83 113.44 178.09 113.55C178.26 113.62 178.42 113.69 178.59 113.77C179.31 114.08 180.04 114.41 180.76 114.75L180.76 114.75C181.21 114.96 181.67 115.17 182.14 115.36C182.24 115.41 182.35 115.45 182.46 115.49C182.65 115.57 182.83 115.64 183.02 115.72C183.14 115.77 183.26 115.82 183.38 115.86C183.56 115.93 183.74 116 183.92 116.06C184.11 116.14 184.3 116.21 184.5 116.27C184.56 116.3 184.63 116.32 184.7 116.34C184.93 116.42 185.15 116.49 185.38 116.57C185.4 116.58 185.42 116.58 185.45 116.59C185.68 116.67 185.92 116.74 186.16 116.81C186.18 116.82 186.2 116.82 186.22 116.83C186.47 116.91 186.73 116.98 186.99 117.06C187.37 117.16 187.76 117.26 188.14 117.35C188.21 117.37 188.28 117.39 188.35 117.4C188.56 117.45 188.76 117.5 188.97 117.55C189.19 117.6 189.41 117.64 189.63 117.69C189.85 117.73 190.07 117.78 190.29 117.82C190.41 117.84 190.52 117.86 190.64 117.88L190.95 117.94C191.16 117.97 191.38 118.01 191.59 118.04C191.6 118.04 191.6 118.04 191.61 118.05C191.85 118.08 192.1 118.12 192.34 118.15C192.57 118.18 192.81 118.21 193.04 118.24C193.09 118.24 193.14 118.25 193.19 118.25C193.38 118.27 193.58 118.3 193.77 118.31C193.83 118.32 193.88 118.32 193.94 118.33C194.13 118.35 194.32 118.36 194.51 118.38C194.55 118.38 194.59 118.39 194.62 118.39C194.8 118.4 194.97 118.41 195.14 118.42C195.26 118.43 195.38 118.44 195.5 118.44C195.56 118.45 195.62 118.45 195.68 118.45C195.85 118.46 196.01 118.47 196.18 118.47C196.39 118.48 196.59 118.48 196.79 118.49C197.03 118.49 197.28 118.5 197.52 118.5L197.53 118.5C197.77 118.5 198.01 118.49 198.25 118.49L198.34 118.49L198.6 118.48C198.74 118.48 198.87 118.47 199.01 118.47C199.26 118.46 199.52 118.45 199.77 118.43C199.87 118.43 199.97 118.42 200.08 118.41C200.12 118.41 200.17 118.41 200.21 118.4C200.37 118.39 200.53 118.38 200.69 118.37C200.85 118.36 201.02 118.34 201.18 118.32C201.39 118.3 201.6 118.28 201.81 118.26C201.98 118.24 202.14 118.22 202.31 118.2C202.33 118.2 202.35 118.2 202.37 118.19C202.53 118.17 202.69 118.15 202.85 118.13C203.03 118.11 203.21 118.08 203.4 118.05C203.42 118.05 203.44 118.05 203.46 118.04C203.77 117.99 204.09 117.94 204.41 117.88C204.75 117.82 205.08 117.76 205.41 117.69C205.53 117.67 205.65 117.64 205.78 117.61C205.85 117.6 205.92 117.59 205.98 117.57C206.09 117.55 206.18 117.53 206.29 117.5C206.3 117.5 206.32 117.49 206.34 117.49C206.48 117.46 206.62 117.42 206.76 117.39C207.04 117.32 207.32 117.25 207.6 117.18C207.72 117.15 207.84 117.11 207.96 117.08C207.99 117.07 208.03 117.06 208.06 117.05C208.57 116.91 209.08 116.76 209.58 116.6C209.8 116.52 210.02 116.45 210.24 116.37C210.71 116.21 211.18 116.04 211.64 115.87C211.76 115.82 211.88 115.77 212.01 115.72C212.19 115.65 212.37 115.58 212.55 115.5C212.71 115.44 212.87 115.37 213.03 115.3C213.11 115.27 213.19 115.23 213.27 115.2C213.51 115.09 213.76 114.98 213.99 114.87C214.15 114.8 214.31 114.72 214.47 114.65C214.72 114.53 214.97 114.41 215.22 114.28C215.28 114.25 215.34 114.22 215.4 114.19C215.56 114.11 215.72 114.02 215.88 113.94C216.14 113.81 216.39 113.67 216.64 113.53C216.73 113.49 216.81 113.44 216.89 113.39C217.17 113.23 217.44 113.08 217.72 112.91C218.32 112.56 218.91 112.18 219.49 111.79C219.64 111.69 219.78 111.59 219.93 111.5C220.2 111.31 220.47 111.12 220.73 110.93C220.76 110.91 220.78 110.89 220.81 110.87C220.95 110.77 221.08 110.67 221.21 110.57C221.49 110.36 221.76 110.15 222.04 109.94C222.04 109.93 222.05 109.93 222.06 109.92C222.18 109.82 222.3 109.72 222.42 109.63C222.8 109.32 223.17 109.01 223.53 108.69C223.71 108.54 223.88 108.38 224.06 108.22C224.19 108.11 224.32 107.99 224.45 107.87C224.71 107.62 224.96 107.38 225.21 107.14C225.34 107.02 225.46 106.89 225.59 106.76C225.71 106.64 225.83 106.51 225.96 106.38C226 106.34 226.04 106.3 226.09 106.25C226.21 106.12 226.34 105.98 226.46 105.85C226.57 105.73 226.68 105.61 226.78 105.49C226.97 105.29 227.15 105.09 227.33 104.89C227.34 104.87 227.35 104.86 227.36 104.85C227.37 104.84 227.38 104.83 227.38 104.82L227.38 104.82C231.04 100.6 233.75 95.64 235.35 90.29C236.94 84.94 237.38 79.31 236.64 73.77C235.9 68.23 233.99 62.92 231.04 58.17C228.09 53.43 224.16 49.37 219.52 46.26L219.52 46.26Z"
              fill="#06C149" fill-opacity="1.000000" fill-rule="nonzero"/>
        <g opacity="0.150000">
            <g opacity="0.150000">
                <path id="Vector"
                      d="M168.65 16.59C169.15 18.39 169.91 20.11 170.89 21.7C169.24 20.29 167.77 18.68 166.51 16.91C167.22 16.78 167.93 16.67 168.65 16.59Z"
                      fill="#000000" fill-opacity="1.000000" fill-rule="nonzero"/>
            </g>
            <g opacity="0.150000">
                <path id="Vector"
                      d="M144.13 44.43C142.27 45.45 140.53 46.67 138.94 48.08C141.62 44.91 143.58 41.2 144.68 37.2C144.69 37.16 144.7 37.11 144.72 37.06L144.75 36.92C146.08 32.15 148.64 27.82 152.19 24.37L152.47 24.09L152.66 24.43C153.75 26.28 155.05 27.99 156.54 29.54C154.26 35.97 149.82 41.33 144.13 44.43Z"
                      fill="#000000" fill-opacity="1.000000" fill-rule="nonzero"/>
            </g>
            <g opacity="0.150000">
                <path id="Vector"
                      d="M157.23 27.31L157.19 27.44C157.18 27.49 157.17 27.54 157.15 27.59C157.08 27.85 157 28.12 156.92 28.38C156.13 26.32 155.57 24.17 155.26 21.99L155.23 21.8L155.38 21.69C157.29 20.32 159.37 19.19 161.56 18.33C159.59 21.04 158.13 24.08 157.23 27.31Z"
                      fill="#000000" fill-opacity="1.000000" fill-rule="nonzero"/>
            </g>
            <g opacity="0.150000">
                <path id="Vector"
                      d="M131.65 54.04C133.3 53.14 134.84 52.06 136.25 50.82C133.44 54.09 131.42 57.97 130.36 62.15C129.3 66.33 129.22 70.7 130.13 74.92C131.04 79.14 132.92 83.09 135.61 86.46C138.3 89.83 141.74 92.53 145.64 94.35L145.77 94.41L145.9 94.35C148.01 93.4 150.24 92.72 152.52 92.34C151.1 93.07 149.77 93.97 148.56 95.03L148.16 95.38L148.67 95.55C149.11 95.7 149.55 95.83 149.98 95.95C152.49 96.65 155.09 97 157.7 96.98C169.57 96.91 181.52 99.65 193.24 105.14C195.25 106.07 197.33 106.85 199.47 107.44C208.78 110.03 218.72 109.1 227.39 104.82C222.5 110.47 216.11 114.62 208.96 116.79C201.81 118.95 194.19 119.05 186.99 117.05C184.85 116.46 182.77 115.69 180.76 114.75C169.05 109.26 157.09 106.52 145.23 106.6C142.62 106.61 140.02 106.26 137.5 105.56C137.07 105.44 136.63 105.31 136.19 105.16L135.68 105L136.09 104.64C137.29 103.59 138.62 102.68 140.05 101.96C137.76 102.34 135.53 103.01 133.42 103.97L133.3 104.03L133.17 103.97C128.47 101.78 124.48 98.33 121.63 94.01C118.78 89.68 117.18 84.65 117.03 79.47C116.87 74.3 118.15 69.18 120.74 64.69C123.32 60.2 127.1 56.51 131.65 54.04L131.65 54.04Z"
                      fill="#000000" fill-opacity="1.000000" fill-rule="nonzero"/>
            </g>
        </g>
    </g>
</svg>