<svg width="24.000000" height="24.000000" viewBox="0 0 24 24" fill="none" xmlns="http://www.w3.org/2000/svg" xmlns:xlink="http://www.w3.org/1999/xlink">
	<desc>
			Created with Pixso.
	</desc>
	<defs/>
	<rect id="Iconly/Bold/Logout" width="24.000000" height="24.000000" fill="#FFFFFF" fill-opacity="0"/>
	<path id="Logout" d="M9.11182 12C9.11182 11.57 9.45776 11.23 9.89526 11.23L16 11.23L16 6.44C16 3.98999 13.9753 2 11.4927 2L6.52759 2C4.03491 2 2 3.98999 2 6.45001L2 17.56C2 20.01 4.02466 22 6.51733 22L11.4724 22C13.9753 22 16 20 16 17.55L16 12.77L9.89526 12.77C9.45776 12.77 9.11182 12.42 9.11182 12ZM19.6301 8.54022L22.5503 11.4502C22.7002 11.6002 22.7803 11.7902 22.7803 12.0002C22.7803 12.2002 22.7002 12.4002 22.5503 12.5402L19.6301 15.4502C19.4802 15.6002 19.2803 15.6802 19.0901 15.6802C18.8901 15.6802 18.6902 15.6002 18.5403 15.4502C18.2402 15.1502 18.2402 14.6602 18.5403 14.3602L20.1401 12.7702L16.0002 12.7702L16.0002 11.2302L20.1401 11.2302L18.5403 9.6402C18.2402 9.34021 18.2402 8.85022 18.5403 8.55017C18.8401 8.24017 19.3301 8.24017 19.6301 8.54022Z" clip-rule="evenodd" fill="#212121" fill-opacity="1.000000" fill-rule="evenodd"/>
</svg>
