<svg width="24.000000" height="24.000000" viewBox="0 0 24 24" fill="none" xmlns="http://www.w3.org/2000/svg" xmlns:xlink="http://www.w3.org/1999/xlink">
	<desc>
			Created with Pixso.
	</desc>
	<defs/>
	<rect id="Iconly/Bold/Voice 2" width="24.000000" height="24.000000" fill="#FFFFFF" fill-opacity="0"/>
	<path id="Voice 2" d="M11.825 15.2165L12.1748 15.2165C14.0996 15.2165 15.731 13.9844 16.3054 12.2759C16.3887 12.0272 16.1987 11.7708 15.9333 11.7708L14.8562 11.7708C14.5142 11.7708 14.2361 11.4972 14.2361 11.1595C14.2361 10.8209 14.5142 10.5463 14.8562 10.5463L15.9004 10.5463C16.2463 10.5463 16.5271 10.2699 16.5271 9.92932C16.5271 9.58685 16.2463 9.31042 15.9004 9.31042L14.8562 9.31042C14.5142 9.31042 14.2361 9.03583 14.2361 8.69818C14.2361 8.35956 14.5142 8.08496 14.8562 8.08496L15.9004 8.08496C16.2463 8.08496 16.5271 7.80853 16.5271 7.46704C16.5271 7.12549 16.2463 6.84906 15.9004 6.84906L14.8562 6.84906C14.5142 6.84906 14.2361 6.57544 14.2361 6.23682L14.2361 6.23584C14.2361 5.89819 14.5142 5.62457 14.8562 5.62457L15.9885 5.62457C16.2483 5.62457 16.4351 5.37872 16.3645 5.13098C15.8501 3.32397 14.1694 2 12.1748 2L11.825 2C9.42163 2 7.47363 3.92377 7.47363 6.29706L7.47363 10.9203C7.47363 13.2928 9.42163 15.2165 11.825 15.2165ZM18.5625 10.7828C18.5625 10.2538 18.9966 9.82623 19.5312 9.82623C20.0659 9.82623 20.5 10.2538 20.5 10.7828C20.5 15.0866 17.2004 18.6404 12.9692 19.1177L12.9692 21.0434C12.9692 21.5714 12.5352 22 12.0005 22C11.4648 22 11.0317 21.5714 11.0317 21.0434L11.0317 19.1177C6.79956 18.6404 3.5 15.0866 3.5 10.7828C3.5 10.2538 3.93408 9.82623 4.46875 9.82623C5.00342 9.82623 5.4375 10.2538 5.4375 10.7828C5.4375 14.3557 8.38135 17.2629 12.0005 17.2629C15.6187 17.2629 18.5625 14.3557 18.5625 10.7828Z" clip-rule="evenodd" fill="#212121" fill-opacity="1.000000" fill-rule="evenodd"/>
</svg>
