<svg width="24.000000" height="24.000000" viewBox="0 0 24 24" fill="none" xmlns="http://www.w3.org/2000/svg" xmlns:xlink="http://www.w3.org/1999/xlink">
	<desc>
			Created with Pixso.
	</desc>
	<defs/>
	<rect id="Iconly/Bold/More Circle" width="24.000000" height="24.000000" fill="#FFFFFF" fill-opacity="0"/>
	<path id="More Circle" d="M2 11.9999C2 6.47989 6.46997 1.99988 12 1.99988C17.52 1.99988 22 6.47989 22 11.9999C22 17.5199 17.52 21.9999 12 21.9999C6.46997 21.9999 2 17.5199 2 11.9999ZM7.52002 13.1999C6.86011 13.1999 6.32007 12.6599 6.32007 11.9999C6.32007 11.3399 6.86011 10.8009 7.52002 10.8009C8.17993 10.8009 8.70996 11.3399 8.70996 11.9999C8.70996 12.6599 8.17993 13.1999 7.52002 13.1999ZM12 13.1999C11.3401 13.1999 10.8 12.6599 10.8 11.9999C10.8 11.3399 11.3401 10.8009 12 10.8009C12.6602 10.8009 13.1902 11.3399 13.1902 11.9999C13.1902 12.6599 12.6602 13.1999 12 13.1999ZM16.4802 13.1999C15.8101 13.1999 15.28 12.6599 15.28 11.9999C15.28 11.3399 15.8101 10.8009 16.4802 10.8009C17.1401 10.8009 17.6702 11.3399 17.6702 11.9999C17.6702 12.6599 17.1401 13.1999 16.4802 13.1999Z" clip-rule="evenodd" fill="#212121" fill-opacity="1.000000" fill-rule="evenodd"/>
</svg>
