<svg width="24.000000" height="24.000000" viewBox="0 0 24 24" fill="none" xmlns="http://www.w3.org/2000/svg" xmlns:xlink="http://www.w3.org/1999/xlink">
	<desc>
			Created with Pixso.
	</desc>
	<defs/>
	<rect id="Iconly/Bold/Document" width="24.000000" height="24.000000" fill="#FFFFFF" fill-opacity="0"/>
	<path id="Document" d="M7.81006 2L16.1909 2C19.28 2 21 3.78003 21 6.83002L21 17.16C21 20.26 19.28 22 16.1909 22L7.81006 22C4.77002 22 3 20.26 3 17.16L3 6.83002C3 3.78003 4.77002 2 7.81006 2ZM8.08008 6.65002L8.08008 6.65997C7.64917 6.65997 7.30005 7.01001 7.30005 7.44C7.30005 7.87 7.64917 8.22003 8.08008 8.22003L11.0691 8.22003C11.5 8.22003 11.8501 7.87 11.8501 7.42902C11.8501 7 11.5 6.65002 11.0691 6.65002L8.08008 6.65002ZM15.9202 12.74L8.08008 12.74C7.64917 12.74 7.30005 12.39 7.30005 11.96C7.30005 11.53 7.64917 11.179 8.08008 11.179L15.9202 11.179C16.3501 11.179 16.7002 11.53 16.7002 11.96C16.7002 12.39 16.3501 12.74 15.9202 12.74ZM15.9202 17.31L8.08008 17.31C7.78003 17.35 7.48999 17.2 7.33008 16.95C7.17017 16.69 7.17017 16.36 7.33008 16.11C7.48999 15.85 7.78003 15.71 8.08008 15.74L15.9202 15.74C16.3191 15.78 16.6201 16.12 16.6201 16.53C16.6201 16.929 16.3191 17.27 15.9202 17.31Z" clip-rule="evenodd" fill="#212121" fill-opacity="1.000000" fill-rule="evenodd"/>
</svg>
