<svg width="24.000000" height="24.000000" viewBox="0 0 24 24" fill="none" xmlns="http://www.w3.org/2000/svg" xmlns:xlink="http://www.w3.org/1999/xlink">
	<desc>
			Created with Pixso.
	</desc>
	<defs/>
	<rect id="Iconly/Bold/Delete" width="24.000000" height="24.000000" fill="#FFFFFF" fill-opacity="0"/>
	<path id="Delete" d="M20.2871 5.24298C20.676 5.24298 21 5.56598 21 5.97699L21 6.35693C21 6.75793 20.676 7.09094 20.2871 7.09094L3.71387 7.09094C3.32397 7.09094 3 6.75793 3 6.35693L3 5.97699C3 5.56598 3.32397 5.24298 3.71387 5.24298L6.62964 5.24298C7.22192 5.24298 7.7373 4.82196 7.87061 4.22797L8.02319 3.54596C8.2605 2.617 9.0415 2 9.9353 2L14.0647 2C14.9487 2 15.7385 2.617 15.967 3.49701L16.1304 4.22699C16.2627 4.82196 16.7781 5.24298 17.3713 5.24298L20.2871 5.24298ZM19.6433 9.48914C19.6433 9.55713 19.1104 16.2971 18.8059 19.134C18.6152 20.875 17.4929 21.932 15.8093 21.961C14.5149 21.99 13.2495 22 12.0039 22C10.6812 22 9.3877 21.99 8.13208 21.961C6.50488 21.922 5.38159 20.846 5.20068 19.134C4.8877 16.287 4.3645 9.55713 4.35474 9.48914C4.34497 9.28314 4.41113 9.08813 4.54541 8.93115C4.67749 8.78412 4.86816 8.69714 5.0686 8.69714L18.939 8.69714C19.1384 8.69714 19.3193 8.78412 19.4624 8.93115C19.5955 9.08813 19.6626 9.28314 19.6433 9.48914Z" clip-rule="evenodd" fill="#212121" fill-opacity="1.000000" fill-rule="evenodd"/>
</svg>
