<svg width="24.000000" height="24.000000" viewBox="0 0 24 24" fill="none" xmlns="http://www.w3.org/2000/svg" xmlns:xlink="http://www.w3.org/1999/xlink">
	<desc>
			Created with Pixso.
	</desc>
	<defs/>
	<rect id="Iconly/Bold/Shield Fail" width="24.000000" height="24.000000" fill="#FFFFFF" fill-opacity="0"/>
	<path id="Shield Fail" d="M20.4495 6.02606C20.4495 5.26123 19.9463 4.57379 19.2014 4.32867L12.5688 2.1037C12.1663 1.96545 11.7334 1.96545 11.3408 2.1037L4.72827 4.41693C3.99365 4.67285 3.49023 5.35828 3.50049 6.12317L3.54077 12.7628C3.55078 14.773 4.31567 16.7244 5.68457 18.2345C6.30859 18.9307 7.10352 19.5191 8.12012 20.0486L11.7234 21.9117C11.834 21.9706 11.9648 22 12.0857 22C12.2065 22 12.3271 21.9706 12.438 21.9117L16.011 19.9996C17.0176 19.4603 17.8125 18.8621 18.4265 18.1561C19.7751 16.6254 20.51 14.674 20.5 12.6638L20.4495 6.02606ZM14.4207 14.0866C14.7126 13.8022 14.7126 13.3315 14.4207 13.0472L13.062 11.7224L14.4207 10.3995C14.7126 10.1152 14.7126 9.6543 14.4207 9.35913C14.1289 9.07477 13.6458 9.07477 13.3538 9.35913L11.9951 10.6839L10.6365 9.35913C10.3445 9.07477 9.87134 9.07477 9.56958 9.35913C9.27759 9.6543 9.27759 10.1152 9.56958 10.3995L10.9282 11.7224L9.56958 13.0472C9.27759 13.3315 9.27759 13.8022 9.56958 14.0866C9.72046 14.2337 9.91162 14.3013 10.103 14.3013C10.3042 14.3013 10.4954 14.2337 10.6365 14.0866L11.9951 12.7628L13.3538 14.0866C13.5049 14.2337 13.696 14.3013 13.8872 14.3013C14.0786 14.3013 14.2798 14.2337 14.4207 14.0866Z" clip-rule="evenodd" fill="#212121" fill-opacity="1.000000" fill-rule="evenodd"/>
</svg>
