<svg width="24.000000" height="24.000000" viewBox="0 0 24 24" fill="none" xmlns="http://www.w3.org/2000/svg" xmlns:xlink="http://www.w3.org/1999/xlink">
	<desc>
			Created with Pixso.
	</desc>
	<defs/>
	<rect id="Iconly/Bold/Info Square" width="24.000000" height="24.000000" fill="#FFFFFF" fill-opacity="0"/>
	<path id="Info Square" d="M7.66992 1.99921L16.3401 1.99921C19.73 1.99921 22 4.37921 22 7.91922L22 16.0902C22 19.6202 19.73 21.9992 16.3401 21.9992L7.66992 21.9992C4.28003 21.9992 2 19.6202 2 16.0902L2 7.91922C2 4.37921 4.28003 1.99921 7.66992 1.99921ZM11.99 9.06021C11.52 9.06021 11.1299 8.66922 11.1299 8.19022C11.1299 7.7002 11.52 7.31021 12.01 7.31021C12.49 7.31021 12.8799 7.7002 12.8799 8.19022C12.8799 8.66922 12.49 9.06021 11.99 9.06021ZM12.8701 15.7802C12.8701 16.2602 12.48 16.6502 11.99 16.6502C11.51 16.6502 11.1201 16.2602 11.1201 15.7802L11.1201 11.3602C11.1201 10.8792 11.51 10.4802 11.99 10.4802C12.48 10.4802 12.8701 10.8792 12.8701 11.3602L12.8701 15.7802Z" clip-rule="evenodd" fill="#212121" fill-opacity="1.000000" fill-rule="evenodd"/>
</svg>
