<svg width="24.000000" height="24.000000" viewBox="0 0 24 24" fill="none" xmlns="http://www.w3.org/2000/svg" xmlns:xlink="http://www.w3.org/1999/xlink">
	<desc>
			Created with Pixso.
	</desc>
	<defs/>
	<rect id="Iconly/Bold/Arrow - Left 3" width="24.000000" height="24.000000" fill="#FFFFFF" fill-opacity="0"/>
	<rect id="Iconly/Bold/Arrow - Left 3" rx="-0.500000" width="23.000000" height="23.000000" transform="translate(0.500000 0.500000)" fill="#FFFFFF" fill-opacity="0"/>
	<path id="Arrow - Left 3" d="M11.85 17.41C12.09 17.28 12.23 17.04 12.23 16.78L12.23 12.71L20.26 12.71C20.67 12.71 21 12.39 21 12C21 11.6 20.67 11.28 20.26 11.28L12.23 11.28L12.23 7.21C12.23 6.95 12.09 6.71 11.85 6.58C11.62 6.46 11.33 6.47 11.11 6.61L3.34 11.39C3.12 11.52 3 11.75 3 12C3 12.24 3.12 12.47 3.34 12.6L11.11 17.39C11.23 17.46 11.36 17.5 11.5 17.5C11.62 17.5 11.74 17.46 11.85 17.41Z" fill="#212121" fill-opacity="1.000000" fill-rule="nonzero"/>
</svg>
