<svg width="24.000000" height="24.000000" viewBox="0 0 24 24" fill="none" xmlns="http://www.w3.org/2000/svg" xmlns:xlink="http://www.w3.org/1999/xlink">
	<desc>
			Created with Pixso.
	</desc>
	<defs/>
	<rect id="Iconly/Bold/Paper Upload" width="24.000000" height="24.000000" fill="#FFFFFF" fill-opacity="0"/>
	<path id="Paper Upload" d="M20.0444 9.01999C19.6189 9.01999 19.1138 9.03 18.8069 9.03C18.3516 9.03 17.7573 9.01999 17.0149 9.01999C15.1931 9.01001 13.708 7.51001 13.708 5.67999L13.708 2.45999C13.708 2.20999 13.5 2 13.2524 2L7.96533 2C5.48999 2 3.5 4.03 3.5 6.51001L3.5 17.29C3.5 19.89 5.58911 22 8.17334 22L16.0444 22C18.5 22 20.5 19.99 20.5 17.51L20.5 9.47C20.5 9.22 20.292 9.01999 20.0444 9.01999ZM17.1423 7.55899C17.8323 7.56601 18.7908 7.569 19.6047 7.56601C20.0215 7.565 20.2334 7.06201 19.9453 6.759C18.8997 5.66101 17.0293 3.69601 15.958 2.57199C15.6621 2.26099 15.1453 2.47501 15.1453 2.90601L15.1453 5.54199C15.1453 6.64801 16.0471 7.55899 17.1423 7.55899ZM13.9456 12.89C14.2327 13.18 14.698 13.18 14.9851 12.89C15.2822 12.6 15.2822 12.13 14.9951 11.84L12.1536 8.95999C12.0842 8.89001 12.0049 8.84 11.9158 8.79999C11.8267 8.76001 11.7375 8.73999 11.6387 8.73999C11.5396 8.73999 11.4407 8.76001 11.3516 8.79999C11.2625 8.84 11.1831 8.89001 11.1138 8.95999L8.28223 11.84C7.99512 12.13 7.99512 12.6 8.28223 12.89C8.56934 13.18 9.03467 13.18 9.32178 12.89L10.896 11.29L10.896 16.12C10.896 16.53 11.2227 16.86 11.6387 16.86C12.0444 16.86 12.3713 16.53 12.3713 16.12L12.3713 11.29L13.9456 12.89Z" clip-rule="evenodd" fill="#212121" fill-opacity="1.000000" fill-rule="evenodd"/>
</svg>
