<svg width="24.000000" height="24.000000" viewBox="0 0 24 24" fill="none" xmlns="http://www.w3.org/2000/svg" xmlns:xlink="http://www.w3.org/1999/xlink">
	<desc>
			Created with Pixso.
	</desc>
	<defs/>
	<rect id="Iconly/Bold/Unlock" width="24.000000" height="24.000000" fill="#FFFFFF" fill-opacity="0"/>
	<path id="Unlock" d="M8.22607 8.71106L16.2312 8.71106C18.5886 8.71106 20.5 10.5807 20.5 12.8866L20.5 17.8245C20.5 20.1304 18.5886 22 16.2312 22L7.76782 22C5.41138 22 3.5 20.1304 3.5 17.8245L3.5 12.8866C3.5 10.9902 4.80054 9.4068 6.5708 8.89795L6.45996 8.91083L6.45996 7.38715C6.48022 4.41626 8.95068 2 11.9788 2C14.3462 2 16.4385 3.4621 17.2107 5.62787C17.292 5.84656 17.2717 6.08508 17.1702 6.29382C17.0686 6.50256 16.8867 6.66156 16.6621 6.73212C16.2048 6.8902 15.6968 6.65265 15.5239 6.19543C15.0059 4.72339 13.5842 3.73938 11.999 3.73938C9.92505 3.73938 8.24951 5.37042 8.23828 7.36725L8.23828 8.70905L8.22607 8.71106ZM11.9949 17.3285C12.4929 17.3285 12.8892 16.9409 12.8892 16.4539L12.8892 14.2473C12.8892 13.7702 12.4929 13.3826 11.9949 13.3826C11.5071 13.3826 11.1108 13.7702 11.1108 14.2473L11.1108 16.4539C11.1108 16.9409 11.5071 17.3285 11.9949 17.3285Z" clip-rule="evenodd" fill="#212121" fill-opacity="1.000000" fill-rule="evenodd"/>
</svg>
