<svg width="24.000000" height="24.000000" viewBox="0 0 24 24" fill="none" xmlns="http://www.w3.org/2000/svg" xmlns:xlink="http://www.w3.org/1999/xlink">
	<desc>
			Created with Pixso.
	</desc>
	<defs/>
	<rect id="Iconly/Bold/Ticket" width="24.000000" height="24.000000" fill="#FFFFFF" fill-opacity="0"/>
	<path id="Ticket" d="M21.7874 10.5391C21.6519 10.6706 21.468 10.7457 21.2747 10.7457C20.5591 10.7457 19.9788 11.3094 19.9788 11.9953C19.9788 12.6859 20.5522 13.2468 21.2612 13.2543C21.6606 13.258 22 13.5286 22 13.9166L22 16.3265C22 18.3549 20.3076 20 18.2185 20L15.0657 20C14.7397 20 14.4758 19.7435 14.4758 19.4269L14.4758 17.3975C14.4758 17.0029 14.1567 16.6929 13.7505 16.6929C13.354 16.6929 13.0251 17.0029 13.0251 17.3975L13.0251 19.4269C13.0251 19.7435 12.7612 20 12.4363 20L5.78149 20C3.70215 20 2 18.3558 2 16.3265L2 13.9166C2 13.5286 2.33936 13.258 2.73877 13.2543C3.44873 13.2468 4.02124 12.6859 4.02124 11.9953C4.02124 11.3282 3.46045 10.8209 2.72534 10.8209C2.53198 10.8209 2.34814 10.7457 2.21265 10.6142C2.07739 10.4827 2 10.3042 2 10.1163L2 7.68292C2 5.65729 3.70605 4 5.79102 4L12.4363 4C12.7612 4 13.0251 4.25647 13.0251 4.57312L13.0251 6.97827C13.0251 7.36346 13.354 7.68292 13.7505 7.68292C14.1567 7.68292 14.4758 7.36346 14.4758 6.97827L14.4758 4.57312C14.4758 4.25647 14.7397 4 15.0657 4L18.2185 4C20.3076 4 22 5.64417 22 7.67352L22 10.0411C22 10.229 21.9226 10.4075 21.7874 10.5391ZM13.7505 14.8702C14.1567 14.8702 14.4758 14.5508 14.4758 14.1656L14.4758 10.4075C14.4758 10.0223 14.1567 9.70288 13.7505 9.70288C13.354 9.70288 13.0251 10.0223 13.0251 10.4075L13.0251 14.1656C13.0251 14.5508 13.354 14.8702 13.7505 14.8702Z" clip-rule="evenodd" fill="#212121" fill-opacity="1.000000" fill-rule="evenodd"/>
</svg>
