<svg width="24.000000" height="24.000000" viewBox="0 0 24 24" fill="none" xmlns="http://www.w3.org/2000/svg" xmlns:xlink="http://www.w3.org/1999/xlink">
	<desc>
			Created with Pixso.
	</desc>
	<defs/>
	<rect id="Iconly/Bold/Edit Square" width="24.000000" height="24.000000" fill="#FFFFFF" fill-opacity="0"/>
	<path id="Edit Square" d="M16.6653 2.01031C18.1038 1.92041 19.5225 2.41992 20.5913 3.39893C21.5703 4.46777 22.0698 5.88635 21.9897 7.33484L21.9897 16.6652C22.0798 18.1136 21.5703 19.5322 20.6013 20.6011C19.5322 21.5801 18.1038 22.0796 16.6653 21.9897L7.33496 21.9897C5.88647 22.0796 4.46777 21.5801 3.39893 20.6011C2.41992 19.5322 1.92041 18.1136 2.01025 16.6652L2.01025 7.33484C1.92041 5.88635 2.41992 4.46777 3.39893 3.39893C4.46777 2.41992 5.88647 1.92041 7.33496 2.01031L16.6653 2.01031ZM17.7043 10.102L10.9812 16.845C10.6316 17.1846 10.1719 17.3745 9.69238 17.3745L7.34497 17.3745C7.21509 17.3745 7.09521 17.3245 7.00513 17.2346C6.91528 17.1447 6.87524 17.0248 6.87524 16.895L6.9353 14.5274C6.94531 14.0579 7.13501 13.6183 7.46484 13.2887L12.2297 8.52362C12.3098 8.44366 12.4497 8.44366 12.5295 8.52362L14.1978 10.1819C14.3076 10.2917 14.4675 10.3617 14.6375 10.3617C15.0071 10.3617 15.2966 10.062 15.2966 9.70239C15.2966 9.52258 15.2268 9.36273 15.1169 9.24286C15.0869 9.20288 13.4985 7.62451 13.4985 7.62451C13.3987 7.52466 13.3987 7.3548 13.4985 7.25488L14.168 6.57562C14.7871 5.95624 15.7861 5.95624 16.4055 6.57562L17.7043 7.87427C18.3135 8.48364 18.3135 9.4826 17.7043 10.102Z" clip-rule="evenodd" fill="#212121" fill-opacity="1.000000" fill-rule="evenodd"/>
</svg>
