<svg width="24.000000" height="24.000000" viewBox="0 0 24 24" fill="none" xmlns="http://www.w3.org/2000/svg" xmlns:xlink="http://www.w3.org/1999/xlink">
	<desc>
			Created with Pixso.
	</desc>
	<defs/>
	<rect id="Iconly/Bold/Arrow - Down 3" width="24.000000" height="24.000000" fill="#FFFFFF" fill-opacity="0"/>
	<rect id="Iconly/Bold/Arrow - Down 3" width="24.000000" height="24.000000" fill="#FFFFFF" fill-opacity="0"/>
	<path id="Arrow - Down 3" d="M17.41 12.14C17.28 11.9 17.04 11.76 16.78 11.76L12.71 11.76L12.71 3.73C12.71 3.32 12.39 3 12 3C11.6 3 11.28 3.32 11.28 3.73L11.28 11.76L7.21 11.76C6.95 11.76 6.71 11.9 6.58 12.14C6.46 12.37 6.47 12.66 6.61 12.88L11.39 20.65C11.52 20.87 11.75 21 12 21C12.24 21 12.47 20.87 12.6 20.65L17.39 12.88C17.46 12.76 17.5 12.63 17.5 12.49C17.5 12.37 17.46 12.25 17.41 12.14Z" fill="#212121" fill-opacity="1.000000" fill-rule="nonzero"/>
</svg>
