<svg width="24.000000" height="24.000000" viewBox="0 0 24 24" fill="none" xmlns="http://www.w3.org/2000/svg" xmlns:xlink="http://www.w3.org/1999/xlink">
	<desc>
			Created with Pixso.
	</desc>
	<defs/>
	<rect id="Iconly/Bold/Time Circle" width="24.000000" height="24.000000" fill="#FFFFFF" fill-opacity="0"/>
	<path id="Time Circle" d="M12 22.0001C6.47998 22.0001 2 17.5302 2 12.0001C2 6.4801 6.47998 2.00012 12 2.00012C17.53 2.00012 22 6.4801 22 12.0001C22 17.5302 17.53 22.0001 12 22.0001ZM15.5801 15.8201C15.4399 15.8201 15.3101 15.7802 15.1899 15.7101L11.27 13.3701C11.04 13.2301 10.8999 12.9901 10.8999 12.7301L10.8999 7.68011C10.8999 7.26013 11.24 6.93011 11.6499 6.93011C12.0601 6.93011 12.3999 7.26013 12.3999 7.68011L12.3999 12.3001L15.96 14.4201C16.3201 14.6401 16.4299 15.1001 16.22 15.4501C16.0801 15.6901 15.8301 15.8201 15.5801 15.8201Z" clip-rule="evenodd" fill="#212121" fill-opacity="1.000000" fill-rule="evenodd"/>
</svg>
