<svg width="24.000000" height="24.000000" viewBox="0 0 24 24" fill="none" xmlns="http://www.w3.org/2000/svg" xmlns:xlink="http://www.w3.org/1999/xlink">
	<desc>
			Created with Pixso.
	</desc>
	<defs/>
	<rect id="Iconly/Bold/Volume Up" width="24.000000" height="24.000000" fill="#FFFFFF" fill-opacity="0"/>
	<path id="Volume Up" d="M13.1252 4.95612C13.2544 5.45966 13.3069 5.96423 13.3572 6.45056L13.4043 6.89288C13.5847 8.36908 13.5847 15.6213 13.4043 17.1082L13.3572 17.5666C13.312 18.0294 13.2659 18.5082 13.1328 19.0192C12.7815 20.2206 11.845 21 10.7817 21C10.7483 21 10.7146 21 10.677 20.9989C10.0896 20.9989 9.45117 20.6382 9.08936 20.3236L5.56299 17.3831L3.75195 17.3831C2.35425 17.3831 1.33081 16.3706 1.14502 14.8043C0.931152 13.2379 0.973145 10.5507 1.14502 9.12708C1.34741 7.64441 2.41919 6.61694 3.75195 6.61694L5.56299 6.61694L9.02222 3.7193C9.43945 3.35645 10.1755 2.99786 10.7576 3C11.801 3 12.7742 3.75153 13.1252 4.95612ZM19.29 3.22107C19.7075 2.92474 20.281 3.0332 20.5671 3.45728C22.136 5.76654 23 8.80164 23 11.9999C23 15.2003 22.136 18.2343 20.5671 20.5436C20.3962 20.7959 20.1143 20.9473 19.8132 20.9473C19.6267 20.9473 19.4463 20.8893 19.291 20.7798C18.876 20.4824 18.7732 19.8973 19.0603 19.4722C20.4172 17.4731 21.165 14.8192 21.165 11.9999C21.165 9.1817 20.4172 6.52777 19.0603 4.52869C18.7732 4.10461 18.876 3.51843 19.29 3.22107ZM17.4065 6.49457C17.1182 6.06946 16.5466 5.96313 16.1284 6.25836C15.7141 6.55579 15.6113 7.14197 15.8997 7.56604C16.7019 8.74805 17.1433 10.322 17.1433 12C17.1433 13.6769 16.7019 15.252 15.8997 16.434C15.6113 16.858 15.7141 17.4442 16.1294 17.7416C16.2847 17.8511 16.4661 17.9091 16.6526 17.9091C16.9536 17.9091 17.2346 17.7577 17.4065 17.5054C18.4194 16.0131 18.9785 14.0581 18.9785 12C18.9785 9.94189 18.4194 7.98688 17.4065 6.49457Z" clip-rule="evenodd" fill="#212121" fill-opacity="1.000000" fill-rule="evenodd"/>
</svg>
