<svg width="24.000000" height="24.000000" viewBox="0 0 24 24" fill="none" xmlns="http://www.w3.org/2000/svg" xmlns:xlink="http://www.w3.org/1999/xlink">
	<desc>
			Created with Pixso.
	</desc>
	<defs/>
	<rect id="Iconly/Bold/Work" width="24.000000" height="24.000000" fill="#FFFFFF" fill-opacity="0"/>
	<path id="Work" d="M16.207 4.61264L18.188 4.61264C20.2891 4.61264 22 6.34427 22 8.47086C22 8.47086 21.9399 9.37109 21.9199 10.6248C21.918 10.724 21.8699 10.8212 21.791 10.8799C21.3096 11.2354 20.8694 11.5291 20.8293 11.5493C19.1687 12.6632 17.2385 13.447 15.1826 13.8369C15.0486 13.8632 14.9165 13.7934 14.8484 13.6739C14.2722 12.6754 13.1956 12.0253 11.9951 12.0253C10.8025 12.0253 9.71582 12.6683 9.12256 13.6678C9.05347 13.7852 8.92334 13.8531 8.79028 13.8278C6.75146 13.4369 4.82129 12.6541 3.17065 11.5594L2.21021 10.8911C2.13013 10.8405 2.08008 10.7493 2.08008 10.6481C2.05005 10.1316 2 8.47086 2 8.47086C2 6.34427 3.71094 4.61264 5.81201 4.61264L7.78296 4.61264C7.9729 3.14429 9.20361 2 10.7043 2L13.2856 2C14.7864 2 16.0171 3.14429 16.207 4.61264ZM10.7043 3.51898C10.0339 3.51898 9.46362 3.9848 9.30371 4.61264L14.6863 4.61264C14.5264 3.9848 13.9561 3.51898 13.2856 3.51898L10.7043 3.51898ZM21.6199 12.8355L21.6599 12.8152C21.7 12.795 21.7598 12.7849 21.8098 12.8152C21.8999 12.8659 21.8999 12.9874 21.8999 12.9874L21.8198 18.1519C21.8198 20.2785 20.1191 22 18.0181 22L5.97192 22C3.87085 22 2.17017 20.2785 2.17017 18.1519L2.1001 12.9874C2.1001 12.9874 2.1001 12.8659 2.19019 12.8152C2.27002 12.7646 2.37012 12.8254 2.38013 12.8355C4.40112 14.1925 6.83252 15.0937 9.38379 15.4684C9.7439 15.519 10.104 15.2861 10.2041 14.9216C10.4243 14.0912 11.1345 13.5444 11.9851 13.5444L12.0149 13.5444C12.8655 13.5444 13.5757 14.0912 13.7959 14.9216C13.896 15.2861 14.2561 15.519 14.6162 15.4684C17.1675 15.0937 19.5989 14.1925 21.6199 12.8355ZM12.7454 17.0583C12.7454 17.4836 12.4153 17.8177 11.9951 17.8177C11.5847 17.8177 11.2446 17.4836 11.2446 17.0583L11.2446 15.752C11.2446 15.3368 11.5847 14.9925 11.9951 14.9925C12.4153 14.9925 12.7454 15.3368 12.7454 15.752L12.7454 17.0583Z" clip-rule="evenodd" fill="#212121" fill-opacity="1.000000" fill-rule="evenodd"/>
</svg>
