<svg width="24.000000" height="24.000000" viewBox="0 0 24 24" fill="none" xmlns="http://www.w3.org/2000/svg" xmlns:xlink="http://www.w3.org/1999/xlink">
	<desc>
			Created with Pixso.
	</desc>
	<defs/>
	<rect id="Iconly/Bold/Buy" width="24.000000" height="24.000000" fill="#FFFFFF" fill-opacity="0"/>
	<path id="Buy" d="M21.5854 6.61124C21.1858 6.14178 20.7861 5.92749 20.1765 5.92749L6.68213 5.92749C6.3623 5.92749 6.10254 5.68256 6.07251 5.35498L5.88281 3.06906C5.85278 2.72208 5.60303 2.43735 5.26318 2.37509L2.88013 2.00873C2.47046 1.94647 2.08057 2.22305 2.01074 2.64044C1.94067 3.04865 2.22046 3.44662 2.62036 3.51807L4.12915 3.78342L5.04834 14.908C5.1582 16.255 6.25732 17.295 7.58643 17.295L18.4878 17.295C19.7568 17.295 20.8362 16.3469 21.0159 15.06L21.9651 8.36548C22.0552 7.75421 21.9851 7.08066 21.5854 6.61124ZM16.8892 11.2331L14.1213 11.2331C13.7017 11.2331 13.3718 10.8861 13.3718 10.4677C13.3718 10.0391 13.7017 9.70236 14.1213 9.70236L16.8892 9.70236C17.3088 9.70236 17.6387 10.0391 17.6387 10.4677C17.6387 10.8861 17.3088 11.2331 16.8892 11.2331ZM7.42627 18.9079C6.58691 18.9079 5.90747 19.6018 5.90747 20.459C5.90747 21.3061 6.58691 22 7.42627 22C8.25562 22 8.93506 21.3061 8.93506 20.459C8.93506 19.6018 8.25562 18.9079 7.42627 18.9079ZM18.6675 18.9079C17.8281 18.9079 17.1487 19.6018 17.1487 20.459C17.1487 21.3061 17.8281 22 18.6675 22C19.4968 22 20.1763 21.3061 20.1763 20.459C20.1763 19.6018 19.4968 18.9079 18.6675 18.9079Z" clip-rule="evenodd" fill="#212121" fill-opacity="1.000000" fill-rule="evenodd"/>
</svg>
