<svg width="24.000000" height="24.000000" viewBox="0 0 24 24" fill="none" xmlns="http://www.w3.org/2000/svg" xmlns:xlink="http://www.w3.org/1999/xlink">
	<desc>
			Created with Pixso.
	</desc>
	<defs/>
	<rect id="Iconly/Bold/Login" width="24.000000" height="24.000000" fill="#FFFFFF" fill-opacity="0"/>
	<path id="Login" d="M16.9253 2L11.886 2C9.3562 2 7.29077 4 7.29077 6.45001L7.29077 11.23L13.6931 11.23L12.041 9.64001C11.7312 9.34003 11.7312 8.84998 12.041 8.54999C12.3508 8.25 12.8567 8.25 13.1665 8.54999L16.1819 11.46C16.3367 11.6 16.4194 11.8 16.4194 12C16.4194 12.21 16.3367 12.41 16.1819 12.55L13.1665 15.46C13.0117 15.61 12.8052 15.68 12.6089 15.68C12.4023 15.68 12.1958 15.61 12.041 15.46C11.7312 15.16 11.7312 14.67 12.041 14.37L13.6931 12.77L7.29077 12.77L7.29077 17.57C7.29077 20.01 9.3562 22 11.8757 22L16.9048 22C19.4451 22 21.5 20.01 21.5 17.56L21.5 6.44C21.5 4 19.4451 2 16.9253 2ZM2.5 11.9999C2.5 11.5799 2.85522 11.2299 3.28149 11.2299L7.29053 11.2299L7.29053 12.7699L3.28149 12.7699C2.85522 12.7699 2.5 12.4299 2.5 11.9999Z" clip-rule="evenodd" fill="#212121" fill-opacity="1.000000" fill-rule="evenodd"/>
</svg>
