<svg width="24.000000" height="24.000000" viewBox="0 0 24 24" fill="none" xmlns="http://www.w3.org/2000/svg" xmlns:xlink="http://www.w3.org/1999/xlink">
	<desc>
			Created with Pixso.
	</desc>
	<defs/>
	<rect id="Iconly/Bold/Show" width="24.000000" height="24.000000" fill="#FFFFFF" fill-opacity="0"/>
	<path id="Show" d="M17.7366 6.04608C19.4438 7.36487 20.8975 9.29456 21.9414 11.7091C22.0195 11.8933 22.0195 12.1067 21.9414 12.2812C19.8538 17.1103 16.1365 20 12 20L11.9902 20C7.86353 20 4.14624 17.1103 2.05859 12.2812C1.98047 12.1067 1.98047 11.8933 2.05859 11.7091C4.14624 6.88 7.86353 4 11.9902 4L12 4C14.0684 4 16.0293 4.71759 17.7366 6.04608ZM8.09766 12C8.09766 14.1334 9.84399 15.8691 12 15.8691C14.1462 15.8691 15.8926 14.1334 15.8926 12C15.8926 9.85699 14.1462 8.12122 12 8.12122C9.84399 8.12122 8.09766 9.85699 8.09766 12ZM12.0012 14.4124C13.3376 14.4124 14.4304 13.3264 14.4304 11.9979C14.4304 10.6597 13.3376 9.57361 12.0012 9.57361C11.884 9.57361 11.7671 9.58331 11.6597 9.60272C11.6206 10.6694 10.7427 11.5227 9.65967 11.5227L9.61084 11.5227C9.58154 11.6779 9.56226 11.833 9.56226 11.9979C9.56226 13.3264 10.6548 14.4124 12.0012 14.4124Z" clip-rule="evenodd" fill="#212121" fill-opacity="1.000000" fill-rule="evenodd"/>
</svg>
