<svg width="24.000000" height="24.000000" viewBox="0 0 24 24" fill="none" xmlns="http://www.w3.org/2000/svg" xmlns:xlink="http://www.w3.org/1999/xlink">
	<desc>
			Created with Pixso.
	</desc>
	<defs/>
	<rect id="Iconly/Bold/Category" width="24.000000" height="24.000000" fill="#FFFFFF" fill-opacity="0"/>
	<path id="Category" d="M4.54004 2L7.91992 2C9.33008 2 10.46 3.14999 10.46 4.561L10.46 7.97C10.46 9.39001 9.33008 10.53 7.91992 10.53L4.54004 10.53C3.13989 10.53 2 9.39001 2 7.97L2 4.561C2 3.14999 3.13989 2 4.54004 2ZM19.4602 2L16.0801 2C14.6702 2 13.54 3.14999 13.54 4.561L13.54 7.97C13.54 9.39001 14.6702 10.53 16.0801 10.53L19.4602 10.53C20.8601 10.53 22 9.39001 22 7.97L22 4.561C22 3.14999 20.8601 2 19.4602 2ZM4.54004 13.4697L7.91992 13.4697C9.33008 13.4697 10.46 14.6107 10.46 16.0307L10.46 19.4397C10.46 20.8497 9.33008 21.9997 7.91992 21.9997L4.54004 21.9997C3.13989 21.9997 2 20.8497 2 19.4397L2 16.0307C2 14.6107 3.13989 13.4697 4.54004 13.4697ZM16.0801 13.4697L19.4602 13.4697C20.8601 13.4697 22 14.6107 22 16.0307L22 19.4397C22 20.8497 20.8601 21.9997 19.4602 21.9997L16.0801 21.9997C14.6702 21.9997 13.54 20.8497 13.54 19.4397L13.54 16.0307C13.54 14.6107 14.6702 13.4697 16.0801 13.4697Z" clip-rule="evenodd" fill="#212121" fill-opacity="1.000000" fill-rule="evenodd"/>
</svg>
