<svg width="24.000000" height="24.000000" viewBox="0 0 24 24" fill="none" xmlns="http://www.w3.org/2000/svg" xmlns:xlink="http://www.w3.org/1999/xlink">
	<desc>
			Created with Pixso.
	</desc>
	<defs/>
	<rect id="Iconly/Bold/Send" width="24.000000" height="24.000000" fill="#FFFFFF" fill-opacity="0"/>
	<path id="Send" d="M21.43 2.58C20.93 2.06 20.19 1.87 19.5 2.07L3.4 6.75C2.67 6.96 2.16 7.54 2.02 8.28C1.88 9.03 2.37 9.98 3.02 10.38L8.05 13.47C8.57 13.79 9.24 13.71 9.66 13.28L15.43 7.48C15.72 7.18 16.2 7.18 16.49 7.48C16.78 7.77 16.78 8.24 16.49 8.55L10.72 14.35C10.29 14.78 10.21 15.45 10.52 15.97L13.6 21.05C13.96 21.65 14.58 22 15.26 22C15.34 22 15.43 22 15.51 21.98C16.29 21.88 16.91 21.35 17.14 20.6L21.91 4.52C22.12 3.84 21.93 3.09 21.43 2.58Z" fill="#212121" fill-opacity="1.000000" fill-rule="nonzero"/>
</svg>
