<svg width="24.000000" height="24.000000" viewBox="0 0 24 24" fill="none" xmlns="http://www.w3.org/2000/svg" xmlns:xlink="http://www.w3.org/1999/xlink">
	<desc>
			Created with Pixso.
	</desc>
	<defs/>
	<rect id="Iconly/Bold/Image" width="24.000000" height="24.000000" fill="#FFFFFF" fill-opacity="0"/>
	<path id="Image" d="M7.66626 22L16.3328 22C19.7231 22 22 19.6219 22 16.0833L22 7.91675C22 4.37811 19.7231 2 16.3337 2L7.66626 2C4.27686 2 2 4.37811 2 7.91675L2 16.0833C2 19.6219 4.27686 22 7.66626 22ZM8.49878 11C7.12012 11 6 9.8783 6 8.5C6 7.1217 7.12012 6 8.49878 6C9.87646 6 10.9978 7.1217 10.9978 8.5C10.9978 9.8783 9.87646 11 8.49878 11ZM19.8208 14.934C20.1558 15.7925 19.9817 16.8246 19.6238 17.6749C19.1995 18.6863 18.387 19.452 17.3633 19.7864C16.9087 19.935 16.4321 20 15.9563 20L7.52856 20C6.68994 20 5.948 19.7988 5.3396 19.4241C4.9585 19.1888 4.89111 18.646 5.17358 18.2941C5.64624 17.7059 6.11279 17.1156 6.5835 16.5201C7.48047 15.3808 8.08472 15.0505 8.75635 15.3406C9.02905 15.4603 9.30249 15.6398 9.58398 15.8297C10.3342 16.3395 11.377 17.0402 12.7505 16.2797C13.6958 15.7502 14.2419 14.84 14.7185 14.0505C14.9136 13.7307 15.0986 13.4107 15.3137 13.1207C15.5371 12.8204 16.3647 11.8813 17.4365 12.55C18.1194 12.9711 18.6936 13.5408 19.3079 14.1507C19.5422 14.3839 19.7092 14.6491 19.8208 14.934Z" clip-rule="evenodd" fill="#212121" fill-opacity="1.000000" fill-rule="evenodd"/>
</svg>
