<svg width="24.000000" height="24.000000" viewBox="0 0 24 24" fill="none" xmlns="http://www.w3.org/2000/svg" xmlns:xlink="http://www.w3.org/1999/xlink">
	<desc>
			Created with Pixso.
	</desc>
	<defs/>
	<rect id="Iconly/Bold/Activity" width="24.000000" height="24.000000" fill="#FFFFFF" fill-opacity="0"/>
	<path id="Activity" d="M17.1797 4.41C17.1797 3.07999 18.2598 2 19.5896 2C20.9197 2 21.9998 3.07999 21.9998 4.41C21.9998 5.73999 20.9197 6.82001 19.5896 6.82001C18.2598 6.82001 17.1797 5.73999 17.1797 4.41ZM15.4495 3.78027Q15.3894 4.15527 15.3894 4.53027C15.3894 6.78027 17.2095 8.59927 19.4495 8.59927C19.6995 8.59927 19.9395 8.57025 20.1895 8.53027L20.1895 16.5993C20.1895 19.9903 18.1895 22.0002 14.7896 22.0002L7.40039 22.0002C3.99951 22.0002 1.99951 19.9903 1.99951 16.5993L1.99951 9.20026C1.99951 5.80026 3.99951 3.78027 7.40039 3.78027L15.4495 3.78027ZM16.2195 11.0303L13.3296 14.7592C13.0996 15.0603 12.6995 15.1393 12.3794 14.9693L12.2896 14.9102L9.43945 12.7693L6.92944 16.0002C6.78955 16.1893 6.57056 16.3103 6.3396 16.3003C6.16943 16.3003 6.01953 16.2403 5.87939 16.1503C5.57959 15.9293 5.49951 15.5193 5.66943 15.2003L5.73047 15.1103L8.68945 11.2592C8.81055 11.0992 8.99048 10.9903 9.18945 10.9603C9.3894 10.9393 9.5896 10.9903 9.75952 11.1203L12.5305 13.3003L14.9495 10.1703C15.1106 9.95026 15.3794 9.83026 15.6504 9.86026C15.9094 9.88025 16.1504 10.0503 16.2595 10.3003C16.3696 10.5503 16.3396 10.8303 16.1794 11.0503L16.2195 11.0303Z" clip-rule="evenodd" fill="#212121" fill-opacity="1.000000" fill-rule="evenodd"/>
</svg>
