<svg width="24.000000" height="24.000000" viewBox="0 0 24 24" fill="none" xmlns="http://www.w3.org/2000/svg" xmlns:xlink="http://www.w3.org/1999/xlink">
	<desc>
			Created with Pixso.
	</desc>
	<defs/>
	<rect id="Iconly/Bold/Filter" width="24.000000" height="24.000000" fill="#FFFFFF" fill-opacity="0"/>
	<path id="Filter" d="M8.87769 6.37854C8.87769 8.24524 7.33887 9.75824 5.43896 9.75824C3.54004 9.75824 2 8.24524 2 6.37854C2 4.513 3.54004 3 5.43896 3C7.33887 3 8.87769 4.513 8.87769 6.37854ZM20.4934 4.89832C21.3245 4.89832 22 5.56201 22 6.37854C22 7.19617 21.3245 7.85986 20.4934 7.85986L13.9177 7.85986C13.0857 7.85986 12.4102 7.19617 12.4102 6.37854C12.4102 5.56201 13.0857 4.89832 13.9177 4.89832L20.4934 4.89832ZM18.561 20.7778C20.4612 20.7778 22 19.2648 22 17.3992C22 15.5325 20.4612 14.0196 18.561 14.0196C16.6624 14.0196 15.1223 15.5325 15.1223 17.3992C15.1223 19.2648 16.6624 20.7778 18.561 20.7778ZM3.50781 15.9579L10.0833 15.9579C10.9155 15.9579 11.5911 16.6216 11.5911 17.4393C11.5911 18.2558 10.9155 18.9206 10.0833 18.9206L3.50781 18.9206C2.67554 18.9206 2 18.2558 2 17.4393C2 16.6216 2.67554 15.9579 3.50781 15.9579Z" clip-rule="evenodd" fill="#212121" fill-opacity="1.000000" fill-rule="evenodd"/>
</svg>
