<svg width="24.000000" height="24.000000" viewBox="0 0 24 24" fill="none" xmlns="http://www.w3.org/2000/svg" xmlns:xlink="http://www.w3.org/1999/xlink">
	<desc>
			Created with Pixso.
	</desc>
	<defs/>
	<rect id="Iconly/Bold/Danger" width="24.000000" height="24.000000" fill="#FFFFFF" fill-opacity="0"/>
	<path id="Danger" d="M14.4773 4.44208L21.7461 17.0572C21.906 17.4337 21.9761 17.74 21.9961 18.058C22.0359 18.8012 21.7761 19.5236 21.2661 20.0795C20.7561 20.6334 20.0664 20.9604 19.3164 21L4.67896 21C4.3689 20.9812 4.05908 20.9108 3.76904 20.8018C2.31934 20.2172 1.61938 18.5723 2.20923 17.1464L9.52808 4.43317C9.77808 3.98627 10.158 3.60083 10.6279 3.35309C11.9878 2.59903 13.7173 3.09448 14.4773 4.44208ZM12.8674 12.7557C12.8674 13.2314 12.4775 13.6287 11.9976 13.6287C11.5178 13.6287 11.1179 13.2314 11.1179 12.7557L11.1179 9.95248C11.1179 9.47586 11.5178 9.09039 11.9976 9.09039C12.4775 9.09039 12.8674 9.47586 12.8674 9.95248L12.8674 12.7557ZM11.9976 17.0176C11.5178 17.0176 11.1179 16.6202 11.1179 16.1456C11.1179 15.669 11.5178 15.2726 11.9976 15.2726C12.4775 15.2726 12.8674 15.6601 12.8674 16.1347C12.8674 16.6202 12.4775 17.0176 11.9976 17.0176Z" clip-rule="evenodd" fill="#212121" fill-opacity="1.000000" fill-rule="evenodd"/>
</svg>
