<svg width="24.000000" height="24.000000" viewBox="0 0 24 24" fill="none" xmlns="http://www.w3.org/2000/svg" xmlns:xlink="http://www.w3.org/1999/xlink">
	<desc>
			Created with Pixso.
	</desc>
	<defs/>
	<rect id="Iconly/Bold/Game" width="24.000000" height="24.000000" fill="#FFFFFF" fill-opacity="0"/>
	<path id="Game" d="M13.3052 6.06552C14.2375 6.06552 15.1697 6.08478 16.1118 6.09442C19.5171 6.09442 22 8.52216 22 11.8748L22 16.1811C22 19.5337 19.5171 21.9615 16.1118 21.9615C14.7478 21.9904 13.3838 22 12.0098 22C10.636 22 9.2522 21.9904 7.88818 21.9615C4.48291 21.9615 2 19.5337 2 16.1811L2 11.8748C2 8.52216 4.48291 6.09442 7.89795 6.09442C9.18359 6.07513 10.4985 6.05588 11.8333 6.05588L11.8333 5.89209C11.8333 5.22736 11.2737 4.68787 10.6064 4.68787L9.63501 4.68787C8.52612 4.68787 7.62305 3.80154 7.62305 2.72253C7.62305 2.32755 7.95679 2 8.35913 2C8.77124 2 9.09521 2.32755 9.09521 2.72253C9.09521 3.01157 9.34058 3.24277 9.63501 3.24277L10.6064 3.24277C12.0884 3.25241 13.2954 4.43738 13.3052 5.88248L13.3052 6.06552ZM9.82153 14.7456L10.8521 14.7456C11.2544 14.7456 11.5881 14.4277 11.5881 14.0231C11.5881 13.6281 11.2544 13.3006 10.8521 13.3006L9.82153 13.3006L9.82153 12.289C9.82153 11.894 9.48804 11.5665 9.08569 11.5665C8.67334 11.5665 8.34961 11.894 8.34961 12.289L8.34961 13.3006L7.30933 13.3006C6.90698 13.3006 6.57324 13.6281 6.57324 14.0231C6.57324 14.4277 6.90698 14.7456 7.30933 14.7456L8.34961 14.7456L8.34961 15.7668C8.34961 16.1618 8.67334 16.4894 9.08569 16.4894C9.48804 16.4894 9.82153 16.1618 9.82153 15.7668L9.82153 14.7456ZM15.1208 13.1175L15.0227 13.1175C14.6106 13.1175 14.2869 12.7996 14.2869 12.395C14.2869 12 14.6106 11.6724 15.0227 11.6724L15.1208 11.6724C15.5232 11.6724 15.8569 12 15.8569 12.395C15.8569 12.7996 15.5232 13.1175 15.1208 13.1175ZM16.7991 16.4316L16.7009 16.4316C16.2878 16.4316 15.9648 16.1137 15.9648 15.709C15.9648 15.3141 16.2878 14.9865 16.7009 14.9865L16.7991 14.9865C17.2014 14.9865 17.5352 15.3141 17.5352 15.709C17.5352 16.1137 17.2014 16.4316 16.7991 16.4316Z" clip-rule="evenodd" fill="#212121" fill-opacity="1.000000" fill-rule="evenodd"/>
</svg>
