<svg width="24.000000" height="24.000000" viewBox="0 0 24 24" fill="none" xmlns="http://www.w3.org/2000/svg" xmlns:xlink="http://www.w3.org/1999/xlink">
	<desc>
			Created with Pixso.
	</desc>
	<defs/>
	<rect id="Iconly/Bold/Discount" width="24.000000" height="24.000000" fill="#FFFFFF" fill-opacity="0"/>
	<path id="Discount" d="M20.3992 9.146L21.1194 9.866C21.6897 10.426 21.9998 11.186 21.9998 11.986C22.0098 12.786 21.6997 13.547 21.1394 14.116C21.1294 14.127 21.1194 14.136 21.1094 14.146L20.3992 14.856C20.1191 15.136 19.959 15.516 19.959 15.917L19.959 16.946C19.959 18.606 18.6086 19.957 16.948 19.957L15.9175 19.957C15.5173 19.957 15.1372 20.116 14.8572 20.396L14.137 21.116C13.5466 21.707 12.7764 21.996 12.0061 21.996C11.2358 21.996 10.4656 21.707 9.87549 21.127L9.14502 20.396C8.86499 20.116 8.48486 19.957 8.08472 19.957L7.05444 19.957C5.3938 19.957 4.04321 18.606 4.04321 16.946L4.04321 15.917C4.04321 15.516 3.8833 15.136 3.60303 14.846L2.88281 14.136C1.7124 12.967 1.70239 11.056 2.8728 9.87698L3.60303 9.146C3.8833 8.866 4.04321 8.48599 4.04321 8.07599L4.04321 7.056C4.04321 5.396 5.3938 4.047 7.05444 4.047L8.08472 4.047C8.48486 4.047 8.86499 3.88599 9.14502 3.60599L9.86548 2.88599C11.0359 1.707 12.9465 1.707 14.127 2.87698L14.8572 3.60599C15.1372 3.88599 15.5173 4.047 15.9175 4.047L16.948 4.047C18.6086 4.047 19.959 5.396 19.959 7.056L19.959 8.08698C19.959 8.48599 20.1191 8.866 20.3992 9.146ZM10.0454 15.186C9.8855 15.356 9.66528 15.446 9.42529 15.446C9.19507 15.446 8.9751 15.356 8.81494 15.186C8.47485 14.846 8.47485 14.286 8.81494 13.946L13.9568 8.806C14.2969 8.46701 14.8472 8.46701 15.1873 8.806C15.5273 9.146 15.5273 9.707 15.1873 10.047L10.0454 15.186ZM9.4353 8.556C9.91528 8.556 10.3054 8.94598 10.3054 9.42599C10.3054 9.91699 9.91528 10.306 9.4353 10.306C8.95508 10.306 8.55493 9.91699 8.55493 9.42599C8.55493 8.94598 8.95508 8.556 9.4353 8.556ZM14.5771 15.446C14.0869 15.446 13.6968 15.056 13.6968 14.566C13.6968 14.087 14.0869 13.696 14.5771 13.696C15.0574 13.696 15.4475 14.087 15.4475 14.566C15.4475 15.056 15.0574 15.446 14.5771 15.446Z" clip-rule="evenodd" fill="#212121" fill-opacity="1.000000" fill-rule="evenodd"/>
</svg>
