<svg width="24.000000" height="24.000000" viewBox="0 0 24 24" fill="none" xmlns="http://www.w3.org/2000/svg" xmlns:xlink="http://www.w3.org/1999/xlink">
	<desc>
			Created with Pixso.
	</desc>
	<defs/>
	<rect id="Iconly/Bold/Filter 2" width="24.000000" height="24.000000" fill="#FFFFFF" fill-opacity="0"/>
	<path id="Filter 2" d="M19.8718 2L4.12817 2C2.95239 2 2 2.98212 2 4.1933L2 5.75769C2 6.31451 2.20483 6.8512 2.57446 7.25739L8.55249 13.832C8.66553 13.9561 8.82324 14.0272 8.98901 14.0272L14.4355 14.0441C14.593 14.0452 14.7454 13.9816 14.8577 13.867L21.3628 7.28705C21.7705 6.87555 22 6.31134 22 5.72375L22 4.19226C22 2.98108 21.0476 2 19.8718 2ZM9.28003 15.8242L14.1348 15.839C14.4373 15.84 14.6824 16.0935 14.6824 16.4043L14.6824 19.1353C14.6824 19.4471 14.5054 19.7292 14.2295 19.8597L9.82275 21.929C9.71973 21.9767 9.6106 22 9.50146 22C9.3562 22 9.21118 21.9576 9.08447 21.8738C8.86304 21.7274 8.72925 21.475 8.72925 21.2045L8.72925 16.3895C8.72925 16.0765 8.97632 15.8231 9.28003 15.8242Z" clip-rule="evenodd" fill="#212121" fill-opacity="1.000000" fill-rule="evenodd"/>
</svg>
