<svg width="24.000000" height="24.000000" viewBox="0 0 24 24" fill="none" xmlns="http://www.w3.org/2000/svg" xmlns:xlink="http://www.w3.org/1999/xlink">
	<desc>
			Created with Pixso.
	</desc>
	<defs/>
	<rect id="Iconly/Bold/Upload" width="24.000000" height="24.000000" fill="#FFFFFF" fill-opacity="0"/>
	<path id="Upload" d="M8.46582 5.23627C8.24268 5.53754 8.26831 5.96729 8.55029 6.23999C8.8501 6.53998 9.34009 6.53998 9.64014 6.23999L11.2302 4.64001L11.2302 8.78003L12.7703 8.78003L12.7703 4.64001L14.3601 6.23999L14.4465 6.31439C14.7478 6.53754 15.1775 6.51276 15.4502 6.23999C15.6001 6.09003 15.6802 5.89001 15.6802 5.69C15.6802 5.5 15.6001 5.29999 15.4502 5.15002L12.5403 2.22998L12.4495 2.1485C12.3203 2.05121 12.1602 2 12.0002 2C11.7903 2 11.6001 2.08002 11.4502 2.22998L8.54028 5.15002L8.46582 5.23627ZM2 13.2875C2 10.8759 3.87793 8.8963 6.2312 8.7851L6.43994 8.78021L11.23 8.78021L11.23 14.8848C11.23 15.3223 11.5701 15.6683 12 15.6683C12.385 15.6683 12.7112 15.3776 12.7629 14.9922L12.77 14.8848L12.77 8.78021L17.55 8.78021C19.9299 8.78021 21.8853 10.6909 21.9951 13.0945L22 13.3078L22 18.2628C22 20.6843 20.1221 22.6641 17.7688 22.7753L17.5601 22.7802L6.44995 22.7802C4.0603 22.7802 2.11401 20.8599 2.00488 18.4651L2 18.2526L2 13.2875Z" clip-rule="evenodd" fill="#212121" fill-opacity="1.000000" fill-rule="evenodd"/>
</svg>
