<svg width="24.000000" height="24.000000" viewBox="0 0 24 24" fill="none" xmlns="http://www.w3.org/2000/svg" xmlns:xlink="http://www.w3.org/1999/xlink">
	<desc>
			Created with Pixso.
	</desc>
	<defs/>
	<rect id="Iconly/Bold/Wallet" width="24.000000" height="24.000000" fill="#FFFFFF" fill-opacity="0"/>
	<path id="Wallet" d="M17.7688 8.38181L22 8.38181C22 4.98459 19.9644 3 16.5156 3L7.48438 3C4.03564 3 2 4.98459 2 8.33847L2 15.6615C2 19.0154 4.03564 21 7.48438 21L16.5156 21C19.9644 21 22 19.0154 22 15.6615L22 15.3495L17.7688 15.3495C15.8052 15.3495 14.2134 13.7975 14.2134 11.883C14.2134 9.96848 15.8052 8.41647 17.7688 8.41647L17.7688 8.38181ZM6.73779 8.38181L12.3823 8.38181C12.8044 8.38181 13.1467 8.04813 13.1467 7.63651C13.1467 7.22488 12.8044 6.89117 12.3823 6.89117L6.73779 6.89117C6.31909 6.89117 5.97827 7.2196 5.97339 7.62784C5.97339 8.04086 6.31421 8.37704 6.73779 8.38181ZM17.7688 9.87244L21.2532 9.87244C21.6655 9.87244 21.9998 10.1984 21.9998 10.6004L21.9998 13.131C21.9951 13.5311 21.6636 13.8543 21.2532 13.8589L17.8489 13.8589C16.8547 13.872 15.9854 13.2084 15.7598 12.2643C15.647 11.6783 15.8054 11.0736 16.1929 10.6122C16.5803 10.1509 17.1572 9.8801 17.7688 9.87244ZM18.2488 12.533L17.9199 12.533C17.4963 12.5283 17.1555 12.1921 17.1555 11.779C17.1555 11.5822 17.2363 11.3935 17.3799 11.2551C17.5234 11.1167 17.718 11.0401 17.9199 11.0424L18.2488 11.0424C18.6709 11.0424 19.0132 11.3761 19.0132 11.7877C19.0132 12.1993 18.6709 12.533 18.2488 12.533Z" clip-rule="evenodd" fill="#212121" fill-opacity="1.000000" fill-rule="evenodd"/>
</svg>
