<svg width="24.000000" height="24.000000" viewBox="0 0 24 24" fill="none" xmlns="http://www.w3.org/2000/svg" xmlns:xlink="http://www.w3.org/1999/xlink">
	<desc>
			Created with Pixso.
	</desc>
	<defs/>
	<rect id="Iconly/Bold/Paper Fail" width="24.000000" height="24.000000" fill="#FFFFFF" fill-opacity="0"/>
	<path id="Paper Fail" d="M20.0444 9.01999C19.6287 9.01999 19.1138 9.03 18.8069 9.03C18.3613 9.03 17.7573 9.01999 17.0149 9.01999C15.2029 9.01001 13.708 7.51001 13.708 5.67999L13.708 2.45999C13.708 2.20999 13.5 2 13.2524 2L7.96533 2C5.5 2 3.5 4.03 3.5 6.51001L3.5 17.29C3.5 19.89 5.58911 22 8.17334 22L16.0444 22C18.51 22 20.5 19.99 20.5 17.51L20.5 9.47C20.5 9.22 20.302 9.01999 20.0444 9.01999ZM17.1433 7.5592C17.8333 7.56619 18.7917 7.56921 19.6057 7.56619C20.0234 7.56519 20.2344 7.06219 19.9463 6.75919C18.9006 5.66119 17.0303 3.6962 15.9592 2.5722C15.6641 2.2612 15.1462 2.47519 15.1462 2.90619L15.1462 5.54221C15.1462 6.64819 16.0483 7.5592 17.1433 7.5592ZM14.0544 15.26C14.3416 14.97 14.3416 14.5 14.0544 14.21L12.8464 12.99L14.0544 11.77C14.3416 11.48 14.3416 11.01 14.0544 10.72C13.7673 10.42 13.292 10.42 13.0049 10.72L11.7971 11.94L10.5891 10.72C10.302 10.42 9.83667 10.42 9.54956 10.72C9.26245 11.01 9.26245 11.48 9.54956 11.77L10.7573 12.99L9.54956 14.21C9.26245 14.5 9.26245 14.97 9.54956 15.26C9.68823 15.41 9.87622 15.48 10.0645 15.48C10.2524 15.48 10.4504 15.41 10.5891 15.26L11.7971 14.04L13.0049 15.26C13.1536 15.41 13.3416 15.48 13.5298 15.48C13.7178 15.48 13.906 15.41 14.0544 15.26Z" clip-rule="evenodd" fill="#212121" fill-opacity="1.000000" fill-rule="evenodd"/>
</svg>
