<svg width="24.000000" height="24.000000" viewBox="0 0 24 24" fill="none" xmlns="http://www.w3.org/2000/svg" xmlns:xlink="http://www.w3.org/1999/xlink">
	<desc>
			Created with Pixso.
	</desc>
	<defs/>
	<rect id="Iconly/Bold/3 User" width="24.000000" height="24.000000" fill="#FFFFFF" fill-opacity="0"/>
	<path id="3 Friends" d="M16.1582 8.23285C16.1582 10.5825 14.2852 12.4666 11.949 12.4666C9.61304 12.4666 7.73975 10.5825 7.73975 8.23285C7.73975 5.88226 9.61304 4 11.949 4C14.2852 4 16.1582 5.88226 16.1582 8.23285ZM6.43701 11.8413C6.60181 11.8368 6.76294 11.8224 6.92065 11.7945C7.03442 11.7747 7.09155 11.6459 7.0271 11.5504C6.40039 10.6228 6.04321 9.50696 6.04321 8.30914C6.04321 7.05908 6.43359 5.89368 7.11133 4.93817C7.13281 4.90845 7.14795 4.86249 7.12744 4.82831C7.10962 4.80127 7.07544 4.78595 7.04517 4.77875C6.81592 4.73193 6.5813 4.70581 6.33594 4.70581C4.07959 4.70581 2.30762 6.84113 2.91187 9.21967C3.31934 10.8209 4.79395 11.8845 6.43701 11.8413ZM17.957 8.3092C17.957 9.50702 17.5999 10.6229 16.9731 11.5505C16.9087 11.646 16.9658 11.7748 17.0796 11.7946C17.2363 11.8216 17.3984 11.8369 17.5632 11.8414C19.2063 11.8846 20.6809 10.821 21.0884 9.21973C21.6919 6.84125 19.9199 4.70587 17.6633 4.70587C17.418 4.70587 17.1833 4.73199 16.9551 4.77887C16.9238 4.78607 16.8906 4.80048 16.8728 4.82837C16.8513 4.86261 16.8674 4.90851 16.8889 4.93823C17.5667 5.8938 17.957 7.0592 17.957 8.3092ZM20.6782 13.5126C21.7822 13.7296 22.5085 14.1727 22.8093 14.8167C23.0635 15.3453 23.0635 15.9586 22.8093 16.4864C22.3491 17.4852 20.8655 17.8058 20.2888 17.8886C20.1697 17.9066 20.0737 17.803 20.0864 17.6833C20.3809 14.9157 18.0376 13.6035 17.4314 13.3018C17.4055 13.2883 17.4001 13.2676 17.4028 13.255C17.4045 13.246 17.4153 13.2316 17.4351 13.2289C18.7468 13.2046 20.157 13.3847 20.6782 13.5126ZM6.59692 13.2545C6.59961 13.2679 6.59424 13.2878 6.56909 13.3022C5.96216 13.6039 3.6189 14.9161 3.91333 17.6827C3.92603 17.8034 3.83105 17.9061 3.71191 17.889C3.13525 17.8062 1.65161 17.4855 1.19141 16.4868C0.936279 15.9581 0.936279 15.3456 1.19141 14.817C1.49219 14.1731 2.21753 13.73 3.32153 13.512C3.84351 13.3851 5.25293 13.2049 6.56567 13.2292C6.58521 13.2319 6.59521 13.2463 6.59692 13.2545ZM11.949 20C8.51782 20 5.58813 19.4561 5.58813 17.2802C5.58813 15.1034 8.49902 14.5396 11.949 14.5396C15.3801 14.5396 18.3101 15.0836 18.3101 17.2604C18.3101 19.4362 15.3989 20 11.949 20Z" clip-rule="evenodd" fill="#212121" fill-opacity="1.000000" fill-rule="evenodd"/>
</svg>
