<svg width="24.000000" height="24.000000" viewBox="0 0 24 24" fill="none" xmlns="http://www.w3.org/2000/svg" xmlns:xlink="http://www.w3.org/1999/xlink">
	<desc>
			Created with Pixso.
	</desc>
	<defs/>
	<rect id="Iconly/Bold/Video" width="24.000000" height="24.000000" fill="#FFFFFF" fill-opacity="0"/>
	<path id="Video" d="M6.11304 4.5L11.905 4.5C14.3271 4.5 16.0181 6.16904 16.0181 8.56091L16.0181 15.4391C16.0181 17.831 14.3271 19.5 11.905 19.5L6.11304 19.5C3.69092 19.5 2 17.831 2 15.4391L2 8.56091C2 6.16904 3.69092 4.5 6.11304 4.5ZM21.3311 6.94293C20.9121 6.67899 20.397 6.65564 19.958 6.879L18.4761 7.6272C17.928 7.90335 17.5879 8.46173 17.5879 9.08304L17.5879 14.9165C17.5879 15.5369 17.928 16.0952 18.4761 16.3734L19.957 17.1206C20.158 17.2231 20.373 17.2739 20.5879 17.2739C20.8459 17.2739 21.1021 17.2008 21.3311 17.0577C21.75 16.7947 22 16.3389 22 15.8384L22 8.16223C22 7.66275 21.75 7.2059 21.3311 6.94293Z" clip-rule="evenodd" fill="#212121" fill-opacity="1.000000" fill-rule="evenodd"/>
</svg>
