<svg width="24.000000" height="24.000000" viewBox="0 0 24 24" fill="none" xmlns="http://www.w3.org/2000/svg" xmlns:xlink="http://www.w3.org/1999/xlink">
	<desc>
			Created with Pixso.
	</desc>
	<defs/>
	<rect id="Iconly/Bold/Call Silent" width="24.000000" height="24.000000" fill="#FFFFFF" fill-opacity="0"/>
	<mask id="mask_430_6082" fill="white">
		<path id="Combined Shape" d="M21.375 3.86951L21.375 3.85931C21.7021 3.51373 21.7021 2.97504 21.375 2.62946C21.2166 2.46686 20.9985 2.3642 20.7705 2.3642C20.5425 2.3642 20.3245 2.46686 20.1758 2.62946L2.21558 21.0567C2.18579 21.0872 2.16602 21.1167 2.14624 21.1482L2.11646 21.1888C1.92822 21.5141 1.96777 21.9511 2.24536 22.2459C2.42383 22.4085 2.63184 22.5 2.84985 22.5C3.06812 22.5 3.27612 22.4085 3.44458 22.2459L8.8064 16.7479C16.2068 23.9875 18.6907 21.3327 19.2654 20.7184C19.3035 20.6777 19.3333 20.6459 19.3555 20.6266C22.0225 17.9051 21.2878 17.1915 19.4485 15.4043C19.1914 15.1547 18.9131 14.8842 18.6194 14.5844C17.5134 13.4605 16.7244 13.7446 15.8472 14.0604C14.8816 14.408 13.8093 14.7939 12.0906 13.3824L11.5627 13.9212L11.959 13.5151L21.375 3.86951ZM3.15918 4.48431C2.57617 5.06042 0.192627 7.41504 6.18555 14.2053L9.68677 10.653C9.19507 9.53296 9.47437 8.71838 9.73169 7.96735C10.0391 7.07031 10.3152 6.26404 9.20972 5.1366C8.90991 4.83221 8.63989 4.54376 8.39111 4.27802C6.64038 2.40729 5.94116 1.66022 3.25439 4.38538C3.23486 4.40948 3.2019 4.44214 3.15918 4.48431Z" clip-rule="evenodd" fill="" fill-opacity="1.000000" fill-rule="evenodd"/>
	</mask>
	<path id="Combined Shape" d="M21.375 3.86951L21.375 3.85931C21.7021 3.51373 21.7021 2.97504 21.375 2.62946C21.2166 2.46686 20.9985 2.3642 20.7705 2.3642C20.5425 2.3642 20.3245 2.46686 20.1758 2.62946L2.21558 21.0567C2.18579 21.0872 2.16602 21.1167 2.14624 21.1482L2.11646 21.1888C1.92822 21.5141 1.96777 21.9511 2.24536 22.2459C2.42383 22.4085 2.63184 22.5 2.84985 22.5C3.06812 22.5 3.27612 22.4085 3.44458 22.2459L8.8064 16.7479C16.2068 23.9875 18.6907 21.3327 19.2654 20.7184C19.3035 20.6777 19.3333 20.6459 19.3555 20.6266C22.0225 17.9051 21.2878 17.1915 19.4485 15.4043C19.1914 15.1547 18.9131 14.8842 18.6194 14.5844C17.5134 13.4605 16.7244 13.7446 15.8472 14.0604C14.8816 14.408 13.8093 14.7939 12.0906 13.3824L11.5627 13.9212L11.959 13.5151L21.375 3.86951ZM3.15918 4.48431C2.57617 5.06042 0.192627 7.41504 6.18555 14.2053L9.68677 10.653C9.19507 9.53296 9.47437 8.71838 9.73169 7.96735C10.0391 7.07031 10.3152 6.26404 9.20972 5.1366C8.90991 4.83221 8.63989 4.54376 8.39111 4.27802C6.64038 2.40729 5.94116 1.66022 3.25439 4.38538C3.23486 4.40948 3.2019 4.44214 3.15918 4.48431Z" clip-rule="evenodd" fill="#212121" fill-opacity="1.000000" fill-rule="evenodd" mask="url(#mask_430_6082)"/>
	<path id="Combined Shape" d="" fill="#000000" fill-opacity="0.000000" fill-rule="nonzero"/>
</svg>
