<svg width="24.000000" height="24.000000" viewBox="0 0 24 24" fill="none" xmlns="http://www.w3.org/2000/svg" xmlns:xlink="http://www.w3.org/1999/xlink">
	<desc>
			Created with Pixso.
	</desc>
	<defs/>
	<rect id="Iconly/Bold/Edit" width="24.000000" height="24.000000" fill="#FFFFFF" fill-opacity="0"/>
	<path id="Edit" d="M9.37646 20.0279L18.1628 8.66547C18.6404 8.05273 18.8101 7.3443 18.6509 6.62299C18.5129 5.96729 18.1096 5.34375 17.5049 4.87079L16.0298 3.69904C14.7458 2.67786 13.1541 2.78534 12.2415 3.95703L11.2546 5.23737C11.1272 5.39752 11.1592 5.63403 11.3184 5.763C11.3184 5.763 13.812 7.76245 13.865 7.80548C14.0349 7.96674 14.1621 8.1817 14.1941 8.4397C14.2471 8.94495 13.897 9.41791 13.377 9.48242C13.1328 9.51465 12.8994 9.43939 12.7297 9.29968L10.1086 7.21423C9.9812 7.11853 9.79028 7.13898 9.68408 7.26794L3.45508 15.3303C3.052 15.8355 2.91406 16.4912 3.052 17.1255L3.84766 20.5761C3.89014 20.7589 4.04932 20.8879 4.24048 20.8879L7.74219 20.8449C8.37891 20.8341 8.97314 20.5439 9.37646 20.0279ZM14.2798 18.9532L19.9897 18.9532C20.5469 18.9532 21 19.4123 21 19.9766C21 20.5421 20.5469 21 19.9897 21L14.2798 21C13.7227 21 13.2695 20.5421 13.2695 19.9766C13.2695 19.4123 13.7227 18.9532 14.2798 18.9532Z" clip-rule="evenodd" fill="#212121" fill-opacity="1.000000" fill-rule="evenodd"/>
</svg>
