<svg width="24.000000" height="24.000000" viewBox="0 0 24 24" fill="none" xmlns="http://www.w3.org/2000/svg" xmlns:xlink="http://www.w3.org/1999/xlink">
	<desc>
			Created with Pixso.
	</desc>
	<defs/>
	<rect id="Iconly/Bold/Voice" width="24.000000" height="24.000000" fill="#FFFFFF" fill-opacity="0"/>
	<path id="Voice" d="M12.1748 15.2174L11.825 15.2174C9.42163 15.2174 7.47363 13.2927 7.47363 10.9203L7.47363 6.29706C7.47363 3.92371 9.42163 2 11.825 2L12.1748 2C14.5781 2 16.5271 3.92371 16.5271 6.29706L16.5271 10.9203C16.5271 13.2927 14.5781 15.2174 12.1748 15.2174ZM19.5312 9.82623C18.9966 9.82623 18.5625 10.2538 18.5625 10.7828C18.5625 14.3558 15.6187 17.2629 12.0005 17.2629C8.38135 17.2629 5.4375 14.3558 5.4375 10.7828C5.4375 10.2538 5.00342 9.82623 4.46875 9.82623C3.93408 9.82623 3.5 10.2538 3.5 10.7828C3.5 15.0866 6.79956 18.6404 11.0317 19.1177L11.0317 21.0434C11.0317 21.5714 11.4648 22 12.0005 22C12.5352 22 12.9692 21.5714 12.9692 21.0434L12.9692 19.1177C17.2004 18.6404 20.5 15.0866 20.5 10.7828C20.5 10.2538 20.0659 9.82623 19.5312 9.82623Z" clip-rule="evenodd" fill="#212121" fill-opacity="1.000000" fill-rule="evenodd"/>
</svg>
