<svg width="24.000000" height="24.000000" viewBox="0 0 24 24" fill="none" xmlns="http://www.w3.org/2000/svg" xmlns:xlink="http://www.w3.org/1999/xlink">
	<desc>
			Created with Pixso.
	</desc>
	<defs/>
	<rect id="Iconly/Bold/Heart" width="24.000000" height="24.000000" fill="#FFFFFF" fill-opacity="0"/>
	<path id="Heart" d="M15.8499 2.5007C16.4807 2.5007 17.1108 2.58972 17.7097 2.79071C21.4009 3.99072 22.7307 8.04071 21.6199 11.5807C20.9897 13.3897 19.9597 15.0407 18.6108 16.3897C16.6797 18.2597 14.5608 19.9197 12.2798 21.3497L12.0298 21.5007L11.7698 21.3397C9.48071 19.9197 7.34985 18.2597 5.40088 16.3797C4.06079 15.0307 3.02979 13.3897 2.38989 11.5807C1.25977 8.04071 2.58984 3.99072 6.3208 2.76971C6.61084 2.66971 6.90967 2.5997 7.20972 2.5607L7.32983 2.5607C7.61084 2.51971 7.88989 2.5007 8.16968 2.5007L8.27979 2.5007C8.90967 2.51971 9.51978 2.6297 10.1108 2.83072L10.1697 2.83072C10.2097 2.8497 10.2397 2.8707 10.2598 2.88971C10.4807 2.96072 10.6897 3.04071 10.8899 3.1507L11.2698 3.32071C11.4197 3.4007 11.5999 3.54971 11.6997 3.61072C11.7998 3.66971 11.9097 3.73071 11.9998 3.79971C13.1108 2.95071 14.4597 2.49072 15.8499 2.5007ZM19.2998 8.9397C19.2698 9.36072 18.9197 9.6897 18.5098 9.70071C18.2898 9.67972 18.0798 9.58072 17.9397 9.41071C17.7998 9.24072 17.7307 9.01971 17.7498 8.79071L17.7498 8.7597C17.7498 8.0607 17.3208 7.42972 16.6797 7.1897C16.2598 7.04071 16.0398 6.58072 16.1797 6.16071C16.3298 5.74072 16.7798 5.51971 17.1897 5.66071C18.4807 6.1507 19.3298 7.41971 19.2998 8.82071L19.2998 8.9397Z" clip-rule="evenodd" fill="#212121" fill-opacity="1.000000" fill-rule="evenodd"/>
</svg>
