<svg width="24.000000" height="24.000000" viewBox="0 0 24 24" fill="none" xmlns="http://www.w3.org/2000/svg" xmlns:xlink="http://www.w3.org/1999/xlink">
	<desc>
			Created with Pixso.
	</desc>
	<defs/>
	<rect id="Iconly/Bold/Tick Square" width="24.000000" height="24.000000" fill="#FFFFFF" fill-opacity="0"/>
	<path id="Tick Square" d="M7.66992 1.99988L16.3401 1.99988C19.73 1.99988 22 4.37988 22 7.91989L22 16.0909C22 19.6199 19.73 21.9999 16.3401 21.9999L7.66992 21.9999C4.28003 21.9999 2 19.6199 2 16.0909L2 7.91989C2 4.37988 4.28003 1.99988 7.66992 1.99988ZM16.1799 10.2399L11.4299 14.9899C11.26 15.1599 11.04 15.2399 10.8101 15.2399C10.5901 15.2399 10.3701 15.1599 10.2 14.9899L7.82007 12.6199C7.47998 12.2699 7.47998 11.7199 7.82007 11.3799C8.15991 11.0399 8.71997 11.0399 9.06006 11.3799L10.8101 13.1299L14.9399 8.99988C15.28 8.65988 15.8401 8.65988 16.1799 8.99988C16.52 9.34988 16.52 9.89987 16.1799 10.2399Z" clip-rule="evenodd" fill="#212121" fill-opacity="1.000000" fill-rule="evenodd"/>
</svg>
