<svg width="24.000000" height="24.000000" viewBox="0 0 24 24" fill="none" xmlns="http://www.w3.org/2000/svg" xmlns:xlink="http://www.w3.org/1999/xlink">
	<desc>
			Created with Pixso.
	</desc>
	<defs/>
	<rect id="Iconly/Bold/Paper" width="24.000000" height="24.000000" fill="#FFFFFF" fill-opacity="0"/>
	<path id="Paper" d="M20.0544 9.01999C19.6287 9.01999 19.1238 9.03 18.8169 9.03C18.3613 9.03 17.7673 9.01999 17.0149 9.01999C15.2029 9.01001 13.708 7.51001 13.708 5.67999L13.708 2.45999C13.708 2.20999 13.51 2 13.2524 2L7.96533 2C5.5 2 3.5 4.03 3.5 6.51001L3.5 17.29C3.5 19.89 5.59912 22 8.17334 22L16.0544 22C18.51 22 20.5 19.99 20.5 17.51L20.5 9.47C20.5 9.22 20.302 9.01999 20.0544 9.01999ZM17.1477 7.55899C17.8379 7.56601 18.7971 7.569 19.6111 7.56601C20.0278 7.565 20.2397 7.06201 19.9507 6.759C18.905 5.66101 17.0349 3.69601 15.9646 2.57199C15.6685 2.26099 15.1506 2.47501 15.1506 2.90601L15.1506 5.54199C15.1506 6.64801 16.0527 7.55899 17.1477 7.55899ZM12.2722 9.89999L8.92578 9.89999C8.51978 9.89999 8.18311 10.24 8.18311 10.65C8.18311 11.06 8.51978 11.39 8.92578 11.39L12.2722 11.39C12.6782 11.39 13.0149 11.06 13.0149 10.65C13.0149 10.24 12.6782 9.89999 12.2722 9.89999ZM8.92578 16.39L14.3118 16.39C14.7178 16.39 15.0544 16.05 15.0544 15.64C15.0544 15.23 14.7178 14.9 14.3118 14.9L8.92578 14.9C8.51978 14.9 8.18311 15.23 8.18311 15.64C8.18311 16.05 8.51978 16.39 8.92578 16.39Z" clip-rule="evenodd" fill="#212121" fill-opacity="1.000000" fill-rule="evenodd"/>
</svg>
