<svg width="24.000000" height="24.000000" viewBox="0 0 24 24" fill="none" xmlns="http://www.w3.org/2000/svg" xmlns:xlink="http://www.w3.org/1999/xlink">
	<desc>
			Created with Pixso.
	</desc>
	<defs/>
	<rect id="Iconly/Bold/Scan" width="24.000000" height="24.000000" fill="#FFFFFF" fill-opacity="0"/>
	<path id="Scan" d="M8.42773 3C8.84766 3 9.18872 3.33438 9.18872 3.74722C9.18872 4.15906 8.84863 4.49347 8.42773 4.49347L6.79858 4.49445C5.44678 4.4964 4.34668 5.57605 4.34668 6.9028L4.34668 8.76199C4.34668 9.17386 4.00464 9.50922 3.58472 9.50922C3.16479 9.50922 2.82373 9.17386 2.82373 8.76199L2.82373 6.9028C2.82373 4.75333 4.60669 3.00293 6.79761 3.00098L8.42676 3L8.42773 3ZM17.1936 3.00031L15.6006 3.00031C15.1807 3.00031 14.8396 3.33469 14.8396 3.7475C14.8396 4.15936 15.1807 4.49277 15.6006 4.49277L17.1936 4.49277C18.5505 4.49277 19.6545 5.57535 19.6545 6.90604L19.6545 8.7623C19.6545 9.17416 19.9956 9.50952 20.4155 9.50952C20.8367 9.50952 21.1765 9.17416 21.1765 8.7623L21.1765 6.90604C21.1765 4.75165 19.3906 3.00031 17.1936 3.00031ZM14.7625 6.74265L9.23853 6.74265C7.97461 6.7554 6.9585 7.76837 6.96948 9.00882L6.96948 10.2542C6.97241 10.3993 7.09155 10.518 7.2395 10.5229L16.7595 10.5229C16.9084 10.519 17.0276 10.4003 17.0325 10.2542L17.0325 9.00882C17.0334 8.40967 16.7976 7.83408 16.3716 7.40555C15.9485 6.98096 15.3674 6.74265 14.7625 6.74265ZM1.76196 12.0412L22.239 12.0412C22.6589 12.0412 23 12.3756 23 12.7885C23 13.2003 22.6589 13.5337 22.239 13.5337L21.177 13.5337L21.177 17.0933C21.177 19.2487 19.3899 21 17.1941 21L15.6011 21C15.1799 21 14.8391 20.6656 14.8391 20.2528C14.8391 19.8409 15.1799 19.5065 15.6011 19.5065L17.1941 19.5065C18.551 19.5065 19.655 18.425 19.655 17.0933L19.655 13.5337L17.032 13.5337L17.032 14.5251C17.042 15.7656 16.0271 16.7795 14.762 16.7913L9.23804 16.7913C7.97412 16.7795 6.95898 15.7656 6.96899 14.5251L6.96899 13.5337L4.34595 13.5337L4.34595 17.0972C4.34595 18.424 5.44702 19.5036 6.80005 19.5056L8.42798 19.5065C8.8479 19.5065 9.18896 19.8409 9.18896 20.2528C9.18799 20.6656 8.8479 21 8.427 21L6.7981 20.999C4.60693 20.9971 2.823 19.2467 2.823 17.0972L2.823 13.5337L1.76196 13.5337C1.34204 13.5337 1 13.2003 1 12.7885C1 12.3756 1.34204 12.0412 1.76196 12.0412Z" clip-rule="evenodd" fill="#212121" fill-opacity="1.000000" fill-rule="evenodd"/>
</svg>
