<svg width="24.000000" height="24.000000" viewBox="0 0 24 24" fill="none" xmlns="http://www.w3.org/2000/svg" xmlns:xlink="http://www.w3.org/1999/xlink">
	<desc>
			Created with Pixso.
	</desc>
	<defs/>
	<rect id="Iconly/Bold/Arrow - Left 2" width="24.000000" height="24.000000" fill="#FFFFFF" fill-opacity="0"/>
	<rect id="Iconly/Bold/Arrow - Left 2" width="24.000000" height="24.000000" fill="#FFFFFF" fill-opacity="0"/>
	<path id="Arrow - Left 2" d="M7.36 10.86C7.42 10.81 7.63 10.56 7.83 10.35C9 9.07 12.04 6.97 13.63 6.33C13.87 6.23 14.48 6.01 14.81 6C15.12 6 15.42 6.07 15.7 6.21C16.06 6.42 16.34 6.74 16.5 7.12C16.6 7.38 16.75 8.17 16.75 8.18C16.91 9.04 17 10.44 17 11.99C17 13.46 16.91 14.8 16.78 15.68C16.77 15.69 16.61 16.67 16.44 17C16.13 17.62 15.52 18 14.86 18L14.81 18C14.38 17.98 13.49 17.6 13.49 17.59C11.98 16.94 9.01 14.95 7.82 13.62C7.82 13.62 7.48 13.28 7.34 13.07C7.11 12.76 7 12.38 7 12C7 11.58 7.12 11.19 7.36 10.86Z" fill="#212121" fill-opacity="1.000000" fill-rule="nonzero"/>
</svg>
