<svg width="24.000000" height="24.000000" viewBox="0 0 24 24" fill="none" xmlns="http://www.w3.org/2000/svg" xmlns:xlink="http://www.w3.org/1999/xlink">
	<desc>
			Created with Pixso.
	</desc>
	<defs/>
	<rect id="Iconly/Bold/Arrow - Right 2" width="24.000000" height="24.000000" fill="#FFFFFF" fill-opacity="0"/>
	<rect id="Iconly/Bold/Arrow - Right 2" width="24.000000" height="24.000000" fill="#FFFFFF" fill-opacity="0"/>
	<path id="Arrow - Right 2" d="M16.63 13.13C16.57 13.18 16.36 13.43 16.16 13.64C14.99 14.92 11.95 17.02 10.36 17.66C10.12 17.76 9.51 17.98 9.18 18C8.87 18 8.57 17.92 8.29 17.78C7.93 17.57 7.65 17.25 7.49 16.87C7.39 16.61 7.24 15.82 7.24 15.81C7.08 14.95 7 13.55 7 12C7 10.53 7.08 9.19 7.21 8.31C7.22 8.3 7.38 7.32 7.55 6.99C7.86 6.38 8.47 6 9.13 6L9.18 6C9.61 6.01 10.5 6.39 10.5 6.4C12.01 7.05 14.98 9.04 16.17 10.37C16.17 10.37 16.51 10.71 16.65 10.92C16.88 11.23 17 11.61 17 11.99C17 12.41 16.87 12.81 16.63 13.13Z" fill="#212121" fill-opacity="1.000000" fill-rule="nonzero"/>
</svg>
