<svg width="24.000000" height="24.000000" viewBox="0 0 24 24" fill="none" xmlns="http://www.w3.org/2000/svg" xmlns:xlink="http://www.w3.org/1999/xlink">
	<desc>
			Created with Pixso.
	</desc>
	<defs/>
	<rect id="Iconly/Bold/Folder" width="24.000000" height="24.000000" fill="#FFFFFF" fill-opacity="0"/>
	<path id="Folder" d="M13.45 4.88016L16.52 4.88016C20.21 4.88016 22.01 6.85016 22 10.8902L22 15.7602C22 19.6202 19.6201 22.0002 15.75 22.0002L8.23999 22.0002C4.38989 22.0002 2 19.6202 2 15.7502L2 8.24017C2 4.10016 3.84009 2.00018 7.46997 2.00018L9.05005 2.00018C9.98096 1.99017 10.8501 2.42017 11.4199 3.15018L12.3 4.32016C12.5801 4.67017 13 4.88016 13.45 4.88016ZM7.37012 15.2902L16.6299 15.2902C17.04 15.2902 17.3701 14.9502 17.3701 14.5402C17.3701 14.1202 17.04 13.7902 16.6299 13.7902L7.37012 13.7902C6.94995 13.7902 6.62012 14.1202 6.62012 14.5402C6.62012 14.9502 6.94995 15.2902 7.37012 15.2902Z" clip-rule="evenodd" fill="#212121" fill-opacity="1.000000" fill-rule="evenodd"/>
</svg>
