<svg width="24.000000" height="24.000000" viewBox="0 0 24 24" fill="none" xmlns="http://www.w3.org/2000/svg" xmlns:xlink="http://www.w3.org/1999/xlink">
	<desc>
			Created with Pixso.
	</desc>
	<defs/>
	<rect id="Iconly/Bold/Camera" width="24.000000" height="24.000000" fill="#FFFFFF" fill-opacity="0"/>
	<path id="Camera" d="M17.4399 6.23639C17.48 6.30634 17.55 6.35626 17.6399 6.35626C20.04 6.35626 22 8.31409 22 10.7114L22 16.6448C22 19.0422 20.04 21 17.6399 21L6.36011 21C3.94995 21 2 19.0422 2 16.6448L2 10.7114C2 8.31409 3.94995 6.35626 6.36011 6.35626C6.43994 6.35626 6.52002 6.31635 6.55005 6.23639L6.61011 6.11652C6.88989 5.52722 7.22998 4.80798 7.42993 4.40845C7.88989 3.50946 8.66992 3.01001 9.63989 3L14.3501 3C15.3201 3.01001 16.1101 3.50946 16.5701 4.40845C16.76 4.78802 17.0701 5.44727 17.3401 6.01666L17.4399 6.23639ZM16.71 10.0721C16.71 10.5716 17.1101 10.9711 17.6101 10.9711C18.1101 10.9711 18.52 10.5716 18.52 10.0721C18.52 9.57269 18.1101 9.16315 17.6101 9.16315C17.1101 9.16315 16.71 9.57269 16.71 10.0721ZM14.77 16.1055C14.0601 16.8146 13.0801 17.2542 12 17.2542C10.95 17.2542 9.96997 16.8446 9.21997 16.1055C8.47998 15.3563 8.07007 14.3774 8.07007 13.3286C8.06006 12.2897 8.46997 11.3108 9.20996 10.5616C9.95996 9.81244 10.95 9.40289 12 9.40289C13.05 9.40289 14.04 9.81244 14.78 10.5516C15.52 11.3008 15.9299 12.2897 15.9299 13.3286C15.9199 14.4173 15.48 15.3962 14.77 16.1055ZM12 10.9012C11.3501 10.9012 10.74 11.1509 10.27 11.6204C9.81006 12.0799 9.56006 12.6892 9.57007 13.3185L9.57007 13.3286C9.57007 13.9778 9.82007 14.5871 10.28 15.0466C10.74 15.5061 11.3501 15.7558 12 15.7558C13.3401 15.7558 14.4199 14.6671 14.4299 13.3286C14.4299 12.6793 14.1799 12.0699 13.72 11.6104C13.26 11.1509 12.6499 10.9012 12 10.9012Z" clip-rule="evenodd" fill="#212121" fill-opacity="1.000000" fill-rule="evenodd"/>
</svg>
