<svg width="24.000000" height="24.000000" viewBox="0 0 24 24" fill="none" xmlns="http://www.w3.org/2000/svg" xmlns:xlink="http://www.w3.org/1999/xlink">
	<desc>
			Created with Pixso.
	</desc>
	<defs/>
	<rect id="Iconly/Bold/Setting" width="24.000000" height="24.000000" fill="#FFFFFF" fill-opacity="0"/>
	<path id="Setting" d="M20.4023 13.5801C20.76 13.7701 21.0359 14.0701 21.2302 14.3701C21.6082 14.9901 21.5776 15.7501 21.2097 16.4201L20.4944 17.6201C20.1162 18.2601 19.4111 18.6601 18.6855 18.6601C18.3279 18.6601 17.9292 18.5601 17.6023 18.3601C17.3364 18.1901 17.0298 18.1301 16.7029 18.1301C15.6912 18.1301 14.843 18.9601 14.8123 19.9501C14.8123 21.1001 13.8721 22.0001 12.6968 22.0001L11.3069 22.0001C10.1213 22.0001 9.18115 21.1001 9.18115 19.9501C9.16089 18.9601 8.3125 18.1301 7.30078 18.1301C6.96362 18.1301 6.65698 18.1901 6.40161 18.3601C6.07446 18.5601 5.66577 18.6601 5.31836 18.6601C4.58252 18.6601 3.8772 18.2601 3.49927 17.6201L2.79395 16.4201C2.41602 15.7701 2.39551 14.9901 2.77368 14.3701C2.93701 14.0701 3.24365 13.7701 3.59106 13.5801C3.8772 13.4401 4.06128 13.2101 4.23486 12.9401C4.74585 12.0801 4.43945 10.9501 3.5708 10.4401C2.55908 9.87012 2.23193 8.6001 2.81445 7.61011L3.49927 6.43011C4.0918 5.44012 5.35913 5.09015 6.3811 5.6701C7.27026 6.15015 8.42505 5.83014 8.94629 4.9801C9.10962 4.70013 9.20166 4.40015 9.18115 4.1001C9.16089 3.71014 9.27319 3.34015 9.46729 3.0401C9.84546 2.4201 10.5303 2.02014 11.2764 2.00012L12.7173 2.00012C13.4734 2.00012 14.1582 2.4201 14.5364 3.0401C14.7202 3.34015 14.843 3.71014 14.8123 4.1001C14.7917 4.40015 14.8838 4.70013 15.0474 4.9801C15.5686 5.83014 16.7234 6.15015 17.6226 5.6701C18.6343 5.09015 19.9119 5.44012 20.4944 6.43011L21.179 7.61011C21.7717 8.6001 21.4448 9.87012 20.4229 10.4401C19.5542 10.9501 19.2476 12.0801 19.7688 12.9401C19.9321 13.2101 20.1162 13.4401 20.4023 13.5801ZM9.10962 12.0101C9.10962 13.5801 10.4077 14.8301 12.012 14.8301C13.6165 14.8301 14.8838 13.5801 14.8838 12.0101C14.8838 10.4401 13.6165 9.18011 12.012 9.18011C10.4077 9.18011 9.10962 10.4401 9.10962 12.0101Z" clip-rule="evenodd" fill="#212121" fill-opacity="1.000000" fill-rule="evenodd"/>
</svg>
