<svg width="24.000000" height="24.000000" viewBox="0 0 24 24" fill="none" xmlns="http://www.w3.org/2000/svg" xmlns:xlink="http://www.w3.org/1999/xlink">
	<desc>
			Created with Pixso.
	</desc>
	<defs/>
	<rect id="Iconly/Bold/Notification" width="24.000000" height="24.000000" fill="#FFFFFF" fill-opacity="0"/>
	<path id="Notification" d="M19.7695 11.6456C19.0391 10.7925 18.707 10.0522 18.707 8.79633L18.707 8.3703C18.707 6.73267 18.3313 5.67917 17.5125 4.62466C16.2502 2.98703 14.1255 2 12.0452 2L11.9558 2C9.91943 2 7.86108 2.94171 6.5769 4.51187C5.71338 5.58853 5.29395 6.68835 5.29395 8.3703L5.29395 8.79633C5.29395 10.0522 4.98389 10.7925 4.23047 11.6456C3.67798 12.274 3.5 13.0808 3.5 13.956C3.5 14.8302 3.78833 15.6601 4.36377 16.3339C5.11597 17.1417 6.17847 17.6573 7.26367 17.747C8.83496 17.9263 10.4062 17.9937 12.0005 17.9937C13.5938 17.9937 15.166 17.8809 16.7373 17.747C17.8215 17.6573 18.884 17.1417 19.6372 16.3339C20.2129 15.6601 20.5 14.8302 20.5 13.956C20.5 13.0808 20.323 12.274 19.7695 11.6456ZM9.07373 20.0608C9.07373 19.5573 9.53589 19.3266 9.96313 19.2279C10.4631 19.1222 13.5093 19.1222 14.0093 19.2279C14.4365 19.3266 14.8987 19.5573 14.8987 20.0608C14.8738 20.5403 14.5925 20.9653 14.2041 21.2352C13.7002 21.628 13.1086 21.8767 12.4905 21.9664C12.1487 22.0107 11.8127 22.0117 11.4829 21.9664C10.8635 21.8767 10.2722 21.628 9.76929 21.2342C9.37988 20.9653 9.09863 20.5403 9.07373 20.0608Z" clip-rule="evenodd" fill="#212121" fill-opacity="1.000000" fill-rule="evenodd"/>
</svg>
