<svg width="24.000000" height="24.000000" viewBox="0 0 24 24" fill="none" xmlns="http://www.w3.org/2000/svg" xmlns:xlink="http://www.w3.org/1999/xlink">
	<desc>
			Created with Pixso.
	</desc>
	<defs/>
	<rect id="Iconly/Bold/Chat" width="24.000000" height="24.000000" fill="#FFFFFF" fill-opacity="0"/>
	<path id="Chat" d="M2 12.015C2 6.74713 6.20996 2 12.02 2C17.7 2 22 6.65698 22 11.985C22 18.1642 16.96 22 12 22C10.3601 22 8.54004 21.5593 7.08008 20.6981C6.57007 20.3876 6.13989 20.1572 5.59009 20.3375L3.57007 20.9384C3.06006 21.0986 2.6001 20.6981 2.75 20.1572L3.41992 17.9139C3.53003 17.6034 3.51001 17.2729 3.3501 17.0125C2.48999 15.4301 2 13.6975 2 12.015ZM11.98 13.3069C11.27 13.2969 10.7 12.7261 10.7 12.015C10.7 11.314 11.28 10.7331 11.98 10.7431C12.6899 10.7431 13.26 11.314 13.26 12.025C13.26 12.7261 12.6899 13.3069 11.98 13.3069ZM16.5898 13.3069C15.8799 13.3069 15.3098 12.7261 15.3098 12.025C15.3098 11.314 15.8799 10.7431 16.5898 10.7431C17.2998 10.7431 17.8699 11.314 17.8699 12.025C17.8699 12.7261 17.2998 13.3069 16.5898 13.3069ZM7.37012 13.3069C6.66992 13.3069 6.09009 12.7261 6.09009 12.025C6.09009 11.314 6.65991 10.7431 7.37012 10.7431C8.08008 10.7431 8.6499 11.314 8.6499 12.025C8.6499 12.7261 8.08008 13.2969 7.37012 13.3069Z" clip-rule="evenodd" fill="#212121" fill-opacity="1.000000" fill-rule="evenodd"/>
</svg>
