<svg width="24.000000" height="24.000000" viewBox="0 0 24 24" fill="none" xmlns="http://www.w3.org/2000/svg" xmlns:xlink="http://www.w3.org/1999/xlink">
	<desc>
			Created with Pixso.
	</desc>
	<defs/>
	<rect id="Iconly/Bold/Plus" width="24.000000" height="24.000000" fill="#FFFFFF" fill-opacity="0"/>
	<path id="Plus" d="M7.33032 2.00012L16.6602 2.00012C20.0603 2.00012 22.0002 3.92014 22.0002 7.33011L22.0002 16.6701C22.0002 20.0601 20.0703 22.0001 16.6702 22.0001L7.33032 22.0001C3.92017 22.0001 2.00024 20.0601 2.00024 16.6701L2.00024 7.33011C2.00024 3.92014 3.92017 2.00012 7.33032 2.00012ZM15.6602 12.8301L12.8203 12.8301L12.8203 15.6601C12.8203 16.1201 12.4502 16.4901 11.9902 16.4901C11.5303 16.4901 11.1602 16.1201 11.1602 15.6601L11.1602 12.8301L8.33032 12.8301C7.87036 12.8201 7.50024 12.4501 7.50024 11.9901C7.50024 11.7691 7.59033 11.5601 7.74023 11.4001C7.90015 11.2501 8.11035 11.1601 8.33032 11.1601L11.1602 11.1601L11.1602 8.34012C11.1602 7.88013 11.5303 7.51013 11.9902 7.51013C12.4502 7.51013 12.8203 7.88013 12.8203 8.34012L12.8203 11.1601L15.6602 11.1601C16.1204 11.1601 16.4902 11.5301 16.4902 11.9901C16.4902 12.4501 16.1204 12.8201 15.6602 12.8301Z" clip-rule="evenodd" fill="#212121" fill-opacity="1.000000" fill-rule="evenodd"/>
</svg>
