<svg width="24.000000" height="24.000000" viewBox="0 0 24 24" fill="none" xmlns="http://www.w3.org/2000/svg" xmlns:xlink="http://www.w3.org/1999/xlink">
	<desc>
			Created with Pixso.
	</desc>
	<defs/>
	<rect id="Iconly/Bold/Paper Download" width="24.000000" height="24.000000" fill="#FFFFFF" fill-opacity="0"/>
	<path id="Paper Download" d="M20.0444 9.01999C19.6189 9.01999 19.1138 9.03 18.8069 9.03C18.3613 9.03 17.7573 9.01999 17.0149 9.01999C15.1931 9.01001 13.708 7.51001 13.708 5.67999L13.708 2.45999C13.708 2.20999 13.5 2 13.2524 2L7.96533 2C5.48999 2 3.5 4.03 3.5 6.51001L3.5 17.29C3.5 19.89 5.58911 22 8.17334 22L16.0444 22C18.5 22 20.5 19.99 20.5 17.51L20.5 9.47C20.5 9.22 20.302 9.01999 20.0444 9.01999ZM17.1421 7.55911C17.8323 7.5661 18.7915 7.56909 19.6045 7.5661C20.0222 7.56509 20.2341 7.0621 19.9451 6.75909C18.8994 5.6611 17.0293 3.69611 15.958 2.57211C15.6628 2.26111 15.145 2.4751 15.145 2.9061L15.145 5.54211C15.145 6.6481 16.0471 7.55911 17.1421 7.55911ZM12.1536 16.64L14.9951 13.77C15.2822 13.47 15.2822 13 14.9851 12.71C14.698 12.42 14.2327 12.42 13.9456 12.71L12.3713 14.31L12.3713 9.48999C12.3713 9.07001 12.0444 8.73999 11.6387 8.73999C11.2327 8.73999 10.896 9.07001 10.896 9.48999L10.896 14.31L9.32178 12.71C9.03467 12.42 8.56934 12.42 8.28223 12.71C7.99512 13 7.99512 13.47 8.28223 13.77L11.1138 16.64C11.1831 16.71 11.2625 16.76 11.3516 16.8C11.4407 16.84 11.5396 16.86 11.6387 16.86C11.7375 16.86 11.8267 16.84 11.9158 16.8C12.0049 16.76 12.0842 16.71 12.1536 16.64Z" clip-rule="evenodd" fill="#212121" fill-opacity="1.000000" fill-rule="evenodd"/>
</svg>
