<svg width="24.000000" height="24.000000" viewBox="0 0 24 24" fill="none" xmlns="http://www.w3.org/2000/svg" xmlns:xlink="http://www.w3.org/1999/xlink">
	<desc>
			Created with Pixso.
	</desc>
	<defs/>
	<rect id="Iconly/Bold/Search" width="24.000000" height="24.000000" fill="#FFFFFF" fill-opacity="0"/>
	<path id="Search" d="M10.5776 2C5.84033 2 2 5.88165 2 10.6699C2 15.4582 5.84033 19.3398 10.5776 19.3398C15.3149 19.3398 19.1553 15.4582 19.1553 10.6699C19.1553 8.37051 18.2515 6.16528 16.6431 4.53937C15.0344 2.91342 12.8525 2 10.5776 2ZM19.0134 17.6543L21.5681 19.7164L21.6123 19.7164C22.1292 20.2388 22.1292 21.0858 21.6123 21.6082C21.0955 22.1306 20.2576 22.1306 19.7407 21.6082L17.6206 19.1785C17.4202 18.9766 17.3076 18.7024 17.3076 18.4164C17.3076 18.1304 17.4202 17.8562 17.6206 17.6543C18.0073 17.2704 18.6267 17.2704 19.0134 17.6543Z" clip-rule="evenodd" fill="#212121" fill-opacity="1.000000" fill-rule="evenodd"/>
</svg>
