<svg width="24.000000" height="24.000000" viewBox="0 0 24 24" fill="none" xmlns="http://www.w3.org/2000/svg" xmlns:xlink="http://www.w3.org/1999/xlink">
	<desc>
			Created with Pixso.
	</desc>
	<defs/>
	<rect id="Iconly/Bold/Arrow - Up 3" width="24.000000" height="24.000000" fill="#FFFFFF" fill-opacity="0"/>
	<rect id="Iconly/Bold/Arrow - Up 3" width="24.000000" height="24.000000" fill="#FFFFFF" fill-opacity="0"/>
	<path id="Arrow - Up 3" d="M6.58 11.85C6.71 12.09 6.95 12.23 7.21 12.23L11.28 12.23L11.28 20.26C11.28 20.67 11.6 21 12 21C12.39 21 12.71 20.67 12.71 20.26L12.71 12.23L16.78 12.23C17.04 12.23 17.28 12.09 17.41 11.85C17.53 11.62 17.52 11.33 17.38 11.11L12.6 3.34C12.47 3.12 12.24 3 12 3C11.75 3 11.52 3.12 11.39 3.34L6.6 11.11C6.53 11.23 6.5 11.36 6.5 11.5C6.5 11.62 6.53 11.74 6.58 11.85Z" fill="#212121" fill-opacity="1.000000" fill-rule="nonzero"/>
</svg>
