<svg width="24.000000" height="24.000000" viewBox="0 0 24 24" fill="none" xmlns="http://www.w3.org/2000/svg" xmlns:xlink="http://www.w3.org/1999/xlink">
	<desc>
			Created with Pixso.
	</desc>
	<defs/>
	<rect id="Iconly/Bold/More Square" width="24.000000" height="24.000000" fill="#FFFFFF" fill-opacity="0"/>
	<path id="More Square" d="M7.67017 1.99988L16.3403 1.99988C19.7302 1.99988 22.0002 4.37988 22.0002 7.91989L22.0002 16.0899C22.0002 19.6199 19.7302 21.9999 16.3403 21.9999L7.67017 21.9999C4.28027 21.9999 2.00024 19.6199 2.00024 16.0899L2.00024 7.91989C2.00024 4.37988 4.28027 1.99988 7.67017 1.99988ZM7.52026 13.1999C6.86035 13.1999 6.32031 12.6599 6.32031 11.9999C6.32031 11.3399 6.86035 10.8009 7.52026 10.8009C8.18018 10.8009 8.72021 11.3399 8.72021 11.9999C8.72021 12.6599 8.18018 13.1999 7.52026 13.1999ZM12.0002 13.1999C11.3403 13.1999 10.8003 12.6599 10.8003 11.9999C10.8003 11.3399 11.3403 10.8009 12.0002 10.8009C12.6604 10.8009 13.2004 11.3399 13.2004 11.9999C13.2004 12.6599 12.6604 13.1999 12.0002 13.1999ZM16.4805 13.1999C15.8203 13.1999 15.2803 12.6599 15.2803 11.9999C15.2803 11.3399 15.8203 10.8009 16.4805 10.8009C17.1404 10.8009 17.6704 11.3399 17.6704 11.9999C17.6704 12.6599 17.1404 13.1999 16.4805 13.1999Z" clip-rule="evenodd" fill="#212121" fill-opacity="1.000000" fill-rule="evenodd"/>
</svg>
