<svg width="24.000000" height="24.000000" viewBox="0 0 24 24" fill="none" xmlns="http://www.w3.org/2000/svg" xmlns:xlink="http://www.w3.org/1999/xlink">
	<desc>
			Created with Pixso.
	</desc>
	<defs/>
	<rect id="Iconly/Bold/Arrow - Up 2" width="24.000000" height="24.000000" fill="#FFFFFF" fill-opacity="0"/>
	<rect id="Iconly/Bold/Arrow - Up 2" width="24.000000" height="24.000000" fill="#FFFFFF" fill-opacity="0"/>
	<path id="Arrow - Up 2" d="M13.13 7.36C13.18 7.42 13.43 7.63 13.64 7.83C14.92 9 17.02 12.04 17.66 13.63C17.76 13.87 17.98 14.48 18 14.81C18 15.12 17.92 15.42 17.78 15.7C17.57 16.06 17.25 16.34 16.87 16.5C16.61 16.6 15.82 16.75 15.81 16.75C14.95 16.91 13.55 17 12 17C10.53 17 9.19 16.91 8.31 16.78C8.3 16.77 7.32 16.61 6.99 16.44C6.37 16.13 6 15.52 6 14.86L6 14.81C6.01 14.38 6.39 13.49 6.4 13.49C7.05 11.98 9.04 9.01 10.37 7.82C10.37 7.82 10.71 7.48 10.92 7.34C11.23 7.11 11.61 7 11.99 7C12.41 7 12.81 7.12 13.13 7.36Z" fill="#212121" fill-opacity="1.000000" fill-rule="nonzero"/>
</svg>
