<svg width="24.000000" height="24.000000" viewBox="0 0 24 24" fill="none" xmlns="http://www.w3.org/2000/svg" xmlns:xlink="http://www.w3.org/1999/xlink">
	<desc>
			Created with Pixso.
	</desc>
	<defs/>
	<rect id="Iconly/Bold/Lock" width="24.000000" height="24.000000" fill="#FFFFFF" fill-opacity="0"/>
	<path id="Lock" d="M17.5227 7.396L17.5227 8.92932C19.2451 9.46698 20.5 11.0261 20.5 12.8884L20.5 17.8253C20.5 20.1308 18.5886 22 16.2322 22L7.7688 22C5.41138 22 3.5 20.1308 3.5 17.8253L3.5 12.8884C3.5 11.0261 4.75586 9.46698 6.47729 8.92932L6.47729 7.396C6.48755 4.41479 8.95654 2 11.9849 2C15.0535 2 17.5227 4.41479 17.5227 7.396ZM12.0051 3.73901C14.0679 3.73901 15.7444 5.37872 15.7444 7.396L15.7444 8.71368L8.25562 8.71368L8.25562 7.37616C8.26562 5.36877 9.94238 3.73901 12.0051 3.73901ZM12.8892 16.455C12.8892 16.9419 12.4929 17.3294 11.9949 17.3294C11.5071 17.3294 11.1108 16.9419 11.1108 16.455L11.1108 14.2488C11.1108 13.7719 11.5071 13.3843 11.9949 13.3843C12.4929 13.3843 12.8892 13.7719 12.8892 14.2488L12.8892 16.455Z" clip-rule="evenodd" fill="#212121" fill-opacity="1.000000" fill-rule="evenodd"/>
</svg>
