<svg width="24.000000" height="24.000000" viewBox="0 0 24 24" fill="none" xmlns="http://www.w3.org/2000/svg" xmlns:xlink="http://www.w3.org/1999/xlink">
	<desc>
			Created with Pixso.
	</desc>
	<defs/>
	<rect id="Iconly/Bold/Password" width="24.000000" height="24.000000" fill="#FFFFFF" fill-opacity="0"/>
	<path id="Password" d="M16.3347 1.99921L7.66577 1.99921C4.27686 1.99921 1.99976 4.3772 1.99976 7.9162L1.99976 16.0832C1.99976 19.6222 4.27686 21.9992 7.66577 21.9992L16.3337 21.9992C19.7227 21.9992 21.9998 19.6222 21.9998 16.0832L21.9998 7.9162C21.9998 4.3772 19.7227 1.99921 16.3347 1.99921ZM17.0107 14.6012C17.4248 14.6012 17.7607 14.2652 17.7607 13.8512L17.7607 11.9992C17.7607 11.5852 17.4248 11.2492 17.0107 11.2492L11.3188 11.2492C10.9949 10.1822 10.0127 9.39819 8.84082 9.39819C7.40674 9.39819 6.23975 10.5652 6.23975 11.9992C6.23975 13.4342 7.40674 14.6012 8.84082 14.6012C10.0127 14.6012 10.9949 13.8172 11.3188 12.7492L13.4307 12.7492L13.4307 13.8512C13.4307 14.2652 13.7668 14.6012 14.1807 14.6012C14.5947 14.6012 14.9307 14.2652 14.9307 13.8512L14.9307 12.7492L16.2607 12.7492L16.2607 13.8512C16.2607 14.2652 16.5967 14.6012 17.0107 14.6012ZM7.73877 12.0001C7.73877 11.3921 8.23389 10.8981 8.84082 10.8981C9.44775 10.8981 9.94287 11.3921 9.94287 12.0001C9.94287 12.6071 9.44775 13.1011 8.84082 13.1011C8.23389 13.1011 7.73877 12.6071 7.73877 12.0001Z" clip-rule="evenodd" fill="#212121" fill-opacity="1.000000" fill-rule="evenodd"/>
</svg>
