<svg width="24.000000" height="24.000000" viewBox="0 0 24 24" fill="none" xmlns="http://www.w3.org/2000/svg" xmlns:xlink="http://www.w3.org/1999/xlink">
	<desc>
			Created with Pixso.
	</desc>
	<defs/>
	<rect id="Iconly/Bold/Add User" width="24.000000" height="24.000000" fill="#FFFFFF" fill-opacity="0"/>
	<path id="Add User" d="M9.5 12.5537C12.2546 12.5537 14.4626 10.3171 14.4626 7.52686C14.4626 4.73663 12.2546 2.5 9.5 2.5C6.74536 2.5 4.53735 4.73663 4.53735 7.52686C4.53735 10.3171 6.74536 12.5537 9.5 12.5537ZM21.1011 9.58789L19.8979 9.58789L19.8979 8.41162C19.8979 7.90942 19.4951 7.5 18.999 7.5C18.5037 7.5 18.1001 7.90942 18.1001 8.41162L18.1001 9.58789L16.8989 9.58789C16.4028 9.58789 16 9.99731 16 10.4995C16 11.0016 16.4028 11.4111 16.8989 11.4111L18.1001 11.4111L18.1001 12.5884C18.1001 13.0906 18.5037 13.5 18.999 13.5C19.4951 13.5 19.8979 13.0906 19.8979 12.5884L19.8979 11.4111L21.1011 11.4111C21.5962 11.4111 22 11.0016 22 10.4995C22 9.99731 21.5962 9.58789 21.1011 9.58789ZM9.5 15.0152C5.45435 15.0152 2 15.662 2 18.2465C2 20.8298 5.43311 21.5 9.5 21.5C13.5447 21.5 17 20.8531 17 18.2687C17 15.6843 13.5669 15.0152 9.5 15.0152Z" clip-rule="evenodd" fill="#212121" fill-opacity="1.000000" fill-rule="evenodd"/>
</svg>
