<svg width="24.000000" height="24.000000" viewBox="0 0 24 24" fill="none" xmlns="http://www.w3.org/2000/svg" xmlns:xlink="http://www.w3.org/1999/xlink">
	<desc>
			Created with Pixso.
	</desc>
	<defs/>
	<rect id="Iconly/Bold/Play" width="24.000000" height="24.000000" fill="#FFFFFF" fill-opacity="0"/>
	<path id="Play" d="M2 12.0058C2 6.48627 6.48853 2 12 2C17.5115 2 22 6.48627 22 12.0058C22 17.5137 17.5115 22 12 22C6.48853 22 2 17.5137 2 12.0058ZM15.9382 12.7091C15.9092 12.7477 15.7742 12.9117 15.668 13.0178L15.6101 13.0757C14.7993 13.9537 12.7817 15.2755 11.7588 15.7C11.7588 15.7096 11.1506 15.9604 10.8611 15.9701L10.8225 15.9701C10.3784 15.9701 9.96338 15.7192 9.75098 15.314C9.63525 15.0922 9.52905 14.4457 9.51929 14.4361C9.43237 13.8572 9.37451 12.9706 9.37451 11.9952C9.37451 10.9725 9.43237 10.0463 9.53857 9.47711C9.53857 9.46747 9.64478 8.94647 9.7124 8.77277C9.8186 8.52197 10.0115 8.30969 10.2529 8.17462C10.446 8.07812 10.6487 8.02991 10.8611 8.02991C11.083 8.03955 11.498 8.18524 11.6621 8.25183C12.7432 8.67633 14.8088 10.0656 15.6003 10.9146C15.7356 11.0497 15.8804 11.2137 15.9189 11.2523C16.083 11.4645 16.1699 11.725 16.1699 12.0058C16.1699 12.2557 16.0928 12.5065 15.9382 12.7091Z" clip-rule="evenodd" fill="#212121" fill-opacity="1.000000" fill-rule="evenodd"/>
</svg>
