<svg width="24.000000" height="24.000000" viewBox="0 0 24 24" fill="none" xmlns="http://www.w3.org/2000/svg" xmlns:xlink="http://www.w3.org/1999/xlink">
	<desc>
			Created with Pixso.
	</desc>
	<defs/>
	<rect id="Iconly/Bold/Swap" width="24.000000" height="24.000000" fill="#FFFFFF" fill-opacity="0"/>
	<path id="Swap" d="M7.54614 3.27792C7.7124 3.39789 7.98047 3.67346 7.98047 3.67346C9.02075 4.64859 10.5879 7.07394 11.0911 8.30444C11.1016 8.30444 11.4001 9.03607 11.4119 9.38409L11.4119 9.43042C11.4119 9.96371 11.1133 10.4626 10.6335 10.7179C10.3701 10.8581 9.60474 10.9852 9.59302 10.997C8.90723 11.1016 7.85522 11.1704 6.69995 11.1704C5.48755 11.1704 4.38989 11.1016 3.7146 10.9733C3.70288 10.9733 3.08618 10.8462 2.88013 10.7643C2.58276 10.6371 2.3313 10.4044 2.1709 10.1146C2.05615 9.88293 2 9.63828 2 9.38409C2.0105 9.11685 2.18262 8.61801 2.26221 8.42084C2.76538 7.12027 4.41211 4.63669 5.41846 3.68533C5.57886 3.52261 5.77319 3.34799 5.81885 3.3017C6.07031 3.10452 6.37939 3 6.71167 3C7.00781 3 7.30518 3.09265 7.54614 3.27792ZM18.2288 10.1618C18.2288 10.6856 17.8108 11.1096 17.2947 11.1096C16.7786 11.1096 16.3608 10.6856 16.3608 10.1618L16.1033 5.58295C16.1033 4.91544 16.637 4.375 17.2947 4.375C17.9524 4.375 18.4851 4.91544 18.4851 5.58295L18.2288 10.1618ZM21.8291 13.8853C21.6689 13.5955 21.4172 13.3639 21.1199 13.2356C20.9141 13.1536 20.2961 13.0266 20.2856 13.0266C19.6104 12.8983 18.5125 12.8294 17.3 12.8294C16.145 12.8294 15.0928 12.8983 14.407 13.0028C14.3953 13.0147 13.6299 13.1429 13.3665 13.2819C12.8855 13.5373 12.5884 14.0361 12.5884 14.5706L12.5884 14.617C12.6001 14.965 12.8972 15.6954 12.9089 15.6954C13.4121 16.926 14.978 19.3526 16.0198 20.3265C16.0198 20.3265 16.2876 20.6021 16.4539 20.7209C16.6938 20.9073 16.991 21 17.2896 21C17.6206 21 17.9285 20.8955 18.1814 20.6983C18.2271 20.652 18.4211 20.4774 18.5815 20.3159C19.5869 19.3633 21.2346 16.8796 21.7368 15.5802C21.8174 15.3831 21.9895 14.883 22 14.617C22 14.3616 21.9438 14.1169 21.8291 13.8853ZM6.70557 12.8905C6.18945 12.8905 5.77173 13.3145 5.77173 13.8383L5.51416 18.4171C5.51416 19.0846 6.04785 19.625 6.70557 19.625C7.36328 19.625 7.89575 19.0846 7.89575 18.4171L7.6394 13.8383C7.6394 13.3145 7.22168 12.8905 6.70557 12.8905Z" clip-rule="evenodd" fill="#212121" fill-opacity="1.000000" fill-rule="evenodd"/>
</svg>
