<svg width="24.000000" height="24.000000" viewBox="0 0 24 24" fill="none" xmlns="http://www.w3.org/2000/svg" xmlns:xlink="http://www.w3.org/1999/xlink">
	<desc>
			Created with Pixso.
	</desc>
	<defs/>
	<rect id="Iconly/Bold/Shield Done" width="24.000000" height="24.000000" fill="#FFFFFF" fill-opacity="0"/>
	<path id="Shield Done" d="M12.0864 21.9999C11.9626 22.0009 11.8389 21.9715 11.728 21.9136L8.12695 20.0505C7.10425 19.52 6.30469 18.9258 5.68066 18.2335C4.31445 16.7194 3.55542 14.7758 3.54224 12.7597L3.5 6.12396C3.49609 5.35809 3.98926 4.67072 4.72827 4.41278L11.3406 2.10645C11.7332 1.96716 12.1711 1.96423 12.5708 2.09955L19.2083 4.32654C19.9512 4.57458 20.4536 5.25714 20.4575 6.02197L20.4998 12.6627C20.5129 14.6758 19.7791 16.6282 18.4351 18.158C17.8169 18.86 17.0247 19.4631 16.0127 20.0024L12.4448 21.9097C12.3333 21.9686 12.2102 21.999 12.0864 21.9999ZM10.7837 14.1089C10.9326 14.2521 11.126 14.3227 11.3191 14.3207C11.5125 14.3198 11.7048 14.2472 11.8518 14.1021L15.7507 10.2581C16.0437 9.96881 16.0408 9.50403 15.7449 9.21863C15.4478 8.93329 14.9695 8.93524 14.6765 9.22455L11.3081 12.5449L9.92896 11.2191C9.63184 10.9337 9.15479 10.9366 8.8606 11.226C8.56763 11.5153 8.5708 11.98 8.86768 12.2654L10.7837 14.1089Z" clip-rule="evenodd" fill="#212121" fill-opacity="1.000000" fill-rule="evenodd"/>
</svg>
