<svg width="24.000000" height="24.000000" viewBox="0 0 24 24" fill="none" xmlns="http://www.w3.org/2000/svg" xmlns:xlink="http://www.w3.org/1999/xlink">
	<desc>
			Created with Pixso.
	</desc>
	<defs/>
	<rect id="Iconly/Bold/Bag 2" width="24.000000" height="24.000000" fill="#FFFFFF" fill-opacity="0"/>
	<path id="Bag 2" d="M16.4185 6.47L16.6233 6.47C19.3152 6.47 21.5 8.72 21.5 11.48L21.5 17C21.5 19.76 19.3152 22 16.6233 22L7.37671 22C4.68481 22 2.5 19.76 2.5 17L2.5 11.48C2.5 8.72 4.68481 6.47 7.37671 6.47L7.58154 6.47C7.60107 5.26999 8.05957 4.14999 8.88867 3.31C9.72729 2.45999 10.8003 2.03 12.0098 2C14.4287 2 16.3892 4 16.4185 6.47ZM9.04468 6.47C9.06421 5.67999 9.36646 4.94 9.9126 4.38C10.4783 3.81 11.2585 3.5 12.0098 3.5C13.6191 3.5 14.926 4.83002 14.9553 6.47L9.04468 6.47ZM8.93726 9.57001C8.93726 9.98001 8.61548 10.32 8.20581 10.32C7.80591 10.32 7.47437 9.98001 7.47437 9.57001L7.47437 8.41C7.47437 8 7.80591 7.66 8.20581 7.66C8.61548 7.66 8.93726 8 8.93726 8.41L8.93726 9.57001ZM16.4377 9.57001C16.4377 9.98001 16.116 10.32 15.7063 10.32C15.3064 10.32 14.9749 9.98001 14.9749 9.57001L14.9749 8.41C14.9749 8 15.3064 7.66 15.7063 7.66C16.116 7.66 16.4377 8 16.4377 8.41L16.4377 9.57001Z" clip-rule="evenodd" fill="#212121" fill-opacity="1.000000" fill-rule="evenodd"/>
</svg>
