<svg width="24.000000" height="24.000000" viewBox="0 0 24 24" fill="none" xmlns="http://www.w3.org/2000/svg" xmlns:xlink="http://www.w3.org/1999/xlink">
	<desc>
			Created with Pixso.
	</desc>
	<defs/>
	<rect id="Iconly/Bold/Chart" width="24.000000" height="24.000000" fill="#FFFFFF" fill-opacity="0"/>
	<path id="Chart" d="M7.33057 2.00037L16.6694 2.00037C20.0706 2.00037 21.9905 3.92935 22.0005 7.33035L22.0005 16.6704C22.0005 20.0704 20.0706 22.0004 16.6694 22.0004L7.33057 22.0004C3.92944 22.0004 2.00049 20.0704 2.00049 16.6704L2.00049 7.33035C2.00049 3.92935 3.92944 2.00037 7.33057 2.00037ZM12.0496 17.8604C12.4805 17.8604 12.8396 17.5404 12.8794 17.1104L12.8794 6.92038C12.9194 6.61035 12.7705 6.29938 12.5005 6.13037C12.2195 5.96036 11.8794 5.96036 11.6106 6.13037C11.3396 6.29938 11.1904 6.61035 11.2195 6.92038L11.2195 17.1104C11.2705 17.5404 11.6294 17.8604 12.0496 17.8604ZM8.21948 17.1104C8.17944 17.5404 7.82056 17.8604 7.3894 17.8604C6.95947 17.8604 6.59961 17.5404 6.56055 17.1104L6.56055 10.2004C6.53052 9.88937 6.67944 9.58035 6.95044 9.41037C7.21948 9.24036 7.56055 9.24036 7.83057 9.41037C8.09961 9.58035 8.25049 9.88937 8.21948 10.2004L8.21948 17.1104ZM17.4805 17.1104C17.4294 17.5404 17.0706 17.8604 16.6504 17.8604C16.2195 17.8604 15.8606 17.5404 15.8206 17.1104L15.8206 13.8304C15.7805 13.5094 15.9294 13.2104 16.2004 13.0404C16.4805 12.8704 16.8206 12.8704 17.0896 13.0404C17.3606 13.2104 17.5095 13.5094 17.4805 13.8304L17.4805 17.1104Z" clip-rule="evenodd" fill="#212121" fill-opacity="1.000000" fill-rule="evenodd"/>
</svg>
