<svg width="24.000000" height="24.000000" viewBox="0 0 24 24" fill="none" xmlns="http://www.w3.org/2000/svg" xmlns:xlink="http://www.w3.org/1999/xlink">
	<desc>
			Created with Pixso.
	</desc>
	<defs/>
	<rect id="Iconly/Bold/Paper Plus" width="24.000000" height="24.000000" fill="#FFFFFF" fill-opacity="0"/>
	<path id="Paper Plus" d="M20.0544 9.01999C19.6287 9.01999 19.1238 9.03 18.8169 9.03C18.3613 9.03 17.7673 9.01999 17.0149 9.01999C15.2029 9.01001 13.708 7.51001 13.708 5.67999L13.708 2.45999C13.708 2.20999 13.51 2 13.2524 2L7.96533 2C5.5 2 3.5 4.03 3.5 6.51001L3.5 17.29C3.5 19.89 5.59912 22 8.17334 22L16.0444 22C18.51 22 20.5 19.99 20.5 17.51L20.5 9.47C20.5 9.22 20.302 9.01999 20.0544 9.01999ZM17.1467 7.5592C17.8367 7.56619 18.7961 7.56921 19.6101 7.56619C20.0269 7.56519 20.2388 7.06219 19.9497 6.75919C18.9041 5.66119 17.0337 3.6962 15.9634 2.5722C15.6675 2.2612 15.1497 2.47519 15.1497 2.90619L15.1497 5.54221C15.1497 6.64819 16.0515 7.5592 17.1467 7.5592ZM12.5496 13.73L14.2625 13.73C14.6682 13.73 15.0049 13.4 15.0049 12.99C15.0049 12.57 14.6682 12.24 14.2625 12.24L12.5496 12.24L12.5496 10.51C12.5496 10.1 12.2227 9.76999 11.8169 9.76999C11.4109 9.76999 11.0742 10.1 11.0742 10.51L11.0742 12.24L9.37134 12.24C8.96533 12.24 8.62866 12.57 8.62866 12.99C8.62866 13.4 8.96533 13.73 9.37134 13.73L11.0742 13.73L11.0742 15.46C11.0742 15.87 11.4109 16.2 11.8169 16.2C12.2227 16.2 12.5496 15.87 12.5496 15.46L12.5496 13.73Z" clip-rule="evenodd" fill="#212121" fill-opacity="1.000000" fill-rule="evenodd"/>
</svg>
