<svg width="24.000000" height="24.000000" viewBox="0 0 24 24" fill="none" xmlns="http://www.w3.org/2000/svg" xmlns:xlink="http://www.w3.org/1999/xlink">
	<desc>
			Created with Pixso.
	</desc>
	<defs/>
	<rect id="Iconly/Bold/Home" width="24.000000" height="24.000000" fill="#FFFFFF" fill-opacity="0"/>
	<path id="Home" d="M9.13 20.77L9.13 17.71C9.13 16.93 9.77 16.3 10.55 16.3L13.43 16.3C13.81 16.3 14.17 16.45 14.43 16.71C14.7 16.98 14.85 17.34 14.85 17.71L14.85 20.77C14.85 21.09 14.98 21.4 15.21 21.64C15.44 21.87 15.75 22 16.08 22L18.04 22C18.95 22 19.83 21.64 20.48 21C21.13 20.35 21.5 19.48 21.5 18.57L21.5 9.86C21.5 9.13 21.17 8.43 20.6 7.96L13.93 2.67C12.77 1.74 11.11 1.77 9.98 2.74L3.46 7.96C2.87 8.42 2.51 9.12 2.5 9.86L2.5 18.56C2.5 20.46 4.04 22 5.95 22L7.87 22C8.55 22 9.1 21.45 9.1 20.78L9.13 20.77Z" fill="#212121" fill-opacity="1.000000" fill-rule="nonzero"/>
</svg>
