<svg width="24.000000" height="24.000000" viewBox="0 0 24 24" fill="none" xmlns="http://www.w3.org/2000/svg" xmlns:xlink="http://www.w3.org/1999/xlink">
	<desc>
			Created with Pixso.
	</desc>
	<defs/>
	<rect id="Iconly/Bold/Arrow - Right 3" width="24.000000" height="24.000000" fill="#FFFFFF" fill-opacity="0"/>
	<rect id="Iconly/Bold/Arrow - Right 3" rx="-0.500000" width="23.000000" height="23.000000" transform="translate(0.500000 0.500000)" fill="#FFFFFF" fill-opacity="0"/>
	<path id="Arrow - Right 3" d="M12.14 6.58C11.9 6.71 11.76 6.95 11.76 7.21L11.76 11.28L3.73 11.28C3.32 11.28 3 11.6 3 12C3 12.39 3.32 12.71 3.73 12.71L11.76 12.71L11.76 16.78C11.76 17.04 11.9 17.28 12.14 17.41C12.37 17.53 12.66 17.52 12.88 17.39L20.65 12.6C20.87 12.47 21 12.24 21 12C21 11.75 20.87 11.52 20.65 11.39L12.88 6.6C12.76 6.53 12.63 6.5 12.49 6.5C12.37 6.5 12.25 6.53 12.14 6.58Z" fill="#212121" fill-opacity="1.000000" fill-rule="nonzero"/>
</svg>
