<svg width="24.000000" height="24.000000" viewBox="0 0 24 24" fill="none" xmlns="http://www.w3.org/2000/svg" xmlns:xlink="http://www.w3.org/1999/xlink">
	<desc>
			Created with Pixso.
	</desc>
	<defs/>
	<rect id="Iconly/Bold/Download" width="24.000000" height="24.000000" fill="#FFFFFF" fill-opacity="0"/>
	<path id="Download" d="M11.23 7.29L11.23 3.28C11.23 2.85 11.57 2.5 12 2.5C12.38 2.5 12.71 2.79 12.76 3.17L12.77 3.28L12.77 7.29L17.54 7.29C19.92 7.29 21.88 9.23 21.99 11.67L22 11.88L22 16.92C22 19.37 20.11 21.38 17.76 21.49L17.56 21.5L6.43 21.5C4.06 21.5 2.11 19.56 2 17.12L2 16.9L2 11.87C2 9.42 3.87 7.4 6.22 7.29L6.42 7.29L11.23 7.29L11.23 13.69L9.62 12.04C9.33 11.73 8.84 11.73 8.54 12.04C8.38 12.19 8.32 12.4 8.32 12.6C8.32 12.76 8.36 12.92 8.45 13.06L8.54 13.16L11.45 16.18C11.59 16.33 11.79 16.41 12 16.41C12.16 16.41 12.33 16.36 12.46 16.25L12.54 16.18L15.45 13.16C15.75 12.85 15.75 12.35 15.45 12.04C15.17 11.75 14.74 11.73 14.44 11.96L14.36 12.04L12.77 13.69L12.77 7.29L11.23 7.29Z" fill="#212121" fill-opacity="1.000000" fill-rule="nonzero"/>
</svg>
