<svg width="24.000000" height="24.000000" viewBox="0 0 24 24" fill="none" xmlns="http://www.w3.org/2000/svg" xmlns:xlink="http://www.w3.org/1999/xlink">
	<desc>
			Created with Pixso.
	</desc>
	<defs/>
	<rect id="Iconly/Bold/Info Circle" width="24.000000" height="24.000000" fill="#FFFFFF" fill-opacity="0"/>
	<path id="Info Circle" d="M2 11.9993C2 6.48026 6.47998 1.99927 12 1.99927C17.53 1.99927 22 6.48026 22 11.9993C22 17.5203 17.53 21.9993 12 21.9993C6.47998 21.9993 2 17.5203 2 11.9993ZM11.1201 8.20926C11.1201 7.73026 11.52 7.32925 12 7.32925C12.48 7.32925 12.8701 7.73026 12.8701 8.20926L12.8701 12.6293C12.8701 13.1103 12.48 13.4993 12 13.4993C11.52 13.4993 11.1201 13.1103 11.1201 12.6293L11.1201 8.20926ZM12.01 16.6803C11.52 16.6803 11.1299 16.2803 11.1299 15.8003C11.1299 15.3203 11.52 14.9303 12 14.9303C12.49 14.9303 12.8799 15.3203 12.8799 15.8003C12.8799 16.2803 12.49 16.6803 12.01 16.6803Z" clip-rule="evenodd" fill="#212121" fill-opacity="1.000000" fill-rule="evenodd"/>
</svg>
