<svg width="24.000000" height="24.000000" viewBox="0 0 24 24" fill="none" xmlns="http://www.w3.org/2000/svg" xmlns:xlink="http://www.w3.org/1999/xlink">
	<desc>
			Created with Pixso.
	</desc>
	<defs/>
	<rect id="Iconly/Bold/Discovery" width="24.000000" height="24.000000" fill="#FFFFFF" fill-opacity="0"/>
	<path id="Discovery" d="M2 12.0001C2 6.4801 6.46997 2.00012 12 2.00012C17.52 2.00012 22 6.4801 22 12.0001C22 17.5302 17.52 22.0001 12 22.0001C6.46997 22.0001 2 17.5302 2 12.0001ZM15.8501 8.71014L14.23 13.8301C14.1699 14.0401 14 14.2101 13.79 14.2701L8.68994 15.8701C8.3501 15.9801 8.02002 15.6501 8.12988 15.3101L9.72998 10.1801C9.79004 9.97009 9.95996 9.81012 10.1699 9.74011L15.29 8.14014C15.6399 8.03015 15.96 8.36011 15.8501 8.71014Z" clip-rule="evenodd" fill="#212121" fill-opacity="1.000000" fill-rule="evenodd"/>
</svg>
