<svg width="24.000000" height="24.000000" viewBox="0 0 24 24" fill="none" xmlns="http://www.w3.org/2000/svg" xmlns:xlink="http://www.w3.org/1999/xlink">
	<desc>
			Created with Pixso.
	</desc>
	<defs/>
	<rect id="Iconly/Bold/Hide" width="24.000000" height="24.000000" fill="#FFFFFF" fill-opacity="0"/>
	<path id="Hide" d="M21.9417 11.7083C21.0439 9.6015 19.8438 7.84906 18.429 6.5495L20.2048 4.75769C20.4976 4.47223 20.4976 3.99963 20.2048 3.71411C19.9219 3.42865 19.4631 3.42865 19.1704 3.71411L18.2534 4.63959C18.2437 4.65924 18.2241 4.67896 18.2046 4.69867C18.1948 4.71832 18.1753 4.73804 18.1558 4.75769L3.72461 19.3186L3.69531 19.358C3.50024 19.6435 3.53931 20.0373 3.7832 20.2834C3.91968 20.4311 4.11499 20.5 4.30029 20.5C4.4856 20.5 4.67114 20.4311 4.81738 20.2834L6.71045 18.3735C8.30078 19.5056 10.106 20.1259 11.989 20.1259L11.9988 20.1259C16.136 20.1259 19.8535 17.1921 21.9417 12.2892C22.0198 12.112 22.0198 11.8954 21.9417 11.7083ZM8.16675 12.7557C8.12769 12.5195 8.09839 12.2635 8.09839 12.0075C8.09839 9.83179 9.84497 8.06952 12.0012 8.06952C12.2551 8.06952 12.5088 8.09906 12.7429 8.13843L16.002 4.85016C14.7529 4.22009 13.3967 3.88531 12.0012 3.88531L11.9915 3.88531C7.86426 3.88531 4.14673 6.80933 2.05859 11.7122C1.98047 11.8992 1.98047 12.1158 2.05859 12.293C2.73169 13.8781 3.58081 15.2564 4.5564 16.3984L8.16675 12.7557ZM9.80347 15.2526C10.428 15.6759 11.189 15.9319 11.9988 15.9319C14.1455 15.9319 15.8921 14.1696 15.8921 12.0037C15.8921 11.1865 15.6384 10.4186 15.2188 9.78857L14.1553 10.8616C14.3308 11.1964 14.4285 11.5902 14.4285 12.0037C14.4285 13.3525 13.3357 14.4551 11.9988 14.4551C11.5891 14.4551 11.1987 14.3567 10.8669 14.1794L9.80347 15.2526Z" clip-rule="evenodd" fill="#212121" fill-opacity="1.000000" fill-rule="evenodd"/>
</svg>
