<svg width="24.000000" height="24.000000" viewBox="0 0 24 24" fill="none" xmlns="http://www.w3.org/2000/svg" xmlns:xlink="http://www.w3.org/1999/xlink">
	<desc>
			Created with Pixso.
	</desc>
	<defs/>
	<rect id="Iconly/Bold/Calendar" width="24.000000" height="24.000000" fill="#FFFFFF" fill-opacity="0"/>
	<path id="Calendar" d="M16.4109 2.76862L16.4119 3.51825C19.1665 3.73413 20.9861 5.61121 20.989 8.48975L21 16.9155C21.0039 20.054 19.0322 21.985 15.8718 21.99L8.15186 22C5.01123 22.004 3.01489 20.027 3.01099 16.8795L3 8.55273C2.99609 5.65518 4.75146 3.78311 7.5061 3.53024L7.50513 2.78061C7.50415 2.34082 7.83008 2.01001 8.2644 2.01001C8.69897 2.009 9.02466 2.33884 9.02563 2.77863L9.02661 3.47827L14.8914 3.47028L14.8904 2.77063C14.8894 2.33084 15.2153 2.00101 15.6497 2C16.0742 1.99899 16.4099 2.32883 16.4109 2.76862ZM4.52148 8.8616L19.4697 8.84161L19.4697 8.49179C19.4272 6.34286 18.3491 5.21542 16.4138 5.04752L16.4148 5.81714C16.4148 6.24692 16.0801 6.58774 15.6555 6.58774C15.2212 6.58875 14.8943 6.2489 14.8943 5.81912L14.8933 5.00952L9.02881 5.01752L9.02979 5.82611C9.02979 6.2569 8.70483 6.59674 8.27051 6.59674C7.83594 6.59775 7.50928 6.25891 7.50928 5.82812L7.5083 5.0585C5.58301 5.2514 4.51758 6.38284 4.52051 8.55075L4.52148 8.8616ZM12.0222 14.2189C11.5681 14.2389 11.1919 13.8801 11.1721 13.4203C11.1711 12.9605 11.5266 12.5797 11.9807 12.5598C12.425 12.5587 12.7905 12.9086 12.8013 13.3583C12.821 13.8181 12.4666 14.1979 12.0222 14.2189ZM15.24 13.4153L15.24 13.4043C15.239 12.9445 15.5945 12.5747 16.0486 12.5648C16.4919 12.5638 16.8484 12.9226 16.8691 13.3623C16.8789 13.8221 16.5244 14.2029 16.0801 14.2139C15.625 14.2239 15.2498 13.8751 15.24 13.4153ZM7.95459 14.2539C7.50024 14.2749 7.12402 13.9151 7.10449 13.4553C7.10352 12.9955 7.45776 12.6147 7.91211 12.5947C8.35742 12.5937 8.72266 12.9435 8.73242 13.3933C8.75317 13.8531 8.39868 14.2339 7.95459 14.2539ZM11.176 17.0485C11.1968 17.5083 11.572 17.8671 12.0261 17.8471C12.4705 17.8261 12.8259 17.4463 12.8052 16.9855C12.7954 16.5367 12.429 16.1869 11.9849 16.1879C11.5305 16.2089 11.176 16.5887 11.176 17.0485ZM15.2341 17.0435C15.2351 17.5033 15.6013 17.8821 16.0554 17.8921C16.5186 17.8911 16.8938 17.5103 16.8928 17.0405C16.8928 16.5707 16.5166 16.1919 16.0525 16.1919L16.0427 16.1919C15.5884 16.2029 15.2241 16.5837 15.2341 17.0435ZM7.95825 17.8521C7.50415 17.873 7.12891 17.5132 7.1084 17.0535C7.10718 16.5937 7.46265 16.2129 7.91699 16.1929C8.36108 16.1919 8.72754 16.5417 8.7373 16.9915C8.75806 17.4513 8.40356 17.8321 7.95825 17.8521Z" clip-rule="evenodd" fill="#212121" fill-opacity="1.000000" fill-rule="evenodd"/>
</svg>
