<svg width="24.000000" height="24.000000" viewBox="0 0 24 24" fill="none" xmlns="http://www.w3.org/2000/svg" xmlns:xlink="http://www.w3.org/1999/xlink">
	<desc>
			Created with Pixso.
	</desc>
	<defs/>
	<rect id="Iconly/Bold/Time Square" width="24.000000" height="24.000000" fill="#FFFFFF" fill-opacity="0"/>
	<path id="Time Square" d="M7.66992 2.00012L16.3401 2.00012C19.73 2.00012 22 4.37915 22 7.91913L22 16.0891C22 19.6201 19.73 22.0001 16.3401 22.0001L7.66992 22.0001C4.28003 22.0001 2 19.6201 2 16.0891L2 7.91913C2 4.37915 4.28003 2.00012 7.66992 2.00012ZM16.22 15.4401C16.0801 15.6801 15.8301 15.8101 15.5801 15.8101C15.45 15.8101 15.3101 15.7802 15.1899 15.7001L11.27 13.3601C11.04 13.2301 10.8999 12.9801 10.8999 12.7201L10.8999 7.66913C10.8999 7.26013 11.24 6.91913 11.6499 6.91913C12.0701 6.91913 12.3999 7.26013 12.3999 7.66913L12.3999 12.2901L15.96 14.4101C16.3201 14.6292 16.4399 15.0891 16.22 15.4401Z" clip-rule="evenodd" fill="#212121" fill-opacity="1.000000" fill-rule="evenodd"/>
</svg>
