<svg width="24.000000" height="24.000000" viewBox="0 0 24 24" fill="none" xmlns="http://www.w3.org/2000/svg" xmlns:xlink="http://www.w3.org/1999/xlink">
	<desc>
			Created with Pixso.
	</desc>
	<defs/>
	<rect id="Iconly/Bold/Graph" width="24.000000" height="24.000000" fill="#FFFFFF" fill-opacity="0"/>
	<path id="Graph" d="M12.9136 2.00082C12.6973 1.99118 12.4861 2.06631 12.3264 2.20966C12.1667 2.353 12.0718 2.55276 12.0623 2.76492L12.0623 2.88931L12.5784 10.4326C12.5774 10.6828 12.6838 10.9218 12.8718 11.0909C13.0598 11.26 13.3115 11.3436 13.5657 11.3211L21.2451 10.8147C21.459 10.801 21.6587 10.7043 21.7996 10.5458C21.9407 10.3875 22.0117 10.1804 21.9966 9.97058C22.001 9.94412 22.001 9.91711 21.9966 9.89062C21.3044 5.45581 17.4844 2.13766 12.9136 2.00082ZM11.7996 13.2935L18.4297 12.8849L18.501 12.8849C18.7869 12.8895 19.0591 13.0054 19.2578 13.207C19.4565 13.4087 19.5654 13.6795 19.5605 13.9599C19.2983 17.782 16.4961 20.9755 12.6829 21.7982C8.86938 22.621 4.96021 20.8754 3.08789 17.5139C2.53711 16.5457 2.18921 15.4794 2.06445 14.3775C2.01611 14.051 1.99487 13.7212 2.00098 13.3913C2.01367 9.32706 4.90723 5.81906 8.95605 4.9595C9.44629 4.86777 9.9375 5.11249 10.1514 5.55478C10.2571 5.71408 10.2844 5.90909 10.2969 6.09979C10.4272 8.09775 10.5652 10.0648 10.6948 12.0319C10.6917 12.2462 10.7253 12.4594 10.7944 12.6627C10.957 13.0627 11.3613 13.3165 11.7996 13.2935Z" clip-rule="evenodd" fill="#212121" fill-opacity="1.000000" fill-rule="evenodd"/>
</svg>
