<svg width="24.000000" height="24.000000" viewBox="0 0 24 24" fill="none" xmlns="http://www.w3.org/2000/svg" xmlns:xlink="http://www.w3.org/1999/xlink">
	<desc>
			Created with Pixso.
	</desc>
	<defs/>
	<rect id="Iconly/Bold/Location" width="24.000000" height="24.000000" fill="#FFFFFF" fill-opacity="0"/>
	<path id="Location" d="M3.5 10.3177C3.5 5.7179 7.34399 2 11.9934 2C16.656 2 20.5 5.7179 20.5 10.3177C20.5 12.6357 19.657 14.7876 18.2695 16.6116C16.7388 18.6235 14.8521 20.3765 12.7285 21.7524C12.2424 22.0704 11.804 22.0944 11.2705 21.7524C9.13477 20.3765 7.24805 18.6235 5.73047 16.6116C4.34204 14.7876 3.5 12.6357 3.5 10.3177ZM9.19434 10.5767C9.19434 12.1177 10.4517 13.3297 11.9934 13.3297C13.5361 13.3297 14.8057 12.1177 14.8057 10.5767C14.8057 9.04779 13.5361 7.77686 11.9934 7.77686C10.4517 7.77686 9.19434 9.04779 9.19434 10.5767Z" clip-rule="evenodd" fill="#212121" fill-opacity="1.000000" fill-rule="evenodd"/>
</svg>
