<svg width="24.000000" height="24.000000" viewBox="0 0 24 24" fill="none" xmlns="http://www.w3.org/2000/svg" xmlns:xlink="http://www.w3.org/1999/xlink">
	<desc>
			Created with Pixso.
	</desc>
	<defs/>
	<rect id="Iconly/Bold/Bag" width="24.000000" height="24.000000" fill="#FFFFFF" fill-opacity="0"/>
	<path id="Combined Shape" d="M16.9739 6.77432C16.9771 6.8519 16.9622 6.92914 16.9304 7L17.0864 7C18.3503 7 19.676 7.90964 20.1443 10.1201L20.9133 16.3147C21.479 20.3535 19.2075 22 16.1584 22L7.86841 22C4.81055 22 2.46851 20.8629 3.10498 16.3147L3.88257 10.1201C4.28027 7.84598 5.65015 7 6.93164 7L7.00977 7C6.99658 6.92535 6.99658 6.84897 7.00977 6.77432C7.12183 4.1059 9.32495 2 12.0049 2C14.6848 2 16.8882 4.1059 17 6.77432L16.9739 6.77432ZM8.48193 7L15.4932 7C15.4653 6.92795 15.4507 6.85153 15.4497 6.77432C15.4497 4.85681 13.8899 3.3024 11.9658 3.3024C10.0417 3.3024 8.48193 4.85681 8.48193 6.77432C8.49512 6.84897 8.49512 6.92535 8.48193 7ZM9.09692 12.1486C8.60889 12.1486 8.21313 11.7413 8.21313 11.2389C8.21313 10.7365 8.60889 10.3293 9.09692 10.3293C9.58521 10.3293 9.98071 10.7365 9.98071 11.2389C9.98071 11.7413 9.58521 12.1486 9.09692 12.1486ZM14.002 11.2389C14.002 11.7413 14.3977 12.1486 14.8857 12.1486C15.374 12.1486 15.7695 11.7413 15.7695 11.2389C15.7695 10.7365 15.374 10.3293 14.8857 10.3293C14.3977 10.3293 14.002 10.7365 14.002 11.2389Z" clip-rule="evenodd" fill="#212121" fill-opacity="1.000000" fill-rule="evenodd"/>
</svg>
