<svg width="24.000000" height="24.000000" viewBox="0 0 24 24" fill="none" xmlns="http://www.w3.org/2000/svg" xmlns:xlink="http://www.w3.org/1999/xlink">
	<desc>
			Created with Pixso.
	</desc>
	<defs/>
	<rect id="Iconly/Bold/Volume Down" width="24.000000" height="24.000000" fill="#FFFFFF" fill-opacity="0"/>
	<path id="Volume Down" d="M15.3716 6.45056C15.3213 5.96423 15.2688 5.45966 15.1396 4.95612C14.7878 3.75153 13.8137 3 12.769 3C12.1863 2.99786 11.4495 3.35645 11.0315 3.7193L7.56812 6.61694L5.75513 6.61694C4.4209 6.61694 3.3479 7.64441 3.14526 9.12708C2.97314 10.5507 2.93115 13.2379 3.14526 14.8043C3.33105 16.3706 4.35571 17.3831 5.75513 17.3831L7.56812 17.3831L11.0989 20.3236C11.4609 20.6382 12.1003 20.9989 12.6882 20.9989C12.7261 21 12.7595 21 12.7932 21C13.8577 21 14.7952 20.2206 15.147 19.0192C15.2803 18.5082 15.3264 18.0294 15.3716 17.5666L15.4187 17.1082C15.5994 15.6213 15.5994 8.36908 15.4187 6.89288L15.3716 6.45056ZM18.1477 6.25836C18.5664 5.96527 19.1396 6.0705 19.4263 6.49457C20.4404 7.98798 21 9.94299 21 12C21 14.057 20.4404 16.012 19.4263 17.5054C19.2542 17.7577 18.9729 17.9091 18.6714 17.9091C18.4836 17.9091 18.302 17.8511 18.1477 17.7416C17.7319 17.4453 17.6289 16.8591 17.9177 16.434C18.7209 15.2509 19.1628 13.6759 19.1628 12C19.1628 10.3231 18.7209 8.74915 17.9177 7.56604C17.6289 7.14087 17.7319 6.55469 18.1477 6.25836Z" clip-rule="evenodd" fill="#212121" fill-opacity="1.000000" fill-rule="evenodd"/>
</svg>
