<svg width="24.000000" height="24.000000" viewBox="0 0 24 24" fill="none" xmlns="http://www.w3.org/2000/svg" xmlns:xlink="http://www.w3.org/1999/xlink">
	<desc>
			Created with Pixso.
	</desc>
	<defs/>
	<rect id="Iconly/Bold/Close Square" width="24.000000" height="24.000000" fill="#FFFFFF" fill-opacity="0"/>
	<path id="Close Square" d="M7.66968 1.99921L16.3398 1.99921C19.7297 1.99921 21.9998 4.37921 21.9998 7.91922L21.9998 16.0902C21.9998 19.6202 19.7297 21.9992 16.3398 21.9992L7.66968 21.9992C4.27979 21.9992 1.99976 19.6202 1.99976 16.0902L1.99976 7.91922C1.99976 4.37921 4.27979 1.99921 7.66968 1.99921ZM15.0098 13.7702C15.3499 14.1102 15.3499 14.6602 15.0098 14.9992C14.8398 15.1692 14.6199 15.2602 14.3896 15.2602C14.1697 15.2602 13.9497 15.1802 13.7798 14.9992L11.9998 13.2302L10.2197 14.9992C10.0498 15.1692 9.82983 15.2602 9.59985 15.2602C9.37964 15.2602 9.14966 15.1692 8.97974 14.9992C8.63965 14.6602 8.63965 14.1102 8.97974 13.7602L10.7598 11.9902L8.97974 10.2092C8.63965 9.87021 8.63965 9.31021 8.97974 8.97021C9.31982 8.62921 9.86987 8.62921 10.2197 8.97021L11.9998 10.7492L13.7698 8.97021C14.1199 8.62921 14.6697 8.62921 15.0098 8.97021C15.3499 9.31021 15.3499 9.87021 15.0098 10.2092L13.2297 11.9902L15.0098 13.7702Z" clip-rule="evenodd" fill="#212121" fill-opacity="1.000000" fill-rule="evenodd"/>
</svg>
