<svg width="24.000000" height="24.000000" viewBox="0 0 24 24" fill="none" xmlns="http://www.w3.org/2000/svg" xmlns:xlink="http://www.w3.org/1999/xlink">
	<desc>
			Created with Pixso.
	</desc>
	<defs/>
	<rect id="Iconly/Bold/Image 2" width="24.000000" height="24.000000" fill="#FFFFFF" fill-opacity="0"/>
	<path id="Image 2" d="M16.3535 2.00037C19.7305 2.00037 21.9995 4.36237 21.9995 7.88837L21.9995 16.1024C21.9995 16.2534 21.9724 16.3884 21.9646 16.5344C21.9595 16.6194 21.9604 16.7043 21.9536 16.7894C21.9495 16.8274 21.9385 16.8624 21.9346 16.9004C21.9016 17.2144 21.8506 17.5143 21.7795 17.8054C21.7615 17.8834 21.7405 17.9584 21.7195 18.0344C21.6394 18.3163 21.5454 18.5854 21.4326 18.8423C21.3994 18.9144 21.3635 18.9834 21.3296 19.0544C21.2075 19.2994 21.0754 19.5344 20.9226 19.7524C20.8755 19.8193 20.8235 19.8794 20.7744 19.9443C20.6155 20.1504 20.4495 20.3474 20.2615 20.5264C20.2004 20.5844 20.1316 20.6343 20.0676 20.6894C19.8745 20.8553 19.6775 21.0143 19.4604 21.1504C19.3826 21.1993 19.2966 21.2354 19.2166 21.2794C18.9956 21.4014 18.7725 21.5204 18.5295 21.6124C18.4294 21.6504 18.3186 21.6703 18.2146 21.7034C17.9756 21.7773 17.7395 21.8544 17.4824 21.8984C17.2886 21.9324 17.0774 21.9363 16.8735 21.9534C16.6995 21.9664 16.5344 22.0004 16.3535 22.0004L7.63745 22.0004C7.26147 22.0004 6.90259 21.9623 6.55542 21.9054C6.54248 21.9034 6.53052 21.9014 6.51855 21.8994C5.16553 21.6664 4.04248 21.0134 3.25562 20.0284C3.24658 20.0284 3.24658 20.0184 3.23755 20.0093C2.44653 19.0134 1.99951 17.6744 1.99951 16.1024L1.99951 7.88837C1.99951 4.36237 4.27051 2.00037 7.63745 2.00037L16.3535 2.00037ZM3.39551 7.88837C3.39551 5.16235 5.06055 3.39539 7.63745 3.39539L16.3535 3.39539C18.9395 3.39539 20.6045 5.16235 20.6045 7.88837L20.6045 13.1904C20.1584 12.8124 18.8115 11.8713 18.6235 11.7593C17.2236 10.9194 15.5435 11.2994 14.4536 12.7194C14.3584 12.8444 12.7815 15.1443 12.2236 15.4883C12.0945 15.5684 11.9585 15.6114 11.8135 15.6313C11.4636 15.6614 11.1265 15.4814 10.5535 15.0984C10.2236 14.8884 9.86353 14.6494 9.45361 14.4794C7.74854 13.7664 6.44946 14.9443 5.75757 15.7344C5.74854 15.7424 3.81152 18.1044 3.78052 18.1414C3.5376 17.5504 3.39551 16.8674 3.39551 16.1024L3.39551 7.88837ZM11 8.51495C11 9.86987 9.86646 10.9999 8.50488 10.9999C7.30835 10.9999 6.28784 10.1256 6.05933 8.99359C6.02148 8.82373 6 8.64905 6 8.46863C6 7.104 7.10864 5.99994 8.47876 5.99994C9.17651 5.99994 9.80835 6.29333 10.2607 6.76141C10.7153 7.21307 11 7.83551 11 8.51495Z" clip-rule="evenodd" fill="#212121" fill-opacity="1.000000" fill-rule="evenodd"/>
</svg>
