<svg width="24.000000" height="24.000000" viewBox="0 0 24 24" fill="none" xmlns="http://www.w3.org/2000/svg" xmlns:xlink="http://www.w3.org/1999/xlink">
	<desc>
			Created with Pixso.
	</desc>
	<defs/>
	<rect id="Iconly/Bold/Ticket Star" width="24.000000" height="24.000000" fill="#FFFFFF" fill-opacity="0"/>
	<path id="Ticket Star" d="M21.25 13.4764C20.429 13.4764 19.761 12.8145 19.761 12.001C19.761 11.1875 20.429 10.5256 21.25 10.5256C21.45 10.5256 21.6399 10.4473 21.781 10.3076C21.9209 10.1689 22 9.97864 22 9.78244L21.999 7.10513C21.999 4.84201 20.1399 3 17.856 3L6.14404 3C3.86011 3 2.00195 4.84201 2.00195 7.10513L2 9.86865C2 10.0648 2.0791 10.2541 2.21997 10.3938C2.36108 10.5335 2.55103 10.6118 2.75 10.6118C3.59912 10.6118 4.23999 11.2083 4.23999 12.001C4.23999 12.8145 3.57202 13.4764 2.75 13.4764C2.33594 13.4764 2 13.8093 2 14.2195L2 16.8958C2 19.159 3.85889 21 6.14307 21L17.8579 21C20.1421 21 22 19.159 22 16.8958L22 14.2195C22 13.8093 21.6641 13.4764 21.25 13.4764ZM14.252 12.648L15.4309 11.5105C15.636 11.3143 15.707 11.025 15.6179 10.7574C15.53 10.4899 15.3 10.2997 15.022 10.261L13.3931 10.0252L12.6641 8.56271C12.5391 8.31104 12.2849 8.15445 12.002 8.15347L12 8.15347C11.718 8.15347 11.4641 8.31003 11.3369 8.56171L10.6079 10.0252L8.98193 10.26C8.70093 10.2997 8.47095 10.4899 8.38208 10.7574C8.29395 11.025 8.36499 11.3143 8.56909 11.5105L9.74805 12.648L9.46997 14.2562C9.42212 14.5336 9.53491 14.8091 9.76489 14.9746C9.89502 15.0667 10.0459 15.1143 10.199 15.1143C10.3159 15.1143 10.4341 15.0855 10.542 15.0291L12 14.2701L13.4551 15.0271C13.707 15.1609 14.0061 15.14 14.2351 14.9736C14.4661 14.8091 14.5791 14.5336 14.531 14.2562L14.252 12.648Z" clip-rule="evenodd" fill="#212121" fill-opacity="1.000000" fill-rule="evenodd"/>
</svg>
