<svg width="24.000000" height="24.000000" viewBox="0 0 24 24" fill="none" xmlns="http://www.w3.org/2000/svg" xmlns:xlink="http://www.w3.org/1999/xlink">
	<desc>
			Created with Pixso.
	</desc>
	<defs/>
	<rect id="Iconly/Bold/2 User" width="24.000000" height="24.000000" fill="#FFFFFF" fill-opacity="0"/>
	<path id="2 Friends" d="M14.2124 7.76239C14.2124 10.4062 12.0488 12.5248 9.34937 12.5248C6.65063 12.5248 4.48633 10.4062 4.48633 7.76239C4.48633 5.11865 6.65063 3 9.34937 3C12.0488 3 14.2124 5.11865 14.2124 7.76239ZM16.1733 7.84875C16.1733 9.19507 15.7605 10.4513 15.0364 11.4948C14.9612 11.6021 15.0276 11.7468 15.1587 11.7698C15.3408 11.7996 15.5276 11.8177 15.7185 11.8216C17.6167 11.8704 19.3203 10.6736 19.7908 8.87115C20.4885 6.19678 18.4414 3.79541 15.834 3.79541C15.551 3.79541 15.28 3.82416 15.0159 3.87689C14.9797 3.88452 14.9404 3.90179 14.9209 3.93243C14.8955 3.97174 14.9141 4.02252 14.9395 4.05609C15.7234 5.13214 16.1733 6.44208 16.1733 7.84875ZM19.3174 13.7023C20.5933 13.9467 21.4316 14.444 21.7791 15.1694C22.0737 15.7634 22.0737 16.4534 21.7791 17.0475C21.2478 18.1705 19.5334 18.5318 18.8672 18.6248C18.7292 18.6439 18.6187 18.5289 18.6333 18.3928C18.9739 15.2805 16.2664 13.8048 15.5657 13.4656C15.5364 13.4493 15.5295 13.4263 15.5325 13.411C15.5344 13.4014 15.5471 13.3861 15.5696 13.3832C17.0854 13.3544 18.7156 13.5586 19.3174 13.7023ZM2 17.9174C2 15.47 5.3855 14.8577 9.34937 14.8577C13.3347 14.8577 16.6987 15.4911 16.6987 17.9404C16.6987 20.3877 13.3132 21 9.34937 21C5.36401 21 2 20.3666 2 17.9174Z" clip-rule="evenodd" fill="#212121" fill-opacity="1.000000" fill-rule="evenodd"/>
</svg>
