<svg width="24.000000" height="24.000000" viewBox="0 0 24 24" fill="none" xmlns="http://www.w3.org/2000/svg" xmlns:xlink="http://www.w3.org/1999/xlink">
	<desc>
			Created with Pixso.
	</desc>
	<defs/>
	<rect id="Iconly/Bold/Call Missed" width="24.000000" height="24.000000" fill="#FFFFFF" fill-opacity="0"/>
	<path id="Fill 4" d="M19.33 5.91L21.74 3.5C21.9 3.33 22 3.11 22 2.87C22 2.64 21.9 2.41 21.74 2.25C21.4 1.91 20.82 1.91 20.49 2.25L18.08 4.66L15.68 2.25C15.34 1.91 14.76 1.91 14.43 2.25C14.26 2.41 14.17 2.64 14.17 2.87C14.17 3.11 14.26 3.33 14.43 3.5L16.83 5.91L14.43 8.33C14.26 8.49 14.17 8.72 14.17 8.95C14.17 9.19 14.26 9.41 14.43 9.58C14.76 9.91 15.34 9.91 15.68 9.58L18.08 7.17L20.49 9.58C20.65 9.75 20.88 9.84 21.11 9.84C21.35 9.84 21.57 9.75 21.74 9.58C21.9 9.41 22 9.19 22 8.95C22 8.72 21.9 8.49 21.74 8.33L19.33 5.91Z" fill="#212121" fill-opacity="1.000000" fill-rule="nonzero"/>
	<path id="Stroke 1" d="M11.03 12.97C15.02 16.96 15.92 12.34 18.46 14.88C20.91 17.33 22.32 17.82 19.21 20.92C18.83 21.23 16.36 24.99 7.68 16.31C-1 7.64 2.76 5.17 3.07 4.78C6.18 1.67 6.66 3.08 9.11 5.53C11.65 8.07 7.04 8.98 11.03 12.97Z" fill="#212121" fill-opacity="1.000000" fill-rule="evenodd"/>
	<path id="Stroke 1" d="M18.46 14.88C20.91 17.33 22.32 17.82 19.21 20.92C18.83 21.23 16.36 24.99 7.68 16.31C-1 7.64 2.76 5.17 3.07 4.78C6.18 1.67 6.66 3.08 9.11 5.53C11.65 8.07 7.04 8.98 11.03 12.97C15.02 16.96 15.92 12.34 18.46 14.88Z" stroke="#000000" stroke-opacity="0" stroke-width="0.000000" stroke-linejoin="round"/>
</svg>
