<svg width="24.000000" height="24.000000" viewBox="0 0 24 24" fill="none" xmlns="http://www.w3.org/2000/svg" xmlns:xlink="http://www.w3.org/1999/xlink">
	<desc>
			Created with Pixso.
	</desc>
	<defs/>
	<rect id="Iconly/Bold/Message" width="24.000000" height="24.000000" fill="#FFFFFF" fill-opacity="0"/>
	<path id="Message" d="M16.9395 3C18.2805 3 19.5706 3.53 20.5195 4.48099C21.4695 5.42999 22.0005 6.70999 22.0005 8.04999L22.0005 15.95C22.0005 18.74 19.7305 21 16.9395 21L7.06055 21C4.26953 21 2.00049 18.74 2.00049 15.95L2.00049 8.04999C2.00049 5.26001 4.25952 3 7.06055 3L16.9395 3ZM18.6106 9.45999L18.5305 9.54001L14.0195 13.15C13.4604 13.59 12.7695 13.83 12.0605 13.83C11.3496 13.83 10.6704 13.59 10.1106 13.15L5.56055 9.60001L5.42944 9.47C5.20044 9.17001 5.23047 8.73999 5.50049 8.47C5.75952 8.20001 6.18945 8.17001 6.50049 8.39999L11.0005 12C11.5896 12.481 12.4204 12.481 13.0005 12L17.5095 8.39999C17.6604 8.26001 17.8606 8.189 18.0706 8.20001C18.2695 8.22 18.4604 8.311 18.5996 8.45999C18.8496 8.75 18.8496 9.17001 18.6106 9.45999Z" clip-rule="evenodd" fill="#212121" fill-opacity="1.000000" fill-rule="evenodd"/>
</svg>
