<svg width="24.000000" height="24.000000" viewBox="0 0 24 24" fill="none" xmlns="http://www.w3.org/2000/svg" xmlns:xlink="http://www.w3.org/1999/xlink">
	<desc>
			Created with Pixso.
	</desc>
	<defs/>
	<rect id="Iconly/Bold/Volume Off" width="24.000000" height="24.000000" fill="#FFFFFF" fill-opacity="0"/>
	<path id="Volume Off" d="M20.4202 3.27087C20.78 2.91095 21.3538 2.90881 21.7275 3.26978C22.0906 3.63287 22.0906 4.21924 21.7285 4.5813L4.57983 21.729C4.40942 21.8994 4.16382 22 3.92456 22C3.69067 22 3.45996 21.9047 3.27344 21.7322C2.90942 21.3543 2.90942 20.7795 3.27026 20.4186L6.09692 17.5924L6.06836 17.5924C4.65918 17.5924 3.63354 16.5974 3.44287 15.052C3.23022 13.5066 3.27246 10.8603 3.44287 9.45251C3.64307 7.99176 4.72388 6.98724 6.06836 6.98724L7.89868 6.98724L11.3921 4.12927C11.8167 3.76941 12.5684 3.42963 13.1494 3.4201C14.208 3.4201 15.1821 4.15997 15.5315 5.34552C15.6689 5.84406 15.7229 6.34052 15.7654 6.81787L15.8489 7.49426C15.8628 7.59802 15.8755 7.69751 15.886 7.80334L20.4202 3.27087ZM15.4875 13.5281C15.3435 13.4911 15.0237 13.5917 14.8809 13.7314C14.7368 13.8732 10.3669 17.8564 10.0896 18.1951C9.81226 18.5349 9.66602 19.1213 10.1604 19.4886L11.4614 20.4952C11.8267 20.8054 12.4705 21.161 13.0642 21.161C13.1003 21.1621 13.1353 21.1621 13.1702 21.1621C14.2446 21.1621 15.1899 20.3936 15.5425 19.2102C15.678 18.7064 15.7246 18.2343 15.77 17.7781L15.8176 17.3271C15.8855 16.7799 15.9277 15.895 15.9458 14.6227C15.9521 14.1844 15.876 13.6266 15.4875 13.5281Z" clip-rule="evenodd" fill="#212121" fill-opacity="1.000000" fill-rule="evenodd"/>
</svg>
