<svg width="24.000000" height="24.000000" viewBox="0 0 24 24" fill="none" xmlns="http://www.w3.org/2000/svg" xmlns:xlink="http://www.w3.org/1999/xlink">
	<desc>
			Created with Pixso.
	</desc>
	<defs>
		<clipPath id="clip430_9832">
			<rect id="Iconly/Bulk/Buy" width="24.000000" height="24.000000" fill="white" fill-opacity="0"/>
		</clipPath>
	</defs>
	<rect id="Iconly/Bulk/Buy" width="24.000000" height="24.000000" fill="#FFFFFF" fill-opacity="0"/>
	<g clip-path="url(#clip430_9832)">
		<g opacity="0.400000" style="mix-blend-mode:normal">
			<path id="Combined Shape" d="M5.91064 20.5884C5.91064 19.7483 6.59058 19.0684 7.43066 19.0684C8.26074 19.0684 8.94067 19.7483 8.94067 20.5884C8.94067 21.4185 8.26074 22.0984 7.43066 22.0984C6.59058 22.0984 5.91064 21.4185 5.91064 20.5884ZM17.1606 20.5884C17.1606 19.7483 17.8406 19.0684 18.6807 19.0684C19.5107 19.0684 20.1907 19.7483 20.1907 20.5884C20.1907 21.4185 19.5107 22.0984 18.6807 22.0984C17.8406 22.0984 17.1606 21.4185 17.1606 20.5884Z" clip-rule="evenodd" fill="#212121" fill-opacity="1.000000" fill-rule="evenodd"/>
		</g>
		<path id="Fill 7" d="M20.1907 6.34888C20.8008 6.34888 21.2007 6.55884 21.6008 7.0188C22.0007 7.47876 22.0708 8.13892 21.9807 8.73779L21.0308 15.2979C20.8508 16.5588 19.7708 17.4878 18.5007 17.4878L7.59082 17.4878C6.26074 17.4878 5.16064 16.4678 5.05078 15.1489L4.13086 4.2478L2.62085 3.98779C2.2207 3.91772 1.94067 3.52783 2.01074 3.12793C2.08081 2.71777 2.4707 2.44775 2.88086 2.50781L5.26562 2.86792C5.60571 2.92896 5.85571 3.20776 5.88574 3.54785L6.07568 5.78784C6.10571 6.10889 6.36572 6.34888 6.68579 6.34888L20.1907 6.34888ZM14.1309 11.5479L16.9006 11.5479C17.3208 11.5479 17.6506 11.2078 17.6506 10.7979C17.6506 10.3779 17.3208 10.0479 16.9006 10.0479L14.1309 10.0479C13.7107 10.0479 13.3809 10.3779 13.3809 10.7979C13.3809 11.2078 13.7107 11.5479 14.1309 11.5479Z" clip-rule="evenodd" fill="#212121" fill-opacity="1.000000" fill-rule="evenodd"/>
	</g>
</svg>
