<svg width="24.000000" height="24.000000" viewBox="0 0 24 24" fill="none" xmlns="http://www.w3.org/2000/svg" xmlns:xlink="http://www.w3.org/1999/xlink">
	<desc>
			Created with Pixso.
	</desc>
	<defs>
		<clipPath id="clip430_9799">
			<rect id="Iconly/Bulk/Volume Off" width="24.000000" height="24.000000" fill="white" fill-opacity="0"/>
		</clipPath>
	</defs>
	<rect id="Iconly/Bulk/Volume Off" width="24.000000" height="24.000000" fill="#FFFFFF" fill-opacity="0"/>
	<g clip-path="url(#clip430_9799)">
		<g opacity="0.400000" style="mix-blend-mode:normal">
			<path id="Combined Shape" d="M15.9026 7.98145C15.8918 7.78979 15.8706 7.65234 15.8496 7.49463L15.7649 6.81592C15.7224 6.34082 15.6697 5.84229 15.532 5.3457C15.1826 4.16016 14.2087 3.41821 13.1501 3.41821C12.5679 3.42993 11.8162 3.76855 11.3928 4.12744L7.89917 6.98633L6.06787 6.98633C4.72339 6.98633 3.64355 7.99194 3.44238 9.45264C3.27295 10.8606 3.23071 13.5068 3.44238 15.0522C3.63306 16.5977 4.65991 17.5925 6.06787 17.5925L6.29004 17.5925L15.9026 7.98145ZM14.8809 13.7314C15.0247 13.5908 15.3435 13.4912 15.4873 13.5273C15.877 13.6267 15.9521 14.1846 15.9468 14.6228C15.929 15.895 15.8855 16.78 15.8176 17.3271L15.77 17.7781C15.7246 18.2344 15.678 18.7065 15.5435 19.2104C15.1899 20.3938 14.2446 21.1621 13.1711 21.1621C13.135 21.1621 13.1001 21.1621 13.0642 21.1611C12.4714 21.1611 11.8267 20.8054 11.4614 20.4954L10.1604 19.4888C9.66699 19.1213 9.81201 18.5339 10.0894 18.1941C10.3667 17.8555 14.7368 13.8733 14.8809 13.7314Z" clip-rule="evenodd" fill="#212121" fill-opacity="1.000000" fill-rule="evenodd"/>
		</g>
		<path id="Fill 5" d="M21.72 3.26C21.35 2.9 20.78 2.91 20.42 3.27L3.27 20.41C2.9 20.77 2.9 21.35 3.27 21.73C3.45 21.9 3.69 22 3.92 22C4.16 22 4.4 21.89 4.57 21.72L21.72 4.58C22.09 4.21 22.09 3.63 21.72 3.26Z" fill="#212121" fill-opacity="1.000000" fill-rule="nonzero"/>
	</g>
</svg>
