<svg width="24.000000" height="24.000000" viewBox="0 0 24 24" fill="none" xmlns="http://www.w3.org/2000/svg" xmlns:xlink="http://www.w3.org/1999/xlink">
	<desc>
			Created with Pixso.
	</desc>
	<defs>
		<clipPath id="clip430_9764">
			<rect id="Iconly/Bulk/3 User" width="24.000000" height="24.000000" fill="white" fill-opacity="0"/>
		</clipPath>
	</defs>
	<rect id="Iconly/Bulk/3 User" width="24.000000" height="24.000000" fill="#FFFFFF" fill-opacity="0"/>
	<g clip-path="url(#clip430_9764)">
		<path id="Fill 1" d="M11.94 14.54C8.49 14.54 5.58 15.1 5.58 17.27C5.58 19.45 8.51 20 11.94 20C15.39 20 18.31 19.43 18.31 17.26C18.31 15.08 15.38 14.54 11.94 14.54Z" fill="#212121" fill-opacity="1.000000" fill-rule="nonzero"/>
		<g opacity="0.400000" style="mix-blend-mode:normal">
			<path id="Fill 3" d="M11.94 12.46C14.28 12.46 16.15 10.58 16.15 8.23C16.15 5.88 14.28 4 11.94 4C9.61 4 7.73 5.88 7.73 8.23C7.73 10.58 9.61 12.46 11.94 12.46Z" fill="#212121" fill-opacity="1.000000" fill-rule="nonzero"/>
		</g>
		<g opacity="0.400000" style="mix-blend-mode:normal">
			<path id="Fill 6" d="M21.08 9.21C21.69 6.84 19.92 4.7 17.66 4.7C17.41 4.7 17.18 4.73 16.95 4.77C16.92 4.78 16.89 4.8 16.87 4.82C16.85 4.86 16.86 4.9 16.88 4.93C17.56 5.89 17.95 7.05 17.95 8.3C17.95 9.5 17.59 10.62 16.97 11.55C16.9 11.64 16.96 11.77 17.07 11.79C17.23 11.82 17.39 11.83 17.56 11.84C19.2 11.88 20.68 10.82 21.08 9.21Z" fill="#212121" fill-opacity="1.000000" fill-rule="nonzero"/>
		</g>
		<path id="Fill 8" d="M22.8 14.81C22.5 14.17 21.78 13.73 20.67 13.51C20.15 13.38 18.74 13.2 17.43 13.22C17.41 13.23 17.4 13.24 17.4 13.25C17.4 13.26 17.4 13.28 17.43 13.3C18.03 13.6 20.38 14.91 20.08 17.68C20.07 17.8 20.16 17.9 20.28 17.88C20.86 17.8 22.34 17.48 22.8 16.48C23.06 15.95 23.06 15.34 22.8 14.81Z" fill="#212121" fill-opacity="1.000000" fill-rule="nonzero"/>
		<g opacity="0.400000" style="mix-blend-mode:normal">
			<path id="Fill 11" d="M7.04 4.77C6.81 4.73 6.58 4.7 6.33 4.7C4.07 4.7 2.3 6.84 2.91 9.21C3.31 10.82 4.79 11.88 6.43 11.84C6.6 11.83 6.76 11.82 6.92 11.79C7.03 11.77 7.09 11.64 7.02 11.55C6.4 10.62 6.04 9.5 6.04 8.3C6.04 7.05 6.43 5.89 7.11 4.93C7.13 4.9 7.14 4.86 7.12 4.82C7.1 4.8 7.07 4.78 7.04 4.77Z" fill="#212121" fill-opacity="1.000000" fill-rule="nonzero"/>
		</g>
		<path id="Fill 13" d="M3.32 13.51C2.21 13.72 1.49 14.17 1.19 14.81C0.93 15.34 0.93 15.95 1.19 16.48C1.65 17.48 3.13 17.8 3.71 17.88C3.83 17.9 3.92 17.8 3.91 17.68C3.61 14.91 5.96 13.6 6.56 13.3C6.59 13.28 6.59 13.26 6.59 13.25C6.59 13.24 6.58 13.23 6.56 13.23C5.25 13.2 3.84 13.38 3.32 13.51Z" fill="#212121" fill-opacity="1.000000" fill-rule="nonzero"/>
	</g>
</svg>
