<svg width="24.000000" height="24.000000" viewBox="0 0 24 24" fill="none" xmlns="http://www.w3.org/2000/svg" xmlns:xlink="http://www.w3.org/1999/xlink">
	<desc>
			Created with Pixso.
	</desc>
	<defs>
		<clipPath id="clip430_9582">
			<rect id="Iconly/Bulk/Edit" width="24.000000" height="24.000000" fill="white" fill-opacity="0"/>
		</clipPath>
	</defs>
	<rect id="Iconly/Bulk/Edit" width="24.000000" height="24.000000" fill="#FFFFFF" fill-opacity="0"/>
	<g clip-path="url(#clip430_9582)">
		<g opacity="0.400000" style="mix-blend-mode:normal">
			<path id="Fill 1" d="M19.99 18.95L14.29 18.95C13.74 18.95 13.29 19.41 13.29 19.97C13.29 20.54 13.74 20.99 14.29 20.99L19.99 20.99C20.54 20.99 21 20.54 21 19.97C21 19.41 20.54 18.95 19.99 18.95Z" fill="#212121" fill-opacity="1.000000" fill-rule="nonzero"/>
		</g>
		<path id="Fill 3" d="M10.3 6.9L15.7 11.26C15.83 11.36 15.85 11.55 15.75 11.69L9.35 20.02C8.95 20.54 8.36 20.83 7.72 20.84L4.23 20.88C4.05 20.89 3.88 20.76 3.84 20.57L3.05 17.12C2.91 16.49 3.05 15.83 3.45 15.33L9.88 6.95C9.98 6.82 10.17 6.79 10.3 6.9Z" fill="#212121" fill-opacity="1.000000" fill-rule="nonzero"/>
		<g opacity="0.400000" style="mix-blend-mode:normal">
			<path id="Fill 5" d="M18.12 8.66L17.08 9.96C16.97 10.09 16.78 10.11 16.65 10.01C15.39 8.98 12.15 6.36 11.25 5.63C11.12 5.52 11.1 5.33 11.21 5.2L12.21 3.95C13.12 2.78 14.71 2.67 15.99 3.69L17.46 4.87C18.06 5.34 18.46 5.96 18.6 6.62C18.76 7.34 18.59 8.05 18.12 8.66Z" fill="#212121" fill-opacity="1.000000" fill-rule="nonzero"/>
		</g>
	</g>
</svg>
