<svg width="24.000000" height="24.000000" viewBox="0 0 24 24" fill="none" xmlns="http://www.w3.org/2000/svg" xmlns:xlink="http://www.w3.org/1999/xlink">
	<desc>
			Created with Pixso.
	</desc>
	<defs>
		<clipPath id="clip430_9698">
			<rect id="Iconly/Bulk/Voice" width="24.000000" height="24.000000" fill="white" fill-opacity="0"/>
		</clipPath>
	</defs>
	<rect id="Iconly/Bulk/Voice" width="24.000000" height="24.000000" fill="#FFFFFF" fill-opacity="0"/>
	<g clip-path="url(#clip430_9698)">
		<g opacity="0.400000" style="mix-blend-mode:normal">
			<path id="Fill 1" d="M19.53 9.82C18.99 9.82 18.56 10.25 18.56 10.78C18.56 14.35 15.61 17.26 12 17.26C8.38 17.26 5.43 14.35 5.43 10.78C5.43 10.25 5 9.82 4.46 9.82C3.93 9.82 3.5 10.25 3.5 10.78C3.5 15.08 6.79 18.64 11.03 19.11L11.03 21.04C11.03 21.57 11.46 22 12 22C12.53 22 12.96 21.57 12.96 21.04L12.96 19.11C17.2 18.64 20.5 15.08 20.5 10.78C20.5 10.25 20.06 9.82 19.53 9.82Z" fill="#212121" fill-opacity="1.000000" fill-rule="nonzero"/>
		</g>
		<path id="Fill 4" d="M11.82 15.21L12.17 15.21C14.57 15.21 16.52 13.29 16.52 10.92L16.52 6.29C16.52 3.92 14.57 2 12.17 2L11.82 2C9.42 2 7.47 3.92 7.47 6.29L7.47 10.92C7.47 13.29 9.42 15.21 11.82 15.21Z" fill="#212121" fill-opacity="1.000000" fill-rule="nonzero"/>
	</g>
</svg>
