<svg width="24.000000" height="24.000000" viewBox="0 0 24 24" fill="none" xmlns="http://www.w3.org/2000/svg" xmlns:xlink="http://www.w3.org/1999/xlink">
	<desc>
			Created with Pixso.
	</desc>
	<defs>
		<clipPath id="clip430_9609">
			<rect id="Iconly/Bulk/Hide" width="24.000000" height="24.000000" fill="white" fill-opacity="0"/>
		</clipPath>
	</defs>
	<rect id="Iconly/Bulk/Hide" width="24.000000" height="24.000000" fill="#FFFFFF" fill-opacity="0"/>
	<g clip-path="url(#clip430_9609)">
		<g opacity="0.400000" style="mix-blend-mode:normal">
			<path id="Fill 1" d="M12 3.88184L11.9902 3.88184C7.86353 3.88184 4.14624 6.80591 2.05859 11.7087C1.98047 11.8958 1.98047 12.1123 2.05859 12.2896C2.73169 13.8735 3.58057 15.2529 4.55615 16.395L8.16577 12.7522C8.12671 12.5159 8.09766 12.26 8.09766 12.0042C8.09766 9.82837 9.84399 8.06592 12 8.06592C12.2537 8.06592 12.5073 8.09546 12.7415 8.13501L16 4.8457C14.7512 4.21655 13.395 3.88184 12 3.88184ZM18.4292 6.5498C19.844 7.84937 21.0439 9.60181 21.9414 11.7087C22.0195 11.8958 22.0195 12.1123 21.9414 12.2896C19.8538 17.1924 16.1365 20.1262 12 20.1262L11.9902 20.1262C10.1074 20.1262 8.30249 19.5061 6.71216 18.3738L9.80493 15.2529C10.4292 15.6753 11.1902 15.9321 12 15.9321C14.1462 15.9321 15.8926 14.1699 15.8926 12.0042C15.8926 11.1868 15.6389 10.4189 15.2195 9.78882L18.4292 6.5498Z" clip-rule="evenodd" fill="#212121" fill-opacity="1.000000" fill-rule="evenodd"/>
		</g>
		<path id="Combined Shape" d="M18.4297 6.54956L20.2053 4.75781C20.4978 4.47217 20.4978 3.99976 20.2053 3.71411C19.9224 3.42871 19.4636 3.42871 19.1711 3.71411L18.2539 4.63965C18.2441 4.65918 18.2246 4.67896 18.2053 4.69873C18.1956 4.71826 18.176 4.73804 18.1565 4.75781L17.2881 5.63501L14.1956 8.75586L3.72705 19.3186L3.698 19.3579C3.50269 19.6436 3.54175 20.0383 3.78564 20.2844C3.92236 20.4312 4.11743 20.5 4.30273 20.5C4.48804 20.5 4.67358 20.4312 4.81982 20.2844L15.2197 9.78857L18.4297 6.54956ZM12.0005 14.4556C13.3369 14.4556 14.4297 13.3528 14.4297 12.0042C14.4297 11.5906 14.332 11.1968 14.1565 10.8621L10.8687 14.1799C11.2004 14.3572 11.5906 14.4556 12.0005 14.4556Z" clip-rule="evenodd" fill="#212121" fill-opacity="1.000000" fill-rule="evenodd"/>
	</g>
</svg>
