<svg width="24.000000" height="24.000000" viewBox="0 0 24 24" fill="none" xmlns="http://www.w3.org/2000/svg" xmlns:xlink="http://www.w3.org/1999/xlink">
	<desc>
			Created with Pixso.
	</desc>
	<defs>
		<clipPath id="clip430_9758">
			<rect id="Iconly/Bulk/2 User" width="24.000000" height="24.000000" fill="white" fill-opacity="0"/>
		</clipPath>
	</defs>
	<rect id="Iconly/Bulk/2 User" width="24.000000" height="24.000000" fill="#FFFFFF" fill-opacity="0"/>
	<g clip-path="url(#clip430_9758)">
		<path id="Fill 1" d="M9.34 14.85C5.38 14.85 2 15.47 2 17.91C2 20.36 5.36 21 9.34 21C13.31 21 16.69 20.38 16.69 17.94C16.69 15.49 13.33 14.85 9.34 14.85Z" fill="#212121" fill-opacity="1.000000" fill-rule="nonzero"/>
		<g opacity="0.400000" style="mix-blend-mode:normal">
			<path id="Fill 3" d="M9.34 12.52C12.04 12.52 14.21 10.4 14.21 7.76C14.21 5.11 12.04 3 9.34 3C6.65 3 4.48 5.11 4.48 7.76C4.48 10.4 6.65 12.52 9.34 12.52Z" fill="#212121" fill-opacity="1.000000" fill-rule="nonzero"/>
		</g>
		<g opacity="0.400000" style="mix-blend-mode:normal">
			<path id="Fill 5" d="M16.17 7.84C16.17 9.19 15.76 10.45 15.03 11.49C14.96 11.6 15.02 11.74 15.15 11.76C15.34 11.79 15.52 11.81 15.71 11.82C17.61 11.87 19.32 10.67 19.79 8.87C20.48 6.19 18.44 3.79 15.83 3.79C15.55 3.79 15.28 3.82 15.01 3.87C14.97 3.88 14.94 3.9 14.92 3.93C14.89 3.97 14.91 4.02 14.93 4.05C15.72 5.13 16.17 6.44 16.17 7.84Z" fill="#212121" fill-opacity="1.000000" fill-rule="nonzero"/>
		</g>
		<path id="Fill 7" d="M21.77 15.16C21.43 14.44 20.59 13.94 19.31 13.7C18.71 13.55 17.08 13.35 15.56 13.38C15.54 13.38 15.53 13.4 15.53 13.41C15.52 13.42 15.53 13.44 15.56 13.46C16.26 13.8 18.97 15.28 18.63 18.39C18.61 18.52 18.72 18.64 18.86 18.62C19.53 18.53 21.24 18.17 21.77 17.04C22.07 16.45 22.07 15.76 21.77 15.16Z" fill="#212121" fill-opacity="1.000000" fill-rule="nonzero"/>
	</g>
</svg>
