<svg width="24.000000" height="24.000000" viewBox="0 0 24 24" fill="none" xmlns="http://www.w3.org/2000/svg" xmlns:xlink="http://www.w3.org/1999/xlink">
	<desc>
			Created with Pixso.
	</desc>
	<defs>
		<clipPath id="clip430_9753">
			<rect id="Iconly/Bulk/Add User" width="24.000000" height="24.000000" fill="white" fill-opacity="0"/>
		</clipPath>
	</defs>
	<rect id="Iconly/Bulk/Add User" width="24.000000" height="24.000000" fill="#FFFFFF" fill-opacity="0"/>
	<g clip-path="url(#clip430_9753)">
		<g opacity="0.400000" style="mix-blend-mode:normal">
			<path id="Fill 1" d="M21.1 9.58L19.89 9.58L19.89 8.41C19.89 7.9 19.49 7.5 18.99 7.5C18.5 7.5 18.1 7.9 18.1 8.41L18.1 9.58L16.89 9.58C16.4 9.58 16 9.99 16 10.49C16 11 16.4 11.41 16.89 11.41L18.1 11.41L18.1 12.58C18.1 13.09 18.5 13.5 18.99 13.5C19.49 13.5 19.89 13.09 19.89 12.58L19.89 11.41L21.1 11.41C21.59 11.41 22 11 22 10.49C22 9.99 21.59 9.58 21.1 9.58Z" fill="#212121" fill-opacity="1.000000" fill-rule="nonzero"/>
		</g>
		<path id="Fill 4" d="M9.5 15.01C5.45 15.01 2 15.66 2 18.24C2 20.83 5.43 21.5 9.5 21.5C13.54 21.5 17 20.85 17 18.26C17 15.68 13.56 15.01 9.5 15.01Z" fill="#212121" fill-opacity="1.000000" fill-rule="nonzero"/>
		<g opacity="0.400000" style="mix-blend-mode:normal">
			<path id="Fill 7" d="M9.5 12.55C12.25 12.55 14.46 10.31 14.46 7.52C14.46 4.73 12.25 2.5 9.5 2.5C6.74 2.5 4.53 4.73 4.53 7.52C4.53 10.31 6.74 12.55 9.5 12.55Z" fill="#212121" fill-opacity="1.000000" fill-rule="nonzero"/>
		</g>
	</g>
</svg>
