<svg width="24.000000" height="24.000000" viewBox="0 0 24 24" fill="none" xmlns="http://www.w3.org/2000/svg" xmlns:xlink="http://www.w3.org/1999/xlink">
	<desc>
			Created with Pixso.
	</desc>
	<defs>
		<clipPath id="clip430_9840">
			<rect id="Iconly/Bulk/Info Circle" width="24.000000" height="24.000000" fill="white" fill-opacity="0"/>
		</clipPath>
	</defs>
	<rect id="Iconly/Bulk/Info Circle" width="24.000000" height="24.000000" fill="#FFFFFF" fill-opacity="0"/>
	<g clip-path="url(#clip430_9840)">
		<g opacity="0.400000" style="mix-blend-mode:normal">
			<path id="Fill 1" d="M22 11.99C22 17.52 17.52 21.99 12 21.99C6.47 21.99 2 17.52 2 11.99C2 6.47 6.47 1.99 12 1.99C17.52 1.99 22 6.47 22 11.99Z" fill="#212121" fill-opacity="1.000000" fill-rule="nonzero"/>
		</g>
		<path id="Combined Shape" d="M12.8701 12.6306C12.8701 13.1128 12.4771 13.5056 11.9951 13.5056C11.5132 13.5056 11.1201 13.1128 11.1201 12.6306L11.1201 8.21069C11.1201 7.72876 11.5132 7.33569 11.9951 7.33569C12.4771 7.33569 12.8701 7.72876 12.8701 8.21069L12.8701 12.6306ZM11.125 15.8035C11.125 15.3215 11.5161 14.9285 11.9951 14.9285C12.488 14.9285 12.8801 15.3215 12.8801 15.8035C12.8801 16.2854 12.488 16.6785 12.0051 16.6785C11.52 16.6785 11.125 16.2854 11.125 15.8035Z" clip-rule="evenodd" fill="#212121" fill-opacity="1.000000" fill-rule="evenodd"/>
	</g>
</svg>
