<svg width="24.000000" height="24.000000" viewBox="0 0 24 24" fill="none" xmlns="http://www.w3.org/2000/svg" xmlns:xlink="http://www.w3.org/1999/xlink">
	<desc>
			Created with Pixso.
	</desc>
	<defs>
		<clipPath id="clip430_9634">
			<rect id="Iconly/Bulk/Work" width="24.000000" height="24.000000" fill="white" fill-opacity="0"/>
		</clipPath>
	</defs>
	<rect id="Iconly/Bulk/Work" width="24.000000" height="24.000000" fill="#FFFFFF" fill-opacity="0"/>
	<g clip-path="url(#clip430_9634)">
		<g opacity="0.400000" style="mix-blend-mode:normal">
			<path id="Fill 1" d="M2 11.07C2.05 13.41 2.19 17.41 2.21 17.85C2.28 18.79 2.64 19.75 3.2 20.42C3.98 21.36 4.94 21.78 6.29 21.78C8.14 21.79 10.19 21.79 12.18 21.79C14.17 21.79 16.11 21.79 17.74 21.78C19.07 21.78 20.06 21.35 20.83 20.42C21.39 19.75 21.75 18.78 21.81 17.85C21.83 17.48 21.93 13.14 21.99 11.07L2 11.07Z" fill="#212121" fill-opacity="1.000000" fill-rule="nonzero"/>
		</g>
		<path id="Fill 4" d="M11.24 15.38L11.24 16.67C11.24 17.09 11.58 17.42 11.99 17.42C12.4 17.42 12.74 17.09 12.74 16.67L12.74 15.38C12.74 14.97 12.4 14.63 11.99 14.63C11.58 14.63 11.24 14.97 11.24 15.38Z" fill="#212121" fill-opacity="1.000000" fill-rule="nonzero"/>
		<path id="Fill 6" d="M10.2114 14.5564C10.1116 14.9194 9.76245 15.1514 9.38452 15.1016C6.8335 14.7456 4.39551 13.8406 2.3374 12.4814C2.12646 12.3435 2.00049 12.1074 2.00049 11.8555L2.00049 8.3894C2.00049 6.28955 3.7124 4.58154 5.81738 4.58154L7.78442 4.58154C7.97241 3.12939 9.20239 2.00049 10.7046 2.00049L13.2864 2.00049C14.7876 2.00049 16.0186 3.12939 16.2065 4.58154L18.1836 4.58154C20.2825 4.58154 21.9905 6.28955 21.9905 8.3894L21.9905 11.8555C21.9905 12.1074 21.8635 12.3425 21.6545 12.4814C19.5925 13.8464 17.1445 14.7554 14.5764 15.1106C14.5415 15.1155 14.5076 15.1174 14.4734 15.1174C14.1345 15.1174 13.8315 14.8884 13.7466 14.5525C13.5444 13.7566 12.8215 13.1995 11.9905 13.1995C11.1484 13.1995 10.4336 13.7444 10.2114 14.5564ZM13.2864 3.50049L10.7046 3.50049C10.0315 3.50049 9.46948 3.96045 9.30151 4.58154L14.6885 4.58154C14.5205 3.96045 13.9585 3.50049 13.2864 3.50049Z" clip-rule="evenodd" fill="#212121" fill-opacity="1.000000" fill-rule="evenodd"/>
	</g>
</svg>
