<svg width="24.000000" height="24.000000" viewBox="0 0 24 24" fill="none" xmlns="http://www.w3.org/2000/svg" xmlns:xlink="http://www.w3.org/1999/xlink">
	<desc>
			Created with Pixso.
	</desc>
	<defs>
		<clipPath id="clip430_9648">
			<rect id="Iconly/Bulk/Calling" width="24.000000" height="24.000000" fill="white" fill-opacity="0"/>
		</clipPath>
	</defs>
	<rect id="Iconly/Bulk/Calling" width="24.000000" height="24.000000" fill="#FFFFFF" fill-opacity="0"/>
	<g clip-path="url(#clip430_9648)">
		<g opacity="0.400000" style="mix-blend-mode:normal">
			<path id="Fill 1" d="M14.41 5.48C13.94 5.4 13.5 5.7 13.41 6.17C13.32 6.63 13.62 7.08 14.09 7.17C15.48 7.45 16.56 8.53 16.83 9.92L16.83 9.93C16.91 10.33 17.26 10.62 17.67 10.62C17.73 10.62 17.78 10.62 17.84 10.61C18.3 10.51 18.6 10.06 18.51 9.6C18.11 7.51 16.5 5.89 14.41 5.48Z" fill="#212121" fill-opacity="1.000000" fill-rule="nonzero"/>
		</g>
		<g opacity="0.400000" style="mix-blend-mode:normal">
			<path id="Fill 3" d="M14.35 2C14.13 1.97 13.9 2.04 13.73 2.18C13.54 2.32 13.43 2.53 13.4 2.76C13.35 3.23 13.69 3.66 14.16 3.71C17.4 4.07 19.92 6.6 20.29 9.85C20.33 10.29 20.7 10.62 21.14 10.62C21.17 10.62 21.2 10.61 21.23 10.61C21.46 10.59 21.66 10.47 21.81 10.29C21.95 10.11 22.02 9.89 21.99 9.66C21.54 5.6 18.4 2.45 14.35 2Z" fill="#212121" fill-opacity="1.000000" fill-rule="nonzero"/>
		</g>
		<path id="Stroke 1" d="M11.03 12.97C15.02 16.96 15.92 12.34 18.46 14.88C20.91 17.33 22.32 17.82 19.21 20.92C18.83 21.23 16.36 24.99 7.68 16.31C-1 7.64 2.76 5.17 3.07 4.78C6.18 1.67 6.66 3.08 9.11 5.53C11.65 8.07 7.04 8.98 11.03 12.97Z" fill="#212121" fill-opacity="1.000000" fill-rule="evenodd"/>
		<path id="Stroke 1" d="M18.46 14.88C20.91 17.33 22.32 17.82 19.21 20.92C18.83 21.23 16.36 24.99 7.68 16.31C-1 7.64 2.76 5.17 3.07 4.78C6.18 1.67 6.66 3.08 9.11 5.53C11.65 8.07 7.04 8.98 11.03 12.97C15.02 16.96 15.92 12.34 18.46 14.88Z" stroke="#000000" stroke-opacity="0" stroke-width="0.000000" stroke-linejoin="round"/>
	</g>
</svg>
