<svg width="24.000000" height="24.000000" viewBox="0 0 24 24" fill="none" xmlns="http://www.w3.org/2000/svg" xmlns:xlink="http://www.w3.org/1999/xlink">
	<desc>
			Created with Pixso.
	</desc>
	<defs>
		<clipPath id="clip430_9529">
			<rect id="Iconly/Bulk/Arrow - Down Square" width="24.000000" height="24.000000" fill="white" fill-opacity="0"/>
		</clipPath>
	</defs>
	<rect id="Iconly/Bulk/Arrow - Down Square" width="24.000000" height="24.000000" fill="#FFFFFF" fill-opacity="0"/>
	<g clip-path="url(#clip430_9529)">
		<rect id="Iconly/Bulk/Arrow - Down Square" rx="-0.500000" width="23.000000" height="23.000000" transform="translate(0.500000 0.500000)" fill="#FFFFFF" fill-opacity="0"/>
		<g opacity="0.400000" style="mix-blend-mode:normal">
			<path id="Fill 1" d="M2 7.91L2 16.08C2 19.62 4.27 22 7.66 22L16.33 22C19.72 22 22 19.62 22 16.08L22 7.91C22 4.37 19.72 2 16.33 2L7.66 2C4.27 2 2 4.37 2 7.91Z" fill="#212121" fill-opacity="1.000000" fill-rule="nonzero"/>
		</g>
		<path id="Fill 4" d="M7.72 12.85L11.46 16.62C11.75 16.9 12.24 16.9 12.53 16.62L16.28 12.85C16.57 12.56 16.57 12.08 16.27 11.79C15.98 11.5 15.5 11.5 15.21 11.79L12.74 14.27L12.74 7.91C12.74 7.5 12.41 7.16 11.99 7.16C11.58 7.16 11.24 7.5 11.24 7.91L11.24 14.27L8.78 11.79C8.63 11.64 8.44 11.57 8.25 11.57C8.06 11.57 7.86 11.64 7.72 11.79C7.42 12.08 7.42 12.56 7.72 12.85Z" fill="#212121" fill-opacity="1.000000" fill-rule="nonzero"/>
	</g>
</svg>
