<svg width="24.000000" height="24.000000" viewBox="0 0 24 24" fill="none" xmlns="http://www.w3.org/2000/svg" xmlns:xlink="http://www.w3.org/1999/xlink">
	<desc>
			Created with Pixso.
	</desc>
	<defs>
		<clipPath id="clip430_9501">
			<rect id="Iconly/Bulk/Arrow - Right 2" width="24.000000" height="24.000000" fill="white" fill-opacity="0"/>
		</clipPath>
	</defs>
	<rect id="Iconly/Bulk/Arrow - Right 2" width="24.000000" height="24.000000" fill="#FFFFFF" fill-opacity="0"/>
	<g clip-path="url(#clip430_9501)">
		<rect id="Iconly/Bulk/Arrow - Right 2" width="24.000000" height="24.000000" fill="#FFFFFF" fill-opacity="0"/>
		<path id="Fill 1" d="M7.21 13.13L14.06 8.91C14.21 8.81 14.41 8.82 14.55 8.93C15.2 9.44 15.78 9.94 16.17 10.37C16.17 10.37 16.5 10.71 16.65 10.93C16.88 11.23 17 11.61 17 11.99C17 12.41 16.87 12.81 16.63 13.13C16.57 13.19 16.36 13.44 16.16 13.64C14.99 14.92 11.94 17.03 10.34 17.66C10.1 17.77 9.48 17.98 9.16 18C8.84 18 8.54 17.93 8.25 17.78C7.9 17.57 7.62 17.26 7.46 16.88C7.36 16.62 7.21 15.83 7.21 15.81C7.11 15.25 7.03 14.46 7 13.54C6.99 13.37 7.07 13.21 7.21 13.13Z" fill="#212121" fill-opacity="1.000000" fill-rule="nonzero"/>
		<g opacity="0.400000" style="mix-blend-mode:normal">
			<path id="Fill 4" d="M7.67 10.86C7.37 11.04 6.99 10.8 7 10.44C7.04 9.6 7.1 8.86 7.17 8.31C7.19 8.3 7.34 7.32 7.52 6.99C7.83 6.37 8.44 6 9.1 6L9.16 6C9.58 6.01 10.48 6.38 10.48 6.41C10.94 6.59 11.53 6.91 12.17 7.3C12.45 7.47 12.46 7.9 12.17 8.08L7.67 10.86Z" fill="#212121" fill-opacity="1.000000" fill-rule="nonzero"/>
		</g>
	</g>
</svg>
