<svg width="24.000000" height="24.000000" viewBox="0 0 24 24" fill="none" xmlns="http://www.w3.org/2000/svg" xmlns:xlink="http://www.w3.org/1999/xlink">
	<desc>
			Created with Pixso.
	</desc>
	<defs>
		<clipPath id="clip430_9909">
			<rect id="Iconly/Bulk/Graph" width="24.000000" height="24.000000" fill="white" fill-opacity="0"/>
		</clipPath>
	</defs>
	<rect id="Iconly/Bulk/Graph" width="24.000000" height="24.000000" fill="#FFFFFF" fill-opacity="0"/>
	<g clip-path="url(#clip430_9909)">
		<path id="Path" d="M10.15 5.55C10.2 5.65 10.23 5.77 10.25 5.88L10.53 10.02L10.66 12.1C10.67 12.31 10.7 12.53 10.76 12.73C10.93 13.13 11.33 13.38 11.77 13.36L18.43 12.93C18.71 12.92 18.99 13.03 19.2 13.23C19.37 13.39 19.48 13.6 19.52 13.84L19.53 13.98C19.26 17.79 16.45 20.97 12.65 21.79C8.84 22.61 4.94 20.88 3.06 17.53C2.51 16.56 2.17 15.49 2.06 14.38C2.01 14.06 1.99 13.73 2 13.4C1.99 9.31 4.9 5.77 8.98 4.92C9.47 4.84 9.95 5.1 10.15 5.55Z" fill="#212121" fill-opacity="1.000000" fill-rule="nonzero"/>
		<g opacity="0.400000" style="mix-blend-mode:normal">
			<path id="Path" d="M12.87 2C17.42 2.11 21.26 5.39 22 9.81L21.99 9.84L21.97 9.89L21.97 10.02C21.96 10.19 21.89 10.36 21.78 10.49C21.66 10.63 21.5 10.72 21.32 10.76L21.21 10.78L13.53 11.27C13.27 11.3 13.02 11.22 12.83 11.05C12.67 10.91 12.57 10.72 12.54 10.51L12.02 2.84C12.01 2.81 12.01 2.79 12.02 2.76C12.03 2.55 12.12 2.35 12.28 2.21C12.44 2.06 12.65 1.99 12.87 2Z" fill="#212121" fill-opacity="1.000000" fill-rule="nonzero"/>
		</g>
	</g>
</svg>
