<svg width="24.000000" height="24.000000" viewBox="0 0 24 24" fill="none" xmlns="http://www.w3.org/2000/svg" xmlns:xlink="http://www.w3.org/1999/xlink">
	<desc>
			Created with Pixso.
	</desc>
	<defs>
		<clipPath id="clip430_9850">
			<rect id="Iconly/Bulk/Danger" width="24.000000" height="24.000000" fill="white" fill-opacity="0"/>
		</clipPath>
	</defs>
	<rect id="Iconly/Bulk/Danger" width="24.000000" height="24.000000" fill="#FFFFFF" fill-opacity="0"/>
	<g clip-path="url(#clip430_9850)">
		<g opacity="0.400000" style="mix-blend-mode:normal">
			<path id="Fill 5" d="M4.72 21.16C4.7 21.16 4.69 21.16 4.68 21.16C4.36 21.15 4.05 21.08 3.76 20.96C2.31 20.37 1.62 18.72 2.2 17.27L9.52 4.45C9.78 3.99 10.16 3.61 10.62 3.35C11.99 2.59 13.71 3.09 14.47 4.45L21.74 17.18C21.9 17.56 21.97 17.87 21.99 18.19C22.03 18.95 21.77 19.67 21.27 20.23C20.76 20.79 20.06 21.12 19.31 21.16L4.79 21.16L4.72 21.16Z" fill="#212121" fill-opacity="1.000000" fill-rule="nonzero"/>
		</g>
		<path id="Combined Shape" d="M11.1245 10.0208C11.1245 9.53882 11.5176 9.14575 11.9995 9.14575C12.4814 9.14575 12.8745 9.53882 12.8745 10.0208L12.8745 12.8486C12.8745 13.3318 12.4814 13.7236 11.9995 13.7236C11.5176 13.7236 11.1245 13.3318 11.1245 12.8486L11.1245 10.0208ZM11.1245 16.2698C11.1245 15.7849 11.5176 15.3899 11.9995 15.3899C12.4814 15.3899 12.8745 15.7798 12.8745 16.2588C12.8745 16.752 12.4814 17.1448 11.9995 17.1448C11.5176 17.1448 11.1245 16.752 11.1245 16.2698Z" clip-rule="evenodd" fill="#212121" fill-opacity="1.000000" fill-rule="evenodd"/>
	</g>
</svg>
