<svg width="24.000000" height="24.000000" viewBox="0 0 24 24" fill="none" xmlns="http://www.w3.org/2000/svg" xmlns:xlink="http://www.w3.org/1999/xlink">
	<desc>
			Created with Pixso.
	</desc>
	<defs>
		<clipPath id="clip430_9936">
			<rect id="Iconly/Bulk/Time Square" width="24.000000" height="24.000000" fill="white" fill-opacity="0"/>
		</clipPath>
	</defs>
	<rect id="Iconly/Bulk/Time Square" width="24.000000" height="24.000000" fill="#FFFFFF" fill-opacity="0"/>
	<g clip-path="url(#clip430_9936)">
		<g opacity="0.400000" style="mix-blend-mode:normal">
			<path id="Fill 3" d="M16.34 1.99L7.66 1.99C4.28 1.99 2 4.37 2 7.91L2 16.08C2 19.61 4.28 21.99 7.66 21.99L16.34 21.99C19.73 21.99 22 19.61 22 16.08L22 7.91C22 4.37 19.73 1.99 16.34 1.99Z" fill="#212121" fill-opacity="1.000000" fill-rule="nonzero"/>
		</g>
		<path id="Fill 1" d="M15.57 15.81C15.44 15.81 15.31 15.78 15.18 15.7L11.26 13.36C11.03 13.23 10.89 12.98 10.89 12.72L10.89 7.67C10.89 7.26 11.23 6.92 11.64 6.92C12.06 6.92 12.39 7.26 12.39 7.67L12.39 12.29L15.95 14.41C16.31 14.63 16.43 15.09 16.21 15.44C16.07 15.68 15.82 15.81 15.57 15.81Z" fill="#212121" fill-opacity="1.000000" fill-rule="nonzero"/>
	</g>
</svg>
