<svg width="24.000000" height="24.000000" viewBox="0 0 24 24" fill="none" xmlns="http://www.w3.org/2000/svg" xmlns:xlink="http://www.w3.org/1999/xlink">
	<desc>
			Created with Pixso.
	</desc>
	<defs>
		<clipPath id="clip430_9749">
			<rect id="Iconly/Bulk/Video" width="24.000000" height="24.000000" fill="white" fill-opacity="0"/>
		</clipPath>
	</defs>
	<rect id="Iconly/Bulk/Video" width="24.000000" height="24.000000" fill="#FFFFFF" fill-opacity="0"/>
	<g clip-path="url(#clip430_9749)">
		<g opacity="0.400000" style="mix-blend-mode:normal">
			<path id="Fill 1" d="M21.33 7.44C20.91 7.17 20.39 7.15 19.95 7.37L18.47 8.12C17.92 8.4 17.58 8.96 17.58 9.58L17.58 15.41C17.58 16.03 17.92 16.59 18.47 16.87L19.95 17.62C20.15 17.72 20.37 17.77 20.58 17.77C20.84 17.77 21.1 17.7 21.33 17.55C21.75 17.29 22 16.83 22 16.33L22 8.66C22 8.16 21.75 7.7 21.33 7.44Z" fill="#212121" fill-opacity="1.000000" fill-rule="nonzero"/>
		</g>
		<path id="Fill 3" d="M11.9 20L6.11 20C3.69 20 2 18.32 2 15.93L2 9.06C2 6.66 3.69 5 6.11 5L11.9 5C14.32 5 16.01 6.66 16.01 9.06L16.01 15.93C16.01 18.32 14.32 20 11.9 20Z" fill="#212121" fill-opacity="1.000000" fill-rule="nonzero"/>
	</g>
</svg>
