<svg width="24.000000" height="24.000000" viewBox="0 0 24 24" fill="none" xmlns="http://www.w3.org/2000/svg" xmlns:xlink="http://www.w3.org/1999/xlink">
	<desc>
			Created with Pixso.
	</desc>
	<defs>
		<clipPath id="clip430_9905">
			<rect id="Iconly/Bulk/Plus" width="24.000000" height="24.000000" fill="white" fill-opacity="0"/>
		</clipPath>
	</defs>
	<rect id="Iconly/Bulk/Plus" width="24.000000" height="24.000000" fill="#FFFFFF" fill-opacity="0"/>
	<g clip-path="url(#clip430_9905)">
		<g opacity="0.400000" style="mix-blend-mode:normal">
			<path id="Path_34200" d="M16.66 2L7.33 2C3.92 2 2 3.92 2 7.33L2 16.66C2 20.06 3.91 22 7.33 22L16.66 22C20.07 22 22 20.06 22 16.66L22 7.33C22 3.92 20.07 2 16.66 2Z" fill="#212121" fill-opacity="1.000000" fill-rule="nonzero"/>
		</g>
		<path id="Path_34201" d="M15.32 12.7L12.74 12.7L12.74 15.25C12.74 15.66 12.41 16 12 16C11.58 16 11.25 15.66 11.25 15.25L11.25 12.7L8.67 12.7C8.29 12.66 8 12.34 8 11.96C8 11.57 8.29 11.25 8.67 11.21L11.24 11.21L11.24 8.67C11.28 8.29 11.6 8 11.99 8C12.38 8 12.7 8.29 12.74 8.67L12.74 11.21L15.32 11.21C15.7 11.25 16 11.57 16 11.96C16 12.34 15.7 12.66 15.32 12.7Z" fill="#212121" fill-opacity="1.000000" fill-rule="nonzero"/>
	</g>
</svg>
