<svg width="24.000000" height="24.000000" viewBox="0 0 24 24" fill="none" xmlns="http://www.w3.org/2000/svg" xmlns:xlink="http://www.w3.org/1999/xlink">
	<desc>
			Created with Pixso.
	</desc>
	<defs>
		<clipPath id="clip430_9509">
			<rect id="Iconly/Bulk/Arrow - Up Square" width="24.000000" height="24.000000" fill="white" fill-opacity="0"/>
		</clipPath>
	</defs>
	<rect id="Iconly/Bulk/Arrow - Up Square" width="24.000000" height="24.000000" fill="#FFFFFF" fill-opacity="0"/>
	<g clip-path="url(#clip430_9509)">
		<rect id="Iconly/Bulk/Arrow - Up Square" width="24.000000" height="24.000000" fill="#FFFFFF" fill-opacity="0"/>
		<g opacity="0.400000" style="mix-blend-mode:normal">
			<path id="Fill 1" d="M22 16.08L22 7.91C22 4.37 19.72 2 16.33 2L7.66 2C4.27 2 2 4.37 2 7.91L2 16.08C2 19.62 4.27 22 7.66 22L16.33 22C19.72 22 22 19.62 22 16.08Z" fill="#212121" fill-opacity="1.000000" fill-rule="nonzero"/>
		</g>
		<path id="Fill 4" d="M16.27 11.14L12.53 7.37C12.24 7.09 11.75 7.09 11.46 7.37L7.71 11.14C7.42 11.43 7.42 11.91 7.72 12.2C8.01 12.49 8.49 12.49 8.78 12.2L11.25 9.72L11.25 16.08C11.25 16.49 11.58 16.83 12 16.83C12.41 16.83 12.75 16.49 12.75 16.08L12.75 9.72L15.21 12.2C15.36 12.35 15.55 12.42 15.74 12.42C15.93 12.42 16.13 12.35 16.27 12.2C16.57 11.91 16.57 11.43 16.27 11.14Z" fill="#212121" fill-opacity="1.000000" fill-rule="nonzero"/>
	</g>
</svg>
