<svg width="24.000000" height="24.000000" viewBox="0 0 24 24" fill="none" xmlns="http://www.w3.org/2000/svg" xmlns:xlink="http://www.w3.org/1999/xlink">
	<desc>
			Created with Pixso.
	</desc>
	<defs>
		<clipPath id="clip430_9860">
			<rect id="Iconly/Bulk/Tick Square" width="24.000000" height="24.000000" fill="white" fill-opacity="0"/>
		</clipPath>
	</defs>
	<rect id="Iconly/Bulk/Tick Square" width="24.000000" height="24.000000" fill="#FFFFFF" fill-opacity="0"/>
	<g clip-path="url(#clip430_9860)">
		<g opacity="0.400000" style="mix-blend-mode:normal">
			<path id="Fill 1" d="M16.34 1.99L7.67 1.99C4.28 1.99 2 4.37 2 7.91L2 16.08C2 19.61 4.28 21.99 7.67 21.99L16.34 21.99C19.73 21.99 22 19.61 22 16.08L22 7.91C22 4.37 19.73 1.99 16.34 1.99Z" fill="#212121" fill-opacity="1.000000" fill-rule="nonzero"/>
		</g>
		<path id="Fill 4" d="M10.81 15.24C10.58 15.24 10.36 15.16 10.19 14.99L7.82 12.61C7.47 12.27 7.47 11.72 7.82 11.38C8.16 11.04 8.71 11.03 9.05 11.38L10.81 13.13L14.94 9C15.28 8.66 15.83 8.66 16.17 9C16.52 9.34 16.52 9.9 16.17 10.24L11.43 14.99C11.26 15.16 11.03 15.24 10.81 15.24Z" fill="#212121" fill-opacity="1.000000" fill-rule="nonzero"/>
	</g>
</svg>
