<svg width="24.000000" height="24.000000" viewBox="0 0 24 24" fill="none" xmlns="http://www.w3.org/2000/svg" xmlns:xlink="http://www.w3.org/1999/xlink">
	<desc>
			Created with Pixso.
	</desc>
	<defs>
		<clipPath id="clip430_9550">
			<rect id="Iconly/Bulk/Paper Plus" width="24.000000" height="24.000000" fill="white" fill-opacity="0"/>
		</clipPath>
	</defs>
	<rect id="Iconly/Bulk/Paper Plus" width="24.000000" height="24.000000" fill="#FFFFFF" fill-opacity="0"/>
	<g clip-path="url(#clip430_9550)">
		<g opacity="0.400000" style="mix-blend-mode:normal">
			<path id="Fill 3" d="M18.8 9.02C18.35 9.02 17.75 9.01 17.01 9.01C15.19 9.01 13.7 7.5 13.7 5.67L13.7 2.45C13.7 2.2 13.5 2 13.25 2L7.96 2C5.49 2 3.5 4.02 3.5 6.5L3.5 17.28C3.5 19.88 5.59 22 8.16 22L16.04 22C18.5 22 20.5 19.98 20.5 17.5L20.5 9.47C20.5 9.21 20.29 9.01 20.04 9.01C19.62 9.01 19.11 9.02 18.8 9.02Z" fill="#212121" fill-opacity="1.000000" fill-rule="nonzero"/>
		</g>
		<g opacity="0.400000" style="mix-blend-mode:normal">
			<path id="Fill 1" d="M16.08 2.56C15.78 2.25 15.26 2.47 15.26 2.9L15.26 5.53C15.26 6.64 16.17 7.55 17.27 7.55C17.97 7.56 18.94 7.56 19.76 7.56C20.18 7.56 20.4 7.05 20.11 6.75C19.05 5.65 17.16 3.69 16.08 2.56Z" fill="#212121" fill-opacity="1.000000" fill-rule="nonzero"/>
		</g>
		<path id="Fill 6" d="M14.36 12.23L12.63 12.23L12.63 10.5C12.63 10.09 12.3 9.76 11.89 9.76C11.48 9.76 11.15 10.09 11.15 10.5L11.15 12.23L9.42 12.23C9.01 12.23 8.67 12.57 8.67 12.98C8.67 13.39 9.01 13.72 9.42 13.72L11.15 13.72L11.15 15.45C11.15 15.86 11.48 16.19 11.89 16.19C12.3 16.19 12.63 15.86 12.63 15.45L12.63 13.72L14.36 13.72C14.77 13.72 15.11 13.39 15.11 12.98C15.11 12.57 14.77 12.23 14.36 12.23Z" fill="#212121" fill-opacity="1.000000" fill-rule="nonzero"/>
	</g>
</svg>
