<svg width="24.000000" height="24.000000" viewBox="0 0 24 24" fill="none" xmlns="http://www.w3.org/2000/svg" xmlns:xlink="http://www.w3.org/1999/xlink">
	<desc>
			Created with Pixso.
	</desc>
	<defs>
		<clipPath id="clip430_9641">
			<rect id="Iconly/Bulk/Filter 2" width="24.000000" height="24.000000" fill="white" fill-opacity="0"/>
		</clipPath>
	</defs>
	<rect id="Iconly/Bulk/Filter 2" width="24.000000" height="24.000000" fill="#FFFFFF" fill-opacity="0"/>
	<g clip-path="url(#clip430_9641)">
		<path id="Fill 1" d="M14.57 13.59L20.42 7.72C20.79 7.35 21 6.84 21 6.32L21 4.6C21 3.52 20.14 3 19.08 3L4.91 3C3.85 3 3 3.52 3 4.6L3 6.35C3 6.85 3.18 7.33 3.51 7.69L8.89 13.56C8.99 13.67 9.14 13.73 9.28 13.73L14.19 13.75C14.33 13.75 14.47 13.69 14.57 13.59Z" fill="#212121" fill-opacity="1.000000" fill-rule="nonzero"/>
		<g opacity="0.400000" style="mix-blend-mode:normal">
			<path id="Fill 4" d="M9.05 13.68L9.05 20.29C9.05 20.53 9.17 20.75 9.37 20.88C9.48 20.96 9.62 21 9.75 21C9.84 21 9.94 20.97 10.04 20.93L14 19.08C14.25 18.97 14.41 18.72 14.41 18.44L14.41 13.68L9.05 13.68Z" fill="#212121" fill-opacity="1.000000" fill-rule="nonzero"/>
		</g>
	</g>
</svg>
