<svg width="24.000000" height="24.000000" viewBox="0 0 24 24" fill="none" xmlns="http://www.w3.org/2000/svg" xmlns:xlink="http://www.w3.org/1999/xlink">
	<desc>
			Created with Pixso.
	</desc>
	<defs>
		<clipPath id="clip430_9856">
			<rect id="Iconly/Bulk/Close Square" width="24.000000" height="24.000000" fill="white" fill-opacity="0"/>
		</clipPath>
	</defs>
	<rect id="Iconly/Bulk/Close Square" width="24.000000" height="24.000000" fill="#FFFFFF" fill-opacity="0"/>
	<g clip-path="url(#clip430_9856)">
		<g opacity="0.400000" style="mix-blend-mode:normal">
			<path id="Fill 1" d="M16.34 1.99L7.66 1.99C4.28 1.99 2 4.37 2 7.91L2 16.08C2 19.61 4.28 21.99 7.66 21.99L16.34 21.99C19.73 21.99 22 19.61 22 16.08L22 7.91C22 4.37 19.73 1.99 16.34 1.99Z" fill="#212121" fill-opacity="1.000000" fill-rule="nonzero"/>
		</g>
		<path id="Fill 4" d="M15.01 13.77L13.23 11.99L15.01 10.21C15.35 9.87 15.35 9.31 15.01 8.97C14.67 8.63 14.11 8.63 13.77 8.97L11.99 10.75L10.21 8.97C9.87 8.63 9.32 8.63 8.98 8.97C8.64 9.31 8.64 9.87 8.98 10.21L10.76 11.99L8.98 13.76C8.64 14.1 8.64 14.66 8.98 15C9.15 15.17 9.37 15.26 9.6 15.26C9.82 15.26 10.05 15.17 10.22 15L11.99 13.22L13.77 15C13.94 15.17 14.17 15.26 14.39 15.26C14.62 15.26 14.84 15.17 15.01 15C15.35 14.66 15.35 14.11 15.01 13.77Z" fill="#212121" fill-opacity="1.000000" fill-rule="nonzero"/>
	</g>
</svg>
