<svg width="24.000000" height="24.000000" viewBox="0 0 24 24" fill="none" xmlns="http://www.w3.org/2000/svg" xmlns:xlink="http://www.w3.org/1999/xlink">
	<desc>
			Created with Pixso.
	</desc>
	<defs>
		<clipPath id="clip430_9864">
			<rect id="Iconly/Bulk/Scan" width="24.000000" height="24.000000" fill="white" fill-opacity="0"/>
		</clipPath>
	</defs>
	<rect id="Iconly/Bulk/Scan" width="24.000000" height="24.000000" fill="#FFFFFF" fill-opacity="0"/>
	<g clip-path="url(#clip430_9864)">
		<g opacity="0.400000" style="mix-blend-mode:normal">
			<path id="Combined Shape" d="M9.18872 3.74731C9.18872 3.33447 8.84766 3 8.42773 3L8.42676 3L6.79785 3.00098C4.60669 3.00293 2.82373 4.75342 2.82373 6.90283L2.82373 8.76196C2.82373 9.17383 3.16479 9.50928 3.58472 9.50928C4.00464 9.50928 4.34668 9.17383 4.34668 8.76196L4.34668 6.90283C4.34668 5.57593 5.44678 4.49634 6.79883 4.49438L8.42773 4.49341C8.84863 4.49341 9.18872 4.15918 9.18872 3.74731ZM15.6006 3.00024L17.1936 3.00024C19.3906 3.00024 21.1765 4.75171 21.1765 6.90601L21.1765 8.76221C21.1765 9.17407 20.8367 9.50952 20.4155 9.50952C19.9956 9.50952 19.6545 9.17407 19.6545 8.76221L19.6545 6.90601C19.6545 5.57544 18.5505 4.49268 17.1936 4.49268L15.6006 4.49268C15.1807 4.49268 14.8396 4.15942 14.8396 3.74756C14.8396 3.33472 15.1807 3.00024 15.6006 3.00024ZM9.23853 6.74268L14.7625 6.74268C15.3674 6.74268 15.9485 6.98096 16.3716 7.40552C16.7976 7.83398 17.0334 8.40967 17.0325 9.00879L17.0325 10.2542C17.0276 10.4004 16.9084 10.519 16.7595 10.5229L7.2395 10.5229C7.09155 10.5181 6.97241 10.3994 6.96948 10.2542L6.96948 9.00879C6.9585 7.76831 7.97461 6.75537 9.23853 6.74268Z" clip-rule="evenodd" fill="#212121" fill-opacity="1.000000" fill-rule="evenodd"/>
		</g>
		<path id="Fill 7" d="M22.23 12.04L1.76 12.04C1.34 12.04 1 12.37 1 12.78C1 13.2 1.34 13.53 1.76 13.53L2.82 13.53L2.82 17.09C2.82 19.24 4.6 20.99 6.79 20.99L8.42 21C8.84 21 9.18 20.66 9.18 20.25C9.18 19.84 8.84 19.5 8.42 19.5L6.8 19.5C5.44 19.5 4.34 18.42 4.34 17.09L4.34 13.53L6.96 13.53L6.96 14.52C6.95 15.76 7.97 16.77 9.23 16.79L14.76 16.79C16.02 16.77 17.04 15.76 17.03 14.52L17.03 13.53L19.65 13.53L19.65 17.09C19.65 18.42 18.55 19.5 17.19 19.5L15.6 19.5C15.17 19.5 14.83 19.84 14.83 20.25C14.83 20.66 15.17 21 15.6 21L17.19 21C19.38 21 21.17 19.24 21.17 17.09L21.17 13.53L22.23 13.53C22.65 13.53 23 13.2 23 12.78C23 12.37 22.65 12.04 22.23 12.04Z" fill="#212121" fill-opacity="1.000000" fill-rule="nonzero"/>
	</g>
</svg>
