<svg width="24.000000" height="24.000000" viewBox="0 0 24 24" fill="none" xmlns="http://www.w3.org/2000/svg" xmlns:xlink="http://www.w3.org/1999/xlink">
	<desc>
			Created with Pixso.
	</desc>
	<defs>
		<clipPath id="clip430_9681">
			<rect id="Iconly/Bulk/Send" width="24.000000" height="24.000000" fill="white" fill-opacity="0"/>
		</clipPath>
	</defs>
	<rect id="Iconly/Bulk/Send" width="24.000000" height="24.000000" fill="#FFFFFF" fill-opacity="0"/>
	<g clip-path="url(#clip430_9681)">
		<path id="Fill 1" d="M21.42 2.57C20.92 2.06 20.18 1.87 19.49 2.07L3.4 6.72C2.67 6.92 2.16 7.5 2.02 8.23C1.88 8.98 2.37 9.93 3.02 10.32L8.05 13.4C8.57 13.71 9.23 13.63 9.66 13.2L15.42 7.44C15.71 7.14 16.19 7.14 16.48 7.44C16.77 7.73 16.77 8.2 16.48 8.5L10.71 14.26C10.28 14.69 10.2 15.36 10.52 15.87L13.59 20.92C13.95 21.52 14.57 21.86 15.25 21.86C15.33 21.86 15.42 21.86 15.5 21.85C16.28 21.75 16.9 21.22 17.13 20.47L21.9 4.5C22.11 3.82 21.92 3.08 21.42 2.57Z" fill="#212121" fill-opacity="1.000000" fill-rule="nonzero"/>
		<g opacity="0.400000" style="mix-blend-mode:normal">
			<path id="Combined Shape" d="M3.0105 16.8079C2.8186 16.8079 2.62646 16.7349 2.48047 16.5879C2.1875 16.2949 2.1875 15.8208 2.48047 15.5278L3.84546 14.1619C4.13843 13.8699 4.61353 13.8699 4.90649 14.1619C5.19849 14.4548 5.19849 14.9299 4.90649 15.2229L3.54053 16.5879C3.39453 16.7349 3.20239 16.8079 3.0105 16.8079ZM6.2417 17.7803C6.3877 17.9272 6.57959 18.0002 6.77173 18.0002C6.96362 18.0002 7.15576 17.9272 7.30176 17.7803L8.66772 16.4153C8.95972 16.1223 8.95972 15.6472 8.66772 15.3542C8.37476 15.0623 7.89966 15.0623 7.60669 15.3542L6.2417 16.7202C5.94873 17.0132 5.94873 17.4873 6.2417 17.7803ZM7.02539 21.5684C7.17139 21.7153 7.36328 21.7883 7.55542 21.7883C7.74731 21.7883 7.93945 21.7153 8.08545 21.5684L9.45142 20.2034C9.74341 19.9102 9.74341 19.4353 9.45142 19.1423C9.15845 18.8503 8.68335 18.8503 8.39038 19.1423L7.02539 20.5083C6.73242 20.8013 6.73242 21.2754 7.02539 21.5684Z" clip-rule="evenodd" fill="#212121" fill-opacity="1.000000" fill-rule="evenodd"/>
		</g>
	</g>
</svg>
