<svg width="24.000000" height="24.000000" viewBox="0 0 24 24" fill="none" xmlns="http://www.w3.org/2000/svg" xmlns:xlink="http://www.w3.org/1999/xlink">
	<desc>
			Created with Pixso.
	</desc>
	<defs>
		<clipPath id="clip430_9809">
			<rect id="Iconly/Bulk/Ticket Star" width="24.000000" height="24.000000" fill="white" fill-opacity="0"/>
		</clipPath>
	</defs>
	<rect id="Iconly/Bulk/Ticket Star" width="24.000000" height="24.000000" fill="#FFFFFF" fill-opacity="0"/>
	<g clip-path="url(#clip430_9809)">
		<g opacity="0.400000" style="mix-blend-mode:normal">
			<path id="Fill 1" d="M21.25 13.47C20.42 13.47 19.76 12.81 19.76 12C19.76 11.18 20.42 10.52 21.25 10.52C21.44 10.52 21.63 10.44 21.78 10.3C21.92 10.16 22 9.97 22 9.78L21.99 7.1C21.99 4.84 20.13 3 17.85 3L6.14 3C3.86 3 2 4.84 2 7.1L2 9.86C2 10.06 2.07 10.25 2.21 10.39C2.36 10.53 2.55 10.61 2.75 10.61C3.59 10.61 4.23 11.2 4.23 12C4.23 12.81 3.57 13.47 2.75 13.47C2.33 13.47 2 13.8 2 14.21L2 16.89C2 19.15 3.85 21 6.14 21L17.85 21C20.14 21 22 19.15 22 16.89L22 14.21C22 13.8 21.66 13.47 21.25 13.47Z" fill="#212121" fill-opacity="1.000000" fill-rule="nonzero"/>
		</g>
		<path id="Fill 4" d="M15.43 11.58L14.25 12.73L14.53 14.35C14.57 14.64 14.46 14.91 14.23 15.08C14 15.25 13.7 15.27 13.45 15.13L11.99 14.37L10.54 15.13C10.43 15.19 10.31 15.22 10.19 15.22C10.04 15.22 9.89 15.17 9.76 15.08C9.53 14.91 9.42 14.64 9.46 14.35L9.74 12.73L8.56 11.58C8.36 11.39 8.29 11.09 8.38 10.82C8.47 10.55 8.7 10.36 8.98 10.32L10.6 10.08L11.33 8.61C11.46 8.35 11.71 8.2 11.99 8.2L12 8.2C12.28 8.2 12.53 8.35 12.66 8.61L13.39 10.08L15.02 10.32C15.29 10.36 15.52 10.55 15.61 10.82C15.7 11.09 15.63 11.39 15.43 11.58Z" fill="#212121" fill-opacity="1.000000" fill-rule="nonzero"/>
	</g>
</svg>
