<svg width="24.000000" height="24.000000" viewBox="0 0 24 24" fill="none" xmlns="http://www.w3.org/2000/svg" xmlns:xlink="http://www.w3.org/1999/xlink">
	<desc>
			Created with Pixso.
	</desc>
	<defs>
		<clipPath id="clip430_9521">
			<rect id="Iconly/Bulk/Arrow - Left 2" width="24.000000" height="24.000000" fill="white" fill-opacity="0"/>
		</clipPath>
	</defs>
	<rect id="Iconly/Bulk/Arrow - Left 2" width="24.000000" height="24.000000" fill="#FFFFFF" fill-opacity="0"/>
	<g clip-path="url(#clip430_9521)">
		<rect id="Iconly/Bulk/Arrow - Left 2" width="24.000000" height="24.000000" fill="#FFFFFF" fill-opacity="0"/>
		<path id="Fill 1" d="M16.78 10.86L9.93 15.08C9.78 15.18 9.58 15.17 9.44 15.06C8.79 14.55 8.21 14.05 7.82 13.62C7.82 13.62 7.49 13.28 7.34 13.06C7.11 12.76 7 12.38 7 12C7 11.58 7.12 11.18 7.36 10.86C7.42 10.8 7.63 10.55 7.83 10.35C9 9.07 12.05 6.96 13.65 6.33C13.89 6.22 14.51 6.01 14.83 6C15.15 6 15.45 6.06 15.74 6.21C16.09 6.42 16.37 6.73 16.53 7.11C16.63 7.37 16.78 8.16 16.78 8.18C16.88 8.74 16.96 9.53 16.99 10.45C17 10.62 16.92 10.78 16.78 10.86Z" fill="#212121" fill-opacity="1.000000" fill-rule="nonzero"/>
		<g opacity="0.400000" style="mix-blend-mode:normal">
			<path id="Fill 4" d="M16.32 13.13C16.62 12.95 17 13.19 16.99 13.55C16.95 14.39 16.89 15.13 16.82 15.68C16.8 15.69 16.65 16.67 16.47 17C16.16 17.62 15.55 18 14.89 18L14.83 18C14.41 17.98 13.51 17.61 13.51 17.58C13.05 17.4 12.46 17.08 11.82 16.69C11.54 16.52 11.53 16.09 11.82 15.91L16.32 13.13Z" fill="#212121" fill-opacity="1.000000" fill-rule="nonzero"/>
		</g>
	</g>
</svg>
