<svg width="24.000000" height="24.000000" viewBox="0 0 24 24" fill="none" xmlns="http://www.w3.org/2000/svg" xmlns:xlink="http://www.w3.org/1999/xlink">
	<desc>
			Created with Pixso.
	</desc>
	<defs>
		<clipPath id="clip430_9629">
			<rect id="Iconly/Bulk/Image 3" width="24.000000" height="24.000000" fill="white" fill-opacity="0"/>
		</clipPath>
	</defs>
	<rect id="Iconly/Bulk/Image 3" width="24.000000" height="24.000000" fill="#FFFFFF" fill-opacity="0"/>
	<g clip-path="url(#clip430_9629)">
		<path id="Fill 1" d="M22 14.7L22 16.08C22 16.31 21.99 16.54 21.97 16.77C21.68 19.93 19.49 22 16.32 22L7.67 22C6.06 22 4.71 21.47 3.74 20.53C3.36 20.18 3.04 19.77 2.79 19.3C3.12 18.9 3.49 18.46 3.85 18.02C4.46 17.28 5.05 16.56 5.42 16.09C5.97 15.41 7.43 13.61 9.44 14.46C9.85 14.63 10.21 14.87 10.54 15.08C11.35 15.62 11.69 15.78 12.27 15.47C12.9 15.13 13.31 14.46 13.74 13.76C13.97 13.38 14.2 13.02 14.45 12.69C15.54 11.27 17.23 10.89 18.63 11.73C19.33 12.15 19.93 12.68 20.49 13.22C20.61 13.34 20.73 13.45 20.84 13.56C20.99 13.71 21.49 14.22 22 14.7Z" fill="#212121" fill-opacity="1.000000" fill-rule="nonzero"/>
		<g opacity="0.400000" style="mix-blend-mode:normal">
			<path id="Fill 3" d="M16.33 2L7.67 2C4.27 2 2 4.37 2 7.91L2 16.08C2 17.31 2.28 18.41 2.79 19.3C3.12 18.9 3.49 18.46 3.85 18.02C4.46 17.28 5.05 16.56 5.42 16.09C5.97 15.41 7.43 13.61 9.44 14.46C9.85 14.63 10.21 14.87 10.54 15.08C11.35 15.62 11.69 15.78 12.27 15.47C12.9 15.13 13.31 14.46 13.74 13.75C13.97 13.38 14.2 13.02 14.45 12.69C15.54 11.27 17.23 10.89 18.63 11.73C19.33 12.15 19.93 12.68 20.49 13.22C20.61 13.34 20.73 13.45 20.84 13.56C20.99 13.71 21.49 14.22 22 14.7L22 7.91C22 4.37 19.72 2 16.33 2Z" fill="#212121" fill-opacity="1.000000" fill-rule="nonzero"/>
		</g>
		<path id="Fill 5" d="M11.45 8.79C11.45 10.2 10.28 11.37 8.87 11.37C7.46 11.37 6.29 10.2 6.29 8.79C6.29 7.38 7.46 6.21 8.87 6.21C10.28 6.21 11.45 7.38 11.45 8.79Z" fill="#212121" fill-opacity="1.000000" fill-rule="nonzero"/>
	</g>
</svg>
