<svg width="24.000000" height="24.000000" viewBox="0 0 24 24" fill="none" xmlns="http://www.w3.org/2000/svg" xmlns:xlink="http://www.w3.org/1999/xlink">
	<desc>
			Created with Pixso.
	</desc>
	<defs>
		<clipPath id="clip430_9567">
			<rect id="Iconly/Bulk/Paper Download" width="24.000000" height="24.000000" fill="white" fill-opacity="0"/>
		</clipPath>
	</defs>
	<rect id="Iconly/Bulk/Paper Download" width="24.000000" height="24.000000" fill="#FFFFFF" fill-opacity="0"/>
	<g clip-path="url(#clip430_9567)">
		<g opacity="0.400000" style="mix-blend-mode:normal">
			<path id="Fill 3" d="M18.8 9.02C18.35 9.02 17.75 9.01 17.01 9.01C15.19 9.01 13.7 7.5 13.7 5.67L13.7 2.45C13.7 2.2 13.5 2 13.25 2L7.96 2C5.49 2 3.5 4.02 3.5 6.5L3.5 17.28C3.5 19.88 5.59 22 8.17 22L16.04 22C18.5 22 20.5 19.98 20.5 17.5L20.5 9.47C20.5 9.21 20.29 9.01 20.04 9.01C19.62 9.01 19.11 9.02 18.8 9.02Z" fill="#212121" fill-opacity="1.000000" fill-rule="nonzero"/>
		</g>
		<g opacity="0.400000" style="mix-blend-mode:normal">
			<path id="Fill 1" d="M16.08 2.56C15.78 2.25 15.26 2.47 15.26 2.9L15.26 5.53C15.26 6.64 16.17 7.55 17.27 7.55C17.97 7.56 18.94 7.56 19.76 7.56C20.18 7.56 20.4 7.05 20.11 6.75C19.05 5.65 17.16 3.69 16.08 2.56Z" fill="#212121" fill-opacity="1.000000" fill-rule="nonzero"/>
		</g>
		<path id="Fill 6" d="M15.1 12.7C14.81 12.41 14.34 12.41 14.05 12.71L12.46 14.3L12.46 9.48C12.46 9.06 12.12 8.73 11.71 8.73C11.3 8.73 10.97 9.06 10.97 9.48L10.97 14.3L9.38 12.71C9.09 12.41 8.62 12.41 8.32 12.7C8.03 12.99 8.03 13.46 8.32 13.76L11.18 16.63L11.19 16.63C11.25 16.7 11.33 16.76 11.43 16.79C11.52 16.83 11.61 16.85 11.71 16.85C11.81 16.85 11.91 16.83 12 16.79C12.09 16.76 12.17 16.7 12.24 16.63L12.24 16.63L15.1 13.76C15.39 13.46 15.39 12.99 15.1 12.7Z" fill="#212121" fill-opacity="1.000000" fill-rule="nonzero"/>
	</g>
</svg>
