<svg width="24.000000" height="24.000000" viewBox="0 0 24 24" fill="none" xmlns="http://www.w3.org/2000/svg" xmlns:xlink="http://www.w3.org/1999/xlink">
	<desc>
			Created with Pixso.
	</desc>
	<defs>
		<clipPath id="clip430_9595">
			<rect id="Iconly/Bulk/Shield Done" width="24.000000" height="24.000000" fill="white" fill-opacity="0"/>
		</clipPath>
	</defs>
	<rect id="Iconly/Bulk/Shield Done" width="24.000000" height="24.000000" fill="#FFFFFF" fill-opacity="0"/>
	<g clip-path="url(#clip430_9595)">
		<g opacity="0.400000" style="mix-blend-mode:normal">
			<path id="Fill 1" d="M12.08 22C11.96 22 11.83 21.97 11.72 21.91L8.12 20.04C7.1 19.52 6.3 18.92 5.68 18.23C4.31 16.71 3.55 14.77 3.54 12.76L3.5 6.12C3.49 5.35 3.98 4.67 4.72 4.41L11.34 2.1C11.73 1.96 12.17 1.96 12.57 2.09L19.2 4.32C19.95 4.57 20.45 5.25 20.45 6.02L20.49 12.66C20.51 14.67 19.77 16.62 18.43 18.15C17.81 18.86 17.02 19.46 16.01 20L12.44 21.9C12.33 21.96 12.21 21.99 12.08 22Z" fill="#212121" fill-opacity="1.000000" fill-rule="nonzero"/>
		</g>
		<path id="Fill 4" d="M11.31 14.32C11.12 14.32 10.93 14.25 10.78 14.1L8.86 12.26C8.57 11.97 8.56 11.51 8.86 11.22C9.15 10.93 9.63 10.93 9.92 11.21L11.3 12.54L14.67 9.22C14.96 8.93 15.44 8.93 15.74 9.21C16.04 9.5 16.04 9.96 15.75 10.25L11.85 14.1C11.7 14.24 11.51 14.31 11.31 14.32Z" fill="#212121" fill-opacity="1.000000" fill-rule="nonzero"/>
	</g>
</svg>
