<svg width="24.000000" height="24.000000" viewBox="0 0 24 24" fill="none" xmlns="http://www.w3.org/2000/svg" xmlns:xlink="http://www.w3.org/1999/xlink">
	<desc>
			Created with Pixso.
	</desc>
	<defs>
		<clipPath id="clip430_9688">
			<rect id="Iconly/Bulk/Password" width="24.000000" height="24.000000" fill="white" fill-opacity="0"/>
		</clipPath>
	</defs>
	<rect id="Iconly/Bulk/Password" width="24.000000" height="24.000000" fill="#FFFFFF" fill-opacity="0"/>
	<g clip-path="url(#clip430_9688)">
		<g opacity="0.400000" style="mix-blend-mode:normal">
			<path id="Fill 1" d="M16.33 1.99L7.66 1.99C4.27 1.99 2 4.37 2 7.91L2 16.08C2 19.62 4.27 21.99 7.66 21.99L16.33 21.99C19.72 21.99 22 19.62 22 16.08L22 7.91C22 4.37 19.72 1.99 16.33 1.99Z" fill="#212121" fill-opacity="1.000000" fill-rule="nonzero"/>
		</g>
		<path id="Combined Shape" d="M17.0142 11.2488L11.3142 11.2488C10.9941 10.1787 10.0142 9.39868 8.84424 9.39868C7.40405 9.39868 6.23413 10.5686 6.23413 11.9988C6.23413 13.4387 7.40405 14.5986 8.84424 14.5986C10.0142 14.5986 10.9941 13.8186 11.3142 12.7488L13.4341 12.7488L13.4341 13.8486C13.4341 14.2688 13.7642 14.5986 14.1841 14.5986C14.5942 14.5986 14.9341 14.2688 14.9341 13.8486L14.9341 12.7488L16.2642 12.7488L16.2642 13.8486C16.2642 14.2688 16.5942 14.5986 17.0142 14.5986C17.4241 14.5986 17.7642 14.2688 17.7642 13.8486L17.7642 11.9988C17.7642 11.5886 17.4241 11.2488 17.0142 11.2488ZM7.73413 11.9988C7.73413 12.6086 8.23413 13.0986 8.84424 13.0986C9.44409 13.0986 9.94409 12.6086 9.94409 11.9988C9.94409 11.3887 9.44409 10.8987 8.84424 10.8987C8.23413 10.8987 7.73413 11.3887 7.73413 11.9988Z" clip-rule="evenodd" fill="#212121" fill-opacity="1.000000" fill-rule="evenodd"/>
	</g>
</svg>
