<svg width="24.000000" height="24.000000" viewBox="0 0 24 24" fill="none" xmlns="http://www.w3.org/2000/svg" xmlns:xlink="http://www.w3.org/1999/xlink">
	<desc>
			Created with Pixso.
	</desc>
	<defs>
		<clipPath id="clip430_9599">
			<rect id="Iconly/Bulk/Shield Fail" width="24.000000" height="24.000000" fill="white" fill-opacity="0"/>
		</clipPath>
	</defs>
	<rect id="Iconly/Bulk/Shield Fail" width="24.000000" height="24.000000" fill="#FFFFFF" fill-opacity="0"/>
	<g clip-path="url(#clip430_9599)">
		<g opacity="0.400000" style="mix-blend-mode:normal">
			<path id="Fill 1" d="M12.08 22C11.96 22 11.83 21.97 11.72 21.91L8.12 20.04C7.1 19.52 6.3 18.92 5.68 18.23C4.31 16.71 3.55 14.77 3.54 12.76L3.5 6.12C3.49 5.35 3.98 4.67 4.72 4.41L11.33 2.1C11.73 1.96 12.17 1.96 12.57 2.09L19.2 4.32C19.95 4.57 20.45 5.25 20.45 6.02L20.49 12.66C20.51 14.67 19.78 16.62 18.43 18.15C17.81 18.86 17.02 19.46 16.01 20L12.44 21.9C12.33 21.96 12.2 21.99 12.08 22Z" fill="#212121" fill-opacity="1.000000" fill-rule="nonzero"/>
		</g>
		<path id="Fill 4" d="M13.06 11.72L14.42 10.4C14.72 10.11 14.72 9.64 14.42 9.36C14.13 9.07 13.65 9.07 13.35 9.36L11.99 10.68L10.64 9.36C10.34 9.07 9.86 9.07 9.57 9.36C9.27 9.64 9.27 10.11 9.57 10.4L10.93 11.72L9.57 13.04C9.27 13.33 9.27 13.79 9.57 14.08C9.72 14.23 9.91 14.3 10.1 14.3C10.3 14.3 10.49 14.23 10.64 14.08L11.99 12.76L13.35 14.08C13.5 14.23 13.69 14.3 13.89 14.3C14.08 14.3 14.27 14.23 14.42 14.08C14.72 13.79 14.72 13.33 14.42 13.04L13.06 11.72Z" fill="#212121" fill-opacity="1.000000" fill-rule="nonzero"/>
	</g>
</svg>
