<svg width="24.000000" height="24.000000" viewBox="0 0 24 24" fill="none" xmlns="http://www.w3.org/2000/svg" xmlns:xlink="http://www.w3.org/1999/xlink">
	<desc>
			Created with Pixso.
	</desc>
	<defs>
		<clipPath id="clip430_9884">
			<rect id="Iconly/Bulk/Bag" width="24.000000" height="24.000000" fill="white" fill-opacity="0"/>
		</clipPath>
	</defs>
	<rect id="Iconly/Bulk/Bag" width="24.000000" height="24.000000" fill="#FFFFFF" fill-opacity="0"/>
	<g clip-path="url(#clip430_9884)">
		<path id="Combined Shape" d="M20.1443 10.1201L20.9133 16.3147C21.479 20.3535 19.2075 22 16.1584 22L7.86841 22C4.81055 22 2.46851 20.863 3.10498 16.3147L3.88257 10.1201C4.28027 7.84595 5.65015 7 6.93164 7L17.0864 7C18.3503 7 19.676 7.90967 20.1443 10.1201ZM9.09692 12.1487C8.60889 12.1487 8.21313 11.7412 8.21313 11.239C8.21313 10.7366 8.60889 10.3293 9.09692 10.3293C9.58521 10.3293 9.98071 10.7366 9.98071 11.239C9.98071 11.7412 9.58521 12.1487 9.09692 12.1487ZM14.002 11.239C14.002 11.7412 14.3977 12.1487 14.8857 12.1487C15.374 12.1487 15.7695 11.7412 15.7695 11.239C15.7695 10.7366 15.374 10.3293 14.8857 10.3293C14.3977 10.3293 14.002 10.7366 14.002 11.239Z" clip-rule="evenodd" fill="#212121" fill-opacity="1.000000" fill-rule="evenodd"/>
		<g opacity="0.400000" style="mix-blend-mode:normal">
			<path id="Path_34167" d="M16.97 6.77C16.97 6.85 16.96 6.92 16.93 7L15.49 7C15.46 6.92 15.45 6.85 15.44 6.77C15.44 4.85 13.88 3.3 11.96 3.3C10.04 3.3 8.48 4.85 8.48 6.77C8.49 6.84 8.49 6.92 8.48 7L7.01 7C6.99 6.92 6.99 6.84 7.01 6.77C7.12 4.1 9.32 2 12 2C14.68 2 16.88 4.1 17 6.77L16.97 6.77Z" fill="#212121" fill-opacity="1.000000" fill-rule="nonzero"/>
		</g>
	</g>
</svg>
