<svg width="24.000000" height="24.000000" viewBox="0 0 24 24" fill="none" xmlns="http://www.w3.org/2000/svg" xmlns:xlink="http://www.w3.org/1999/xlink">
	<desc>
			Created with Pixso.
	</desc>
	<defs>
		<clipPath id="clip430_9726">
			<rect id="Iconly/Bulk/Document" width="24.000000" height="24.000000" fill="white" fill-opacity="0"/>
		</clipPath>
	</defs>
	<rect id="Iconly/Bulk/Document" width="24.000000" height="24.000000" fill="#FFFFFF" fill-opacity="0"/>
	<g clip-path="url(#clip430_9726)">
		<g opacity="0.400000" style="mix-blend-mode:normal">
			<path id="Path" d="M16.19 2L7.81 2C4.77 2 3 3.78 3 6.83L3 17.15C3 20.26 4.77 22 7.81 22L16.19 22C19.28 22 21 20.26 21 17.15L21 6.83C21 3.78 19.28 2 16.19 2Z" fill="#212121" fill-opacity="1.000000" fill-rule="nonzero"/>
		</g>
		<path id="Combined Shape" d="M8.08008 6.6499L8.08008 6.65991C7.64893 6.65991 7.30005 7.01001 7.30005 7.43994C7.30005 7.86987 7.64893 8.21997 8.08008 8.21997L11.0688 8.21997C11.5 8.21997 11.8499 7.86987 11.8499 7.42896C11.8499 7 11.5 6.6499 11.0688 6.6499L8.08008 6.6499ZM15.9199 12.74L8.08008 12.74C7.64893 12.74 7.30005 12.3899 7.30005 11.96C7.30005 11.5298 7.64893 11.179 8.08008 11.179L15.9199 11.179C16.3499 11.179 16.7 11.5298 16.7 11.96C16.7 12.3899 16.3499 12.74 15.9199 12.74ZM15.9199 17.3098L8.08008 17.3098C7.78003 17.3499 7.48999 17.2 7.33008 16.95C7.16992 16.6899 7.16992 16.3599 7.33008 16.1099C7.48999 15.8499 7.78003 15.71 8.08008 15.74L15.9199 15.74C16.3188 15.7798 16.6199 16.1199 16.6199 16.5298C16.6199 16.929 16.3188 17.27 15.9199 17.3098Z" clip-rule="evenodd" fill="#212121" fill-opacity="1.000000" fill-rule="evenodd"/>
	</g>
</svg>
