<svg width="24.000000" height="24.000000" viewBox="0 0 24 24" fill="none" xmlns="http://www.w3.org/2000/svg" xmlns:xlink="http://www.w3.org/1999/xlink">
	<desc>
			Created with Pixso.
	</desc>
	<defs>
		<clipPath id="clip430_9706">
			<rect id="Iconly/Bulk/Delete" width="24.000000" height="24.000000" fill="white" fill-opacity="0"/>
		</clipPath>
	</defs>
	<rect id="Iconly/Bulk/Delete" width="24.000000" height="24.000000" fill="#FFFFFF" fill-opacity="0"/>
	<g clip-path="url(#clip430_9706)">
		<g opacity="0.400000" style="mix-blend-mode:normal">
			<path id="Fill 1" d="M19.64 9.48C19.64 9.55 19.11 16.29 18.8 19.13C18.61 20.87 17.49 21.93 15.8 21.96C14.51 21.99 13.24 22 12 22C10.68 22 9.38 21.99 8.13 21.96C6.5 21.92 5.38 20.84 5.2 19.13C4.88 16.28 4.36 9.55 4.35 9.48C4.34 9.28 4.41 9.08 4.54 8.93C4.67 8.78 4.86 8.69 5.06 8.69L18.93 8.69C19.13 8.69 19.31 8.78 19.46 8.93C19.59 9.08 19.66 9.28 19.64 9.48Z" fill="#212121" fill-opacity="1.000000" fill-rule="nonzero"/>
		</g>
		<path id="Fill 4" d="M21 5.97C21 5.56 20.67 5.24 20.28 5.24L17.37 5.24C16.77 5.24 16.26 4.82 16.13 4.22L15.96 3.49C15.73 2.61 14.94 2 14.06 2L9.93 2C9.04 2 8.26 2.61 8.02 3.54L7.87 4.22C7.73 4.82 7.22 5.24 6.62 5.24L3.71 5.24C3.32 5.24 3 5.56 3 5.97L3 6.35C3 6.75 3.32 7.08 3.71 7.08L20.28 7.08C20.67 7.08 21 6.75 21 6.35L21 5.97Z" fill="#212121" fill-opacity="1.000000" fill-rule="nonzero"/>
	</g>
</svg>
