<svg width="24.000000" height="24.000000" viewBox="0 0 24 24" fill="none" xmlns="http://www.w3.org/2000/svg" xmlns:xlink="http://www.w3.org/1999/xlink">
	<desc>
			Created with Pixso.
	</desc>
	<defs>
		<clipPath id="clip430_9591">
			<rect id="Iconly/Bulk/Play" width="24.000000" height="24.000000" fill="white" fill-opacity="0"/>
		</clipPath>
	</defs>
	<rect id="Iconly/Bulk/Play" width="24.000000" height="24.000000" fill="#FFFFFF" fill-opacity="0"/>
	<g clip-path="url(#clip430_9591)">
		<g opacity="0.400000" style="mix-blend-mode:normal">
			<path id="Fill 1" d="M22 12C22 17.51 17.51 22 12 22C6.48 22 2 17.51 2 12C2 6.48 6.48 2 12 2C17.51 2 22 6.48 22 12Z" fill="#212121" fill-opacity="1.000000" fill-rule="nonzero"/>
		</g>
		<path id="Fill 4" d="M16 12C16 12.25 15.92 12.51 15.76 12.71C15.73 12.75 15.59 12.91 15.48 13.02L15.42 13.08C14.58 13.96 12.51 15.3 11.45 15.72C11.45 15.73 10.82 15.99 10.53 16L10.49 16C10.03 16 9.6 15.74 9.38 15.34C9.26 15.11 9.15 14.46 9.14 14.45C9.05 13.87 9 12.97 9 11.99C9 10.96 9.05 10.03 9.16 9.45C9.16 9.44 9.27 8.92 9.34 8.74C9.45 8.49 9.65 8.28 9.9 8.14C10.1 8.04 10.31 8 10.53 8C10.76 8.01 11.18 8.15 11.35 8.22C12.47 8.65 14.59 10.05 15.41 10.9C15.55 11.04 15.7 11.2 15.74 11.24C15.91 11.46 16 11.72 16 12Z" fill="#212121" fill-opacity="1.000000" fill-rule="nonzero"/>
	</g>
</svg>
