<svg width="24.000000" height="24.000000" viewBox="0 0 24 24" fill="none" xmlns="http://www.w3.org/2000/svg" xmlns:xlink="http://www.w3.org/1999/xlink">
	<desc>
			Created with Pixso.
	</desc>
	<defs>
		<clipPath id="clip430_9497">
			<rect id="Iconly/Bulk/Arrow - Right" width="24.000000" height="24.000000" fill="white" fill-opacity="0"/>
		</clipPath>
	</defs>
	<rect id="Iconly/Bulk/Arrow - Right" width="24.000000" height="24.000000" fill="#FFFFFF" fill-opacity="0"/>
	<g clip-path="url(#clip430_9497)">
		<rect id="Iconly/Bulk/Arrow - Right" width="24.000000" height="24.000000" fill="#FFFFFF" fill-opacity="0"/>
		<g opacity="0.400000" style="mix-blend-mode:normal">
			<path id="Fill 1" d="M8.2 13.19L4.5 13.51C3.67 13.51 3 12.83 3 11.99C3 11.16 3.67 10.48 4.5 10.48L8.2 10.8C8.85 10.8 9.38 11.34 9.38 11.99C9.38 12.65 8.85 13.19 8.2 13.19Z" fill="#212121" fill-opacity="1.000000" fill-rule="nonzero"/>
		</g>
		<path id="Fill 4" d="M20.62 13.13C20.56 13.18 20.35 13.43 20.14 13.64C18.96 14.92 15.87 17.02 14.25 17.66C14.01 17.76 13.39 17.98 13.05 18C12.74 18 12.43 17.92 12.14 17.78C11.78 17.57 11.49 17.25 11.34 16.87C11.23 16.61 11.07 15.82 11.07 15.81C10.92 14.95 10.83 13.55 10.83 12C10.83 10.53 10.92 9.19 11.05 8.31C11.06 8.3 11.22 7.32 11.39 6.99C11.71 6.37 12.33 6 13 6L13.05 6C13.49 6.01 14.4 6.39 14.4 6.4C15.93 7.04 18.94 9.04 20.16 10.37C20.16 10.37 20.5 10.71 20.65 10.92C20.88 11.23 21 11.61 21 11.99C21 12.41 20.87 12.8 20.62 13.13Z" fill="#212121" fill-opacity="1.000000" fill-rule="nonzero"/>
	</g>
</svg>
