<svg width="24.000000" height="24.000000" viewBox="0 0 24 24" fill="none" xmlns="http://www.w3.org/2000/svg" xmlns:xlink="http://www.w3.org/1999/xlink">
	<desc>
			Created with Pixso.
	</desc>
	<defs>
		<clipPath id="clip430_9961">
			<rect id="Iconly/Bulk/Message" width="24.000000" height="24.000000" fill="white" fill-opacity="0"/>
		</clipPath>
	</defs>
	<rect id="Iconly/Bulk/Message" width="24.000000" height="24.000000" fill="#FFFFFF" fill-opacity="0"/>
	<g clip-path="url(#clip430_9961)">
		<g opacity="0.400000" style="mix-blend-mode:normal">
			<path id="Fill 1" d="M22 15.94C22 18.73 19.76 20.99 16.96 21L16.95 21L7.05 21C4.27 21 2 18.75 2 15.96L2 15.95C2 15.95 2 11.52 2.01 9.29C2.01 8.88 2.49 8.64 2.82 8.9C5.19 10.79 9.44 14.22 9.5 14.27C10.21 14.84 11.11 15.16 12.03 15.16C12.95 15.16 13.85 14.84 14.56 14.26C14.61 14.22 18.76 10.89 21.17 8.97C21.5 8.71 21.98 8.95 21.99 9.36C22 11.57 22 15.94 22 15.94Z" fill="#212121" fill-opacity="1.000000" fill-rule="nonzero"/>
		</g>
		<path id="Fill 4" d="M21.47 5.67C20.6 4.04 18.9 2.99 17.02 2.99L7.04 2.99C5.17 2.99 3.46 4.04 2.6 5.67C2.4 6.03 2.5 6.49 2.82 6.75L10.25 12.69C10.76 13.11 11.39 13.31 12.02 13.31C12.03 13.31 12.03 13.31 12.03 13.31C12.04 13.31 12.04 13.31 12.04 13.31C12.67 13.31 13.3 13.11 13.82 12.69L21.25 6.75C21.57 6.49 21.66 6.03 21.47 5.67Z" fill="#212121" fill-opacity="1.000000" fill-rule="nonzero"/>
	</g>
</svg>
