<svg width="24.000000" height="24.000000" viewBox="0 0 24 24" fill="none" xmlns="http://www.w3.org/2000/svg" xmlns:xlink="http://www.w3.org/1999/xlink">
	<desc>
			Created with Pixso.
	</desc>
	<defs>
		<clipPath id="clip430_9741">
			<rect id="Iconly/Bulk/Camera" width="24.000000" height="24.000000" fill="white" fill-opacity="0"/>
		</clipPath>
	</defs>
	<rect id="Iconly/Bulk/Camera" width="24.000000" height="24.000000" fill="#FFFFFF" fill-opacity="0"/>
	<g clip-path="url(#clip430_9741)">
		<path id="Combined Shape" d="M16.71 10.072C16.71 10.5715 17.1099 10.9712 17.6099 10.9712C18.1099 10.9712 18.52 10.5715 18.52 10.072C18.52 9.57251 18.1099 9.16309 17.6099 9.16309C17.1099 9.16309 16.71 9.57251 16.71 10.072ZM12 17.2539C13.0801 17.2539 14.0601 16.8145 14.77 16.1052C15.48 15.396 15.9199 14.4172 15.9299 13.3284C15.9299 12.2896 15.52 11.3005 14.78 10.5515C14.04 9.81226 13.05 9.40283 12 9.40283C10.95 9.40283 9.95996 9.81226 9.20996 10.5615C8.46997 11.3105 8.06006 12.2896 8.07007 13.3284C8.07007 14.3772 8.47998 15.3562 9.21997 16.1052C9.96997 16.8445 10.95 17.2539 12 17.2539ZM12 10.9011C11.3501 10.9011 10.74 11.1509 10.27 11.6204C9.81006 12.0798 9.56006 12.689 9.57007 13.3184L9.57007 13.3284C9.57007 13.9775 9.82007 14.5869 10.28 15.0464C10.74 15.5059 11.3501 15.7556 12 15.7556C13.3401 15.7556 14.4199 14.667 14.4299 13.3284C14.4299 12.6792 14.1799 12.0698 13.72 11.6104C13.26 11.1509 12.6499 10.9011 12 10.9011Z" clip-rule="evenodd" fill="#212121" fill-opacity="1.000000" fill-rule="evenodd"/>
		<g opacity="0.400000" style="mix-blend-mode:normal">
			<path id="Path" d="M17.43 6.23L17.34 6.01C17.07 5.44 16.76 4.78 16.57 4.4C16.11 3.5 15.32 3.01 14.35 3L9.63 3C8.66 3.01 7.88 3.5 7.42 4.4C7.22 4.8 6.88 5.52 6.61 6.11L6.55 6.23C6.52 6.31 6.43 6.35 6.36 6.35C3.94 6.35 2 8.31 2 10.71L2 16.64C2 19.04 3.94 21 6.36 21L17.63 21C20.04 21 22 19.04 22 16.64L22 10.71C22 8.31 20.04 6.35 17.63 6.35C17.54 6.35 17.48 6.3 17.43 6.23Z" fill="#212121" fill-opacity="1.000000" fill-rule="nonzero"/>
		</g>
	</g>
</svg>
