<svg width="24.000000" height="24.000000" viewBox="0 0 24 24" fill="none" xmlns="http://www.w3.org/2000/svg" xmlns:xlink="http://www.w3.org/1999/xlink">
	<desc>
			Created with Pixso.
	</desc>
	<defs>
		<clipPath id="clip430_9665">
			<rect id="Iconly/Bulk/Login" width="24.000000" height="24.000000" fill="white" fill-opacity="0"/>
		</clipPath>
	</defs>
	<rect id="Iconly/Bulk/Login" width="24.000000" height="24.000000" fill="#FFFFFF" fill-opacity="0"/>
	<g clip-path="url(#clip430_9665)">
		<g opacity="0.400000" style="mix-blend-mode:normal">
			<path id="Fill 1" d="M7.29 6.44C7.29 3.99 9.35 2 11.88 2L16.91 2C19.44 2 21.5 3.98 21.5 6.43L21.5 17.55C21.5 20 19.44 22 16.9 22L11.87 22C9.35 22 7.29 20 7.29 17.56L7.29 16.62L7.29 6.44Z" fill="#212121" fill-opacity="1.000000" fill-rule="nonzero"/>
		</g>
		<path id="Fill 4" d="M16.03 11.45L13.06 8.54C12.76 8.24 12.26 8.24 11.96 8.54C11.65 8.84 11.65 9.33 11.96 9.63L13.59 11.22L3.28 11.22C2.85 11.22 2.5 11.57 2.5 11.99C2.5 12.42 2.85 12.76 3.28 12.76L13.59 12.76L11.96 14.36C11.65 14.66 11.65 15.14 11.96 15.45C12.11 15.6 12.31 15.67 12.51 15.67C12.71 15.67 12.91 15.6 13.06 15.45L16.03 12.54C16.18 12.39 16.26 12.2 16.26 11.99C16.26 11.79 16.18 11.59 16.03 11.45Z" fill="#212121" fill-opacity="1.000000" fill-rule="nonzero"/>
	</g>
</svg>
