<svg width="24.000000" height="24.000000" viewBox="0 0 24 24" fill="none" xmlns="http://www.w3.org/2000/svg" xmlns:xlink="http://www.w3.org/1999/xlink">
	<desc>
			Created with Pixso.
	</desc>
	<defs>
		<clipPath id="clip430_9673">
			<rect id="Iconly/Bulk/Logout" width="24.000000" height="24.000000" fill="white" fill-opacity="0"/>
		</clipPath>
	</defs>
	<rect id="Iconly/Bulk/Logout" width="24.000000" height="24.000000" fill="#FFFFFF" fill-opacity="0"/>
	<g clip-path="url(#clip430_9673)">
		<g opacity="0.400000" style="mix-blend-mode:normal">
			<path id="Fill 1" d="M2 6.44C2 3.99 4.03 2 6.52 2L11.48 2C13.97 2 16 3.98 16 6.43L16 17.55C16 20 13.96 22 11.47 22L6.51 22C4.02 22 2 20.01 2 17.56L2 16.62L2 6.44Z" fill="#212121" fill-opacity="1.000000" fill-rule="nonzero"/>
		</g>
		<path id="Fill 3" d="M21.77 11.45L18.93 8.54C18.63 8.24 18.16 8.24 17.87 8.54C17.58 8.84 17.58 9.33 17.87 9.63L19.43 11.22L17.93 11.22L9.54 11.22C9.13 11.22 8.79 11.57 8.79 11.99C8.79 12.42 9.13 12.76 9.54 12.76L19.43 12.76L17.87 14.36C17.58 14.66 17.58 15.14 17.87 15.45C18.01 15.6 18.21 15.67 18.4 15.67C18.59 15.67 18.78 15.6 18.93 15.45L21.77 12.54C21.92 12.4 22 12.2 22 11.99C22 11.79 21.92 11.59 21.77 11.45Z" fill="#212121" fill-opacity="1.000000" fill-rule="nonzero"/>
	</g>
</svg>
