<svg width="24.000000" height="24.000000" viewBox="0 0 24 24" fill="none" xmlns="http://www.w3.org/2000/svg" xmlns:xlink="http://www.w3.org/1999/xlink">
	<desc>
			Created with Pixso.
	</desc>
	<defs>
		<clipPath id="clip430_9710">
			<rect id="Iconly/Bulk/Chat" width="24.000000" height="24.000000" fill="white" fill-opacity="0"/>
		</clipPath>
	</defs>
	<rect id="Iconly/Bulk/Chat" width="24.000000" height="24.000000" fill="#FFFFFF" fill-opacity="0"/>
	<g clip-path="url(#clip430_9710)">
		<g opacity="0.400000" style="mix-blend-mode:normal">
			<path id="Fill 1" d="M12.02 2C6.2 2 2 6.73 2 12C2 13.67 2.48 15.4 3.35 16.99C3.51 17.25 3.53 17.58 3.41 17.88L2.75 20.12C2.6 20.66 3.06 21.07 3.57 20.9L5.59 20.31C6.13 20.12 6.57 20.36 7.08 20.66C8.54 21.53 10.36 21.97 12 21.97C16.95 21.97 22 18.13 22 11.97C22 6.64 17.7 2 12.02 2Z" fill="#212121" fill-opacity="1.000000" fill-rule="nonzero"/>
		</g>
		<path id="Combined Shape" d="M11.9805 13.29C11.2705 13.28 10.7004 12.7102 10.7004 12C10.7004 11.3 11.2805 10.7202 11.9805 10.7302C12.6904 10.7302 13.2605 11.3 13.2605 12.01C13.2605 12.7102 12.6904 13.29 11.9805 13.29ZM7.37012 13.29C6.67017 13.29 6.09009 12.7102 6.09009 12.01C6.09009 11.3 6.66016 10.7302 7.37012 10.7302C8.08008 10.7302 8.65015 11.3 8.65015 12.01C8.65015 12.7102 8.08008 13.28 7.37012 13.29ZM15.3103 12.01C15.3103 12.7102 15.8804 13.29 16.5903 13.29C17.3003 13.29 17.8704 12.7102 17.8704 12.01C17.8704 11.3 17.3003 10.7302 16.5903 10.7302C15.8804 10.7302 15.3103 11.3 15.3103 12.01Z" clip-rule="evenodd" fill="#212121" fill-opacity="1.000000" fill-rule="evenodd"/>
	</g>
</svg>
