<svg width="24.000000" height="24.000000" viewBox="0 0 24 24" fill="none" xmlns="http://www.w3.org/2000/svg" xmlns:xlink="http://www.w3.org/1999/xlink">
	<desc>
			Created with Pixso.
	</desc>
	<defs>
		<clipPath id="clip430_9702">
			<rect id="Iconly/Bulk/Voice 3" width="24.000000" height="24.000000" fill="white" fill-opacity="0"/>
		</clipPath>
	</defs>
	<rect id="Iconly/Bulk/Voice 3" width="24.000000" height="24.000000" fill="#FFFFFF" fill-opacity="0"/>
	<g clip-path="url(#clip430_9702)">
		<path id="Fill 1" d="M11.82 15.21L12.17 15.21C14.09 15.21 15.73 13.98 16.3 12.27C16.38 12.02 16.19 11.77 15.93 11.77L14.85 11.77C14.51 11.77 14.23 11.49 14.23 11.15C14.23 10.82 14.51 10.54 14.85 10.54L15.9 10.54C16.24 10.54 16.52 10.27 16.52 9.92C16.52 9.58 16.24 9.31 15.9 9.31L14.85 9.31C14.51 9.31 14.23 9.03 14.23 8.69C14.23 8.35 14.51 8.08 14.85 8.08L15.9 8.08C16.24 8.08 16.52 7.8 16.52 7.46C16.52 7.12 16.24 6.84 15.9 6.84L14.85 6.84C14.51 6.84 14.23 6.57 14.23 6.23C14.23 5.89 14.51 5.62 14.85 5.62L15.98 5.62C16.24 5.62 16.43 5.37 16.36 5.13C15.85 3.32 14.16 2 12.17 2L11.82 2C9.42 2 7.47 3.92 7.47 6.29L7.47 10.91C7.47 13.29 9.42 15.21 11.82 15.21Z" fill="#212121" fill-opacity="1.000000" fill-rule="nonzero"/>
		<g opacity="0.400000" style="mix-blend-mode:normal">
			<path id="Fill 3" d="M19.53 9.82C18.99 9.82 18.56 10.25 18.56 10.78C18.56 14.35 15.61 17.26 12 17.26C8.38 17.26 5.43 14.35 5.43 10.78C5.43 10.25 5 9.82 4.46 9.82C3.93 9.82 3.5 10.25 3.5 10.78C3.5 15.08 6.79 18.64 11.03 19.11L11.03 21.04C11.03 21.57 11.46 22 12 22C12.53 22 12.96 21.57 12.96 21.04L12.96 19.11C17.2 18.64 20.5 15.08 20.5 10.78C20.5 10.25 20.06 9.82 19.53 9.82Z" fill="#212121" fill-opacity="1.000000" fill-rule="nonzero"/>
		</g>
	</g>
</svg>
