<svg width="24.000000" height="24.000000" viewBox="0 0 24 24" fill="none" xmlns="http://www.w3.org/2000/svg" xmlns:xlink="http://www.w3.org/1999/xlink">
	<desc>
			Created with Pixso.
	</desc>
	<defs>
		<clipPath id="clip430_9871">
			<rect id="Iconly/Bulk/Chart" width="24.000000" height="24.000000" fill="white" fill-opacity="0"/>
		</clipPath>
	</defs>
	<rect id="Iconly/Bulk/Chart" width="24.000000" height="24.000000" fill="#FFFFFF" fill-opacity="0"/>
	<g clip-path="url(#clip430_9871)">
		<g opacity="0.400000" style="mix-blend-mode:normal">
			<path id="Fill 1" d="M16.67 2L7.33 2C3.92 2 2 3.92 2 7.33L2 16.66C2 20.07 3.92 22 7.33 22L16.67 22C20.08 22 22 20.07 22 16.66L22 7.33C22 3.92 20.08 2 16.67 2Z" fill="#212121" fill-opacity="1.000000" fill-rule="nonzero"/>
		</g>
		<path id="Fill 4" d="M7.36 9.36C6.91 9.36 6.54 9.74 6.54 10.2L6.54 17.07C6.54 17.52 6.91 17.9 7.36 17.9C7.83 17.9 8.2 17.52 8.2 17.07L8.2 10.2C8.2 9.74 7.83 9.36 7.36 9.36Z" fill="#212121" fill-opacity="1.000000" fill-rule="nonzero"/>
		<path id="Fill 6" d="M12.03 6.08C11.58 6.08 11.2 6.46 11.2 6.92L11.2 17.07C11.2 17.52 11.58 17.9 12.03 17.9C12.49 17.9 12.87 17.52 12.87 17.07L12.87 6.92C12.87 6.46 12.49 6.08 12.03 6.08Z" fill="#212121" fill-opacity="1.000000" fill-rule="nonzero"/>
		<path id="Fill 8" d="M16.63 12.99C16.17 12.99 15.8 13.36 15.8 13.83L15.8 17.07C15.8 17.52 16.17 17.9 16.63 17.9C17.09 17.9 17.46 17.52 17.46 17.07L17.46 13.83C17.46 13.36 17.09 12.99 16.63 12.99Z" fill="#212121" fill-opacity="1.000000" fill-rule="nonzero"/>
	</g>
</svg>
