<svg width="24.000000" height="24.000000" viewBox="0 0 24 24" fill="none" xmlns="http://www.w3.org/2000/svg" xmlns:xlink="http://www.w3.org/1999/xlink">
	<desc>
			Created with Pixso.
	</desc>
	<defs>
		<clipPath id="clip430_9877">
			<rect id="Iconly/Bulk/Category" width="24.000000" height="24.000000" fill="white" fill-opacity="0"/>
		</clipPath>
	</defs>
	<rect id="Iconly/Bulk/Category" width="24.000000" height="24.000000" fill="#FFFFFF" fill-opacity="0"/>
	<g clip-path="url(#clip430_9877)">
		<g opacity="0.400000" style="mix-blend-mode:normal">
			<path id="Fill 1" d="M16.07 2L19.46 2C20.86 2 22 3.14 22 4.56L22 7.97C22 9.38 20.86 10.53 19.46 10.53L16.07 10.53C14.67 10.53 13.53 9.38 13.53 7.97L13.53 4.56C13.53 3.14 14.67 2 16.07 2Z" fill="#212121" fill-opacity="1.000000" fill-rule="nonzero"/>
		</g>
		<path id="Combined Shape" d="M4.53857 2L7.92456 2C9.32666 2 10.4631 3.14575 10.4631 4.56006L10.4631 7.97461C10.4631 9.38867 9.32666 10.5344 7.92456 10.5344L4.53857 10.5344C3.13623 10.5344 2 9.38867 2 7.97461L2 4.56006C2 3.14575 3.13623 2 4.53857 2ZM4.53857 13.4656L7.92456 13.4656C9.32666 13.4656 10.4631 14.6113 10.4631 16.0254L10.4631 19.4399C10.4631 20.8533 9.32666 22 7.92456 22L4.53857 22C3.13623 22 2 20.8533 2 19.4399L2 16.0254C2 14.6113 3.13623 13.4656 4.53857 13.4656ZM19.4614 13.4656L16.0754 13.4656C14.6733 13.4656 13.5369 14.6113 13.5369 16.0254L13.5369 19.4399C13.5369 20.8533 14.6733 22 16.0754 22L19.4614 22C20.8638 22 22 20.8533 22 19.4399L22 16.0254C22 14.6113 20.8638 13.4656 19.4614 13.4656Z" clip-rule="evenodd" fill="#212121" fill-opacity="1.000000" fill-rule="evenodd"/>
	</g>
</svg>
