<svg width="24.000000" height="24.000000" viewBox="0 0 24 24" fill="none" xmlns="http://www.w3.org/2000/svg" xmlns:xlink="http://www.w3.org/1999/xlink">
	<desc>
			Created with Pixso.
	</desc>
	<defs>
		<clipPath id="clip430_9587">
			<rect id="Iconly/Bulk/Edit Square" width="24.000000" height="24.000000" fill="white" fill-opacity="0"/>
		</clipPath>
	</defs>
	<rect id="Iconly/Bulk/Edit Square" width="24.000000" height="24.000000" fill="#FFFFFF" fill-opacity="0"/>
	<g clip-path="url(#clip430_9587)">
		<g opacity="0.400000" style="mix-blend-mode:normal">
			<path id="Fill 1" d="M16.66 21.98L7.33 21.98C5.88 22.07 4.46 21.57 3.39 20.6C2.42 19.53 1.92 18.11 2.01 16.66L2.01 7.33C1.92 5.88 2.42 4.46 3.39 3.39C4.46 2.42 5.88 1.92 7.33 2.01L16.66 2.01C18.1 1.92 19.52 2.42 20.59 3.39C21.57 4.46 22.07 5.88 21.99 7.33L21.99 16.66C22.07 18.11 21.57 19.53 20.6 20.6C19.53 21.57 18.11 22.07 16.66 21.98Z" fill="#212121" fill-opacity="1.000000" fill-rule="nonzero"/>
		</g>
		<path id="Fill 4" d="M17.05 10.39L10.5 16.98C10.16 17.31 9.71 17.5 9.24 17.5L6.95 17.5C6.83 17.5 6.71 17.45 6.62 17.36C6.53 17.27 6.5 17.15 6.5 17.03L6.55 14.71C6.56 14.26 6.75 13.83 7.07 13.5L11.71 8.85C11.79 8.77 11.93 8.77 12.01 8.85L13.63 10.47C13.74 10.58 13.9 10.65 14.06 10.65C14.42 10.65 14.71 10.36 14.71 10.01C14.71 9.83 14.64 9.67 14.53 9.56C14.5 9.52 12.95 7.97 12.95 7.97C12.85 7.88 12.85 7.71 12.95 7.61L13.6 6.95C14.21 6.34 15.18 6.34 15.78 6.95L17.05 8.22C17.64 8.81 17.64 9.79 17.05 10.39Z" fill="#212121" fill-opacity="1.000000" fill-rule="nonzero"/>
	</g>
</svg>
