<svg width="24.000000" height="24.000000" viewBox="0 0 24 24" fill="none" xmlns="http://www.w3.org/2000/svg" xmlns:xlink="http://www.w3.org/1999/xlink">
	<desc>
			Created with Pixso.
	</desc>
	<defs>
		<clipPath id="clip430_9511">
			<rect id="Iconly/Bulk/Arrow - Up 2" width="24.000000" height="24.000000" fill="white" fill-opacity="0"/>
		</clipPath>
	</defs>
	<rect id="Iconly/Bulk/Arrow - Up 2" width="24.000000" height="24.000000" fill="#FFFFFF" fill-opacity="0"/>
	<g clip-path="url(#clip430_9511)">
		<rect id="Iconly/Bulk/Arrow - Up 2" width="24.000000" height="24.000000" fill="#FFFFFF" fill-opacity="0"/>
		<path id="Fill 1" d="M13.13 16.78L8.91 9.93C8.81 9.78 8.82 9.58 8.93 9.44C9.44 8.79 9.94 8.21 10.37 7.82C10.37 7.82 10.71 7.49 10.93 7.34C11.23 7.11 11.61 7 11.99 7C12.41 7 12.81 7.12 13.13 7.36C13.19 7.42 13.44 7.63 13.64 7.83C14.92 9 17.03 12.05 17.66 13.65C17.77 13.89 17.98 14.51 18 14.83C18 15.15 17.93 15.45 17.78 15.74C17.57 16.09 17.26 16.37 16.88 16.53C16.62 16.63 15.83 16.78 15.81 16.78C15.25 16.88 14.46 16.96 13.54 16.99C13.37 17 13.21 16.92 13.13 16.78Z" fill="#212121" fill-opacity="1.000000" fill-rule="nonzero"/>
		<g opacity="0.400000" style="mix-blend-mode:normal">
			<path id="Fill 4" d="M10.86 16.32C11.04 16.62 10.8 17 10.44 16.99C9.6 16.95 8.86 16.89 8.31 16.82C8.3 16.8 7.32 16.65 6.99 16.47C6.37 16.16 6 15.55 6 14.89L6 14.83C6.01 14.41 6.38 13.51 6.41 13.51C6.59 13.05 6.91 12.46 7.3 11.82C7.47 11.54 7.9 11.53 8.08 11.82L10.86 16.32Z" fill="#212121" fill-opacity="1.000000" fill-rule="nonzero"/>
		</g>
	</g>
</svg>
