<svg width="24.000000" height="24.000000" viewBox="0 0 24 24" fill="none" xmlns="http://www.w3.org/2000/svg" xmlns:xlink="http://www.w3.org/1999/xlink">
	<desc>
			Created with Pixso.
	</desc>
	<defs>
		<clipPath id="clip430_9944">
			<rect id="Iconly/Bulk/Activity" width="24.000000" height="24.000000" fill="white" fill-opacity="0"/>
		</clipPath>
	</defs>
	<rect id="Iconly/Bulk/Activity" width="24.000000" height="24.000000" fill="#FFFFFF" fill-opacity="0"/>
	<g clip-path="url(#clip430_9944)">
		<path id="Path_34168" d="M19.2703 8.75903C17.0459 8.75903 15.2427 6.9585 15.2427 4.73755C15.2422 4.48999 15.2659 4.24292 15.3132 4L7.34644 4C3.97852 4 2 6.00195 2 9.3562L2 16.6614C2 20.0156 3.97852 22 7.34644 22L14.6624 22C18.0215 22 20 20.0156 20 16.6614L20 8.68872C19.7593 8.73438 19.5151 8.75781 19.2703 8.75903ZM13.1499 14.8965L16.0078 11.2087L16.0078 11.1912C16.2524 10.8625 16.1899 10.3989 15.8672 10.1462C15.7109 10.0256 15.5122 9.97339 15.3167 10.0015C15.1211 10.0298 14.9453 10.1357 14.8296 10.2957L12.4202 13.395L9.67651 11.2351C9.52002 11.113 9.3208 11.0593 9.12378 11.0857C8.927 11.1121 8.74902 11.2166 8.63013 11.3755L5.67554 15.1863C5.57178 15.3157 5.51587 15.4771 5.51733 15.6428C5.50024 15.978 5.71191 16.2827 6.03247 16.3838C6.35278 16.4849 6.70142 16.3574 6.88037 16.0732L9.35132 12.877L12.0947 15.0283C12.2507 15.1541 12.4514 15.2112 12.6504 15.1863C12.8494 15.1614 13.0298 15.0569 13.1499 14.8965Z" clip-rule="evenodd" fill="#212121" fill-opacity="1.000000" fill-rule="evenodd"/>
		<g opacity="0.400000" style="mix-blend-mode:normal">
			<circle id="Ellipse_742" cx="19.500000" cy="4.500000" r="2.500000" fill="#212121" fill-opacity="1.000000"/>
		</g>
	</g>
</svg>
