<svg width="24.000000" height="24.000000" viewBox="0 0 24 24" fill="none" xmlns="http://www.w3.org/2000/svg" xmlns:xlink="http://www.w3.org/1999/xlink">
	<desc>
			Created with Pixso.
	</desc>
	<defs>
		<clipPath id="clip430_9515">
			<rect id="Iconly/Bulk/Arrow - Left Circle" width="24.000000" height="24.000000" fill="white" fill-opacity="0"/>
		</clipPath>
	</defs>
	<rect id="Iconly/Bulk/Arrow - Left Circle" width="24.000000" height="24.000000" fill="#FFFFFF" fill-opacity="0"/>
	<g clip-path="url(#clip430_9515)">
		<rect id="Iconly/Bulk/Arrow - Left Circle" width="24.000000" height="24.000000" fill="#FFFFFF" fill-opacity="0"/>
		<g opacity="0.400000" style="mix-blend-mode:normal">
			<path id="Fill 1" d="M12 22C6.48 22 2 17.51 2 12C2 6.48 6.48 2 12 2C17.51 2 22 6.48 22 12C22 17.51 17.51 22 12 22Z" fill="#212121" fill-opacity="1.000000" fill-rule="nonzero"/>
		</g>
		<path id="Fill 4" d="M13.44 16.22C13.25 16.22 13.05 16.14 12.91 16L9.42 12.53C9.28 12.39 9.2 12.19 9.2 11.99C9.2 11.8 9.28 11.6 9.42 11.46L12.91 7.99C13.2 7.7 13.68 7.7 13.97 7.99C14.26 8.29 14.26 8.76 13.97 9.05L11.01 11.99L13.97 14.93C14.26 15.23 14.26 15.7 13.97 15.99C13.82 16.14 13.63 16.22 13.44 16.22Z" fill="#212121" fill-opacity="1.000000" fill-rule="nonzero"/>
	</g>
</svg>
