<svg width="24.000000" height="24.000000" viewBox="0 0 24 24" fill="none" xmlns="http://www.w3.org/2000/svg" xmlns:xlink="http://www.w3.org/1999/xlink">
	<desc>
			Created with Pixso.
	</desc>
	<defs>
		<clipPath id="clip430_9826">
			<rect id="Iconly/Bulk/Discount" width="24.000000" height="24.000000" fill="white" fill-opacity="0"/>
		</clipPath>
	</defs>
	<rect id="Iconly/Bulk/Discount" width="24.000000" height="24.000000" fill="#FFFFFF" fill-opacity="0"/>
	<g clip-path="url(#clip430_9826)">
		<g opacity="0.400000" style="mix-blend-mode:normal">
			<path id="Fill 1" d="M11.99 21.99C11.23 21.99 10.46 21.7 9.87 21.12L9.14 20.39C8.86 20.11 8.48 19.95 8.08 19.95L7.05 19.95C5.39 19.95 4.04 18.6 4.04 16.94L4.04 15.91C4.04 15.51 3.88 15.13 3.6 14.85L2.88 14.13C1.7 12.96 1.7 11.05 2.87 9.87L3.6 9.14C3.88 8.86 4.04 8.48 4.04 8.08L4.04 7.05C4.04 5.39 5.39 4.04 7.05 4.04L8.08 4.04C8.48 4.04 8.86 3.88 9.14 3.6L9.86 2.88C11.03 1.7 12.94 1.7 14.12 2.87L14.85 3.6C15.13 3.88 15.51 4.04 15.91 4.04L16.94 4.04C18.6 4.04 19.95 5.39 19.95 7.05L19.95 8.08C19.95 8.48 20.11 8.86 20.39 9.14L21.11 9.86C21.68 10.43 21.99 11.18 21.99 11.99C22 12.79 21.69 13.54 21.13 14.11C21.12 14.12 21.11 14.13 21.1 14.14L20.39 14.85C20.11 15.13 19.95 15.51 19.95 15.91L19.95 16.94C19.95 18.6 18.6 19.95 16.94 19.95L15.91 19.95C15.51 19.95 15.13 20.11 14.85 20.39L14.13 21.11C13.54 21.7 12.77 21.99 11.99 21.99Z" fill="#212121" fill-opacity="1.000000" fill-rule="nonzero"/>
		</g>
		<path id="Combined Shape" d="M10.0427 10.051C9.87769 10.2161 9.66382 10.3052 9.42676 10.3052C9.20483 10.3052 8.98682 10.2141 8.81177 10.05C8.64575 9.88501 8.55176 9.65918 8.55176 9.43018C8.55176 9.21216 8.6438 8.98804 8.80566 8.81519C8.89478 8.7251 9.00073 8.65698 9.10669 8.62109C9.40869 8.48315 9.80981 8.56396 10.0479 8.81396C10.1328 8.89917 10.1978 8.99219 10.2407 9.08911C10.2878 9.19312 10.3118 9.31104 10.3118 9.43018C10.3118 9.66797 10.2168 9.88916 10.0427 10.051ZM15.1904 8.81006C14.8494 8.46997 14.2944 8.46997 13.9534 8.81006L8.81348 13.95C8.47241 14.291 8.47241 14.8459 8.81348 15.188C8.97949 15.353 9.19849 15.4441 9.43237 15.4441C9.6665 15.4441 9.8855 15.353 10.0505 15.188L15.1904 10.0479C15.5315 9.70605 15.5315 9.15186 15.1904 8.81006ZM14.9058 13.7642C14.5818 13.6282 14.1978 13.7021 13.9417 13.958C13.8887 14.02 13.8137 14.116 13.7627 14.229C13.7087 14.3511 13.7017 14.4822 13.7017 14.5701C13.7017 14.658 13.7087 14.7881 13.7627 14.9102C13.8127 15.022 13.8728 15.113 13.9517 15.1921C14.1328 15.3601 14.3428 15.4451 14.5767 15.4451C14.7988 15.4451 15.0168 15.355 15.1958 15.188C15.3547 15.0291 15.4417 14.8091 15.4417 14.5701C15.4417 14.3301 15.3547 14.1111 15.1948 13.9512C15.1067 13.864 15.0007 13.7961 14.9058 13.7642Z" clip-rule="evenodd" fill="#212121" fill-opacity="1.000000" fill-rule="evenodd"/>
	</g>
</svg>
