<svg width="24.000000" height="24.000000" viewBox="0 0 24 24" fill="none" xmlns="http://www.w3.org/2000/svg" xmlns:xlink="http://www.w3.org/1999/xlink">
	<desc>
			Created with Pixso.
	</desc>
	<defs>
		<clipPath id="clip430_9562">
			<rect id="Iconly/Bulk/Paper Fail" width="24.000000" height="24.000000" fill="white" fill-opacity="0"/>
		</clipPath>
	</defs>
	<rect id="Iconly/Bulk/Paper Fail" width="24.000000" height="24.000000" fill="#FFFFFF" fill-opacity="0"/>
	<g clip-path="url(#clip430_9562)">
		<g opacity="0.400000" style="mix-blend-mode:normal">
			<path id="Fill 3" d="M18.8 9.02C18.35 9.02 17.75 9.01 17.01 9.01C15.19 9.01 13.7 7.5 13.7 5.67L13.7 2.45C13.7 2.2 13.5 2 13.25 2L7.96 2C5.49 2 3.5 4.02 3.5 6.5L3.5 17.28C3.5 19.88 5.59 22 8.17 22L16.04 22C18.5 22 20.5 19.98 20.5 17.5L20.5 9.47C20.5 9.21 20.29 9.01 20.04 9.01C19.62 9.01 19.11 9.02 18.8 9.02Z" fill="#212121" fill-opacity="1.000000" fill-rule="nonzero"/>
		</g>
		<g opacity="0.400000" style="mix-blend-mode:normal">
			<path id="Fill 1" d="M16.08 2.56C15.78 2.25 15.26 2.47 15.26 2.9L15.26 5.53C15.26 6.64 16.17 7.55 17.28 7.55C17.97 7.56 18.94 7.56 19.76 7.56C20.18 7.56 20.4 7.05 20.1 6.75C19.05 5.65 17.16 3.69 16.08 2.56Z" fill="#212121" fill-opacity="1.000000" fill-rule="nonzero"/>
		</g>
		<path id="Fill 6" d="M12.93 12.98L14.15 11.76C14.44 11.47 14.44 11 14.15 10.71C13.86 10.42 13.39 10.42 13.1 10.71L11.88 11.93L10.66 10.71C10.36 10.42 9.89 10.42 9.6 10.71C9.31 11 9.31 11.47 9.6 11.76L10.82 12.98L9.6 14.2C9.31 14.49 9.31 14.96 9.6 15.25C9.75 15.4 9.94 15.47 10.13 15.47C10.32 15.47 10.51 15.4 10.66 15.25L11.88 14.03L13.1 15.25C13.24 15.4 13.43 15.47 13.62 15.47C13.81 15.47 14.01 15.4 14.15 15.25C14.44 14.96 14.44 14.49 14.15 14.2L12.93 12.98Z" fill="#212121" fill-opacity="1.000000" fill-rule="nonzero"/>
	</g>
</svg>
