<svg width="24.000000" height="24.000000" viewBox="0 0 24 24" fill="none" xmlns="http://www.w3.org/2000/svg" xmlns:xlink="http://www.w3.org/1999/xlink">
	<desc>
			Created with Pixso.
	</desc>
	<defs>
		<clipPath id="clip430_9536">
			<rect id="Iconly/Bulk/Folder" width="24.000000" height="24.000000" fill="white" fill-opacity="0"/>
		</clipPath>
	</defs>
	<rect id="Iconly/Bulk/Folder" width="24.000000" height="24.000000" fill="#FFFFFF" fill-opacity="0"/>
	<g clip-path="url(#clip430_9536)">
		<g opacity="0.400000" style="mix-blend-mode:normal">
			<path id="Folder 2" d="M16.88 5.11L13.94 5.11C13.2 5.11 12.51 4.79 12.04 4.22L11.07 2.88C10.62 2.31 9.92 1.98 9.19 2L7.11 2C3.37 2 2 4.19 2 7.91L2 11.94C1.99 12.39 21.99 12.38 21.99 11.94L21.99 10.77C22.01 7.04 20.67 5.11 16.88 5.11Z" fill="#212121" fill-opacity="1.000000" fill-rule="nonzero"/>
		</g>
		<path id="Folder" d="M21.5613 7.8125C21.3994 7.3479 21.1521 6.91772 20.832 6.54346C20.7314 6.42529 20.6216 6.31567 20.5032 6.21533C19.4753 5.40674 18.1802 5.01392 16.8755 5.11499L7.09473 5.11499C4.76514 5.11499 3.34253 5.86914 2.64917 7.35107C2.41504 7.83105 2.25024 8.34204 2.16016 8.86841C2.16016 9.06348 2.0979 9.25879 2.07104 9.46289C2.02368 9.89893 1.99976 10.3374 2 10.7761L2 16.0293C1.99976 16.4722 2.0354 16.9143 2.10669 17.3513C2.21875 18.1238 2.48486 18.866 2.88916 19.5342C3.07349 19.8567 3.29736 20.1548 3.55591 20.4216C4.74463 21.5085 6.32056 22.0745 7.93066 21.9922L16.0574 21.9922C17.665 22.075 19.2383 21.509 20.4231 20.4216C20.6848 20.1553 20.9119 19.8572 21.0989 19.5342C21.5056 18.8655 21.7776 18.124 21.8992 17.3513C21.9629 16.9136 21.9956 16.4717 21.9968 16.0293L21.9968 10.7761C22.0273 9.77026 21.8799 8.76709 21.5613 7.8125ZM6.97021 15.5413L17.0532 15.5413C17.2742 15.5508 17.4895 15.4717 17.6516 15.3215C17.8137 15.1716 17.9087 14.9631 17.9158 14.7424C17.9282 14.5488 17.8645 14.3577 17.7378 14.2102C17.5923 14.0117 17.3618 13.8936 17.1155 13.8906L6.97021 13.8906C6.51367 13.8906 6.14331 14.2603 6.14331 14.7158C6.14331 15.1716 6.51367 15.5413 6.97021 15.5413Z" clip-rule="evenodd" fill="#212121" fill-opacity="1.000000" fill-rule="evenodd"/>
	</g>
</svg>
