<svg width="24.000000" height="24.000000" viewBox="0 0 24 24" fill="none" xmlns="http://www.w3.org/2000/svg" xmlns:xlink="http://www.w3.org/1999/xlink">
	<desc>
			Created with Pixso.
	</desc>
	<defs>
		<clipPath id="clip430_9517">
			<rect id="Iconly/Bulk/Arrow - Left" width="24.000000" height="24.000000" fill="white" fill-opacity="0"/>
		</clipPath>
	</defs>
	<rect id="Iconly/Bulk/Arrow - Left" width="24.000000" height="24.000000" fill="#FFFFFF" fill-opacity="0"/>
	<g clip-path="url(#clip430_9517)">
		<rect id="Iconly/Bulk/Arrow - Left" rx="-0.500000" width="23.000000" height="23.000000" transform="translate(0.500000 0.500000)" fill="#FFFFFF" fill-opacity="0"/>
		<g opacity="0.400000" style="mix-blend-mode:normal">
			<path id="Fill 1" d="M15.79 10.8L19.49 10.48C20.32 10.48 21 11.16 21 12C21 12.83 20.32 13.51 19.49 13.51L15.79 13.19C15.14 13.19 14.61 12.65 14.61 12C14.61 11.34 15.14 10.8 15.79 10.8Z" fill="#212121" fill-opacity="1.000000" fill-rule="nonzero"/>
		</g>
		<path id="Fill 4" d="M3.37 10.86C3.43 10.81 3.64 10.56 3.85 10.35C5.03 9.07 8.12 6.97 9.74 6.33C9.98 6.23 10.6 6.01 10.94 6C11.25 6 11.56 6.07 11.85 6.21C12.21 6.42 12.5 6.74 12.65 7.12C12.76 7.38 12.92 8.17 12.92 8.18C13.07 9.04 13.16 10.44 13.16 11.99C13.16 13.46 13.07 14.8 12.94 15.68C12.93 15.69 12.77 16.67 12.6 17C12.28 17.62 11.66 18 10.99 18L10.94 18C10.5 17.98 9.59 17.6 9.59 17.59C8.06 16.95 5.05 14.95 3.83 13.62C3.83 13.62 3.49 13.28 3.34 13.07C3.11 12.76 3 12.38 3 12C3 11.58 3.12 11.19 3.37 10.86Z" fill="#212121" fill-opacity="1.000000" fill-rule="nonzero"/>
	</g>
</svg>
