<svg width="24.000000" height="24.000000" viewBox="0 0 24 24" fill="none" xmlns="http://www.w3.org/2000/svg" xmlns:xlink="http://www.w3.org/1999/xlink">
	<desc>
			Created with Pixso.
	</desc>
	<defs>
		<clipPath id="clip430_9891">
			<rect id="Iconly/Bulk/Game" width="24.000000" height="24.000000" fill="white" fill-opacity="0"/>
		</clipPath>
	</defs>
	<rect id="Iconly/Bulk/Game" width="24.000000" height="24.000000" fill="#FFFFFF" fill-opacity="0"/>
	<g clip-path="url(#clip430_9891)">
		<g opacity="0.400000" style="mix-blend-mode:normal">
			<path id="Game 2" d="M13.3 5.88L13.3 6.06C12.81 6.05 12.32 6.05 11.83 6.05L11.83 5.89C11.83 5.22 11.27 4.68 10.6 4.68L9.63 4.68C8.52 4.68 7.62 3.8 7.62 2.72C7.62 2.32 7.95 2 8.35 2C8.77 2 9.09 2.32 9.09 2.72C9.09 3.01 9.34 3.24 9.63 3.24L10.6 3.24C12.08 3.25 13.29 4.43 13.3 5.88Z" fill="#212121" fill-opacity="1.000000" fill-rule="nonzero"/>
		</g>
		<path id="Game" d="M13.3052 6.06567C14.2375 6.06567 15.1697 6.08496 16.1118 6.09473C19.5171 6.09473 22 8.52246 22 11.875L22 16.1814C22 19.5339 19.5171 21.9617 16.1118 21.9617C14.7478 21.9905 13.3838 22 12.0098 22C10.636 22 9.2522 21.9905 7.88818 21.9617C4.48291 21.9617 2 19.5339 2 16.1814L2 11.875C2 8.52246 4.48291 6.09473 7.89795 6.09473C9.18359 6.07544 10.4985 6.05615 11.8333 6.05615C12.3237 6.05615 12.8145 6.05615 13.3052 6.06567ZM9.82153 14.7458L10.8521 14.7458C11.2544 14.7458 11.5881 14.428 11.5881 14.0232C11.5881 13.6282 11.2544 13.3008 10.8521 13.3008L9.82153 13.3008L9.82153 12.2891C9.82153 11.8943 9.48804 11.5667 9.08569 11.5667C8.67334 11.5667 8.34961 11.8943 8.34961 12.2891L8.34961 13.3008L7.30933 13.3008C6.90698 13.3008 6.57324 13.6282 6.57324 14.0232C6.57324 14.428 6.90698 14.7458 7.30933 14.7458L8.34961 14.7458L8.34961 15.7671C8.34961 16.1619 8.67334 16.4895 9.08569 16.4895C9.48804 16.4895 9.82153 16.1619 9.82153 15.7671L9.82153 14.7458ZM15.1208 13.1177L15.0227 13.1177C14.6106 13.1177 14.2869 12.7998 14.2869 12.3953C14.2869 12.0002 14.6106 11.6726 15.0227 11.6726L15.1208 11.6726C15.5232 11.6726 15.8569 12.0002 15.8569 12.3953C15.8569 12.7998 15.5232 13.1177 15.1208 13.1177ZM16.7991 16.4316L16.7009 16.4316C16.2888 16.4316 15.9648 16.1138 15.9648 15.7092C15.9648 15.3142 16.2888 14.9866 16.7009 14.9866L16.7991 14.9866C17.2014 14.9866 17.5352 15.3142 17.5352 15.7092C17.5352 16.1138 17.2014 16.4316 16.7991 16.4316Z" clip-rule="evenodd" fill="#212121" fill-opacity="1.000000" fill-rule="evenodd"/>
	</g>
</svg>
