<svg width="24.000000" height="24.000000" viewBox="0 0 24 24" fill="none" xmlns="http://www.w3.org/2000/svg" xmlns:xlink="http://www.w3.org/1999/xlink">
	<desc>
			Created with Pixso.
	</desc>
	<defs>
		<clipPath id="clip430_9513">
			<rect id="Iconly/Bulk/Arrow - Up 3" width="24.000000" height="24.000000" fill="white" fill-opacity="0"/>
		</clipPath>
	</defs>
	<rect id="Iconly/Bulk/Arrow - Up 3" width="24.000000" height="24.000000" fill="#FFFFFF" fill-opacity="0"/>
	<g clip-path="url(#clip430_9513)">
		<rect id="Iconly/Bulk/Arrow - Up 3" rx="-0.500000" width="23.000000" height="23.000000" transform="translate(0.500000 0.500000)" fill="#FFFFFF" fill-opacity="0"/>
		<g opacity="0.400000" style="mix-blend-mode:normal">
			<path id="Fill 1" d="M11.34 20.28L11.34 11.81C11.34 11.41 11.65 11.1 12.05 11.1C12.44 11.1 12.76 11.41 12.76 11.81L12.76 20.28C12.76 20.68 12.44 20.99 12.05 20.99C11.65 20.99 11.34 20.68 11.34 20.28Z" fill="#212121" fill-opacity="1.000000" fill-rule="nonzero"/>
		</g>
		<mask id="mask4_3327" mask-type="alpha" maskUnits="userSpaceOnUse" x="6.603271" y="3.582031" width="10.896484" height="8.939453">
			<path id="Clip 4" d="M17.49 12.52L6.6 12.52L6.6 3.58L17.49 3.58L17.49 12.52Z" fill="#000000" fill-opacity="1.000000" fill-rule="evenodd"/>
		</mask>
		<g mask="url(#mask4_3327)">
			<path id="Fill 3" d="M6.6 11.81C6.6 11.67 6.64 11.54 6.71 11.43L11.44 3.91C11.58 3.7 11.8 3.58 12.05 3.58C12.29 3.58 12.52 3.7 12.65 3.91L17.39 11.43C17.52 11.65 17.53 11.92 17.41 12.15C17.28 12.38 17.04 12.52 16.78 12.52L7.31 12.52C7.05 12.52 6.81 12.38 6.69 12.15C6.63 12.04 6.6 11.92 6.6 11.81Z" fill="#212121" fill-opacity="1.000000" fill-rule="nonzero"/>
		</g>
	</g>
</svg>
