<svg width="24.000000" height="24.000000" viewBox="0 0 24 24" fill="none" xmlns="http://www.w3.org/2000/svg" xmlns:xlink="http://www.w3.org/1999/xlink">
	<desc>
			Created with Pixso.
	</desc>
	<defs>
		<clipPath id="clip430_9813">
			<rect id="Iconly/Bulk/More Circle" width="24.000000" height="24.000000" fill="white" fill-opacity="0"/>
		</clipPath>
	</defs>
	<rect id="Iconly/Bulk/More Circle" width="24.000000" height="24.000000" fill="#FFFFFF" fill-opacity="0"/>
	<g clip-path="url(#clip430_9813)">
		<g opacity="0.400000" style="mix-blend-mode:normal">
			<path id="Fill 1" d="M22 11.99C22 17.52 17.52 21.99 12 21.99C6.47 21.99 2 17.52 2 11.99C2 6.47 6.47 1.99 12 1.99C17.52 1.99 22 6.47 22 11.99Z" fill="#212121" fill-opacity="1.000000" fill-rule="nonzero"/>
		</g>
		<path id="Combined Shape" d="M7.52124 10.8035C6.86035 10.8035 6.32324 11.3406 6.32324 11.9995C6.32324 12.6594 6.86035 13.1975 7.52124 13.1975C8.18213 13.1975 8.71924 12.6594 8.71924 11.9995C8.71924 11.3406 8.18213 10.8035 7.52124 10.8035ZM12.0002 10.8035C11.3394 10.8035 10.8022 11.3406 10.8022 11.9995C10.8022 12.6594 11.3394 13.1975 12.0002 13.1975C12.6614 13.1975 13.1982 12.6594 13.1982 11.9995C13.1982 11.3406 12.6614 10.8035 12.0002 10.8035ZM15.2817 11.9995C15.2817 11.3406 15.8188 10.8035 16.4797 10.8035C17.1406 10.8035 17.6777 11.3406 17.6777 11.9995C17.6777 12.6594 17.1406 13.1975 16.4797 13.1975C15.8188 13.1975 15.2817 12.6594 15.2817 11.9995Z" clip-rule="evenodd" fill="#212121" fill-opacity="1.000000" fill-rule="evenodd"/>
	</g>
</svg>
