<svg width="24.000000" height="24.000000" viewBox="0 0 24 24" fill="none" xmlns="http://www.w3.org/2000/svg" xmlns:xlink="http://www.w3.org/1999/xlink">
	<desc>
			Created with Pixso.
	</desc>
	<defs>
		<clipPath id="clip430_9546">
			<rect id="Iconly/Bulk/Setting" width="24.000000" height="24.000000" fill="white" fill-opacity="0"/>
		</clipPath>
	</defs>
	<rect id="Iconly/Bulk/Setting" width="24.000000" height="24.000000" fill="#FFFFFF" fill-opacity="0"/>
	<g clip-path="url(#clip430_9546)">
		<path id="Path" d="M12.01 14.83C10.4 14.83 9.1 13.58 9.1 12.01C9.1 10.44 10.4 9.18 12.01 9.18C13.61 9.18 14.88 10.44 14.88 12.01C14.88 13.58 13.61 14.83 12.01 14.83Z" fill="#212121" fill-opacity="1.000000" fill-rule="nonzero"/>
		<g opacity="0.400000" style="mix-blend-mode:normal">
			<path id="Path" d="M21.23 14.37C21.03 14.07 20.76 13.77 20.4 13.58C20.11 13.43 19.93 13.21 19.76 12.93C19.24 12.08 19.55 10.95 20.42 10.43C21.44 9.87 21.77 8.6 21.17 7.61L20.49 6.42C19.91 5.43 18.63 5.09 17.62 5.66C16.72 6.14 15.56 5.83 15.04 4.97C14.88 4.69 14.79 4.39 14.81 4.1C14.84 3.7 14.72 3.34 14.53 3.04C14.15 2.41 13.47 2 12.71 2L11.27 2C10.53 2.02 9.84 2.41 9.46 3.04C9.27 3.34 9.16 3.7 9.18 4.1C9.2 4.39 9.1 4.69 8.94 4.97C8.42 5.83 7.27 6.14 6.38 5.66C5.35 5.09 4.09 5.43 3.49 6.42L2.81 7.61C2.23 8.6 2.55 9.87 3.57 10.43C4.43 10.95 4.74 12.08 4.23 12.93C4.06 13.21 3.87 13.43 3.59 13.58C3.24 13.77 2.93 14.07 2.77 14.37C2.39 14.99 2.41 15.77 2.79 16.41L3.49 17.62C3.87 18.26 4.58 18.65 5.31 18.65C5.66 18.65 6.07 18.56 6.4 18.36C6.65 18.18 6.96 18.12 7.3 18.12C8.31 18.12 9.16 18.95 9.18 19.95C9.18 21.1 10.12 22 11.3 22L12.69 22C13.87 22 14.81 21.1 14.81 19.95C14.84 18.95 15.69 18.12 16.7 18.12C17.02 18.12 17.33 18.18 17.6 18.36C17.92 18.56 18.32 18.65 18.68 18.65C19.41 18.65 20.11 18.26 20.49 17.62L21.2 16.41C21.57 15.75 21.6 14.99 21.23 14.37Z" fill="#212121" fill-opacity="1.000000" fill-rule="nonzero"/>
		</g>
	</g>
</svg>
