<svg width="24.000000" height="24.000000" viewBox="0 0 24 24" fill="none" xmlns="http://www.w3.org/2000/svg" xmlns:xlink="http://www.w3.org/1999/xlink">
	<desc>
			Created with Pixso.
	</desc>
	<defs>
		<clipPath id="clip430_9623">
			<rect id="Iconly/Bulk/Image" width="24.000000" height="24.000000" fill="white" fill-opacity="0"/>
		</clipPath>
	</defs>
	<rect id="Iconly/Bulk/Image" width="24.000000" height="24.000000" fill="#FFFFFF" fill-opacity="0"/>
	<g clip-path="url(#clip430_9623)">
		<g opacity="0.400000" style="mix-blend-mode:normal">
			<path id="Fill 1" d="M16.33 22L7.66 22C4.27 22 2 19.62 2 16.08L2 7.91C2 4.37 4.27 2 7.66 2L16.33 2C19.72 2 22 4.37 22 7.91L22 16.08C22 19.62 19.72 22 16.33 22Z" fill="#212121" fill-opacity="1.000000" fill-rule="nonzero"/>
		</g>
		<path id="Combined Shape" d="M11.2451 8.67505C11.2451 10.0449 10.1301 11.1599 8.76001 11.1599C7.38916 11.1599 6.27515 10.0449 6.27515 8.67505C6.27515 7.30493 7.38916 6.18896 8.76001 6.18896C10.1301 6.18896 11.2451 7.30493 11.2451 8.67505ZM19.4004 14.0876C19.6335 14.3135 19.8005 14.5715 19.9104 14.8467C20.2434 15.6785 20.0706 16.6785 19.7146 17.5027C19.2925 18.4836 18.4844 19.2246 17.4666 19.5486C17.0144 19.6936 16.5405 19.7556 16.0674 19.7556L7.68652 19.7556C6.85254 19.7556 6.1145 19.5615 5.50952 19.1975C5.13062 18.9695 5.06348 18.4446 5.34448 18.1025C5.81445 17.5325 6.27856 16.9604 6.74658 16.3835C7.63843 15.2795 8.2395 14.9595 8.90747 15.2405C9.17847 15.3564 9.45044 15.5315 9.73047 15.7156C10.4766 16.2095 11.5134 16.8875 12.8794 16.1516C13.8196 15.6375 14.3625 14.7556 14.8364 13.9915C15.0305 13.6807 15.2146 13.3706 15.4285 13.0896C15.6504 12.7986 16.4746 11.8887 17.5396 12.5366C18.2185 12.9446 18.7896 13.4966 19.4004 14.0876Z" clip-rule="evenodd" fill="#212121" fill-opacity="1.000000" fill-rule="evenodd"/>
	</g>
</svg>
