<svg width="24.000000" height="24.000000" viewBox="0 0 24 24" fill="none" xmlns="http://www.w3.org/2000/svg" xmlns:xlink="http://www.w3.org/1999/xlink">
	<desc>
			Created with Pixso.
	</desc>
	<defs>
		<clipPath id="clip430_9527">
			<rect id="Iconly/Bulk/Arrow - Down" width="24.000000" height="24.000000" fill="white" fill-opacity="0"/>
		</clipPath>
	</defs>
	<rect id="Iconly/Bulk/Arrow - Down" width="24.000000" height="24.000000" fill="#FFFFFF" fill-opacity="0"/>
	<g clip-path="url(#clip430_9527)">
		<rect id="Iconly/Bulk/Arrow - Down" width="24.000000" height="24.000000" fill="#FFFFFF" fill-opacity="0"/>
		<g opacity="0.400000" style="mix-blend-mode:normal">
			<path id="Fill 1" d="M10.8 8.2L10.48 4.5C10.48 3.67 11.16 3 12 3C12.83 3 13.51 3.67 13.51 4.5L13.19 8.2C13.19 8.85 12.65 9.38 12 9.38C11.34 9.38 10.8 8.85 10.8 8.2Z" fill="#212121" fill-opacity="1.000000" fill-rule="nonzero"/>
		</g>
		<path id="Fill 4" d="M10.86 20.62C10.81 20.56 10.56 20.35 10.35 20.14C9.07 18.96 6.97 15.87 6.33 14.25C6.23 14.01 6.01 13.39 6 13.05C6 12.74 6.07 12.43 6.21 12.14C6.42 11.78 6.74 11.49 7.12 11.34C7.38 11.23 8.17 11.07 8.18 11.07C9.04 10.92 10.44 10.83 11.99 10.83C13.46 10.83 14.8 10.92 15.68 11.05C15.69 11.06 16.67 11.22 17 11.39C17.62 11.71 18 12.33 18 13L18 13.05C17.98 13.49 17.6 14.4 17.59 14.4C16.95 15.93 14.95 18.94 13.62 20.16C13.62 20.16 13.28 20.5 13.07 20.65C12.76 20.88 12.38 21 12 21C11.58 21 11.19 20.87 10.86 20.62Z" fill="#212121" fill-opacity="1.000000" fill-rule="nonzero"/>
	</g>
</svg>
