<svg width="24.000000" height="24.000000" viewBox="0 0 24 24" fill="none" xmlns="http://www.w3.org/2000/svg" xmlns:xlink="http://www.w3.org/1999/xlink">
	<desc>
			Created with Pixso.
	</desc>
	<defs>
		<clipPath id="clip430_9572">
			<rect id="Iconly/Bulk/Paper Upload" width="24.000000" height="24.000000" fill="white" fill-opacity="0"/>
		</clipPath>
	</defs>
	<rect id="Iconly/Bulk/Paper Upload" width="24.000000" height="24.000000" fill="#FFFFFF" fill-opacity="0"/>
	<g clip-path="url(#clip430_9572)">
		<g opacity="0.400000" style="mix-blend-mode:normal">
			<path id="Fill 3" d="M18.8 9.02C18.35 9.02 17.75 9.01 17.01 9.01C15.19 9.01 13.7 7.5 13.7 5.67L13.7 2.45C13.7 2.2 13.5 2 13.25 2L7.96 2C5.49 2 3.5 4.02 3.5 6.5L3.5 17.28C3.5 19.88 5.59 22 8.16 22L16.04 22C18.5 22 20.5 19.98 20.5 17.5L20.5 9.47C20.5 9.21 20.29 9.01 20.04 9.01C19.62 9.01 19.11 9.02 18.8 9.02Z" fill="#212121" fill-opacity="1.000000" fill-rule="nonzero"/>
		</g>
		<g opacity="0.400000" style="mix-blend-mode:normal">
			<path id="Fill 1" d="M16.08 2.56C15.78 2.25 15.26 2.47 15.26 2.9L15.26 5.53C15.26 6.64 16.17 7.55 17.27 7.55C17.97 7.56 18.94 7.56 19.76 7.56C20.18 7.56 20.4 7.05 20.11 6.75C19.05 5.65 17.16 3.69 16.08 2.56Z" fill="#212121" fill-opacity="1.000000" fill-rule="nonzero"/>
		</g>
		<path id="Fill 6" d="M15.1 12.88C14.81 13.17 14.34 13.17 14.05 12.88L12.46 11.28L12.46 16.11C12.46 16.52 12.12 16.85 11.71 16.85C11.3 16.85 10.97 16.52 10.97 16.11L10.97 11.28L9.38 12.88C9.09 13.17 8.62 13.17 8.32 12.88C8.03 12.59 8.03 12.12 8.32 11.83L11.18 8.95C11.19 8.95 11.19 8.95 11.19 8.95C11.25 8.88 11.34 8.83 11.43 8.79C11.52 8.75 11.61 8.73 11.71 8.73C11.81 8.73 11.91 8.75 12 8.79C12.09 8.83 12.17 8.88 12.24 8.95C12.24 8.95 12.24 8.95 12.24 8.95L15.1 11.83C15.39 12.12 15.39 12.59 15.1 12.88Z" fill="#212121" fill-opacity="1.000000" fill-rule="nonzero"/>
	</g>
</svg>
