<svg width="24.000000" height="24.000000" viewBox="0 0 24 24" fill="none" xmlns="http://www.w3.org/2000/svg" xmlns:xlink="http://www.w3.org/1999/xlink">
	<desc>
			Created with Pixso.
	</desc>
	<defs>
		<clipPath id="clip430_9659">
			<rect id="Iconly/Bulk/Call Silent" width="24.000000" height="24.000000" fill="white" fill-opacity="0"/>
		</clipPath>
	</defs>
	<rect id="Iconly/Bulk/Call Silent" width="24.000000" height="24.000000" fill="#FFFFFF" fill-opacity="0"/>
	<g clip-path="url(#clip430_9659)">
		<path id="Stroke 1" d="M6.18 14.2C-0.25 6.91 2.96 4.73 3.25 4.38C6.32 1.27 6.79 2.68 9.2 5.13C11.24 7.2 8.6 8.19 9.68 10.65L6.18 14.2Z" fill="#212121" fill-opacity="1.000000" fill-rule="evenodd"/>
		<path id="Stroke 1" d="M3.25 4.38C6.32 1.27 6.79 2.68 9.2 5.13C11.24 7.2 8.6 8.19 9.68 10.65L6.18 14.2C-0.25 6.91 2.96 4.73 3.25 4.38Z" stroke="#000000" stroke-opacity="0" stroke-width="0.000000" stroke-linejoin="round"/>
		<path id="Stroke 3" d="M12.09 13.38C15.37 16.07 16.29 12.22 18.61 14.58C21.01 17.03 22.39 17.52 19.35 20.62C18.99 20.93 16.69 24.46 8.79 16.74L12.09 13.38Z" fill="#212121" fill-opacity="1.000000" fill-rule="evenodd"/>
		<path id="Stroke 3" d="M18.61 14.58C21.01 17.03 22.39 17.52 19.35 20.62C18.99 20.93 16.69 24.46 8.79 16.74L12.09 13.38C15.37 16.07 16.29 12.22 18.61 14.58Z" stroke="#000000" stroke-opacity="0" stroke-width="0.000000" stroke-linejoin="round"/>
		<g opacity="0.400000" style="mix-blend-mode:normal">
			<path id="Fill 6" d="M21.37 3.85L21.37 3.86L11.95 13.51L3.44 22.24C3.27 22.4 3.06 22.5 2.84 22.5C2.63 22.5 2.42 22.4 2.24 22.24C1.96 21.95 1.92 21.51 2.11 21.18L2.14 21.14C2.16 21.11 2.18 21.08 2.21 21.05L20.17 2.62C20.32 2.46 20.54 2.36 20.77 2.36C20.99 2.36 21.21 2.46 21.37 2.62C21.7 2.97 21.7 3.51 21.37 3.85Z" fill="#212121" fill-opacity="1.000000" fill-rule="nonzero"/>
		</g>
	</g>
</svg>
