<svg width="24.000000" height="24.000000" viewBox="0 0 24 24" fill="none" xmlns="http://www.w3.org/2000/svg" xmlns:xlink="http://www.w3.org/1999/xlink">
	<desc>
			Created with Pixso.
	</desc>
	<defs>
		<clipPath id="clip430_9499">
			<rect id="Iconly/Bulk/Arrow - Right Square" width="24.000000" height="24.000000" fill="white" fill-opacity="0"/>
		</clipPath>
	</defs>
	<rect id="Iconly/Bulk/Arrow - Right Square" width="24.000000" height="24.000000" fill="#FFFFFF" fill-opacity="0"/>
	<g clip-path="url(#clip430_9499)">
		<rect id="Iconly/Bulk/Arrow - Right Square" rx="-0.500000" width="23.000000" height="23.000000" transform="translate(0.500000 0.500000)" fill="#FFFFFF" fill-opacity="0"/>
		<g opacity="0.400000" style="mix-blend-mode:normal">
			<path id="Fill 1" d="M7.91 22L16.08 22C19.62 22 22 19.72 22 16.33L22 7.66C22 4.27 19.62 2 16.08 2L7.91 2C4.37 2 2 4.27 2 7.66L2 16.33C2 19.72 4.37 22 7.91 22Z" fill="#212121" fill-opacity="1.000000" fill-rule="nonzero"/>
		</g>
		<path id="Fill 4" d="M12.85 16.27L16.62 12.53C16.9 12.24 16.9 11.75 16.62 11.46L12.85 7.71C12.56 7.42 12.08 7.42 11.79 7.72C11.5 8.01 11.5 8.49 11.79 8.78L14.27 11.25L7.91 11.25C7.5 11.25 7.16 11.58 7.16 12C7.16 12.41 7.5 12.75 7.91 12.75L14.27 12.75L11.79 15.21C11.64 15.36 11.57 15.55 11.57 15.74C11.57 15.93 11.64 16.13 11.79 16.27C12.08 16.57 12.56 16.57 12.85 16.27Z" fill="#212121" fill-opacity="1.000000" fill-rule="nonzero"/>
	</g>
</svg>
