<svg width="24.000000" height="24.000000" viewBox="0 0 24 24" fill="none" xmlns="http://www.w3.org/2000/svg" xmlns:xlink="http://www.w3.org/1999/xlink">
	<desc>
			Created with Pixso.
	</desc>
	<defs>
		<clipPath id="clip430_9737">
			<rect id="Iconly/Bulk/Ticket" width="24.000000" height="24.000000" fill="white" fill-opacity="0"/>
		</clipPath>
	</defs>
	<rect id="Iconly/Bulk/Ticket" width="24.000000" height="24.000000" fill="#FFFFFF" fill-opacity="0"/>
	<g clip-path="url(#clip430_9737)">
		<g opacity="0.400000" style="mix-blend-mode:normal">
			<path id="Fill 1" d="M13.75 9.7L13.75 7.68C13.35 7.68 13.02 7.36 13.02 6.97L13.02 4.57C13.02 4.25 12.76 4 12.43 4L5.79 4C3.7 4 2 5.65 2 7.68L2 10.11C2 10.3 2.07 10.48 2.21 10.61C2.34 10.74 2.53 10.82 2.72 10.82C3.46 10.82 4.02 11.32 4.02 11.99C4.02 12.69 3.45 13.24 2.73 13.25C2.33 13.25 2 13.52 2 13.92L2 16.32C2 18.35 3.7 19.99 5.78 19.99L12.43 19.99C12.76 19.99 13.02 19.74 13.02 19.42L13.02 17.39C13.02 17 13.35 16.69 13.75 16.69L13.75 14.87C13.35 14.87 13.02 14.54 13.02 14.16L13.02 10.4C13.02 10.02 13.35 9.7 13.75 9.7Z" fill="#212121" fill-opacity="1.000000" fill-rule="nonzero"/>
		</g>
		<path id="Fill 4" d="M19.97 11.99C19.97 12.68 20.55 13.24 21.26 13.25C21.66 13.25 22 13.52 22 13.91L22 16.32C22 18.35 20.3 20 18.21 20L15.06 20C14.74 20 14.47 19.74 14.47 19.42L14.47 17.39C14.47 17 14.15 16.69 13.75 16.69L13.75 14.87C14.15 14.87 14.47 14.55 14.47 14.16L14.47 10.4C14.47 10.02 14.15 9.7 13.75 9.7L13.75 7.68C14.15 7.68 14.47 7.36 14.47 6.97L14.47 4.57C14.47 4.25 14.74 4 15.06 4L18.21 4C20.3 4 22 5.64 22 7.67L22 10.04C22 10.22 21.92 10.4 21.78 10.53C21.65 10.67 21.46 10.74 21.27 10.74C20.55 10.74 19.97 11.31 19.97 11.99Z" fill="#212121" fill-opacity="1.000000" fill-rule="nonzero"/>
	</g>
</svg>
