<svg width="24.000000" height="24.000000" viewBox="0 0 24 24" fill="none" xmlns="http://www.w3.org/2000/svg" xmlns:xlink="http://www.w3.org/1999/xlink">
	<desc>
			Created with Pixso.
	</desc>
	<defs>
		<clipPath id="clip430_9677">
			<rect id="Iconly/Bulk/Upload" width="24.000000" height="24.000000" fill="white" fill-opacity="0"/>
		</clipPath>
	</defs>
	<rect id="Iconly/Bulk/Upload" width="24.000000" height="24.000000" fill="#FFFFFF" fill-opacity="0"/>
	<g clip-path="url(#clip430_9677)">
		<g opacity="0.400000" style="mix-blend-mode:normal">
			<path id="Fill 1" d="M6.44 22C3.99 22 2 19.96 2 17.47L2 12.51C2 10.02 3.98 8 6.43 8L17.55 8C20 8 22 10.03 22 12.52L22 17.48C22 19.97 20.01 22 17.56 22L16.62 22L6.44 22Z" fill="#212121" fill-opacity="1.000000" fill-rule="nonzero"/>
		</g>
		<path id="Fill 3" d="M11.45 2.22L8.54 5.06C8.24 5.36 8.24 5.83 8.54 6.12C8.84 6.41 9.33 6.41 9.63 6.12L11.22 4.56L11.22 6.06L11.22 14.45C11.22 14.86 11.57 15.2 11.99 15.2C12.42 15.2 12.76 14.86 12.76 14.45L12.76 4.56L14.36 6.12C14.66 6.41 15.14 6.41 15.45 6.12C15.6 5.98 15.67 5.78 15.67 5.59C15.67 5.4 15.6 5.21 15.45 5.06L12.54 2.22C12.4 2.07 12.2 2 11.99 2C11.79 2 11.59 2.07 11.45 2.22Z" fill="#212121" fill-opacity="1.000000" fill-rule="nonzero"/>
	</g>
</svg>
