<svg width="24.000000" height="24.000000" viewBox="0 0 24 24" fill="none" xmlns="http://www.w3.org/2000/svg" xmlns:xlink="http://www.w3.org/1999/xlink">
	<desc>
			Created with Pixso.
	</desc>
	<defs>
		<clipPath id="clip430_9519">
			<rect id="Iconly/Bulk/Arrow - Left Square" width="24.000000" height="24.000000" fill="white" fill-opacity="0"/>
		</clipPath>
	</defs>
	<rect id="Iconly/Bulk/Arrow - Left Square" width="24.000000" height="24.000000" fill="#FFFFFF" fill-opacity="0"/>
	<g clip-path="url(#clip430_9519)">
		<rect id="Iconly/Bulk/Arrow - Left Square" rx="-0.500000" width="23.000000" height="23.000000" transform="translate(0.500000 0.500000)" fill="#FFFFFF" fill-opacity="0"/>
		<g opacity="0.400000" style="mix-blend-mode:normal">
			<path id="Fill 1" d="M16.08 2L7.91 2C4.37 2 2 4.27 2 7.66L2 16.33C2 19.72 4.37 22 7.91 22L16.08 22C19.62 22 22 19.72 22 16.33L22 7.66C22 4.27 19.62 2 16.08 2Z" fill="#212121" fill-opacity="1.000000" fill-rule="nonzero"/>
		</g>
		<path id="Fill 4" d="M11.14 7.72L7.37 11.46C7.09 11.75 7.09 12.24 7.37 12.53L11.14 16.28C11.43 16.57 11.91 16.57 12.2 16.27C12.49 15.98 12.49 15.5 12.2 15.21L9.72 12.74L16.08 12.74C16.49 12.74 16.83 12.41 16.83 11.99C16.83 11.58 16.49 11.24 16.08 11.24L9.72 11.24L12.2 8.78C12.35 8.63 12.42 8.44 12.42 8.25C12.42 8.06 12.35 7.86 12.2 7.72C11.91 7.42 11.43 7.42 11.14 7.72Z" fill="#212121" fill-opacity="1.000000" fill-rule="nonzero"/>
	</g>
</svg>
