<svg width="24.000000" height="24.000000" viewBox="0 0 24 24" fill="none" xmlns="http://www.w3.org/2000/svg" xmlns:xlink="http://www.w3.org/1999/xlink">
	<desc>
			Created with Pixso.
	</desc>
	<defs>
		<clipPath id="clip430_9617">
			<rect id="Iconly/Bulk/Filter" width="24.000000" height="24.000000" fill="white" fill-opacity="0"/>
		</clipPath>
	</defs>
	<rect id="Iconly/Bulk/Filter" width="24.000000" height="24.000000" fill="#FFFFFF" fill-opacity="0"/>
	<g clip-path="url(#clip430_9617)">
		<g opacity="0.400000" style="mix-blend-mode:normal">
			<path id="Fill 1" d="M10.08 15.95L3.5 15.95C2.67 15.95 2 16.62 2 17.43C2 18.25 2.67 18.92 3.5 18.92L10.08 18.92C10.91 18.92 11.59 18.25 11.59 17.43C11.59 16.62 10.91 15.95 10.08 15.95Z" fill="#212121" fill-opacity="1.000000" fill-rule="nonzero"/>
		</g>
		<g opacity="0.400000" style="mix-blend-mode:normal">
			<path id="Fill 4" d="M22 6.37C22 5.56 21.32 4.89 20.49 4.89L13.91 4.89C13.08 4.89 12.41 5.56 12.41 6.37C12.41 7.19 13.08 7.86 13.91 7.86L20.49 7.86C21.32 7.86 22 7.19 22 6.37Z" fill="#212121" fill-opacity="1.000000" fill-rule="nonzero"/>
		</g>
		<path id="Fill 6" d="M8.87 6.37C8.87 8.24 7.33 9.75 5.43 9.75C3.54 9.75 2 8.24 2 6.37C2 4.51 3.54 3 5.43 3C7.33 3 8.87 4.51 8.87 6.37Z" fill="#212121" fill-opacity="1.000000" fill-rule="nonzero"/>
		<path id="Fill 9" d="M22 17.39C22 19.26 20.46 20.77 18.56 20.77C16.66 20.77 15.12 19.26 15.12 17.39C15.12 15.53 16.66 14.01 18.56 14.01C20.46 14.01 22 15.53 22 17.39Z" fill="#212121" fill-opacity="1.000000" fill-rule="nonzero"/>
	</g>
</svg>
