<svg width="24.000000" height="24.000000" viewBox="0 0 24 24" fill="none" xmlns="http://www.w3.org/2000/svg" xmlns:xlink="http://www.w3.org/1999/xlink">
	<desc>
			Created with Pixso.
	</desc>
	<defs>
		<clipPath id="clip430_9926">
			<rect id="Iconly/Bulk/Location" width="24.000000" height="24.000000" fill="white" fill-opacity="0"/>
		</clipPath>
	</defs>
	<rect id="Iconly/Bulk/Location" width="24.000000" height="24.000000" fill="#FFFFFF" fill-opacity="0"/>
	<g clip-path="url(#clip430_9926)">
		<path id="Path_34175" d="M15.5664 2.99487C13.4021 1.68945 10.7166 1.66724 8.53174 2.93677C6.34668 4.2063 4.99854 6.57227 5 9.13452C5.06592 11.0161 5.69849 12.8313 6.81226 14.334C8.14331 16.134 9.78247 17.6746 11.6506 18.8813C11.7693 18.9534 11.9036 18.9941 12.0415 19C12.1848 18.9778 12.3228 18.929 12.4487 18.856C13.6726 18.0527 14.7998 17.1064 15.8074 16.0361C17.5532 14.1899 18.95 11.802 18.9998 9.26147C19.012 6.7041 17.7095 4.3269 15.5664 2.99487ZM9.79419 10.1948C10.1616 11.1008 11.0293 11.6919 11.9917 11.6919C12.6221 11.6963 13.2283 11.4438 13.6748 10.9905C14.1213 10.5371 14.3716 9.92065 14.3691 9.27832C14.3726 8.2981 13.7954 7.41235 12.9072 7.03467C12.019 6.65723 10.9951 6.8623 10.3132 7.55444C9.63159 8.24634 9.42676 9.28882 9.79419 10.1948Z" clip-rule="evenodd" fill="#212121" fill-opacity="1.000000" fill-rule="evenodd"/>
		<g opacity="0.400000" style="mix-blend-mode:normal">
			<ellipse id="Ellipse_743" cx="12.000000" cy="21.000000" rx="5.000000" ry="1.000000" fill="#212121" fill-opacity="1.000000"/>
		</g>
	</g>
</svg>
