<svg width="24.000000" height="24.000000" viewBox="0 0 24 24" fill="none" xmlns="http://www.w3.org/2000/svg" xmlns:xlink="http://www.w3.org/1999/xlink">
	<desc>
			Created with Pixso.
	</desc>
	<defs>
		<clipPath id="clip430_9790">
			<rect id="Iconly/Bulk/Volume Up" width="24.000000" height="24.000000" fill="white" fill-opacity="0"/>
		</clipPath>
	</defs>
	<rect id="Iconly/Bulk/Volume Up" width="24.000000" height="24.000000" fill="#FFFFFF" fill-opacity="0"/>
	<g clip-path="url(#clip430_9790)">
		<path id="Fill 1" d="M13.35 6.45C13.3 5.96 13.25 5.45 13.12 4.95C12.77 3.75 11.8 3 10.75 3C10.17 2.99 9.43 3.35 9.02 3.71L5.56 6.61L3.75 6.61C2.41 6.61 1.34 7.64 1.14 9.12C0.97 10.55 0.93 13.23 1.14 14.8C1.33 16.37 2.35 17.38 3.75 17.38L5.56 17.38L9.08 20.32C9.45 20.63 10.08 20.99 10.67 20.99C10.71 21 10.74 21 10.78 21C11.84 21 12.78 20.22 13.13 19.01C13.26 18.5 13.31 18.02 13.35 17.56L13.4 17.1C13.58 15.62 13.58 8.36 13.4 6.89L13.35 6.45Z" fill="#212121" fill-opacity="1.000000" fill-rule="nonzero"/>
		<g opacity="0.400000" style="mix-blend-mode:normal">
			<path id="Fill 4" d="M17.4 6.49C17.11 6.06 16.54 5.96 16.12 6.25C15.71 6.55 15.61 7.14 15.89 7.56C16.7 8.74 17.14 10.32 17.14 12C17.14 13.67 16.7 15.25 15.89 16.43C15.61 16.85 15.71 17.44 16.12 17.74C16.28 17.85 16.46 17.9 16.65 17.9C16.95 17.9 17.23 17.75 17.4 17.5C18.41 16.01 18.97 14.05 18.97 12C18.97 9.94 18.41 7.98 17.4 6.49Z" fill="#212121" fill-opacity="1.000000" fill-rule="nonzero"/>
		</g>
		<g opacity="0.400000" style="mix-blend-mode:normal">
			<path id="Fill 6" d="M20.56 3.45C20.28 3.03 19.7 2.92 19.29 3.22C18.87 3.51 18.77 4.1 19.06 4.52C20.41 6.52 21.16 9.18 21.16 12C21.16 14.81 20.41 17.47 19.06 19.47C18.77 19.89 18.87 20.48 19.29 20.77C19.44 20.88 19.62 20.94 19.81 20.94C20.11 20.94 20.39 20.79 20.56 20.54C22.13 18.23 23 15.2 23 12C23 8.8 22.13 5.76 20.56 3.45Z" fill="#212121" fill-opacity="1.000000" fill-rule="nonzero"/>
		</g>
	</g>
</svg>
