<svg width="24.000000" height="24.000000" viewBox="0 0 24 24" fill="none" xmlns="http://www.w3.org/2000/svg" xmlns:xlink="http://www.w3.org/1999/xlink">
	<desc>
			Created with Pixso.
	</desc>
	<defs>
		<clipPath id="clip430_9954">
			<rect id="Iconly/Bulk/Wallet" width="24.000000" height="24.000000" fill="white" fill-opacity="0"/>
		</clipPath>
	</defs>
	<rect id="Iconly/Bulk/Wallet" width="24.000000" height="24.000000" fill="#FFFFFF" fill-opacity="0"/>
	<g clip-path="url(#clip430_9954)">
		<path id="Fill 1" d="M21.9963 8.37524L17.7617 8.37524C15.791 8.37866 14.1946 9.93506 14.1912 11.8564C14.1885 13.7822 15.7866 15.3457 17.7617 15.3484L22 15.3484L22 15.6543C22 19.0137 19.9636 21 16.5173 21L7.48364 21C4.03638 21 2 19.0137 2 15.6543L2 8.33789C2 4.97852 4.03638 3 7.48364 3L16.5137 3C19.96 3 21.9963 4.97852 21.9963 8.33789L21.9963 8.37524ZM12.3901 8.36743L6.7395 8.36743C6.31738 8.36548 5.97607 8.03027 5.97778 7.61841C5.97949 7.2085 6.32007 6.87671 6.7395 6.875L12.3831 6.875C12.8054 6.87329 13.1501 7.20605 13.1521 7.61768C13.1538 8.03027 12.8125 8.36548 12.3901 8.36743Z" clip-rule="evenodd" fill="#212121" fill-opacity="1.000000" fill-rule="evenodd"/>
		<g opacity="0.400000" style="mix-blend-mode:normal">
			<path id="Fill 4" d="M16.03 12.29C16.24 13.24 17.08 13.91 18.03 13.89L21.28 13.89C21.67 13.89 22 13.57 22 13.16L22 10.63C21.99 10.22 21.67 9.9 21.28 9.89L17.95 9.89C16.87 9.9 15.99 10.8 16 11.91C16 12.03 16.01 12.16 16.03 12.29Z" fill="#212121" fill-opacity="1.000000" fill-rule="nonzero"/>
		</g>
		<circle id="Oval" cx="18.000000" cy="11.899902" r="1.000000" fill="#212121" fill-opacity="1.000000"/>
	</g>
</svg>
