<svg width="24.000000" height="24.000000" viewBox="0 0 24 24" fill="none" xmlns="http://www.w3.org/2000/svg" xmlns:xlink="http://www.w3.org/1999/xlink">
	<desc>
			Created with Pixso.
	</desc>
	<defs>
		<clipPath id="clip430_9495">
			<rect id="Iconly/Bulk/Arrow - Right Circle" width="24.000000" height="24.000000" fill="white" fill-opacity="0"/>
		</clipPath>
	</defs>
	<rect id="Iconly/Bulk/Arrow - Right Circle" width="24.000000" height="24.000000" fill="#FFFFFF" fill-opacity="0"/>
	<g clip-path="url(#clip430_9495)">
		<rect id="Iconly/Bulk/Arrow - Right Circle" rx="-0.500000" width="23.000000" height="23.000000" transform="translate(0.500000 0.500000)" fill="#FFFFFF" fill-opacity="0"/>
		<g opacity="0.400000" style="mix-blend-mode:normal">
			<path id="Fill 1" d="M12 1.99C17.51 1.99 22 6.48 22 11.99C22 17.51 17.51 21.99 12 21.99C6.48 21.99 2 17.51 2 11.99C2 6.48 6.48 1.99 12 1.99Z" fill="#212121" fill-opacity="1.000000" fill-rule="nonzero"/>
		</g>
		<path id="Fill 4" d="M10.55 7.77C10.74 7.77 10.94 7.85 11.08 7.99L14.57 11.46C14.71 11.6 14.79 11.8 14.79 12C14.79 12.19 14.71 12.39 14.57 12.53L11.08 16C10.79 16.29 10.31 16.29 10.02 16C9.73 15.7 9.73 15.23 10.02 14.94L12.98 12L10.02 9.06C9.73 8.76 9.73 8.29 10.02 8C10.17 7.85 10.36 7.77 10.55 7.77Z" fill="#212121" fill-opacity="1.000000" fill-rule="nonzero"/>
	</g>
</svg>
