<svg width="24.000000" height="24.000000" viewBox="0 0 24 24" fill="none" xmlns="http://www.w3.org/2000/svg" xmlns:xlink="http://www.w3.org/1999/xlink">
	<desc>
			Created with Pixso.
	</desc>
	<defs>
		<clipPath id="clip430_9913">
			<rect id="Iconly/Bulk/Calendar" width="24.000000" height="24.000000" fill="white" fill-opacity="0"/>
		</clipPath>
	</defs>
	<rect id="Iconly/Bulk/Calendar" width="24.000000" height="24.000000" fill="#FFFFFF" fill-opacity="0"/>
	<g clip-path="url(#clip430_9913)">
		<path id="Fill 1" d="M3 16.8701L3 9.25708L21 9.25708L21 16.9312C21 20.0701 19.0242 22 15.8628 22L8.12744 22C4.99561 22 3 20.03 3 16.8701ZM7.95947 14.4102C7.50488 14.4312 7.12964 14.0701 7.10986 13.6111C7.10986 13.1511 7.46533 12.771 7.91992 12.75C8.3645 12.75 8.72998 13.1011 8.73975 13.55C8.75952 14.011 8.40405 14.3911 7.95947 14.4102ZM12.0198 14.4102C11.5654 14.4312 11.1899 14.0701 11.1702 13.6111C11.1702 13.1511 11.5259 12.771 11.9802 12.75C12.4248 12.75 12.7903 13.1011 12.8003 13.55C12.8201 14.011 12.4644 14.3911 12.0198 14.4102ZM15.2405 13.6011C15.2405 13.1411 15.5959 12.771 16.0505 12.761C16.4951 12.761 16.8508 13.1201 16.8704 13.561C16.8804 14.021 16.5247 14.4011 16.0801 14.4102C15.6257 14.4202 15.2502 14.0701 15.2405 13.6111L15.2405 13.6011ZM7.09985 17.24C7.11963 17.7002 7.49512 18.061 7.94946 18.04C8.39404 18.021 8.74976 17.6411 8.72998 17.1812C8.71997 16.7312 8.35449 16.3801 7.90991 16.3801C7.45557 16.4011 7.09985 16.78 7.09985 17.24ZM11.1702 17.24C11.1899 17.7002 11.5654 18.061 12.0198 18.04C12.4644 18.021 12.8201 17.6411 12.8003 17.1812C12.7903 16.7312 12.4248 16.3801 11.9802 16.3801C11.5259 16.4011 11.1702 16.78 11.1702 17.24ZM15.2305 17.24C15.2305 17.7002 15.5959 18.0801 16.0505 18.0901C16.5149 18.0901 16.8901 17.71 16.8901 17.24C16.8901 16.771 16.5149 16.3911 16.0505 16.3911L16.0405 16.3911C15.5862 16.4011 15.2207 16.78 15.2305 17.24Z" clip-rule="evenodd" fill="#212121" fill-opacity="1.000000" fill-rule="evenodd"/>
		<g opacity="0.400000" style="mix-blend-mode:normal">
			<path id="Fill 4" d="M3 9.25C3.01 8.66 3.06 7.5 3.15 7.12C3.63 5.02 5.24 3.68 7.54 3.48L16.45 3.48C18.73 3.69 20.36 5.04 20.84 7.12C20.93 7.49 20.98 8.66 20.99 9.25L3 9.25Z" fill="#212121" fill-opacity="1.000000" fill-rule="nonzero"/>
		</g>
		<path id="Fill 6" d="M8.3 6.59C8.73 6.59 9.06 6.26 9.06 5.82L9.06 2.77C9.06 2.33 8.73 2 8.3 2C7.87 2 7.54 2.33 7.54 2.77L7.54 5.82C7.54 6.26 7.87 6.59 8.3 6.59Z" fill="#212121" fill-opacity="1.000000" fill-rule="nonzero"/>
		<path id="Fill 9" d="M15.69 6.59C16.11 6.59 16.45 6.26 16.45 5.82L16.45 2.77C16.45 2.33 16.11 2 15.69 2C15.26 2 14.93 2.33 14.93 2.77L14.93 5.82C14.93 6.26 15.26 6.59 15.69 6.59Z" fill="#212121" fill-opacity="1.000000" fill-rule="nonzero"/>
	</g>
</svg>
