<svg width="24.000000" height="24.000000" viewBox="0 0 24 24" fill="none" xmlns="http://www.w3.org/2000/svg" xmlns:xlink="http://www.w3.org/1999/xlink">
	<desc>
			Created with Pixso.
	</desc>
	<defs>
		<clipPath id="clip430_9845">
			<rect id="Iconly/Bulk/Info Square" width="24.000000" height="24.000000" fill="white" fill-opacity="0"/>
		</clipPath>
	</defs>
	<rect id="Iconly/Bulk/Info Square" width="24.000000" height="24.000000" fill="#FFFFFF" fill-opacity="0"/>
	<g clip-path="url(#clip430_9845)">
		<g opacity="0.400000" style="mix-blend-mode:normal">
			<path id="Fill 1" d="M16.34 1.99L7.66 1.99C4.28 1.99 2 4.37 2 7.91L2 16.08C2 19.61 4.28 21.99 7.66 21.99L16.34 21.99C19.73 21.99 22 19.61 22 16.08L22 7.91C22 4.37 19.73 1.99 16.34 1.99Z" fill="#212121" fill-opacity="1.000000" fill-rule="nonzero"/>
		</g>
		<path id="Combined Shape" d="M11.1245 8.18921C11.1245 8.67114 11.5156 9.06421 11.9946 9.06421C12.4875 9.06421 12.8796 8.67114 12.8796 8.18921C12.8796 7.70728 12.4875 7.31421 12.0046 7.31421C11.5195 7.31421 11.1245 7.70728 11.1245 8.18921ZM12.8696 11.3621C12.8696 10.8801 12.4766 10.4871 11.9946 10.4871C11.5127 10.4871 11.1196 10.8801 11.1196 11.3621L11.1196 15.782C11.1196 16.2639 11.5127 16.657 11.9946 16.657C12.4766 16.657 12.8696 16.2639 12.8696 15.782L12.8696 11.3621Z" clip-rule="evenodd" fill="#212121" fill-opacity="1.000000" fill-rule="evenodd"/>
	</g>
</svg>
