<svg width="24.000000" height="24.000000" viewBox="0 0 24 24" fill="none" xmlns="http://www.w3.org/2000/svg" xmlns:xlink="http://www.w3.org/1999/xlink">
	<desc>
			Created with Pixso.
	</desc>
	<defs>
		<clipPath id="clip430_9525">
			<rect id="Iconly/Bulk/Arrow - Down Circle" width="24.000000" height="24.000000" fill="white" fill-opacity="0"/>
		</clipPath>
	</defs>
	<rect id="Iconly/Bulk/Arrow - Down Circle" width="24.000000" height="24.000000" fill="#FFFFFF" fill-opacity="0"/>
	<g clip-path="url(#clip430_9525)">
		<rect id="Iconly/Bulk/Arrow - Down Circle" rx="-0.500000" width="23.000000" height="23.000000" transform="translate(0.500000 0.500000)" fill="#FFFFFF" fill-opacity="0"/>
		<g opacity="0.400000" style="mix-blend-mode:normal">
			<path id="Fill 1" d="M22 12C22 17.51 17.51 22 12 22C6.48 22 2 17.51 2 12C2 6.48 6.48 2 12 2C17.51 2 22 6.48 22 12Z" fill="#212121" fill-opacity="1.000000" fill-rule="nonzero"/>
		</g>
		<path id="Fill 4" d="M16.22 10.55C16.22 10.74 16.14 10.94 16 11.08L12.53 14.57C12.39 14.71 12.2 14.79 12 14.79C11.8 14.79 11.61 14.71 11.46 14.57L7.99 11.08C7.7 10.79 7.7 10.31 7.99 10.02C8.29 9.73 8.76 9.73 9.06 10.02L12 12.98L14.94 10.02C15.23 9.73 15.7 9.73 16 10.02C16.14 10.17 16.22 10.36 16.22 10.55Z" fill="#212121" fill-opacity="1.000000" fill-rule="nonzero"/>
	</g>
</svg>
