<svg width="24.000000" height="24.000000" viewBox="0 0 24 24" fill="none" xmlns="http://www.w3.org/2000/svg" xmlns:xlink="http://www.w3.org/1999/xlink">
	<desc>
			Created with Pixso.
	</desc>
	<defs>
		<clipPath id="clip430_9555">
			<rect id="Iconly/Bulk/Paper" width="24.000000" height="24.000000" fill="white" fill-opacity="0"/>
		</clipPath>
	</defs>
	<rect id="Iconly/Bulk/Paper" width="24.000000" height="24.000000" fill="#FFFFFF" fill-opacity="0"/>
	<g clip-path="url(#clip430_9555)">
		<g opacity="0.400000" style="mix-blend-mode:normal">
			<path id="Fill 3" d="M18.8 9.02C18.35 9.02 17.75 9.01 17.01 9.01C15.19 9.01 13.7 7.5 13.7 5.67L13.7 2.45C13.7 2.2 13.5 2 13.25 2L7.96 2C5.49 2 3.5 4.02 3.5 6.5L3.5 17.28C3.5 19.88 5.59 22 8.16 22L16.04 22C18.5 22 20.5 19.98 20.5 17.5L20.5 9.47C20.5 9.21 20.29 9.01 20.04 9.01C19.62 9.01 19.11 9.02 18.8 9.02Z" fill="#212121" fill-opacity="1.000000" fill-rule="nonzero"/>
		</g>
		<g opacity="0.400000" style="mix-blend-mode:normal">
			<path id="Fill 1" d="M16.08 2.56C15.78 2.25 15.26 2.47 15.26 2.9L15.26 5.53C15.26 6.64 16.17 7.55 17.28 7.55C17.97 7.56 18.94 7.56 19.76 7.56C20.18 7.56 20.4 7.05 20.1 6.75C19.05 5.65 17.16 3.69 16.08 2.56Z" fill="#212121" fill-opacity="1.000000" fill-rule="nonzero"/>
		</g>
		<path id="Combined Shape" d="M8.97388 11.3877L12.3589 11.3877C12.77 11.3877 13.104 11.0547 13.104 10.6438C13.104 10.2327 12.77 9.89868 12.3589 9.89868L8.97388 9.89868C8.56299 9.89868 8.22998 10.2327 8.22998 10.6438C8.22998 11.0547 8.56299 11.3877 8.97388 11.3877ZM8.97412 16.3818L14.418 16.3818C14.8291 16.3818 15.1631 16.0488 15.1631 15.6379C15.1631 15.2268 14.8291 14.8928 14.418 14.8928L8.97412 14.8928C8.56299 14.8928 8.22998 15.2268 8.22998 15.6379C8.22998 16.0488 8.56299 16.3818 8.97412 16.3818Z" clip-rule="evenodd" fill="#212121" fill-opacity="1.000000" fill-rule="evenodd"/>
	</g>
</svg>
