<svg width="24.000000" height="24.000000" viewBox="0 0 24 24" fill="none" xmlns="http://www.w3.org/2000/svg" xmlns:xlink="http://www.w3.org/1999/xlink">
	<desc>
			Created with Pixso.
	</desc>
	<defs>
		<clipPath id="clip430_9717">
			<rect id="Iconly/Bulk/Home" width="24.000000" height="24.000000" fill="white" fill-opacity="0"/>
		</clipPath>
	</defs>
	<rect id="Iconly/Bulk/Home" width="24.000000" height="24.000000" fill="#FFFFFF" fill-opacity="0"/>
	<g clip-path="url(#clip430_9717)">
		<path id="Home" d="M9.14 20.78L9.14 17.71C9.14 16.93 9.77 16.3 10.55 16.3L13.43 16.3C14.21 16.3 14.85 16.93 14.85 17.71L14.85 20.77C14.85 21.44 15.4 21.99 16.08 22L18.04 22C18.95 22 19.83 21.64 20.48 21C21.13 20.35 21.5 19.48 21.5 18.57L21.5 9.86C21.5 9.13 21.17 8.43 20.6 7.96L13.94 2.67C12.77 1.74 11.11 1.77 9.98 2.74L3.46 7.96C2.87 8.42 2.51 9.11 2.5 9.86L2.5 18.56C2.5 20.46 4.04 22 5.95 22L7.87 22C8.19 22 8.51 21.87 8.74 21.64C8.97 21.41 9.1 21.1 9.1 20.78L9.14 20.78Z" fill="#212121" fill-opacity="1.000000" fill-rule="nonzero"/>
	</g>
</svg>
