<svg width="24.000000" height="24.000000" viewBox="0 0 24 24" fill="none" xmlns="http://www.w3.org/2000/svg" xmlns:xlink="http://www.w3.org/1999/xlink">
	<desc>
			Created with Pixso.
	</desc>
	<defs>
		<clipPath id="clip430_9507">
			<rect id="Iconly/Bulk/Arrow - Up" width="24.000000" height="24.000000" fill="white" fill-opacity="0"/>
		</clipPath>
	</defs>
	<rect id="Iconly/Bulk/Arrow - Up" width="24.000000" height="24.000000" fill="#FFFFFF" fill-opacity="0"/>
	<g clip-path="url(#clip430_9507)">
		<rect id="Iconly/Bulk/Arrow - Up" width="24.000000" height="24.000000" fill="#FFFFFF" fill-opacity="0"/>
		<g opacity="0.400000" style="mix-blend-mode:normal">
			<path id="Fill 1" d="M13.19 15.79L13.51 19.49C13.51 20.32 12.83 21 11.99 21C11.16 21 10.48 20.32 10.48 19.49L10.8 15.79C10.8 15.14 11.34 14.61 11.99 14.61C12.65 14.61 13.19 15.14 13.19 15.79Z" fill="#212121" fill-opacity="1.000000" fill-rule="nonzero"/>
		</g>
		<path id="Fill 4" d="M13.13 3.37C13.18 3.43 13.43 3.64 13.64 3.85C14.92 5.03 17.02 8.12 17.66 9.74C17.76 9.98 17.98 10.6 18 10.94C18 11.25 17.92 11.56 17.78 11.85C17.57 12.21 17.25 12.5 16.87 12.65C16.61 12.76 15.82 12.92 15.81 12.92C14.95 13.07 13.55 13.16 12 13.16C10.53 13.16 9.19 13.07 8.31 12.94C8.3 12.93 7.32 12.77 6.99 12.6C6.37 12.28 6 11.66 6 10.99L6 10.94C6.01 10.5 6.39 9.59 6.4 9.59C7.04 8.06 9.04 5.05 10.37 3.83C10.37 3.83 10.71 3.49 10.92 3.34C11.23 3.11 11.61 3 11.99 3C12.41 3 12.8 3.12 13.13 3.37Z" fill="#212121" fill-opacity="1.000000" fill-rule="nonzero"/>
	</g>
</svg>
