<svg width="24.000000" height="24.000000" viewBox="0 0 24 24" fill="none" xmlns="http://www.w3.org/2000/svg" xmlns:xlink="http://www.w3.org/1999/xlink">
	<desc>
			Created with Pixso.
	</desc>
	<defs>
		<clipPath id="clip430_9772">
			<rect id="Iconly/Bulk/Swap" width="24.000000" height="24.000000" fill="white" fill-opacity="0"/>
		</clipPath>
	</defs>
	<rect id="Iconly/Bulk/Swap" width="24.000000" height="24.000000" fill="#FFFFFF" fill-opacity="0"/>
	<g clip-path="url(#clip430_9772)">
		<g opacity="0.400000" style="mix-blend-mode:normal">
			<path id="Fill 1" d="M6.7 12.89C6.18 12.89 5.77 13.31 5.77 13.83L5.51 18.41C5.51 19.08 6.04 19.62 6.7 19.62C7.36 19.62 7.89 19.08 7.89 18.41L7.63 13.83C7.63 13.31 7.22 12.89 6.7 12.89Z" fill="#212121" fill-opacity="1.000000" fill-rule="nonzero"/>
		</g>
		<path id="Fill 3" d="M7.98 3.67C7.98 3.67 7.71 3.39 7.54 3.27C7.3 3.09 7 3 6.71 3C6.37 3 6.07 3.1 5.81 3.3C5.77 3.34 5.57 3.52 5.41 3.68C4.41 4.63 2.76 7.12 2.26 8.42C2.18 8.61 2.01 9.11 2 9.38C2 9.63 2.05 9.88 2.17 10.11C2.33 10.4 2.58 10.63 2.88 10.76C3.08 10.84 3.7 10.97 3.71 10.97C4.38 11.1 5.48 11.17 6.69 11.17C7.85 11.17 8.9 11.1 9.59 10.99C9.6 10.98 10.37 10.85 10.63 10.71C11.11 10.46 11.41 9.96 11.41 9.43L11.41 9.38C11.4 9.03 11.1 8.3 11.09 8.3C10.58 7.07 9.02 4.64 7.98 3.67Z" fill="#212121" fill-opacity="1.000000" fill-rule="nonzero"/>
		<g opacity="0.400000" style="mix-blend-mode:normal">
			<path id="Fill 6" d="M17.29 11.1C17.81 11.1 18.22 10.68 18.22 10.16L18.48 5.58C18.48 4.91 17.95 4.37 17.29 4.37C16.63 4.37 16.1 4.91 16.1 5.58L16.36 10.16C16.36 10.68 16.77 11.1 17.29 11.1Z" fill="#212121" fill-opacity="1.000000" fill-rule="nonzero"/>
		</g>
		<path id="Fill 8" d="M21.82 13.88C21.66 13.59 21.41 13.36 21.12 13.23C20.91 13.15 20.29 13.02 20.28 13.02C19.61 12.89 18.51 12.82 17.29 12.82C16.14 12.82 15.09 12.89 14.4 13C14.39 13.01 13.62 13.14 13.36 13.28C12.88 13.53 12.58 14.03 12.58 14.57L12.58 14.61C12.6 14.96 12.89 15.69 12.9 15.69C13.41 16.92 14.97 19.35 16.01 20.32C16.01 20.32 16.28 20.6 16.45 20.72C16.69 20.9 16.99 21 17.28 21C17.62 21 17.92 20.89 18.18 20.69C18.22 20.65 18.42 20.47 18.58 20.31C19.58 19.36 21.23 16.87 21.73 15.58C21.81 15.38 21.98 14.88 22 14.61C22 14.36 21.94 14.11 21.82 13.88Z" fill="#212121" fill-opacity="1.000000" fill-rule="nonzero"/>
	</g>
</svg>
