<svg width="24.000000" height="24.000000" viewBox="0 0 24 24" fill="none" xmlns="http://www.w3.org/2000/svg" xmlns:xlink="http://www.w3.org/1999/xlink">
	<desc>
			Created with Pixso.
	</desc>
	<defs>
		<clipPath id="clip430_9720">
			<rect id="Iconly/Bulk/Bookmark" width="24.000000" height="24.000000" fill="white" fill-opacity="0"/>
		</clipPath>
	</defs>
	<rect id="Iconly/Bulk/Bookmark" width="24.000000" height="24.000000" fill="#FFFFFF" fill-opacity="0"/>
	<g clip-path="url(#clip430_9720)">
		<g opacity="0.400000" style="mix-blend-mode:normal">
			<path id="Bookmark 2" d="M11.99 18.62L5.49 21.86C5 22.13 4.39 21.95 4.12 21.46C4.04 21.31 4 21.14 4 20.96L4 13.7C4 14.42 4.4 14.87 5.47 15.37L11.99 18.62Z" fill="#212121" fill-opacity="1.000000" fill-rule="nonzero"/>
		</g>
		<path id="Bookmark" d="M15.0696 2L8.89526 2C6.19629 2 4 3.06616 4 5.79346L4 13.7087C4 14.4285 4.40576 14.8726 5.4729 15.3701L11.9912 18.6216L18.4741 21.864C18.7129 22.0022 18.9971 22.0369 19.2615 21.9597C19.5259 21.8826 19.748 21.7007 19.8765 21.4556C19.9565 21.3052 19.999 21.1375 20 20.9668L20 5.79346C19.9736 3.06616 17.7773 2 15.0696 2ZM8.22485 9.62231L15.7485 9.62231C16.1821 9.62231 16.5337 9.26831 16.5337 8.83154C16.5337 8.39502 16.1821 8.04102 15.7485 8.04102L8.22485 8.04102C7.79126 8.04102 7.43994 8.39502 7.43994 8.83154C7.43994 9.26831 7.79126 9.62231 8.22485 9.62231Z" clip-rule="evenodd" fill="#212121" fill-opacity="1.000000" fill-rule="evenodd"/>
	</g>
</svg>
