<svg width="24.000000" height="24.000000" viewBox="0 0 24 24" fill="none" xmlns="http://www.w3.org/2000/svg" xmlns:xlink="http://www.w3.org/1999/xlink">
	<desc>
			Created with Pixso.
	</desc>
	<defs>
		<clipPath id="clip430_9603">
			<rect id="Iconly/Bulk/Show" width="24.000000" height="24.000000" fill="white" fill-opacity="0"/>
		</clipPath>
	</defs>
	<rect id="Iconly/Bulk/Show" width="24.000000" height="24.000000" fill="#FFFFFF" fill-opacity="0"/>
	<g clip-path="url(#clip430_9603)">
		<g opacity="0.400000" style="mix-blend-mode:normal">
			<path id="Fill 1" d="M17.7366 6.04614C19.4438 7.36377 20.8975 9.29443 21.9414 11.709C22.0195 11.8923 22.0195 12.1067 21.9414 12.2812C19.8538 17.1104 16.1365 20 12 20L11.9902 20C7.86353 20 4.14624 17.1104 2.05859 12.2812C1.98047 12.1067 1.98047 11.8923 2.05859 11.709C4.14624 6.87915 7.86353 4 11.9902 4L12 4C14.0684 4 16.0293 4.71753 17.7366 6.04614ZM8.09766 12C8.09766 14.1333 9.84399 15.8691 12 15.8691C14.1462 15.8691 15.8926 14.1333 15.8926 12C15.8926 9.85693 14.1462 8.12109 12 8.12109C9.84399 8.12109 8.09766 9.85693 8.09766 12Z" clip-rule="evenodd" fill="#212121" fill-opacity="1.000000" fill-rule="evenodd"/>
		</g>
		<path id="Fill 4" d="M14.43 11.99C14.43 13.32 13.33 14.41 12 14.41C10.65 14.41 9.56 13.32 9.56 11.99C9.56 11.83 9.58 11.67 9.61 11.52L9.66 11.52C10.74 11.52 11.62 10.66 11.66 9.6C11.76 9.58 11.88 9.57 12 9.57C13.33 9.57 14.43 10.65 14.43 11.99Z" fill="#212121" fill-opacity="1.000000" fill-rule="nonzero"/>
	</g>
</svg>
