<svg width="24.000000" height="24.000000" viewBox="0 0 24 24" fill="none" xmlns="http://www.w3.org/2000/svg" xmlns:xlink="http://www.w3.org/1999/xlink">
	<desc>
			Created with Pixso.
	</desc>
	<defs/>
	<rect id="Iconly/Light/Hide" width="24.000000" height="24.000000" fill="#FFFFFF" fill-opacity="0"/>
	<path id="Stroke 1" d="M9.76 14.36C9.18 13.79 8.83 13.01 8.83 12.13C8.83 10.38 10.24 8.97 11.99 8.97C12.86 8.97 13.66 9.32 14.22 9.89" stroke="#212121" stroke-opacity="1.000000" stroke-width="1.500000" stroke-linejoin="round" stroke-linecap="round"/>
	<path id="Stroke 3" d="M15.1 12.69C14.87 13.98 13.85 15 12.56 15.24" stroke="#212121" stroke-opacity="1.000000" stroke-width="1.500000" stroke-linejoin="round" stroke-linecap="round"/>
	<path id="Stroke 5" d="M6.65 17.47C5.06 16.22 3.72 14.4 2.74 12.13C3.73 9.85 5.08 8.02 6.68 6.77C8.27 5.51 10.1 4.83 11.99 4.83C13.9 4.83 15.73 5.52 17.33 6.79" stroke="#212121" stroke-opacity="1.000000" stroke-width="1.500000" stroke-linejoin="round" stroke-linecap="round"/>
	<path id="Stroke 7" d="M19.44 8.99C20.13 9.9 20.74 10.95 21.24 12.13C19.28 16.69 15.8 19.43 11.99 19.43C11.13 19.43 10.28 19.29 9.46 19.02" stroke="#212121" stroke-opacity="1.000000" stroke-width="1.500000" stroke-linejoin="round" stroke-linecap="round"/>
	<path id="Stroke 9" d="M19.88 4.24L4.11 20.02" stroke="#212121" stroke-opacity="1.000000" stroke-width="1.500000" stroke-linejoin="round" stroke-linecap="round"/>
</svg>
