<svg width="24.000000" height="24.000000" viewBox="0 0 24 24" fill="none" xmlns="http://www.w3.org/2000/svg" xmlns:xlink="http://www.w3.org/1999/xlink">
	<desc>
			Created with Pixso.
	</desc>
	<defs/>
	<rect id="Iconly/Light/Filter" width="24.000000" height="24.000000" fill="#FFFFFF" fill-opacity="0"/>
	<path id="Stroke 1" d="M10.33 16.59L4.02 16.59" stroke="#212121" stroke-opacity="1.000000" stroke-width="1.500000" stroke-linejoin="round" stroke-linecap="round"/>
	<path id="Stroke 3" d="M13.14 6.9L19.44 6.9" stroke="#212121" stroke-opacity="1.000000" stroke-width="1.500000" stroke-linejoin="round" stroke-linecap="round"/>
	<path id="Stroke 5" d="M6.36 4.5C5.05 4.5 4 5.55 4 6.84C4 8.14 5.05 9.19 6.36 9.19C7.66 9.19 8.72 8.14 8.72 6.84C8.72 5.55 7.66 4.5 6.36 4.5Z" stroke="#212121" stroke-opacity="1.000000" stroke-width="1.500000" stroke-linejoin="round"/>
	<path id="Stroke 7" d="M17.63 14.2C16.33 14.2 15.27 15.25 15.27 16.55C15.27 17.84 16.33 18.9 17.63 18.9C18.94 18.9 20 17.84 20 16.55C20 15.25 18.94 14.2 17.63 14.2Z" stroke="#212121" stroke-opacity="1.000000" stroke-width="1.500000" stroke-linejoin="round"/>
</svg>
