<svg width="24.000000" height="24.000000" viewBox="0 0 24 24" fill="none" xmlns="http://www.w3.org/2000/svg" xmlns:xlink="http://www.w3.org/1999/xlink">
	<desc>
			Created with Pixso.
	</desc>
	<defs/>
	<rect id="Iconly/Light/Edit Square" width="24.000000" height="24.000000" fill="#FFFFFF" fill-opacity="0"/>
	<path id="Stroke 1" d="M11.49 2.78L7.75 2.78C4.67 2.78 2.75 4.96 2.75 8.04L2.75 16.36C2.75 19.44 4.66 21.62 7.75 21.62L16.57 21.62C19.66 21.62 21.58 19.44 21.58 16.36L21.58 12.33" stroke="#212121" stroke-opacity="1.000000" stroke-width="1.500000" stroke-linejoin="round" stroke-linecap="round"/>
	<path id="Stroke 3" d="M16.3 3.44C17.23 2.51 18.74 2.51 19.67 3.44L20.88 4.66C21.81 5.59 21.81 7.1 20.88 8.03L13.37 15.54C12.97 15.95 12.42 16.18 11.84 16.18L8.09 16.18L8.19 12.4C8.2 11.84 8.43 11.31 8.82 10.92L16.3 3.44Z" stroke="#212121" stroke-opacity="1.000000" stroke-width="1.500000" stroke-linejoin="round"/>
	<path id="Stroke 5" d="M15.16 4.6L19.73 9.16" stroke="#212121" stroke-opacity="1.000000" stroke-width="1.500000" stroke-linejoin="round" stroke-linecap="round"/>
</svg>
