<svg width="24.000000" height="24.000000" viewBox="0 0 24 24" fill="none" xmlns="http://www.w3.org/2000/svg" xmlns:xlink="http://www.w3.org/1999/xlink">
	<desc>
			Created with Pixso.
	</desc>
	<defs/>
	<rect id="Iconly/Light/Wallet" width="24.000000" height="24.000000" fill="#FFFFFF" fill-opacity="0"/>
	<path id="Stroke 1" d="M21.63 14.39L17.59 14.39C16.1 14.39 14.89 13.19 14.89 11.7C14.89 10.21 16.1 9.01 17.59 9.01L21.63 9.01" stroke="#212121" stroke-opacity="1.000000" stroke-width="1.500000" stroke-linejoin="round" stroke-linecap="round"/>
	<path id="Stroke 3" d="M18.04 11.64L17.73 11.64" stroke="#212121" stroke-opacity="1.000000" stroke-width="1.500000" stroke-linejoin="round" stroke-linecap="round"/>
	<path id="Stroke 5" d="M16.39 3C19.28 3 21.63 5.34 21.63 8.24L21.63 15.42C21.63 18.32 19.28 20.67 16.39 20.67L7.74 20.67C4.84 20.67 2.5 18.32 2.5 15.42L2.5 8.24C2.5 5.34 4.84 3 7.74 3L16.39 3Z" stroke="#212121" stroke-opacity="1.000000" stroke-width="1.500000" stroke-linejoin="round"/>
	<path id="Stroke 7" d="M7.03 7.53L12.43 7.53" stroke="#212121" stroke-opacity="1.000000" stroke-width="1.500000" stroke-linejoin="round" stroke-linecap="round"/>
</svg>
