<svg width="24.000000" height="24.000000" viewBox="0 0 24 24" fill="none" xmlns="http://www.w3.org/2000/svg" xmlns:xlink="http://www.w3.org/1999/xlink">
	<desc>
			Created with Pixso.
	</desc>
	<defs/>
	<rect id="Iconly/Light/Ticket" width="24.000000" height="24.000000" fill="#FFFFFF" fill-opacity="0"/>
	<path id="Stroke 1" d="M13.84 4.25L13.84 6.67" stroke="#212121" stroke-opacity="1.000000" stroke-width="1.500000" stroke-linejoin="round" stroke-linecap="round"/>
	<path id="Stroke 3" d="M13.84 17.76L13.84 19.78" stroke="#212121" stroke-opacity="1.000000" stroke-width="1.500000" stroke-linejoin="round" stroke-linecap="round"/>
	<path id="Stroke 6" d="M13.84 14.32L13.84 9.5" stroke="#212121" stroke-opacity="1.000000" stroke-width="1.500000" stroke-linejoin="round" stroke-linecap="round"/>
	<path id="Stroke 7" d="M22 16.74L22 14.15C20.79 14.15 19.82 13.19 19.82 12C19.82 10.81 20.79 9.85 22 9.85L21.99 7.25C21.99 5.45 20.52 4 18.7 4L5.29 4C3.47 4 2 5.45 2 7.25L2 9.93C3.2 9.93 4.17 10.81 4.17 12C4.17 13.19 3.2 14.15 2 14.15L2 16.74C2 18.54 3.47 20 5.29 20L18.7 20C20.52 20 22 18.54 22 16.74Z" stroke="#212121" stroke-opacity="1.000000" stroke-width="1.500000" stroke-linejoin="round"/>
</svg>
