<svg width="24.000000" height="24.000000" viewBox="0 0 24 24" fill="none" xmlns="http://www.w3.org/2000/svg" xmlns:xlink="http://www.w3.org/1999/xlink">
	<desc>
			Created with Pixso.
	</desc>
	<defs/>
	<rect id="Iconly/Light/Volume Up" width="24.000000" height="24.000000" fill="#FFFFFF" fill-opacity="0"/>
	<path id="Stroke 1" d="M3.2 15.53C3.91 16.11 4.41 15.96 5.7 16.06C7 16.15 9.74 19.96 11.85 18.76C12.93 17.9 13.02 16.11 13.02 12C13.02 7.88 12.93 6.09 11.85 5.23C9.74 4.02 7 7.84 5.7 7.93C4.41 8.03 3.91 7.88 3.2 8.46C2.44 9.09 2.49 10.77 2.5 12C2.49 13.22 2.44 14.9 3.2 15.53Z" stroke="#212121" stroke-opacity="1.000000" stroke-width="1.500000" stroke-linejoin="round"/>
	<path id="Stroke 3" d="M19.58 5.9C22.13 9.57 22.14 14.41 19.58 18.09" stroke="#212121" stroke-opacity="1.000000" stroke-width="1.500000" stroke-linejoin="round" stroke-linecap="round"/>
	<path id="Stroke 5" d="M17.08 8.31C18.39 10.6 18.39 13.4 17.08 15.68" stroke="#212121" stroke-opacity="1.000000" stroke-width="1.500000" stroke-linejoin="round" stroke-linecap="round"/>
</svg>
