<svg width="24.000000" height="24.000000" viewBox="0 0 24 24" fill="none" xmlns="http://www.w3.org/2000/svg" xmlns:xlink="http://www.w3.org/1999/xlink">
	<desc>
			Created with Pixso.
	</desc>
	<defs/>
	<rect id="Iconly/Light/Graph" width="24.000000" height="24.000000" fill="#FFFFFF" fill-opacity="0"/>
	<path id="Stroke 1" d="M18.41 15.11C17.81 19.03 14.45 21.94 10.4 21.94C5.92 21.94 2.3 18.31 2.3 13.83C2.3 10.14 5.1 6.71 8.25 5.93C8.93 5.76 9.62 6.24 9.62 6.94C9.62 11.67 9.78 12.89 10.68 13.55C11.58 14.22 12.64 13.88 17.27 13.88C17.95 13.88 18.51 14.44 18.41 15.11Z" stroke="#212121" stroke-opacity="1.000000" stroke-width="1.500000" stroke-linejoin="round"/>
	<path id="Stroke 3" d="M13.46 2.1C13.11 2.1 12.83 2.4 12.81 2.75C12.7 5.25 12.85 8.48 12.94 9.95C12.96 10.41 13.32 10.77 13.78 10.79C15.29 10.88 18.64 11 21.1 10.63C21.44 10.58 21.68 10.28 21.69 9.95C21.74 6.91 18.01 2.01 13.46 2.1Z" stroke="#212121" stroke-opacity="1.000000" stroke-width="1.500000" stroke-linejoin="round"/>
</svg>
