<svg width="24.000000" height="24.000000" viewBox="0 0 24 24" fill="none" xmlns="http://www.w3.org/2000/svg" xmlns:xlink="http://www.w3.org/1999/xlink">
	<desc>
			Created with Pixso.
	</desc>
	<defs/>
	<rect id="Iconly/Light/Lock" width="24.000000" height="24.000000" fill="#FFFFFF" fill-opacity="0"/>
	<path id="Stroke 1" d="M16.42 9.44L16.42 7.3C16.42 4.78 14.38 2.74 11.87 2.74C9.35 2.73 7.31 4.76 7.3 7.28L7.3 7.3L7.3 9.44" stroke="#212121" stroke-opacity="1.000000" stroke-width="1.500000" stroke-linejoin="round" stroke-linecap="round"/>
	<path id="Stroke 3" d="M8.04 21.24C5.94 21.24 4.25 19.55 4.25 17.45L4.25 13.16C4.25 11.07 5.94 9.37 8.04 9.37L15.68 9.37C17.77 9.37 19.47 11.07 19.47 13.16L19.47 17.45C19.47 19.55 17.77 21.24 15.68 21.24L8.04 21.24Z" stroke="#212121" stroke-opacity="1.000000" stroke-width="1.500000" stroke-linejoin="round"/>
	<path id="Stroke 5" d="M11.86 14.2L11.86 16.42" stroke="#212121" stroke-opacity="1.000000" stroke-width="1.500000" stroke-linejoin="round" stroke-linecap="round"/>
</svg>
