<svg width="24.000000" height="24.000000" viewBox="0 0 24 24" fill="none" xmlns="http://www.w3.org/2000/svg" xmlns:xlink="http://www.w3.org/1999/xlink">
	<desc>
			Created with Pixso.
	</desc>
	<defs/>
	<rect id="Iconly/Light/Ticket Star" width="24.000000" height="24.000000" fill="#FFFFFF" fill-opacity="0"/>
	<path id="Stroke 1" d="M21.25 17.02L21.25 17.02L21.25 14.32C20.01 14.32 19.01 13.32 19.01 12.08C19.01 10.84 20.01 9.84 21.24 9.84L21.25 9.84L21.25 7.14C21.25 5.27 19.73 3.75 17.86 3.75L17.85 3.75L6.14 3.75C4.27 3.75 2.75 5.26 2.75 7.14L2.75 7.14L2.75 9.93C3.94 9.89 4.94 10.82 4.98 12.01C4.98 12.04 4.98 12.06 4.98 12.08C4.99 13.32 3.99 14.32 2.75 14.32L2.75 14.32L2.75 17.02C2.74 18.89 4.26 20.41 6.14 20.41L6.14 20.41L17.85 20.41C19.73 20.41 21.24 18.89 21.25 17.02Z" stroke="#212121" stroke-opacity="1.000000" stroke-width="1.500000" stroke-linejoin="round"/>
	<path id="Stroke 3" d="M12.98 10.31C13.04 10.43 13.16 10.51 13.29 10.53L14.67 10.73C15.01 10.78 15.15 11.2 14.9 11.44L13.9 12.41C13.81 12.51 13.76 12.64 13.78 12.78L14.02 14.15C14.08 14.49 13.72 14.74 13.42 14.58L12.19 13.94C12.07 13.87 11.92 13.87 11.8 13.94L10.57 14.58C10.27 14.74 9.91 14.49 9.97 14.15L10.2 12.78C10.23 12.64 10.18 12.51 10.08 12.41L9.09 11.44C8.84 11.2 8.98 10.78 9.32 10.73L10.7 10.53C10.83 10.51 10.95 10.43 11.01 10.31L11.62 9.06C11.77 8.75 12.21 8.75 12.37 9.06L12.98 10.31Z" stroke="#212121" stroke-opacity="1.000000" stroke-width="1.500000" stroke-linejoin="round"/>
</svg>
