<svg width="24.000000" height="24.000000" viewBox="0 0 24 24" fill="none" xmlns="http://www.w3.org/2000/svg" xmlns:xlink="http://www.w3.org/1999/xlink">
	<desc>
			Created with Pixso.
	</desc>
	<defs/>
	<rect id="Iconly/Light/Buy" width="24.000000" height="24.000000" fill="#FFFFFF" fill-opacity="0"/>
	<path id="Stroke 1" d="M2.75 3.24L4.83 3.6L5.79 15.08C5.87 16.01 6.65 16.73 7.59 16.73L18.5 16.73C19.39 16.73 20.15 16.07 20.28 15.18L21.23 8.63C21.34 7.89 20.83 7.21 20.1 7.11C20.03 7.1 5.16 7.09 5.16 7.09" stroke="#212121" stroke-opacity="1.000000" stroke-width="1.500000" stroke-linejoin="round" stroke-linecap="round"/>
	<path id="Stroke 3" d="M14.12 10.79L16.89 10.79" stroke="#212121" stroke-opacity="1.000000" stroke-width="1.500000" stroke-linejoin="round" stroke-linecap="round"/>
	<path id="Stroke 5" d="M7.15 20.2C7.45 20.2 7.69 20.44 7.69 20.74C7.69 21.04 7.45 21.29 7.15 21.29C6.85 21.29 6.61 21.04 6.61 20.74C6.61 20.44 6.85 20.2 7.15 20.2Z" fill="#212121" fill-opacity="1.000000" fill-rule="evenodd"/>
	<path id="Stroke 5" d="M7.69 20.74C7.69 21.04 7.45 21.29 7.15 21.29C6.85 21.29 6.61 21.04 6.61 20.74C6.61 20.44 6.85 20.2 7.15 20.2C7.45 20.2 7.69 20.44 7.69 20.74Z" stroke="#212121" stroke-opacity="1.000000" stroke-width="1.500000" stroke-linejoin="round"/>
	<path id="Stroke 7" d="M18.43 20.2C18.73 20.2 18.97 20.44 18.97 20.74C18.97 21.04 18.73 21.29 18.43 21.29C18.13 21.29 17.89 21.04 17.89 20.74C17.89 20.44 18.13 20.2 18.43 20.2Z" fill="#212121" fill-opacity="1.000000" fill-rule="evenodd"/>
	<path id="Stroke 7" d="M18.97 20.74C18.97 21.04 18.73 21.29 18.43 21.29C18.13 21.29 17.89 21.04 17.89 20.74C17.89 20.44 18.13 20.2 18.43 20.2C18.73 20.2 18.97 20.44 18.97 20.74Z" stroke="#212121" stroke-opacity="1.000000" stroke-width="1.500000" stroke-linejoin="round"/>
</svg>
