<svg width="24.000000" height="24.000000" viewBox="0 0 24 24" fill="none" xmlns="http://www.w3.org/2000/svg" xmlns:xlink="http://www.w3.org/1999/xlink">
	<desc>
			Created with Pixso.
	</desc>
	<defs/>
	<rect id="Iconly/Light/2 User" width="24.000000" height="24.000000" fill="#FFFFFF" fill-opacity="0"/>
	<path id="Stroke 1" d="M16.43 17.99C16.43 20.23 13.3 20.8 9.59 20.8C5.9 20.8 2.74 20.25 2.74 18.01C2.74 15.78 5.88 15.2 9.59 15.2C13.28 15.2 16.43 15.76 16.43 17.99Z" stroke="#212121" stroke-opacity="1.000000" stroke-width="1.500000" stroke-linejoin="round"/>
	<path id="Stroke 3" d="M5.2 7.63C5.2 5.21 7.16 3.24 9.59 3.24C12.01 3.24 13.97 5.21 13.97 7.63C13.98 10.04 12.03 12.01 9.62 12.01L9.59 12.01C7.16 12.01 5.2 10.05 5.2 7.63Z" stroke="#212121" stroke-opacity="1.000000" stroke-width="1.500000" stroke-linejoin="round"/>
	<path id="Stroke 5" d="M16.48 10.88C18.08 10.65 19.31 9.28 19.32 7.61C19.32 5.98 18.12 4.62 16.55 4.36" stroke="#212121" stroke-opacity="1.000000" stroke-width="1.500000" stroke-linejoin="round" stroke-linecap="round"/>
	<path id="Stroke 7" d="M18.59 14.73C20.14 14.96 21.22 15.5 21.22 16.62C21.22 17.39 20.71 17.89 19.89 18.21" stroke="#212121" stroke-opacity="1.000000" stroke-width="1.500000" stroke-linejoin="round" stroke-linecap="round"/>
</svg>
