<svg width="24.000000" height="24.000000" viewBox="0 0 24 24" fill="none" xmlns="http://www.w3.org/2000/svg" xmlns:xlink="http://www.w3.org/1999/xlink">
	<desc>
			Created with Pixso.
	</desc>
	<defs/>
	<rect id="Iconly/Light/Video" width="24.000000" height="24.000000" fill="#FFFFFF" fill-opacity="0"/>
	<path id="Stroke 1" d="M12.99 18.99C12.85 19 6.01 18.98 6.01 18.98C4.11 19.13 2.46 17.77 2.31 15.94C2.3 15.81 2.3 8.47 2.3 8.47C2.21 6.63 3.69 5.08 5.6 5C5.74 4.99 12.57 5.01 12.57 5.01C14.47 4.86 16.14 6.23 16.28 8.07C16.29 8.2 16.29 15.53 16.29 15.53C16.37 17.37 14.89 18.91 12.99 18.99Z" stroke="#212121" stroke-opacity="1.000000" stroke-width="1.500000" stroke-linejoin="round"/>
	<path id="Stroke 3" d="M16.29 9.97L19.59 7.28C20.4 6.61 21.63 7.19 21.63 8.25L21.62 15.6C21.61 16.65 20.39 17.23 19.58 16.56L16.29 13.86" stroke="#212121" stroke-opacity="1.000000" stroke-width="1.500000" stroke-linejoin="round" stroke-linecap="round"/>
</svg>
