<svg width="24.000000" height="24.000000" viewBox="0 0 24 24" fill="none" xmlns="http://www.w3.org/2000/svg" xmlns:xlink="http://www.w3.org/1999/xlink">
	<desc>
			Created with Pixso.
	</desc>
	<defs/>
	<rect id="Iconly/Light/Work" width="24.000000" height="24.000000" fill="#FFFFFF" fill-opacity="0"/>
	<path id="Stroke 1" d="M11.99 16.67L11.99 14.13" stroke="#212121" stroke-opacity="1.000000" stroke-width="1.500000" stroke-linejoin="round" stroke-linecap="round"/>
	<path id="Stroke 2" d="M21.24 8.39L21.24 11.83C18.78 13.27 15.53 14.14 11.99 14.14C8.44 14.14 5.2 13.27 2.75 11.83L2.75 8.38C2.75 6.69 4.12 5.33 5.81 5.33L18.18 5.33C19.87 5.33 21.24 6.7 21.24 8.39Z" stroke="#212121" stroke-opacity="1.000000" stroke-width="1.500000" stroke-linejoin="round"/>
	<path id="Stroke 4" d="M15.49 5.32L15.49 4.95C15.49 3.73 14.5 2.74 13.28 2.74L10.7 2.74C9.48 2.74 8.49 3.73 8.49 4.95L8.49 5.32" stroke="#212121" stroke-opacity="1.000000" stroke-width="1.500000" stroke-linejoin="round" stroke-linecap="round"/>
	<path id="Stroke 6" d="M2.77 15.48L2.96 17.99C3.09 19.68 4.5 20.99 6.19 20.99L17.79 20.99C19.48 20.99 20.89 19.68 21.02 17.99L21.21 15.48" stroke="#212121" stroke-opacity="1.000000" stroke-width="1.500000" stroke-linejoin="round" stroke-linecap="round"/>
</svg>
