<svg width="24.000000" height="24.000000" viewBox="0 0 24 24" fill="none" xmlns="http://www.w3.org/2000/svg" xmlns:xlink="http://www.w3.org/1999/xlink">
	<desc>
			Created with Pixso.
	</desc>
	<defs/>
	<rect id="Iconly/Light/Star" width="24.000000" height="24.000000" fill="#FFFFFF" fill-opacity="0"/>
	<path id="Stroke 1" d="M14.93 7.82C15.11 8.18 15.45 8.43 15.85 8.49L19.94 9.08C20.95 9.22 21.35 10.45 20.62 11.15L17.67 13.99C17.37 14.27 17.24 14.67 17.31 15.06L18.01 19.07C18.18 20.06 17.12 20.82 16.22 20.35L12.57 18.46C12.21 18.27 11.78 18.27 11.42 18.46L7.77 20.35C6.87 20.82 5.81 20.06 5.98 19.07L6.68 15.06C6.75 14.67 6.62 14.27 6.32 13.99L3.37 11.15C2.64 10.45 3.04 9.22 4.05 9.08L8.14 8.49C8.54 8.43 8.89 8.18 9.06 7.82L10.89 4.17C11.34 3.27 12.65 3.27 13.1 4.17L14.93 7.82Z" stroke="#212121" stroke-opacity="1.000000" stroke-width="1.500000" stroke-linejoin="round"/>
</svg>
