<svg width="24.000000" height="24.000000" viewBox="0 0 24 24" fill="none" xmlns="http://www.w3.org/2000/svg" xmlns:xlink="http://www.w3.org/1999/xlink">
	<desc>
			Created with Pixso.
	</desc>
	<defs/>
	<rect id="Iconly/Light/Volume Off" width="24.000000" height="24.000000" fill="#FFFFFF" fill-opacity="0"/>
	<path id="Stroke 1" d="M7.71 16.28C7.53 16.18 7.36 16.11 7.21 16.1C5.92 16.01 5.41 16.16 4.7 15.55C3.94 14.9 4 13.16 4 11.88C4 10.6 3.94 8.86 4.7 8.2C5.41 7.6 5.92 7.75 7.21 7.65C8.51 7.55 11.25 3.59 13.37 4.84C14.23 5.54 14.46 6.85 14.53 9.46L7.71 16.28Z" stroke="#212121" stroke-opacity="1.000000" stroke-width="1.500000" stroke-linejoin="round"/>
	<path id="Stroke 3" d="M14.53 13.91C14.49 16.79 14.27 18.19 13.37 18.91C12.39 19.49 11.28 18.96 10.24 18.2" stroke="#212121" stroke-opacity="1.000000" stroke-width="1.500000" stroke-linejoin="round" stroke-linecap="round"/>
	<path id="Stroke 5" d="M4 20L7.71 16.28L14.53 9.46L20 4" stroke="#212121" stroke-opacity="1.000000" stroke-width="1.500000" stroke-linejoin="round" stroke-linecap="round"/>
</svg>
