<svg width="24.000000" height="24.000000" viewBox="0 0 24 24" fill="none" xmlns="http://www.w3.org/2000/svg" xmlns:xlink="http://www.w3.org/1999/xlink">
	<desc>
			Created with Pixso.
	</desc>
	<defs/>
	<rect id="Iconly/Light/Password" width="24.000000" height="24.000000" fill="#FFFFFF" fill-opacity="0"/>
	<path id="Stroke 1" d="M7.66 2.75C4.64 2.75 2.75 4.88 2.75 7.91L2.75 16.08C2.75 19.11 4.63 21.25 7.66 21.25L16.33 21.25C19.36 21.25 21.25 19.11 21.25 16.08L21.25 7.91C21.25 4.88 19.36 2.75 16.33 2.75L7.66 2.75Z" stroke="#212121" stroke-opacity="1.000000" stroke-width="1.500000" stroke-linejoin="round"/>
	<path id="Stroke 3" d="M8.83 13.85C7.81 13.85 6.98 13.02 6.98 12C6.98 10.97 7.81 10.14 8.83 10.14L8.84 10.14C9.86 10.14 10.68 10.97 10.68 12C10.68 13.02 9.86 13.85 8.83 13.85Z" stroke="#212121" stroke-opacity="1.000000" stroke-width="1.500000" stroke-linejoin="round"/>
	<path id="Stroke 5" d="M10.69 12L17.01 12L17.01 13.85" stroke="#212121" stroke-opacity="1.000000" stroke-width="1.500000" stroke-linejoin="round" stroke-linecap="round"/>
	<path id="Stroke 7" d="M14.18 13.85L14.18 12" stroke="#212121" stroke-opacity="1.000000" stroke-width="1.500000" stroke-linejoin="round" stroke-linecap="round"/>
</svg>
