<svg width="24.000000" height="24.000000" viewBox="0 0 24 24" fill="none" xmlns="http://www.w3.org/2000/svg" xmlns:xlink="http://www.w3.org/1999/xlink">
	<desc>
			Created with Pixso.
	</desc>
	<defs/>
	<rect id="Iconly/Light/Filter 3" width="24.000000" height="24.000000" fill="#FFFFFF" fill-opacity="0"/>
	<path id="Stroke 1" d="M3 4.59L3 5.52C3 6.17 3.24 6.8 3.68 7.27L8.53 12.42L8.53 12.42C9.47 13.37 9.99 14.67 9.99 16.02L9.99 20.59C9.99 20.9 10.31 21.09 10.58 20.95L13.34 19.44C13.76 19.22 14.02 18.77 14.02 18.29L14.02 16.01C14.02 14.66 14.53 13.37 15.46 12.42L20.31 7.27C20.75 6.8 21 6.17 21 5.52L21 4.59C21 3.71 20.29 3 19.43 3L4.56 3C3.7 3 3 3.71 3 4.59Z" stroke="#212121" stroke-opacity="1.000000" stroke-width="1.500000" stroke-linejoin="round"/>
</svg>
