<svg width="24.000000" height="24.000000" viewBox="0 0 24 24" fill="none" xmlns="http://www.w3.org/2000/svg" xmlns:xlink="http://www.w3.org/1999/xlink">
	<desc>
			Created with Pixso.
	</desc>
	<defs/>
	<rect id="Iconly/Light/Game" width="24.000000" height="24.000000" fill="#FFFFFF" fill-opacity="0"/>
	<path id="Stroke 1" d="M8.84 12.31L8.84 16.05" stroke="#212121" stroke-opacity="1.000000" stroke-width="1.500000" stroke-linejoin="round" stroke-linecap="round"/>
	<path id="Stroke 2" d="M10.75 14.18L6.93 14.18" stroke="#212121" stroke-opacity="1.000000" stroke-width="1.500000" stroke-linejoin="round" stroke-linecap="round"/>
	<path id="Stroke 3" d="M15.36 12.42L15.25 12.42" stroke="#212121" stroke-opacity="1.000000" stroke-width="1.500000" stroke-linejoin="round" stroke-linecap="round"/>
	<path id="Stroke 4" d="M17.17 16L17.07 16" stroke="#212121" stroke-opacity="1.000000" stroke-width="1.500000" stroke-linejoin="round" stroke-linecap="round"/>
	<path id="Stroke 5" d="M8.07 2C8.07 2.74 8.68 3.34 9.44 3.34L10.49 3.34C11.66 3.34 12.6 4.27 12.61 5.41L12.61 6.08" stroke="#212121" stroke-opacity="1.000000" stroke-width="1.500000" stroke-linejoin="round" stroke-linecap="round"/>
	<path id="Stroke 7" d="M7.57 21.96C4.35 21.96 2 19.66 2 16.51L2 11.86C2 8.7 4.35 6.41 7.57 6.41C10.48 6.36 13.44 6.36 16.42 6.41C19.64 6.41 22 8.7 22 11.86L22 16.51C22 19.66 19.64 21.96 16.42 21.96C13.42 22.01 10.47 22.01 7.57 21.96Z" stroke="#212121" stroke-opacity="1.000000" stroke-width="1.500000" stroke-linejoin="round"/>
</svg>
