<svg width="24.000000" height="24.000000" viewBox="0 0 24 24" fill="none" xmlns="http://www.w3.org/2000/svg" xmlns:xlink="http://www.w3.org/1999/xlink">
	<desc>
			Created with Pixso.
	</desc>
	<defs/>
	<rect id="Iconly/Light/Camera" width="24.000000" height="24.000000" fill="#FFFFFF" fill-opacity="0"/>
	<path id="Stroke 1" d="M16.77 6.3C17.18 6.75 17.77 6.9 18.1 6.9C19.84 6.9 21.25 8.31 21.25 10.05L21.25 15.84C21.25 18.17 19.36 20.06 17.03 20.06L6.97 20.06C4.63 20.06 2.75 18.17 2.75 15.84L2.75 10.05C2.75 8.31 4.15 6.9 5.89 6.9C6.22 6.9 6.81 6.75 7.22 6.3C7.64 5.85 7.94 4.45 8.95 4.05C9.97 3.64 14.03 3.64 15.04 4.05C16.05 4.45 16.35 5.85 16.77 6.3Z" stroke="#212121" stroke-opacity="1.000000" stroke-width="1.500000" stroke-linejoin="round"/>
	<path id="Stroke 13" d="M17.49 9.5L17.5 9.5" stroke="#212121" stroke-opacity="1.000000" stroke-width="2.000000" stroke-linejoin="round" stroke-linecap="round"/>
	<path id="Stroke 5" d="M11.99 9.94C10.24 9.94 8.82 11.37 8.82 13.12C8.82 14.88 10.24 16.3 11.99 16.3C13.75 16.3 15.17 14.88 15.17 13.12C15.17 11.37 13.75 9.94 11.99 9.94Z" stroke="#212121" stroke-opacity="1.000000" stroke-width="1.500000" stroke-linejoin="round"/>
</svg>
