<svg width="24.000000" height="24.000000" viewBox="0 0 24 24" fill="none" xmlns="http://www.w3.org/2000/svg" xmlns:xlink="http://www.w3.org/1999/xlink">
	<desc>
			Created with Pixso.
	</desc>
	<defs/>
	<rect id="Iconly/Light/Image 3" width="24.000000" height="24.000000" fill="#FFFFFF" fill-opacity="0"/>
	<path id="Stroke 1" d="M7.65 2.74C4.63 2.74 2.74 4.88 2.74 7.9L2.74 16.04C2.74 19.06 4.63 21.2 7.65 21.2L16.29 21.2C19.32 21.2 21.2 19.06 21.2 16.04L21.2 7.9C21.2 4.88 19.32 2.74 16.3 2.74L7.65 2.74Z" stroke="#212121" stroke-opacity="1.000000" stroke-width="1.500000" stroke-linejoin="round"/>
	<path id="Stroke 3" d="M8.85 10.63C7.83 10.63 7.01 9.8 7.01 8.78C7.01 7.76 7.83 6.93 8.85 6.93C9.87 6.93 10.7 7.76 10.7 8.78C10.7 9.8 9.87 10.63 8.85 10.63Z" stroke="#212121" stroke-opacity="1.000000" stroke-width="1.500000" stroke-linejoin="round"/>
	<path id="Stroke 5" d="M21.2 14.95C20.28 14 18.5 12.08 16.57 12.08C14.64 12.08 13.53 16.31 11.67 16.31C9.82 16.31 8.13 14.4 6.64 15.62C5.15 16.85 3.75 19.36 3.75 19.36" stroke="#212121" stroke-opacity="1.000000" stroke-width="1.500000" stroke-linejoin="round" stroke-linecap="round"/>
</svg>
