<svg width="24.000000" height="24.000000" viewBox="0 0 24 24" fill="none" xmlns="http://www.w3.org/2000/svg" xmlns:xlink="http://www.w3.org/1999/xlink">
	<desc>
			Created with Pixso.
	</desc>
	<defs/>
	<rect id="Iconly/Light/Discount" width="24.000000" height="24.000000" fill="#FFFFFF" fill-opacity="0"/>
	<path id="Stroke 1" d="M7.05 4.79L8.08 4.79C8.68 4.79 9.25 4.55 9.67 4.13L10.39 3.41C11.27 2.53 12.7 2.52 13.59 3.4L13.59 3.4L13.6 3.41L14.32 4.13C14.74 4.55 15.32 4.79 15.91 4.79L16.94 4.79C18.19 4.79 19.2 5.8 19.2 7.05L19.2 8.08C19.2 8.68 19.44 9.25 19.86 9.67L20.58 10.39C21.47 11.27 21.47 12.71 20.59 13.59L20.59 13.59L20.58 13.6L19.86 14.32C19.44 14.74 19.2 15.32 19.2 15.91L19.2 16.94C19.2 18.19 18.19 19.2 16.94 19.2L16.94 19.2L15.91 19.2C15.31 19.2 14.74 19.44 14.32 19.86L13.6 20.58C12.72 21.47 11.29 21.47 10.4 20.59C10.4 20.59 10.4 20.59 10.4 20.59L10.39 20.58L9.67 19.86C9.25 19.44 8.67 19.2 8.08 19.2L7.05 19.2C5.8 19.2 4.79 18.19 4.79 16.94L4.79 15.91C4.79 15.31 4.55 14.74 4.13 14.32L3.41 13.6C2.53 12.72 2.52 11.29 3.4 10.4C3.4 10.4 3.4 10.4 3.4 10.4L3.41 10.39L4.13 9.67C4.55 9.25 4.79 8.67 4.79 8.08L4.79 7.05C4.79 5.8 5.8 4.79 7.05 4.79Z" stroke="#212121" stroke-opacity="1.000000" stroke-width="1.500000" stroke-linejoin="round"/>
	<path id="Stroke 3" d="M9.43 14.57L14.57 9.43" stroke="#212121" stroke-opacity="1.000000" stroke-width="1.500000" stroke-linejoin="round" stroke-linecap="round"/>
	<path id="Stroke 11" d="M14.49 14.5L14.5 14.5" stroke="#212121" stroke-opacity="1.000000" stroke-width="2.000000" stroke-linejoin="round" stroke-linecap="round"/>
	<path id="Stroke 11" d="M9.49 9.5L9.5 9.5" stroke="#212121" stroke-opacity="1.000000" stroke-width="2.000000" stroke-linejoin="round" stroke-linecap="round"/>
</svg>
