<svg width="24.000000" height="24.000000" viewBox="0 0 24 24" fill="none" xmlns="http://www.w3.org/2000/svg" xmlns:xlink="http://www.w3.org/1999/xlink">
	<desc>
			Created with Pixso.
	</desc>
	<defs/>
	<rect id="Iconly/Light/Paper Download" width="24.000000" height="24.000000" fill="#FFFFFF" fill-opacity="0"/>
	<path id="Stroke 1" d="M8.08 2.76C6 2.75 4.3 4.41 4.25 6.49L4.25 17.22C4.2 19.32 5.87 21.06 7.97 21.11C8.01 21.11 8.04 21.11 8.08 21.11L16.07 21.11C18.16 21.04 19.81 19.31 19.8 17.22L19.8 8.03L14.73 2.76L8.08 2.76Z" stroke="#212121" stroke-opacity="1.000000" stroke-width="1.500000" stroke-linejoin="round"/>
	<path id="Stroke 3" d="M14.47 2.75L14.47 5.65C14.47 7.07 15.62 8.23 17.04 8.23L19.79 8.23" stroke="#212121" stroke-opacity="1.000000" stroke-width="1.500000" stroke-linejoin="round" stroke-linecap="round"/>
	<path id="Stroke 5" d="M11.64 15.94L11.64 9.9" stroke="#212121" stroke-opacity="1.000000" stroke-width="1.500000" stroke-linejoin="round" stroke-linecap="round"/>
	<path id="Stroke 7" d="M9.29 13.59L11.64 15.94L13.98 13.59" stroke="#212121" stroke-opacity="1.000000" stroke-width="1.500000" stroke-linejoin="round" stroke-linecap="round"/>
</svg>
