<svg width="24.000000" height="24.000000" viewBox="0 0 24 24" fill="none" xmlns="http://www.w3.org/2000/svg" xmlns:xlink="http://www.w3.org/1999/xlink">
	<desc>
			Created with Pixso.
	</desc>
	<defs>
		<clipPath id="clip430_8028">
			<rect id="Iconly/Curved/Password" width="24.000000" height="24.000000" fill="white" fill-opacity="0"/>
		</clipPath>
	</defs>
	<rect id="Iconly/Curved/Password" width="24.000000" height="24.000000" fill="#FFFFFF" fill-opacity="0"/>
	<g clip-path="url(#clip430_8028)">
		<path id="Stroke 1" d="M8.83 13.85C7.81 13.85 6.98 13.02 6.98 12C6.98 10.97 7.81 10.14 8.83 10.14L8.83 10.14C9.86 10.14 10.68 10.97 10.68 12C10.68 13.02 9.85 13.85 8.83 13.85Z" stroke="#212121" stroke-opacity="1.000000" stroke-width="1.500000" stroke-linejoin="round"/>
		<path id="Stroke 3" d="M10.69 12L17.01 12L17.01 13.85" stroke="#212121" stroke-opacity="1.000000" stroke-width="1.500000" stroke-linejoin="round" stroke-linecap="round"/>
		<path id="Stroke 5" d="M14.18 13.85L14.18 12" stroke="#212121" stroke-opacity="1.000000" stroke-width="1.500000" stroke-linejoin="round" stroke-linecap="round"/>
		<path id="Stroke 7" d="M12 2.75C18.93 2.75 21.25 5.06 21.25 12C21.25 18.93 18.93 21.25 12 21.25C5.06 21.25 2.75 18.93 2.75 12C2.75 5.06 5.06 2.75 12 2.75Z" stroke="#212121" stroke-opacity="1.000000" stroke-width="1.500000" stroke-linejoin="round"/>
	</g>
</svg>
