<svg width="24.000000" height="24.000000" viewBox="0 0 24 24" fill="none" xmlns="http://www.w3.org/2000/svg" xmlns:xlink="http://www.w3.org/1999/xlink">
	<desc>
			Created with Pixso.
	</desc>
	<defs>
		<clipPath id="clip430_7935">
			<rect id="Iconly/Curved/Add User" width="24.000000" height="24.000000" fill="white" fill-opacity="0"/>
		</clipPath>
	</defs>
	<rect id="Iconly/Curved/Add User" width="24.000000" height="24.000000" fill="#FFFFFF" fill-opacity="0"/>
	<g clip-path="url(#clip430_7935)">
		<path id="Stroke 1" d="M2.85 18.92C2.85 16.61 6.08 14.51 9.92 14.51C13.73 14.51 16.99 16.59 16.99 18.9C16.99 21.2 13.75 21.8 9.92 21.8C6.1 21.8 2.85 21.23 2.85 18.92Z" stroke="#212121" stroke-opacity="1.000000" stroke-width="1.500000" stroke-linejoin="round"/>
		<path id="Stroke 3" d="M14.45 6.68C14.45 4.17 12.42 2.14 9.92 2.14C7.41 2.14 5.38 4.17 5.38 6.68C5.38 9.17 7.39 11.2 9.89 11.21L9.92 11.21C12.42 11.21 14.45 9.18 14.45 6.68Z" stroke="#212121" stroke-opacity="1.000000" stroke-width="1.500000" stroke-linejoin="round"/>
		<path id="Stroke 5" d="M19.13 8.12L19.13 12.13" stroke="#212121" stroke-opacity="1.000000" stroke-width="1.500000" stroke-linejoin="round" stroke-linecap="round"/>
		<path id="Stroke 7" d="M21.17 10.13L17.08 10.13" stroke="#212121" stroke-opacity="1.000000" stroke-width="1.500000" stroke-linejoin="round" stroke-linecap="round"/>
	</g>
</svg>
