<svg width="24.000000" height="24.000000" viewBox="0 0 24 24" fill="none" xmlns="http://www.w3.org/2000/svg" xmlns:xlink="http://www.w3.org/1999/xlink">
	<desc>
			Created with Pixso.
	</desc>
	<defs>
		<clipPath id="clip430_8166">
			<rect id="Iconly/Curved/Volume Up" width="24.000000" height="24.000000" fill="white" fill-opacity="0"/>
		</clipPath>
	</defs>
	<rect id="Iconly/Curved/Volume Up" width="24.000000" height="24.000000" fill="#FFFFFF" fill-opacity="0"/>
	<g clip-path="url(#clip430_8166)">
		<path id="Stroke 1" d="M19.43 5.77C21.92 9.49 21.93 14.4 19.43 18.13" stroke="#212121" stroke-opacity="1.000000" stroke-width="1.500000" stroke-linejoin="round" stroke-linecap="round"/>
		<path id="Stroke 3" d="M16.98 8.21C18.27 10.54 18.27 13.37 16.98 15.68" stroke="#212121" stroke-opacity="1.000000" stroke-width="1.500000" stroke-linejoin="round" stroke-linecap="round"/>
		<path id="Stroke 5" d="M3.71 15.53C4.74 16.4 5.55 16.04 6.88 16.48C8.22 16.92 10.08 19.63 12.15 18.41C13.26 17.61 13.79 16.12 13.79 11.95C13.79 7.78 13.28 6.3 12.15 5.49C10.08 4.27 8.22 6.98 6.88 7.41C5.55 7.85 4.74 7.49 3.71 8.37C2.68 9.24 2.67 10.7 2.68 11.95C2.67 13.19 2.68 14.66 3.71 15.53Z" stroke="#212121" stroke-opacity="1.000000" stroke-width="1.500000" stroke-linejoin="round"/>
	</g>
</svg>
