<svg width="24.000000" height="24.000000" viewBox="0 0 24 24" fill="none" xmlns="http://www.w3.org/2000/svg" xmlns:xlink="http://www.w3.org/1999/xlink">
	<desc>
			Created with Pixso.
	</desc>
	<defs>
		<clipPath id="clip430_8087">
			<rect id="Iconly/Curved/Activity" width="24.000000" height="24.000000" fill="white" fill-opacity="0"/>
		</clipPath>
	</defs>
	<rect id="Iconly/Curved/Activity" width="24.000000" height="24.000000" fill="#FFFFFF" fill-opacity="0"/>
	<g clip-path="url(#clip430_8087)">
		<path id="Stroke 1" d="M6.91 14.85L9.9 10.96L13.32 13.64L16.25 9.86" stroke="#212121" stroke-opacity="1.000000" stroke-width="1.500000" stroke-linejoin="round" stroke-linecap="round"/>
		<path id="Stroke 2" d="M21.58 4.27C21.58 5.33 20.72 6.19 19.66 6.19C18.6 6.19 17.74 5.33 17.74 4.27C17.74 3.21 18.6 2.35 19.66 2.35C20.72 2.35 21.58 3.21 21.58 4.27Z" stroke="#212121" stroke-opacity="1.000000" stroke-width="1.500000" stroke-linejoin="round"/>
		<path id="Stroke 4" d="M20.75 9.26C20.88 10.16 20.94 11.17 20.94 12.3C20.94 19.24 18.63 21.55 11.69 21.55C4.76 21.55 2.44 19.24 2.44 12.3C2.44 5.36 4.76 3.05 11.69 3.05C12.8 3.05 13.8 3.11 14.68 3.23" stroke="#212121" stroke-opacity="1.000000" stroke-width="1.500000" stroke-linejoin="round" stroke-linecap="round"/>
	</g>
</svg>
