<svg width="24.000000" height="24.000000" viewBox="0 0 24 24" fill="none" xmlns="http://www.w3.org/2000/svg" xmlns:xlink="http://www.w3.org/1999/xlink">
	<desc>
			Created with Pixso.
	</desc>
	<defs>
		<clipPath id="clip430_7962">
			<rect id="Iconly/Curved/3 User" width="24.000000" height="24.000000" fill="white" fill-opacity="0"/>
		</clipPath>
	</defs>
	<rect id="Iconly/Curved/3 User" width="24.000000" height="24.000000" fill="#FFFFFF" fill-opacity="0"/>
	<g clip-path="url(#clip430_7962)">
		<path id="Stroke 1" d="M5.96 17.91C5.96 15.95 8.71 14.24 11.97 14.24C15.21 14.24 17.97 15.93 17.97 17.89C17.97 19.86 15.22 20.36 11.97 20.36C8.73 20.36 5.96 19.87 5.96 17.91Z" stroke="#212121" stroke-opacity="1.000000" stroke-width="1.500000" stroke-linejoin="round"/>
		<path id="Stroke 3" d="M15.82 7.59C15.82 5.47 14.09 3.74 11.97 3.74C9.84 3.74 8.12 5.47 8.12 7.59C8.11 9.71 9.82 11.44 11.94 11.44L11.97 11.44C14.09 11.44 15.82 9.72 15.82 7.59Z" stroke="#212121" stroke-opacity="1.000000" stroke-width="1.500000" stroke-linejoin="round"/>
		<path id="Stroke 5" d="M18.36 10.39C19.59 10.06 20.51 8.93 20.51 7.58C20.51 6.18 19.51 5.01 18.19 4.74" stroke="#212121" stroke-opacity="1.000000" stroke-width="1.500000" stroke-linejoin="round" stroke-linecap="round"/>
		<path id="Stroke 7" d="M18.94 13.54C20.69 13.54 22.19 14.73 22.19 15.79C22.19 16.42 21.67 17.1 20.89 17.28" stroke="#212121" stroke-opacity="1.000000" stroke-width="1.500000" stroke-linejoin="round" stroke-linecap="round"/>
		<path id="Stroke 9" d="M5.58 10.39C4.34 10.06 3.43 8.93 3.43 7.58C3.43 6.18 4.42 5.01 5.74 4.74" stroke="#212121" stroke-opacity="1.000000" stroke-width="1.500000" stroke-linejoin="round" stroke-linecap="round"/>
		<path id="Stroke 11" d="M5 13.54C3.24 13.54 1.74 14.73 1.74 15.79C1.74 16.42 2.26 17.1 3.05 17.28" stroke="#212121" stroke-opacity="1.000000" stroke-width="1.500000" stroke-linejoin="round" stroke-linecap="round"/>
	</g>
</svg>
