<svg width="24.000000" height="24.000000" viewBox="0 0 24 24" fill="none" xmlns="http://www.w3.org/2000/svg" xmlns:xlink="http://www.w3.org/1999/xlink">
	<desc>
			Created with Pixso.
	</desc>
	<defs>
		<clipPath id="clip430_7970">
			<rect id="Iconly/Curved/Calling" width="24.000000" height="24.000000" fill="white" fill-opacity="0"/>
		</clipPath>
	</defs>
	<rect id="Iconly/Curved/Calling" width="24.000000" height="24.000000" fill="#FFFFFF" fill-opacity="0"/>
	<g clip-path="url(#clip430_7970)">
		<path id="Stroke 1" d="M14.35 2.75C18.05 3.16 20.97 6.08 21.39 9.78" stroke="#212121" stroke-opacity="1.000000" stroke-width="1.500000" stroke-linejoin="round" stroke-linecap="round"/>
		<path id="Stroke 3" d="M14.35 6.29C16.12 6.63 17.5 8.02 17.85 9.79" stroke="#212121" stroke-opacity="1.000000" stroke-width="1.500000" stroke-linejoin="round" stroke-linecap="round"/>
		<path id="Stroke 5" d="M2.51 5.22C2.6 5.05 4.9 1.61 7.37 3.63C13.5 8.67 5.74 7.96 10.88 13.11C16.03 18.25 15.32 10.5 20.36 16.62C22.38 19.09 18.94 21.39 18.77 21.48C17.75 22.21 14.59 23.19 7.7 16.29C0.8 9.4 1.78 6.24 2.51 5.22Z" stroke="#212121" stroke-opacity="1.000000" stroke-width="1.500000" stroke-linejoin="round"/>
	</g>
</svg>
