<svg width="24.000000" height="24.000000" viewBox="0 0 24 24" fill="none" xmlns="http://www.w3.org/2000/svg" xmlns:xlink="http://www.w3.org/1999/xlink">
	<desc>
			Created with Pixso.
	</desc>
	<defs>
		<clipPath id="clip430_8123">
			<rect id="Iconly/Curved/Game" width="24.000000" height="24.000000" fill="white" fill-opacity="0"/>
		</clipPath>
	</defs>
	<rect id="Iconly/Curved/Game" width="24.000000" height="24.000000" fill="#FFFFFF" fill-opacity="0"/>
	<g clip-path="url(#clip430_8123)">
		<path id="Stroke 1" d="M9.25 12.06L9.25 15.63" stroke="#212121" stroke-opacity="1.000000" stroke-width="1.500000" stroke-linejoin="round" stroke-linecap="round"/>
		<path id="Stroke 2" d="M11.07 13.84L7.43 13.84" stroke="#212121" stroke-opacity="1.000000" stroke-width="1.500000" stroke-linejoin="round" stroke-linecap="round"/>
		<path id="Stroke 3" d="M15.47 12.17L15.37 12.17" stroke="#212121" stroke-opacity="1.000000" stroke-width="1.500000" stroke-linejoin="round" stroke-linecap="round"/>
		<path id="Stroke 4" d="M17.2 15.58L17.1 15.58" stroke="#212121" stroke-opacity="1.000000" stroke-width="1.500000" stroke-linejoin="round" stroke-linecap="round"/>
		<path id="Stroke 5" d="M8.51 2.21C8.52 2.93 9.1 3.5 9.82 3.49L10.82 3.49C11.93 3.48 12.83 4.37 12.84 5.47L12.84 6.48" stroke="#212121" stroke-opacity="1.000000" stroke-width="1.500000" stroke-linejoin="round" stroke-linecap="round"/>
		<path id="Stroke 7" d="M12.26 6.48C5.1 6.48 2.71 8.33 2.71 13.89C2.71 19.45 5.1 21.3 12.26 21.3C19.42 21.3 21.81 19.45 21.81 13.89C21.81 8.33 19.42 6.48 12.26 6.48Z" stroke="#212121" stroke-opacity="1.000000" stroke-width="1.500000" stroke-linejoin="round"/>
	</g>
</svg>
