<svg width="24.000000" height="24.000000" viewBox="0 0 24 24" fill="none" xmlns="http://www.w3.org/2000/svg" xmlns:xlink="http://www.w3.org/1999/xlink">
	<desc>
			Created with Pixso.
	</desc>
	<defs>
		<clipPath id="clip430_8171">
			<rect id="Iconly/Curved/Setting" width="24.000000" height="24.000000" fill="white" fill-opacity="0"/>
		</clipPath>
	</defs>
	<rect id="Iconly/Curved/Setting" width="24.000000" height="24.000000" fill="#FFFFFF" fill-opacity="0"/>
	<g clip-path="url(#clip430_8171)">
		<path id="Stroke 1" d="M14.5 12C14.5 13.38 13.38 14.5 12 14.5C10.61 14.5 9.5 13.38 9.5 12C9.5 10.61 10.61 9.5 12 9.5C13.38 9.5 14.5 10.61 14.5 12Z" stroke="#212121" stroke-opacity="1.000000" stroke-width="1.500000" stroke-linejoin="round"/>
		<path id="Stroke 3" d="M16.78 6.33C15.75 6.93 14.47 6.18 14.47 4.99C14.47 3.61 13.36 2.5 11.99 2.5C10.63 2.5 9.52 3.61 9.52 4.99C9.52 6.18 8.23 6.93 7.21 6.33C6.02 5.65 4.51 6.05 3.83 7.25C3.14 8.44 3.55 9.96 4.73 10.65C5.76 11.25 5.76 12.74 4.73 13.34C3.55 14.03 3.14 15.55 3.83 16.74C4.51 17.94 6.02 18.34 7.21 17.66L7.21 17.66C8.23 17.06 9.52 17.81 9.52 19C9.52 20.38 10.63 21.5 11.99 21.5C13.36 21.5 14.47 20.38 14.47 19C14.47 17.81 15.75 17.06 16.78 17.66C17.97 18.34 19.48 17.94 20.16 16.74C20.85 15.55 20.44 14.03 19.26 13.34L19.26 13.34C18.23 12.74 18.23 11.25 19.26 10.65C20.44 9.96 20.85 8.44 20.16 7.25C19.48 6.05 17.97 5.65 16.78 6.33Z" stroke="#212121" stroke-opacity="1.000000" stroke-width="1.500000" stroke-linejoin="round"/>
	</g>
</svg>
