<svg width="24.000000" height="24.000000" viewBox="0 0 24 24" fill="none" xmlns="http://www.w3.org/2000/svg" xmlns:xlink="http://www.w3.org/1999/xlink">
	<desc>
			Created with Pixso.
	</desc>
	<defs>
		<clipPath id="clip430_8108">
			<rect id="Iconly/Curved/Profile" width="24.000000" height="24.000000" fill="white" fill-opacity="0"/>
		</clipPath>
	</defs>
	<rect id="Iconly/Curved/Profile" width="24.000000" height="24.000000" fill="#FFFFFF" fill-opacity="0"/>
	<g clip-path="url(#clip430_8108)">
		<path id="Stroke 1" d="M5 18.78C5 16.48 8.13 14.36 11.84 14.36C15.53 14.36 18.68 16.46 18.68 18.76C18.68 21.06 15.55 21.66 11.84 21.66C8.15 21.66 5 21.08 5 18.78Z" stroke="#212121" stroke-opacity="1.000000" stroke-width="1.500000" stroke-linejoin="round"/>
		<path id="Stroke 3" d="M16.22 6.78C16.22 4.36 14.26 2.39 11.83 2.39C9.41 2.39 7.44 4.36 7.44 6.78C7.44 9.2 9.39 11.16 11.8 11.17C11.81 11.17 11.82 11.17 11.83 11.17C14.26 11.17 16.22 9.2 16.22 6.78Z" stroke="#212121" stroke-opacity="1.000000" stroke-width="1.500000" stroke-linejoin="round"/>
	</g>
</svg>
