<svg width="24.000000" height="24.000000" viewBox="0 0 24 24" fill="none" xmlns="http://www.w3.org/2000/svg" xmlns:xlink="http://www.w3.org/1999/xlink">
	<desc>
			Created with Pixso.
	</desc>
	<defs>
		<clipPath id="clip430_8018">
			<rect id="Iconly/Curved/Work" width="24.000000" height="24.000000" fill="white" fill-opacity="0"/>
		</clipPath>
	</defs>
	<rect id="Iconly/Curved/Work" width="24.000000" height="24.000000" fill="#FFFFFF" fill-opacity="0"/>
	<g clip-path="url(#clip430_8018)">
		<path id="Stroke 1" d="M11.96 16.51L11.96 13.88" stroke="#212121" stroke-opacity="1.000000" stroke-width="1.500000" stroke-linejoin="round" stroke-linecap="round"/>
		<path id="Stroke 2" d="M21.08 11.47L21.06 11.49C18.63 12.99 15.44 13.89 11.95 13.89C8.47 13.89 5.28 12.99 2.86 11.49L2.83 11.47" stroke="#212121" stroke-opacity="1.000000" stroke-width="1.500000" stroke-linejoin="round" stroke-linecap="round"/>
		<path id="Stroke 4" d="M11.96 5.14C18.87 5.14 21.17 7.19 21.17 13.35C21.17 19.5 18.87 21.55 11.96 21.55C5.05 21.55 2.75 19.5 2.75 13.35C2.75 7.19 5.05 5.14 11.96 5.14Z" stroke="#212121" stroke-opacity="1.000000" stroke-width="1.500000" stroke-linejoin="round"/>
		<path id="Stroke 6" d="M15.22 5.36L15.22 4.73C15.22 3.47 14.3 2.45 13.16 2.45L10.75 2.45C9.62 2.45 8.69 3.47 8.69 4.73L8.69 5.36" stroke="#212121" stroke-opacity="1.000000" stroke-width="1.500000" stroke-linejoin="round" stroke-linecap="round"/>
	</g>
</svg>
