<svg width="24.000000" height="24.000000" viewBox="0 0 24 24" fill="none" xmlns="http://www.w3.org/2000/svg" xmlns:xlink="http://www.w3.org/1999/xlink">
	<desc>
			Created with Pixso.
	</desc>
	<defs>
		<clipPath id="clip430_8179">
			<rect id="Iconly/Curved/Volume Off" width="24.000000" height="24.000000" fill="white" fill-opacity="0"/>
		</clipPath>
	</defs>
	<rect id="Iconly/Curved/Volume Off" width="24.000000" height="24.000000" fill="#FFFFFF" fill-opacity="0"/>
	<g clip-path="url(#clip430_8179)">
		<path id="Stroke 1" d="M8.4 16.55C7.32 16.3 6.58 16.49 5.68 15.73C4.67 14.88 4.66 13.43 4.67 12.21C4.66 10.98 4.67 9.54 5.68 8.68C6.69 7.82 7.49 8.17 8.81 7.74C10.12 7.31 11.95 4.65 13.98 5.85C14.8 6.43 15.29 7.38 15.48 9.46" stroke="#212121" stroke-opacity="1.000000" stroke-width="1.500000" stroke-linejoin="round" stroke-linecap="round"/>
		<path id="Stroke 3" d="M15.57 13.67C15.46 16.67 14.94 17.88 13.98 18.56C12.94 19.18 11.95 18.78 11.06 18.18" stroke="#212121" stroke-opacity="1.000000" stroke-width="1.500000" stroke-linejoin="round" stroke-linecap="round"/>
		<path id="Stroke 5" d="M20.28 4.67L4.94 20.01" stroke="#212121" stroke-opacity="1.000000" stroke-width="1.500000" stroke-linejoin="round" stroke-linecap="round"/>
	</g>
</svg>
