<svg width="24.000000" height="24.000000" viewBox="0 0 24 24" fill="none" xmlns="http://www.w3.org/2000/svg" xmlns:xlink="http://www.w3.org/1999/xlink">
	<desc>
			Created with Pixso.
	</desc>
	<defs>
		<clipPath id="clip430_7832">
			<rect id="Iconly/Curved/Filter" width="24.000000" height="24.000000" fill="white" fill-opacity="0"/>
		</clipPath>
	</defs>
	<rect id="Iconly/Curved/Filter" width="24.000000" height="24.000000" fill="#FFFFFF" fill-opacity="0"/>
	<g clip-path="url(#clip430_7832)">
		<path id="Stroke 1" d="M11.14 17.88L4.67 17.88" stroke="#212121" stroke-opacity="1.000000" stroke-width="1.500000" stroke-linejoin="round" stroke-linecap="round"/>
		<path id="Stroke 3" d="M17.92 20.6C19.96 20.6 20.64 19.92 20.64 17.88C20.64 15.84 19.96 15.16 17.92 15.16C15.88 15.16 15.2 15.84 15.2 17.88C15.2 19.92 15.88 20.6 17.92 20.6Z" stroke="#212121" stroke-opacity="1.000000" stroke-width="1.500000" stroke-linejoin="round"/>
		<path id="Stroke 5" d="M14.17 7.39L20.64 7.39" stroke="#212121" stroke-opacity="1.000000" stroke-width="1.500000" stroke-linejoin="round" stroke-linecap="round"/>
		<path id="Stroke 7" d="M7.39 4.67C5.35 4.67 4.67 5.35 4.67 7.39C4.67 9.43 5.35 10.11 7.39 10.11C9.43 10.11 10.11 9.43 10.11 7.39C10.11 5.35 9.43 4.67 7.39 4.67Z" stroke="#212121" stroke-opacity="1.000000" stroke-width="1.500000" stroke-linejoin="round"/>
	</g>
</svg>
