<svg width="24.000000" height="24.000000" viewBox="0 0 24 24" fill="none" xmlns="http://www.w3.org/2000/svg" xmlns:xlink="http://www.w3.org/1999/xlink">
	<desc>
			Created with Pixso.
	</desc>
	<defs>
		<clipPath id="clip430_8175">
			<rect id="Iconly/Curved/Volume Down" width="24.000000" height="24.000000" fill="white" fill-opacity="0"/>
		</clipPath>
	</defs>
	<rect id="Iconly/Curved/Volume Down" width="24.000000" height="24.000000" fill="#FFFFFF" fill-opacity="0"/>
	<g clip-path="url(#clip430_8175)">
		<path id="Stroke 1" d="M18.65 8.63C19.9 10.9 19.9 13.67 18.65 15.94" stroke="#212121" stroke-opacity="1.000000" stroke-width="1.500000" stroke-linejoin="round" stroke-linecap="round"/>
		<path id="Stroke 3" d="M5.67 15.78C6.67 16.64 7.47 16.29 8.78 16.72C10.08 17.14 11.9 19.79 13.92 18.6C15.01 17.82 15.52 16.36 15.52 12.28C15.52 8.2 15.03 6.76 13.92 5.97C11.9 4.77 10.08 7.42 8.78 7.85C7.47 8.28 6.67 7.93 5.67 8.78C4.66 9.63 4.66 11.06 4.66 12.28C4.66 13.5 4.66 14.93 5.67 15.78Z" stroke="#212121" stroke-opacity="1.000000" stroke-width="1.500000" stroke-linejoin="round"/>
	</g>
</svg>
