<svg width="24.000000" height="24.000000" viewBox="0 0 24 24" fill="none" xmlns="http://www.w3.org/2000/svg" xmlns:xlink="http://www.w3.org/1999/xlink">
	<desc>
			Created with Pixso.
	</desc>
	<defs>
		<clipPath id="clip430_7875">
			<rect id="Iconly/Curved/Buy" width="24.000000" height="24.000000" fill="white" fill-opacity="0"/>
		</clipPath>
	</defs>
	<rect id="Iconly/Curved/Buy" width="24.000000" height="24.000000" fill="#FFFFFF" fill-opacity="0"/>
	<g clip-path="url(#clip430_7875)">
		<path id="Stroke 1" d="M5.52 7C9.41 5.74 13.97 5.45 16 5.5C18.02 5.54 18.88 6.26 19.5 7.5C20.5 9.5 20.28 14.48 18.5 16.08C16.71 17.68 9.33 17.83 6.87 16.08C4.27 14.23 5.62 9.19 5.54 5.74C5.59 3.81 3.5 3.5 3.5 3.5" stroke="#212121" stroke-opacity="1.000000" stroke-width="1.500000" stroke-linejoin="round" stroke-linecap="round"/>
		<path id="Stroke 3" d="M13 10.5L15.77 10.5" stroke="#212121" stroke-opacity="1.000000" stroke-width="1.500000" stroke-linejoin="round" stroke-linecap="round"/>
		<path id="Stroke 5" d="M7.26 20.12C7.56 20.12 7.8 20.37 7.8 20.67C7.8 20.97 7.56 21.21 7.26 21.21C6.96 21.21 6.71 20.97 6.71 20.67C6.71 20.37 6.96 20.12 7.26 20.12Z" fill="#212121" fill-opacity="1.000000" fill-rule="evenodd"/>
		<path id="Stroke 5" d="M7.8 20.67C7.8 20.97 7.56 21.21 7.26 21.21C6.96 21.21 6.71 20.97 6.71 20.67C6.71 20.37 6.96 20.12 7.26 20.12C7.56 20.12 7.8 20.37 7.8 20.67Z" stroke="#212121" stroke-opacity="1.000000" stroke-width="1.500000" stroke-linejoin="round"/>
		<path id="Stroke 7" d="M17.59 20.12C17.89 20.12 18.14 20.37 18.14 20.67C18.14 20.97 17.89 21.21 17.59 21.21C17.29 21.21 17.05 20.97 17.05 20.67C17.05 20.37 17.29 20.12 17.59 20.12Z" fill="#212121" fill-opacity="1.000000" fill-rule="evenodd"/>
		<path id="Stroke 7" d="M18.14 20.67C18.14 20.97 17.89 21.21 17.59 21.21C17.29 21.21 17.05 20.97 17.05 20.67C17.05 20.37 17.29 20.12 17.59 20.12C17.89 20.12 18.14 20.37 18.14 20.67Z" stroke="#212121" stroke-opacity="1.000000" stroke-width="1.500000" stroke-linejoin="round"/>
	</g>
</svg>
