<svg width="24.000000" height="24.000000" viewBox="0 0 24 24" fill="none" xmlns="http://www.w3.org/2000/svg" xmlns:xlink="http://www.w3.org/1999/xlink">
	<desc>
			Created with Pixso.
	</desc>
	<defs>
		<clipPath id="clip430_7792">
			<rect id="Iconly/Curved/Category" width="24.000000" height="24.000000" fill="white" fill-opacity="0"/>
		</clipPath>
	</defs>
	<rect id="Iconly/Curved/Category" width="24.000000" height="24.000000" fill="#FFFFFF" fill-opacity="0"/>
	<g clip-path="url(#clip430_7792)">
		<path id="Stroke 1" d="M17.32 10.34C15.29 10.34 13.65 8.7 13.65 6.67C13.65 4.64 15.29 3 17.32 3C19.35 3 21 4.64 21 6.67C21 8.7 19.35 10.34 17.32 10.34Z" stroke="#212121" stroke-opacity="1.000000" stroke-width="1.500000" stroke-linejoin="round"/>
		<path id="Stroke 3" d="M6.67 10.34C4.64 10.34 3 8.7 3 6.67C3 4.64 4.64 3 6.67 3C8.7 3 10.34 4.64 10.34 6.67C10.34 8.7 8.7 10.34 6.67 10.34Z" stroke="#212121" stroke-opacity="1.000000" stroke-width="1.500000" stroke-linejoin="round"/>
		<path id="Stroke 5" d="M17.32 20.93C15.29 20.93 13.65 19.29 13.65 17.26C13.65 15.23 15.29 13.58 17.32 13.58C19.35 13.58 21 15.23 21 17.26C21 19.29 19.35 20.93 17.32 20.93Z" stroke="#212121" stroke-opacity="1.000000" stroke-width="1.500000" stroke-linejoin="round"/>
		<path id="Stroke 7" d="M6.67 20.93C4.64 20.93 3 19.29 3 17.26C3 15.23 4.64 13.58 6.67 13.58C8.7 13.58 10.34 15.23 10.34 17.26C10.34 19.29 8.7 20.93 6.67 20.93Z" stroke="#212121" stroke-opacity="1.000000" stroke-width="1.500000" stroke-linejoin="round"/>
	</g>
</svg>
