<svg width="24.000000" height="24.000000" viewBox="0 0 24 24" fill="none" xmlns="http://www.w3.org/2000/svg" xmlns:xlink="http://www.w3.org/1999/xlink">
	<desc>
			Created with Pixso.
	</desc>
	<defs>
		<clipPath id="clip430_8073">
			<rect id="Iconly/Curved/Hide" width="24.000000" height="24.000000" fill="white" fill-opacity="0"/>
		</clipPath>
	</defs>
	<rect id="Iconly/Curved/Hide" width="24.000000" height="24.000000" fill="#FFFFFF" fill-opacity="0"/>
	<g clip-path="url(#clip430_8073)">
		<path id="Stroke 1" d="M6.41 17.72C4.18 16.26 2.75 14.06 2.75 12.13C2.75 8.85 6.88 4.83 12 4.83C14.09 4.83 16.03 5.5 17.59 6.54" stroke="#212121" stroke-opacity="1.000000" stroke-width="1.500000" stroke-linejoin="round" stroke-linecap="round"/>
		<path id="Stroke 3" d="M19.84 8.61C20.74 9.73 21.25 10.99 21.25 12.14C21.25 15.42 17.1 19.44 11.99 19.44C11.08 19.44 10.2 19.31 9.36 19.08" stroke="#212121" stroke-opacity="1.000000" stroke-width="1.500000" stroke-linejoin="round" stroke-linecap="round"/>
		<path id="Stroke 5" d="M9.76 14.36C9.17 13.77 8.83 12.97 8.84 12.13C8.83 10.39 10.24 8.97 11.99 8.97C12.83 8.96 13.64 9.3 14.23 9.89" stroke="#212121" stroke-opacity="1.000000" stroke-width="1.500000" stroke-linejoin="round" stroke-linecap="round"/>
		<path id="Stroke 7" d="M15.1 12.69C14.87 13.99 13.86 15 12.57 15.24" stroke="#212121" stroke-opacity="1.000000" stroke-width="1.500000" stroke-linejoin="round" stroke-linecap="round"/>
		<path id="Stroke 9" d="M19.89 4.25L4.11 20.02" stroke="#212121" stroke-opacity="1.000000" stroke-width="1.500000" stroke-linejoin="round" stroke-linecap="round"/>
	</g>
</svg>
