<svg width="24.000000" height="24.000000" viewBox="0 0 24 24" fill="none" xmlns="http://www.w3.org/2000/svg" xmlns:xlink="http://www.w3.org/1999/xlink">
	<desc>
			Created with Pixso.
	</desc>
	<defs>
		<clipPath id="clip430_7895">
			<rect id="Iconly/Curved/Paper Plus" width="24.000000" height="24.000000" fill="white" fill-opacity="0"/>
		</clipPath>
	</defs>
	<rect id="Iconly/Curved/Paper Plus" width="24.000000" height="24.000000" fill="#FFFFFF" fill-opacity="0"/>
	<g clip-path="url(#clip430_7895)">
		<path id="Stroke 1" d="M14.49 2.89C13.76 2.8 12.94 2.75 12.04 2.75C5.75 2.75 3.65 5.07 3.65 12C3.65 18.93 5.75 21.25 12.04 21.25C18.34 21.25 20.44 18.93 20.44 12C20.44 10.58 20.35 9.35 20.16 8.3L14.49 2.89Z" stroke="#212121" stroke-opacity="1.000000" stroke-width="1.500000" stroke-linejoin="round"/>
		<path id="Stroke 3" d="M13.93 2.83L13.93 5.49C13.93 7.35 15.44 8.85 17.29 8.85L20.24 8.85" stroke="#212121" stroke-opacity="1.000000" stroke-width="1.500000" stroke-linejoin="round" stroke-linecap="round"/>
		<path id="Stroke 5" d="M14.31 12.98L9.41 12.98" stroke="#212121" stroke-opacity="1.000000" stroke-width="1.500000" stroke-linejoin="round" stroke-linecap="round"/>
		<path id="Stroke 7" d="M11.86 15.43L11.86 10.53" stroke="#212121" stroke-opacity="1.000000" stroke-width="1.500000" stroke-linejoin="round" stroke-linecap="round"/>
	</g>
</svg>
