<svg width="24.000000" height="24.000000" viewBox="0 0 24 24" fill="none" xmlns="http://www.w3.org/2000/svg" xmlns:xlink="http://www.w3.org/1999/xlink">
	<desc>
			Created with Pixso.
	</desc>
	<defs>
		<clipPath id="clip430_7859">
			<rect id="Iconly/Curved/Image" width="24.000000" height="24.000000" fill="white" fill-opacity="0"/>
		</clipPath>
	</defs>
	<rect id="Iconly/Curved/Image" width="24.000000" height="24.000000" fill="#FFFFFF" fill-opacity="0"/>
	<g clip-path="url(#clip430_7859)">
		<path id="Stroke 1" d="M6.07 16.45C6.07 16.45 6.88 14.82 8.06 14.82C9.24 14.82 9.85 16.19 11.16 16.19C12.46 16.19 13.93 12.74 15.42 12.74C16.9 12.74 17.97 15.14 17.97 15.14" stroke="#212121" stroke-opacity="1.000000" stroke-width="1.500000" stroke-linejoin="round" stroke-linecap="round"/>
		<path id="Stroke 3" d="M8.58 10.66C7.72 10.66 7.02 9.96 7.02 9.1C7.02 8.24 7.72 7.54 8.58 7.54C9.44 7.54 10.13 8.24 10.13 9.1C10.13 9.96 9.44 10.66 8.58 10.66Z" stroke="#212121" stroke-opacity="1.000000" stroke-width="1.500000" stroke-linejoin="round"/>
		<path id="Stroke 5" d="M12 21.25C18.93 21.25 21.25 18.93 21.25 12C21.25 5.06 18.93 2.75 12 2.75C5.06 2.75 2.75 5.06 2.75 12C2.75 18.93 5.06 21.25 12 21.25Z" stroke="#212121" stroke-opacity="1.000000" stroke-width="1.500000" stroke-linejoin="round"/>
	</g>
</svg>
