<svg width="24.000000" height="24.000000" viewBox="0 0 24 24" fill="none" xmlns="http://www.w3.org/2000/svg" xmlns:xlink="http://www.w3.org/1999/xlink">
	<desc>
			Created with Pixso.
	</desc>
	<defs>
		<clipPath id="clip430_7907">
			<rect id="Iconly/Curved/Camera" width="24.000000" height="24.000000" fill="white" fill-opacity="0"/>
		</clipPath>
	</defs>
	<rect id="Iconly/Curved/Camera" width="24.000000" height="24.000000" fill="#FFFFFF" fill-opacity="0"/>
	<g clip-path="url(#clip430_7907)">
		<path id="Stroke 2" d="M12.29 9.35C10.55 9.35 9.14 10.76 9.14 12.49C9.14 14.23 10.55 15.64 12.29 15.64C14.02 15.64 15.43 14.23 15.43 12.49C15.43 10.76 14.02 9.35 12.29 9.35Z" stroke="#212121" stroke-opacity="1.000000" stroke-width="1.500000" stroke-linejoin="round"/>
		<path id="Stroke 4" d="M21.29 12.56C21.29 8.9 20.81 6.94 17.76 6.1C17.48 6.01 17.17 5.84 16.91 5.57C16.51 5.12 16.21 3.75 15.23 3.34C14.25 2.93 10.31 2.95 9.34 3.34C8.38 3.73 8.07 5.12 7.66 5.57C7.41 5.84 7.1 6.01 6.82 6.1C3.77 6.94 3.28 8.9 3.28 12.56C3.28 17.78 4.24 20.2 12.29 20.2C20.33 20.2 21.29 17.78 21.29 12.56Z" stroke="#212121" stroke-opacity="1.000000" stroke-width="1.500000" stroke-linejoin="round"/>
		<path id="Stroke 11" d="M17.2 9L17.21 9" stroke="#212121" stroke-opacity="1.000000" stroke-width="1.500000" stroke-linejoin="round" stroke-linecap="round"/>
	</g>
</svg>
