<svg width="24.000000" height="24.000000" viewBox="0 0 24 24" fill="none" xmlns="http://www.w3.org/2000/svg" xmlns:xlink="http://www.w3.org/1999/xlink">
	<desc>
			Created with Pixso.
	</desc>
	<defs>
		<clipPath id="clip430_7822">
			<rect id="Iconly/Curved/Ticket Star" width="24.000000" height="24.000000" fill="white" fill-opacity="0"/>
		</clipPath>
	</defs>
	<rect id="Iconly/Curved/Ticket Star" width="24.000000" height="24.000000" fill="#FFFFFF" fill-opacity="0"/>
	<g clip-path="url(#clip430_7822)">
		<path id="Stroke 1" d="M21.43 9.87C21.43 5.11 21.43 3.41 12.04 3.41C2.64 3.41 2.64 5.11 2.64 9.87C5.31 9.87 5.31 13.99 2.64 13.99C2.64 18.76 2.64 20.46 12.04 20.46C21.43 20.46 21.43 18.76 21.43 13.99C18.77 13.99 18.77 9.87 21.43 9.87Z" stroke="#212121" stroke-opacity="1.000000" stroke-width="1.500000" stroke-linejoin="round"/>
		<path id="Stroke 3" d="M10.89 10.64C10.48 11.03 9.22 10.59 9.04 11.27C8.86 11.95 10 12.19 10.14 12.77C10.28 13.36 9.59 14.18 10.18 14.59C10.78 15 11.41 14.08 12.04 14.08C12.66 14.08 13.3 15 13.9 14.59C14.49 14.18 13.8 13.36 13.94 12.77C14.08 12.19 15.22 11.95 15.04 11.27C14.86 10.59 13.6 11.03 13.19 10.64C12.79 10.26 12.72 9.17 12.04 9.17C11.36 9.17 11.29 10.26 10.89 10.64Z" stroke="#212121" stroke-opacity="1.000000" stroke-width="1.500000" stroke-linejoin="round"/>
	</g>
</svg>
