<svg width="24.000000" height="24.000000" viewBox="0 0 24 24" fill="none" xmlns="http://www.w3.org/2000/svg" xmlns:xlink="http://www.w3.org/1999/xlink">
	<desc>
			Created with Pixso.
	</desc>
	<defs>
		<clipPath id="clip430_7881">
			<rect id="Iconly/Curved/2 User" width="24.000000" height="24.000000" fill="white" fill-opacity="0"/>
		</clipPath>
	</defs>
	<rect id="Iconly/Curved/2 User" width="24.000000" height="24.000000" fill="#FFFFFF" fill-opacity="0"/>
	<g clip-path="url(#clip430_7881)">
		<path id="Stroke 1" d="M2.74 18.67C2.74 16.45 5.86 14.44 9.55 14.44C13.23 14.44 16.36 16.43 16.36 18.65C16.36 20.88 13.25 21.45 9.55 21.45C5.88 21.45 2.74 20.9 2.74 18.67Z" stroke="#212121" stroke-opacity="1.000000" stroke-width="1.500000" stroke-linejoin="round"/>
		<path id="Stroke 3" d="M13.92 6.91C13.92 4.5 11.96 2.54 9.55 2.54C7.14 2.54 5.19 4.5 5.19 6.91C5.18 9.31 7.12 11.26 9.52 11.27L9.55 11.27C11.96 11.27 13.92 9.32 13.92 6.91Z" stroke="#212121" stroke-opacity="1.000000" stroke-width="1.500000" stroke-linejoin="round"/>
		<path id="Stroke 5" d="M16.8 10.07C18.2 9.7 19.23 8.42 19.23 6.9C19.23 5.31 18.11 3.98 16.61 3.68" stroke="#212121" stroke-opacity="1.000000" stroke-width="1.500000" stroke-linejoin="round" stroke-linecap="round"/>
		<path id="Stroke 7" d="M17.46 13.65C19.44 13.65 21.14 15 21.14 16.2C21.14 16.91 20.56 17.64 19.67 17.85" stroke="#212121" stroke-opacity="1.000000" stroke-width="1.500000" stroke-linejoin="round" stroke-linecap="round"/>
	</g>
</svg>
