<svg width="24.000000" height="24.000000" viewBox="0 0 24 24" fill="none" xmlns="http://www.w3.org/2000/svg" xmlns:xlink="http://www.w3.org/1999/xlink">
	<desc>
			Created with Pixso.
	</desc>
	<defs>
		<clipPath id="clip430_7869">
			<rect id="Iconly/Curved/Paper Download" width="24.000000" height="24.000000" fill="white" fill-opacity="0"/>
		</clipPath>
	</defs>
	<rect id="Iconly/Curved/Paper Download" width="24.000000" height="24.000000" fill="#FFFFFF" fill-opacity="0"/>
	<g clip-path="url(#clip430_7869)">
		<path id="Stroke 1" d="M14.49 2.89C13.76 2.8 12.93 2.75 12.03 2.75C5.75 2.75 3.64 5.07 3.64 12C3.64 18.93 5.75 21.25 12.03 21.25C18.33 21.25 20.43 18.93 20.43 12C20.43 10.58 20.34 9.35 20.15 8.3L14.49 2.89Z" stroke="#212121" stroke-opacity="1.000000" stroke-width="1.500000" stroke-linejoin="round"/>
		<path id="Stroke 3" d="M13.93 2.83L13.93 5.49C13.93 7.35 15.44 8.85 17.29 8.85L20.24 8.85" stroke="#212121" stroke-opacity="1.000000" stroke-width="1.500000" stroke-linejoin="round" stroke-linecap="round"/>
		<path id="Stroke 5" d="M11.66 16.01L11.66 9.97" stroke="#212121" stroke-opacity="1.000000" stroke-width="1.500000" stroke-linejoin="round" stroke-linecap="round"/>
		<path id="Stroke 7" d="M9.31 13.66L11.65 16.01L14 13.66" stroke="#212121" stroke-opacity="1.000000" stroke-width="1.500000" stroke-linejoin="round" stroke-linecap="round"/>
	</g>
</svg>
