<svg width="24.000000" height="24.000000" viewBox="0 0 24 24" fill="none" xmlns="http://www.w3.org/2000/svg" xmlns:xlink="http://www.w3.org/1999/xlink">
	<desc>
			Created with Pixso.
	</desc>
	<defs>
		<clipPath id="clip430_7890">
			<rect id="Iconly/Curved/Edit Square" width="24.000000" height="24.000000" fill="white" fill-opacity="0"/>
		</clipPath>
	</defs>
	<rect id="Iconly/Curved/Edit Square" width="24.000000" height="24.000000" fill="#FFFFFF" fill-opacity="0"/>
	<g clip-path="url(#clip430_7890)">
		<path id="Stroke 1" d="M12 2.75C5.06 2.75 2.75 5.06 2.75 12C2.75 18.93 5.06 21.25 12 21.25C18.93 21.25 21.25 18.93 21.25 12" stroke="#212121" stroke-opacity="1.000000" stroke-width="1.500000" stroke-linejoin="round" stroke-linecap="round"/>
		<path id="Stroke 3" d="M16.13 4.5C16.13 4.5 11.77 9.44 10.25 11.15C8.73 12.86 9.85 15.23 9.85 15.23C9.85 15.23 12.35 16.02 13.84 14.33C15.34 12.65 19.73 7.69 19.73 7.69C20.61 6.69 20.52 5.18 19.52 4.3C18.53 3.42 17.01 3.51 16.13 4.5Z" stroke="#212121" stroke-opacity="1.000000" stroke-width="1.500000" stroke-linejoin="round"/>
		<path id="Stroke 5" d="M15 5.8L18.6 8.98" stroke="#212121" stroke-opacity="1.000000" stroke-width="1.500000" stroke-linejoin="round" stroke-linecap="round"/>
	</g>
</svg>
