<svg xmlns="http://www.w3.org/2000/svg" width="23.039062" height="24.000000"
     viewBox="0 0 23.0391 24" fill="none">
    <defs>
        <clipPath id="clip13_6412">
            <rect id="Frame" width="23.039999" height="24.000000" fill="white" fill-opacity="0"/>
        </clipPath>
    </defs>
    <rect id="Frame" width="23.039999" height="24.000000" fill="#FFFFFF" fill-opacity="0"/>
    <g clip-path="url(#clip13_6412)">
        <path id="Vector"
              d="M23.02 12.22C23.02 11.24 22.94 10.52 22.78 9.77L11.75 9.77L11.75 14.21L18.22 14.21C18.09 15.32 17.38 16.98 15.82 18.09L15.8 18.24L19.28 20.99L19.52 21.02C21.75 18.93 23.02 15.86 23.02 12.22Z"
              fill="#4285F4" fill-opacity="1.000000" fill-rule="nonzero"/>
        <path id="Vector"
              d="M11.75 23.91C14.92 23.91 17.58 22.85 19.52 21.02L15.82 18.09C14.83 18.8 13.49 19.29 11.75 19.29C8.64 19.29 6 17.2 5.06 14.32L4.92 14.33L1.3 17.19L1.25 17.32C3.18 21.23 7.15 23.91 11.75 23.91Z"
              fill="#34A853" fill-opacity="1.000000" fill-rule="nonzero"/>
        <path id="Vector"
              d="M5.06 14.32C4.81 13.57 4.67 12.78 4.67 11.95C4.67 11.13 4.81 10.33 5.05 9.59L5.04 9.43L1.37 6.53L1.25 6.59C0.45 8.21 0 10.03 0 11.95C0 13.88 0.45 15.7 1.25 17.32L5.06 14.32Z"
              fill="#FBBC05" fill-opacity="1.000000" fill-rule="nonzero"/>
        <path id="Vector"
              d="M11.75 4.62C13.95 4.62 15.44 5.59 16.29 6.4L19.6 3.1C17.57 1.18 14.92 0 11.75 0C7.15 0 3.18 2.68 1.25 6.59L5.05 9.59C6 6.7 8.64 4.62 11.75 4.62Z"
              fill="#EB4335" fill-opacity="1.000000" fill-rule="nonzero"/>
    </g>
</svg>