<svg width="24.000000" height="24.000000" viewBox="0 0 24 24" fill="none" xmlns="http://www.w3.org/2000/svg" xmlns:xlink="http://www.w3.org/1999/xlink">
	<desc>
			Created with Pixso.
	</desc>
	<defs>
		<clipPath id="clip430_8868">
			<rect id="Iconly/Light-Outline/Time Circle" width="24.000000" height="24.000000" fill="white" fill-opacity="0"/>
		</clipPath>
	</defs>
	<rect id="Iconly/Light-Outline/Time Circle" width="24.000000" height="24.000000" fill="#FFFFFF" fill-opacity="0"/>
	<g clip-path="url(#clip430_8868)">
		<path id="Fill 1" d="M2 12C2 17.514 6.48608 22 12 22C17.5139 22 22 17.514 22 12C22 6.48596 17.5139 2 12 2C6.48608 2 2 6.48596 2 12ZM3.5 12C3.5 7.31299 7.31299 3.5 12 3.5C16.687 3.5 20.5 7.31299 20.5 12C20.5 16.687 16.687 20.5 12 20.5C7.31299 20.5 3.5 16.687 3.5 12Z" clip-rule="evenodd" fill="#212121" fill-opacity="1.000000" fill-rule="evenodd"/>
		<path id="Fill 3" d="M15.43 15.69C15.3 15.69 15.16 15.65 15.04 15.58L11.27 13.33C11.05 13.2 10.91 12.95 10.91 12.69L10.91 7.84C10.91 7.43 11.24 7.09 11.66 7.09C12.07 7.09 12.41 7.43 12.41 7.84L12.41 12.26L15.81 14.29C16.17 14.51 16.28 14.97 16.07 15.32C15.93 15.56 15.68 15.69 15.43 15.69Z" fill="#212121" fill-opacity="1.000000" fill-rule="evenodd"/>
	</g>
</svg>
