<svg width="24.000000" height="24.000000" viewBox="0 0 24 24" fill="none" xmlns="http://www.w3.org/2000/svg" xmlns:xlink="http://www.w3.org/1999/xlink">
	<desc>
			Created with Pixso.
	</desc>
	<defs>
		<clipPath id="clip430_9018">
			<rect id="Iconly/Light-Outline/Arrow - Down Square" width="24.000000" height="24.000000" fill="white" fill-opacity="0"/>
		</clipPath>
	</defs>
	<rect id="Iconly/Light-Outline/Arrow - Down Square" width="24.000000" height="24.000000" fill="#FFFFFF" fill-opacity="0"/>
	<g clip-path="url(#clip430_9018)">
		<path id="Fill 1" d="M7.66602 22L16.335 22C19.7241 22 22 19.6219 22 16.084L22 7.91602C22 4.37805 19.7241 2 16.335 2L7.66602 2C4.2771 2 2 4.37805 2 7.91602L2 16.084C2 19.6219 4.2771 22 7.66602 22ZM3.5 7.91602C3.5 5.23303 5.13599 3.5 7.66602 3.5L16.335 3.5C18.865 3.5 20.5 5.23303 20.5 7.91602L20.5 16.084C20.5 18.767 18.865 20.5 16.335 20.5L7.66602 20.5C5.13599 20.5 3.5 18.767 3.5 16.084L3.5 7.91602Z" clip-rule="evenodd" fill="#212121" fill-opacity="1.000000" fill-rule="evenodd"/>
		<path id="Fill 3" d="M12 16.83C11.58 16.83 11.25 16.5 11.25 16.08L11.25 7.91C11.25 7.5 11.58 7.16 12 7.16C12.41 7.16 12.75 7.5 12.75 7.91L12.75 16.08C12.75 16.5 12.41 16.83 12 16.83Z" fill="#212121" fill-opacity="1.000000" fill-rule="evenodd"/>
		<path id="Fill 5" d="M12 16.83C11.8 16.83 11.6 16.75 11.46 16.61L7.72 12.85C7.42 12.55 7.42 12.08 7.72 11.79C8.01 11.49 8.49 11.49 8.78 11.79L12 15.02L15.21 11.79C15.51 11.49 15.98 11.49 16.27 11.79C16.57 12.08 16.57 12.55 16.27 12.85L12.53 16.61C12.39 16.75 12.19 16.83 12 16.83Z" fill="#212121" fill-opacity="1.000000" fill-rule="evenodd"/>
	</g>
</svg>
