<svg width="24.000000" height="24.000000" viewBox="0 0 24 24" fill="none" xmlns="http://www.w3.org/2000/svg" xmlns:xlink="http://www.w3.org/1999/xlink">
	<desc>
			Created with Pixso.
	</desc>
	<defs>
		<clipPath id="clip430_8625">
			<rect id="Iconly/Light-Outline/Work" width="24.000000" height="24.000000" fill="white" fill-opacity="0"/>
		</clipPath>
	</defs>
	<rect id="Iconly/Light-Outline/Work" width="24.000000" height="24.000000" fill="#FFFFFF" fill-opacity="0"/>
	<g clip-path="url(#clip430_8625)">
		<path id="Fill 1" d="M11.99 17.42C11.58 17.42 11.24 17.09 11.24 16.67L11.24 14.13C11.24 13.72 11.58 13.38 11.99 13.38C12.4 13.38 12.74 13.72 12.74 14.13L12.74 16.67C12.74 17.09 12.4 17.42 11.99 17.42Z" fill="#212121" fill-opacity="1.000000" fill-rule="evenodd"/>
		<mask id="mask430_8629" mask-type="alpha" maskUnits="userSpaceOnUse" x="2.000244" y="4.579956" width="19.989746" height="10.311035">
			<path id="Clip 4" d="M2 4.57L21.99 4.57L21.99 14.89L2 14.89L2 4.57Z" fill="#000000" fill-opacity="1.000000" fill-rule="evenodd"/>
		</mask>
		<g mask="url(#mask430_8629)">
			<path id="Fill 3" d="M2.37158 12.4771C5.02856 14.0331 8.44556 14.8911 11.9905 14.8911C15.5425 14.8911 18.9624 14.0331 21.6194 12.4771C21.8484 12.343 21.9905 12.097 21.9905 11.8301L21.9905 8.39111C21.9905 6.28906 20.2864 4.58008 18.1904 4.58008L5.81055 4.58008C3.70947 4.58008 2.00049 6.28503 2.00049 8.3811L2.00049 11.8301C2.00049 12.097 2.1416 12.343 2.37158 12.4771ZM11.9905 13.3911C8.87256 13.3911 5.87646 12.6841 3.50049 11.3931L3.50049 8.3811C3.50049 7.11206 4.53638 6.08008 5.81055 6.08008L18.1904 6.08008C19.4595 6.08008 20.4905 7.11609 20.4905 8.39111L20.4905 11.3931C18.1135 12.6841 15.1145 13.3911 11.9905 13.3911Z" clip-rule="evenodd" fill="#212121" fill-opacity="1.000000" fill-rule="evenodd"/>
		</g>
		<mask id="mask430_8634" mask-type="alpha" maskUnits="userSpaceOnUse" x="7.745117" y="2.000244" width="8.500000" height="4.075928">
			<path id="Clip 7" d="M7.74 2L16.24 2L16.24 6.07L7.74 6.07L7.74 2Z" fill="#000000" fill-opacity="1.000000" fill-rule="evenodd"/>
		</mask>
		<g mask="url(#mask430_8634)">
			<path id="Fill 6" d="M15.49 6.07C15.08 6.07 14.74 5.74 14.74 5.32L14.74 4.96C14.74 4.15 14.09 3.5 13.28 3.5L10.7 3.5C9.9 3.5 9.24 4.15 9.24 4.96L9.24 5.32C9.24 5.74 8.9 6.07 8.49 6.07C8.08 6.07 7.74 5.74 7.74 5.32L7.74 4.96C7.74 3.32 9.07 2 10.7 2L13.28 2C14.91 2 16.24 3.32 16.24 4.96L16.24 5.32C16.24 5.74 15.9 6.07 15.49 6.07Z" fill="#212121" fill-opacity="1.000000" fill-rule="evenodd"/>
		</g>
		<path id="Fill 9" d="M17.79 21.74L6.19 21.74C4.12 21.74 2.37 20.11 2.21 18.04L2.02 15.54C1.99 15.12 2.3 14.76 2.71 14.73C3.13 14.72 3.49 15.01 3.52 15.42L3.71 17.93C3.81 19.22 4.9 20.24 6.19 20.24L17.79 20.24C19.09 20.24 20.18 19.22 20.27 17.93L20.46 15.42C20.5 15.01 20.86 14.71 21.27 14.73C21.68 14.76 21.99 15.12 21.96 15.54L21.77 18.04C21.61 20.11 19.87 21.74 17.79 21.74Z" fill="#212121" fill-opacity="1.000000" fill-rule="evenodd"/>
	</g>
</svg>
