<svg width="24.000000" height="24.000000" viewBox="0 0 24 24" fill="none" xmlns="http://www.w3.org/2000/svg" xmlns:xlink="http://www.w3.org/1999/xlink">
	<desc>
			Created with Pixso.
	</desc>
	<defs>
		<clipPath id="clip430_8570">
			<rect id="Iconly/Light-Outline/Send" width="24.000000" height="24.000000" fill="white" fill-opacity="0"/>
		</clipPath>
	</defs>
	<rect id="Iconly/Light-Outline/Send" width="24.000000" height="24.000000" fill="#FFFFFF" fill-opacity="0"/>
	<g clip-path="url(#clip430_8570)">
		<mask id="mask430_8572" mask-type="alpha" maskUnits="userSpaceOnUse" x="2.000000" y="3.000366" width="19.499023" height="19.499023">
			<path id="Clip 2" d="M2 3L21.49 3L21.49 22.49L2 22.49L2 3Z" fill="#000000" fill-opacity="1.000000" fill-rule="evenodd"/>
		</mask>
		<g mask="url(#mask430_8572)">
			<path id="Fill 1" d="M13.1851 21.5377C13.561 22.1458 14.199 22.4998 14.895 22.4998C14.9871 22.4998 15.0779 22.4928 15.1719 22.4807C15.9729 22.3738 16.613 21.8248 16.842 21.0477L21.415 5.60376C21.627 4.88977 21.4319 4.11975 20.908 3.59277C20.384 3.0708 19.6218 2.87378 18.9109 3.08179L3.45483 7.60779C2.68091 7.83472 2.12988 8.47278 2.02002 9.27576C1.90894 10.0787 2.26685 10.8428 2.9519 11.2717L9.30786 15.2468L13.1851 21.5377ZM10.8049 14.8177L14.4619 20.7507C14.6218 21.0107 14.8718 21.0078 14.9729 20.9938C15.074 20.9797 15.3169 20.9177 15.405 20.6228L19.978 5.17773C20.0579 4.90479 19.9109 4.71875 19.845 4.65283C19.781 4.58679 19.5979 4.4458 19.333 4.52075L3.87695 9.04675C3.58398 9.13281 3.52002 9.37878 3.50586 9.47974C3.49194 9.58276 3.48804 9.83777 3.74683 10.0007L9.74805 13.7538L15.05 8.39575C15.3411 8.10181 15.8159 8.09875 16.1108 8.38977C16.406 8.68079 16.408 9.15674 16.1169 9.45081L10.8049 14.8177Z" clip-rule="evenodd" fill="#212121" fill-opacity="1.000000" fill-rule="evenodd"/>
		</g>
	</g>
</svg>
