<svg width="24.000000" height="24.000000" viewBox="0 0 24 24" fill="none" xmlns="http://www.w3.org/2000/svg" xmlns:xlink="http://www.w3.org/1999/xlink">
	<desc>
			Created with Pixso.
	</desc>
	<defs>
		<clipPath id="clip430_8423">
			<rect id="Iconly/Light-Outline/Edit Square" width="24.000000" height="24.000000" fill="white" fill-opacity="0"/>
		</clipPath>
	</defs>
	<rect id="Iconly/Light-Outline/Edit Square" width="24.000000" height="24.000000" fill="#FFFFFF" fill-opacity="0"/>
	<g clip-path="url(#clip430_8423)">
		<path id="Fill 1" d="M16.57 22.36L7.75 22.36C4.31 22.36 2 19.95 2 16.35L2 8.04C2 4.45 4.31 2.03 7.75 2.03L11.49 2.03C11.9 2.03 12.24 2.37 12.24 2.78C12.24 3.2 11.9 3.53 11.49 3.53L7.75 3.53C5.16 3.53 3.5 5.3 3.5 8.04L3.5 16.35C3.5 19.09 5.16 20.86 7.75 20.86L16.57 20.86C19.16 20.86 20.83 19.09 20.83 16.35L20.83 12.33C20.83 11.91 21.16 11.58 21.58 11.58C21.99 11.58 22.33 11.91 22.33 12.33L22.33 16.35C22.33 19.95 20.01 22.36 16.57 22.36Z" fill="#212121" fill-opacity="1.000000" fill-rule="evenodd"/>
		<path id="Fill 3" d="M8.09888 16.9282L11.845 16.9282C12.6248 16.9282 13.3589 16.6243 13.9099 16.0732L21.4189 8.56421C22.0107 7.97327 22.3369 7.18726 22.3369 6.34924C22.3379 5.51123 22.012 4.72424 21.4189 4.1322L20.2019 2.91528C18.98 1.69519 16.9929 1.69519 15.7708 2.91528L8.29785 10.3882L8.29688 10.3882C7.76489 10.9213 7.46191 11.6283 7.44287 12.3802L7.34888 16.1593C7.34375 16.3623 7.4209 16.5573 7.56177 16.7013C7.70288 16.8462 7.89697 16.9282 8.09888 16.9282ZM8.86792 15.4282L11.845 15.4282C12.2249 15.4282 12.5808 15.2812 12.8499 15.0122L20.3589 7.5033C20.6667 7.19519 20.8369 6.78528 20.8369 6.34924C20.8369 5.91223 20.6667 5.50122 20.3589 5.19324L19.1418 3.9762C18.5049 3.34119 17.4688 3.34119 16.8308 3.9762L9.35791 11.4492C9.09888 11.7083 8.9519 12.0522 8.94287 12.4172L8.86792 15.4282Z" clip-rule="evenodd" fill="#212121" fill-opacity="1.000000" fill-rule="evenodd"/>
		<path id="Fill 5" d="M19.73 9.91C19.53 9.91 19.34 9.84 19.2 9.69L14.63 5.13C14.34 4.83 14.34 4.36 14.63 4.06C14.92 3.77 15.4 3.77 15.69 4.06L20.26 8.63C20.55 8.92 20.55 9.4 20.26 9.69C20.11 9.84 19.92 9.91 19.73 9.91Z" fill="#212121" fill-opacity="1.000000" fill-rule="evenodd"/>
	</g>
</svg>
