<svg width="24.000000" height="24.000000" viewBox="0 0 24 24" fill="none" xmlns="http://www.w3.org/2000/svg" xmlns:xlink="http://www.w3.org/1999/xlink">
	<desc>
			Created with Pixso.
	</desc>
	<defs>
		<clipPath id="clip430_8325">
			<rect id="Iconly/Light-Outline/Voice" width="24.000000" height="24.000000" fill="white" fill-opacity="0"/>
		</clipPath>
	</defs>
	<rect id="Iconly/Light-Outline/Voice" width="24.000000" height="24.000000" fill="#FFFFFF" fill-opacity="0"/>
	<g clip-path="url(#clip430_8325)">
		<path id="Fill 1" d="M11.74 22.5C11.33 22.5 10.99 22.16 10.99 21.75L10.99 18.58C10.99 18.17 11.33 17.83 11.74 17.83C12.16 17.83 12.49 18.17 12.49 18.58L12.49 21.75C12.49 22.16 12.16 22.5 11.74 22.5Z" fill="#212121" fill-opacity="1.000000" fill-rule="evenodd"/>
		<path id="Fill 3" d="M6.9375 10.519C6.9375 13.182 9.09644 15.349 11.7495 15.349C14.4026 15.349 16.5615 13.182 16.5615 10.519L16.5615 5.83105C16.5615 3.16699 14.4026 1 11.7495 1C9.09644 1 6.9375 3.16699 6.9375 5.83105L6.9375 10.519ZM8.4375 5.83105C8.4375 3.99402 9.92358 2.5 11.7495 2.5C13.5754 2.5 15.0615 3.99402 15.0615 5.83105L15.0615 10.519C15.0615 12.354 13.5754 13.849 11.7495 13.849C9.92358 13.849 8.4375 12.354 8.4375 10.519L8.4375 5.83105Z" clip-rule="evenodd" fill="#212121" fill-opacity="1.000000" fill-rule="evenodd"/>
		<mask id="mask430_8332" mask-type="alpha" maskUnits="userSpaceOnUse" x="3.000000" y="9.800903" width="17.499512" height="9.537964">
			<path id="Clip 6" d="M3 9.8L20.49 9.8L20.49 19.33L3 19.33L3 9.8Z" fill="#000000" fill-opacity="1.000000" fill-rule="evenodd"/>
		</mask>
		<g mask="url(#mask430_8332)">
			<path id="Fill 5" d="M11.74 19.33C6.92 19.33 2.99 15.39 2.99 10.55C2.99 10.13 3.33 9.8 3.74 9.8C4.16 9.8 4.49 10.13 4.49 10.55C4.49 14.56 7.75 17.83 11.74 17.83C15.74 17.83 18.99 14.56 18.99 10.55C18.99 10.13 19.33 9.8 19.74 9.8C20.16 9.8 20.49 10.13 20.49 10.55C20.49 15.39 16.57 19.33 11.74 19.33Z" fill="#212121" fill-opacity="1.000000" fill-rule="evenodd"/>
		</g>
	</g>
</svg>
