<svg width="24.000000" height="24.000000" viewBox="0 0 24 24" fill="none" xmlns="http://www.w3.org/2000/svg" xmlns:xlink="http://www.w3.org/1999/xlink">
	<desc>
			Created with Pixso.
	</desc>
	<defs>
		<clipPath id="clip430_9014">
			<rect id="Iconly/Light-Outline/Arrow - Down" width="24.000000" height="24.000000" fill="white" fill-opacity="0"/>
		</clipPath>
	</defs>
	<rect id="Iconly/Light-Outline/Arrow - Down" width="24.000000" height="24.000000" fill="#FFFFFF" fill-opacity="0"/>
	<g clip-path="url(#clip430_9014)">
		<path id="Stroke 1" d="M12.27 4C12.65 4 12.96 4.28 13.01 4.64L13.02 4.75L13.02 19.75C13.02 20.16 12.68 20.5 12.27 20.5C11.89 20.5 11.58 20.21 11.53 19.85L11.52 19.75L11.52 4.75C11.52 4.33 11.86 4 12.27 4Z" fill="#212121" fill-opacity="1.000000" fill-rule="nonzero"/>
		<path id="Stroke 3" d="M17.76 13.17C18.05 12.87 18.53 12.87 18.82 13.16C19.09 13.43 19.11 13.85 18.9 14.14L18.83 14.22L12.8 20.27C12.53 20.54 12.12 20.57 11.82 20.35L11.74 20.27L5.71 14.22C5.42 13.93 5.42 13.46 5.72 13.16C5.98 12.9 6.4 12.87 6.69 13.09L6.78 13.17L12.27 18.68L17.76 13.17Z" fill="#212121" fill-opacity="1.000000" fill-rule="nonzero"/>
	</g>
</svg>
