<svg width="24.000000" height="24.000000" viewBox="0 0 24 24" fill="none" xmlns="http://www.w3.org/2000/svg" xmlns:xlink="http://www.w3.org/1999/xlink">
	<desc>
			Created with Pixso.
	</desc>
	<defs>
		<clipPath id="clip430_8532">
			<rect id="Iconly/Light-Outline/Danger Circle" width="24.000000" height="24.000000" fill="white" fill-opacity="0"/>
		</clipPath>
	</defs>
	<rect id="Iconly/Light-Outline/Danger Circle" width="24.000000" height="24.000000" fill="#FFFFFF" fill-opacity="0"/>
	<g clip-path="url(#clip430_8532)">
		<path id="Fill 1" d="M2 12C2 17.514 6.48608 22 12 22C17.5139 22 22 17.514 22 12C22 6.48596 17.5139 2 12 2C6.48608 2 2 6.48596 2 12ZM3.5 12C3.5 7.31299 7.31299 3.5 12 3.5C16.687 3.5 20.5 7.31299 20.5 12C20.5 16.687 16.687 20.5 12 20.5C7.31299 20.5 3.5 16.687 3.5 12Z" clip-rule="evenodd" fill="#212121" fill-opacity="1.000000" fill-rule="evenodd"/>
		<path id="Fill 3" d="M11.99 13.37C11.58 13.37 11.24 13.03 11.24 12.62L11.24 8.2C11.24 7.79 11.58 7.45 11.99 7.45C12.4 7.45 12.74 7.79 12.74 8.2L12.74 12.62C12.74 13.03 12.4 13.37 11.99 13.37Z" fill="#212121" fill-opacity="1.000000" fill-rule="evenodd"/>
		<path id="Fill 5" d="M12 16.79C11.45 16.79 10.99 16.34 10.99 15.79C10.99 15.24 11.44 14.79 11.99 14.79L12 14.79C12.55 14.79 13 15.24 13 15.79C13 16.34 12.55 16.79 12 16.79Z" fill="#212121" fill-opacity="1.000000" fill-rule="evenodd"/>
	</g>
</svg>
