<svg width="24.000000" height="24.000000" viewBox="0 0 24 24" fill="none" xmlns="http://www.w3.org/2000/svg" xmlns:xlink="http://www.w3.org/1999/xlink">
	<desc>
			Created with Pixso.
	</desc>
	<defs>
		<clipPath id="clip430_8677">
			<rect id="Iconly/Light-Outline/Call Silent" width="24.000000" height="24.000000" fill="white" fill-opacity="0"/>
		</clipPath>
	</defs>
	<rect id="Iconly/Light-Outline/Call Silent" width="24.000000" height="24.000000" fill="#FFFFFF" fill-opacity="0"/>
	<g clip-path="url(#clip430_8677)">
		<mask id="mask430_8680" mask-type="alpha" maskUnits="userSpaceOnUse" x="2.000000" y="2.000488" width="9.295410" height="13.104004">
			<path id="Clip 2" d="M2 2L11.29 2L11.29 15.1L2 15.1L2 2Z" fill="#000000" fill-opacity="1.000000" fill-rule="evenodd"/>
		</mask>
		<g mask="url(#mask430_8680)">
			<path id="Fill 1" d="M6.72 15.1C6.51 15.1 6.31 15.01 6.16 14.85C0.82 8.79 1.58 5.66 3.17 4.1C3.18 4.08 3.24 4.02 3.25 4C4.66 2.58 5.62 2 6.56 2L6.58 2C7.7 2.01 8.48 2.85 9.47 3.91C9.72 4.17 9.98 4.46 10.28 4.75C11.71 6.21 11.3 7.4 10.98 8.36C10.74 9.05 10.53 9.64 10.91 10.5C11.07 10.88 10.9 11.32 10.52 11.48C10.14 11.65 9.7 11.48 9.53 11.1C8.93 9.71 9.29 8.65 9.56 7.87C9.85 7.03 9.99 6.6 9.21 5.81C8.91 5.5 8.63 5.21 8.38 4.94C7.6 4.1 7.04 3.5 6.57 3.5L6.56 3.5C6.09 3.5 5.36 4.01 4.32 5.06C4.32 5.05 4.33 5.05 4.33 5.05C4.33 5.05 4.28 5.1 4.22 5.16C2.08 7.28 5.22 11.52 7.28 13.85C7.56 14.16 7.53 14.64 7.22 14.91C7.07 15.04 6.9 15.1 6.72 15.1Z" fill="#212121" fill-opacity="1.000000" fill-rule="evenodd"/>
		</g>
		<path id="Fill 4" d="M17.96 22.81C15.67 22.81 12.73 21.07 9.22 17.64C8.92 17.35 8.92 16.88 9.21 16.58C9.5 16.28 9.97 16.28 10.27 16.57C14.33 20.54 16.7 21.37 18.02 21.31C18.99 21.29 19.44 20.8 19.66 20.57C19.72 20.5 19.77 20.46 19.81 20.42C20.8 19.41 21.3 18.66 21.3 18.18C21.29 17.68 20.69 17.1 19.87 16.3C19.61 16.05 19.33 15.78 19.03 15.47C18.26 14.69 17.88 14.83 17.05 15.13C16.02 15.5 14.61 16.01 12.56 14.32C12.24 14.06 12.19 13.59 12.46 13.27C12.72 12.95 13.19 12.9 13.51 13.17C14.9 14.3 15.62 14.04 16.54 13.72C17.43 13.39 18.66 12.96 20.1 14.42C20.39 14.72 20.66 14.98 20.91 15.23C21.96 16.24 22.78 17.04 22.79 18.16C22.81 19.11 22.24 20.08 20.84 21.51L20.74 21.61L20.79 21.56C20.49 21.89 19.65 22.78 18.06 22.81C18.02 22.81 17.99 22.81 17.96 22.81Z" fill="#212121" fill-opacity="1.000000" fill-rule="evenodd"/>
		<path id="Fill 6" d="M4.63 22.39C4.45 22.39 4.27 22.33 4.12 22.19C3.82 21.91 3.8 21.43 4.09 21.13L19.09 5.13C19.37 4.83 19.85 4.81 20.15 5.1C20.45 5.38 20.46 5.86 20.18 6.16L5.18 22.16C5.03 22.32 4.83 22.39 4.63 22.39Z" fill="#212121" fill-opacity="1.000000" fill-rule="evenodd"/>
	</g>
</svg>
