<svg width="24.000000" height="24.000000" viewBox="0 0 24 24" fill="none" xmlns="http://www.w3.org/2000/svg" xmlns:xlink="http://www.w3.org/1999/xlink">
	<desc>
			Created with Pixso.
	</desc>
	<defs>
		<clipPath id="clip430_8539">
			<rect id="Iconly/Light-Outline/3 User" width="24.000000" height="24.000000" fill="white" fill-opacity="0"/>
		</clipPath>
	</defs>
	<rect id="Iconly/Light-Outline/3 User" width="24.000000" height="24.000000" fill="#FFFFFF" fill-opacity="0"/>
	<g clip-path="url(#clip430_8539)">
		<path id="Fill 1" d="M17.88 12.14C17.51 12.14 17.19 11.87 17.14 11.5C17.08 11.08 17.37 10.71 17.78 10.65C18.82 10.5 19.6 9.6 19.61 8.55C19.61 7.51 18.86 6.62 17.83 6.45C17.42 6.39 17.14 6 17.21 5.59C17.28 5.18 17.66 4.91 18.07 4.97C19.83 5.26 21.11 6.77 21.11 8.55C21.1 10.35 19.76 11.89 17.99 12.13C17.95 12.14 17.92 12.14 17.88 12.14Z" fill="#212121" fill-opacity="1.000000" fill-rule="evenodd"/>
		<mask id="mask430_8543" mask-type="alpha" maskUnits="userSpaceOnUse" x="18.978027" y="14.001709" width="3.793945" height="4.529541">
			<path id="Clip 4" d="M18.97 14L22.77 14L22.77 18.53L18.97 18.53L18.97 14Z" fill="#000000" fill-opacity="1.000000" fill-rule="evenodd"/>
		</mask>
		<g mask="url(#mask430_8543)">
			<path id="Fill 3" d="M20.86 18.53C20.55 18.53 20.27 18.34 20.16 18.04C20.01 17.66 20.2 17.22 20.59 17.08C21.27 16.82 21.27 16.53 21.27 16.4C21.27 15.96 20.71 15.65 19.61 15.49C19.2 15.43 18.92 15.04 18.98 14.63C19.04 14.22 19.42 13.95 19.84 14C22.26 14.37 22.77 15.5 22.77 16.4C22.77 16.94 22.55 17.93 21.12 18.48C21.04 18.51 20.95 18.53 20.86 18.53Z" fill="#212121" fill-opacity="1.000000" fill-rule="evenodd"/>
		</g>
		<path id="Fill 6" d="M5.17773 17.5961C5.17773 20.791 10.2278 20.791 11.8867 20.791C13.7217 20.791 18.5947 20.791 18.5947 17.613C18.5947 14.4141 13.5457 14.4141 11.8867 14.4141C10.2278 14.4141 5.17773 14.4141 5.17773 17.5961ZM6.67773 17.5961C6.67773 16.2061 9.51074 15.9141 11.8867 15.9141C14.2627 15.9141 17.0947 16.2091 17.0947 17.613C17.0947 19.0001 14.2627 19.291 11.8867 19.291C9.51074 19.291 6.67773 18.9971 6.67773 17.5961Z" clip-rule="evenodd" fill="#212121" fill-opacity="1.000000" fill-rule="evenodd"/>
		<path id="Fill 8" d="M11.8599 13.1379L11.887 13.1379C14.407 13.1379 16.4558 11.088 16.4558 8.56897C16.4558 6.05005 14.407 4 11.887 4C9.36792 4 7.31885 6.05005 7.31885 8.56604C7.31396 9.78296 7.78296 10.929 8.64087 11.792C9.49683 12.656 10.6399 13.134 11.8599 13.1379ZM11.887 5.5C10.1948 5.5 8.81885 6.87695 8.81885 8.56897C8.81592 9.38904 9.12988 10.156 9.70483 10.735C10.2798 11.314 11.0459 11.635 11.8618 11.6379L11.887 12.3879L11.887 11.6379C13.5789 11.6379 14.9558 10.262 14.9558 8.56897C14.9558 6.87695 13.5789 5.5 11.887 5.5Z" clip-rule="evenodd" fill="#212121" fill-opacity="1.000000" fill-rule="evenodd"/>
		<path id="Fill 10" d="M5.88 12.14C5.85 12.14 5.81 12.14 5.78 12.13C4 11.89 2.66 10.35 2.66 8.55C2.66 6.77 3.93 5.26 5.69 4.97C6.11 4.91 6.49 5.19 6.55 5.59C6.62 6 6.34 6.39 5.94 6.45C4.91 6.62 4.16 7.51 4.16 8.55C4.16 9.6 4.94 10.5 5.98 10.65C6.39 10.71 6.68 11.08 6.62 11.5C6.57 11.87 6.25 12.14 5.88 12.14Z" fill="#212121" fill-opacity="1.000000" fill-rule="evenodd"/>
		<path id="Fill 12" d="M2.91 18.53C2.82 18.53 2.73 18.51 2.64 18.48C1.21 17.93 1 16.94 1 16.4C1 15.51 1.5 14.37 3.93 14C4.34 13.95 4.72 14.22 4.78 14.63C4.84 15.04 4.56 15.43 4.15 15.49C3.05 15.65 2.5 15.96 2.5 16.4C2.5 16.53 2.5 16.82 3.17 17.08C3.56 17.22 3.76 17.66 3.61 18.04C3.49 18.34 3.21 18.53 2.91 18.53Z" fill="#212121" fill-opacity="1.000000" fill-rule="evenodd"/>
	</g>
</svg>
