<svg width="24.000000" height="24.000000" viewBox="0 0 24 24" fill="none" xmlns="http://www.w3.org/2000/svg" xmlns:xlink="http://www.w3.org/1999/xlink">
	<desc>
			Created with Pixso.
	</desc>
	<defs>
		<clipPath id="clip430_8647">
			<rect id="Iconly/Light-Outline/Password" width="24.000000" height="24.000000" fill="white" fill-opacity="0"/>
		</clipPath>
	</defs>
	<rect id="Iconly/Light-Outline/Password" width="24.000000" height="24.000000" fill="#FFFFFF" fill-opacity="0"/>
	<g clip-path="url(#clip430_8647)">
		<mask id="mask430_8650" mask-type="alpha" maskUnits="userSpaceOnUse" x="2.000000" y="2.000000" width="20.000000" height="20.000000">
			<path id="Clip 2" d="M2 2L22 2L22 22L2 22L2 2Z" fill="#000000" fill-opacity="1.000000" fill-rule="evenodd"/>
		</mask>
		<g mask="url(#mask430_8650)">
			<path id="Fill 1" d="M7.66406 22L16.332 22C19.7229 22 22 19.6219 22 16.084L22 7.91602C22 4.37805 19.7229 2 16.334 2L7.66406 2C4.27588 2 2 4.37805 2 7.91602L2 16.084C2 19.6219 4.27588 22 7.66406 22ZM3.5 7.91602C3.5 5.23303 5.13501 3.5 7.66406 3.5L16.334 3.5C18.864 3.5 20.5 5.23303 20.5 7.91602L20.5 16.084C20.5 18.767 18.864 20.5 16.332 20.5L7.66406 20.5C5.13501 20.5 3.5 18.767 3.5 16.084L3.5 7.91602Z" clip-rule="evenodd" fill="#212121" fill-opacity="1.000000" fill-rule="evenodd"/>
		</g>
		<path id="Fill 4" d="M6.23486 12.0005C6.23486 13.4344 7.40186 14.6024 8.83691 14.6024C10.272 14.6024 11.439 13.4344 11.439 12.0005C11.439 10.5664 10.2739 9.39941 8.83691 9.39844C7.40186 9.39844 6.23486 10.5654 6.23486 12.0005ZM7.73486 12.0005C7.73486 11.3925 8.22876 10.8984 8.83887 10.8984C9.44482 10.8994 9.93896 11.3934 9.93896 12.0005C9.93896 12.6084 9.44385 13.1024 8.83691 13.1024C8.22876 13.1024 7.73486 12.6084 7.73486 12.0005Z" clip-rule="evenodd" fill="#212121" fill-opacity="1.000000" fill-rule="evenodd"/>
		<path id="Fill 6" d="M17 14.6C16.59 14.6 16.25 14.26 16.25 13.85L16.25 12.74L10.69 12.74C10.27 12.74 9.94 12.41 9.94 11.99C9.94 11.58 10.27 11.24 10.69 11.24L17 11.24C17.42 11.24 17.75 11.58 17.75 11.99L17.75 13.85C17.75 14.26 17.42 14.6 17 14.6Z" fill="#212121" fill-opacity="1.000000" fill-rule="evenodd"/>
		<path id="Fill 8" d="M14.18 14.6C13.76 14.6 13.43 14.26 13.43 13.85L13.43 11.99C13.43 11.58 13.76 11.24 14.18 11.24C14.59 11.24 14.93 11.58 14.93 11.99L14.93 13.85C14.93 14.26 14.59 14.6 14.18 14.6Z" fill="#212121" fill-opacity="1.000000" fill-rule="evenodd"/>
	</g>
</svg>
