<svg width="24.000000" height="24.000000" viewBox="0 0 24 24" fill="none" xmlns="http://www.w3.org/2000/svg" xmlns:xlink="http://www.w3.org/1999/xlink">
	<desc>
			Created with Pixso.
	</desc>
	<defs>
		<clipPath id="clip430_9000">
			<rect id="Iconly/Light-Outline/Arrow - Left 3" width="24.000000" height="24.000000" fill="white" fill-opacity="0"/>
		</clipPath>
	</defs>
	<rect id="Iconly/Light-Outline/Arrow - Left 3" width="24.000000" height="24.000000" fill="#FFFFFF" fill-opacity="0"/>
	<g clip-path="url(#clip430_9000)">
		<path id="Fill 1" d="M12.29 13.5L21.24 13.5C21.66 13.5 21.99 13.16 21.99 12.75C21.99 12.33 21.66 12 21.24 12L12.29 12C11.88 12 11.54 12.33 11.54 12.75C11.54 13.16 11.88 13.5 12.29 13.5Z" fill="#212121" fill-opacity="1.000000" fill-rule="evenodd"/>
		<mask id="mask430_9004" mask-type="alpha" maskUnits="userSpaceOnUse" x="3.612793" y="7.000366" width="9.437012" height="11.500977">
			<path id="Clip 4" d="M13.04 7L3.61 7L3.61 18.5L13.04 18.5L13.04 7Z" fill="#000000" fill-opacity="1.000000" fill-rule="evenodd"/>
		</mask>
		<g mask="url(#mask430_9004)">
			<path id="Fill 3" d="M12.6619 18.4078C12.5488 18.4698 12.4248 18.5018 12.2998 18.5018C12.1609 18.5018 12.0217 18.4628 11.9009 18.3859L3.96289 13.3848C3.7439 13.2478 3.61279 13.0078 3.61279 12.7509C3.61279 12.4928 3.7439 12.2538 3.96289 12.1158L11.9009 7.11475C12.1299 6.96985 12.4229 6.96179 12.6619 7.09277C12.9019 7.22485 13.0498 7.47583 13.0498 7.74976L13.0498 17.7518C13.0498 18.0248 12.9019 18.2758 12.6619 18.4078ZM11.5498 16.3918L11.5498 9.10876L5.76978 12.7509L11.5498 16.3918Z" clip-rule="evenodd" fill="#212121" fill-opacity="1.000000" fill-rule="evenodd"/>
		</g>
	</g>
</svg>
