<svg width="24.000000" height="24.000000" viewBox="0 0 24 24" fill="none" xmlns="http://www.w3.org/2000/svg" xmlns:xlink="http://www.w3.org/1999/xlink">
	<desc>
			Created with Pixso.
	</desc>
	<defs>
		<clipPath id="clip430_8257">
			<rect id="Iconly/Light-Outline/Notification" width="24.000000" height="24.000000" fill="white" fill-opacity="0"/>
		</clipPath>
	</defs>
	<rect id="Iconly/Light-Outline/Notification" width="24.000000" height="24.000000" fill="#FFFFFF" fill-opacity="0"/>
	<g clip-path="url(#clip430_8257)">
		<mask id="mask430_8260" mask-type="alpha" maskUnits="userSpaceOnUse" x="3.000000" y="1.000000" width="18.496826" height="17.348022">
			<path id="Clip 2" d="M3 1L21.49 1L21.49 18.34L3 18.34L3 1Z" fill="#000000" fill-opacity="1.000000" fill-rule="evenodd"/>
		</mask>
		<g mask="url(#mask430_8260)">
			<path id="Fill 1" d="M3 14.035C3.34497 18.0179 7.57104 18.348 12.2471 18.348C16.9231 18.348 21.1479 18.0179 21.4971 13.9709C21.4971 12.387 20.9939 11.549 20.55 10.811C20.1011 10.063 19.678 9.35803 19.678 7.69495C19.678 4.46204 16.6919 1 12.2471 1C7.802 1 4.81592 4.46204 4.81592 7.69495C4.81592 9.35803 4.39307 10.063 3.94409 10.811C3.5 11.549 2.99707 12.387 3 14.035ZM12.2471 2.5C8.75195 2.5 6.31592 5.23804 6.31592 7.69495C6.31592 9.77405 5.73901 10.735 5.229 11.583C4.82007 12.264 4.49707 12.802 4.49707 13.9709C4.66406 15.8571 5.90894 16.848 12.2471 16.848C18.55 16.848 19.834 15.813 20 13.906C19.9971 12.802 19.6741 12.264 19.2649 11.583C18.7551 10.735 18.178 9.77405 18.178 7.69495C18.178 5.23804 15.7419 2.5 12.2471 2.5Z" clip-rule="evenodd" fill="#212121" fill-opacity="1.000000" fill-rule="evenodd"/>
		</g>
		<path id="Fill 4" d="M12.19 22.5L12.19 22.5C11.07 22.49 10.01 22 9.2 21.1C8.93 20.8 8.95 20.32 9.26 20.04C9.57 19.77 10.04 19.79 10.32 20.1C10.84 20.68 11.5 21 12.19 21L12.19 21C12.89 21 13.55 20.68 14.07 20.1C14.35 19.79 14.83 19.77 15.13 20.04C15.44 20.32 15.47 20.8 15.19 21.1C14.38 22 13.32 22.5 12.19 22.5Z" fill="#212121" fill-opacity="1.000000" fill-rule="evenodd"/>
	</g>
</svg>
