<svg width="24.000000" height="24.000000" viewBox="0 0 24 24" fill="none" xmlns="http://www.w3.org/2000/svg" xmlns:xlink="http://www.w3.org/1999/xlink">
	<desc>
			Created with Pixso.
	</desc>
	<defs>
		<clipPath id="clip430_8383">
			<rect id="Iconly/Light-Outline/Buy" width="24.000000" height="24.000000" fill="white" fill-opacity="0"/>
		</clipPath>
	</defs>
	<rect id="Iconly/Light-Outline/Buy" width="24.000000" height="24.000000" fill="#FFFFFF" fill-opacity="0"/>
	<g clip-path="url(#clip430_8383)">
		<path id="Fill 1" d="M5.43555 15.6425C5.54248 16.9575 6.65771 17.9855 7.97461 17.9855L18.8955 17.9855C20.1555 17.9855 21.2395 17.0444 21.4187 15.7965L22.3677 9.23853C22.4475 8.68652 22.3076 8.1355 21.9736 7.68848C21.6396 7.24048 21.1497 6.94946 20.5925 6.86853C20.5237 6.86047 20.4775 6.85352 6.20166 6.84753L5.96655 4.04651C5.9375 3.70654 5.68262 3.42847 5.34766 3.36951L3.26758 3.00952C2.86768 2.94543 2.47266 3.21155 2.40063 3.62048C2.33057 4.02954 2.60352 4.4165 3.0127 4.48853L4.51953 4.74854L5.43555 15.6425ZM6.32764 8.34753L6.93066 15.5195C6.97461 16.0715 7.42554 16.4855 7.97656 16.4855L18.8936 16.4855C19.4146 16.4855 19.8596 16.0975 19.9336 15.5825L20.8835 9.02344C20.9055 8.86743 20.8667 8.71143 20.7715 8.58545C20.6775 8.4585 20.5396 8.37646 20.3835 8.35449C20.2417 8.35986 16.2053 8.35608 12.0083 8.35217L12.0068 8.35217C10.0171 8.35034 7.99146 8.34851 6.32764 8.34753Z" clip-rule="evenodd" fill="#212121" fill-opacity="1.000000" fill-rule="evenodd"/>
		<path id="Fill 3" d="M17.28 12.04L14.51 12.04C14.1 12.04 13.76 11.7 13.76 11.29C13.76 10.87 14.1 10.54 14.51 10.54L17.28 10.54C17.7 10.54 18.03 10.87 18.03 11.29C18.03 11.7 17.7 12.04 17.28 12.04Z" fill="#212121" fill-opacity="1.000000" fill-rule="evenodd"/>
		<path id="Fill 5" d="M7.54 20.7C7.84 20.7 8.08 20.94 8.08 21.24C8.08 21.54 7.84 21.79 7.54 21.79C7.24 21.79 6.99 21.54 6.99 21.24C6.99 20.94 7.24 20.7 7.54 20.7Z" fill="#212121" fill-opacity="1.000000" fill-rule="evenodd"/>
		<mask id="mask430_8392" mask-type="alpha" maskUnits="userSpaceOnUse" x="6.999023" y="20.701538" width="1.090088" height="1.089966">
			<path id="Clip 9" d="M6.99 21.24C6.99 21.54 7.24 21.79 7.54 21.79C7.84 21.79 8.08 21.54 8.08 21.24C8.08 20.94 7.84 20.7 7.54 20.7C7.24 20.7 6.99 20.94 6.99 21.24Z" fill="#000000" fill-opacity="1.000000" fill-rule="evenodd"/>
		</mask>
		<g mask="url(#mask430_8392)">
			<path id="Fill 8" d="M2 26.79L13.08 26.79L13.08 15.7L2 15.7L2 26.79Z" fill="#212121" fill-opacity="1.000000" fill-rule="evenodd"/>
		</g>
		<path id="Fill 11" d="M6.24951 21.2458C6.24951 21.96 6.82959 22.5409 7.54346 22.5409C8.25757 22.5409 8.83862 21.96 8.83862 21.2458C8.83862 20.5319 8.25757 19.9519 7.54346 19.9519C6.82959 19.9519 6.24951 20.5319 6.24951 21.2458ZM7.33862 21.2458C7.33862 21.1329 7.43042 21.0409 7.54346 21.0409C7.65649 21.0409 7.74951 21.1329 7.74951 21.2458C7.74951 21.4729 7.33862 21.4729 7.33862 21.2458Z" clip-rule="evenodd" fill="#212121" fill-opacity="1.000000" fill-rule="evenodd"/>
		<path id="Fill 13" d="M18.82 20.7C19.12 20.7 19.36 20.94 19.36 21.24C19.36 21.54 19.12 21.79 18.82 21.79C18.52 21.79 18.27 21.54 18.27 21.24C18.27 20.94 18.52 20.7 18.82 20.7Z" fill="#212121" fill-opacity="1.000000" fill-rule="evenodd"/>
		<mask id="mask430_8400" mask-type="alpha" maskUnits="userSpaceOnUse" x="18.280029" y="20.701538" width="1.090088" height="1.089966">
			<path id="Clip 17" d="M18.28 21.24C18.28 21.54 18.52 21.79 18.82 21.79C19.12 21.79 19.37 21.54 19.37 21.24C19.37 20.94 19.12 20.7 18.82 20.7C18.52 20.7 18.28 20.94 18.28 21.24Z" fill="#000000" fill-opacity="1.000000" fill-rule="evenodd"/>
		</mask>
		<g mask="url(#mask430_8400)">
			<path id="Fill 16" d="M13.28 26.79L24.37 26.79L24.37 15.7L13.28 15.7L13.28 26.79Z" fill="#212121" fill-opacity="1.000000" fill-rule="evenodd"/>
		</g>
		<path id="Fill 19" d="M17.5298 21.2458C17.5298 21.96 18.1099 22.5409 18.8237 22.5409C19.5388 22.5409 20.1199 21.96 20.1199 21.2458C20.1199 20.5319 19.5388 19.9519 18.8237 19.9519C18.1099 19.9519 17.5298 20.5319 17.5298 21.2458ZM18.8237 21.0409C18.7117 21.0409 18.6199 21.1329 18.6199 21.2458C18.6208 21.4749 19.0308 21.4729 19.0298 21.2458C19.0298 21.1329 18.9368 21.0409 18.8237 21.0409Z" clip-rule="evenodd" fill="#212121" fill-opacity="1.000000" fill-rule="evenodd"/>
	</g>
</svg>
