<svg width="24.000000" height="24.000000" viewBox="0 0 24 24" fill="none" xmlns="http://www.w3.org/2000/svg" xmlns:xlink="http://www.w3.org/1999/xlink">
	<desc>
			Created with Pixso.
	</desc>
	<defs>
		<clipPath id="clip430_8852">
			<rect id="Iconly/Light-Outline/Time Square" width="24.000000" height="24.000000" fill="white" fill-opacity="0"/>
		</clipPath>
	</defs>
	<rect id="Iconly/Light-Outline/Time Square" width="24.000000" height="24.000000" fill="#FFFFFF" fill-opacity="0"/>
	<g clip-path="url(#clip430_8852)">
		<path id="Fill 1" d="M7.66504 22L16.333 22C19.7229 22 22 19.6219 22 16.084L22 7.91602C22 4.37805 19.7229 2 16.334 2L7.66504 2C4.27588 2 2 4.37805 2 7.91602L2 16.084C2 19.6219 4.27588 22 7.66504 22ZM3.5 7.91602C3.5 5.23303 5.13501 3.5 7.66504 3.5L16.334 3.5C18.865 3.5 20.5 5.23303 20.5 7.91602L20.5 16.084C20.5 18.767 18.864 20.5 16.333 20.5L7.66504 20.5C5.13501 20.5 3.5 18.767 3.5 16.084L3.5 7.91602Z" clip-rule="evenodd" fill="#212121" fill-opacity="1.000000" fill-rule="evenodd"/>
		<path id="Fill 3" d="M15.39 14.76C15.25 14.76 15.12 14.73 15 14.66L11.61 12.63C11.38 12.5 11.24 12.25 11.24 11.99L11.24 7.63C11.24 7.21 11.58 6.88 11.99 6.88C12.41 6.88 12.74 7.21 12.74 7.63L12.74 11.56L15.77 13.37C16.13 13.58 16.24 14.04 16.03 14.4C15.89 14.63 15.64 14.76 15.39 14.76Z" fill="#212121" fill-opacity="1.000000" fill-rule="evenodd"/>
	</g>
</svg>
