<svg width="24.000000" height="24.000000" viewBox="0 0 24 24" fill="none" xmlns="http://www.w3.org/2000/svg" xmlns:xlink="http://www.w3.org/1999/xlink">
	<desc>
			Created with Pixso.
	</desc>
	<defs>
		<clipPath id="clip430_8884">
			<rect id="Iconly/Light-Outline/Volume Up" width="24.000000" height="24.000000" fill="white" fill-opacity="0"/>
		</clipPath>
	</defs>
	<rect id="Iconly/Light-Outline/Volume Up" width="24.000000" height="24.000000" fill="#FFFFFF" fill-opacity="0"/>
	<g clip-path="url(#clip430_8884)">
		<mask id="mask430_8887" mask-type="alpha" maskUnits="userSpaceOnUse" x="2.000000" y="5.000244" width="12.020020" height="15.501953">
			<path id="Clip 2" d="M2 5L14.02 5L14.02 20.5L2 20.5L2 5Z" fill="#000000" fill-opacity="1.000000" fill-rule="evenodd"/>
		</mask>
		<g mask="url(#mask430_8887)">
			<path id="Fill 1" d="M7.37402 18.5552C8.448 19.4071 9.8269 20.5021 11.218 20.5021C11.6379 20.5021 12.0591 20.4021 12.4729 20.1661C12.5049 20.1481 12.5359 20.1271 12.564 20.1051C13.958 19.0092 14.02 16.9441 14.02 12.7501C14.02 8.55713 13.958 6.49219 12.564 5.39709C12.5359 5.37415 12.5049 5.35413 12.4739 5.33508C10.689 4.31812 8.77295 5.83508 7.37402 6.94617C6.88892 7.33118 6.15601 7.91309 5.90503 7.94019C5.61792 7.96118 5.37109 7.96912 5.15308 7.97717C4.35303 8.00415 3.72095 8.02612 2.97803 8.63818C1.98755 9.45386 1.99487 11.1569 2.00098 12.5278L2.00098 12.5342L2.00195 12.7501L2.00098 12.9662L2.00098 12.9724C1.99487 14.3434 1.98755 16.0474 2.97803 16.8632C3.71997 17.4751 4.35107 17.4961 5.14893 17.5251C5.36792 17.5311 5.61597 17.5402 5.90308 17.5621C6.15601 17.5881 6.88892 18.1702 7.37402 18.5552ZM11.208 6.5061C10.3401 6.5061 9.22998 7.38708 8.30591 8.12109C7.41699 8.82617 6.71509 9.38416 6.01489 9.43616C5.70508 9.45813 5.43896 9.46814 5.20508 9.47607C4.45801 9.5011 4.26904 9.51819 3.93188 9.79614C3.49023 10.1589 3.49707 11.6401 3.50098 12.5254L3.50098 12.5271L3.50195 12.7482L3.50195 12.7521L3.50098 12.9731L3.50098 12.975C3.49707 13.8612 3.49023 15.3424 3.93188 15.7051C4.26807 15.9832 4.45703 15.9991 5.2019 16.0261C5.43701 16.0331 5.7041 16.0431 6.01489 16.0662C6.71509 16.1172 7.41699 16.6752 8.30591 17.3801L8.30981 17.3832C9.41211 18.2577 10.7761 19.3396 11.6809 18.8892C12.439 18.2322 12.52 16.4901 12.52 12.7501C12.52 9.01013 12.439 7.26917 11.6809 6.61108C11.5339 6.53809 11.375 6.5061 11.208 6.5061Z" clip-rule="evenodd" fill="#212121" fill-opacity="1.000000" fill-rule="evenodd"/>
		</g>
		<mask id="mask430_8892" mask-type="alpha" maskUnits="userSpaceOnUse" x="19.083984" y="5.903564" width="3.400146" height="13.692261">
			<path id="Clip 5" d="M19.08 5.9L22.48 5.9L22.48 19.59L19.08 19.59L19.08 5.9Z" fill="#000000" fill-opacity="1.000000" fill-rule="evenodd"/>
		</mask>
		<g mask="url(#mask430_8892)">
			<path id="Fill 4" d="M19.83 19.59C19.68 19.59 19.53 19.55 19.4 19.46C19.06 19.22 18.98 18.75 19.21 18.41C21.61 14.97 21.61 10.52 19.21 7.08C18.98 6.74 19.06 6.27 19.4 6.03C19.74 5.8 20.21 5.88 20.44 6.22C23.16 10.13 23.16 15.37 20.44 19.27C20.3 19.48 20.07 19.59 19.83 19.59Z" fill="#212121" fill-opacity="1.000000" fill-rule="evenodd"/>
		</g>
		<path id="Fill 7" d="M17.33 17.18C17.2 17.18 17.07 17.15 16.95 17.08C16.59 16.88 16.47 16.42 16.68 16.06C17.85 14.02 17.85 11.48 16.68 9.43C16.47 9.07 16.59 8.61 16.95 8.41C17.31 8.21 17.77 8.33 17.98 8.69C19.41 11.19 19.41 14.3 17.98 16.8C17.84 17.05 17.59 17.18 17.33 17.18Z" fill="#212121" fill-opacity="1.000000" fill-rule="evenodd"/>
	</g>
</svg>
