<svg width="24.000000" height="24.000000" viewBox="0 0 24 24" fill="none" xmlns="http://www.w3.org/2000/svg" xmlns:xlink="http://www.w3.org/1999/xlink">
	<desc>
			Created with Pixso.
	</desc>
	<defs>
		<clipPath id="clip430_8722">
			<rect id="Iconly/Light-Outline/Hide" width="24.000000" height="24.000000" fill="white" fill-opacity="0"/>
		</clipPath>
	</defs>
	<rect id="Iconly/Light-Outline/Hide" width="24.000000" height="24.000000" fill="#FFFFFF" fill-opacity="0"/>
	<g clip-path="url(#clip430_8722)">
		<path id="Fill 1" d="M9.76 15.61C9.56 15.61 9.37 15.54 9.23 15.39C8.49 14.66 8.08 13.68 8.08 12.63C8.08 10.47 9.84 8.72 12 8.72C13.03 8.72 14.04 9.14 14.76 9.87C15.05 10.16 15.05 10.64 14.75 10.93C14.46 11.22 13.98 11.21 13.69 10.92C13.25 10.47 12.63 10.22 12 10.22C10.66 10.22 9.58 11.3 9.58 12.63C9.58 13.27 9.83 13.88 10.29 14.33C10.58 14.63 10.58 15.1 10.29 15.39C10.14 15.54 9.95 15.61 9.76 15.61Z" fill="#212121" fill-opacity="1.000000" fill-rule="evenodd"/>
		<path id="Fill 3" d="M12.56 16.49C12.21 16.49 11.89 16.23 11.83 15.87C11.75 15.46 12.02 15.07 12.43 15C13.41 14.82 14.19 14.04 14.36 13.06C14.44 12.65 14.83 12.39 15.23 12.46C15.64 12.53 15.91 12.92 15.84 13.33C15.55 14.92 14.29 16.18 12.7 16.47C12.65 16.48 12.61 16.49 12.56 16.49Z" fill="#212121" fill-opacity="1.000000" fill-rule="evenodd"/>
		<mask id="mask430_8727" mask-type="alpha" maskUnits="userSpaceOnUse" x="2.000000" y="4.624512" width="16.086182" height="14.098145">
			<path id="Clip 6" d="M2 4.62L18.08 4.62L18.08 18.72L2 18.72L2 4.62Z" fill="#000000" fill-opacity="1.000000" fill-rule="evenodd"/>
		</mask>
		<g mask="url(#mask430_8727)">
			<path id="Fill 5" d="M6.65 18.72C6.49 18.72 6.32 18.66 6.19 18.56C4.5 17.23 3.07 15.28 2.06 12.93C1.97 12.74 1.97 12.52 2.06 12.34C3.08 9.97 4.52 8.01 6.22 6.68C9.68 3.93 14.3 3.93 17.8 6.7C18.12 6.95 18.18 7.43 17.92 7.75C17.66 8.07 17.19 8.13 16.87 7.87C13.9 5.53 10.08 5.53 7.14 7.86C5.71 8.99 4.48 10.63 3.57 12.63C4.47 14.62 5.69 16.26 7.11 17.38C7.44 17.63 7.5 18.11 7.24 18.43C7.09 18.62 6.87 18.72 6.65 18.72Z" fill="#212121" fill-opacity="1.000000" fill-rule="evenodd"/>
		</g>
		<mask id="mask430_8730" mask-type="alpha" maskUnits="userSpaceOnUse" x="8.717529" y="8.741211" width="13.282471" height="11.948242">
			<path id="Clip 9" d="M8.71 8.74L22 8.74L22 20.68L8.71 20.68L8.71 8.74Z" fill="#000000" fill-opacity="1.000000" fill-rule="evenodd"/>
		</mask>
		<g mask="url(#mask430_8730)">
			<path id="Fill 8" d="M12 20.68C11.06 20.68 10.13 20.53 9.23 20.23C8.83 20.1 8.62 19.68 8.75 19.28C8.88 18.89 9.31 18.68 9.7 18.81C10.45 19.06 11.22 19.18 12 19.18C15.42 19.18 18.56 16.74 20.43 12.63C19.97 11.63 19.44 10.73 18.84 9.94C18.6 9.61 18.66 9.14 18.99 8.89C19.32 8.64 19.79 8.71 20.04 9.04C20.77 10 21.4 11.11 21.93 12.33C22.02 12.52 22.02 12.74 21.93 12.93C19.84 17.79 16.12 20.68 12 20.68Z" fill="#212121" fill-opacity="1.000000" fill-rule="evenodd"/>
		</g>
		<mask id="mask430_8733" mask-type="alpha" maskUnits="userSpaceOnUse" x="3.363525" y="4.000366" width="17.273438" height="17.272949">
			<path id="Clip 12" d="M3.36 4L20.63 4L20.63 21.27L3.36 21.27L3.36 4Z" fill="#000000" fill-opacity="1.000000" fill-rule="evenodd"/>
		</mask>
		<g mask="url(#mask430_8733)">
			<path id="Fill 11" d="M4.11 21.27C3.92 21.27 3.72 21.2 3.58 21.05C3.29 20.76 3.29 20.28 3.58 19.99L19.35 4.21C19.65 3.92 20.12 3.92 20.41 4.21C20.71 4.51 20.71 4.98 20.41 5.28L4.64 21.05C4.49 21.2 4.3 21.27 4.11 21.27Z" fill="#212121" fill-opacity="1.000000" fill-rule="evenodd"/>
		</g>
	</g>
</svg>
