<svg width="24.000000" height="24.000000" viewBox="0 0 24 24" fill="none" xmlns="http://www.w3.org/2000/svg" xmlns:xlink="http://www.w3.org/1999/xlink">
	<desc>
			Created with Pixso.
	</desc>
	<defs>
		<clipPath id="clip430_8972">
			<rect id="Iconly/Light-Outline/Arrow - Up 3" width="24.000000" height="24.000000" fill="white" fill-opacity="0"/>
		</clipPath>
	</defs>
	<rect id="Iconly/Light-Outline/Arrow - Up 3" width="24.000000" height="24.000000" fill="#FFFFFF" fill-opacity="0"/>
	<g clip-path="url(#clip430_8972)">
		<path id="Fill 1" d="M11.75 11.54C11.33 11.54 11 11.88 11 12.29L11 21.24C11 21.66 11.33 21.99 11.75 21.99C12.16 21.99 12.5 21.66 12.5 21.24L12.5 12.29C12.5 11.88 12.16 11.54 11.75 11.54Z" fill="#212121" fill-opacity="1.000000" fill-rule="evenodd"/>
		<mask id="mask430_8976" mask-type="alpha" maskUnits="userSpaceOnUse" x="6.000000" y="3.613281" width="11.501953" height="9.436523">
			<path id="Clip 4" d="M6 13.04L17.5 13.04L17.5 3.61L6 3.61L6 13.04Z" fill="#000000" fill-opacity="1.000000" fill-rule="evenodd"/>
		</mask>
		<g mask="url(#mask430_8976)">
			<path id="Fill 3" d="M11.1165 3.96375C11.2546 3.74475 11.4937 3.61279 11.7515 3.61279C12.0085 3.61279 12.2485 3.74475 12.3855 3.96375L17.3865 11.9008C17.5325 12.1309 17.5415 12.4229 17.4084 12.6619C17.2766 12.9019 17.0256 13.0498 16.7524 13.0498L6.75049 13.0498C6.47656 13.0498 6.22559 12.9019 6.09351 12.6619C5.96167 12.4229 5.96948 12.1309 6.11548 11.9008L11.1165 3.96375ZM11.7515 5.77075L8.10962 11.5498L15.3926 11.5498L11.7515 5.77075Z" clip-rule="evenodd" fill="#212121" fill-opacity="1.000000" fill-rule="evenodd"/>
		</g>
	</g>
</svg>
