<svg width="24.000000" height="24.000000" viewBox="0 0 24 24" fill="none" xmlns="http://www.w3.org/2000/svg" xmlns:xlink="http://www.w3.org/1999/xlink">
	<desc>
			Created with Pixso.
	</desc>
	<defs>
		<clipPath id="clip430_8828">
			<rect id="Iconly/Light-Outline/Star" width="24.000000" height="24.000000" fill="white" fill-opacity="0"/>
		</clipPath>
	</defs>
	<rect id="Iconly/Light-Outline/Star" width="24.000000" height="24.000000" fill="#FFFFFF" fill-opacity="0"/>
	<g clip-path="url(#clip430_8828)">
		<path id="Star" d="M5.77295 21.114C6.12402 21.37 6.53394 21.5 6.94702 21.5C7.26099 21.5 7.57593 21.425 7.86792 21.2729L11.521 19.379C11.6638 19.3051 11.835 19.3051 11.978 19.379L15.6309 21.272C16.3098 21.626 17.1108 21.5649 17.7258 21.114C18.333 20.671 18.6299 19.938 18.502 19.199L17.8049 15.188C17.7788 15.04 17.8289 14.889 17.939 14.783L20.895 11.943C21.439 11.422 21.635 10.652 21.405 9.93701C21.1729 9.21399 20.5588 8.69702 19.802 8.58899L15.7139 8C15.5569 7.97803 15.4219 7.88098 15.353 7.74194L13.5249 4.09094C13.188 3.41797 12.5078 3 11.75 3C10.9919 3 10.312 3.41797 9.97485 4.09094L8.14795 7.74304C8.07983 7.88098 7.94385 7.97803 7.78589 8L3.698 8.58899C2.94092 8.69702 2.3269 9.21399 2.09497 9.93701C1.86499 10.652 2.05981 11.422 2.604 11.943L5.55981 14.783C5.66992 14.889 5.72095 15.04 5.69482 15.189L4.99902 19.199C4.86987 19.937 5.16699 20.67 5.77295 21.114ZM11.75 4.5C11.6589 4.5 11.4348 4.52502 11.3159 4.76294L9.48999 8.41394C9.20093 8.99097 8.6438 9.39197 8 9.48401L3.91187 10.073C3.64185 10.1121 3.5498 10.312 3.52197 10.396C3.49683 10.4771 3.45703 10.683 3.64282 10.861L6.59888 13.701C7.06982 14.1541 7.28394 14.807 7.17188 15.446L6.47583 19.4561C6.43286 19.707 6.58984 19.853 6.65991 19.903C6.73389 19.959 6.93188 20.0699 7.177 19.942L10.832 18.047C11.408 17.75 12.094 17.75 12.668 18.047L16.322 19.941C16.5679 20.068 16.7659 19.957 16.8408 19.903C16.9109 19.853 17.0679 19.707 17.0249 19.4561L16.3269 15.446C16.2148 14.807 16.429 14.1541 16.8999 13.701L19.856 10.861C20.043 10.683 20.0029 10.476 19.9768 10.396C19.95 10.312 19.8579 10.1121 19.5879 10.073L15.5 9.48401C14.8569 9.39197 14.2998 8.99097 14.011 8.41296L12.1829 4.76294C12.0649 4.52502 11.8408 4.5 11.75 4.5Z" clip-rule="evenodd" fill="#212121" fill-opacity="1.000000" fill-rule="evenodd"/>
	</g>
</svg>
