<svg width="24.000000" height="24.000000" viewBox="0 0 24 24" fill="none" xmlns="http://www.w3.org/2000/svg" xmlns:xlink="http://www.w3.org/1999/xlink">
	<desc>
			Created with Pixso.
	</desc>
	<defs>
		<clipPath id="clip430_8275">
			<rect id="Iconly/Light-Outline/Heart" width="24.000000" height="24.000000" fill="white" fill-opacity="0"/>
		</clipPath>
	</defs>
	<rect id="Iconly/Light-Outline/Heart" width="24.000000" height="24.000000" fill="#FFFFFF" fill-opacity="0"/>
	<g clip-path="url(#clip430_8275)">
		<mask id="mask430_8278" mask-type="alpha" maskUnits="userSpaceOnUse" x="2.000000" y="2.999878" width="20.472412" height="19.500977">
			<path id="Clip 2" d="M2 2.99L22.47 2.99L22.47 22.5L2 22.5L2 2.99Z" fill="#000000" fill-opacity="1.000000" fill-rule="evenodd"/>
		</mask>
		<g mask="url(#mask430_8278)">
			<path id="Fill 1" d="M11.8787 22.4102C11.9907 22.4711 12.1138 22.5011 12.2378 22.5011C12.3618 22.5011 12.4856 22.4701 12.5977 22.4081C12.9126 22.2351 20.3396 18.1101 22.0786 12.5801C23.2058 9.05908 21.9458 4.63416 17.8867 3.32507C16.0208 2.72717 13.8606 3.01111 12.2346 4.03906C10.5566 2.9801 8.48169 2.70911 6.57764 3.32507C2.52271 4.63208 1.2666 9.05811 2.39478 12.5801C2.39478 12.5801 2.39478 12.5812 2.39575 12.5812C4.19263 18.1752 11.5657 22.2391 11.8787 22.4102ZM3.82373 12.1232C5.22583 16.4851 10.7646 20.0121 12.2368 20.8851C13.7136 20.0032 19.2927 16.4371 20.6497 12.1271C21.5408 9.34106 20.7136 5.81213 17.4277 4.75317C15.8357 4.24207 13.9788 4.5531 12.6968 5.54517C12.4287 5.7511 12.0566 5.75513 11.7866 5.55115C10.4287 4.53015 8.65479 4.23108 7.0376 4.75317C3.75659 5.81116 2.93262 9.34009 3.82373 12.1232Z" clip-rule="evenodd" fill="#212121" fill-opacity="1.000000" fill-rule="evenodd"/>
		</g>
		<path id="Fill 4" d="M18.15 10.62C17.76 10.62 17.43 10.32 17.4 9.93C17.34 9.11 16.79 8.41 16 8.16C15.61 8.03 15.39 7.61 15.52 7.22C15.65 6.82 16.07 6.61 16.46 6.73C17.83 7.17 18.78 8.38 18.9 9.81C18.93 10.22 18.62 10.58 18.21 10.62C18.19 10.62 18.17 10.62 18.15 10.62Z" fill="#212121" fill-opacity="1.000000" fill-rule="evenodd"/>
	</g>
</svg>
