<svg width="24.000000" height="24.000000" viewBox="0 0 24 24" fill="none" xmlns="http://www.w3.org/2000/svg" xmlns:xlink="http://www.w3.org/1999/xlink">
	<desc>
			Created with Pixso.
	</desc>
	<defs>
		<clipPath id="clip430_8349">
			<rect id="Iconly/Light-Outline/Video" width="24.000000" height="24.000000" fill="white" fill-opacity="0"/>
		</clipPath>
	</defs>
	<rect id="Iconly/Light-Outline/Video" width="24.000000" height="24.000000" fill="#FFFFFF" fill-opacity="0"/>
	<g clip-path="url(#clip430_8349)">
		<mask id="mask430_8352" mask-type="alpha" maskUnits="userSpaceOnUse" x="2.000244" y="5.000244" width="15.500244" height="15.501343">
			<path id="Clip 2" d="M2 5L17.5 5L17.5 20.5L2 20.5L2 5Z" fill="#000000" fill-opacity="1.000000" fill-rule="evenodd"/>
		</mask>
		<g mask="url(#mask430_8352)">
			<path id="Fill 1" d="M2.0144 16.7576C2.18823 18.8826 4.03247 20.5026 6.14624 20.5016Q6.30542 20.5016 6.46436 20.4896C6.85156 20.4904 7.33594 20.4915 7.86792 20.4926C10.1685 20.4977 13.3625 20.5048 13.4763 20.4966C14.6223 20.4496 15.6743 19.9666 16.4373 19.1356C17.1633 18.3456 17.5393 17.3286 17.4973 16.2726C17.4993 11.3976 17.4963 8.87256 17.4883 8.76355C17.3074 6.52258 15.2764 4.85254 13.0264 5.01062C12.71 5.01001 12.3289 5.00916 11.9099 5.0083C9.60034 5.00342 6.13794 4.99609 6.02026 5.00464C4.87329 5.05359 3.82227 5.53857 3.0603 6.37061C2.33032 7.1676 1.9563 8.19165 2.00439 9.22253C2.00146 16.5801 2.01123 16.7162 2.0144 16.7574L2.0144 16.7576ZM6.84741 6.50159C6.40845 6.50159 6.12524 6.50159 6.07642 6.50354C5.33838 6.53455 4.65747 6.84753 4.16626 7.38354C3.70825 7.88464 3.47241 8.52454 3.50342 9.1886C3.50342 12.0815 3.50439 16.4236 3.51123 16.6616C3.62524 18.0466 4.92334 19.1056 6.40942 18.9916C7.03223 18.9926 7.72314 18.9937 8.42139 18.9949C10.8059 18.9989 13.2766 19.0031 13.4243 18.9976C14.1594 18.9675 14.8413 18.6556 15.3323 18.1206C15.7913 17.6216 16.0273 16.9816 15.9983 16.3206C15.9973 16.3096 15.9973 16.2986 15.9973 16.2876C15.9983 13.4276 15.9983 9.08862 15.9915 8.85559C15.8784 7.46362 14.5745 6.3916 13.0803 6.50854C11.0144 6.50562 8.19531 6.50159 6.84741 6.50159Z" clip-rule="evenodd" fill="#212121" fill-opacity="1.000000" fill-rule="evenodd"/>
		</g>
		<path id="Fill 4" d="M20.81 18.34C20.36 18.34 19.92 18.19 19.55 17.89L16.27 15.19C15.95 14.93 15.9 14.46 16.17 14.14C16.43 13.82 16.9 13.77 17.22 14.03L20.5 16.73C20.72 16.91 20.94 16.84 21.03 16.79C21.12 16.75 21.32 16.63 21.32 16.34L21.33 9C21.33 8.71 21.13 8.59 21.04 8.55C20.96 8.51 20.73 8.43 20.51 8.61L17.22 11.31C16.9 11.57 16.43 11.52 16.17 11.2C15.9 10.88 15.95 10.41 16.27 10.15L19.56 7.45C20.17 6.95 20.98 6.86 21.69 7.19C22.39 7.53 22.83 8.22 22.83 9L22.82 16.35C22.81 17.13 22.38 17.82 21.67 18.15C21.4 18.28 21.1 18.34 20.81 18.34Z" fill="#212121" fill-opacity="1.000000" fill-rule="evenodd"/>
	</g>
</svg>
