<svg width="24.000000" height="24.000000" viewBox="0 0 24 24" fill="none" xmlns="http://www.w3.org/2000/svg" xmlns:xlink="http://www.w3.org/1999/xlink">
	<desc>
			Created with Pixso.
	</desc>
	<defs>
		<clipPath id="clip430_8832">
			<rect id="Iconly/Light-Outline/Bag 3" width="24.000000" height="24.000000" fill="white" fill-opacity="0"/>
		</clipPath>
	</defs>
	<rect id="Iconly/Light-Outline/Bag 3" width="24.000000" height="24.000000" fill="#FFFFFF" fill-opacity="0"/>
	<g clip-path="url(#clip430_8832)">
		<mask id="mask430_8835" mask-type="alpha" maskUnits="userSpaceOnUse" x="7.210938" y="2.000000" width="9.062012" height="8.305664">
			<path id="Clip 2" d="M7.21 2L16.27 2L16.27 10.3L7.21 10.3L7.21 2Z" fill="#000000" fill-opacity="1.000000" fill-rule="evenodd"/>
		</mask>
		<g mask="url(#mask430_8835)">
			<path id="Fill 1" d="M15.52 10.3C15.1 10.3 14.77 9.96 14.77 9.55L14.77 6.52C14.77 4.85 13.41 3.49 11.75 3.49C10.93 3.52 10.17 3.8 9.6 4.37C9.03 4.94 8.71 5.7 8.71 6.5L8.71 9.55C8.71 9.96 8.37 10.3 7.96 10.3C7.54 10.3 7.21 9.96 7.21 9.55L7.21 6.52C7.21 5.29 7.69 4.16 8.55 3.31C9.4 2.45 10.56 2.03 11.75 1.99C14.24 1.99 16.27 4.02 16.27 6.52L16.27 9.55C16.27 9.96 15.93 10.3 15.52 10.3Z" fill="#212121" fill-opacity="1.000000" fill-rule="evenodd"/>
		</g>
		<mask id="mask430_8838" mask-type="alpha" maskUnits="userSpaceOnUse" x="2.000000" y="6.474609" width="19.499756" height="15.525024">
			<path id="Clip 5" d="M2 6.47L21.49 6.47L21.49 21.99L2 21.99L2 6.47Z" fill="#000000" fill-opacity="1.000000" fill-rule="evenodd"/>
		</mask>
		<g mask="url(#mask430_8838)">
			<path id="Fill 4" d="M7.00781 21.9996L16.4917 21.9996C19.2537 21.9996 21.4998 19.7546 21.4998 16.9956L21.4998 11.4796C21.4998 8.7196 19.2537 6.47461 16.4917 6.47461L7.00781 6.47461C4.24683 6.47461 1.99976 8.7196 1.99976 11.4796L1.99976 16.9956C1.99976 19.7546 4.24683 21.9996 7.00781 21.9996ZM3.49976 11.4796C3.49976 9.54663 5.07373 7.97461 7.00781 7.97461L16.4917 7.97461C18.4258 7.97461 19.9998 9.54663 19.9998 11.4796L19.9998 16.9956C19.9998 18.9276 18.4258 20.4996 16.4917 20.4996L7.00781 20.4996C5.07373 20.4996 3.49976 18.9276 3.49976 16.9956L3.49976 11.4796Z" clip-rule="evenodd" fill="#212121" fill-opacity="1.000000" fill-rule="evenodd"/>
		</g>
	</g>
</svg>
