<svg width="24.000000" height="24.000000" viewBox="0 0 24 24" fill="none" xmlns="http://www.w3.org/2000/svg" xmlns:xlink="http://www.w3.org/1999/xlink">
	<desc>
			Created with Pixso.
	</desc>
	<defs>
		<clipPath id="clip430_8283">
			<rect id="Iconly/Light-Outline/Paper" width="24.000000" height="24.000000" fill="white" fill-opacity="0"/>
		</clipPath>
	</defs>
	<rect id="Iconly/Light-Outline/Paper" width="24.000000" height="24.000000" fill="#FFFFFF" fill-opacity="0"/>
	<g clip-path="url(#clip430_8283)">
		<mask id="mask430_8286" mask-type="alpha" maskUnits="userSpaceOnUse" x="3.000244" y="2.011719" width="17.052734" height="19.853516">
			<path id="Clip 2" d="M3 2.01L20.05 2.01L20.05 21.86L3 21.86L3 2.01Z" fill="#000000" fill-opacity="1.000000" fill-rule="evenodd"/>
		</mask>
		<g mask="url(#mask430_8286)">
			<path id="Fill 1" d="M7.47632 21.8657L7.58545 21.8657L15.6042 21.8647C18.1174 21.7627 20.0713 19.7128 20.0535 17.2037L20.0535 8.03772C20.0535 7.84473 19.9783 7.65771 19.8442 7.51868L14.7793 2.2417C14.6375 2.09473 14.4424 2.01172 14.2383 2.01172L7.57129 2.01172C5.1084 2.01172 3.05933 4.00977 3.00146 6.49072L3.00146 17.1877C2.94629 19.7107 4.95435 21.8087 7.47632 21.8657ZM7.57324 3.51172C5.91626 3.51172 4.54028 4.85376 4.50146 6.50867L4.50146 17.2037C4.46436 18.9167 5.81445 20.3278 7.51025 20.3657L15.5745 20.3657C17.2434 20.2968 18.5654 18.9097 18.5535 17.2097L18.5535 8.33972L13.9185 3.51172L7.57324 3.51172Z" clip-rule="evenodd" fill="#212121" fill-opacity="1.000000" fill-rule="evenodd"/>
		</g>
		<path id="Fill 4" d="M19.29 8.98L16.54 8.98C14.71 8.97 13.22 7.48 13.22 5.65L13.22 2.75C13.22 2.33 13.56 2 13.97 2C14.38 2 14.72 2.33 14.72 2.75L14.72 5.65C14.72 6.66 15.54 7.48 16.54 7.48L19.29 7.48C19.71 7.48 20.04 7.82 20.04 8.23C20.04 8.64 19.71 8.98 19.29 8.98Z" fill="#212121" fill-opacity="1.000000" fill-rule="evenodd"/>
		<path id="Fill 6" d="M13.78 16.1L8.38 16.1C7.97 16.1 7.63 15.77 7.63 15.35C7.63 14.94 7.97 14.6 8.38 14.6L13.78 14.6C14.2 14.6 14.53 14.94 14.53 15.35C14.53 15.77 14.2 16.1 13.78 16.1Z" fill="#212121" fill-opacity="1.000000" fill-rule="evenodd"/>
		<path id="Fill 8" d="M11.74 12.35L8.38 12.35C7.97 12.35 7.63 12.02 7.63 11.6C7.63 11.19 7.97 10.85 8.38 10.85L11.74 10.85C12.15 10.85 12.49 11.19 12.49 11.6C12.49 12.02 12.15 12.35 11.74 12.35Z" fill="#212121" fill-opacity="1.000000" fill-rule="evenodd"/>
	</g>
</svg>
