<svg width="24.000000" height="24.000000" viewBox="0 0 24 24" fill="none" xmlns="http://www.w3.org/2000/svg" xmlns:xlink="http://www.w3.org/1999/xlink">
	<desc>
			Created with Pixso.
	</desc>
	<defs>
		<clipPath id="clip430_8590">
			<rect id="Iconly/Light-Outline/Call Missed" width="24.000000" height="24.000000" fill="white" fill-opacity="0"/>
		</clipPath>
	</defs>
	<rect id="Iconly/Light-Outline/Call Missed" width="24.000000" height="24.000000" fill="#FFFFFF" fill-opacity="0"/>
	<g clip-path="url(#clip430_8590)">
		<path id="Stroke 1" d="M20.78 3.21C21.07 2.92 21.55 2.92 21.84 3.21C22.11 3.48 22.13 3.9 21.91 4.19L21.84 4.28L15.84 10.28C15.55 10.57 15.07 10.57 14.78 10.28C14.51 10.01 14.49 9.59 14.71 9.3L14.78 9.21L20.78 3.21Z" fill="#212121" fill-opacity="1.000000" fill-rule="nonzero"/>
		<path id="Stroke 3" d="M14.78 3.21C15.05 2.95 15.46 2.92 15.76 3.14L15.84 3.21L21.84 9.21C22.13 9.51 22.13 9.98 21.84 10.28C21.57 10.54 21.16 10.57 20.86 10.35L20.78 10.28L14.78 4.28C14.49 3.98 14.49 3.51 14.78 3.21Z" fill="#212121" fill-opacity="1.000000" fill-rule="nonzero"/>
		<path id="Stroke 5" d="M2.5437 3.75366L2.47119 3.82947L2.33765 3.96204C0.276367 6.0675 0.719971 9.42444 5.74976 14.8892L6.28662 15.462C6.56323 15.7523 6.85229 16.0482 7.1543 16.35C10.8625 20.0574 13.7891 21.8781 16.0967 22.199C17.033 22.3291 17.8389 22.207 18.521 21.8832C18.9272 21.6902 19.2039 21.4858 19.5 21.2004L19.6887 21.0093C21.6716 19.0337 22.1831 17.7793 21.418 16.4404C21.2246 16.1022 20.9626 15.7821 20.5667 15.3782L20.2092 15.0267L18.9956 13.8544C18.0244 12.8839 17.1086 12.6531 16.0247 12.9423L15.8901 12.9796L15.5825 13.0796L15.3281 13.168C13.9009 13.6666 13.1565 13.5363 11.5618 11.942C10.0283 10.4088 9.84839 9.66125 10.2793 8.3363L10.4807 7.74548L10.5222 7.61121L10.5596 7.4762C10.8306 6.4563 10.6414 5.58545 9.80933 4.67761L8.30298 3.1156C7.81177 2.61682 7.45068 2.30676 7.06543 2.08521C5.72632 1.31506 4.47095 1.82605 2.5437 3.75366ZM7.08887 4.02246C6.76294 3.70129 6.52637 3.50549 6.31763 3.3855C5.8562 3.12012 5.35791 3.2323 4.43555 4.026L4.146 4.28491C4.09546 4.33154 4.0437 4.38 3.99072 4.4303L3.65845 4.75391L3.62866 4.79126L3.40332 5.01758C2.85889 5.57361 2.60107 6.2522 2.82324 7.41919C3.18799 9.33423 4.85669 11.9321 8.21484 15.2892C11.7136 18.7872 14.3796 20.4457 16.3032 20.7133C17.4246 20.8691 17.9966 20.5975 18.5798 20L19.0247 19.551C19.2334 19.3328 19.4116 19.1349 19.562 18.9541L19.7673 18.6954C20.292 17.9966 20.3401 17.5774 20.1157 17.1848C20.0303 17.0355 19.906 16.8717 19.7253 16.6716L19.48 16.4126L19.335 16.2673L17.8037 14.7888C17.292 14.3169 16.9424 14.25 16.4114 14.3916L16.2581 14.4357L15.6238 14.651C13.7837 15.2452 12.4561 14.9572 10.5012 13.0028C8.47656 10.9786 8.23926 9.62695 8.91748 7.68079L8.96118 7.55566L9.08154 7.19312L9.14062 6.96204C9.24561 6.45898 9.12573 6.1084 8.58496 5.56763C8.56274 5.54529 8.53784 5.52026 8.51074 5.4928L7.08887 4.02246Z" clip-rule="evenodd" fill="#212121" fill-opacity="1.000000" fill-rule="evenodd"/>
	</g>
</svg>
