<svg width="24.000000" height="24.000000" viewBox="0 0 24 24" fill="none" xmlns="http://www.w3.org/2000/svg" xmlns:xlink="http://www.w3.org/1999/xlink">
	<desc>
			Created with Pixso.
	</desc>
	<defs>
		<clipPath id="clip430_8334">
			<rect id="Iconly/Light-Outline/Paper Negative" width="24.000000" height="24.000000" fill="white" fill-opacity="0"/>
		</clipPath>
	</defs>
	<rect id="Iconly/Light-Outline/Paper Negative" width="24.000000" height="24.000000" fill="#FFFFFF" fill-opacity="0"/>
	<g clip-path="url(#clip430_8334)">
		<path id="Fill 1" d="M3.00098 17.3267C2.95898 19.7867 4.92603 21.8237 7.39893 21.8667L15.5808 21.8657C18.0498 21.8397 20.0559 19.8087 20.052 17.3397L20.052 8.03967C20.052 7.84668 19.9768 7.65967 19.843 7.52075L14.7769 2.2417C14.635 2.09473 14.4399 2.01172 14.2358 2.01172L7.56885 2.01172C5.10596 2.01172 3.05786 4.00977 3.00098 6.49072L3.00098 17.3267ZM7.57202 3.51172C5.91479 3.51172 4.53979 4.85376 4.50098 6.50867L4.50098 17.3397C4.47192 18.9867 5.77881 20.3387 7.41284 20.3667L7.56079 20.3657L15.573 20.3657C17.2148 20.3478 18.554 18.9907 18.552 17.3407L18.552 8.34167L13.917 3.51172L7.57202 3.51172Z" clip-rule="evenodd" fill="#212121" fill-opacity="1.000000" fill-rule="evenodd"/>
		<path id="Fill 3" d="M19.29 8.98L16.54 8.98C14.71 8.97 13.22 7.48 13.22 5.65L13.22 2.75C13.22 2.33 13.55 2 13.97 2C14.38 2 14.72 2.33 14.72 2.75L14.72 5.65C14.72 6.66 15.54 7.48 16.54 7.48L19.29 7.48C19.71 7.48 20.04 7.82 20.04 8.23C20.04 8.64 19.71 8.98 19.29 8.98Z" fill="#212121" fill-opacity="1.000000" fill-rule="evenodd"/>
		<path id="Fill 5" d="M13.79 14.49L8.89 14.49C8.47 14.49 8.14 14.16 8.14 13.74C8.14 13.33 8.47 12.99 8.89 12.99L13.79 12.99C14.2 12.99 14.54 13.33 14.54 13.74C14.54 14.16 14.2 14.49 13.79 14.49Z" fill="#212121" fill-opacity="1.000000" fill-rule="evenodd"/>
	</g>
</svg>
