<svg width="24.000000" height="24.000000" viewBox="0 0 24 24" fill="none" xmlns="http://www.w3.org/2000/svg" xmlns:xlink="http://www.w3.org/1999/xlink">
	<desc>
			Created with Pixso.
	</desc>
	<defs>
		<clipPath id="clip430_8293">
			<rect id="Iconly/Light-Outline/Ticket Star" width="24.000000" height="24.000000" fill="white" fill-opacity="0"/>
		</clipPath>
	</defs>
	<rect id="Iconly/Light-Outline/Ticket Star" width="24.000000" height="24.000000" fill="#FFFFFF" fill-opacity="0"/>
	<g clip-path="url(#clip430_8293)">
		<mask id="mask430_8296" mask-type="alpha" maskUnits="userSpaceOnUse" x="2.000000" y="3.000488" width="20.000000" height="18.166016">
			<path id="Clip 2" d="M2 3L22 3L22 21.16L2 21.16L2 3Z" fill="#000000" fill-opacity="1.000000" fill-rule="evenodd"/>
		</mask>
		<g mask="url(#mask430_8296)">
			<path id="Fill 1" d="M6.14209 21.1665L17.8569 21.1665C20.1399 21.1665 21.999 19.3085 22 17.0245L22 14.3245C22 13.9105 21.6641 13.5745 21.25 13.5745C20.429 13.5745 19.761 12.9065 19.76 12.0845C19.76 11.2645 20.429 10.5964 21.25 10.5964C21.6641 10.5964 22 10.2605 22 9.84644L22 7.14746C22.002 4.86353 20.146 3.00146 17.856 3.00049L6.14404 3.00049C3.86011 3.00049 2.00098 4.85852 2 7.14343L2 9.93347C2 10.1365 2.08301 10.3325 2.229 10.4735C2.375 10.6145 2.56909 10.6855 2.77588 10.6835C3.15796 10.6625 3.51392 10.8035 3.78906 11.0615C4.06494 11.3195 4.2251 11.6675 4.23901 12.0854C4.23999 12.9055 3.57397 13.5735 2.75 13.5745C2.33594 13.5745 2 13.9105 2 14.3245L2 17.0245C2 18.1305 2.42993 19.1705 3.21191 19.9535C3.99512 20.7365 5.03491 21.1665 6.14209 21.1665ZM3.5 14.9795L3.5 17.0245C3.5 17.7305 3.77393 18.3934 4.27295 18.8925C4.77197 19.3915 5.43604 19.6665 6.14111 19.6665L17.8569 19.6665C19.313 19.6665 20.499 18.4825 20.5 17.0265L20.5 14.9785C19.2141 14.6455 18.261 13.4745 18.26 12.0854C18.26 10.6965 19.2129 9.52551 20.499 9.19153L20.5 7.14648C20.501 5.68848 19.3181 4.50146 17.8611 4.50049L6.14404 4.50049C4.68701 4.50049 3.50098 5.68555 3.5 7.14246L3.5 9.25952C3.98608 9.37549 4.43701 9.6145 4.81201 9.96448C5.3811 10.4955 5.70898 11.2155 5.73706 11.9935C5.73999 13.4595 4.78711 14.6434 3.5 14.9795Z" clip-rule="evenodd" fill="#212121" fill-opacity="1.000000" fill-rule="evenodd"/>
		</g>
		<path id="Fill 4" d="M13.0737 15.2515C13.2458 15.3425 13.4319 15.3876 13.6179 15.3876C13.8569 15.3876 14.0947 15.3125 14.2988 15.1655C14.6609 14.9036 14.8389 14.4666 14.7639 14.0255L14.5579 12.8306L15.4277 11.9835C15.7478 11.6715 15.8608 11.2145 15.7239 10.7905C15.5869 10.3655 15.2258 10.0605 14.7839 9.99646L13.5818 9.82056L13.0439 8.73254C12.8469 8.33154 12.4458 8.08252 11.9998 8.08252C11.5518 8.08252 11.1519 8.33154 10.9548 8.73157L10.4177 9.82056L9.21387 9.99646C8.77295 10.0605 8.41284 10.3655 8.2749 10.7905C8.13794 11.2145 8.25171 11.6715 8.5708 11.9825L9.43994 12.8295L9.23486 14.0255C9.15991 14.4656 9.33691 14.9015 9.69775 15.1646C10.0579 15.4265 10.5288 15.4595 10.9248 15.2526L11.9998 14.6885L13.0737 15.2515ZM10.1038 11.3815L10.6128 11.8776C10.8889 12.1486 11.0139 12.5345 10.9478 12.9115L10.8279 13.6095L11.4568 13.2786C11.7959 13.0975 12.2029 13.0985 12.5449 13.2805L13.1699 13.6085L13.0498 12.9095C12.9868 12.5265 13.1128 12.1436 13.3857 11.8776L13.8948 11.3815L13.1899 11.2795C12.8118 11.2245 12.4839 10.9866 12.3149 10.6415L11.9998 10.0045L11.6848 10.6426C11.5159 10.9866 11.1877 11.2245 10.8079 11.2795L10.1038 11.3815Z" clip-rule="evenodd" fill="#212121" fill-opacity="1.000000" fill-rule="evenodd"/>
	</g>
</svg>
