<svg width="24.000000" height="24.000000" viewBox="0 0 24 24" fill="none" xmlns="http://www.w3.org/2000/svg" xmlns:xlink="http://www.w3.org/1999/xlink">
	<desc>
			Created with Pixso.
	</desc>
	<defs>
		<clipPath id="clip430_8373">
			<rect id="Iconly/Light-Outline/Paper Download" width="24.000000" height="24.000000" fill="white" fill-opacity="0"/>
		</clipPath>
	</defs>
	<rect id="Iconly/Light-Outline/Paper Download" width="24.000000" height="24.000000" fill="#FFFFFF" fill-opacity="0"/>
	<g clip-path="url(#clip430_8373)">
		<mask id="mask430_8376" mask-type="alpha" maskUnits="userSpaceOnUse" x="3.000244" y="2.011719" width="17.052246" height="19.853516">
			<path id="Clip 2" d="M3 2.01L20.05 2.01L20.05 21.86L3 21.86L3 2.01Z" fill="#000000" fill-opacity="1.000000" fill-rule="evenodd"/>
		</mask>
		<g mask="url(#mask430_8376)">
			<path id="Fill 1" d="M7.45923 21.8657L15.5994 21.8657C18.1123 21.7758 20.0684 19.7367 20.0522 17.2277L20.0522 8.03772C20.0522 7.84473 19.9773 7.65771 19.8442 7.51868L14.7783 2.2417C14.6362 2.09473 14.4414 2.01172 14.2373 2.01172L7.57031 2.01172C5.1084 2.01172 3.0603 4.00977 3.00122 6.49072L3.00122 17.2117C2.94727 19.7238 4.94727 21.8118 7.45923 21.8657ZM7.57324 3.51172C5.91626 3.51172 4.54028 4.85376 4.50122 6.50867L4.50122 17.2277C4.46533 18.9287 5.80542 20.3287 7.49023 20.3657L15.5732 20.3657C17.2424 20.3057 18.5632 18.9287 18.5522 17.2327L18.5522 8.33972L13.9182 3.51172L7.57324 3.51172Z" clip-rule="evenodd" fill="#212121" fill-opacity="1.000000" fill-rule="evenodd"/>
		</g>
		<path id="Fill 4" d="M19.29 8.98L16.54 8.98C14.71 8.97 13.22 7.48 13.22 5.65L13.22 2.75C13.22 2.33 13.56 2 13.97 2C14.38 2 14.72 2.33 14.72 2.75L14.72 5.65C14.72 6.66 15.54 7.48 16.54 7.48L19.29 7.48C19.71 7.48 20.04 7.82 20.04 8.23C20.04 8.64 19.71 8.98 19.29 8.98Z" fill="#212121" fill-opacity="1.000000" fill-rule="evenodd"/>
		<path id="Fill 6" d="M11.14 16.7C10.72 16.7 10.39 16.36 10.39 15.95L10.39 9.9C10.39 9.49 10.72 9.15 11.14 9.15C11.55 9.15 11.89 9.49 11.89 9.9L11.89 15.95C11.89 16.36 11.55 16.7 11.14 16.7Z" fill="#212121" fill-opacity="1.000000" fill-rule="evenodd"/>
		<path id="Fill 8" d="M11.14 16.69C10.94 16.69 10.75 16.62 10.61 16.47L8.26 14.12C7.97 13.83 7.97 13.35 8.26 13.06C8.56 12.77 9.03 12.77 9.32 13.06L11.14 14.88L12.95 13.06C13.24 12.77 13.72 12.77 14.01 13.06C14.3 13.35 14.3 13.83 14.01 14.12L11.67 16.47C11.53 16.62 11.34 16.69 11.14 16.69Z" fill="#212121" fill-opacity="1.000000" fill-rule="evenodd"/>
	</g>
</svg>
