<svg width="24.000000" height="24.000000" viewBox="0 0 24 24" fill="none" xmlns="http://www.w3.org/2000/svg" xmlns:xlink="http://www.w3.org/1999/xlink">
	<desc>
			Created with Pixso.
	</desc>
	<defs>
		<clipPath id="clip430_8237">
			<rect id="Iconly/Light-Outline/Category" width="24.000000" height="24.000000" fill="white" fill-opacity="0"/>
		</clipPath>
	</defs>
	<rect id="Iconly/Light-Outline/Category" width="24.000000" height="24.000000" fill="#FFFFFF" fill-opacity="0"/>
	<g clip-path="url(#clip430_8237)">
		<path id="Fill 1" d="M2.604 9.45996C3.29907 10.323 4.56396 10.5 6.25 10.5C7.93604 10.5 9.20093 10.323 9.896 9.45996C10.5 8.71106 10.5 7.68799 10.5 6.25C10.5 3.38 10.3191 2 6.25 2C2.18091 2 2 3.38 2 6.25L2.75 6.25L2 6.27502C2 7.68896 2 8.71106 2.604 9.45996ZM3.5 6.25C3.5 3.70801 3.5 3.5 6.25 3.5C9 3.5 9 3.70801 9 6.27405C9 7.38196 9 8.18201 8.729 8.51904C8.46411 8.84705 7.677 9 6.25 9C4.823 9 4.03589 8.84802 3.771 8.52002C3.5 8.18201 3.5 7.38196 3.5 6.27502L3.5 6.25Z" clip-rule="evenodd" fill="#212121" fill-opacity="1.000000" fill-rule="evenodd"/>
		<path id="Fill 3" d="M13.604 9.45996C14.2991 10.323 15.564 10.5 17.25 10.5C18.936 10.5 20.2009 10.323 20.896 9.45996C21.5 8.71106 21.5 7.68799 21.5 6.25C21.5 3.38 21.3191 2 17.25 2C13.1809 2 13 3.38 13 6.25L13.75 6.25L13 6.27502C13 7.68896 13 8.71106 13.604 9.45996ZM14.5 6.25C14.5 3.70801 14.5 3.5 17.25 3.5C20 3.5 20 3.70801 20 6.27405C20 7.38196 20 8.18201 19.729 8.51904C19.4641 8.84705 18.677 9 17.25 9C15.823 9 15.0359 8.84802 14.771 8.52002C14.5 8.18201 14.5 7.38196 14.5 6.27502L14.5 6.25Z" clip-rule="evenodd" fill="#212121" fill-opacity="1.000000" fill-rule="evenodd"/>
		<path id="Fill 5" d="M2.604 20.46C3.29907 21.323 4.56396 21.5 6.25 21.5C7.93604 21.5 9.20093 21.323 9.896 20.46C10.5 19.7111 10.5 18.688 10.5 17.25C10.5 14.38 10.3191 13 6.25 13C2.18091 13 2 14.38 2 17.25L2.75 17.25L2 17.275C2 18.689 2 19.7111 2.604 20.46ZM3.5 17.25C3.5 14.708 3.5 14.5 6.25 14.5C9 14.5 9 14.708 9 17.274C9 18.382 9 19.182 8.729 19.519C8.46411 19.847 7.677 20 6.25 20C4.823 20 4.03589 19.848 3.771 19.52C3.5 19.182 3.5 18.382 3.5 17.275L3.5 17.25Z" clip-rule="evenodd" fill="#212121" fill-opacity="1.000000" fill-rule="evenodd"/>
		<path id="Fill 7" d="M13.604 20.46C14.2991 21.323 15.564 21.5 17.25 21.5C18.936 21.5 20.2009 21.323 20.896 20.46C21.5 19.7111 21.5 18.688 21.5 17.25C21.5 14.38 21.3191 13 17.25 13C13.1809 13 13 14.38 13 17.25L13.75 17.25L13 17.275C13 18.689 13 19.7111 13.604 20.46ZM14.5 17.25C14.5 14.708 14.5 14.5 17.25 14.5C20 14.5 20 14.708 20 17.274C20 18.382 20 19.182 19.729 19.519C19.4641 19.847 18.677 20 17.25 20C15.823 20 15.0359 19.848 14.771 19.52C14.5 19.182 14.5 18.382 14.5 17.275L14.5 17.25Z" clip-rule="evenodd" fill="#212121" fill-opacity="1.000000" fill-rule="evenodd"/>
	</g>
</svg>
