<svg width="24.000000" height="24.000000" viewBox="0 0 24 24" fill="none" xmlns="http://www.w3.org/2000/svg" xmlns:xlink="http://www.w3.org/1999/xlink">
	<desc>
			Created with Pixso.
	</desc>
	<defs>
		<clipPath id="clip430_8513">
			<rect id="Iconly/Light-Outline/Edit" width="24.000000" height="24.000000" fill="white" fill-opacity="0"/>
		</clipPath>
	</defs>
	<rect id="Iconly/Light-Outline/Edit" width="24.000000" height="24.000000" fill="#FFFFFF" fill-opacity="0"/>
	<g clip-path="url(#clip430_8513)">
		<path id="Fill 1" d="M20.75 21.93L13.49 21.93C13.08 21.93 12.74 21.6 12.74 21.18C12.74 20.77 13.08 20.43 13.49 20.43L20.75 20.43C21.16 20.43 21.5 20.77 21.5 21.18C21.5 21.6 21.16 21.93 20.75 21.93Z" fill="#212121" fill-opacity="1.000000" fill-rule="evenodd"/>
		<mask id="mask430_8517" mask-type="alpha" maskUnits="userSpaceOnUse" x="2.000244" y="3.000122" width="17.180664" height="18.939575">
			<path id="Clip 4" d="M2 3L19.18 3L19.18 21.93L2 21.93L2 3Z" fill="#000000" fill-opacity="1.000000" fill-rule="evenodd"/>
		</mask>
		<g mask="url(#mask430_8517)">
			<path id="Fill 3" d="M2.88379 21.3629C2.96484 21.7019 3.26685 21.9399 3.61377 21.9399L3.62378 21.9399L7.2627 21.8939C8.00171 21.8849 8.6897 21.5519 9.14868 20.9799C18.6768 9.05994 18.7039 9.01794 18.7349 8.96887C19.1519 8.30786 19.2817 7.52588 19.1028 6.76794C18.9229 6.00183 18.4478 5.35486 17.8398 4.99292C17.8398 4.99292 16.1667 3.69287 16.1167 3.65393C14.8567 2.64294 12.9888 2.82483 11.9558 4.05994C11.9517 4.06384 11.9487 4.06885 11.9448 4.07288L2.52466 15.8549C2.06372 16.4309 1.89575 17.1729 2.0647 17.8918L2.88379 21.3629ZM13.1108 5.01685L3.6958 16.7919C3.52466 17.0059 3.46167 17.2819 3.52466 17.5469L4.20581 20.4319L7.24487 20.3939C7.53369 20.3909 7.80078 20.2618 7.97778 20.0419C11.1948 16.0168 17.3279 8.3429 17.5017 8.11792C17.6658 7.85193 17.7297 7.47583 17.6438 7.11389C17.5557 6.74292 17.3247 6.42786 16.9917 6.22693C16.9207 6.17786 15.2358 4.86987 15.1838 4.82886C14.5498 4.32092 13.6248 4.40894 13.1108 5.01685Z" clip-rule="evenodd" fill="#212121" fill-opacity="1.000000" fill-rule="evenodd"/>
		</g>
		<path id="Fill 6" d="M16.22 11.68C16.06 11.68 15.9 11.63 15.76 11.52L10.31 7.34C9.98 7.08 9.92 6.61 10.17 6.28C10.42 5.96 10.89 5.9 11.22 6.15L16.68 10.33C17 10.59 17.07 11.06 16.81 11.39C16.67 11.58 16.44 11.68 16.22 11.68Z" fill="#212121" fill-opacity="1.000000" fill-rule="evenodd"/>
	</g>
</svg>
