<svg width="24.000000" height="24.000000" viewBox="0 0 24 24" fill="none" xmlns="http://www.w3.org/2000/svg" xmlns:xlink="http://www.w3.org/1999/xlink">
	<desc>
			Created with Pixso.
	</desc>
	<defs>
		<clipPath id="clip430_8659">
			<rect id="Iconly/Light-Outline/Danger Triangle" width="24.000000" height="24.000000" fill="white" fill-opacity="0"/>
		</clipPath>
	</defs>
	<rect id="Iconly/Light-Outline/Danger Triangle" width="24.000000" height="24.000000" fill="#FFFFFF" fill-opacity="0"/>
	<g clip-path="url(#clip430_8659)">
		<mask id="mask430_8662" mask-type="alpha" maskUnits="userSpaceOnUse" x="2.000000" y="3.000000" width="20.013672" height="18.185547">
			<path id="Clip 2" d="M2 3L22.01 3L22.01 21.18L2 21.18L2 3Z" fill="#000000" fill-opacity="1.000000" fill-rule="evenodd"/>
		</mask>
		<g mask="url(#mask430_8662)">
			<path id="Fill 1" d="M4.81543 21.186L19.1985 21.186C20.2114 21.186 21.1206 20.662 21.6296 19.7841C22.1384 18.907 22.1416 17.858 21.6384 16.979L14.4526 4.41504C13.9465 3.52905 13.0334 3 12.0134 3L12.0125 3C10.9915 3 10.0806 3.52795 9.57446 4.41296L2.37451 16.979C1.87158 17.858 1.87451 18.907 2.38354 19.7841C2.89258 20.662 3.80151 21.186 4.81543 21.186ZM12.0125 4.5C11.5366 4.5 11.1125 4.74597 10.8745 5.15906L3.67651 17.724C3.44263 18.134 3.44458 18.623 3.68164 19.032C3.91846 19.441 4.34253 19.686 4.81543 19.686L19.1985 19.686C19.6704 19.686 20.0945 19.441 20.3315 19.032C20.5696 18.623 20.5715 18.134 20.3354 17.724L13.1506 5.15906C12.9136 4.74597 12.4895 4.5 12.0125 4.5Z" clip-rule="evenodd" fill="#212121" fill-opacity="1.000000" fill-rule="evenodd"/>
		</g>
		<path id="Fill 4" d="M12 14.16C11.58 14.16 11.25 13.82 11.25 13.41L11.25 10.31C11.25 9.9 11.58 9.56 12 9.56C12.41 9.56 12.75 9.9 12.75 10.31L12.75 13.41C12.75 13.82 12.41 14.16 12 14.16Z" fill="#212121" fill-opacity="1.000000" fill-rule="evenodd"/>
		<path id="Fill 6" d="M12 17.49C11.45 17.49 11 17.05 11 16.49C11 15.94 11.44 15.49 11.99 15.49L12 15.49C12.55 15.49 13 15.94 13 16.49C13 17.05 12.55 17.49 12 17.49Z" fill="#212121" fill-opacity="1.000000" fill-rule="evenodd"/>
	</g>
</svg>
