<svg width="24.000000" height="24.000000" viewBox="0 0 24 24" fill="none" xmlns="http://www.w3.org/2000/svg" xmlns:xlink="http://www.w3.org/1999/xlink">
	<desc>
			Created with Pixso.
	</desc>
	<defs>
		<clipPath id="clip430_8952">
			<rect id="Iconly/Light-Outline/Arrow - Up Circle" width="24.000000" height="24.000000" fill="white" fill-opacity="0"/>
		</clipPath>
	</defs>
	<rect id="Iconly/Light-Outline/Arrow - Up Circle" width="24.000000" height="24.000000" fill="#FFFFFF" fill-opacity="0"/>
	<g clip-path="url(#clip430_8952)">
		<path id="Fill 1" d="M2 12C2 17.514 6.48608 22 12 22C17.5139 22 22 17.514 22 12C22 6.48596 17.5139 2 12 2C6.48608 2 2 6.48596 2 12ZM3.5 12C3.5 7.31299 7.31299 3.5 12 3.5C16.687 3.5 20.5 7.31299 20.5 12C20.5 16.687 16.687 20.5 12 20.5C7.31299 20.5 3.5 16.687 3.5 12Z" clip-rule="evenodd" fill="#212121" fill-opacity="1.000000" fill-rule="evenodd"/>
		<path id="Fill 3" d="M15.47 14.19C15.27 14.19 15.08 14.11 14.94 13.97L11.99 11.01L9.06 13.97C8.76 14.26 8.29 14.26 7.99 13.97C7.7 13.68 7.7 13.2 7.99 12.91L11.46 9.42C11.74 9.14 12.24 9.14 12.53 9.42L16 12.91C16.29 13.2 16.29 13.68 16 13.97C15.85 14.11 15.66 14.19 15.47 14.19Z" fill="#212121" fill-opacity="1.000000" fill-rule="evenodd"/>
	</g>
</svg>
