<svg width="24.000000" height="24.000000" viewBox="0 0 24 24" fill="none" xmlns="http://www.w3.org/2000/svg" xmlns:xlink="http://www.w3.org/1999/xlink">
	<desc>
			Created with Pixso.
	</desc>
	<defs>
		<clipPath id="clip430_8201">
			<rect id="Iconly/Light-Outline/Folder" width="24.000000" height="24.000000" fill="white" fill-opacity="0"/>
		</clipPath>
	</defs>
	<rect id="Iconly/Light-Outline/Folder" width="24.000000" height="24.000000" fill="#FFFFFF" fill-opacity="0"/>
	<g clip-path="url(#clip430_8201)">
		<mask id="mask430_8204" mask-type="alpha" maskUnits="userSpaceOnUse" x="2.000000" y="2.000000" width="20.696533" height="20.668945">
			<path id="Clip 2" d="M2 2L22.69 2L22.69 22.66L2 22.66L2 2Z" fill="#000000" fill-opacity="1.000000" fill-rule="evenodd"/>
		</mask>
		<g mask="url(#mask430_8204)">
			<path id="Fill 1" d="M8.44946 22.6689L16.2314 22.6689C20.2014 22.6689 22.6675 20.203 22.6685 16.235L22.6965 11.2679C22.6965 7.01904 20.8975 5.04004 17.0354 5.04004L14.2065 5.04004C13.7266 5.03894 13.2676 4.81006 12.9785 4.42603L12.0676 3.21399C11.4995 2.45496 10.5935 2.00098 9.64258 2L7.64258 2C3.89844 2 1.99951 4.16394 1.99951 8.43298L1.99951 16.2321C1.99951 20.202 4.47144 22.6689 8.44946 22.6689ZM7.64258 3.5C4.73853 3.5 3.49951 4.97595 3.49951 8.43298L3.49951 16.2321C3.49951 19.416 5.25757 21.1689 8.44946 21.1689L16.2314 21.1689C19.4155 21.1689 21.1685 19.416 21.1685 16.2321L21.1685 16.229L21.1965 11.264C21.1965 7.86499 20.0305 6.54004 17.0354 6.54004L14.2056 6.54004C13.2566 6.53894 12.3506 6.08606 11.7805 5.328L10.8674 4.11401C10.5806 3.729 10.1216 3.50098 9.6416 3.5L7.64258 3.5Z" clip-rule="evenodd" fill="#212121" fill-opacity="1.000000" fill-rule="evenodd"/>
		</g>
		<path id="Fill 4" d="M16.71 15.71L7.98 15.71C7.56 15.71 7.23 15.37 7.23 14.96C7.23 14.54 7.56 14.21 7.98 14.21L16.71 14.21C17.12 14.21 17.46 14.54 17.46 14.96C17.46 15.37 17.12 15.71 16.71 15.71Z" fill="#212121" fill-opacity="1.000000" fill-rule="evenodd"/>
	</g>
</svg>
