<svg width="24.000000" height="24.000000" viewBox="0 0 24 24" fill="none" xmlns="http://www.w3.org/2000/svg" xmlns:xlink="http://www.w3.org/1999/xlink">
	<desc>
			Created with Pixso.
	</desc>
	<defs>
		<clipPath id="clip430_8742">
			<rect id="Iconly/Light-Outline/Activity" width="24.000000" height="24.000000" fill="white" fill-opacity="0"/>
		</clipPath>
	</defs>
	<rect id="Iconly/Light-Outline/Activity" width="24.000000" height="24.000000" fill="#FFFFFF" fill-opacity="0"/>
	<g clip-path="url(#clip430_8742)">
		<path id="Fill 1" d="M7.21 16C7.05 16 6.89 15.95 6.75 15.84C6.43 15.59 6.36 15.12 6.62 14.79L9.61 10.9C9.73 10.74 9.91 10.64 10.11 10.61C10.31 10.59 10.51 10.64 10.67 10.77L13.49 12.98L15.96 9.8C16.21 9.47 16.68 9.41 17.01 9.67C17.34 9.92 17.4 10.39 17.14 10.72L14.21 14.5C14.09 14.66 13.91 14.76 13.71 14.78C13.51 14.81 13.31 14.75 13.16 14.63L10.34 12.42L7.81 15.7C7.66 15.9 7.44 16 7.21 16Z" fill="#212121" fill-opacity="1.000000" fill-rule="evenodd"/>
		<mask id="mask430_8746" mask-type="alpha" maskUnits="userSpaceOnUse" x="17.295410" y="2.000122" width="5.343994" height="5.344849">
			<path id="Clip 4" d="M17.29 2L22.63 2L22.63 7.34L17.29 7.34L17.29 2Z" fill="#000000" fill-opacity="1.000000" fill-rule="evenodd"/>
		</mask>
		<g mask="url(#mask430_8746)">
			<path id="Fill 3" d="M17.2954 4.672C17.2954 6.146 18.4944 7.34497 19.9675 7.34497C21.4414 7.34497 22.6394 6.146 22.6394 4.672C22.6394 3.198 21.4414 2 19.9675 2C18.4944 2 17.2954 3.198 17.2954 4.672ZM18.7954 4.672C18.7954 4.02502 19.3213 3.5 19.9675 3.5C20.6135 3.5 21.1394 4.02502 21.1394 4.672C21.1394 5.31799 20.6135 5.84497 19.9675 5.84497C19.3213 5.84497 18.7954 5.31799 18.7954 4.672Z" clip-rule="evenodd" fill="#212121" fill-opacity="1.000000" fill-rule="evenodd"/>
		</g>
		<mask id="mask430_8751" mask-type="alpha" maskUnits="userSpaceOnUse" x="2.000000" y="2.842041" width="19.861816" height="19.860962">
			<path id="Clip 7" d="M2 2.84L21.86 2.84L21.86 22.7L2 22.7L2 2.84Z" fill="#000000" fill-opacity="1.000000" fill-rule="evenodd"/>
		</mask>
		<g mask="url(#mask430_8751)">
			<path id="Fill 6" d="M16.23 22.7L7.62 22.7C4.26 22.7 2 20.33 2 16.81L2 8.73C2 5.21 4.26 2.84 7.62 2.84L14.89 2.84C15.31 2.84 15.64 3.17 15.64 3.59C15.64 4 15.31 4.34 14.89 4.34L7.62 4.34C5.12 4.34 3.5 6.06 3.5 8.73L3.5 16.81C3.5 19.52 5.08 21.2 7.62 21.2L16.23 21.2C18.74 21.2 20.36 19.48 20.36 16.81L20.36 9.77C20.36 9.36 20.69 9.02 21.11 9.02C21.52 9.02 21.86 9.36 21.86 9.77L21.86 16.81C21.86 20.33 19.6 22.7 16.23 22.7Z" fill="#212121" fill-opacity="1.000000" fill-rule="evenodd"/>
		</g>
	</g>
</svg>
