<svg width="24.000000" height="24.000000" viewBox="0 0 24 24" fill="none" xmlns="http://www.w3.org/2000/svg" xmlns:xlink="http://www.w3.org/1999/xlink">
	<desc>
			Created with Pixso.
	</desc>
	<defs>
		<clipPath id="clip430_8934">
			<rect id="Iconly/Light-Outline/Arrow - Right Square" width="24.000000" height="24.000000" fill="white" fill-opacity="0"/>
		</clipPath>
	</defs>
	<rect id="Iconly/Light-Outline/Arrow - Right Square" width="24.000000" height="24.000000" fill="#FFFFFF" fill-opacity="0"/>
	<g clip-path="url(#clip430_8934)">
		<path id="Fill 1" d="M7.91602 22L16.084 22C19.6221 22 22 19.723 22 16.334L22 7.66504C22 4.276 19.6221 2 16.084 2L7.91602 2C4.37793 2 2 4.276 2 7.66504L2 16.334C2 19.723 4.37793 22 7.91602 22ZM3.5 7.66504C3.5 5.13501 5.23291 3.5 7.91602 3.5L16.084 3.5C18.7671 3.5 20.5 5.13501 20.5 7.66504L20.5 16.334C20.5 18.864 18.7671 20.5 16.084 20.5L7.91602 20.5C5.23291 20.5 3.5 18.864 3.5 16.334L3.5 7.66504Z" clip-rule="evenodd" fill="#212121" fill-opacity="1.000000" fill-rule="evenodd"/>
		<path id="Fill 3" d="M16.08 12.75L7.91 12.75C7.5 12.75 7.16 12.41 7.16 12C7.16 11.58 7.5 11.25 7.91 11.25L16.08 11.25C16.5 11.25 16.83 11.58 16.83 12C16.83 12.41 16.5 12.75 16.08 12.75Z" fill="#212121" fill-opacity="1.000000" fill-rule="evenodd"/>
		<path id="Fill 5" d="M12.32 16.49C12.13 16.49 11.93 16.42 11.79 16.27C11.49 15.98 11.5 15.5 11.79 15.21L15.02 12L11.79 8.78C11.5 8.49 11.49 8.01 11.79 7.72C12.08 7.42 12.55 7.42 12.85 7.72L16.61 11.46C16.75 11.6 16.83 11.8 16.83 12C16.83 12.19 16.75 12.39 16.61 12.53L12.85 16.27C12.7 16.42 12.51 16.49 12.32 16.49Z" fill="#212121" fill-opacity="1.000000" fill-rule="evenodd"/>
	</g>
</svg>
