<svg width="24.000000" height="24.000000" viewBox="0 0 24 24" fill="none" xmlns="http://www.w3.org/2000/svg" xmlns:xlink="http://www.w3.org/1999/xlink">
	<desc>
			Created with Pixso.
	</desc>
	<defs>
		<clipPath id="clip430_8990">
			<rect id="Iconly/Light-Outline/Arrow - Left Square" width="24.000000" height="24.000000" fill="white" fill-opacity="0"/>
		</clipPath>
	</defs>
	<rect id="Iconly/Light-Outline/Arrow - Left Square" width="24.000000" height="24.000000" fill="#FFFFFF" fill-opacity="0"/>
	<g clip-path="url(#clip430_8990)">
		<path id="Fill 1" d="M16.084 22L7.91602 22C4.37793 22 2 19.723 2 16.334L2 7.66504C2 4.276 4.37793 2 7.91602 2L16.084 2C19.6221 2 22 4.276 22 7.66504L22 16.334C22 19.723 19.6221 22 16.084 22ZM20.5 7.66504C20.5 5.13501 18.7671 3.5 16.084 3.5L7.91602 3.5C5.23291 3.5 3.5 5.13501 3.5 7.66504L3.5 16.334C3.5 18.864 5.23291 20.5 7.91602 20.5L16.084 20.5C18.7671 20.5 20.5 18.864 20.5 16.334L20.5 7.66504Z" clip-rule="evenodd" fill="#212121" fill-opacity="1.000000" fill-rule="evenodd"/>
		<path id="Fill 3" d="M7.91 12.75L16.08 12.75C16.5 12.75 16.83 12.41 16.83 12C16.83 11.58 16.5 11.25 16.08 11.25L7.91 11.25C7.5 11.25 7.16 11.58 7.16 12C7.16 12.41 7.5 12.75 7.91 12.75Z" fill="#212121" fill-opacity="1.000000" fill-rule="evenodd"/>
		<path id="Fill 5" d="M11.67 16.49C11.86 16.49 12.06 16.42 12.2 16.27C12.5 15.98 12.49 15.5 12.2 15.21L8.97 12L12.2 8.78C12.49 8.49 12.5 8.01 12.2 7.72C11.91 7.42 11.44 7.42 11.14 7.72L7.38 11.46C7.24 11.6 7.16 11.8 7.16 12C7.16 12.19 7.24 12.39 7.38 12.53L11.14 16.27C11.29 16.42 11.48 16.49 11.67 16.49Z" fill="#212121" fill-opacity="1.000000" fill-rule="evenodd"/>
	</g>
</svg>
