<svg width="24.000000" height="24.000000" viewBox="0 0 24 24" fill="none" xmlns="http://www.w3.org/2000/svg" xmlns:xlink="http://www.w3.org/1999/xlink">
	<desc>
			Created with Pixso.
	</desc>
	<defs>
		<clipPath id="clip430_8818">
			<rect id="Iconly/Light-Outline/Bag" width="24.000000" height="24.000000" fill="white" fill-opacity="0"/>
		</clipPath>
	</defs>
	<rect id="Iconly/Light-Outline/Bag" width="24.000000" height="24.000000" fill="#FFFFFF" fill-opacity="0"/>
	<g clip-path="url(#clip430_8818)">
		<mask id="mask430_8821" mask-type="alpha" maskUnits="userSpaceOnUse" x="2.000000" y="6.540039" width="19.585938" height="16.181641">
			<path id="Clip 2" d="M2 6.54L21.58 6.54L21.58 22.72L2 22.72L2 6.54Z" fill="#000000" fill-opacity="1.000000" fill-rule="evenodd"/>
		</mask>
		<g mask="url(#mask430_8821)">
			<path id="Fill 1" d="M7.61255 22.722L15.9604 22.722C17.9116 22.722 19.4595 22.125 20.4375 20.9971C21.4204 19.863 21.7744 18.282 21.4915 16.311L20.7026 10.204C20.1074 7.50305 18.3445 6.54004 16.8945 6.54004L6.71558 6.54004C5.27148 6.54004 3.40649 7.50598 2.89648 10.269L2.12061 16.295C1.80249 18.4131 2.1145 20.036 3.04761 21.118C3.97656 22.197 5.46948 22.722 7.61255 22.722ZM6.71558 8.04004C6.27441 8.04004 4.80054 8.21802 4.37744 10.5021L3.60547 16.5021C3.35449 18.1851 3.54858 19.4031 4.18359 20.14C4.81055 20.868 5.93262 21.222 7.61255 21.222L15.9604 21.222C17.0085 21.222 18.4395 21.0131 19.3035 20.015C19.9895 19.224 20.2256 18.046 20.0056 16.5131L19.2266 10.4611C18.8945 8.97009 18.0186 8.04004 16.8945 8.04004L6.71558 8.04004Z" clip-rule="evenodd" fill="#212121" fill-opacity="1.000000" fill-rule="evenodd"/>
		</g>
		<path id="Fill 4" d="M16.09 7.82C15.68 7.82 15.34 7.48 15.34 7.07C15.34 5.1 13.74 3.5 11.77 3.5L11.76 3.5C10.82 3.5 9.9 3.87 9.23 4.54C8.57 5.2 8.18 6.12 8.18 7.07C8.18 7.48 7.85 7.82 7.43 7.82C7.02 7.82 6.68 7.48 6.68 7.07C6.68 5.73 7.23 4.42 8.18 3.47C9.12 2.53 10.42 2 11.75 2L11.78 2C14.57 2 16.84 4.27 16.84 7.07C16.84 7.48 16.51 7.82 16.09 7.82Z" fill="#212121" fill-opacity="1.000000" fill-rule="evenodd"/>
		<path id="Fill 6" d="M14.74 12.32L14.69 12.32C14.28 12.32 13.94 11.98 13.94 11.57C13.94 11.16 14.28 10.82 14.69 10.82C15.11 10.82 15.47 11.16 15.47 11.57C15.47 11.98 15.15 12.32 14.74 12.32Z" fill="#212121" fill-opacity="1.000000" fill-rule="evenodd"/>
		<path id="Fill 8" d="M8.91 12.32L8.86 12.32C8.45 12.32 8.11 11.98 8.11 11.57C8.11 11.16 8.45 10.82 8.86 10.82C9.28 10.82 9.64 11.16 9.64 11.57C9.64 11.98 9.32 12.32 8.91 12.32Z" fill="#212121" fill-opacity="1.000000" fill-rule="evenodd"/>
	</g>
</svg>
