<svg width="24.000000" height="24.000000" viewBox="0 0 24 24" fill="none" xmlns="http://www.w3.org/2000/svg" xmlns:xlink="http://www.w3.org/1999/xlink">
	<desc>
			Created with Pixso.
	</desc>
	<defs>
		<clipPath id="clip430_8962">
			<rect id="Iconly/Light-Outline/Arrow - Up Square" width="24.000000" height="24.000000" fill="white" fill-opacity="0"/>
		</clipPath>
	</defs>
	<rect id="Iconly/Light-Outline/Arrow - Up Square" width="24.000000" height="24.000000" fill="#FFFFFF" fill-opacity="0"/>
	<g clip-path="url(#clip430_8962)">
		<path id="Fill 1" d="M7.66602 2L16.335 2C19.7241 2 22 4.37805 22 7.91602L22 16.084C22 19.6219 19.7241 22 16.335 22L7.66602 22C4.2771 22 2 19.6219 2 16.084L2 7.91602C2 4.37805 4.2771 2 7.66602 2ZM3.5 16.084C3.5 18.767 5.13599 20.5 7.66602 20.5L16.335 20.5C18.865 20.5 20.5 18.767 20.5 16.084L20.5 7.91602C20.5 5.23303 18.865 3.5 16.335 3.5L7.66602 3.5C5.13599 3.5 3.5 5.23303 3.5 7.91602L3.5 16.084Z" clip-rule="evenodd" fill="#212121" fill-opacity="1.000000" fill-rule="evenodd"/>
		<path id="Fill 3" d="M12 7.16C11.58 7.16 11.25 7.5 11.25 7.91L11.25 16.08C11.25 16.5 11.58 16.83 12 16.83C12.41 16.83 12.75 16.5 12.75 16.08L12.75 7.91C12.75 7.5 12.41 7.16 12 7.16Z" fill="#212121" fill-opacity="1.000000" fill-rule="evenodd"/>
		<path id="Fill 5" d="M12 7.16C11.8 7.16 11.6 7.24 11.46 7.38L7.72 11.14C7.42 11.44 7.42 11.91 7.72 12.2C8.01 12.5 8.49 12.5 8.78 12.2L12 8.97L15.21 12.2C15.51 12.5 15.98 12.5 16.27 12.2C16.57 11.91 16.57 11.44 16.27 11.14L12.53 7.38C12.39 7.24 12.19 7.16 12 7.16Z" fill="#212121" fill-opacity="1.000000" fill-rule="evenodd"/>
	</g>
</svg>
