<svg width="24.000000" height="24.000000" viewBox="0 0 24 24" fill="none" xmlns="http://www.w3.org/2000/svg" xmlns:xlink="http://www.w3.org/1999/xlink">
	<desc>
			Created with Pixso.
	</desc>
	<defs>
		<clipPath id="clip430_8804">
			<rect id="Iconly/Light-Outline/Game" width="24.000000" height="24.000000" fill="white" fill-opacity="0"/>
		</clipPath>
	</defs>
	<rect id="Iconly/Light-Outline/Game" width="24.000000" height="24.000000" fill="#FFFFFF" fill-opacity="0"/>
	<g clip-path="url(#clip430_8804)">
		<path id="Fill 1" d="M8.59 16.55C8.18 16.55 7.84 16.22 7.84 15.8L7.84 12.06C7.84 11.65 8.18 11.31 8.59 11.31C9.01 11.31 9.34 11.65 9.34 12.06L9.34 15.8C9.34 16.22 9.01 16.55 8.59 16.55Z" fill="#212121" fill-opacity="1.000000" fill-rule="evenodd"/>
		<path id="Fill 3" d="M10.5 14.68L6.68 14.68C6.27 14.68 5.93 14.35 5.93 13.93C5.93 13.52 6.27 13.18 6.68 13.18L10.5 13.18C10.92 13.18 11.25 13.52 11.25 13.93C11.25 14.35 10.92 14.68 10.5 14.68Z" fill="#212121" fill-opacity="1.000000" fill-rule="evenodd"/>
		<path id="Fill 5" d="M15.11 12.92L15 12.92C14.59 12.92 14.25 12.59 14.25 12.17C14.25 11.76 14.59 11.42 15 11.42L15.11 11.42C15.53 11.42 15.86 11.76 15.86 12.17C15.86 12.59 15.53 12.92 15.11 12.92Z" fill="#212121" fill-opacity="1.000000" fill-rule="evenodd"/>
		<path id="Fill 7" d="M16.92 16.5L16.82 16.5C16.4 16.5 16.07 16.16 16.07 15.75C16.07 15.33 16.4 15 16.82 15L16.92 15C17.34 15 17.67 15.33 17.67 15.75C17.67 16.16 17.34 16.5 16.92 16.5Z" fill="#212121" fill-opacity="1.000000" fill-rule="evenodd"/>
		<mask id="mask430_8811" mask-type="alpha" maskUnits="userSpaceOnUse" x="7.071777" y="1.000000" width="6.040039" height="5.587891">
			<path id="Clip 10" d="M7.07 1L13.11 1L13.11 6.58L7.07 6.58L7.07 1Z" fill="#000000" fill-opacity="1.000000" fill-rule="evenodd"/>
		</mask>
		<g mask="url(#mask430_8811)">
			<path id="Fill 9" d="M12.36 6.58C11.94 6.58 11.61 6.25 11.61 5.83L11.61 5.16C11.6 4.43 10.99 3.84 10.24 3.84L9.18 3.84C8.02 3.84 7.07 2.9 7.07 1.74C7.07 1.33 7.4 0.99 7.82 0.99C8.23 0.99 8.57 1.33 8.57 1.74C8.57 2.07 8.84 2.34 9.18 2.34L10.24 2.34C11.81 2.34 13.1 3.6 13.11 5.15L13.11 5.83C13.11 6.25 12.77 6.58 12.36 6.58Z" fill="#212121" fill-opacity="1.000000" fill-rule="evenodd"/>
		</g>
		<mask id="mask430_8814" mask-type="alpha" maskUnits="userSpaceOnUse" x="1.000244" y="5.373291" width="21.499756" height="17.126709">
			<path id="Clip 13" d="M1 5.37L22.5 5.37L22.5 22.5L1 22.5L1 5.37Z" fill="#000000" fill-opacity="1.000000" fill-rule="evenodd"/>
		</mask>
		<g mask="url(#mask430_8814)">
			<path id="Fill 12" d="M7.3103 22.463C8.78613 22.4871 10.2712 22.5 11.7542 22.5C13.2363 22.5 14.7163 22.4871 16.1843 22.463C19.8452 22.4601 22.5002 19.8521 22.5002 16.2621L22.5002 11.6121C22.5002 8.01904 19.8413 5.41003 16.1902 5.41003C13.1802 5.36108 10.1921 5.36108 7.32324 5.41003C3.65918 5.41003 1.00024 8.01904 1.00024 11.6121L1.00024 16.2621C1.00024 19.854 3.65918 22.463 7.3103 22.463ZM11.7012 6.87305C10.2253 6.87305 8.76733 6.88599 7.33521 6.91003C4.52832 6.91003 2.50024 8.88806 2.50024 11.6121L2.50024 16.2621C2.50024 18.985 4.52832 20.963 7.32324 20.963C10.2703 21.0121 13.2412 21.0121 16.1653 20.963L16.1782 20.963C18.9722 20.963 21.0002 18.985 21.0002 16.2621L21.0002 11.6121C21.0002 8.88806 18.9722 6.91003 16.1782 6.91003C14.6743 6.88599 13.1792 6.87305 11.7012 6.87305Z" clip-rule="evenodd" fill="#212121" fill-opacity="1.000000" fill-rule="evenodd"/>
		</g>
	</g>
</svg>
