<svg width="24.000000" height="24.000000" viewBox="0 0 24 24" fill="none" xmlns="http://www.w3.org/2000/svg" xmlns:xlink="http://www.w3.org/1999/xlink">
	<desc>
			Created with Pixso.
	</desc>
	<defs>
		<clipPath id="clip430_8419">
			<rect id="Iconly/Light-Outline/Call" width="24.000000" height="24.000000" fill="white" fill-opacity="0"/>
		</clipPath>
	</defs>
	<rect id="Iconly/Light-Outline/Call" width="24.000000" height="24.000000" fill="#FFFFFF" fill-opacity="0"/>
	<g clip-path="url(#clip430_8419)">
		<path id="Stroke 5" d="M3.36133 4.01208L3.28882 4.08789L3.15527 4.22046C1.09399 6.32593 1.5376 9.68286 6.56738 15.1476L7.10425 15.7205C7.38086 16.0107 7.66992 16.3066 7.97192 16.6084C11.6802 20.3158 14.6067 22.1365 16.9143 22.4574C17.8506 22.5875 18.6565 22.4655 19.3386 22.1416C19.7449 21.9486 20.0215 21.7443 20.3176 21.4589L20.5063 21.2677C22.4893 19.2921 23.0007 18.0377 22.2356 16.6989C22.0422 16.3606 21.7803 16.0405 21.3843 15.6366L21.0269 15.2852L19.8132 14.1128C18.842 13.1423 17.9263 12.9115 16.8423 13.2007L16.7078 13.238L16.4001 13.338L16.1458 13.4264C14.7185 13.925 13.9741 13.7947 12.3794 12.2004C10.8459 10.6672 10.666 9.91968 11.0969 8.59473L11.2983 8.00391L11.3398 7.86963L11.3772 7.73462C11.6482 6.71472 11.459 5.84387 10.627 4.93604L9.12061 3.37402C8.62939 2.87524 8.26831 2.56519 7.88306 2.34363C6.54395 1.57349 5.28857 2.08447 3.36133 4.01208ZM7.90649 4.28088C7.58057 3.95972 7.34399 3.76392 7.13525 3.64392C6.67383 3.37854 6.17554 3.49072 5.25317 4.28442L4.96362 4.54333C4.91309 4.58997 4.86133 4.63843 4.80835 4.68872L4.47607 5.01233L4.44629 5.04968L4.22095 5.276C3.67651 5.83203 3.4187 6.51062 3.64087 7.67761C4.00562 9.59265 5.67432 12.1906 9.03247 15.5476C12.5312 19.0457 15.1973 20.7041 17.1208 20.9717C18.2422 21.1276 18.8142 20.856 19.3975 20.2584L19.8423 19.8094C20.051 19.5912 20.2292 19.3933 20.3796 19.2125L20.585 18.9539C21.1096 18.255 21.1577 17.8358 20.9333 17.4432C20.8479 17.2939 20.7236 17.1301 20.543 16.9301L20.2976 16.671L20.1526 16.5258L18.6213 15.0472C18.1096 14.5753 17.7598 14.5084 17.229 14.65L17.0757 14.6941L16.4414 14.9094C14.6013 15.5037 13.2737 15.2156 11.3188 13.2612C9.29419 11.2371 9.05688 9.88538 9.73511 7.93921L9.77881 7.81409L9.89917 7.45154L9.95825 7.22046C10.0632 6.71741 9.94336 6.36682 9.40259 5.82605C9.38037 5.80371 9.35547 5.77869 9.32837 5.75122L7.90649 4.28088Z" clip-rule="evenodd" fill="#212121" fill-opacity="1.000000" fill-rule="evenodd"/>
	</g>
</svg>
