<svg width="24.000000" height="24.000000" viewBox="0 0 24 24" fill="none" xmlns="http://www.w3.org/2000/svg" xmlns:xlink="http://www.w3.org/1999/xlink">
	<desc>
			Created with Pixso.
	</desc>
	<defs>
		<clipPath id="clip430_8905">
			<rect id="Iconly/Light-Outline/Volume Down" width="24.000000" height="24.000000" fill="white" fill-opacity="0"/>
		</clipPath>
	</defs>
	<rect id="Iconly/Light-Outline/Volume Down" width="24.000000" height="24.000000" fill="#FFFFFF" fill-opacity="0"/>
	<g clip-path="url(#clip430_8905)">
		<mask id="mask430_8908" mask-type="alpha" maskUnits="userSpaceOnUse" x="3.000000" y="5.000244" width="12.020020" height="15.501953">
			<path id="Clip 2" d="M3 5L15.02 5L15.02 20.5L3 20.5L3 5Z" fill="#000000" fill-opacity="1.000000" fill-rule="evenodd"/>
		</mask>
		<g mask="url(#mask430_8908)">
			<path id="Fill 1" d="M8.37402 18.5552C9.448 19.4071 10.8269 20.5021 12.218 20.5021C12.6379 20.5021 13.0591 20.4021 13.4729 20.1661C13.5049 20.1481 13.5359 20.1271 13.564 20.1051C14.958 19.0092 15.02 16.9441 15.02 12.7501C15.02 8.55713 14.958 6.49219 13.564 5.39709C13.5359 5.37415 13.5049 5.35413 13.4739 5.33508C11.689 4.31812 9.77197 5.83508 8.37402 6.94617C7.88892 7.33118 7.15601 7.91309 6.90503 7.94019C6.61792 7.96118 6.37109 7.96912 6.15308 7.97717C5.35303 8.00415 4.72095 8.02612 3.97803 8.63818C2.98755 9.45386 2.99487 11.1569 3.00098 12.5278L3.00098 12.5342L3.00195 12.7501L3.00098 12.9662L3.00098 12.9724C2.99487 14.3434 2.98755 16.0474 3.97803 16.8632C4.71997 17.4751 5.35107 17.4961 6.14893 17.5251C6.36792 17.5311 6.61597 17.5402 6.90308 17.5621C7.15601 17.5881 7.88892 18.1702 8.37402 18.5552ZM12.208 6.5061C11.3401 6.5061 10.23 7.38708 9.30591 8.12109C8.41699 8.82617 7.71509 9.38416 7.01489 9.43616C6.70508 9.45813 6.43896 9.46814 6.20508 9.47607C5.45801 9.5011 5.26904 9.51819 4.93188 9.79614C4.49023 10.1589 4.49707 11.6401 4.50098 12.5254L4.50098 12.5271L4.50195 12.7482L4.50195 12.7521L4.50098 12.9731L4.50098 12.975C4.49707 13.8612 4.49023 15.3424 4.93188 15.7051C5.26807 15.9832 5.45703 15.9991 6.2019 16.0261C6.43701 16.0331 6.7041 16.0431 7.01489 16.0662C7.71509 16.1172 8.41699 16.6752 9.30591 17.3801L9.30762 17.3815C10.4104 18.2562 11.7764 19.34 12.6809 18.8892C13.439 18.2322 13.52 16.4901 13.52 12.7501C13.52 9.01013 13.439 7.26917 12.6809 6.61108C12.5339 6.53809 12.375 6.5061 12.208 6.5061Z" clip-rule="evenodd" fill="#212121" fill-opacity="1.000000" fill-rule="evenodd"/>
		</g>
		<path id="Fill 4" d="M18.33 17.18C18.2 17.18 18.07 17.15 17.95 17.08C17.59 16.88 17.47 16.42 17.68 16.06C18.85 14.02 18.85 11.48 17.68 9.43C17.47 9.07 17.59 8.61 17.95 8.41C18.31 8.21 18.77 8.33 18.98 8.69C20.41 11.19 20.41 14.3 18.98 16.8C18.84 17.05 18.59 17.18 18.33 17.18Z" fill="#212121" fill-opacity="1.000000" fill-rule="evenodd"/>
	</g>
</svg>
