<svg width="24.000000" height="24.000000" viewBox="0 0 24 24" fill="none" xmlns="http://www.w3.org/2000/svg" xmlns:xlink="http://www.w3.org/1999/xlink">
	<desc>
			Created with Pixso.
	</desc>
	<defs>
		<clipPath id="clip430_8715">
			<rect id="Iconly/Light-Outline/Unlock" width="24.000000" height="24.000000" fill="white" fill-opacity="0"/>
		</clipPath>
	</defs>
	<rect id="Iconly/Light-Outline/Unlock" width="24.000000" height="24.000000" fill="#FFFFFF" fill-opacity="0"/>
	<g clip-path="url(#clip430_8715)">
		<path id="Fill 1" d="M7.8 10.19C7.38 10.19 7.05 9.86 7.05 9.44L7.05 7.3C7.06 4.36 9.44 2 12.35 2L12.37 2C14.63 2 16.64 3.43 17.38 5.56C17.51 5.95 17.31 6.38 16.91 6.52C16.52 6.65 16.1 6.44 15.96 6.05C15.43 4.52 13.99 3.5 12.37 3.5L12.35 3.5C10.26 3.5 8.56 5.19 8.55 7.28L8.55 9.44C8.55 9.86 8.21 10.19 7.8 10.19Z" fill="#212121" fill-opacity="1.000000" fill-rule="evenodd"/>
		<path id="Fill 3" d="M8.54199 22.001L16.1841 22.001C18.688 22.001 20.7261 19.963 20.7261 17.458L20.7261 13.1699C20.7261 10.6649 18.688 8.62695 16.1841 8.62695L8.54199 8.62695C6.03711 8.62695 4 10.6649 4 13.1699L4 17.458C4 19.963 6.03711 22.001 8.54199 22.001ZM5.5 13.1699C5.5 11.4919 6.86401 10.127 8.54199 10.127L16.1841 10.127C17.8611 10.127 19.2261 11.4919 19.2261 13.1699L19.2261 17.458C19.2261 19.136 17.8611 20.501 16.1841 20.501L8.54199 20.501C6.86401 20.501 5.5 19.136 5.5 17.458L5.5 13.1699Z" clip-rule="evenodd" fill="#212121" fill-opacity="1.000000" fill-rule="evenodd"/>
		<path id="Fill 5" d="M12.36 17.17C11.94 17.17 11.61 16.83 11.61 16.42L11.61 14.2C11.61 13.78 11.94 13.45 12.36 13.45C12.77 13.45 13.11 13.78 13.11 14.2L13.11 16.42C13.11 16.83 12.77 17.17 12.36 17.17Z" fill="#212121" fill-opacity="1.000000" fill-rule="evenodd"/>
	</g>
</svg>
