<svg width="24.000000" height="24.000000" viewBox="0 0 24 24" fill="none" xmlns="http://www.w3.org/2000/svg" xmlns:xlink="http://www.w3.org/1999/xlink">
	<desc>
			Created with Pixso.
	</desc>
	<defs>
		<clipPath id="clip430_8858">
			<rect id="Iconly/Light-Outline/Location" width="24.000000" height="24.000000" fill="white" fill-opacity="0"/>
		</clipPath>
	</defs>
	<rect id="Iconly/Light-Outline/Location" width="24.000000" height="24.000000" fill="#FFFFFF" fill-opacity="0"/>
	<g clip-path="url(#clip430_8858)">
		<path id="Fill 1" d="M9.00049 10.251C9.00049 12.043 10.4585 13.5 12.2505 13.5C14.0425 13.5 15.5005 12.043 15.5005 10.251C15.5005 8.45801 14.0425 7 12.2505 7C10.4585 7 9.00049 8.45801 9.00049 10.251ZM10.5005 10.251C10.5005 9.28503 11.2854 8.5 12.2505 8.5C13.2156 8.5 14.0005 9.28503 14.0005 10.251C14.0005 11.2159 13.2156 12 12.2505 12C11.2854 12 10.5005 11.2159 10.5005 10.251Z" clip-rule="evenodd" fill="#212121" fill-opacity="1.000000" fill-rule="evenodd"/>
		<mask id="mask430_8864" mask-type="alpha" maskUnits="userSpaceOnUse" x="4.000000" y="2.000000" width="16.499512" height="19.500000">
			<path id="Clip 4" d="M4 2L20.49 2L20.49 21.5L4 21.5L4 2Z" fill="#000000" fill-opacity="1.000000" fill-rule="evenodd"/>
		</mask>
		<g mask="url(#mask430_8864)">
			<path id="Fill 3" d="M3.99951 10.313C3.99951 15.948 10.4556 21.5 12.2495 21.5C14.0435 21.5 20.4995 15.948 20.4995 10.313C20.4995 5.729 16.7986 2 12.2495 2C7.70044 2 3.99951 5.729 3.99951 10.313ZM5.49951 10.313C5.49951 6.55701 8.52759 3.5 12.2495 3.5C15.9714 3.5 18.9995 6.55701 18.9995 10.313C18.9995 15.0909 13.3755 19.7469 12.2495 19.996C11.1235 19.748 5.49951 15.092 5.49951 10.313Z" clip-rule="evenodd" fill="#212121" fill-opacity="1.000000" fill-rule="evenodd"/>
		</g>
	</g>
</svg>
