<svg width="24.000000" height="24.000000" viewBox="0 0 24 24" fill="none" xmlns="http://www.w3.org/2000/svg" xmlns:xlink="http://www.w3.org/1999/xlink">
	<desc>
			Created with Pixso.
	</desc>
	<defs>
		<clipPath id="clip430_8191">
			<rect id="Iconly/Light-Outline/Search" width="24.000000" height="24.000000" fill="white" fill-opacity="0"/>
		</clipPath>
	</defs>
	<rect id="Iconly/Light-Outline/Search" width="24.000000" height="24.000000" fill="#FFFFFF" fill-opacity="0"/>
	<g clip-path="url(#clip430_8191)">
		<mask id="mask430_8194" mask-type="alpha" maskUnits="userSpaceOnUse" x="2.000000" y="2.000000" width="19.476807" height="19.477051">
			<path id="Clip 2" d="M2 2L21.47 2L21.47 21.47L2 21.47L2 2Z" fill="#000000" fill-opacity="1.000000" fill-rule="evenodd"/>
		</mask>
		<g mask="url(#mask430_8194)">
			<path id="Fill 1" d="M1.99976 11.738C1.99976 17.108 6.36865 21.4771 11.7388 21.4771C17.1086 21.4771 21.4768 17.108 21.4768 11.738C21.4768 6.36804 17.1086 2 11.7388 2C6.36865 2 1.99976 6.36804 1.99976 11.738ZM3.49976 11.738C3.49976 7.19495 7.1958 3.5 11.7388 3.5C16.2808 3.5 19.9768 7.19495 19.9768 11.738C19.9768 16.281 16.2808 19.9771 11.7388 19.9771C7.1958 19.9771 3.49976 16.281 3.49976 11.738Z" clip-rule="evenodd" fill="#212121" fill-opacity="1.000000" fill-rule="evenodd"/>
		</g>
		<mask id="mask430_8199" mask-type="alpha" maskUnits="userSpaceOnUse" x="17.239990" y="17.706909" width="5.024170" height="5.014771">
			<path id="Clip 5" d="M17.24 17.7L22.26 17.7L22.26 22.72L17.24 22.72L17.24 17.7Z" fill="#000000" fill-opacity="1.000000" fill-rule="evenodd"/>
		</mask>
		<g mask="url(#mask430_8199)">
			<path id="Fill 4" d="M21.51 22.72C21.32 22.72 21.13 22.64 20.98 22.5L17.46 18.98C17.16 18.69 17.16 18.22 17.45 17.92C17.75 17.63 18.22 17.63 18.52 17.92L22.04 21.44C22.33 21.73 22.33 22.2 22.04 22.5C21.89 22.64 21.7 22.72 21.51 22.72Z" fill="#212121" fill-opacity="1.000000" fill-rule="evenodd"/>
		</g>
	</g>
</svg>
