<svg width="24.000000" height="24.000000" viewBox="0 0 24 24" fill="none" xmlns="http://www.w3.org/2000/svg" xmlns:xlink="http://www.w3.org/1999/xlink">
	<desc>
			Created with Pixso.
	</desc>
	<defs>
		<clipPath id="clip430_8684">
			<rect id="Iconly/Light-Outline/Shield Fail" width="24.000000" height="24.000000" fill="white" fill-opacity="0"/>
		</clipPath>
	</defs>
	<rect id="Iconly/Light-Outline/Shield Fail" width="24.000000" height="24.000000" fill="#FFFFFF" fill-opacity="0"/>
	<g clip-path="url(#clip430_8684)">
		<mask id="mask430_8687" mask-type="alpha" maskUnits="userSpaceOnUse" x="4.000244" y="2.000366" width="16.966797" height="20.355591">
			<path id="Clip 2" d="M4 2L20.96 2L20.96 22.35L4 22.35L4 2Z" fill="#000000" fill-opacity="1.000000" fill-rule="evenodd"/>
		</mask>
		<g mask="url(#mask430_8687)">
			<path id="Fill 1" d="M12.2666 22.324C12.3376 22.3459 12.4106 22.356 12.4836 22.356C12.5566 22.356 12.6296 22.3459 12.7007 22.324C13.0356 22.223 20.9058 19.761 20.9058 12.879C20.9058 10.962 20.9307 9.57495 20.9487 8.55701L20.9487 8.55225C20.9946 6.01331 21.0044 5.48364 20.3486 4.828C19.5627 4.04102 13.6167 2 12.4836 2C11.3506 2 5.40479 4.04102 4.61768 4.828C3.96313 5.48364 3.97266 6.01331 4.01855 8.54944L4.0188 8.55396C4.03662 9.57202 4.06177 10.959 4.06177 12.879C4.06177 19.761 11.9316 22.223 12.2666 22.324ZM12.4836 3.5C11.6357 3.5 6.28467 5.38403 5.66772 5.89905C5.48657 6.08105 5.47974 6.39905 5.51758 8.526C5.53662 9.552 5.56177 10.947 5.56177 12.879C5.56177 18.08 11.2837 20.389 12.4827 20.814C13.6807 20.387 19.4058 18.0649 19.4058 12.879C19.4058 10.949 19.4307 9.55505 19.4487 8.52905C19.4878 6.40002 19.4807 6.08203 19.2876 5.88904C18.6816 5.38403 13.3318 3.5 12.4836 3.5Z" clip-rule="evenodd" fill="#212121" fill-opacity="1.000000" fill-rule="evenodd"/>
		</g>
		<path id="Fill 4" d="M14.36 14.57C14.17 14.57 13.97 14.5 13.83 14.35L10.07 10.59C9.78 10.3 9.78 9.83 10.07 9.53C10.36 9.24 10.84 9.24 11.13 9.53L14.89 13.29C15.18 13.58 15.18 14.06 14.89 14.35C14.74 14.5 14.55 14.57 14.36 14.57Z" fill="#212121" fill-opacity="1.000000" fill-rule="evenodd"/>
		<path id="Fill 6" d="M10.6 14.57C10.41 14.57 10.22 14.5 10.07 14.35C9.78 14.06 9.78 13.58 10.07 13.29L13.83 9.53C14.12 9.24 14.59 9.24 14.89 9.53C15.18 9.83 15.18 10.3 14.89 10.59L11.13 14.35C10.98 14.5 10.79 14.57 10.6 14.57Z" fill="#212121" fill-opacity="1.000000" fill-rule="evenodd"/>
	</g>
</svg>
