<svg width="24.000000" height="24.000000" viewBox="0 0 24 24" fill="none" xmlns="http://www.w3.org/2000/svg" xmlns:xlink="http://www.w3.org/1999/xlink">
	<desc>
			Created with Pixso.
	</desc>
	<defs>
		<clipPath id="clip430_8470">
			<rect id="Iconly/Light-Outline/Paper Fail" width="24.000000" height="24.000000" fill="white" fill-opacity="0"/>
		</clipPath>
	</defs>
	<rect id="Iconly/Light-Outline/Paper Fail" width="24.000000" height="24.000000" fill="#FFFFFF" fill-opacity="0"/>
	<g clip-path="url(#clip430_8470)">
		<mask id="mask430_8473" mask-type="alpha" maskUnits="userSpaceOnUse" x="3.000000" y="2.011719" width="17.051514" height="19.854980">
			<path id="Clip 2" d="M3 2.01L20.05 2.01L20.05 21.86L3 21.86L3 2.01Z" fill="#000000" fill-opacity="1.000000" fill-rule="evenodd"/>
		</mask>
		<g mask="url(#mask430_8473)">
			<path id="Fill 1" d="M4.35059 20.5537C5.20752 21.4017 6.34253 21.8667 7.54248 21.8667L7.57153 21.8667L15.5806 21.8657C18.0505 21.8397 20.0564 19.8087 20.0515 17.3397L20.0515 8.03967C20.0515 7.84668 19.9766 7.65967 19.8425 7.52075L14.7776 2.2417C14.6355 2.09473 14.4404 2.01172 14.2366 2.01172L7.47852 2.01172C5.00854 2.01172 2.99951 4.02173 2.99951 6.49072L2.99951 17.3438C3.00659 18.5597 3.48657 19.6997 4.35059 20.5537ZM7.47852 3.51172C5.83545 3.51172 4.49951 4.84875 4.49951 6.49072L4.49951 17.3397C4.50439 18.1508 4.82642 18.9147 5.40552 19.4877C5.9834 20.0587 6.78052 20.3867 7.56641 20.3667C7.57349 20.3667 7.68359 20.3657 7.68945 20.3657L15.5725 20.3657C17.2146 20.3478 18.5544 18.9907 18.5515 17.3407L18.5515 8.34167L13.9165 3.51172L7.47852 3.51172Z" clip-rule="evenodd" fill="#212121" fill-opacity="1.000000" fill-rule="evenodd"/>
		</g>
		<path id="Fill 4" d="M19.29 8.98L16.54 8.98C14.71 8.97 13.22 7.48 13.22 5.65L13.22 2.75C13.22 2.33 13.55 2 13.97 2C14.38 2 14.72 2.33 14.72 2.75L14.72 5.65C14.72 6.66 15.53 7.48 16.54 7.48L19.29 7.48C19.71 7.48 20.04 7.82 20.04 8.23C20.04 8.64 19.71 8.98 19.29 8.98Z" fill="#212121" fill-opacity="1.000000" fill-rule="evenodd"/>
		<path id="Fill 6" d="M13.07 15.39C12.88 15.39 12.69 15.32 12.54 15.17L9.07 11.71C8.78 11.41 8.78 10.94 9.07 10.65C9.37 10.35 9.84 10.35 10.13 10.65L13.6 14.11C13.89 14.41 13.89 14.88 13.6 15.17C13.45 15.32 13.26 15.39 13.07 15.39Z" fill="#212121" fill-opacity="1.000000" fill-rule="evenodd"/>
		<path id="Fill 8" d="M9.61 15.39C9.41 15.39 9.22 15.32 9.08 15.17C8.78 14.88 8.78 14.41 9.08 14.11L12.54 10.65C12.83 10.35 13.31 10.35 13.6 10.65C13.89 10.94 13.89 11.41 13.6 11.71L10.14 15.17C9.99 15.32 9.8 15.39 9.61 15.39Z" fill="#212121" fill-opacity="1.000000" fill-rule="evenodd"/>
	</g>
</svg>
