<svg width="24.000000" height="24.000000" viewBox="0 0 24 24" fill="none" xmlns="http://www.w3.org/2000/svg" xmlns:xlink="http://www.w3.org/1999/xlink">
	<desc>
			Created with Pixso.
	</desc>
	<defs>
		<clipPath id="clip430_8446">
			<rect id="Iconly/Light-Outline/Camera" width="24.000000" height="24.000000" fill="white" fill-opacity="0"/>
		</clipPath>
	</defs>
	<rect id="Iconly/Light-Outline/Camera" width="24.000000" height="24.000000" fill="#FFFFFF" fill-opacity="0"/>
	<g clip-path="url(#clip430_8446)">
		<path id="Stroke 1" d="M8.68213 3.35437C8.0332 3.61255 7.59595 4.10095 7.19409 4.83142L6.74316 5.69727L6.69165 5.77612C6.6853 5.78491 6.67969 5.79163 6.67578 5.79614C6.46924 6.02039 6.12402 6.15625 5.89722 6.15625C3.74512 6.15625 2.00024 7.90088 2.00024 10.0522L2.00024 15.8473C2.00024 18.5918 4.22534 20.8173 6.97021 20.8173L17.0303 20.8173C19.7744 20.8173 22.0002 18.5914 22.0002 15.8473L22.0002 10.0522C22.0002 7.90088 20.2554 6.15625 18.1033 6.15625C17.8757 6.15625 17.5308 6.02063 17.3247 5.79614L17.2864 5.74365C17.2778 5.73059 17.2683 5.71545 17.2581 5.69836L16.8059 4.83118C16.4036 4.10083 15.9661 3.61255 15.3176 3.35437C14.1296 2.88159 9.87109 2.88159 8.68213 3.35437ZM15.4919 5.55481C15.2419 5.10095 15.0161 4.84888 14.7629 4.74805L14.6436 4.70837C13.6145 4.41748 10.0347 4.43079 9.23657 4.74805C8.98364 4.84875 8.75781 5.10083 8.5083 5.55457L8.12329 6.29871L8.02856 6.47009C7.94971 6.60156 7.87061 6.71265 7.78027 6.81104C7.27368 7.36157 6.52441 7.65625 5.89722 7.65625L5.73315 7.66174C4.48608 7.74609 3.50024 8.78442 3.50024 10.0522L3.50024 15.8473C3.50024 17.7634 5.05371 19.3173 6.97021 19.3173L17.0303 19.3173C18.946 19.3173 20.5002 17.7631 20.5002 15.8473L20.5002 10.0522C20.5002 8.72937 19.427 7.65625 18.1033 7.65625L17.9292 7.64893C17.3406 7.60059 16.6794 7.3114 16.2197 6.81042C16.1306 6.71326 16.052 6.60303 15.9734 6.47266C15.9619 6.45386 15.948 6.42932 15.9319 6.40015L15.8159 6.18237L15.4919 5.55481Z" clip-rule="evenodd" fill="#212121" fill-opacity="1.000000" fill-rule="evenodd"/>
		<path id="Stroke 13" d="M17.5 8.5C18.05 8.5 18.5 8.94 18.5 9.5C18.5 10.01 18.11 10.43 17.62 10.49L17.5 10.5C16.94 10.5 16.49 10.05 16.49 9.5C16.49 8.98 16.88 8.56 17.37 8.5L17.5 8.5Z" fill="#212121" fill-opacity="1.000000" fill-rule="nonzero"/>
		<path id="Stroke 5" d="M8.0708 13.1279C8.0708 10.9578 9.82959 9.19897 11.9998 9.19897C14.1699 9.19897 15.9287 10.9578 15.9287 13.1279C15.9287 15.2982 14.1699 17.057 11.9998 17.057C9.82959 17.057 8.0708 15.2982 8.0708 13.1279ZM14.4287 13.1279C14.4287 11.7861 13.3416 10.699 11.9998 10.699C10.658 10.699 9.5708 11.7861 9.5708 13.1279C9.5708 14.4697 10.658 15.557 11.9998 15.557C13.3416 15.557 14.4287 14.4697 14.4287 13.1279Z" clip-rule="evenodd" fill="#212121" fill-opacity="1.000000" fill-rule="evenodd"/>
	</g>
</svg>
