<svg width="24.000000" height="24.000000" viewBox="0 0 24 24" fill="none" xmlns="http://www.w3.org/2000/svg" xmlns:xlink="http://www.w3.org/1999/xlink">
	<desc>
			Created with Pixso.
	</desc>
	<defs>
		<clipPath id="clip430_8895">
			<rect id="Iconly/Light-Outline/Setting" width="24.000000" height="24.000000" fill="white" fill-opacity="0"/>
		</clipPath>
	</defs>
	<rect id="Iconly/Light-Outline/Setting" width="24.000000" height="24.000000" fill="#FFFFFF" fill-opacity="0"/>
	<g clip-path="url(#clip430_8895)">
		<mask id="mask430_8898" mask-type="alpha" maskUnits="userSpaceOnUse" x="2.000000" y="2.000488" width="19.284912" height="20.720947">
			<path id="Clip 2" d="M2 2L21.28 2L21.28 22.72L2 22.72L2 2Z" fill="#000000" fill-opacity="1.000000" fill-rule="evenodd"/>
		</mask>
		<g mask="url(#mask430_8898)">
			<path id="Fill 1" d="M11.0144 22.7214L12.2673 22.7214C13.7292 22.7214 14.9243 21.5334 14.9314 20.0645C14.9292 19.7545 15.0493 19.4625 15.2683 19.2435C15.4844 19.0284 15.7812 18.9055 16.0703 18.9055L16.0764 18.9055C16.2703 18.9105 16.4653 18.9635 16.6343 19.0605C17.9014 19.7925 19.5303 19.3575 20.2612 18.1014L20.9253 16.9955C21.2783 16.3884 21.3774 15.6525 21.1963 14.9745C21.0154 14.2955 20.5623 13.7075 19.9553 13.3585C19.6863 13.2045 19.4954 12.9554 19.4153 12.6555C19.3374 12.3615 19.3804 12.0415 19.5354 11.7725C19.6353 11.5985 19.7803 11.4545 19.9592 11.3514C21.1892 10.6324 21.6313 9.0575 20.9692 7.80652C20.9573 7.77747 20.9434 7.74951 20.9272 7.72046L20.3042 6.64148C19.5732 5.37146 17.9443 4.93347 16.6643 5.66443C16.3994 5.82153 16.0874 5.86145 15.7893 5.78748C15.4912 5.70947 15.2402 5.51953 15.0813 5.24951C14.9854 5.08655 14.9324 4.90051 14.9304 4.7395C14.9514 4.02454 14.6763 3.31946 14.1782 2.80554C13.6792 2.29443 12.9834 2.00049 12.2673 2.00049L11.0144 2.00049C10.3032 2.00049 9.63525 2.27747 9.13232 2.78149C8.63135 3.2865 8.3562 3.95544 8.36035 4.65247C8.35034 5.28455 7.82935 5.79846 7.2063 5.79846C7.01538 5.79651 6.82739 5.74451 6.6543 5.64148C5.3833 4.9115 3.75342 5.35352 3.03223 6.60754L2.35425 7.72046C1.62427 8.98853 2.05835 10.6174 3.32544 11.3535C3.68433 11.5605 3.90723 11.9475 3.90723 12.3615C3.90723 12.7755 3.68433 13.1615 3.32544 13.3685C2.05933 14.1005 1.62427 15.7255 2.35522 16.9935L2.98022 18.0704C3.32227 18.6855 3.90527 19.1495 4.58032 19.3405C5.25635 19.5305 5.99536 19.4454 6.62329 19.0955C6.88525 18.9435 7.20435 18.9005 7.49536 18.9785C7.78833 19.0565 8.04224 19.2524 8.19922 19.5265C8.29639 19.6895 8.34839 19.8774 8.35034 20.0585C8.35034 21.5275 9.54541 22.7214 11.0144 22.7214ZM7.20239 17.4404C7.4314 17.4404 7.6604 17.4695 7.88428 17.5295C8.5603 17.7115 9.14722 18.1635 9.49536 18.7705C9.72144 19.1515 9.84644 19.5964 9.85034 20.0505C9.85034 20.7004 10.3723 21.2214 11.0144 21.2214L12.2673 21.2214C12.9062 21.2214 13.4282 20.7035 13.4314 20.0645C13.4272 19.3585 13.7034 18.6875 14.2083 18.1825C14.7063 17.6844 15.4023 17.3855 16.0984 17.4055C16.5542 17.4165 16.9934 17.5394 17.3804 17.7595C17.9373 18.0785 18.6484 17.8884 18.9702 17.3385L19.6343 16.2314C19.7822 15.9764 19.8254 15.6565 19.7463 15.3615C19.6682 15.0665 19.4724 14.8105 19.2083 14.6595C18.5903 14.3035 18.1494 13.7295 17.9663 13.0415C17.7854 12.3665 17.8843 11.6295 18.2373 11.0225C18.4673 10.6224 18.8042 10.2855 19.2083 10.0535C19.7502 9.73645 19.9404 9.02747 19.6252 8.47546C19.6123 8.45349 19.6003 8.43054 19.5903 8.40649L19.0044 7.3905C18.6853 6.83545 17.9753 6.64453 17.4182 6.96155C16.8164 7.3175 16.1003 7.41943 15.4124 7.23853C14.7253 7.06055 14.1494 6.62549 13.7903 6.01147C13.5603 5.62744 13.4353 5.18054 13.4314 4.72546C13.4404 4.38354 13.3203 4.07654 13.1023 3.85144C12.8853 3.62744 12.5803 3.50049 12.2673 3.50049L11.0144 3.50049C10.7043 3.50049 10.4143 3.62146 10.1953 3.83948C9.97729 4.05847 9.8584 4.34949 9.86035 4.65955C9.83936 6.12146 8.64429 7.29846 7.19727 7.29846C6.7334 7.29346 6.28638 7.16846 5.89844 6.93652C5.35327 6.62646 4.64136 6.8175 4.32227 7.37244L3.64526 8.48547C3.33521 9.02344 3.52539 9.7345 4.07739 10.0555C4.89624 10.5295 5.40723 11.4135 5.40723 12.3615C5.40723 13.3094 4.89624 14.1925 4.07544 14.6675C3.52637 14.9855 3.33643 15.6925 3.6543 16.2424L4.2854 17.3304C4.44141 17.6115 4.69629 17.8145 4.99121 17.8975C5.2854 17.9795 5.60938 17.9445 5.87939 17.7944C6.27637 17.5615 6.73828 17.4404 7.20239 17.4404Z" clip-rule="evenodd" fill="#212121" fill-opacity="1.000000" fill-rule="evenodd"/>
		</g>
		<path id="Fill 4" d="M8.25903 12.3616C8.25903 14.2286 9.77808 15.7466 11.645 15.7466C13.512 15.7466 15.031 14.2286 15.031 12.3616C15.031 10.4946 13.512 8.97461 11.645 8.97461C9.77808 8.97461 8.25903 10.4946 8.25903 12.3616ZM9.75903 12.3616C9.75903 11.3217 10.605 10.4746 11.645 10.4746C12.6851 10.4746 13.531 11.3217 13.531 12.3616C13.531 13.4016 12.6851 14.2466 11.645 14.2466C10.605 14.2466 9.75903 13.4016 9.75903 12.3616Z" clip-rule="evenodd" fill="#212121" fill-opacity="1.000000" fill-rule="evenodd"/>
	</g>
</svg>
