<svg width="24.000000" height="24.000000" viewBox="0 0 24 24" fill="none" xmlns="http://www.w3.org/2000/svg" xmlns:xlink="http://www.w3.org/1999/xlink">
	<desc>
			Created with Pixso.
	</desc>
	<defs>
		<clipPath id="clip430_8637">
			<rect id="Iconly/Light-Outline/Show" width="24.000000" height="24.000000" fill="white" fill-opacity="0"/>
		</clipPath>
	</defs>
	<rect id="Iconly/Light-Outline/Show" width="24.000000" height="24.000000" fill="#FFFFFF" fill-opacity="0"/>
	<g clip-path="url(#clip430_8637)">
		<path id="Fill 1" d="M8.08887 12.0533C8.08887 14.2094 9.84277 15.9634 11.9998 15.9634C14.157 15.9634 15.9119 14.2094 15.9119 12.0533C15.9119 9.89636 14.157 8.14136 11.9998 8.14136C9.84277 8.14136 8.08887 9.89636 8.08887 12.0533ZM9.58887 12.0533C9.58887 10.7234 10.6699 9.64136 11.9998 9.64136C13.3298 9.64136 14.4119 10.7234 14.4119 12.0533C14.4119 13.3823 13.3298 14.4634 11.9998 14.4634C10.6699 14.4634 9.58887 13.3823 9.58887 12.0533Z" clip-rule="evenodd" fill="#212121" fill-opacity="1.000000" fill-rule="evenodd"/>
		<mask id="mask430_8643" mask-type="alpha" maskUnits="userSpaceOnUse" x="2.000000" y="4.000244" width="19.999756" height="16.104980">
			<path id="Clip 4" d="M2 4L21.99 4L21.99 20.1L2 20.1L2 4Z" fill="#000000" fill-opacity="1.000000" fill-rule="evenodd"/>
		</mask>
		<g mask="url(#mask430_8643)">
			<path id="Fill 3" d="M11.9971 20.1055L12.0029 20.1055C16.1389 20.1025 19.854 17.2035 21.939 12.3485C22.021 12.1594 22.021 11.9454 21.939 11.7565C19.853 6.90247 16.1389 4.00354 12.0029 4.00049L12.002 3.99976L12 4.00049L11.999 3.99976L11.9971 4.00049C7.86206 4.00354 4.14697 6.90247 2.06104 11.7565C1.97998 11.9454 1.97998 12.1594 2.06104 12.3485C4.14697 17.2035 7.86108 20.1025 11.9971 20.1055ZM12 18.6055C8.56299 18.6045 5.42993 16.1615 3.57007 12.0525C5.42993 7.94446 8.56396 5.50146 12 5.50049C15.437 5.50146 18.5701 7.94446 20.4299 12.0525C18.5701 16.1615 15.437 18.6045 12 18.6055Z" clip-rule="evenodd" fill="#212121" fill-opacity="1.000000" fill-rule="evenodd"/>
		</g>
	</g>
</svg>
