<svg width="24.000000" height="24.000000" viewBox="0 0 24 24" fill="none" xmlns="http://www.w3.org/2000/svg" xmlns:xlink="http://www.w3.org/1999/xlink">
	<desc>
			Created with Pixso.
	</desc>
	<defs>
		<clipPath id="clip430_8229">
			<rect id="Iconly/Light-Outline/Bookmark" width="24.000000" height="24.000000" fill="white" fill-opacity="0"/>
		</clipPath>
	</defs>
	<rect id="Iconly/Light-Outline/Bookmark" width="24.000000" height="24.000000" fill="#FFFFFF" fill-opacity="0"/>
	<g clip-path="url(#clip430_8229)">
		<mask id="mask430_8232" mask-type="alpha" maskUnits="userSpaceOnUse" x="3.000000" y="2.000000" width="17.038818" height="20.846680">
			<path id="Clip 2" d="M3 2L20.03 2L20.03 22.84L3 22.84L3 2Z" fill="#000000" fill-opacity="1.000000" fill-rule="evenodd"/>
		</mask>
		<g mask="url(#mask430_8232)">
			<path id="Fill 1" d="M3.84082 22.61C4.10864 22.7679 4.40381 22.847 4.69873 22.847C4.98486 22.847 5.26978 22.7729 5.52979 22.627L11.5447 19.2531L17.5046 22.62C18.0369 22.92 18.6707 22.9141 19.1968 22.606C19.7249 22.299 20.0388 21.75 20.0388 21.14L20.0388 6.604C20.0388 3.67896 18.0928 2 14.7007 2L8.3418 2C4.94678 2 2.99976 3.61096 2.99976 6.42102L2.99976 21.145C2.99976 21.754 3.31372 22.303 3.84082 22.61ZM8.3418 3.5C5.79272 3.5 4.49976 4.48206 4.49976 6.42102L4.49976 21.145C4.49976 21.239 4.55371 21.29 4.59888 21.316C4.6438 21.344 4.71484 21.364 4.79688 21.318L11.1787 17.738C11.4067 17.611 11.6858 17.61 11.9148 17.739L18.2417 21.313C18.3247 21.361 18.3958 21.339 18.4407 21.312C18.4858 21.285 18.5388 21.234 18.5388 21.14L18.5388 6.604C18.5388 5.83704 18.5388 3.5 14.7007 3.5L8.3418 3.5Z" clip-rule="evenodd" fill="#212121" fill-opacity="1.000000" fill-rule="evenodd"/>
		</g>
		<path id="Fill 4" d="M15.13 10.22L7.82 10.22C7.4 10.22 7.07 9.89 7.07 9.47C7.07 9.06 7.4 8.72 7.82 8.72L15.13 8.72C15.55 8.72 15.88 9.06 15.88 9.47C15.88 9.89 15.55 10.22 15.13 10.22Z" fill="#212121" fill-opacity="1.000000" fill-rule="evenodd"/>
	</g>
</svg>
