<svg width="24.000000" height="24.000000" viewBox="0 0 24 24" fill="none" xmlns="http://www.w3.org/2000/svg" xmlns:xlink="http://www.w3.org/1999/xlink">
	<desc>
			Created with Pixso.
	</desc>
	<defs>
		<clipPath id="clip430_8405">
			<rect id="Iconly/Light-Outline/2 User" width="24.000000" height="24.000000" fill="white" fill-opacity="0"/>
		</clipPath>
	</defs>
	<rect id="Iconly/Light-Outline/2 User" width="24.000000" height="24.000000" fill="#FFFFFF" fill-opacity="0"/>
	<g clip-path="url(#clip430_8405)">
		<mask id="mask430_8408" mask-type="alpha" maskUnits="userSpaceOnUse" x="2.000000" y="13.957031" width="15.183838" height="7.099609">
			<path id="Clip 2" d="M2 13.95L17.18 13.95L17.18 21.05L2 21.05L2 13.95Z" fill="#000000" fill-opacity="1.000000" fill-rule="evenodd"/>
		</mask>
		<g mask="url(#mask430_8408)">
			<path id="Fill 1" d="M1.99976 17.519C1.99976 21.057 7.51587 21.057 9.5918 21.057C11.4697 21.057 17.1838 21.057 17.1838 17.499C17.1838 14.324 12.8508 13.957 9.5918 13.957C7.71387 13.957 1.99976 13.957 1.99976 17.519ZM3.49976 17.519C3.49976 15.8141 6.81274 15.457 9.5918 15.457C13.6338 15.457 15.6838 16.144 15.6838 17.499C15.6838 18.864 13.6338 19.557 9.5918 19.557C5.5498 19.557 3.49976 18.871 3.49976 17.519Z" clip-rule="evenodd" fill="#212121" fill-opacity="1.000000" fill-rule="evenodd"/>
		</g>
		<path id="Fill 4" d="M4.45581 7.13501C4.45581 9.96594 6.75977 12.27 9.5918 12.27L9.62573 12.27C10.9929 12.265 12.2778 11.728 13.2397 10.757C14.2039 9.78699 14.7329 8.49902 14.7268 7.13501C14.7268 4.30396 12.4229 2 9.5918 2C6.75977 2 4.45581 4.30396 4.45581 7.13501ZM9.5918 3.5C7.58691 3.5 5.95581 5.13098 5.95581 7.13501C5.95581 9.13904 7.58691 10.77 9.5918 10.77L9.6228 10.77C10.5869 10.766 11.4949 10.387 12.1758 9.69995C12.8579 9.01501 13.2307 8.104 13.2268 7.13794C13.2268 5.13098 11.5957 3.5 9.5918 3.5Z" clip-rule="evenodd" fill="#212121" fill-opacity="1.000000" fill-rule="evenodd"/>
		<path id="Fill 6" d="M16.48 11.13C16.11 11.13 15.79 10.86 15.74 10.48C15.68 10.07 15.96 9.69 16.37 9.63C17.62 9.46 18.56 8.38 18.57 7.11C18.57 5.86 17.67 4.8 16.43 4.6C16.02 4.53 15.75 4.15 15.81 3.74C15.88 3.33 16.27 3.05 16.67 3.12C18.64 3.44 20.07 5.12 20.07 7.11C20.06 9.12 18.56 10.84 16.58 11.12C16.55 11.12 16.51 11.13 16.48 11.13Z" fill="#212121" fill-opacity="1.000000" fill-rule="evenodd"/>
		<mask id="mask430_8417" mask-type="alpha" maskUnits="userSpaceOnUse" x="17.845215" y="13.483398" width="4.133789" height="4.977539">
			<path id="Clip 9" d="M17.84 13.48L21.97 13.48L21.97 18.46L17.84 18.46L17.84 13.48Z" fill="#000000" fill-opacity="1.000000" fill-rule="evenodd"/>
		</mask>
		<g mask="url(#mask430_8417)">
			<path id="Fill 8" d="M19.89 18.46C19.59 18.46 19.3 18.27 19.19 17.97C19.04 17.59 19.24 17.15 19.62 17C20.47 16.68 20.47 16.29 20.47 16.12C20.47 15.55 19.8 15.17 18.48 14.97C18.07 14.91 17.79 14.53 17.85 14.12C17.91 13.71 18.3 13.43 18.7 13.48C21.41 13.89 21.97 15.14 21.97 16.12C21.97 16.85 21.66 17.84 20.16 18.41C20.07 18.44 19.98 18.46 19.89 18.46Z" fill="#212121" fill-opacity="1.000000" fill-rule="evenodd"/>
		</g>
	</g>
</svg>
