<svg width="24.000000" height="24.000000" viewBox="0 0 24 24" fill="none" xmlns="http://www.w3.org/2000/svg" xmlns:xlink="http://www.w3.org/1999/xlink">
	<desc>
			Created with Pixso.
	</desc>
	<defs>
		<clipPath id="clip430_8480">
			<rect id="Iconly/Light-Outline/Discount" width="24.000000" height="24.000000" fill="white" fill-opacity="0"/>
		</clipPath>
	</defs>
	<rect id="Iconly/Light-Outline/Discount" width="24.000000" height="24.000000" fill="#FFFFFF" fill-opacity="0"/>
	<g clip-path="url(#clip430_8480)">
		<mask id="mask430_8483" mask-type="alpha" maskUnits="userSpaceOnUse" x="2.000244" y="2.000244" width="20.002686" height="20.000977">
			<path id="Clip 2" d="M2 2L22 2L22 22L2 22L2 2Z" fill="#000000" fill-opacity="1.000000" fill-rule="evenodd"/>
		</mask>
		<g mask="url(#mask430_8483)">
			<path id="Fill 1" d="M9.87793 21.1295C10.4651 21.7115 11.2319 22.0015 11.999 22.0015C12.7729 22.0015 13.5469 21.7056 14.134 21.1145L14.8521 20.3965C15.1331 20.1176 15.52 19.9575 15.916 19.9575L16.947 19.9575C18.6069 19.9575 19.958 18.6066 19.958 16.9465L19.958 15.9175C19.958 15.5155 20.114 15.1385 20.395 14.8555L21.1279 14.1245C21.6951 13.5535 22.0059 12.7965 22.0029 11.9915C22 11.1865 21.6841 10.4315 21.115 9.86646L20.397 9.14746C20.114 8.86255 19.958 8.48352 19.958 8.08252L19.958 7.05554C19.958 5.39453 18.6069 4.04346 16.946 4.04346L15.918 4.04346C15.5159 4.04346 15.1379 3.88745 14.855 3.60657L14.124 2.87549C12.9451 1.70349 11.0339 1.70947 9.86499 2.88647L9.1499 3.60352C8.86304 3.88647 8.48486 4.04346 8.08398 4.04346L7.05396 4.04346C5.39404 4.04456 4.04395 5.39551 4.04395 7.05554L4.04395 8.08057C4.04395 8.48157 3.88696 8.86047 3.60596 9.14355L2.87793 9.87354L2.85107 9.90051C1.70386 11.0806 1.71802 12.9725 2.88599 14.1345L3.60498 14.8525C3.88696 15.1365 4.04395 15.5135 4.04395 15.9155L4.04395 16.9465C4.04395 18.6066 5.39404 19.9575 7.05493 19.9575L8.08105 19.9575C8.48291 19.9585 8.86108 20.1145 9.14404 20.3955L9.854 21.1045C9.86206 21.1135 9.86987 21.1215 9.87793 21.1295ZM10.9451 20.0756C11.5349 20.6515 12.4849 20.6445 13.071 20.0555L13.793 19.3354C14.353 18.7765 15.127 18.4575 15.916 18.4575L16.946 18.4575C17.78 18.4575 18.458 17.7795 18.458 16.9465L18.458 15.9175C18.458 15.1165 18.7681 14.3635 19.334 13.7965L20.054 13.0756C20.3469 12.7815 20.5039 12.4005 20.5029 11.9965C20.502 11.5935 20.343 11.2145 20.0559 10.9285L19.335 10.2065C18.7681 9.6355 18.458 8.88354 18.458 8.08252L18.458 7.05554C18.458 6.22156 17.78 5.54346 16.946 5.54346L15.918 5.54346C15.1169 5.54346 14.364 5.23254 13.7969 4.66956L13.075 3.94653C12.4739 3.35156 11.5149 3.35449 10.928 3.94556L10.209 4.6665C9.63501 5.23352 8.88208 5.54346 8.08398 5.54346L7.05493 5.54346C6.22192 5.54456 5.54395 6.22253 5.54395 7.05554L5.54395 8.08057C5.54395 8.88147 5.23291 9.63452 4.66895 10.2025L3.95898 10.9135C3.9519 10.9215 3.94507 10.9275 3.93799 10.9344C3.35107 11.5255 3.354 12.4845 3.94507 13.0715L4.66699 13.7935C5.23291 14.3615 5.54395 15.1145 5.54395 15.9155L5.54395 16.9465C5.54395 17.7795 6.22095 18.4575 7.05493 18.4575L8.08203 18.4575C8.88403 18.4585 9.63696 18.7695 10.2039 19.3345L10.925 20.0535C10.9309 20.0605 10.938 20.0675 10.9451 20.0756Z" clip-rule="evenodd" fill="#212121" fill-opacity="1.000000" fill-rule="evenodd"/>
		</g>
		<path id="Fill 4" d="M9.43 15.32C9.23 15.32 9.04 15.24 8.9 15.1C8.6 14.8 8.6 14.33 8.9 14.04L14.04 8.9C14.33 8.6 14.8 8.6 15.1 8.9C15.39 9.19 15.39 9.66 15.1 9.96L9.96 15.1C9.81 15.24 9.62 15.32 9.43 15.32Z" fill="#212121" fill-opacity="1.000000" fill-rule="evenodd"/>
		<path id="Fill 6" d="M14.5 15.49C13.95 15.49 13.49 15.05 13.49 14.49C13.49 13.94 13.94 13.49 14.49 13.49L14.5 13.49C15.05 13.49 15.5 13.94 15.5 14.49C15.5 15.05 15.05 15.49 14.5 15.49Z" fill="#212121" fill-opacity="1.000000" fill-rule="evenodd"/>
		<path id="Fill 8" d="M9.5 10.49C8.95 10.49 8.49 10.05 8.49 9.49C8.49 8.94 8.94 8.49 9.49 8.49L9.5 8.49C10.05 8.49 10.5 8.94 10.5 9.49C10.5 10.05 10.05 10.49 9.5 10.49Z" fill="#212121" fill-opacity="1.000000" fill-rule="evenodd"/>
	</g>
</svg>
