<svg width="24.000000" height="24.000000" viewBox="0 0 24 24" fill="none" xmlns="http://www.w3.org/2000/svg" xmlns:xlink="http://www.w3.org/1999/xlink">
	<desc>
			Created with Pixso.
	</desc>
	<defs>
		<clipPath id="clip430_8930">
			<rect id="Iconly/Light-Outline/Arrow - Right" width="24.000000" height="24.000000" fill="white" fill-opacity="0"/>
		</clipPath>
	</defs>
	<rect id="Iconly/Light-Outline/Arrow - Right" width="24.000000" height="24.000000" fill="#FFFFFF" fill-opacity="0"/>
	<g clip-path="url(#clip430_8930)">
		<path id="Stroke 1" d="M4 11.72C4 11.34 4.28 11.03 4.64 10.98L4.75 10.97L19.75 10.97C20.16 10.97 20.5 11.31 20.5 11.72C20.5 12.1 20.21 12.41 19.85 12.46L19.75 12.47L4.75 12.47C4.33 12.47 4 12.13 4 11.72Z" fill="#212121" fill-opacity="1.000000" fill-rule="nonzero"/>
		<path id="Stroke 3" d="M13.17 6.23C12.87 5.94 12.87 5.46 13.16 5.17C13.43 4.9 13.85 4.88 14.14 5.09L14.22 5.16L20.27 11.19C20.54 11.46 20.57 11.87 20.35 12.17L20.27 12.25L14.22 18.28C13.93 18.57 13.46 18.57 13.16 18.27C12.9 18.01 12.87 17.59 13.09 17.3L13.17 17.21L18.68 11.72L13.17 6.23Z" fill="#212121" fill-opacity="1.000000" fill-rule="nonzero"/>
	</g>
</svg>
