<svg width="24.000000" height="24.000000" viewBox="0 0 24 24" fill="none" xmlns="http://www.w3.org/2000/svg" xmlns:xlink="http://www.w3.org/1999/xlink">
	<desc>
			Created with Pixso.
	</desc>
	<defs>
		<clipPath id="clip430_8219">
			<rect id="Iconly/Light-Outline/Graph" width="24.000000" height="24.000000" fill="white" fill-opacity="0"/>
		</clipPath>
	</defs>
	<rect id="Iconly/Light-Outline/Graph" width="24.000000" height="24.000000" fill="#FFFFFF" fill-opacity="0"/>
	<g clip-path="url(#clip430_8219)">
		<path id="Fill 1" d="M2.00049 13.4885C2.00049 18.3715 5.97339 22.3445 10.8574 22.3445C15.2595 22.3445 18.9395 19.2035 19.6074 14.8785C19.6855 14.3705 19.5376 13.8545 19.1995 13.4595C18.8354 13.0345 18.2986 12.7905 17.7285 12.7905C16.2996 12.7905 15.2085 12.8225 14.3564 12.8475C12.5234 12.8986 11.9795 12.9015 11.5825 12.6085C10.9775 12.1595 10.8296 10.9795 10.8296 6.59448C10.8296 6.05054 10.5806 5.54346 10.1475 5.20349C9.6936 4.84949 9.0896 4.72156 8.52759 4.85852C4.92847 5.74451 2.00049 9.61646 2.00049 13.4885ZM8.98242 6.30347C8.95044 6.30347 8.91846 6.3075 8.88647 6.31555C5.9165 7.04651 3.50049 10.2645 3.50049 13.4885C3.50049 17.5446 6.80054 20.8445 10.8574 20.8445C14.5144 20.8445 17.5706 18.2395 18.1245 14.6495L18.1248 14.6473C18.1292 14.6155 18.1406 14.5303 18.0605 14.4355C17.9824 14.3445 17.8584 14.2905 17.7285 14.2905C16.3174 14.2905 15.2405 14.3225 14.3994 14.3466C12.3635 14.4075 11.5215 14.4305 10.6895 13.8135C9.43555 12.8845 9.32959 11.2885 9.32959 6.59448Q9.32959 6.5448 9.31274 6.50171Q9.28687 6.43542 9.22144 6.38452C9.15454 6.33154 9.06958 6.30347 8.98242 6.30347Z" clip-rule="evenodd" fill="#212121" fill-opacity="1.000000" fill-rule="evenodd"/>
		<mask id="mask430_8225" mask-type="alpha" maskUnits="userSpaceOnUse" x="12.474121" y="1.000488" width="10.418945" height="10.289307">
			<path id="Clip 4" d="M12.47 1L22.89 1L22.89 11.28L12.47 11.28L12.47 1Z" fill="#000000" fill-opacity="1.000000" fill-rule="evenodd"/>
		</mask>
		<g mask="url(#mask430_8225)">
			<path id="Fill 3" d="M14.189 11.1987C14.8518 11.2367 16.0049 11.2898 17.3149 11.2898C18.7219 11.2898 20.3118 11.2278 21.6699 11.0227C22.366 10.9177 22.8809 10.3257 22.8928 9.6167C22.9248 7.79968 21.8088 5.49072 20.0508 3.73376C18.2468 1.93274 16.042 0.940796 13.9048 1.00269C13.1589 1.01575 12.5488 1.6167 12.5159 2.3717C12.3958 4.96973 12.5649 8.32874 12.6428 9.65076C12.6909 10.4847 13.355 11.1498 14.189 11.1987ZM14.011 2.50171C13.9009 5.02075 14.064 8.27478 14.1399 9.56372C14.1438 9.64075 14.2 9.69678 14.2759 9.70068C15.304 9.75977 18.8459 9.92371 21.3928 9.54871C21.3989 8.14478 20.438 6.24072 18.991 4.7948C17.5068 3.31274 15.751 2.50171 14.033 2.50171L14.011 2.50171Z" clip-rule="evenodd" fill="#212121" fill-opacity="1.000000" fill-rule="evenodd"/>
		</g>
	</g>
</svg>
