<svg width="24.000000" height="24.000000" viewBox="0 0 24 24" fill="none" xmlns="http://www.w3.org/2000/svg" xmlns:xlink="http://www.w3.org/1999/xlink">
	<desc>
			Created with Pixso.
	</desc>
	<defs>
		<clipPath id="clip430_8693">
			<rect id="Iconly/Light-Outline/Lock" width="24.000000" height="24.000000" fill="white" fill-opacity="0"/>
		</clipPath>
	</defs>
	<rect id="Iconly/Light-Outline/Lock" width="24.000000" height="24.000000" fill="#FFFFFF" fill-opacity="0"/>
	<g clip-path="url(#clip430_8693)">
		<path id="Fill 1" d="M16.92 10.2C16.5 10.2 16.17 9.86 16.17 9.44L16.17 7.3C16.17 5.2 14.46 3.5 12.37 3.5L12.35 3.5C11.34 3.5 10.39 3.89 9.67 4.6C8.95 5.31 8.55 6.27 8.55 7.28L8.55 9.44C8.55 9.86 8.21 10.2 7.8 10.2C7.38 10.2 7.05 9.86 7.05 9.44L7.05 7.3C7.05 5.86 7.61 4.53 8.61 3.53C9.62 2.54 10.95 1.96 12.37 2C15.29 2 17.67 4.38 17.67 7.3L17.67 9.44C17.67 9.86 17.33 10.2 16.92 10.2Z" fill="#212121" fill-opacity="1.000000" fill-rule="evenodd"/>
		<path id="Fill 3" d="M8.54199 22.0018L16.1831 22.0018C18.688 22.0018 20.7251 19.9648 20.7251 17.4598L20.7251 13.1708C20.7251 10.6658 18.688 8.62878 16.1831 8.62878L8.54199 8.62878C6.03711 8.62878 4 10.6658 4 13.1708L4 17.4598C4 19.9648 6.03711 22.0018 8.54199 22.0018ZM5.5 13.1708C5.5 11.4928 6.86401 10.1288 8.54199 10.1288L16.1831 10.1288C17.8601 10.1288 19.2251 11.4928 19.2251 13.1708L19.2251 17.4598C19.2251 19.1378 17.8601 20.5018 16.1831 20.5018L8.54199 20.5018C6.86401 20.5018 5.5 19.1378 5.5 17.4598L5.5 13.1708Z" clip-rule="evenodd" fill="#212121" fill-opacity="1.000000" fill-rule="evenodd"/>
		<path id="Fill 5" d="M12.36 17.17C11.94 17.17 11.61 16.83 11.61 16.42L11.61 14.2C11.61 13.79 11.94 13.45 12.36 13.45C12.77 13.45 13.11 13.79 13.11 14.2L13.11 16.42C13.11 16.83 12.77 17.17 12.36 17.17Z" fill="#212121" fill-opacity="1.000000" fill-rule="evenodd"/>
	</g>
</svg>
