<svg width="24.000000" height="24.000000" viewBox="0 0 24 24" fill="none" xmlns="http://www.w3.org/2000/svg" xmlns:xlink="http://www.w3.org/1999/xlink">
	<desc>
			Created with Pixso.
	</desc>
	<defs>
		<clipPath id="clip430_8490">
			<rect id="Iconly/Light-Outline/Add User" width="24.000000" height="24.000000" fill="white" fill-opacity="0"/>
		</clipPath>
	</defs>
	<rect id="Iconly/Light-Outline/Add User" width="24.000000" height="24.000000" fill="#FFFFFF" fill-opacity="0"/>
	<g clip-path="url(#clip430_8490)">
		<mask id="mask430_8493" mask-type="alpha" maskUnits="userSpaceOnUse" x="2.000000" y="14.456055" width="15.753906" height="7.338867">
			<path id="Clip 2" d="M2 14.45L17.75 14.45L17.75 21.79L2 21.79L2 14.45Z" fill="#000000" fill-opacity="1.000000" fill-rule="evenodd"/>
		</mask>
		<g mask="url(#mask430_8493)">
			<path id="Fill 1" d="M2 18.1151C2 21.795 7.92896 21.795 9.87695 21.795C13.259 21.795 17.7539 21.416 17.7539 18.1371C17.7539 14.4561 11.825 14.4561 9.87695 14.4561C6.49512 14.4561 2 14.8351 2 18.1151ZM3.5 18.1151C3.5 16.6831 5.646 15.9561 9.87695 15.9561C14.1079 15.9561 16.2539 16.6891 16.2539 18.1371C16.2539 19.5681 14.1079 20.295 9.87695 20.295C5.646 20.295 3.5 19.561 3.5 18.1151Z" clip-rule="evenodd" fill="#212121" fill-opacity="1.000000" fill-rule="evenodd"/>
		</g>
		<path id="Fill 4" d="M9.84619 12.636L9.8772 12.636C12.8101 12.636 15.1951 10.25 15.1951 7.31799C15.1951 4.38599 12.8101 2 9.8772 2C6.94507 2 4.56006 4.38599 4.56006 7.31494C4.55518 8.73096 5.10205 10.0649 6.1001 11.0699C7.09717 12.074 8.427 12.631 9.84619 12.636ZM9.8772 3.5C7.77319 3.5 6.06006 5.21301 6.06006 7.31799C6.05615 8.33704 6.448 9.29199 7.16309 10.0129C7.87915 10.733 8.83301 11.132 9.84912 11.136L9.8772 11.886L9.8772 11.136C11.9822 11.136 13.6951 9.42297 13.6951 7.31799C13.6951 5.21301 11.9822 3.5 9.8772 3.5Z" clip-rule="evenodd" fill="#212121" fill-opacity="1.000000" fill-rule="evenodd"/>
		<path id="Fill 6" d="M19.2 13.42C18.79 13.42 18.45 13.09 18.45 12.67L18.45 8.66C18.45 8.25 18.79 7.91 19.2 7.91C19.61 7.91 19.95 8.25 19.95 8.66L19.95 12.67C19.95 13.09 19.61 13.42 19.2 13.42Z" fill="#212121" fill-opacity="1.000000" fill-rule="evenodd"/>
		<path id="Fill 8" d="M21.25 11.42L17.15 11.42C16.74 11.42 16.4 11.08 16.4 10.67C16.4 10.25 16.74 9.92 17.15 9.92L21.25 9.92C21.66 9.92 22 10.25 22 10.67C22 11.08 21.66 11.42 21.25 11.42Z" fill="#212121" fill-opacity="1.000000" fill-rule="evenodd"/>
	</g>
</svg>
