<svg width="24.000000" height="24.000000" viewBox="0 0 24 24" fill="none" xmlns="http://www.w3.org/2000/svg" xmlns:xlink="http://www.w3.org/1999/xlink">
	<desc>
			Created with Pixso.
	</desc>
	<defs>
		<clipPath id="clip430_8265">
			<rect id="Iconly/Light-Outline/Chat" width="24.000000" height="24.000000" fill="white" fill-opacity="0"/>
		</clipPath>
	</defs>
	<rect id="Iconly/Light-Outline/Chat" width="24.000000" height="24.000000" fill="#FFFFFF" fill-opacity="0"/>
	<g clip-path="url(#clip430_8265)">
		<mask id="mask430_8268" mask-type="alpha" maskUnits="userSpaceOnUse" x="1.000000" y="1.000244" width="21.492920" height="21.493774">
			<path id="Clip 2" d="M1 1L22.49 1L22.49 22.49L1 22.49L1 1Z" fill="#000000" fill-opacity="1.000000" fill-rule="evenodd"/>
		</mask>
		<g mask="url(#mask430_8268)">
			<path id="Fill 1" d="M7.21948 21.5052C8.65845 22.1713 10.1965 22.4943 11.7244 22.4943C14.5273 22.4943 17.2944 21.4062 19.3494 19.3502C23.5415 15.1582 23.5415 8.33826 19.3494 4.14624C17.3215 2.11719 14.6213 1.00024 11.7485 1.00024C8.87549 1.00024 6.17651 2.11829 4.14844 4.14722C0.971436 7.32227 0.105469 12.1973 1.97852 16.2422C2.18237 16.7493 2.31543 17.1012 2.31543 17.3772C2.31543 17.7133 2.16455 18.1572 2.01733 18.5873C1.71948 19.4602 1.34937 20.5453 2.15137 21.3483C2.95605 22.1498 4.04346 21.7766 4.91699 21.4767L4.91846 21.4762C5.34448 21.3292 5.7854 21.1772 6.11353 21.1753C6.39844 21.1753 6.79541 21.3352 7.21948 21.5052ZM6.1084 19.6753C6.68848 19.6753 7.23535 19.8953 7.81445 20.1283C11.3613 21.7682 15.5564 21.0222 18.2896 18.2903C21.8955 14.6823 21.8955 8.81323 18.2896 5.20728C16.5435 3.4613 14.2214 2.50024 11.7495 2.50024C9.27637 2.50024 6.95337 3.46228 5.2085 5.20825C2.47437 7.94019 1.73047 12.1353 3.35547 15.6482C3.58936 16.2273 3.81543 16.7913 3.81543 17.3772C3.81543 17.9623 3.6145 18.5513 3.4375 19.0713L3.43604 19.0754C3.29004 19.5035 3.0708 20.1458 3.2124 20.2872C3.34839 20.4282 3.97412 20.2136 4.40283 20.0667L4.43042 20.0573C4.94556 19.8812 5.52954 19.6792 6.1084 19.6753Z" clip-rule="evenodd" fill="#212121" fill-opacity="1.000000" fill-rule="evenodd"/>
		</g>
		<path id="Fill 4" d="M15.69 13.16C15.14 13.16 14.69 12.71 14.69 12.16C14.69 11.61 15.13 11.16 15.68 11.16L15.69 11.16C16.24 11.16 16.69 11.61 16.69 12.16C16.69 12.71 16.24 13.16 15.69 13.16Z" fill="#212121" fill-opacity="1.000000" fill-rule="evenodd"/>
		<path id="Fill 6" d="M11.68 13.16C11.13 13.16 10.68 12.71 10.68 12.16C10.68 11.61 11.12 11.16 11.67 11.16L11.68 11.16C12.23 11.16 12.68 11.61 12.68 12.16C12.68 12.71 12.23 13.16 11.68 13.16Z" fill="#212121" fill-opacity="1.000000" fill-rule="evenodd"/>
		<path id="Fill 8" d="M7.67 13.16C7.12 13.16 6.67 12.71 6.67 12.16C6.67 11.61 7.11 11.16 7.66 11.16L7.67 11.16C8.23 11.16 8.67 11.61 8.67 12.16C8.67 12.71 8.23 13.16 7.67 13.16Z" fill="#212121" fill-opacity="1.000000" fill-rule="evenodd"/>
	</g>
</svg>
