<svg width="24.000000" height="24.000000" viewBox="0 0 24 24" fill="none" xmlns="http://www.w3.org/2000/svg" xmlns:xlink="http://www.w3.org/1999/xlink">
	<desc>
			Created with Pixso.
	</desc>
	<defs>
		<clipPath id="clip430_8605">
			<rect id="Iconly/Light-Outline/Swap" width="24.000000" height="24.000000" fill="white" fill-opacity="0"/>
		</clipPath>
	</defs>
	<rect id="Iconly/Light-Outline/Swap" width="24.000000" height="24.000000" fill="#FFFFFF" fill-opacity="0"/>
	<g clip-path="url(#clip430_8605)">
		<path id="Stroke 1" d="M16.83 5.79C17.21 5.79 17.53 6.07 17.58 6.44L17.58 6.54L17.58 20.16C17.58 20.57 17.25 20.91 16.83 20.91C16.45 20.91 16.14 20.63 16.09 20.26L16.08 20.16L16.08 6.54C16.08 6.13 16.42 5.79 16.83 5.79Z" fill="#212121" fill-opacity="1.000000" fill-rule="nonzero"/>
		<path id="Stroke 3" d="M20.38 15.53C20.67 15.24 21.15 15.24 21.44 15.53C21.71 15.8 21.73 16.21 21.52 16.51L21.44 16.59L17.37 20.69C17.1 20.96 16.68 20.98 16.39 20.76L16.3 20.69L12.23 16.59C11.93 16.3 11.93 15.82 12.23 15.53C12.49 15.27 12.91 15.24 13.2 15.46L13.29 15.53L16.83 19.1L20.38 15.53Z" fill="#212121" fill-opacity="1.000000" fill-rule="nonzero"/>
		<path id="Stroke 5" d="M6.91 3.08C7.29 3.08 7.6 3.36 7.65 3.73L7.66 3.83L7.66 17.45C7.66 17.86 7.32 18.2 6.91 18.2C6.53 18.2 6.21 17.91 6.16 17.55L6.16 17.45L6.16 3.83C6.16 3.41 6.49 3.08 6.91 3.08Z" fill="#212121" fill-opacity="1.000000" fill-rule="nonzero"/>
		<path id="Stroke 7" d="M6.37 3.3C6.64 3.03 7.06 3.01 7.35 3.23L7.44 3.3L11.52 7.39C11.81 7.69 11.81 8.16 11.51 8.46C11.25 8.72 10.83 8.74 10.54 8.53L10.45 8.45L6.91 4.89L3.36 8.45C3.09 8.72 2.68 8.75 2.38 8.53L2.3 8.46C2.03 8.19 2.01 7.77 2.22 7.48L2.3 7.39L6.37 3.3Z" fill="#212121" fill-opacity="1.000000" fill-rule="nonzero"/>
	</g>
</svg>
