<svg width="24.000000" height="24.000000" viewBox="0 0 24 24" fill="none" xmlns="http://www.w3.org/2000/svg" xmlns:xlink="http://www.w3.org/1999/xlink">
	<desc>
			Created with Pixso.
	</desc>
	<defs>
		<clipPath id="clip430_8251">
			<rect id="Iconly/Light-Outline/Home" width="24.000000" height="24.000000" fill="white" fill-opacity="0"/>
		</clipPath>
	</defs>
	<rect id="Iconly/Light-Outline/Home" width="24.000000" height="24.000000" fill="#FFFFFF" fill-opacity="0"/>
	<g clip-path="url(#clip430_8251)">
		<mask id="mask430_8253" mask-type="alpha" maskUnits="userSpaceOnUse" x="2.000000" y="1.000244" width="20.499756" height="21.505005">
			<path id="Clip 2" d="M2 1L22.49 1L22.49 22.5L2 22.5L2 1Z" fill="#000000" fill-opacity="1.000000" fill-rule="evenodd"/>
		</mask>
		<g mask="url(#mask430_8253)">
			<path id="Fill 1" d="M16.3528 22.5052L18.2769 22.5052C20.6057 22.5052 22.4998 20.6262 22.4998 18.3173L22.4998 9.58228C22.4868 8.60022 22.0288 7.69226 21.2559 7.10327L14.6738 1.85327C13.2378 0.71521 11.2327 0.71521 9.7937 1.85522L3.25879 7.10022C2.46777 7.69922 2.00977 8.60925 1.99976 9.60327L1.99976 18.3173C1.99976 20.6262 3.8938 22.5052 6.22266 22.5052L8.14673 22.5052C9.17188 22.5052 10.0178 21.7312 10.1257 20.7412C10.1467 20.6732 10.1567 20.6012 10.1567 20.5262L10.1567 17.4602C10.1567 17.0942 10.4617 16.7932 10.8308 16.7913L13.7168 16.7913C14.0938 16.7913 14.4006 17.0913 14.4006 17.4602L14.4006 20.5363C14.4006 21.6143 15.2507 22.4792 16.3528 22.5052ZM13.7168 15.2913C14.9207 15.2913 15.9006 16.2643 15.9006 17.4602L15.9006 20.5363C15.9006 20.7932 16.1067 20.9993 16.3708 21.0052L18.2769 21.0052C19.7788 21.0052 20.9998 19.7992 20.9998 18.3173L20.9998 9.59326C20.9927 9.08325 20.7498 8.60327 20.3328 8.2843L13.7397 3.02625C12.8547 2.3252 11.6167 2.3252 10.7288 3.0282L4.18066 8.28223C3.7478 8.61121 3.50464 9.09131 3.49976 9.61023L3.49976 18.3173C3.49976 19.7992 4.7207 21.0052 6.22266 21.0052L8.14673 21.0052C8.41772 21.0052 8.6377 20.7903 8.6377 20.5262C8.6377 20.4683 8.64478 20.4103 8.65674 20.3552L8.65674 17.4602C8.65674 16.2712 9.63086 15.2992 10.8257 15.2913L13.7168 15.2913Z" clip-rule="evenodd" fill="#212121" fill-opacity="1.000000" fill-rule="evenodd"/>
		</g>
	</g>
</svg>
