<svg width="24.000000" height="24.000000" viewBox="0 0 24 24" fill="none" xmlns="http://www.w3.org/2000/svg" xmlns:xlink="http://www.w3.org/1999/xlink">
	<desc>
			Created with Pixso.
	</desc>
	<defs>
		<clipPath id="clip430_8209">
			<rect id="Iconly/Light-Outline/Wallet" width="24.000000" height="24.000000" fill="white" fill-opacity="0"/>
		</clipPath>
	</defs>
	<rect id="Iconly/Light-Outline/Wallet" width="24.000000" height="24.000000" fill="#FFFFFF" fill-opacity="0"/>
	<g clip-path="url(#clip430_8209)">
		<path id="Fill 1" d="M21.88 15.89L17.84 15.89C15.94 15.89 14.39 14.35 14.39 12.45C14.39 10.55 15.94 9.01 17.84 9.01L21.88 9.01C22.3 9.01 22.63 9.34 22.63 9.76C22.63 10.17 22.3 10.51 21.88 10.51L17.84 10.51C16.76 10.51 15.89 11.38 15.89 12.45C15.89 13.52 16.77 14.39 17.84 14.39L21.88 14.39C22.3 14.39 22.63 14.73 22.63 15.14C22.63 15.55 22.3 15.89 21.88 15.89Z" fill="#212121" fill-opacity="1.000000" fill-rule="evenodd"/>
		<path id="Fill 3" d="M18.29 13.14L17.98 13.14C17.57 13.14 17.23 12.8 17.23 12.39C17.23 11.97 17.57 11.64 17.98 11.64L18.29 11.64C18.71 11.64 19.04 11.97 19.04 12.39C19.04 12.8 18.71 13.14 18.29 13.14Z" fill="#212121" fill-opacity="1.000000" fill-rule="evenodd"/>
		<mask id="mask430_8214" mask-type="alpha" maskUnits="userSpaceOnUse" x="2.000000" y="3.000000" width="20.638672" height="19.172852">
			<path id="Clip 6" d="M2 3L22.63 3L22.63 22.17L2 22.17L2 3Z" fill="#000000" fill-opacity="1.000000" fill-rule="evenodd"/>
		</mask>
		<g mask="url(#mask430_8214)">
			<path id="Fill 5" d="M7.99756 22.173L16.6416 22.173C19.9485 22.173 22.6384 19.4821 22.6384 16.175L22.6384 8.99805C22.6384 5.68994 19.9485 3 16.6416 3L7.99756 3C4.69043 3 1.99951 5.68994 1.99951 8.99805L1.99951 16.175C1.99951 19.4821 4.69043 22.173 7.99756 22.173ZM3.49951 8.99805C3.49951 6.51794 5.51758 4.5 7.99756 4.5L16.6416 4.5C19.1216 4.5 21.1384 6.51794 21.1384 8.99805L21.1384 16.175C21.1384 18.655 19.1216 20.673 16.6416 20.673L7.99756 20.673C5.51758 20.673 3.49951 18.655 3.49951 16.175L3.49951 8.99805Z" clip-rule="evenodd" fill="#212121" fill-opacity="1.000000" fill-rule="evenodd"/>
		</g>
		<path id="Fill 8" d="M12.68 9.03L7.28 9.03C6.87 9.03 6.53 8.7 6.53 8.28C6.53 7.87 6.87 7.53 7.28 7.53L12.68 7.53C13.09 7.53 13.43 7.87 13.43 8.28C13.43 8.7 13.09 9.03 12.68 9.03Z" fill="#212121" fill-opacity="1.000000" fill-rule="evenodd"/>
	</g>
</svg>
