<svg width="24.000000" height="24.000000" viewBox="0 0 24 24" fill="none" xmlns="http://www.w3.org/2000/svg" xmlns:xlink="http://www.w3.org/1999/xlink">
	<desc>
			Created with Pixso.
	</desc>
	<defs>
		<clipPath id="clip430_8585">
			<rect id="Iconly/Light-Outline/Login" width="24.000000" height="24.000000" fill="white" fill-opacity="0"/>
		</clipPath>
	</defs>
	<rect id="Iconly/Light-Outline/Login" width="24.000000" height="24.000000" fill="#FFFFFF" fill-opacity="0"/>
	<g clip-path="url(#clip430_8585)">
		<path id="Fill 1" d="M15.79 12.75L3.75 12.75C3.33 12.75 3 12.41 3 12C3 11.58 3.33 11.25 3.75 11.25L15.79 11.25C16.2 11.25 16.54 11.58 16.54 12C16.54 12.41 16.2 12.75 15.79 12.75Z" fill="#212121" fill-opacity="1.000000" fill-rule="evenodd"/>
		<path id="Fill 3" d="M12.86 15.66C12.67 15.66 12.47 15.59 12.33 15.44C12.03 15.15 12.04 14.67 12.33 14.38L14.72 12L12.33 9.61C12.04 9.32 12.03 8.84 12.33 8.55C12.62 8.26 13.09 8.26 13.39 8.55L16.32 11.46C16.46 11.6 16.54 11.8 16.54 12C16.54 12.19 16.46 12.39 16.32 12.53L13.39 15.44C13.24 15.59 13.05 15.66 12.86 15.66Z" fill="#212121" fill-opacity="1.000000" fill-rule="evenodd"/>
		<path id="Fill 5" d="M17.04 22L12.15 22C9.71 22 7.73 20.01 7.73 17.57L7.73 16.63C7.73 16.21 8.06 15.88 8.48 15.88C8.89 15.88 9.23 16.21 9.23 16.63L9.23 17.57C9.23 19.18 10.54 20.5 12.15 20.5L17.04 20.5C18.66 20.5 19.97 19.18 19.97 17.56L19.97 6.42C19.97 4.81 18.66 3.5 17.05 3.5L12.16 3.5C10.54 3.5 9.23 4.81 9.23 6.43L9.23 7.36C9.23 7.78 8.89 8.11 8.48 8.11C8.06 8.11 7.73 7.78 7.73 7.36L7.73 6.43C7.73 3.98 9.72 2 12.16 2L17.05 2C19.49 2 21.47 3.98 21.47 6.42L21.47 17.56C21.47 20.01 19.48 22 17.04 22Z" fill="#212121" fill-opacity="1.000000" fill-rule="evenodd"/>
	</g>
</svg>
