<svg width="24.000000" height="24.000000" viewBox="0 0 24 24" fill="none" xmlns="http://www.w3.org/2000/svg" xmlns:xlink="http://www.w3.org/1999/xlink">
	<desc>
			Created with Pixso.
	</desc>
	<defs>
		<clipPath id="clip430_8303">
			<rect id="Iconly/Light-Outline/Ticket" width="24.000000" height="24.000000" fill="white" fill-opacity="0"/>
		</clipPath>
	</defs>
	<rect id="Iconly/Light-Outline/Ticket" width="24.000000" height="24.000000" fill="#FFFFFF" fill-opacity="0"/>
	<g clip-path="url(#clip430_8303)">
		<path id="Fill 1" d="M13.59 8.17C13.18 8.17 12.84 7.83 12.84 7.42L12.84 4.99C12.84 4.58 13.18 4.24 13.59 4.24C14.01 4.24 14.34 4.58 14.34 4.99L14.34 7.42C14.34 7.83 14.01 8.17 13.59 8.17Z" fill="#212121" fill-opacity="1.000000" fill-rule="evenodd"/>
		<path id="Fill 3" d="M13.59 21.28C13.18 21.28 12.84 20.94 12.84 20.53L12.84 18.51C12.84 18.09 13.18 17.76 13.59 17.76C14.01 17.76 14.34 18.09 14.34 18.51L14.34 20.53C14.34 20.94 14.01 21.28 13.59 21.28Z" fill="#212121" fill-opacity="1.000000" fill-rule="evenodd"/>
		<path id="Fill 5" d="M13.59 15.82C13.18 15.82 12.84 15.48 12.84 15.07L12.84 10.25C12.84 9.84 13.18 9.5 13.59 9.5C14.01 9.5 14.34 9.84 14.34 10.25L14.34 15.07C14.34 15.48 14.01 15.82 13.59 15.82Z" fill="#212121" fill-opacity="1.000000" fill-rule="evenodd"/>
		<mask id="mask430_8309" mask-type="alpha" maskUnits="userSpaceOnUse" x="1.000000" y="4.000000" width="21.500000" height="17.499756">
			<path id="Clip 8" d="M1 4L22.5 4L22.5 21.49L1 21.49L1 4Z" fill="#000000" fill-opacity="1.000000" fill-rule="evenodd"/>
		</mask>
		<g mask="url(#mask430_8309)">
			<path id="Fill 7" d="M5.0481 21.4998L18.4519 21.4998C20.6841 21.4998 22.5 19.7018 22.5 17.4928L22.5 14.9008C22.5 14.4868 22.1641 14.1508 21.75 14.1508C20.9629 14.1508 20.323 13.5227 20.323 12.7507C20.323 11.9788 20.9629 11.3507 21.75 11.3507C21.949 11.3507 22.1399 11.2717 22.28 11.1307C22.4209 10.9907 22.5 10.7987 22.5 10.6007L22.499 8.00671C22.499 5.79773 20.6831 3.99976 18.4509 3.99976L5.04907 3.99976C2.81689 3.99976 1.00098 5.79773 1.00098 8.00671L1 10.6848C1 10.8828 1.0791 11.0747 1.21997 11.2147C1.36011 11.3557 1.55103 11.4348 1.75 11.4348C2.56299 11.4348 3.177 12.0007 3.177 12.7507C3.177 13.5227 2.53711 14.1508 1.75 14.1508C1.33594 14.1508 1 14.4868 1 14.9008L1 17.4928C1 19.7018 2.81592 21.4998 5.0481 21.4998ZM2.5 15.5537L2.5 17.4928C2.5 18.8748 3.64307 19.9998 5.0481 19.9998L18.4519 19.9998C19.8569 19.9998 21 18.8748 21 17.4928L21 15.5537C19.749 15.2247 18.823 14.0928 18.823 12.7507C18.823 11.4077 19.748 10.2767 21 9.94775L20.999 8.00671C20.999 6.62476 19.856 5.49976 18.4509 5.49976L5.04907 5.49976C3.64404 5.49976 2.50098 6.62476 2.50098 8.00671L2.5 10.0248C3.76709 10.3358 4.677 11.4218 4.677 12.7507C4.677 14.0928 3.75098 15.2247 2.5 15.5537Z" clip-rule="evenodd" fill="#212121" fill-opacity="1.000000" fill-rule="evenodd"/>
		</g>
	</g>
</svg>
