<svg width="24.000000" height="24.000000" viewBox="0 0 24 24" fill="none" xmlns="http://www.w3.org/2000/svg" xmlns:xlink="http://www.w3.org/1999/xlink">
	<desc>
			Created with Pixso.
	</desc>
	<defs>
		<clipPath id="clip430_8735">
			<rect id="Iconly/Light-Outline/Scan" width="24.000000" height="24.000000" fill="white" fill-opacity="0"/>
		</clipPath>
	</defs>
	<rect id="Iconly/Light-Outline/Scan" width="24.000000" height="24.000000" fill="#FFFFFF" fill-opacity="0"/>
	<g clip-path="url(#clip430_8735)">
		<path id="Fill 1" d="M22.75 13.95L1.75 13.95C1.33 13.95 1 13.61 1 13.2C1 12.79 1.33 12.45 1.75 12.45L22.75 12.45C23.16 12.45 23.5 12.79 23.5 13.2C23.5 13.61 23.16 13.95 22.75 13.95Z" fill="#212121" fill-opacity="1.000000" fill-rule="evenodd"/>
		<path id="Fill 3" d="M20.87 9.74C20.46 9.74 20.12 9.4 20.12 8.99L20.12 7.48C20.12 5.83 18.79 4.5 17.14 4.5L15.94 4.5C15.52 4.5 15.19 4.16 15.19 3.75C15.19 3.33 15.52 3 15.94 3L17.14 3C19.61 3 21.62 5.01 21.62 7.48L21.62 8.99C21.62 9.4 21.29 9.74 20.87 9.74Z" fill="#212121" fill-opacity="1.000000" fill-rule="evenodd"/>
		<path id="Fill 5" d="M3.62 9.74C3.2 9.74 2.87 9.4 2.87 8.99L2.87 7.48C2.87 5.01 4.88 3 7.35 3L8.58 3C9 3 9.33 3.33 9.33 3.75C9.33 4.16 9 4.5 8.58 4.5L7.35 4.5C5.7 4.5 4.37 5.83 4.37 7.48L4.37 8.99C4.37 9.4 4.03 9.74 3.62 9.74Z" fill="#212121" fill-opacity="1.000000" fill-rule="evenodd"/>
		<path id="Fill 7" d="M17.14 21.76L15.94 21.76C15.52 21.76 15.19 21.42 15.19 21.01C15.19 20.59 15.52 20.26 15.94 20.26L17.14 20.26C18.79 20.26 20.12 18.92 20.12 17.27L20.12 13.2C20.12 12.78 20.46 12.45 20.87 12.45C21.29 12.45 21.62 12.78 21.62 13.2L21.62 17.27C21.62 19.74 19.61 21.76 17.14 21.76Z" fill="#212121" fill-opacity="1.000000" fill-rule="evenodd"/>
		<path id="Fill 9" d="M8.58 21.76L7.35 21.76C4.88 21.76 2.86 19.74 2.86 17.27L2.86 13.2C2.86 12.78 3.2 12.45 3.61 12.45C4.03 12.45 4.36 12.78 4.36 13.2L4.36 17.27C4.36 18.92 5.7 20.26 7.35 20.26L8.58 20.26C9 20.26 9.33 20.59 9.33 21.01C9.33 21.42 9 21.76 8.58 21.76Z" fill="#212121" fill-opacity="1.000000" fill-rule="evenodd"/>
	</g>
</svg>
