<svg width="24.000000" height="24.000000" viewBox="0 0 24 24" fill="none" xmlns="http://www.w3.org/2000/svg" xmlns:xlink="http://www.w3.org/1999/xlink">
	<desc>
			Created with Pixso.
	</desc>
	<defs>
		<clipPath id="clip430_8430">
			<rect id="Iconly/Light-Outline/Paper Plus" width="24.000000" height="24.000000" fill="white" fill-opacity="0"/>
		</clipPath>
	</defs>
	<rect id="Iconly/Light-Outline/Paper Plus" width="24.000000" height="24.000000" fill="#FFFFFF" fill-opacity="0"/>
	<g clip-path="url(#clip430_8430)">
		<path id="Fill 1" d="M3.00098 17.3267C2.95898 19.7867 4.927 21.8237 7.3999 21.8667L15.5808 21.8657C18.0498 21.8397 20.0559 19.8087 20.052 17.3397L20.052 8.03967C20.052 7.84668 19.9768 7.65967 19.844 7.52075L14.7778 2.2417C14.636 2.09473 14.4409 2.01172 14.2368 2.01172L7.56982 2.01172C5.10693 2.01172 3.05786 4.00977 3.00098 6.49072L3.00098 17.3267ZM7.573 3.51172C5.91479 3.51172 4.53979 4.85376 4.50098 6.50867L4.50098 17.3397C4.47192 18.9867 5.77881 20.3387 7.41382 20.3667L7.56079 20.3657L15.573 20.3657C17.2148 20.3478 18.554 18.9907 18.552 17.3407L18.552 8.34167L13.918 3.51172L7.573 3.51172Z" clip-rule="evenodd" fill="#212121" fill-opacity="1.000000" fill-rule="evenodd"/>
		<path id="Fill 3" d="M19.29 8.98L16.54 8.98C14.71 8.97 13.22 7.48 13.22 5.65L13.22 2.75C13.22 2.33 13.56 2 13.97 2C14.38 2 14.72 2.33 14.72 2.75L14.72 5.65C14.72 6.66 15.54 7.48 16.54 7.48L19.29 7.48C19.71 7.48 20.04 7.82 20.04 8.23C20.04 8.64 19.71 8.98 19.29 8.98Z" fill="#212121" fill-opacity="1.000000" fill-rule="evenodd"/>
		<path id="Fill 5" d="M13.79 13.66L8.89 13.66C8.48 13.66 8.14 13.32 8.14 12.91C8.14 12.5 8.48 12.16 8.89 12.16L13.79 12.16C14.2 12.16 14.54 12.5 14.54 12.91C14.54 13.32 14.2 13.66 13.79 13.66Z" fill="#212121" fill-opacity="1.000000" fill-rule="evenodd"/>
		<path id="Fill 7" d="M11.34 16.11C10.93 16.11 10.59 15.77 10.59 15.36L10.59 10.46C10.59 10.05 10.93 9.71 11.34 9.71C11.75 9.71 12.09 10.05 12.09 10.46L12.09 15.36C12.09 15.77 11.75 16.11 11.34 16.11Z" fill="#212121" fill-opacity="1.000000" fill-rule="evenodd"/>
	</g>
</svg>
