<svg width="24.000000" height="24.000000" viewBox="0 0 24 24" fill="none" xmlns="http://www.w3.org/2000/svg" xmlns:xlink="http://www.w3.org/1999/xlink">
	<desc>
			Created with Pixso.
	</desc>
	<defs>
		<clipPath id="clip430_8706">
			<rect id="Iconly/Light-Outline/Upload" width="24.000000" height="24.000000" fill="white" fill-opacity="0"/>
		</clipPath>
	</defs>
	<rect id="Iconly/Light-Outline/Upload" width="24.000000" height="24.000000" fill="#FFFFFF" fill-opacity="0"/>
	<g clip-path="url(#clip430_8706)">
		<mask id="mask430_8709" mask-type="alpha" maskUnits="userSpaceOnUse" x="2.000488" y="8.794067" width="19.999512" height="13.744019">
			<path id="Clip 2" d="M2 8.79L22 8.79L22 22.53L2 22.53L2 8.79Z" fill="#000000" fill-opacity="1.000000" fill-rule="evenodd"/>
		</mask>
		<g mask="url(#mask430_8709)">
			<path id="Fill 1" d="M17.56 22.53L6.43 22.53C3.99 22.53 2 20.54 2 18.1L2 13.22C2 10.78 3.99 8.79 6.43 8.79L7.36 8.79C7.78 8.79 8.11 9.13 8.11 9.54C8.11 9.95 7.78 10.29 7.36 10.29L6.43 10.29C4.81 10.29 3.5 11.61 3.5 13.22L3.5 18.1C3.5 19.72 4.81 21.03 6.43 21.03L17.56 21.03C19.18 21.03 20.5 19.72 20.5 18.1L20.5 13.21C20.5 11.6 19.18 10.29 17.57 10.29L16.63 10.29C16.21 10.29 15.88 9.95 15.88 9.54C15.88 9.13 16.21 8.79 16.63 8.79L17.57 8.79C20.01 8.79 22 10.77 22 13.21L22 18.1C22 20.54 20.01 22.53 17.56 22.53Z" fill="#212121" fill-opacity="1.000000" fill-rule="evenodd"/>
		</g>
		<mask id="mask430_8712" mask-type="alpha" maskUnits="userSpaceOnUse" x="11.250000" y="2.000122" width="1.500000" height="13.540894">
			<path id="Clip 5" d="M11.25 2L12.75 2L12.75 15.54L11.25 15.54L11.25 2Z" fill="#000000" fill-opacity="1.000000" fill-rule="evenodd"/>
		</mask>
		<g mask="url(#mask430_8712)">
			<path id="Fill 4" d="M12 15.54C11.58 15.54 11.25 15.2 11.25 14.79L11.25 2.75C11.25 2.33 11.58 2 12 2C12.41 2 12.75 2.33 12.75 2.75L12.75 14.79C12.75 15.2 12.41 15.54 12 15.54Z" fill="#212121" fill-opacity="1.000000" fill-rule="evenodd"/>
		</g>
		<path id="Fill 7" d="M9.08 6.42C8.89 6.42 8.7 6.35 8.55 6.2C8.26 5.91 8.26 5.44 8.55 5.14L11.46 2.22C11.75 1.93 12.25 1.93 12.53 2.22L15.44 5.14C15.73 5.44 15.73 5.91 15.44 6.2C15.15 6.5 14.67 6.5 14.38 6.2L12 3.81L9.61 6.2C9.46 6.35 9.27 6.42 9.08 6.42Z" fill="#212121" fill-opacity="1.000000" fill-rule="evenodd"/>
	</g>
</svg>
