<svg width="24.000000" height="24.000000" viewBox="0 0 24 24" fill="none" xmlns="http://www.w3.org/2000/svg" xmlns:xlink="http://www.w3.org/1999/xlink">
	<desc>
			Created with Pixso.
	</desc>
	<defs>
		<clipPath id="clip430_8562">
			<rect id="Iconly/Light-Outline/Play" width="24.000000" height="24.000000" fill="white" fill-opacity="0"/>
		</clipPath>
	</defs>
	<rect id="Iconly/Light-Outline/Play" width="24.000000" height="24.000000" fill="#FFFFFF" fill-opacity="0"/>
	<g clip-path="url(#clip430_8562)">
		<path id="Fill 1" d="M2 12.25C2 17.902 6.5979 22.5 12.25 22.5C17.9021 22.5 22.5 17.902 22.5 12.25C22.5 6.59802 17.9021 2 12.25 2C6.5979 2 2 6.59802 2 12.25ZM3.5 12.25C3.5 7.42505 7.42505 3.5 12.25 3.5C17.075 3.5 21 7.42505 21 12.25C21 17.075 17.075 21 12.25 21C7.42505 21 3.5 17.075 3.5 12.25Z" clip-rule="evenodd" fill="#212121" fill-opacity="1.000000" fill-rule="evenodd"/>
		<path id="Fill 3" d="M10.0928 15.7164C10.3018 15.9244 10.5579 16.0013 10.8279 16.0013C11.1768 16.0013 11.5498 15.8734 11.8767 15.7374C12.7158 15.3875 15.9998 13.5554 15.9998 12.2454C15.9998 10.8474 12.3508 8.97839 11.8308 8.76135C11.4678 8.60938 10.6157 8.25439 10.0928 8.77234L10.092 8.77307C9.94434 8.9209 9.49878 9.36633 9.49976 12.3334C9.50171 15.1324 9.93164 15.5574 10.0928 15.7164ZM11.1309 14.4283C10.9539 13.4784 10.9568 11.0874 11.1338 10.0864C12.0347 10.4244 13.9128 11.6484 14.4229 12.2494C13.9106 12.8684 12.0088 14.1184 11.1309 14.4283Z" clip-rule="evenodd" fill="#212121" fill-opacity="1.000000" fill-rule="evenodd"/>
	</g>
</svg>
