<svg width="24.000000" height="24.000000" viewBox="0 0 24 24" fill="none" xmlns="http://www.w3.org/2000/svg" xmlns:xlink="http://www.w3.org/1999/xlink">
	<desc>
			Created with Pixso.
	</desc>
	<defs>
		<clipPath id="clip430_8576">
			<rect id="Iconly/Light-Outline/Info Square" width="24.000000" height="24.000000" fill="white" fill-opacity="0"/>
		</clipPath>
	</defs>
	<rect id="Iconly/Light-Outline/Info Square" width="24.000000" height="24.000000" fill="#FFFFFF" fill-opacity="0"/>
	<g clip-path="url(#clip430_8576)">
		<mask id="mask430_8579" mask-type="alpha" maskUnits="userSpaceOnUse" x="2.000000" y="2.000000" width="20.000000" height="20.000000">
			<path id="Clip 2" d="M2 2L22 2L22 22L2 22L2 2Z" fill="#000000" fill-opacity="1.000000" fill-rule="evenodd"/>
		</mask>
		<g mask="url(#mask430_8579)">
			<path id="Fill 1" d="M7.66406 22L16.332 22C19.7229 22 22 19.6219 22 16.084L22 7.91602C22 4.37805 19.7229 2 16.334 2L7.66406 2C4.27588 2 2 4.37805 2 7.91602L2 16.084C2 19.6219 4.27588 22 7.66406 22ZM3.5 7.91602C3.5 5.23303 5.13501 3.5 7.66406 3.5L16.334 3.5C18.864 3.5 20.5 5.23303 20.5 7.91602L20.5 16.084C20.5 18.767 18.864 20.5 16.332 20.5L7.66406 20.5C5.13501 20.5 3.5 18.767 3.5 16.084L3.5 7.91602Z" clip-rule="evenodd" fill="#212121" fill-opacity="1.000000" fill-rule="evenodd"/>
		</g>
		<path id="Fill 4" d="M11.99 16.75C11.58 16.75 11.24 16.41 11.24 16L11.24 12C11.24 11.58 11.58 11.25 11.99 11.25C12.4 11.25 12.74 11.58 12.74 12L12.74 16C12.74 16.41 12.4 16.75 11.99 16.75Z" fill="#212121" fill-opacity="1.000000" fill-rule="evenodd"/>
		<path id="Fill 6" d="M11.99 9.2C11.44 9.2 10.99 8.75 10.99 8.2C10.99 7.65 11.43 7.2 11.98 7.2L11.99 7.2C12.55 7.2 12.99 7.65 12.99 8.2C12.99 8.75 12.55 9.2 11.99 9.2Z" fill="#212121" fill-opacity="1.000000" fill-rule="evenodd"/>
	</g>
</svg>
