<svg width="24.000000" height="24.000000" viewBox="0 0 24 24" fill="none" xmlns="http://www.w3.org/2000/svg" xmlns:xlink="http://www.w3.org/1999/xlink">
	<desc>
			Created with Pixso.
	</desc>
	<defs>
		<clipPath id="clip430_8597">
			<rect id="Iconly/Light-Outline/Shield Done" width="24.000000" height="24.000000" fill="white" fill-opacity="0"/>
		</clipPath>
	</defs>
	<rect id="Iconly/Light-Outline/Shield Done" width="24.000000" height="24.000000" fill="#FFFFFF" fill-opacity="0"/>
	<g clip-path="url(#clip430_8597)">
		<mask id="mask430_8600" mask-type="alpha" maskUnits="userSpaceOnUse" x="4.000244" y="2.000366" width="16.966797" height="20.355591">
			<path id="Clip 2" d="M4 2L20.96 2L20.96 22.35L4 22.35L4 2Z" fill="#000000" fill-opacity="1.000000" fill-rule="evenodd"/>
		</mask>
		<g mask="url(#mask430_8600)">
			<path id="Fill 1" d="M12.2664 22.324C12.3374 22.3459 12.4104 22.356 12.4834 22.356C12.5564 22.356 12.6294 22.3459 12.7004 22.324C13.0354 22.223 20.9055 19.761 20.9055 12.879C20.9055 10.959 20.9304 9.57202 20.9485 8.55396L20.9485 8.54944C20.9944 6.01331 21.0039 5.48364 20.3484 4.828C19.5615 4.04102 13.6165 2 12.4834 2C11.3494 2 5.4043 4.04102 4.61938 4.828C3.96289 5.48364 3.97241 6.01331 4.01831 8.55225L4.01831 8.55701C4.03638 9.57495 4.06152 10.962 4.06152 12.879C4.06152 19.761 11.9314 22.223 12.2664 22.324ZM12.4834 3.5C11.6355 3.5 6.2854 5.38403 5.66846 5.89905C5.48633 6.08203 5.47949 6.40002 5.51831 8.52905C5.53638 9.55505 5.56152 10.949 5.56152 12.879C5.56152 18.08 11.2834 20.389 12.4824 20.814C13.6804 20.387 19.4055 18.0649 19.4055 12.879C19.4055 10.947 19.4304 9.552 19.4495 8.526C19.4873 6.39905 19.4805 6.08105 19.2874 5.88904C18.6824 5.38403 13.3313 3.5 12.4834 3.5Z" clip-rule="evenodd" fill="#212121" fill-opacity="1.000000" fill-rule="evenodd"/>
		</g>
		<path id="Fill 4" d="M11.77 14.51C11.57 14.51 11.38 14.44 11.24 14.29L9.35 12.4C9.06 12.11 9.06 11.63 9.35 11.34C9.64 11.05 10.12 11.05 10.41 11.34L11.77 12.7L15.14 9.33C15.43 9.04 15.91 9.04 16.2 9.33C16.49 9.63 16.49 10.1 16.2 10.4L12.3 14.29C12.16 14.44 11.97 14.51 11.77 14.51Z" fill="#212121" fill-opacity="1.000000" fill-rule="evenodd"/>
	</g>
</svg>
