<svg width="24.000000" height="24.000000" viewBox="0 0 24 24" fill="none" xmlns="http://www.w3.org/2000/svg" xmlns:xlink="http://www.w3.org/1999/xlink">
	<desc>
			Created with Pixso.
	</desc>
	<defs>
		<clipPath id="clip430_8944">
			<rect id="Iconly/Light-Outline/Arrow - Right 3" width="24.000000" height="24.000000" fill="white" fill-opacity="0"/>
		</clipPath>
	</defs>
	<rect id="Iconly/Light-Outline/Arrow - Right 3" width="24.000000" height="24.000000" fill="#FFFFFF" fill-opacity="0"/>
	<g clip-path="url(#clip430_8944)">
		<path id="Fill 1" d="M12.7 13.5L3.75 13.5C3.33 13.5 3 13.16 3 12.75C3 12.33 3.33 12 3.75 12L12.7 12C13.11 12 13.45 12.33 13.45 12.75C13.45 13.16 13.11 13.5 12.7 13.5Z" fill="#212121" fill-opacity="1.000000" fill-rule="evenodd"/>
		<mask id="mask430_8948" mask-type="alpha" maskUnits="userSpaceOnUse" x="11.950195" y="7.000366" width="9.437012" height="11.500977">
			<path id="Clip 4" d="M11.95 7L21.38 7L21.38 18.5L11.95 18.5L11.95 7Z" fill="#000000" fill-opacity="1.000000" fill-rule="evenodd"/>
		</mask>
		<g mask="url(#mask430_8948)">
			<path id="Fill 3" d="M12.3381 18.4078C12.4512 18.4698 12.5752 18.5018 12.7002 18.5018C12.8391 18.5018 12.9783 18.4628 13.0991 18.3859L21.0371 13.3848C21.2561 13.2478 21.3872 13.0078 21.3872 12.7509C21.3872 12.4928 21.2561 12.2538 21.0371 12.1158L13.0991 7.11475C12.8701 6.96985 12.5771 6.96179 12.3381 7.09277C12.0981 7.22485 11.9502 7.47583 11.9502 7.74976L11.9502 17.7518C11.9502 18.0248 12.0981 18.2758 12.3381 18.4078ZM13.4502 16.3918L13.4502 9.10876L19.2302 12.7509L13.4502 16.3918Z" clip-rule="evenodd" fill="#212121" fill-opacity="1.000000" fill-rule="evenodd"/>
		</g>
	</g>
</svg>
