<svg width="24.000000" height="24.000000" viewBox="0 0 24 24" fill="none" xmlns="http://www.w3.org/2000/svg" xmlns:xlink="http://www.w3.org/1999/xlink">
	<desc>
			Created with Pixso.
	</desc>
	<defs>
		<clipPath id="clip430_8958">
			<rect id="Iconly/Light-Outline/Arrow - Up" width="24.000000" height="24.000000" fill="white" fill-opacity="0"/>
		</clipPath>
	</defs>
	<rect id="Iconly/Light-Outline/Arrow - Up" width="24.000000" height="24.000000" fill="#FFFFFF" fill-opacity="0"/>
	<g clip-path="url(#clip430_8958)">
		<path id="Stroke 1" d="M11.72 20C11.34 20 11.03 19.71 10.98 19.35L10.97 19.25L10.97 4.25C10.97 3.83 11.31 3.5 11.72 3.5C12.1 3.5 12.41 3.78 12.46 4.14L12.47 4.25L12.47 19.25C12.47 19.66 12.13 20 11.72 20Z" fill="#212121" fill-opacity="1.000000" fill-rule="nonzero"/>
		<path id="Stroke 3" d="M6.23 10.82C5.94 11.12 5.46 11.12 5.17 10.83C4.9 10.56 4.88 10.14 5.09 9.85L5.16 9.77L11.19 3.72C11.46 3.45 11.87 3.42 12.17 3.64L12.25 3.72L18.28 9.77C18.57 10.06 18.57 10.53 18.27 10.83C18.01 11.09 17.59 11.12 17.3 10.9L17.21 10.82L11.72 5.31L6.23 10.82Z" fill="#212121" fill-opacity="1.000000" fill-rule="nonzero"/>
	</g>
</svg>
