<svg width="24.000000" height="24.000000" viewBox="0 0 24 24" fill="none" xmlns="http://www.w3.org/2000/svg" xmlns:xlink="http://www.w3.org/1999/xlink">
	<desc>
			Created with Pixso.
	</desc>
	<defs>
		<clipPath id="clip430_8357">
			<rect id="Iconly/Light-Outline/Image" width="24.000000" height="24.000000" fill="white" fill-opacity="0"/>
		</clipPath>
	</defs>
	<rect id="Iconly/Light-Outline/Image" width="24.000000" height="24.000000" fill="#FFFFFF" fill-opacity="0"/>
	<g clip-path="url(#clip430_8357)">
		<mask id="mask430_8360" mask-type="alpha" maskUnits="userSpaceOnUse" x="2.000488" y="2.000244" width="19.959717" height="19.949829">
			<path id="Clip 2" d="M2 2L21.96 2L21.96 21.95L2 21.95L2 2Z" fill="#000000" fill-opacity="1.000000" fill-rule="evenodd"/>
		</mask>
		<g mask="url(#mask430_8360)">
			<path id="Fill 1" d="M7.65039 21.95L16.3005 21.95C19.6855 21.95 21.9604 19.579 21.9604 16.051L21.9604 7.89905C21.9604 4.37097 19.6855 2 16.3005 2L7.65039 2C4.27051 2 2.00049 4.37097 2.00049 7.89905L2.00049 16.051C2.00049 19.579 4.27051 21.95 7.65039 21.95ZM3.50049 7.89905C3.50049 5.22705 5.12939 3.5 7.65039 3.5L16.3005 3.5C18.8274 3.5 20.4604 5.22705 20.4604 7.89905L20.4604 16.051C20.4604 18.724 18.8274 20.45 16.3005 20.45L7.65039 20.45C5.12939 20.45 3.50049 18.724 3.50049 16.051L3.50049 7.89905Z" clip-rule="evenodd" fill="#212121" fill-opacity="1.000000" fill-rule="evenodd"/>
		</g>
		<path id="Fill 4" d="M5.28 17.18C5.09 17.18 4.91 17.11 4.76 16.97C4.46 16.69 4.45 16.21 4.73 15.91L6.26 14.3C7.07 13.44 8.43 13.4 9.3 14.21L10.26 15.18C10.52 15.45 10.96 15.45 11.22 15.19C11.33 15.07 13.5 12.43 13.5 12.43C13.92 11.92 14.5 11.61 15.15 11.55C15.8 11.49 16.43 11.68 16.93 12.09C16.98 12.13 17.02 12.16 19.21 14.42C19.5 14.71 19.5 15.19 19.2 15.48C18.9 15.77 18.43 15.76 18.14 15.46C18.14 15.46 16.09 13.36 15.94 13.22C15.79 13.09 15.54 13.02 15.29 13.04C15.05 13.07 14.82 13.19 14.66 13.38C12.34 16.2 12.31 16.23 12.27 16.26C11.41 17.1 10.03 17.09 9.19 16.23C9.19 16.23 8.26 15.29 8.24 15.27C8.01 15.05 7.6 15.07 7.35 15.33L5.82 16.94C5.67 17.1 5.47 17.18 5.28 17.18Z" fill="#212121" fill-opacity="1.000000" fill-rule="evenodd"/>
		<path id="Fill 6" d="M6.05444 9.13293C6.05444 10.5139 7.17749 11.6379 8.55835 11.6379C9.93945 11.6379 11.0635 10.5139 11.0635 9.13293C11.0635 7.75391 9.94043 6.62988 8.55835 6.62891C7.17749 6.62891 6.05444 7.75195 6.05444 9.13293ZM7.55444 9.13293C7.55444 8.57886 8.00439 8.12891 8.55737 8.12891C9.11255 8.12988 9.56348 8.57996 9.56348 9.13293C9.56348 9.68689 9.11255 10.1379 8.55835 10.1379C8.00439 10.1379 7.55444 9.68689 7.55444 9.13293Z" clip-rule="evenodd" fill="#212121" fill-opacity="1.000000" fill-rule="evenodd"/>
	</g>
</svg>
