<svg width="24.000000" height="24.000000" viewBox="0 0 24 24" fill="none" xmlns="http://www.w3.org/2000/svg" xmlns:xlink="http://www.w3.org/1999/xlink">
	<desc>
			Created with Pixso.
	</desc>
	<defs>
		<clipPath id="clip430_8438">
			<rect id="Iconly/Light-Outline/More Circle" width="24.000000" height="24.000000" fill="white" fill-opacity="0"/>
		</clipPath>
	</defs>
	<rect id="Iconly/Light-Outline/More Circle" width="24.000000" height="24.000000" fill="#FFFFFF" fill-opacity="0"/>
	<g clip-path="url(#clip430_8438)">
		<path id="Fill 1" d="M2 12C2 17.514 6.48608 22 12 22C17.5139 22 22 17.514 22 12C22 6.48596 17.5139 2 12 2C6.48608 2 2 6.48596 2 12ZM3.5 12C3.5 7.31299 7.31299 3.5 12 3.5C16.687 3.5 20.5 7.31299 20.5 12C20.5 16.687 16.687 20.5 12 20.5C7.31299 20.5 3.5 16.687 3.5 12Z" clip-rule="evenodd" fill="#212121" fill-opacity="1.000000" fill-rule="evenodd"/>
		<path id="Fill 3" d="M15.94 13.01C15.39 13.01 14.94 12.56 14.94 12.01C14.94 11.46 15.38 11.01 15.93 11.01L15.94 11.01C16.5 11.01 16.94 11.46 16.94 12.01C16.94 12.56 16.5 13.01 15.94 13.01Z" fill="#212121" fill-opacity="1.000000" fill-rule="evenodd"/>
		<path id="Fill 5" d="M11.93 13.01C11.38 13.01 10.93 12.56 10.93 12.01C10.93 11.46 11.37 11.01 11.92 11.01L11.93 11.01C12.49 11.01 12.93 11.46 12.93 12.01C12.93 12.56 12.49 13.01 11.93 13.01Z" fill="#212121" fill-opacity="1.000000" fill-rule="evenodd"/>
		<path id="Fill 7" d="M7.92 13.01C7.37 13.01 6.92 12.56 6.92 12.01C6.92 11.46 7.36 11.01 7.92 11.01L7.92 11.01C8.48 11.01 8.92 11.46 8.92 12.01C8.92 12.56 8.48 13.01 7.92 13.01Z" fill="#212121" fill-opacity="1.000000" fill-rule="evenodd"/>
	</g>
</svg>
