<svg width="24.000000" height="24.000000" viewBox="0 0 24 24" fill="none" xmlns="http://www.w3.org/2000/svg" xmlns:xlink="http://www.w3.org/1999/xlink">
	<desc>
			Created with Pixso.
	</desc>
	<defs>
		<clipPath id="clip430_8455">
			<rect id="Iconly/Light-Outline/Filter 3" width="24.000000" height="24.000000" fill="white" fill-opacity="0"/>
		</clipPath>
	</defs>
	<rect id="Iconly/Light-Outline/Filter 3" width="24.000000" height="24.000000" fill="#FFFFFF" fill-opacity="0"/>
	<g clip-path="url(#clip430_8455)">
		<mask id="mask430_8457" mask-type="alpha" maskUnits="userSpaceOnUse" x="2.000488" y="2.000000" width="19.499512" height="19.500732">
			<path id="Clip 2" d="M2 2L21.5 2L21.5 21.5L2 21.5L2 2Z" fill="#000000" fill-opacity="1.000000" fill-rule="evenodd"/>
		</mask>
		<g mask="url(#mask430_8457)">
			<path id="Fill 1" d="M9.5625 21.3387C9.74438 21.4468 9.94458 21.5007 10.1465 21.5007C10.3335 21.5007 10.5205 21.4537 10.6924 21.3607L13.4534 19.8568C14.1116 19.4967 14.5205 18.8048 14.5205 18.0487L14.5205 15.7617C14.5205 14.6057 14.9595 13.5167 15.7625 12.6887L20.6094 7.53479C21.1836 6.92175 21.5005 6.11975 21.5005 5.27673L21.5005 4.3407C21.5005 3.0498 20.4614 1.99976 19.1865 1.99976L4.31543 1.99976C3.03955 1.99976 2.00049 3.0498 2.00049 4.3407L2.00049 5.27673C2.00049 6.12073 2.31738 6.92371 2.89355 7.53577L7.7395 12.6887C7.75952 12.7108 7.78247 12.7318 7.80542 12.7507C8.57642 13.5697 8.99951 14.6388 8.99951 15.7738L8.99951 20.3457C8.99951 20.7578 9.21045 21.1288 9.5625 21.3387ZM8.77344 11.5988C8.7915 11.6147 8.80859 11.6298 8.82544 11.6477C9.90454 12.7538 10.4995 14.2188 10.4995 15.7738L10.4995 19.7578L12.7356 18.5398C12.9114 18.4437 13.0205 18.2557 13.0205 18.0487L13.0205 15.7617C13.0205 14.2128 13.6094 12.7528 14.6785 11.6527L19.5154 6.50781C19.8284 6.1748 20.0005 5.73779 20.0005 5.27673L20.0005 4.3407C20.0005 3.87671 19.6345 3.49976 19.1865 3.49976L4.31543 3.49976C3.86646 3.49976 3.50049 3.87671 3.50049 4.3407L3.50049 5.27673C3.50049 5.73779 3.67261 6.1748 3.9856 6.50671L8.77344 11.5988Z" clip-rule="evenodd" fill="#212121" fill-opacity="1.000000" fill-rule="evenodd"/>
		</g>
	</g>
</svg>
