<svg width="24.000000" height="24.000000" viewBox="0 0 24 24" fill="none" xmlns="http://www.w3.org/2000/svg" xmlns:xlink="http://www.w3.org/1999/xlink">
	<desc>
			Created with Pixso.
	</desc>
	<defs>
		<clipPath id="clip430_8913">
			<rect id="Iconly/Light-Outline/Volume Off" width="24.000000" height="24.000000" fill="white" fill-opacity="0"/>
		</clipPath>
	</defs>
	<rect id="Iconly/Light-Outline/Volume Off" width="24.000000" height="24.000000" fill="#FFFFFF" fill-opacity="0"/>
	<g clip-path="url(#clip430_8913)">
		<mask id="mask430_8916" mask-type="alpha" maskUnits="userSpaceOnUse" x="3.000000" y="4.601074" width="12.033691" height="13.186279">
			<path id="Clip 2" d="M3 4.6L15.03 4.6L15.03 17.78L3 17.78L3 4.6Z" fill="#000000" fill-opacity="1.000000" fill-rule="evenodd"/>
		</mask>
		<g mask="url(#mask430_8916)">
			<path id="Fill 1" d="M7.08862 17.6863C7.20557 17.7543 7.33447 17.7874 7.46362 17.7874C7.65747 17.7874 7.84961 17.7123 7.99463 17.5674L14.8135 10.7473C14.9595 10.6013 15.0386 10.4033 15.0334 10.1984C14.9646 7.48132 14.7246 5.93335 13.6006 5.01831C13.5715 4.99438 13.5405 4.97229 13.5076 4.95435C11.7056 3.88635 9.77856 5.47229 8.37256 6.63135C7.89062 7.02734 7.16162 7.62732 6.9104 7.6593C6.61841 7.68237 6.36963 7.69128 6.14844 7.70032C5.34741 7.73035 4.71362 7.75427 3.97339 8.38733C2.99243 9.22437 2.99658 10.9803 3.00049 12.3914L3.00146 12.6333L3.00049 12.8763C2.99658 14.2874 2.99243 16.0424 3.97241 16.8804C4.72241 17.5214 5.36743 17.5443 6.18359 17.5724C6.39746 17.5793 6.63745 17.5884 6.91357 17.6073C6.91357 17.6073 6.96851 17.6173 7.08862 17.6863ZM12.2305 6.11133C11.3645 6.11133 10.2515 7.02734 9.32544 7.78931C8.43555 8.52136 7.7334 9.09937 7.02856 9.15527C6.71362 9.17932 6.4436 9.19031 6.20557 9.19934C5.46655 9.22632 5.27954 9.24438 4.94751 9.52832C4.49512 9.91479 4.49854 11.4589 4.50049 12.3834L4.50049 12.3873L4.50146 12.6333L4.50049 12.8804L4.50049 12.8843C4.49854 13.8087 4.49512 15.3529 4.94751 15.7394C5.28662 16.0293 5.47852 16.0474 6.2356 16.0734C6.4646 16.0813 6.72339 16.0903 7.02246 16.1113C7.1084 16.1173 7.19653 16.1313 7.28662 16.1533L13.5244 9.91528C13.4514 7.69031 13.2266 6.69238 12.6965 6.21838C12.5525 6.14429 12.3965 6.11133 12.2305 6.11133Z" clip-rule="evenodd" fill="#212121" fill-opacity="1.000000" fill-rule="evenodd"/>
		</g>
		<path id="Fill 4" d="M12.23 20.66C11.22 20.66 10.26 20.08 9.55 19.56C9.21 19.32 9.14 18.85 9.38 18.52C9.62 18.18 10.09 18.1 10.43 18.35C11.74 19.3 12.33 19.23 12.69 19.04C13.27 18.53 13.49 17.36 13.53 14.65C13.53 14.24 13.84 13.92 14.29 13.91C14.7 13.92 15.03 14.26 15.03 14.67C14.99 17.63 14.76 19.3 13.6 20.25C13.57 20.27 13.54 20.29 13.5 20.31C13.08 20.56 12.65 20.66 12.23 20.66Z" fill="#212121" fill-opacity="1.000000" fill-rule="evenodd"/>
		<mask id="mask430_8922" mask-type="alpha" maskUnits="userSpaceOnUse" x="3.001709" y="4.000244" width="17.498291" height="17.499756">
			<path id="Clip 7" d="M3 4L20.5 4L20.5 21.5L3 21.5L3 4Z" fill="#000000" fill-opacity="1.000000" fill-rule="evenodd"/>
		</mask>
		<g mask="url(#mask430_8922)">
			<path id="Fill 6" d="M3.75 21.5C3.55 21.5 3.36 21.42 3.22 21.28C2.92 20.98 2.92 20.51 3.22 20.21L19.22 4.21C19.51 3.92 19.98 3.92 20.28 4.21C20.57 4.51 20.57 4.98 20.28 5.28L4.28 21.28C4.13 21.42 3.94 21.5 3.75 21.5Z" fill="#212121" fill-opacity="1.000000" fill-rule="evenodd"/>
		</g>
	</g>
</svg>
