<svg width="24.000000" height="24.000000" viewBox="0 0 24 24" fill="none" xmlns="http://www.w3.org/2000/svg" xmlns:xlink="http://www.w3.org/1999/xlink">
	<desc>
			Created with Pixso.
	</desc>
	<defs>
		<clipPath id="clip430_8753">
			<rect id="Iconly/Light-Outline/Calendar" width="24.000000" height="24.000000" fill="white" fill-opacity="0"/>
		</clipPath>
	</defs>
	<rect id="Iconly/Light-Outline/Calendar" width="24.000000" height="24.000000" fill="#FFFFFF" fill-opacity="0"/>
	<g clip-path="url(#clip430_8753)">
		<path id="Fill 1" d="M20.66 9.9L2.84 9.9C2.42 9.9 2.09 9.56 2.09 9.15C2.09 8.74 2.42 8.4 2.84 8.4L20.66 8.4C21.08 8.4 21.41 8.74 21.41 9.15C21.41 9.56 21.08 9.9 20.66 9.9Z" fill="#212121" fill-opacity="1.000000" fill-rule="evenodd"/>
		<path id="Fill 3" d="M16.2 13.8C15.78 13.8 15.44 13.47 15.44 13.05C15.44 12.64 15.77 12.3 16.19 12.3L16.2 12.3C16.61 12.3 16.95 12.64 16.95 13.05C16.95 13.47 16.61 13.8 16.2 13.8Z" fill="#212121" fill-opacity="1.000000" fill-rule="evenodd"/>
		<path id="Fill 5" d="M11.76 13.8C11.34 13.8 11 13.47 11 13.05C11 12.64 11.34 12.3 11.75 12.3L11.76 12.3C12.17 12.3 12.51 12.64 12.51 13.05C12.51 13.47 12.17 13.8 11.76 13.8Z" fill="#212121" fill-opacity="1.000000" fill-rule="evenodd"/>
		<path id="Fill 7" d="M7.31 13.8C6.9 13.8 6.56 13.47 6.56 13.05C6.56 12.64 6.89 12.3 7.3 12.3L7.31 12.3C7.73 12.3 8.06 12.64 8.06 13.05C8.06 13.47 7.73 13.8 7.31 13.8Z" fill="#212121" fill-opacity="1.000000" fill-rule="evenodd"/>
		<path id="Fill 9" d="M16.2 17.69C15.78 17.69 15.44 17.36 15.44 16.94C15.44 16.53 15.77 16.19 16.19 16.19L16.2 16.19C16.61 16.19 16.95 16.53 16.95 16.94C16.95 17.36 16.61 17.69 16.2 17.69Z" fill="#212121" fill-opacity="1.000000" fill-rule="evenodd"/>
		<path id="Fill 11" d="M11.76 17.69C11.34 17.69 11 17.36 11 16.94C11 16.53 11.34 16.19 11.75 16.19L11.76 16.19C12.17 16.19 12.51 16.53 12.51 16.94C12.51 17.36 12.17 17.69 11.76 17.69Z" fill="#212121" fill-opacity="1.000000" fill-rule="evenodd"/>
		<path id="Fill 13" d="M7.31 17.69C6.9 17.69 6.56 17.36 6.56 16.94C6.56 16.53 6.89 16.19 7.3 16.19L7.31 16.19C7.73 16.19 8.06 16.53 8.06 16.94C8.06 17.36 7.73 17.69 7.31 17.69Z" fill="#212121" fill-opacity="1.000000" fill-rule="evenodd"/>
		<path id="Fill 15" d="M15.79 5.79C15.37 5.79 15.04 5.45 15.04 5.04L15.04 1.75C15.04 1.33 15.37 1 15.79 1C16.2 1 16.54 1.33 16.54 1.75L16.54 5.04C16.54 5.45 16.2 5.79 15.79 5.79Z" fill="#212121" fill-opacity="1.000000" fill-rule="evenodd"/>
		<path id="Fill 17" d="M7.71 5.79C7.3 5.79 6.96 5.45 6.96 5.04L6.96 1.75C6.96 1.33 7.3 1 7.71 1C8.12 1 8.46 1.33 8.46 1.75L8.46 5.04C8.46 5.45 8.12 5.79 7.71 5.79Z" fill="#212121" fill-opacity="1.000000" fill-rule="evenodd"/>
		<mask id="mask430_8765" mask-type="alpha" maskUnits="userSpaceOnUse" x="2.000000" y="2.579102" width="19.500000" height="19.920898">
			<path id="Clip 20" d="M2 2.57L21.5 2.57L21.5 22.5L2 22.5L2 2.57Z" fill="#000000" fill-opacity="1.000000" fill-rule="evenodd"/>
		</mask>
		<g mask="url(#mask430_8765)">
			<path id="Fill 19" d="M7.521 22.5001L15.979 22.5001C19.384 22.5001 21.5 20.4301 21.5 17.0981L21.5 7.9751C21.5049 6.35205 21.012 4.99915 20.075 4.05811C19.1101 3.09106 17.697 2.5791 15.988 2.5791L7.521 2.5791C4.11597 2.5791 2 4.64514 2 7.97314L2 17.0221C2 20.4011 4.11597 22.5001 7.521 22.5001ZM7.521 4.0791C4.92798 4.0791 3.5 5.46216 3.5 7.97314L3.5 17.0221C3.5 19.5881 4.92798 21.0001 7.521 21.0001L15.979 21.0001C18.572 21.0001 20 19.6141 20 17.0981L20 7.97314C20.0039 6.73816 19.6721 5.77808 19.0129 5.11804C18.335 4.43811 17.29 4.0791 15.988 4.0791L7.521 4.0791Z" clip-rule="evenodd" fill="#212121" fill-opacity="1.000000" fill-rule="evenodd"/>
		</g>
	</g>
</svg>
