<svg width="24.000000" height="24.000000" viewBox="0 0 24 24" fill="none" xmlns="http://www.w3.org/2000/svg" xmlns:xlink="http://www.w3.org/1999/xlink">
	<desc>
			Created with Pixso.
	</desc>
	<defs>
		<clipPath id="clip430_8796">
			<rect id="Iconly/Light-Outline/Chart" width="24.000000" height="24.000000" fill="white" fill-opacity="0"/>
		</clipPath>
	</defs>
	<rect id="Iconly/Light-Outline/Chart" width="24.000000" height="24.000000" fill="#FFFFFF" fill-opacity="0"/>
	<g clip-path="url(#clip430_8796)">
		<path id="Fill 1" d="M7.12 17.56C6.7 17.56 6.37 17.22 6.37 16.81L6.37 9.95C6.37 9.53 6.7 9.2 7.12 9.2C7.53 9.2 7.87 9.53 7.87 9.95L7.87 16.81C7.87 17.22 7.53 17.56 7.12 17.56Z" fill="#212121" fill-opacity="1.000000" fill-rule="evenodd"/>
		<path id="Fill 3" d="M11.78 17.56C11.37 17.56 11.03 17.22 11.03 16.81L11.03 6.66C11.03 6.25 11.37 5.91 11.78 5.91C12.2 5.91 12.53 6.25 12.53 6.66L12.53 16.81C12.53 17.22 12.2 17.56 11.78 17.56Z" fill="#212121" fill-opacity="1.000000" fill-rule="evenodd"/>
		<path id="Fill 5" d="M16.37 17.56C15.96 17.56 15.62 17.22 15.62 16.81L15.62 13.57C15.62 13.16 15.96 12.82 16.37 12.82C16.79 12.82 17.12 13.16 17.12 13.57L17.12 16.81C17.12 17.22 16.79 17.56 16.37 17.56Z" fill="#212121" fill-opacity="1.000000" fill-rule="evenodd"/>
		<path id="Fill 7" d="M7.06396 22.5L16.436 22.5C20.063 22.5 22.5 19.954 22.5 16.165L22.5 7.33496C22.5 3.54602 20.063 1 16.436 1L7.06396 1C3.43701 1 1 3.54602 1 7.33496L1 16.165C1 19.954 3.43701 22.5 7.06396 22.5ZM2.5 7.33496C2.5 4.39697 4.29199 2.5 7.06396 2.5L16.436 2.5C19.209 2.5 21 4.39697 21 7.33496L21 16.165C21 19.103 19.209 21 16.436 21L7.06396 21C4.29199 21 2.5 19.103 2.5 16.165L2.5 7.33496Z" clip-rule="evenodd" fill="#212121" fill-opacity="1.000000" fill-rule="evenodd"/>
	</g>
</svg>
