<svg width="24.000000" height="24.000000" viewBox="0 0 24 24" fill="none" xmlns="http://www.w3.org/2000/svg" xmlns:xlink="http://www.w3.org/1999/xlink">
	<desc>
			Created with Pixso.
	</desc>
	<defs>
		<clipPath id="clip430_8502">
			<rect id="Iconly/Light-Outline/Image 3" width="24.000000" height="24.000000" fill="white" fill-opacity="0"/>
		</clipPath>
	</defs>
	<rect id="Iconly/Light-Outline/Image 3" width="24.000000" height="24.000000" fill="#FFFFFF" fill-opacity="0"/>
	<g clip-path="url(#clip430_8502)">
		<mask id="mask430_8505" mask-type="alpha" maskUnits="userSpaceOnUse" x="2.000488" y="2.000122" width="19.953125" height="19.953857">
			<path id="Clip 2" d="M2 2L21.95 2L21.95 21.95L2 21.95L2 2Z" fill="#000000" fill-opacity="1.000000" fill-rule="evenodd"/>
		</mask>
		<g mask="url(#mask430_8505)">
			<path id="Fill 1" d="M7.65137 21.954L16.2976 21.954C19.6804 21.954 21.9534 19.5811 21.9534 16.05L21.9534 7.90503C21.9556 6.16101 21.3735 4.61597 20.3125 3.55396C19.2976 2.53699 17.9104 2 16.3025 2L7.65137 2C4.27148 2 2.00049 4.37305 2.00049 7.90405L2.00049 16.05C2.00049 19.5811 4.27148 21.954 7.65137 21.954ZM7.65137 3.5C5.13037 3.5 3.50049 5.229 3.50049 7.90405L3.50049 16.05C3.50049 18.726 5.13037 20.454 7.65137 20.454L16.2976 20.454C18.8225 20.454 20.4534 18.726 20.4534 16.05L20.4534 7.90405C20.4556 6.54102 20.0396 5.40295 19.2515 4.61401C18.5234 3.88501 17.5044 3.5 16.3025 3.5L7.65137 3.5Z" clip-rule="evenodd" fill="#212121" fill-opacity="1.000000" fill-rule="evenodd"/>
		</g>
		<path id="Fill 4" d="M6.26123 8.7854C6.26123 10.2164 7.42529 11.3805 8.85718 11.3805C10.2893 11.3805 11.4531 10.2164 11.4531 8.7854L11.4531 8.78442C11.4521 7.35449 10.2883 6.19043 8.85718 6.18945C7.42529 6.18945 6.26123 7.35339 6.26123 8.7854ZM7.76123 8.7854C7.76123 8.18042 8.2522 7.68945 8.8562 7.68945C9.46021 7.69043 9.95215 8.1814 9.95312 8.7865C9.95312 9.3894 9.46118 9.88049 8.85718 9.88049C8.2522 9.88049 7.76123 9.3894 7.76123 8.7854Z" clip-rule="evenodd" fill="#212121" fill-opacity="1.000000" fill-rule="evenodd"/>
		<path id="Fill 6" d="M3.74 20.11C3.62 20.11 3.49 20.08 3.38 20.01C3.02 19.81 2.89 19.35 3.09 18.99C3.15 18.88 4.59 16.34 6.16 15.04C7.42 14.01 8.77 14.58 9.85 15.04C10.49 15.31 11.09 15.56 11.67 15.56C12.21 15.56 12.87 14.62 13.46 13.79C14.28 12.64 15.21 11.33 16.57 11.33C18.74 11.33 20.62 13.26 21.62 14.3L21.74 14.42C22.03 14.72 22.02 15.2 21.72 15.48C21.43 15.77 20.95 15.77 20.66 15.47L20.55 15.35C19.69 14.47 18.11 12.83 16.57 12.83C15.99 12.83 15.3 13.8 14.68 14.66C13.85 15.84 12.98 17.06 11.67 17.06C10.79 17.06 9.98 16.72 9.27 16.42C8.13 15.94 7.62 15.79 7.12 16.2C5.75 17.33 4.41 19.7 4.4 19.72C4.26 19.97 4.01 20.11 3.74 20.11Z" fill="#212121" fill-opacity="1.000000" fill-rule="evenodd"/>
	</g>
</svg>
