<svg width="24.000000" height="24.000000" viewBox="0 0 24 24" fill="none" xmlns="http://www.w3.org/2000/svg" xmlns:xlink="http://www.w3.org/1999/xlink">
	<desc>
			Created with Pixso.
	</desc>
	<defs>
		<clipPath id="clip430_8874">
			<rect id="Iconly/Light-Outline/Document" width="24.000000" height="24.000000" fill="white" fill-opacity="0"/>
		</clipPath>
	</defs>
	<rect id="Iconly/Light-Outline/Document" width="24.000000" height="24.000000" fill="#FFFFFF" fill-opacity="0"/>
	<g clip-path="url(#clip430_8874)">
		<path id="Fill 1" d="M15.71 16.97L8.49 16.97C8.08 16.97 7.74 16.63 7.74 16.22C7.74 15.8 8.08 15.47 8.49 15.47L15.71 15.47C16.12 15.47 16.46 15.8 16.46 16.22C16.46 16.63 16.12 16.97 15.71 16.97Z" fill="#212121" fill-opacity="1.000000" fill-rule="evenodd"/>
		<path id="Fill 3" d="M15.71 12.78L8.49 12.78C8.08 12.78 7.74 12.45 7.74 12.03C7.74 11.62 8.08 11.28 8.49 11.28L15.71 11.28C16.12 11.28 16.46 11.62 16.46 12.03C16.46 12.45 16.12 12.78 15.71 12.78Z" fill="#212121" fill-opacity="1.000000" fill-rule="evenodd"/>
		<path id="Fill 5" d="M11.25 8.61L8.49 8.61C8.08 8.61 7.74 8.27 7.74 7.86C7.74 7.44 8.08 7.11 8.49 7.11L11.25 7.11C11.66 7.11 12 7.44 12 7.86C12 8.27 11.66 8.61 11.25 8.61Z" fill="#212121" fill-opacity="1.000000" fill-rule="evenodd"/>
		<mask id="mask430_8880" mask-type="alpha" maskUnits="userSpaceOnUse" x="3.000000" y="2.000244" width="18.164795" height="19.909790">
			<path id="Clip 8" d="M3 2L21.16 2L21.16 21.91L3 21.91L3 2Z" fill="#000000" fill-opacity="1.000000" fill-rule="evenodd"/>
		</mask>
		<g mask="url(#mask430_8880)">
			<path id="Fill 7" d="M2.99976 16.5529C2.99976 19.7568 5.11279 21.9099 8.25684 21.9099L15.9497 21.9069C19.1177 21.8868 21.1648 19.7849 21.1648 16.5529L21.1648 7.35693C21.1648 4.15283 19.0527 1.99988 15.9087 1.99988L15.9077 1.99988L8.21484 2.00391C5.04688 2.02283 2.99976 4.1239 2.99976 7.35693L2.99976 16.5529ZM8.21973 3.50391L15.9087 3.49988C18.2607 3.49988 19.6648 4.94189 19.6648 7.35693L19.6648 16.5529C19.6648 18.9509 18.2727 20.3928 15.9448 20.4069L8.25586 20.4099C5.90479 20.4099 4.49976 18.9679 4.49976 16.5529L4.49976 7.35693C4.49976 4.95789 5.89185 3.51782 8.21973 3.50391Z" clip-rule="evenodd" fill="#212121" fill-opacity="1.000000" fill-rule="evenodd"/>
		</g>
	</g>
</svg>
