<svg width="24.000000" height="24.000000" viewBox="0 0 24 24" fill="none" xmlns="http://www.w3.org/2000/svg" xmlns:xlink="http://www.w3.org/1999/xlink">
	<desc>
			Created with Pixso.
	</desc>
	<defs>
		<clipPath id="clip430_8842">
			<rect id="Iconly/Light-Outline/Discovery" width="24.000000" height="24.000000" fill="white" fill-opacity="0"/>
		</clipPath>
	</defs>
	<rect id="Iconly/Light-Outline/Discovery" width="24.000000" height="24.000000" fill="#FFFFFF" fill-opacity="0"/>
	<g clip-path="url(#clip430_8842)">
		<path id="Fill 1" d="M8.48926 16.2328C8.63232 16.3748 8.82422 16.4518 9.02026 16.4518C9.09424 16.4518 9.17041 16.4408 9.24438 16.4177L14.3333 14.8247C14.5674 14.7517 14.7524 14.5677 14.8254 14.3328L16.4172 9.24377C16.5012 8.97876 16.4294 8.68774 16.2324 8.48975C16.0344 8.29272 15.7444 8.21973 15.4773 8.30481L10.3884 9.89771C10.1543 9.9707 9.97021 10.1538 9.89722 10.3898L8.30444 15.4788C8.22021 15.7438 8.29224 16.0348 8.48926 16.2328ZM10.1643 14.5587L11.2114 11.2118L14.5583 10.1638L13.5103 13.5107L10.1643 14.5587Z" clip-rule="evenodd" fill="#212121" fill-opacity="1.000000" fill-rule="evenodd"/>
		<mask id="mask430_8848" mask-type="alpha" maskUnits="userSpaceOnUse" x="2.000000" y="2.000000" width="20.721680" height="20.721680">
			<path id="Clip 4" d="M2 2L22.72 2L22.72 22.72L2 22.72L2 2Z" fill="#000000" fill-opacity="1.000000" fill-rule="evenodd"/>
		</mask>
		<g mask="url(#mask430_8848)">
			<path id="Fill 3" d="M1.99976 12.361C1.99976 18.074 6.64771 22.722 12.3608 22.722C18.0737 22.722 22.7217 18.074 22.7217 12.361C22.7217 6.64795 18.0737 2 12.3608 2C6.64771 2 1.99976 6.64795 1.99976 12.361ZM3.49976 12.361C3.49976 7.47595 7.47485 3.5 12.3608 3.5C17.2468 3.5 21.2217 7.47595 21.2217 12.361C21.2217 17.2469 17.2468 21.222 12.3608 21.222C7.47485 21.222 3.49976 17.2469 3.49976 12.361Z" clip-rule="evenodd" fill="#212121" fill-opacity="1.000000" fill-rule="evenodd"/>
		</g>
	</g>
</svg>
