<svg width="24.000000" height="24.000000" viewBox="0 0 24 24" fill="none" xmlns="http://www.w3.org/2000/svg" xmlns:xlink="http://www.w3.org/1999/xlink">
	<desc>
			Created with Pixso.
	</desc>
	<defs>
		<clipPath id="clip430_8769">
			<rect id="Iconly/Light-Outline/Message" width="24.000000" height="24.000000" fill="white" fill-opacity="0"/>
		</clipPath>
	</defs>
	<rect id="Iconly/Light-Outline/Message" width="24.000000" height="24.000000" fill="#FFFFFF" fill-opacity="0"/>
	<g clip-path="url(#clip430_8769)">
		<path id="Fill 1" d="M11.77 13.46C11.1 13.46 10.44 13.24 9.88 12.8L5.39 9.18C5.07 8.92 5.02 8.45 5.28 8.13C5.54 7.8 6.01 7.75 6.33 8.01L10.82 11.62C11.38 12.07 12.17 12.07 12.74 11.62L17.17 8.01C17.5 7.75 17.97 7.8 18.23 8.12C18.49 8.44 18.44 8.92 18.12 9.18L13.68 12.79C13.11 13.24 12.44 13.46 11.77 13.46Z" fill="#212121" fill-opacity="1.000000" fill-rule="evenodd"/>
		<mask id="mask430_8773" mask-type="alpha" maskUnits="userSpaceOnUse" x="1.000000" y="2.000000" width="21.500000" height="19.500000">
			<path id="Clip 4" d="M1 2L22.5 2L22.5 21.5L1 21.5L1 2Z" fill="#000000" fill-opacity="1.000000" fill-rule="evenodd"/>
		</mask>
		<g mask="url(#mask430_8773)">
			<path id="Fill 3" d="M2.83691 19.88C3.90088 20.9399 5.27905 21.5 6.82202 21.5L16.675 21.5C18.2209 21.5 19.6001 20.939 20.6631 19.88C21.8479 18.698 22.5 17.032 22.5 15.188L22.5 8.31995C22.5 4.71704 19.989 2 16.6589 2L6.84106 2C3.51099 2 1 4.71704 1 8.31995L1 15.188C1 17.032 1.6521 18.698 2.83691 19.88ZM6.82495 20L16.6589 20C16.6604 19.9987 16.6641 19.9991 16.6685 19.9995C16.6707 19.9998 16.6729 20 16.675 20C17.8159 20 18.8279 19.592 19.604 18.817C20.5049 17.92 21 16.631 21 15.188L21 8.31995C21 5.52698 19.1741 3.5 16.6589 3.5L6.84106 3.5C4.32593 3.5 2.5 5.52698 2.5 8.31995L2.5 15.188C2.5 16.631 2.99609 17.92 3.896 18.817C4.67212 19.592 5.68506 20 6.82495 20Z" clip-rule="evenodd" fill="#212121" fill-opacity="1.000000" fill-rule="evenodd"/>
		</g>
	</g>
</svg>
