<svg width="24.000000" height="24.000000" viewBox="0 0 24 24" fill="none" xmlns="http://www.w3.org/2000/svg" xmlns:xlink="http://www.w3.org/1999/xlink">
	<desc>
			Created with Pixso.
	</desc>
	<defs>
		<clipPath id="clip430_8986">
			<rect id="Iconly/Light-Outline/Arrow - Left" width="24.000000" height="24.000000" fill="white" fill-opacity="0"/>
		</clipPath>
	</defs>
	<rect id="Iconly/Light-Outline/Arrow - Left" width="24.000000" height="24.000000" fill="#FFFFFF" fill-opacity="0"/>
	<g clip-path="url(#clip430_8986)">
		<path id="Stroke 1" d="M20 12.27C20 12.65 19.71 12.96 19.35 13.01L19.25 13.02L4.25 13.02C3.83 13.02 3.5 12.68 3.5 12.27C3.5 11.89 3.78 11.58 4.14 11.53L4.25 11.52L19.25 11.52C19.66 11.52 20 11.86 20 12.27Z" fill="#212121" fill-opacity="1.000000" fill-rule="nonzero"/>
		<path id="Stroke 3" d="M10.82 17.76C11.12 18.05 11.12 18.53 10.83 18.82C10.56 19.09 10.14 19.11 9.85 18.9L9.77 18.83L3.72 12.8C3.45 12.53 3.42 12.12 3.64 11.82L3.72 11.74L9.77 5.71C10.06 5.42 10.53 5.42 10.83 5.72C11.09 5.98 11.12 6.4 10.9 6.69L10.82 6.78L5.31 12.27L10.82 17.76Z" fill="#212121" fill-opacity="1.000000" fill-rule="nonzero"/>
	</g>
</svg>
