<svg width="24.000000" height="24.000000" viewBox="0 0 24 24" fill="none" xmlns="http://www.w3.org/2000/svg" xmlns:xlink="http://www.w3.org/1999/xlink">
	<desc>
			Created with Pixso.
	</desc>
	<defs>
		<clipPath id="clip430_8461">
			<rect id="Iconly/Light-Outline/Voice 3" width="24.000000" height="24.000000" fill="white" fill-opacity="0"/>
		</clipPath>
	</defs>
	<rect id="Iconly/Light-Outline/Voice 3" width="24.000000" height="24.000000" fill="#FFFFFF" fill-opacity="0"/>
	<g clip-path="url(#clip430_8461)">
		<path id="Fill 1" d="M11.75 22.5C11.33 22.5 11 22.16 11 21.75L11 18.58C11 18.17 11.33 17.83 11.75 17.83C12.16 17.83 12.5 18.17 12.5 18.58L12.5 21.75C12.5 22.16 12.16 22.5 11.75 22.5Z" fill="#212121" fill-opacity="1.000000" fill-rule="evenodd"/>
		<path id="Fill 3" d="M6.93799 10.519C6.93799 13.182 9.09692 15.349 11.75 15.349C14.4031 15.349 16.561 13.182 16.561 10.519L16.561 5.83105C16.561 3.16699 14.4031 1 11.75 1C9.09692 1 6.93799 3.16699 6.93799 5.83105L6.93799 10.519ZM8.43799 5.83105C8.43799 3.99402 9.92407 2.5 11.75 2.5C13.5759 2.5 15.061 3.99402 15.061 5.83105L15.061 10.519C15.061 12.354 13.5759 13.849 11.75 13.849C9.92407 13.849 8.43799 12.354 8.43799 10.519L8.43799 5.83105Z" clip-rule="evenodd" fill="#212121" fill-opacity="1.000000" fill-rule="evenodd"/>
		<path id="Fill 5" d="M11.75 19.33C6.92 19.33 3 15.39 3 10.55C3 10.13 3.33 9.8 3.75 9.8C4.16 9.8 4.5 10.13 4.5 10.55C4.5 14.56 7.75 17.83 11.75 17.83C15.74 17.83 19 14.56 19 10.55C19 10.13 19.33 9.8 19.75 9.8C20.16 9.8 20.5 10.13 20.5 10.55C20.5 15.39 16.57 19.33 11.75 19.33Z" fill="#212121" fill-opacity="1.000000" fill-rule="evenodd"/>
		<path id="Fill 7" d="M15.8 7.25L13.81 7.25C13.4 7.25 13.06 6.91 13.06 6.5C13.06 6.09 13.4 5.75 13.81 5.75L15.8 5.75C16.22 5.75 16.55 6.09 16.55 6.5C16.55 6.91 16.22 7.25 15.8 7.25Z" fill="#212121" fill-opacity="1.000000" fill-rule="evenodd"/>
		<path id="Fill 9" d="M15.81 10.59L12.82 10.59C12.4 10.59 12.07 10.25 12.07 9.84C12.07 9.42 12.4 9.09 12.82 9.09L15.81 9.09C16.22 9.09 16.56 9.42 16.56 9.84C16.56 10.25 16.22 10.59 15.81 10.59Z" fill="#212121" fill-opacity="1.000000" fill-rule="evenodd"/>
	</g>
</svg>
