<svg width="24.000000" height="24.000000" viewBox="0 0 24 24" fill="none" xmlns="http://www.w3.org/2000/svg" xmlns:xlink="http://www.w3.org/1999/xlink">
	<desc>
			Created with Pixso.
	</desc>
	<defs>
		<clipPath id="clip430_8368">
			<rect id="Iconly/Light-Outline/Delete" width="24.000000" height="24.000000" fill="white" fill-opacity="0"/>
		</clipPath>
	</defs>
	<rect id="Iconly/Light-Outline/Delete" width="24.000000" height="24.000000" fill="#FFFFFF" fill-opacity="0"/>
	<g clip-path="url(#clip430_8368)">
		<path id="Fill 1" d="M12.24 22C10.89 22 9.57 21.98 8.26 21.95C6.59 21.92 5.43 20.84 5.24 19.12C4.93 16.28 4.39 9.59 4.38 9.52C4.35 9.11 4.66 8.75 5.07 8.71C5.48 8.7 5.84 8.99 5.88 9.4C5.88 9.47 6.42 16.14 6.73 18.96C6.84 19.93 7.36 20.43 8.29 20.45C10.79 20.51 13.34 20.51 16.09 20.46C17.07 20.44 17.61 19.95 17.72 18.95C18.03 16.16 18.57 9.47 18.57 9.4C18.61 8.99 18.97 8.7 19.38 8.71C19.79 8.75 20.1 9.11 20.07 9.52C20.06 9.59 19.52 16.3 19.21 19.12C19.01 20.86 17.86 21.93 16.12 21.96C14.78 21.98 13.5 22 12.24 22Z" fill="#212121" fill-opacity="1.000000" fill-rule="evenodd"/>
		<path id="Fill 3" d="M20.7 6.98L3.75 6.98C3.33 6.98 3 6.65 3 6.23C3 5.82 3.33 5.48 3.75 5.48L20.7 5.48C21.12 5.48 21.45 5.82 21.45 6.23C21.45 6.65 21.12 6.98 20.7 6.98Z" fill="#212121" fill-opacity="1.000000" fill-rule="evenodd"/>
		<path id="Fill 5" d="M17.44 6.98C16.3 6.98 15.31 6.17 15.09 5.06L14.84 3.84C14.79 3.66 14.58 3.5 14.34 3.5L10.11 3.5C9.87 3.5 9.66 3.66 9.6 3.89L9.36 5.06C9.14 6.17 8.15 6.98 7.01 6.98C6.6 6.98 6.26 6.65 6.26 6.23C6.26 5.82 6.6 5.48 7.01 5.48C7.44 5.48 7.81 5.18 7.89 4.76L8.14 3.55C8.38 2.61 9.19 2 10.11 2L14.34 2C15.26 2 16.07 2.61 16.3 3.5L16.56 4.76C16.64 5.18 17.01 5.48 17.44 5.48C17.85 5.48 18.19 5.82 18.19 6.23C18.19 6.65 17.85 6.98 17.44 6.98Z" fill="#212121" fill-opacity="1.000000" fill-rule="evenodd"/>
	</g>
</svg>
